<svg width="306" height="39" viewBox="0 0 306 39" fill="none" xmlns="http://www.w3.org/2000/svg">
<rect x="1" y="1" width="304" height="37" rx="2" fill="#121212" stroke="#F3E9DC" stroke-width="2"/>
<path d="M59 19.0658L74.5 3H234.5L248 19.0658L233.5 36H75L59 19.0658Z" fill="#F3E9DC"/>
<path d="M48.6096 37.9608C50.9753 37.8352 60.7398 34.7772 60.7398 28.787C60.7398 22.7967 53.9952 20.8279 53.9952 20.8279C53.9952 20.8279 57.7199 22.7967 57.7199 26.5249C57.7199 28.3681 55.7066 28.3681 55.7066 29.918C55.7066 31.5098 57.7199 31.6355 58.7265 30.7977C58.7265 30.7977 57.3675 35.3218 48.6096 37.5V37.9608Z" fill="#F3E9DC"/>
<path d="M28 25.8474C31.4699 36.6775 40.8045 38.9748 40.8045 38.9748L41 38.0371C41 38.0371 32.4474 35.0834 29.0263 25.7068L28 25.8474Z" fill="#F3E9DC"/>
<path d="M33.4594 32.2219L32.3521 31.1328C38.9457 30.5463 40.355 23.2156 40.355 23.2156C40.355 23.2156 40.959 30.9233 33.4594 32.2219Z" fill="#F3E9DC"/>
<path d="M60.3875 37.9608C60.3875 37.9608 56.5119 32.0124 50.4719 32.3476C50.4719 32.3476 50.8243 25.8127 46.5963 25.8127C42.3683 25.8127 42.1167 32.557 39.3484 31.2165C36.9827 30.0855 40.1033 28.0748 40.355 25.1006C40.7073 21.2467 37.8384 18.3982 33.8117 18.6915C33.8117 18.6915 33.1071 14.6281 31.2448 13.8322C29.1811 12.9107 28.4261 11.4026 28.4261 11.4026C28.4261 11.4026 27.6208 12.9107 25.5571 13.8322C23.7452 14.6281 23.0405 18.6915 23.0405 18.6915C19.0139 18.3982 16.1449 21.2467 16.4972 25.1006C16.7489 28.0748 19.8695 30.0855 17.5039 31.2165C14.6852 32.557 14.4839 25.8127 10.2559 25.8127C6.02799 25.8127 6.38031 32.3476 6.38031 32.3476C0.290034 32.0124 1.5 35 1.5 35L0.845671 34.4554C0.845671 34.4554 -1.47161 31.8449 4.669 31.049C4.669 31.049 4.01467 22.0845 14.9369 23.802C14.9369 23.802 14.2826 17.6861 21.8828 17.3929C21.8828 17.3929 22.5372 13.6647 25.4061 12.5336C28.2751 11.4026 28.4261 9.26624 28.4261 9.26624C28.4261 9.26624 28.5771 11.4026 31.4461 12.5336C34.2647 13.6647 34.9694 17.3929 34.9694 17.3929C42.5697 17.6861 41.865 23.802 41.865 23.802C52.8376 22.0845 52.1329 31.049 52.1329 31.049C58.3239 31.8449 61.0922 37.4162 61.0922 37.4162L60.3875 37.9608Z" fill="#F3E9DC"/>
<path d="M29 25.8474C25.3019 36.6775 15.1585 38.9748 15.1585 38.9748L15 38.0371C15 38.0371 24.2453 35.0834 27.9434 25.7068L29 25.8474Z" fill="#F3E9DC"/>
<path d="M23.3928 32.2219L24.4498 31.1328C17.9065 30.5463 16.4972 23.2156 16.4972 23.2156C16.4972 23.2156 15.8429 30.9233 23.3928 32.2219Z" fill="#F3E9DC"/>
<path d="M28.0738 36.8298C24.5505 35.4474 23.4935 33.8556 23.4935 33.8556L24.3995 32.9759C24.3995 32.9759 25.5571 34.6515 28.0738 35.4893C30.6407 34.6515 32.2514 32.7665 32.2514 32.7665L33.3084 33.6462C33.3084 33.6462 31.6474 35.4474 28.0738 36.8298Z" fill="#F3E9DC"/>
<path d="M29 12.3069C25.2632 2.10975 15.2105 0 15.2105 0L15 0.835109C15 0.835109 24.2105 3.64811 27.8947 12.4387L29 12.3069Z" fill="#F3E9DC"/>
<path d="M23.3928 6.16638L24.5001 7.25552C17.9065 7.84198 16.4972 15.1308 16.4972 15.1308C16.4972 15.1308 15.8932 7.42308 23.3928 6.16638Z" fill="#F3E9DC"/>
<path d="M1.5 3C1.5 3 0.340351 6.33384 6.3803 6.04061C6.3803 6.04061 6.02797 12.5754 10.2559 12.5754C14.4839 12.5754 14.7356 5.83116 17.5039 7.17164C19.8695 8.30266 16.7489 10.3134 16.4972 13.2876C16.1449 17.1414 19.0139 19.9899 23.0405 19.6967C23.0405 19.6967 23.7451 23.7181 25.6075 24.5559C27.6711 25.4356 28.4261 26.9437 28.4261 26.9437C28.4261 26.9437 29.2314 25.4356 31.2951 24.5559C33.1071 23.7181 33.8117 19.6967 33.8117 19.6967C37.8384 19.9899 40.7073 17.1414 40.355 13.2876C40.1033 10.3134 36.9827 8.30266 39.3483 7.17164C42.1166 5.83116 42.3683 12.5754 46.5963 12.5754C50.8242 12.5754 50.4719 6.04061 50.4719 6.04061C56.5622 6.33384 60.4378 0.427368 60.4378 0.427368L61.0921 0.971937C61.0921 0.971937 58.3238 6.54329 52.1832 7.29731C52.1832 7.29731 52.8376 16.2617 41.9153 14.5861C41.9153 14.5861 42.5696 20.7021 34.9694 20.9953C34.9694 20.9953 34.3151 24.6816 31.4461 25.8126C28.5771 26.9437 28.4261 29.08 28.4261 29.08C28.4261 29.08 28.2751 26.9437 25.4061 25.8126C22.5875 24.6816 21.8828 20.9953 21.8828 20.9953C14.2826 20.7021 14.9872 14.5861 14.9872 14.5861C4.01466 16.2617 4.71932 7.29731 4.71932 7.29731C-1.47163 6.54329 0.795339 3.54457 0.795339 3.54457L1.5 3Z" fill="#F3E9DC"/>
<path d="M48.6096 0.427368C50.9753 0.553038 60.7398 3.611 60.7398 9.60125C60.7398 15.5496 53.9952 17.5603 53.9952 17.5603C53.9952 17.5603 57.7199 15.5496 57.7199 11.8633C57.7199 10.0201 55.7066 10.0201 55.7066 8.42833C55.7066 6.87841 57.7199 6.75274 58.7265 7.59054C58.7265 7.59054 57.4179 3.02454 48.6096 0.888157V0.427368Z" fill="#F3E9DC"/>
<path d="M28 12.3069C31.434 2.10975 40.8528 0 40.8528 0L41 0.835109C41 0.835109 32.4151 3.64811 28.9811 12.4387L28 12.3069Z" fill="#F3E9DC"/>
<path d="M33.4594 6.16638L32.4024 7.25552C38.9457 7.84198 40.355 15.1308 40.355 15.1308C40.355 15.1308 41.0093 7.42308 33.4594 6.16638Z" fill="#F3E9DC"/>
<path d="M28.7784 1.55847C32.3017 2.94084 33.3587 4.53265 33.3587 4.53265L32.4527 5.37045C32.4527 5.37045 31.2951 3.69486 28.7784 2.85706C26.2115 3.69486 24.6008 5.62179 24.6008 5.62179L23.5438 4.7421C23.5438 4.7421 25.2048 2.94084 28.7784 1.55847Z" fill="#F3E9DC"/>
<path d="M57.8205 6.6272C57.8205 6.6272 57.3675 9.05681 58.4748 10.1459C58.4748 10.1459 59.5318 9.72705 59.8842 10.4811C60.2868 11.2351 59.4815 11.5702 58.9782 11.5283C58.9782 11.5283 58.9278 14.0836 62.9545 15.7173C64.1121 16.1781 64.7161 16.3875 64.5148 17.0578C64.3134 17.6861 62.9041 17.6023 61.6961 16.597C60.4882 15.5497 59.6325 16.974 59.6325 16.974C59.6325 16.974 57.0655 17.2672 55.0522 18.4401C53.7939 19.1942 53.2905 18.5239 53.2402 18.1469C53.1395 17.728 53.5925 17.5186 53.9449 17.5186C54.2972 17.5186 54.4985 18.0212 54.4985 18.0212C54.4985 18.0212 55.6562 17.1834 56.7132 16.8064C57.7198 16.4294 58.5755 16.3456 58.9278 16.3456C58.9278 16.3456 58.9278 15.2565 60.4378 15.1727C60.4378 15.1727 59.0285 14.1674 58.8272 13.5809C58.8272 13.5809 58.0218 13.9998 57.7198 13.1201C57.4682 12.408 58.0722 12.2823 58.0722 12.2823C58.0722 12.2823 56.5622 10.1459 57.8205 6.6272Z" fill="#CD9974"/>
<path d="M66.1757 19.0684C66.6287 18.9427 67.1824 18.8589 67.4844 17.7279C67.8367 16.5131 66.7294 15.7172 63.4578 14.7956C59.3305 13.6646 58.9781 11.5282 58.9781 11.5282C58.9781 11.5282 58.7768 14.4605 64.0114 15.7591C66.2764 16.3455 66.4274 16.8063 66.4274 17.5603C66.4274 18.3144 65.2194 18.9008 63.4578 18.6495V19.4873C65.2194 19.2778 66.4274 19.8224 66.4274 20.5764C66.4274 21.3304 66.2764 21.7912 64.0114 22.3777C58.7768 23.7182 58.9781 26.6086 58.9781 26.6086C58.9781 26.6086 59.3305 24.5141 63.4578 23.3411C66.7294 22.4196 67.8367 21.6237 67.4844 20.4089C67.1824 19.2778 66.6287 19.194 66.1757 19.0684Z" fill="#CD9974"/>
<path d="M57.8205 31.5097C57.8205 31.5097 57.3675 29.0801 58.4748 27.9909C58.4748 27.9909 59.5318 28.4098 59.8842 27.6558C60.2868 26.9018 59.4815 26.5667 58.9782 26.6086C58.9782 26.6086 58.9278 24.0533 62.9545 22.4196C64.1121 21.9588 64.7161 21.7493 64.5148 21.121C64.3134 20.4926 62.9041 20.5345 61.6961 21.5818C60.4882 22.5871 59.6325 21.1629 59.6325 21.1629C59.6325 21.1629 57.0655 20.9115 55.0522 19.7386C53.7939 18.9846 53.2905 19.6129 53.2402 20.0318C53.1395 20.4089 53.5925 20.6602 53.9449 20.6602C54.2972 20.6602 54.4985 20.1156 54.4985 20.1156C54.4985 20.1156 55.6562 20.9534 56.7132 21.3304C57.7198 21.7074 58.5755 21.7912 58.9278 21.7912C58.9278 21.7912 58.9278 22.8804 60.4378 22.9641C60.4378 22.9641 59.0285 23.9695 58.8272 24.5559C58.8272 24.5559 58.0218 24.1371 57.7198 25.0167C57.4682 25.7289 58.0722 25.8964 58.0722 25.8964C58.0722 25.8964 56.5622 27.9909 57.8205 31.5097Z" fill="#CD9974"/>
<path d="M72.417 19.0684C70.4037 20.9116 67.2831 21.5399 67.2831 21.5399C67.5851 21.2467 67.5851 20.5346 67.5851 20.5346C67.5851 20.5346 69.3467 20.3251 71.1084 19.0684C69.3467 17.8117 67.5851 17.6023 67.5851 17.6023C67.5851 17.6023 67.5851 16.932 67.2831 16.6388C67.2831 16.6388 70.4037 17.2253 72.417 19.0684Z" fill="#CD9974"/>
<path d="M63.1055 19.0684C63.1055 20.3251 60.5888 20.9534 60.5888 20.9534C60.5888 20.9534 60.6895 19.9062 61.6961 19.5292C61.6961 19.5292 60.2365 20.0319 59.0285 19.0684C60.2868 18.1887 61.6961 18.6076 61.6961 18.6076C60.6895 18.2725 60.5888 17.1833 60.5888 17.1833C60.5888 17.1833 63.1055 17.7279 63.1055 19.0684Z" fill="#121212"/>
<path d="M62.5015 18.4819C62.5015 17.7698 63.4075 17.7279 63.4075 18.4819V19.99C63.4075 20.744 62.5015 20.7021 62.5015 19.99V18.4819Z" fill="#CD9974"/>
<path d="M277.863 25.8474C281.614 36.6775 291.705 38.9748 291.705 38.9748L291.863 38.0371C291.863 38.0371 282.671 35.0834 278.973 25.7068L277.863 25.8474Z" fill="#F3E9DC"/>
<path d="M283.427 32.2219L282.37 31.1328C288.913 30.5463 290.373 23.2156 290.373 23.2156C290.373 23.2156 290.977 30.9233 283.427 32.2219Z" fill="#F3E9DC"/>
<path d="M304.295 36.5446C304.295 36.5446 306.53 32.0124 300.49 32.3476C300.49 32.3476 300.792 25.8127 296.614 25.8127C292.386 25.8127 292.135 32.557 289.366 31.2165C287.001 30.0855 290.121 28.0748 290.373 25.1006C290.725 21.2467 287.856 18.3982 283.779 18.6915C283.779 18.6915 283.125 14.6281 281.263 13.8322C279.199 12.9107 278.394 11.4026 278.394 11.4026C278.394 11.4026 277.639 12.9107 275.575 13.8322C273.763 14.6281 273.058 18.6915 273.058 18.6915C269.032 18.3982 266.163 21.2467 266.515 25.1006C266.767 28.0748 269.837 30.0855 267.471 31.2165C264.703 32.557 264.451 25.8127 260.274 25.8127C256.046 25.8127 256.398 32.3476 256.398 32.3476C250.308 32.0124 246.432 37.9608 246.432 37.9608L245.778 37.4162C245.778 37.4162 248.496 31.8449 254.687 31.049C254.687 31.049 254.033 22.0845 264.955 23.802C264.955 23.802 264.3 17.6861 271.901 17.3929C271.901 17.3929 272.555 13.6647 275.424 12.5336C278.293 11.4026 278.394 9.26624 278.394 9.26624C278.394 9.26624 278.545 11.4026 281.464 12.5336C284.283 13.6647 284.987 17.3929 284.987 17.3929C292.537 17.6861 291.883 23.802 291.883 23.802C302.805 22.0845 302.151 31.049 302.151 31.049C308.342 31.8449 305 36 305 36L304.295 36.5446Z" fill="#F3E9DC"/>
<path d="M258.21 37.9608C255.895 37.8352 246.08 34.7772 246.08 28.787C246.08 22.7967 252.825 20.8279 252.825 20.8279C252.825 20.8279 249.15 22.7967 249.15 26.5249C249.15 28.3681 251.164 28.3681 251.164 29.918C251.164 31.5098 249.15 31.6355 248.144 30.7977C248.144 30.7977 249.452 35.3218 258.21 37.5V37.9608Z" fill="#F3E9DC"/>
<path d="M278.863 25.8474C275.429 36.6775 266.011 38.9748 266.011 38.9748L265.863 38.0371C265.863 38.0371 274.399 35.0834 277.882 25.7068L278.863 25.8474Z" fill="#F3E9DC"/>
<path d="M273.411 32.2219L274.468 31.1328C267.924 30.5463 266.515 23.2156 266.515 23.2156C266.515 23.2156 265.861 30.9233 273.411 32.2219Z" fill="#F3E9DC"/>
<path d="M278.092 36.8298C274.568 35.4474 273.511 33.8556 273.511 33.8556L274.367 32.9759C274.367 32.9759 275.575 34.6515 278.092 35.4893C280.659 34.6515 282.219 32.7665 282.219 32.7665L283.276 33.6462C283.276 33.6462 281.615 35.4474 278.092 36.8298Z" fill="#F3E9DC"/>
<path d="M258.26 0.427368C255.895 0.553038 246.13 3.611 246.13 9.60125C246.13 15.5496 252.875 17.5603 252.875 17.5603C252.875 17.5603 249.15 15.5496 249.15 11.8633C249.15 10.0201 251.164 10.0201 251.164 8.42833C251.164 6.87841 249.15 6.75274 248.144 7.59054C248.144 7.59054 249.503 3.02454 258.26 0.888157V0.427368Z" fill="#F3E9DC"/>
<path d="M278.863 12.3069C275.429 2.10975 266.06 0 266.06 0L265.863 0.835109C265.863 0.835109 274.448 3.64811 277.882 12.4387L278.863 12.3069Z" fill="#F3E9DC"/>
<path d="M273.411 6.16638L274.468 7.25552C267.924 7.84198 266.515 15.1308 266.515 15.1308C266.515 15.1308 265.861 7.42308 273.411 6.16638Z" fill="#F3E9DC"/>
<path d="M246.432 0.427368C246.432 0.427368 250.358 6.33384 256.398 6.04061C256.398 6.04061 256.046 12.5754 260.274 12.5754C264.451 12.5754 264.753 5.83116 267.522 7.17164C269.887 8.30266 266.767 10.3134 266.515 13.2876C266.163 17.1414 269.032 19.9899 273.058 19.6967C273.058 19.6967 273.763 23.7181 275.575 24.5559C277.639 25.4356 278.444 26.9437 278.444 26.9437C278.444 26.9437 279.249 25.4356 281.263 24.5559C283.125 23.7181 283.83 19.6967 283.83 19.6967C287.856 19.9899 290.725 17.1414 290.373 13.2876C290.121 10.3134 287.001 8.30266 289.366 7.17164C292.135 5.83116 292.386 12.5754 296.614 12.5754C300.842 12.5754 300.49 6.04061 300.49 6.04061C306.53 6.33384 304.346 2.95543 304.346 2.95543L305 3.5C305 3.5 308.342 6.54329 302.151 7.29731C302.151 7.29731 302.855 16.2617 291.883 14.5861C291.883 14.5861 292.537 20.7021 284.987 20.9953C284.987 20.9953 284.333 24.6816 281.464 25.8126C278.595 26.9437 278.444 29.08 278.444 29.08C278.444 29.08 278.293 26.9437 275.424 25.8126C272.555 24.6816 271.901 20.9953 271.901 20.9953C264.3 20.7021 265.005 14.5861 265.005 14.5861C254.033 16.2617 254.687 7.29731 254.687 7.29731C248.546 6.54329 245.778 0.971937 245.778 0.971937L246.432 0.427368Z" fill="#F3E9DC"/>
<path d="M277.863 12.3069C281.562 2.10975 291.705 0 291.705 0L291.863 0.835109C291.863 0.835109 282.618 3.64811 278.92 12.4387L277.863 12.3069Z" fill="#F3E9DC"/>
<path d="M283.477 6.16638L282.37 7.25552C288.964 7.84198 290.373 15.1308 290.373 15.1308C290.373 15.1308 290.977 7.42308 283.477 6.16638Z" fill="#F3E9DC"/>
<path d="M278.746 1.55847C282.269 2.94084 283.326 4.53265 283.326 4.53265L282.471 5.37045C282.471 5.37045 281.313 3.69486 278.746 2.85706C276.229 3.69486 274.619 5.62179 274.619 5.62179L273.562 4.7421C273.562 4.7421 275.223 2.94084 278.746 1.55847Z" fill="#F3E9DC"/>
<path d="M248.546 31.5097C248.546 31.5097 249.05 29.0801 247.892 27.9909C247.892 27.9909 246.835 28.4098 246.483 27.6558C246.13 26.9018 246.885 26.5667 247.389 26.6086C247.389 26.6086 247.439 24.0533 243.412 22.4196C242.305 21.9588 241.651 21.7493 241.852 21.121C242.053 20.4926 243.513 20.5345 244.721 21.5818C245.929 22.5871 246.734 21.1629 246.734 21.1629C246.734 21.1629 249.301 20.9115 251.315 19.7386C252.573 18.9846 253.076 19.6129 253.127 20.0318C253.227 20.4089 252.774 20.6602 252.422 20.6602C252.07 20.6602 251.868 20.1156 251.868 20.1156C251.868 20.1156 250.711 20.9534 249.654 21.3723C248.647 21.7074 247.791 21.7912 247.489 21.7912C247.489 21.7912 247.439 22.8804 245.929 22.9641C245.929 22.9641 247.338 23.9695 247.54 24.5559C247.54 24.5559 248.395 24.1371 248.697 25.0167C248.899 25.7289 248.295 25.8964 248.295 25.8964C248.295 25.8964 249.805 27.9909 248.546 31.5097Z" fill="#CD9974"/>
<path d="M240.191 19.0684C239.738 19.194 239.184 19.3197 238.882 20.4089C238.53 21.6237 239.637 22.4196 242.909 23.3411C247.036 24.5141 247.389 26.6086 247.389 26.6086C247.389 26.6086 247.59 23.6763 242.355 22.3777C240.09 21.7912 239.939 21.3304 239.939 20.5764C239.939 19.8224 241.147 19.2778 242.909 19.4873V18.6495C241.147 18.8589 239.939 18.3144 239.939 17.5603C239.939 16.8063 240.09 16.3455 242.355 15.7591C247.59 14.4605 247.389 11.5282 247.389 11.5282C247.389 11.5282 247.036 13.6646 242.909 14.7956C239.637 15.7172 238.53 16.5131 238.882 17.7279C239.184 18.8589 239.738 18.9427 240.191 19.0684Z" fill="#CD9974"/>
<path d="M248.546 6.6272C248.546 6.6272 249.05 9.05681 247.892 10.1459C247.892 10.1459 246.835 9.72705 246.483 10.4811C246.13 11.2351 246.885 11.5702 247.389 11.5283C247.389 11.5283 247.439 14.0836 243.412 15.7173C242.305 16.1781 241.651 16.3875 241.852 17.0578C242.053 17.6861 243.513 17.6023 244.721 16.597C245.929 15.5497 246.734 16.974 246.734 16.974C246.734 16.974 249.301 17.2672 251.315 18.3983C252.573 19.1942 253.076 18.5239 253.127 18.1469C253.227 17.728 252.774 17.5186 252.422 17.5186C252.07 17.5186 251.868 18.0212 251.868 18.0212C251.868 18.0212 250.711 17.1834 249.654 16.8064C248.647 16.4294 247.791 16.3456 247.489 16.3456C247.489 16.3456 247.439 15.2565 245.929 15.1727C245.929 15.1727 247.338 14.1674 247.54 13.5809C247.54 13.5809 248.395 13.9998 248.697 13.1201C248.899 12.408 248.295 12.2823 248.295 12.2823C248.295 12.2823 249.805 10.1459 248.546 6.6272Z" fill="#CD9974"/>
<path d="M234 19.0684C235.963 17.2253 239.084 16.6388 239.084 16.6388C238.782 16.8901 238.782 17.6023 238.782 17.6023C238.782 17.6023 237.02 17.8117 235.258 19.0684C237.02 20.3251 238.782 20.5346 238.782 20.5346C238.782 20.5346 238.782 21.2467 239.084 21.5399C239.084 21.5399 235.963 20.9116 234 19.0684Z" fill="#CD9974"/>
<path d="M243.261 19.0684C243.261 17.8117 245.778 17.1833 245.778 17.1833C245.778 17.1833 245.677 18.2725 244.671 18.6076C244.671 18.6076 246.13 18.1468 247.389 19.0684C246.08 19.9481 244.671 19.5292 244.671 19.5292C245.677 19.9062 245.778 20.9534 245.778 20.9534C245.778 20.9534 243.261 20.4089 243.261 19.0684Z" fill="#121212"/>
<path d="M243.916 19.6549C243.916 20.4089 242.959 20.4089 242.959 19.6549V18.1887C242.959 17.4347 243.916 17.4766 243.916 18.1887V19.6549Z" fill="#CD9974"/>
</svg>
