<svg width="430" height="143" viewBox="0 0 430 143" fill="none" xmlns="http://www.w3.org/2000/svg">
<path d="M256.103 86.7646C256.613 85.5329 257.106 84.35 257.651 83.1918C257.738 83.0061 258.139 82.7774 258.258 82.8376C258.472 82.9461 258.674 83.2407 258.722 83.4882C258.921 84.5183 259.25 85.4938 259.861 86.3473C260.686 87.4998 261.791 88.3312 263.031 89.0077C266.125 90.696 269.399 91.8694 272.889 92.3885C274.46 92.6221 276.044 92.8186 277.628 92.9064C279.699 93.0211 281.788 93.1596 283.849 93.0154C286.124 92.8562 288.4 92.4983 290.635 92.0324C295.297 91.0602 299.838 89.6354 304.33 88.0612C305.241 87.7416 306.144 87.3967 307.051 87.0635C307.055 87.0054 307.058 86.9474 307.061 86.8894C306.111 86.5621 305.167 86.2182 304.21 85.9111C302.046 85.2162 299.865 84.5407 297.584 84.3974C295.581 84.2715 293.562 84.1768 291.561 84.2844C289.82 84.378 288.096 84.7743 286.363 85.0336C286.256 85.0497 286.141 85.0546 286.035 85.0342C285.772 84.9835 285.31 84.9528 285.29 84.8469C285.232 84.5372 285.258 84.1379 285.418 83.8748C286.155 82.6635 287.002 81.517 287.705 80.288C288.311 79.2284 289.318 78.9238 290.354 78.7486C292.546 78.3776 294.754 78.0864 296.962 77.8198C298.206 77.6696 299.465 77.6393 300.716 77.5442C301.854 77.4577 302.992 77.3568 304.206 77.2559C304.11 76.108 304.047 74.9738 303.911 73.8484C303.779 72.7492 303.577 71.6581 303.396 70.5649C303.167 69.1792 302.934 67.7942 302.694 66.4104C302.406 64.7556 302.111 63.1021 301.816 61.4487C301.577 60.1097 301.318 58.774 301.094 57.4324C300.919 56.38 300.756 55.324 300.637 54.2641C300.326 51.5169 300.043 48.7606 298.646 46.2927C298.212 45.5264 298.342 44.9283 298.787 44.2155C299.467 43.1274 300.02 41.9604 300.632 40.8299C300.812 40.4974 300.975 40.1455 301.21 39.8548C301.611 39.3597 302.037 39.414 302.296 39.991C302.659 40.7969 302.9 41.6674 303.336 42.4283C304.167 43.8769 305.06 45.2948 306.004 46.6722C306.635 47.5922 306.541 48.3571 305.788 49.1915C305.46 49.5555 305.086 49.8814 304.713 50.2022C303.919 50.8852 304.148 51.7967 304.229 52.621C304.37 54.0627 304.635 55.4923 304.847 56.9271C305.065 58.4046 305.296 59.8805 305.497 61.3606C305.652 62.507 305.75 63.661 305.905 64.8074C306.105 66.2875 306.359 67.7606 306.548 69.242C306.714 70.541 306.832 71.8463 306.951 73.1507C307.017 73.8826 307.103 74.6207 307.074 75.3518C307.002 77.1618 306.679 78.9043 305.337 80.3267C307.162 81.3815 309.113 82.0532 311.12 82.522C313.334 83.0392 315.574 83.4521 317.816 83.8369C318.876 84.0188 319.965 84.0283 321.041 84.1179C323.128 84.2917 325.214 84.465 327.3 84.6437C327.639 84.6728 327.981 84.7056 328.313 84.7772C328.996 84.9242 329.103 85.0832 328.83 85.7532C328.354 86.9235 327.826 88.0726 327.317 89.2295C327.241 89.4035 327.145 89.5687 327.068 89.7425C326.685 90.6072 326.37 90.6996 325.379 90.4956C323.982 90.2083 322.574 89.9679 321.161 89.7782C318.848 89.4677 316.586 89.9072 314.312 90.276C311.329 90.7597 308.426 91.5268 305.589 92.539C303.226 93.3822 300.916 94.3782 298.542 95.1882C295.926 96.081 293.273 96.8714 290.618 97.6449C288.521 98.2558 286.363 98.5687 284.182 98.7079C282.886 98.7906 281.591 98.8977 280.294 98.9652C279.055 99.0298 277.808 99.1446 276.573 99.0803C274.791 98.9874 273.015 98.7482 271.236 98.5798C268.916 98.3603 266.677 97.797 264.498 96.9933C263.786 96.731 263.1 96.3999 262.384 96.0924C261.656 97.6574 260.968 99.2619 260.176 100.814C258.839 103.431 257.411 106.013 255.294 108.099C253.191 110.172 250.723 111.671 247.713 111.959C246.234 112.101 244.724 112.064 243.239 111.959C241.838 111.859 240.433 111.644 239.062 111.337C236.611 110.789 234.376 109.665 232.163 108.517C231.337 108.089 230.55 107.586 229.746 107.117C229.691 107.085 229.615 107.061 229.588 107.012C229.419 106.704 229.06 106.302 229.149 106.1C229.267 105.833 229.719 105.632 230.061 105.558C230.976 105.361 231.755 105.861 232.57 106.166C234.406 106.853 236.276 107.434 238.251 107.502C239.831 107.557 241.422 107.62 242.992 107.488C245.474 107.28 247.92 106.886 250.131 105.561C251.969 104.46 253.5 103.052 254.887 101.444C256.665 99.3826 257.998 97.0503 259.201 94.6314C259.238 94.557 259.256 94.4733 259.301 94.3384C256.52 92.5668 255.148 90.1777 256.103 86.7646Z" fill="white"/>
<path d="M189.929 45.3755C190.877 46.7162 191.792 48.0189 192.705 49.323C193.368 50.2709 193.701 51.2251 192.948 52.313C192.555 52.8816 192.288 53.5358 191.943 54.1398C191.504 54.9092 191.582 55.7279 191.685 56.5481C191.852 57.8854 192.047 59.2193 192.203 60.5579C192.28 61.2224 192.317 61.8934 192.337 62.5626C192.392 64.3916 192.516 66.2244 192.45 68.0499C192.37 70.2666 192.103 72.4759 191.953 74.6909C191.784 77.1879 191.307 79.6319 190.608 82.023C190.113 83.7179 189.446 85.3636 188.832 87.0227C188.642 87.5353 188.427 88.0524 188.134 88.5099C187.55 89.4202 187.58 90.2638 188.049 91.2368C189.171 93.5627 189.887 96.0375 190.478 98.5443C190.917 100.403 189.871 102.518 188.257 102.962C187.377 103.203 186.454 103.288 185.55 103.438C183.697 103.744 181.846 104.06 179.99 104.345C178.678 104.547 177.357 104.693 176.044 104.889C175.032 105.039 174.021 105.209 173.017 105.405C172.088 105.587 171.498 105.012 171.655 104.086C171.816 103.139 171.964 102.186 172.043 101.23C172.159 99.8233 172.461 99.4974 173.855 99.3563C174.49 99.292 175.113 99.1166 175.747 99.0401C177.04 98.8841 177.899 97.9911 178.839 97.2502C181.171 95.4131 182.866 93.0537 184.269 90.4745C184.385 90.2604 184.348 89.8453 184.212 89.6304C182.81 87.4116 181.43 85.1752 179.926 83.0261C178.968 81.6588 177.852 80.3948 176.735 79.1485C175.327 77.5772 173.89 76.0265 172.384 74.5491C170.689 72.8857 168.905 71.313 167.157 69.7031C166.899 69.4657 166.714 69.4105 166.447 69.7773C165.78 70.6927 164.919 71.0202 163.816 70.5228C161.407 69.4364 159.068 68.1958 156.686 67.0461C156.084 66.7554 156.087 66.1988 155.992 65.7064C155.657 63.9739 155.328 62.2381 155.079 60.4919C154.879 59.089 154.738 57.6716 154.68 56.2562C154.627 54.9513 155.349 54.7564 156.353 55.2355C157.587 55.8246 158.727 56.6334 159.845 57.4353C161.526 58.6423 163.169 59.9057 164.797 61.1842C165.762 61.942 166.684 62.7572 167.596 63.5786C168.839 64.6978 170.1 65.8025 171.27 66.9957C172.664 68.4188 174.006 69.8984 175.304 71.4098C176.658 72.9859 178.017 74.5696 179.224 76.2572C180.974 78.7051 182.607 81.2372 184.251 83.7587C184.838 84.6589 185.313 85.6325 185.909 86.6983C186.267 85.6218 186.661 84.6286 186.926 83.6023C187.361 81.9232 187.758 80.2313 188.082 78.5279C188.306 77.3521 188.433 76.1513 188.508 74.9557C188.639 72.8987 188.73 70.8379 188.774 68.7773C188.818 66.7623 188.852 64.7427 188.764 62.7306C188.681 60.8421 188.416 58.9621 188.261 57.076C188.071 54.7733 187.423 52.6559 186.103 50.7139C185.367 49.6303 185.408 48.3643 186.076 47.1962C186.788 45.9523 187.536 44.7291 188.353 43.3561C188.763 43.2282 189.116 43.476 189.322 44.0695C189.474 44.5058 189.701 44.9161 189.929 45.3755ZM184.702 97.3238C185.622 97.16 186.542 96.9963 187.553 96.8162C187.07 95.6444 186.618 94.5138 186.137 93.3957C185.959 92.9822 185.789 92.8857 185.456 93.367C184.739 94.4001 183.938 95.3752 183.157 96.3626C182.781 96.8384 182.371 97.2882 181.892 97.8487C182.882 97.6802 183.743 97.5338 184.702 97.3238Z" fill="white"/>
<path d="M108.662 107.381C106.742 107.388 104.885 107.288 103.108 106.734C100.779 106.007 98.7554 104.709 97.1629 102.878C95.8861 101.411 95.1314 99.6513 94.8347 97.684C94.4848 95.3641 94.9446 93.1653 95.6519 91.0025C96.3058 89.0032 97.0455 87.0298 97.8155 85.0716C98.0425 84.4944 98.47 83.9827 98.8704 83.4938C99.005 83.3295 99.3405 83.3289 99.5841 83.2535C99.666 83.5227 99.8629 83.8189 99.8071 84.0557C99.6678 84.6464 99.3857 85.2019 99.2108 85.7864C98.7397 87.3607 98.2365 88.929 97.8531 90.5252C97.2971 92.8407 97.6971 94.9151 99.3829 96.7565C101.125 98.6598 103.129 100.067 105.595 100.836C107.116 101.311 108.629 101.24 110.181 100.997C112.143 100.69 114.023 100.144 115.837 99.3609C118.1 98.3835 120.252 97.2013 122.25 95.7532C123.832 94.6066 124.331 92.94 124.5 91.1013C124.698 88.9429 124.284 86.8422 123.973 84.7282C123.691 82.8049 123.462 80.8738 123.171 78.9518C122.799 76.4871 122.375 74.0301 121.996 71.5661C121.628 69.1619 121.317 66.7487 120.929 64.3476C120.479 61.5545 119.973 58.7704 119.492 55.9823C119.314 54.9555 119.264 53.885 118.927 52.9133C118.545 51.8116 117.995 50.741 117.356 49.7621C116.656 48.6898 116.492 46.9969 117.156 45.8956C117.832 44.7735 118.48 43.6345 119.122 42.4925C119.451 41.9077 119.844 41.8579 120.188 42.4315C120.893 43.607 121.534 44.8214 122.264 45.9809C122.884 46.9668 123.603 47.8904 124.256 48.8566C124.64 49.4249 124.602 50.0322 124.28 50.6189C123.884 51.3417 123.492 52.0684 123.06 52.7702C122.481 53.7119 122.649 54.6931 122.821 55.6891C122.996 56.6968 123.149 57.7084 123.308 58.7187C123.521 60.0659 123.739 61.4124 123.939 62.7614C124.134 64.0709 124.307 65.3836 124.496 66.694C124.672 67.9189 124.85 69.1435 125.04 70.3664C125.246 71.6927 125.475 73.0153 125.678 74.3421C125.906 75.84 126.136 77.3382 126.328 78.841C126.491 80.1184 126.609 81.4018 126.732 82.6839C126.915 84.5878 127.122 86.4906 127.244 88.3986C127.299 89.257 127.261 90.1427 127.109 90.9881C126.826 92.5686 126.543 94.1659 126.048 95.6874C125.467 97.4707 124.384 99.0099 123.198 100.47C121.049 103.115 118.079 104.523 115.056 105.803C113.569 106.432 111.967 106.803 110.4 107.23C109.868 107.376 109.285 107.336 108.662 107.381Z" fill="white"/>
<path d="M149.247 94.7638C147.694 94.8514 146.201 95.0066 144.708 95.0062C143.409 95.0059 142.141 94.7917 141.015 93.9948C139.719 93.0777 139.056 91.8299 138.86 90.3133C138.323 86.1627 139.827 82.6423 142.299 79.4335C142.915 78.6336 143.563 77.9118 144.568 77.5165C145.777 77.0412 146.818 77.291 147.85 77.9138C149.328 78.8066 150.351 80.14 151.216 81.5765C152.804 84.2114 153.702 87.1205 154.248 90.1196C154.814 93.2296 154.414 96.2647 153.297 99.2372C152.178 102.215 150.796 105.029 148.715 107.457C147.589 108.77 146.47 110.101 145.229 111.302C143.79 112.695 141.975 113.542 140.061 114.055C138.158 114.566 136.212 114.946 134.263 115.243C132.856 115.457 131.409 115.554 129.987 115.504C127.898 115.431 125.807 115.244 123.731 114.985C122.069 114.777 120.422 114.422 118.784 114.059C118.455 113.986 118.199 113.582 117.909 113.33C118.202 113.056 118.455 112.633 118.798 112.54C119.389 112.378 120.054 112.304 120.655 112.4C122.875 112.754 125.111 112.883 127.342 112.75C131.201 112.521 134.875 111.57 138.306 109.716C140.698 108.423 142.984 106.979 144.958 105.122C146.751 103.434 148.179 101.423 149.402 99.2868C150.049 98.1553 150.617 96.9763 151.171 95.7954C151.343 95.4283 151.351 94.9846 151.465 94.4276C150.644 94.5555 149.975 94.6597 149.247 94.7638ZM149.195 87.6653C148.394 86.3683 147.432 85.2034 146.261 84.2255C145.47 83.565 144.838 83.5394 144.007 84.1218C143.136 84.7318 142.599 85.5569 142.394 86.627C142.195 87.6655 142.473 88.2922 143.455 88.5849C144.944 89.0287 146.481 89.026 148.012 88.9671C148.608 88.9442 149.199 88.7874 149.838 88.6843C149.612 88.311 149.438 88.0235 149.195 87.6653Z" fill="white"/>
<path d="M232.003 76.0992C233.71 75.2286 235.607 75.1784 237.048 76.6126C237.511 77.0741 238.013 77.5285 238.349 78.0766C238.64 78.5519 238.869 79.1182 238.468 79.7301C237.752 80.8219 237.166 82.0062 236.383 83.0444C235.8 83.8174 234.975 83.6307 234.535 82.7635C233.963 81.6353 233.202 80.6946 231.866 80.5292C231.354 80.4657 230.761 80.5809 230.288 80.7968C229.718 81.0573 229.24 81.5171 228.716 81.8805C227.935 82.4214 227.803 83.1601 228.417 83.8881C229.779 85.5024 231.486 86.6719 233.544 87.0871C235.306 87.4426 237.123 87.5734 238.94 87.1692C240.147 86.9007 241.388 86.7795 242.617 86.6223C243.08 86.5631 243.382 86.7193 243.064 87.2488C242.293 88.5323 241.553 89.8371 240.707 91.0701C240.543 91.309 239.963 91.2978 239.568 91.3394C236.626 91.6492 233.853 92.5883 231.169 93.7425C228.765 94.7761 226.46 96.037 224.099 97.1715C223.853 97.2898 223.522 97.2317 223.23 97.2554C223.21 96.9635 223.098 96.6407 223.186 96.3853C223.498 95.47 223.783 94.5225 224.267 93.6972C224.557 93.2021 225.173 92.8741 225.687 92.538C226.341 92.1096 227.031 91.7315 227.724 91.3655C228.146 91.1426 228.182 90.9955 227.757 90.7227C226.561 89.9547 225.398 89.1342 224.195 88.3788C223.311 87.8245 222.951 86.2401 223.081 85.4403C223.267 84.2918 223.968 83.4286 224.662 82.5883C225.571 81.4861 226.556 80.4411 227.56 79.4213C228.857 78.1033 230.319 76.9874 232.003 76.0992Z" fill="white"/>
<path d="M335.542 86.6146C335.454 88.4979 335.457 90.3261 335.249 92.1301C335.091 93.5066 334.67 94.8535 334.354 96.2107C334.317 96.3674 334.236 96.551 334.116 96.6432C333.868 96.8327 333.554 97.1198 333.313 97.0812C333.102 97.0474 332.842 96.6422 332.798 96.3696C332.688 95.6916 332.662 94.9962 332.65 94.3069C332.629 93.125 332.703 91.9389 332.631 90.7609C332.501 88.6115 332.294 86.4668 332.119 84.3202C332.03 83.2253 331.967 82.1276 331.847 81.0361C331.7 79.6977 331.495 78.3657 331.334 77.0287C331.187 75.8155 331.077 74.5979 330.928 73.3849C330.772 72.1126 330.584 70.8442 330.421 69.5727C330.318 68.7651 330.237 67.9546 330.14 67.146C329.968 65.7007 329.784 64.2568 329.62 62.8106C329.516 61.8925 329.413 60.973 329.356 60.0513C329.249 58.3224 329.143 56.5924 329.095 54.8612C329.042 52.9242 329.586 51.1236 330.548 49.4529C330.661 49.2551 330.972 49.0455 331.176 49.0595C331.369 49.0728 331.629 49.3416 331.706 49.5536C331.856 49.9648 331.934 50.4115 331.979 50.8498C332.169 52.7099 332.331 54.5726 332.511 56.4336C332.637 57.7368 332.753 59.0416 332.913 60.3407C333.107 61.9087 333.356 63.4699 333.557 65.0371C333.711 66.2275 333.819 67.4236 333.964 68.6151C334.121 69.9095 334.306 71.2006 334.464 72.4949C334.573 73.3893 334.654 74.2869 334.752 75.1827C334.925 76.7597 335.11 78.3354 335.271 79.9136C335.341 80.601 335.382 81.2925 335.407 81.9832C335.462 83.5048 335.498 85.0271 335.542 86.6146Z" fill="white"/>
<path d="M206.964 64.9221C207.14 66.3826 207.307 67.7843 207.493 69.1835C207.702 70.7496 207.943 72.3115 208.14 73.879C208.261 74.8383 208.318 75.8052 208.414 76.7676C208.584 78.4764 208.762 80.1843 208.936 81.8927C208.942 81.9578 208.939 82.0239 208.94 82.0896C208.984 84.4433 209.142 86.802 209.04 89.1493C208.934 91.5943 208.871 94.0742 208.002 96.4168C207.866 96.7834 207.574 97.1261 207.275 97.3901C206.889 97.7303 206.6 97.4906 206.442 97.083C206.374 96.9086 206.317 96.7186 206.31 96.5337C206.257 95.0122 206.241 93.4891 206.168 91.9687C206.057 89.6574 205.949 87.3447 205.766 85.0383C205.602 82.965 205.356 80.8974 205.114 78.831C204.873 76.7713 204.586 74.717 204.331 72.6588C204.059 70.471 203.789 68.2828 203.542 66.0923C203.306 64.0033 203.064 61.9139 202.891 59.8194C202.749 58.1158 202.618 56.4032 202.641 54.6967C202.664 53.0075 203.146 51.3959 204.078 49.9596C204.228 49.7288 204.554 49.6119 204.799 49.4424C204.993 49.7235 205.32 49.9878 205.359 50.2886C205.505 51.4409 205.534 52.6073 205.653 53.7638C205.801 55.2115 206.002 56.6537 206.167 58.0997C206.311 59.3571 206.426 60.6178 206.572 61.8748C206.688 62.8723 206.832 63.8665 206.964 64.9221Z" fill="white"/>
<path d="M234.739 57.6961C235.244 58.0567 235.73 58.3792 236.148 58.7735C236.777 59.3672 236.675 60.1702 236.564 60.9046C236.463 61.5638 236.207 62.2014 235.998 62.8415C235.79 63.4782 235.439 63.5424 234.935 63.0675C234.304 62.4715 233.656 61.8922 233.033 61.2879C232.731 60.9956 232.573 61.1005 232.42 61.4214C231.569 63.2026 230.46 64.8132 228.924 66.057C227.671 67.071 226.353 68.0277 224.969 68.8518C223.226 69.8904 221.389 70.775 219.585 71.7097C219.232 71.8923 218.848 72.0809 218.464 72.1177C218.154 72.1475 217.746 72.0392 217.518 71.8383C217.17 71.5333 217.387 71.129 217.67 70.8883C218.917 69.8288 220.163 68.7651 221.457 67.7657C223.567 66.1371 225.756 64.6078 227.83 62.9363C228.906 62.069 229.808 60.9867 230.833 59.9579C229.63 59.0881 228.565 58.3478 227.534 57.5619C226.935 57.1049 226.342 56.6207 225.837 56.0663C225.173 55.3381 225.243 54.4171 225.453 53.5395C226.001 51.2406 227.131 49.2531 228.932 47.7143C229.575 47.1656 230.364 46.6739 231.168 46.4588C232.009 46.2335 232.807 46.766 233.482 47.2994C234.602 48.1842 234.84 49.518 235.139 50.7905C235.285 51.4125 235.339 52.0886 235.269 52.7218C235.107 54.1798 234.838 55.6257 234.629 57.0789C234.6 57.2757 234.666 57.4861 234.739 57.6961ZM232.521 53.679C232.537 52.4287 232.09 51.3499 231.24 50.4529C230.661 49.8424 230.077 49.8415 229.488 50.4169C229.12 50.7767 228.742 51.1528 228.477 51.5873C227.987 52.3906 227.961 52.9992 228.885 53.5098C229.255 53.7141 229.576 54.0064 229.924 54.2512C230.764 54.8416 231.607 55.4275 232.521 56.0658C232.521 55.2362 232.521 54.5182 232.521 53.679Z" fill="white"/>
<path d="M289.992 58.1911C290.606 58.6892 291.311 59.0843 291.337 59.9382C291.353 60.4352 291.263 60.9429 291.163 61.434C291.053 61.9692 290.899 62.4983 290.723 63.0162C290.533 63.5771 290.24 63.6401 289.768 63.2122C289.294 62.7824 288.864 62.3043 288.398 61.8651C288.105 61.5885 287.78 61.3446 287.412 61.0387C286.969 61.843 286.582 62.6123 286.134 63.3442C285.251 64.7868 284.006 65.8766 282.682 66.916C280.006 69.0181 276.969 70.4829 273.954 71.9928C273.641 72.1496 273.272 72.2576 272.926 72.2668C272.676 72.2735 272.29 72.1419 272.201 71.9579C272.091 71.7312 272.114 71.2805 272.274 71.1107C272.933 70.415 273.613 69.7172 274.382 69.1511C276.967 67.2477 279.633 65.4518 282.188 63.5102C283.483 62.5263 284.704 61.4059 285.513 59.8807C284.58 59.2372 283.648 58.6137 282.738 57.9593C282.166 57.5477 281.625 57.0919 281.073 56.652C280.21 55.9636 280.018 54.9895 280.238 54.0258C280.747 51.8024 281.661 49.74 283.396 48.1804C284.075 47.5701 284.88 47.0158 285.726 46.6944C286.877 46.2571 287.893 46.8569 288.573 47.7481C289.506 48.97 289.874 50.4526 289.949 51.9739C290.038 53.7612 289.828 55.5269 289.298 57.2435C289.106 57.8645 289.729 57.8605 289.992 58.1911ZM286.605 55.7307C286.813 55.8669 287.022 56.0031 287.245 56.1495C287.289 56.0546 287.316 56.0003 287.338 55.9443C287.833 54.7333 287.159 51.5175 286.223 50.6208C285.451 49.8811 284.75 49.8894 284.018 50.6938C283.721 51.0203 283.465 51.3962 283.248 51.7814C282.687 52.7742 282.934 53.1379 283.56 53.5988C284.531 54.3142 285.541 54.9769 286.605 55.7307Z" fill="white"/>
<path d="M97.5339 50.5013C100.386 48.4055 103.235 46.3818 105.995 44.2451C107.122 43.3726 108.059 42.2551 109.128 41.2037C108.234 40.5357 107.494 39.9989 106.772 39.4388C106.095 38.9139 105.408 38.3968 104.78 37.8176C103.957 37.059 103.949 36.0646 104.219 35.0836C104.897 32.6225 106.209 30.6084 108.365 29.1365C109.844 28.1265 111.648 29.0521 112.248 30.1661C113.202 31.9355 113.523 33.8125 113.166 35.7951C112.997 36.7312 112.802 37.6627 112.648 38.6011C112.622 38.7636 112.693 38.9935 112.804 39.1161C113.017 39.3523 113.263 39.5914 113.544 39.7282C114.688 40.2834 114.559 41.2908 114.438 42.2532C114.368 42.8077 114.139 43.3467 113.942 43.8781C113.882 44.0412 113.693 44.2645 113.558 44.2682C113.342 44.2742 113.077 44.1702 112.912 44.024C112.33 43.5106 111.794 42.9461 111.216 42.4283C110.946 42.1867 110.801 42.364 110.638 42.638C110.172 43.4197 109.665 44.1778 109.159 44.9349C108.323 46.1849 107.2 47.1769 105.948 47.9464C103.553 49.4183 101.084 50.7728 98.6179 52.1261C98.1948 52.3583 97.6383 52.3972 97.1376 52.4266C96.6498 52.4552 96.4148 52.0748 96.6521 51.6498C96.8778 51.2454 97.2092 50.8996 97.5339 50.5013ZM107.166 35.0895C108.343 35.8934 109.521 36.6973 110.794 37.5659C110.794 37.0104 110.803 36.6002 110.792 36.1905C110.759 34.9711 110.574 33.7817 109.867 32.7515C109.274 31.8869 108.636 31.6636 107.85 32.461C107.479 32.8371 107.157 33.2727 106.873 33.7191C106.573 34.1887 106.607 34.6563 107.166 35.0895Z" fill="white"/>
<path d="M253.484 56.6506C252.113 57.0449 250.807 57.4765 249.474 57.8005C249.145 57.8805 248.535 57.7205 248.398 57.4776C248.14 57.0221 248.412 56.5366 248.886 56.253C249.631 55.8074 250.374 55.3573 251.134 54.9397C252.898 53.9709 254.673 53.0233 256.438 52.0568C256.569 51.9852 256.708 51.8447 256.741 51.7113C256.761 51.6301 256.604 51.4424 256.491 51.4021C254.864 50.8217 253.239 50.1827 251.462 50.3448C249.458 50.5276 247.752 51.3358 246.509 52.9455C246.255 53.2735 245.96 53.5057 245.685 53.3208C245.488 53.1891 245.371 52.6661 245.468 52.4147C246.62 49.4549 248.4 47.1947 251.806 46.6385C253.595 46.3463 255.24 46.752 256.907 47.2527C258.362 47.6898 259.838 48.0606 261.29 48.5085C262.216 48.7942 262.522 48.6732 262.157 49.8794C261.968 50.5014 261.767 51.1311 261.47 51.7053C261.174 52.2776 260.74 52.7035 260.088 53.0041C259.35 53.3442 258.729 53.9523 258.086 54.4797C256.986 55.3829 255.727 55.962 254.382 56.3826C254.1 56.4706 253.819 56.5597 253.484 56.6506Z" fill="white"/>
<path d="M155.36 45.7106C156.714 46.6199 158.152 46.6855 159.655 46.4055C160.954 46.1635 162.26 45.9564 163.564 45.7443C163.757 45.713 163.959 45.7311 164.156 45.7409C164.502 45.7582 164.658 45.9436 164.48 46.2547C163.98 47.1316 163.489 48.0187 162.909 48.8425C162.758 49.0578 162.302 49.082 161.978 49.1506C160.275 49.5101 158.535 49.7389 156.876 50.241C155.414 50.6839 154.041 51.4257 152.63 52.0379C152.534 52.0798 152.451 52.1716 152.353 52.1877C152.086 52.2315 151.814 52.2471 151.545 52.274C151.53 52.0608 151.504 51.8478 151.503 51.6346C151.5 51.0254 151.716 50.5108 152.189 50.112C152.472 49.8735 152.751 49.6294 153.018 49.3987C152.286 48.7242 151.648 48.1241 150.997 47.5396C150.465 47.0631 150.437 46.4395 150.659 45.8764C151.474 43.8129 152.892 42.1971 154.655 40.8842C155.634 40.1549 156.621 39.4276 157.864 39.153C158.991 38.9041 160.307 39.3788 160.98 40.2939C161.746 41.3356 161.488 41.9037 160.946 42.6756C160.562 43.2219 160.14 43.7549 159.66 44.2163C159.203 44.6551 158.779 44.4035 158.491 43.9397C157.363 42.1292 156.91 42.4151 155.362 43.1103C154.851 43.3399 154.318 43.6088 154.278 44.2533C154.233 44.9843 154.797 45.3306 155.36 45.7106Z" fill="white"/>
<path d="M142.304 66.575C143.084 67.9019 144.528 68.0796 145.863 67.0785C146.327 66.7305 146.519 66.3611 146.266 65.7841C146.081 65.3641 145.977 64.9061 145.865 64.4582C145.819 64.2722 145.774 64.0359 145.848 63.8777C146.267 62.9795 146.687 62.0777 147.186 61.2235C147.33 60.9771 147.734 61.0357 147.802 61.4122C148.043 62.7506 148.4 64.0915 148.433 65.4383C148.474 67.0893 147.93 68.6639 146.959 70.0221C146.433 70.759 145.549 71.024 144.698 71.2296C143.199 71.5915 141.802 71.4091 140.627 70.3121C140.308 70.0134 140.197 70.2619 140.067 70.4931C139.358 71.7544 138.446 72.8484 137.01 73.2402C136.174 73.4683 135.227 73.5757 134.384 73.429C132.888 73.1688 132.163 71.948 132.015 70.5525C131.819 68.6991 132.505 67.037 133.344 65.4429C133.472 65.1995 133.925 64.9174 134.145 64.974C134.605 65.0927 134.569 65.5606 134.456 65.9583C134.24 66.719 133.861 67.4443 134.095 68.2839C134.484 69.6835 135.119 70.0995 136.508 69.7767C138.198 69.3838 139.247 68.3284 139.644 66.6446C139.799 65.9863 139.761 65.2323 140.081 64.6772C140.417 64.0944 141.078 63.6978 141.597 63.2199C141.736 63.3864 141.98 63.5426 141.998 63.7214C142.083 64.5578 142.101 65.4008 142.155 66.2406C142.161 66.3388 142.237 66.4325 142.304 66.575Z" fill="white"/>
<path d="M162.788 30.9833C159.806 32.2401 156.868 33.4716 153.925 34.6912C151.391 35.7411 148.852 36.7779 146.315 37.8187C146.199 37.8661 146.077 37.9272 145.957 37.9276C145.643 37.9286 145.329 37.8996 145.015 37.8825C145.061 37.6335 145.067 37.3679 145.161 37.1384C145.51 36.2887 145.548 35.2464 146.358 34.6708C147.019 34.2017 147.785 33.8597 148.54 33.5467C151.151 32.464 153.783 31.4328 156.396 30.3555C159.673 29.0048 162.936 27.6218 166.214 26.2751C166.462 26.1734 166.783 26.2509 167.07 26.2451C167.062 26.505 167.132 26.8002 167.033 27.0188C166.534 28.115 166.12 29.3001 165.001 29.9477C164.314 30.3456 163.557 30.6219 162.788 30.9833Z" fill="white"/>
<path d="M136.782 54.7148C139.778 53.3907 142.734 52.0996 145.691 50.8101C145.845 50.7429 146.002 50.6516 146.163 50.6383C146.367 50.6214 146.631 50.6074 146.766 50.7176C146.857 50.7914 146.814 51.0989 146.754 51.2757C146.323 52.5407 145.863 53.8233 144.626 54.5317C143.602 55.1182 142.515 55.599 141.436 56.0856C139.996 56.7357 138.535 57.341 137.087 57.9749C135.31 58.7531 133.539 59.547 131.76 60.3212C131.127 60.5968 130.487 60.8633 129.832 61.081C129.284 61.2632 129.094 61.0704 129.242 60.5109C129.441 59.7598 129.614 58.991 129.922 58.2837C130.089 57.8996 130.455 57.4995 130.833 57.3257C132.784 56.4275 134.769 55.6002 136.782 54.7148Z" fill="white"/>
<path d="M302.821 105.69C302.401 105.158 302.627 104.7 302.968 104.345C304.046 103.224 305.159 102.137 306.266 101.046C306.667 100.651 307.247 100.758 307.615 101.14C308.762 102.331 309.927 103.506 311.133 104.637C311.645 105.117 311.724 105.447 311.204 105.966C310.136 107.035 309.068 108.105 307.997 109.172C307.625 109.543 306.84 109.665 306.467 109.309C305.242 108.137 304.059 106.921 302.821 105.69Z" fill="white"/>
<path d="M258.111 67.3913C258.792 67.9518 259.43 68.493 260.093 69.0013C260.546 69.3494 260.599 69.6998 260.182 70.1195C259.115 71.1914 258.046 72.2601 256.972 73.3238C256.419 73.8706 255.769 73.9477 255.213 73.4211C253.998 72.27 252.816 71.0818 251.658 69.8731C251.334 69.5346 251.364 69.0752 251.719 68.7176C252.862 67.5673 254.008 66.421 255.162 65.283C255.56 64.8909 256.161 64.98 256.498 65.4133C257.01 66.073 257.55 66.7109 258.111 67.3913Z" fill="white"/>
</svg>
