<svg width="428" height="143" viewBox="0 0 428 143" fill="none" xmlns="http://www.w3.org/2000/svg">
<path d="M155.158 76.708C155.879 79.4589 156.654 82.1454 158.159 84.5183C159.611 86.8098 161.688 88.3908 164.325 89.088C165.631 89.4335 166.992 89.6027 168.339 89.7528C169.456 89.8773 170.599 89.9726 171.712 89.8759C173.814 89.6933 175.922 89.4641 177.992 89.0658C180.014 88.6767 182.004 88.0989 183.982 87.5138C185.167 87.1634 186.337 86.7167 187.448 86.1771C189.267 85.2938 191.033 84.3031 192.816 83.3457C192.974 83.2608 193.084 83.0877 193.339 82.8344C192.039 82.4222 190.922 81.9784 189.763 81.7211C188.012 81.3323 186.253 81.2685 184.611 82.2218C184.467 82.3053 184.302 82.355 184.143 82.4086C183.438 82.646 182.992 82.2701 183.078 81.5322C183.256 79.9889 183.975 78.6857 184.895 77.4847C185.52 76.6687 186.154 75.8488 186.873 75.1186C188.344 73.6247 190.155 72.7053 192.227 72.4407C193.741 72.2471 195.285 72.1327 196.808 72.1879C198.438 72.2469 199.98 72.8175 201.488 73.4539C202.655 73.9468 203.812 74.4247 204.823 75.2275C205.734 75.9514 206.009 76.9359 205.976 77.977C205.931 79.3999 205.416 80.7247 204.511 81.8238C203.863 82.6118 203.063 83.2747 202.279 84.0437C204.262 84.9425 206.156 85.8299 208.327 85.692C210.244 85.5703 211.988 84.9884 213.376 83.5999C213.586 83.3902 213.757 82.9855 213.716 82.7051C213.422 80.706 213.073 78.7149 212.731 76.7231C212.418 74.9004 212.103 73.078 211.767 71.2595C211.459 69.5904 211.118 67.9274 210.798 66.2603C210.419 64.2796 210.055 62.2959 209.67 60.3164C209.314 58.4844 208.94 56.6558 208.569 54.8265C208.153 52.7696 207.734 50.7129 207.312 48.6573C206.906 46.6855 206.484 44.7171 206.087 42.7435C205.866 41.64 205.663 40.532 205.484 39.4208C205.204 37.6747 204.385 36.1561 203.527 34.6523C203.328 34.3042 203.011 33.9913 202.923 33.6206C202.818 33.1759 202.734 32.5981 202.93 32.2325C203.714 30.762 204.6 29.3448 205.471 27.9212C205.838 27.3194 206.238 27.3014 206.596 27.8862C206.924 28.4218 207.114 29.0436 207.454 29.5698C208.303 30.8861 209.19 32.1793 210.09 33.4618C210.458 33.9862 210.913 34.4482 211.303 34.9581C211.73 35.5169 211.727 36.2038 211.268 36.8337C210.79 37.489 210.302 38.1433 209.754 38.7376C209.207 39.3306 209.028 40.0075 209.158 40.7553C209.407 42.197 209.699 43.6315 209.994 45.0649C210.446 47.2646 210.918 49.4604 211.377 51.6586C211.832 53.8368 212.29 56.0144 212.733 58.1951C213.122 60.1076 213.508 62.0209 213.864 63.9395C214.233 65.925 214.586 67.914 214.907 69.9077C215.12 71.2366 215.267 72.5763 215.442 73.9113C215.66 75.5646 215.962 77.2122 216.075 78.8728C216.255 81.509 216.624 84.2038 215.555 86.7302C214.446 89.349 212.691 91.3535 209.696 91.8749C208.944 92.0059 208.188 92.2613 207.439 92.2431C205.062 92.1854 202.773 91.7625 201.014 89.9514C200.126 89.0374 199.285 88.0773 198.447 87.1167C198.14 86.7651 197.855 86.8722 197.534 87.0359C194.942 88.3593 192.38 89.7448 189.751 90.9914C185.753 92.8882 181.632 94.4788 177.291 95.4121C175.22 95.8572 173.141 96.2901 171.046 96.5791C169.061 96.8527 167.07 96.6713 165.08 96.3678C163.246 96.0882 161.486 95.668 159.822 94.8247C158.141 93.9724 156.798 92.7635 155.722 91.2273C153.994 88.7587 152.805 86.0433 152.145 83.1134C151.851 81.8057 151.76 80.4513 151.584 79.1171C151.406 77.7598 151.221 76.4029 151.067 75.0426C150.954 74.0377 150.896 73.0266 150.794 72.0203C150.63 70.3982 150.441 68.7785 150.279 67.1562C150.174 66.1062 150.11 65.0522 150.007 64.0021C149.844 62.336 149.653 60.6724 149.492 59.0061C149.386 57.9123 149.344 56.8116 149.216 55.7208C148.986 53.7682 148.745 51.8158 148.449 49.8725C148.18 48.1084 147.869 46.3488 147.509 44.6012C147.044 42.3437 146.495 40.1039 146.024 37.8476C145.921 37.3541 145.887 36.7963 146.007 36.315C146.376 34.8444 146.844 33.3992 147.254 31.9388C147.416 31.365 148.193 31.0649 148.595 31.5271C148.883 31.8577 149.149 32.2392 149.308 32.644C150.118 34.6992 150.584 36.8468 150.929 39.0237C151.229 40.9169 151.568 42.8043 151.832 44.7024C152.018 46.0418 152.097 47.3959 152.242 48.7414C152.404 50.2543 152.599 51.7637 152.757 53.277C152.867 54.3264 152.935 55.3801 153.026 56.4314C153.198 58.4037 153.377 60.3754 153.546 62.3481C153.603 63.0153 153.648 63.684 153.679 64.353C153.732 65.5028 153.708 66.6596 153.826 67.8021C154.028 69.758 154.296 71.7078 154.574 73.6549C154.717 74.6625 154.941 75.6587 155.158 76.708Z" fill="white"/>
<path d="M292.628 85.2013C294.654 86.1432 296.756 86.6693 298.873 87.1367C301.072 87.6222 303.303 87.868 305.554 87.928C307.466 87.979 309.386 88.1464 311.289 88.0326C314.921 87.8154 318.497 87.1428 322.013 86.2066C324.594 85.5192 327.161 84.7669 329.707 83.9592C331.667 83.3374 333.587 82.586 335.522 81.8848C335.632 81.8448 335.718 81.7378 335.816 81.6619C335.723 81.6031 335.638 81.5294 335.538 81.4877C333.004 80.4228 330.362 79.6847 327.679 79.1526C325.476 78.7155 323.217 78.612 320.967 78.7374C319.401 78.8245 317.838 78.9632 316.279 79.1353C315.483 79.2232 314.704 79.4604 313.909 79.5783C313.592 79.6254 313.255 79.5327 312.927 79.5036C312.962 79.1739 312.894 78.781 313.049 78.525C313.96 77.026 314.887 75.5337 315.884 74.091C316.441 73.2849 317.419 73.1187 318.302 72.9633C320.355 72.6021 322.42 72.2972 324.489 72.0401C325.77 71.8808 327.067 71.8529 328.356 71.7623C329.86 71.6567 331.363 71.547 332.941 71.4338C332.894 70.6887 332.883 69.9162 332.79 69.1536C332.648 67.9895 332.456 66.8313 332.276 65.6722C332.017 64.0095 331.766 62.3451 331.48 60.687C331.198 59.0551 330.877 57.4301 330.572 55.8022C330.225 53.9446 329.848 52.092 329.538 50.228C329.349 49.0882 329.244 47.933 329.134 46.7816C328.86 43.914 328.344 41.1111 326.979 38.5338C326.637 37.8896 326.66 37.2946 327.145 36.767C328.042 35.7927 328.522 34.6 329.008 33.4007C329.19 32.9528 329.416 32.5116 329.695 32.1198C329.842 31.9137 330.172 31.6781 330.373 31.7146C330.598 31.7556 330.842 32.0557 330.954 32.3C331.394 33.2549 331.703 34.2782 332.213 35.1905C332.976 36.5542 333.801 37.8938 334.721 39.1548C335.715 40.5179 335.21 40.9188 334.518 41.8306C334.19 42.2623 333.779 42.6405 333.364 42.9936C332.527 43.706 332.842 44.5767 332.97 45.4329C333.138 46.5514 333.297 47.6711 333.457 48.7909C333.619 49.9323 333.78 51.0741 333.937 52.2162C334.086 53.2958 334.226 54.3766 334.376 55.4561C334.546 56.6825 334.735 57.9065 334.892 59.1345C335.041 60.3037 335.149 61.4782 335.296 62.6477C335.451 63.8768 335.7 65.0982 335.782 66.3313C335.871 67.6611 335.823 69.0006 335.819 70.3358C335.814 71.9716 335.119 73.3633 334.224 74.7007C336.519 75.9308 338.945 76.7529 341.464 77.2688C343.52 77.69 345.597 78.0303 347.676 78.3215C349.415 78.565 351.17 78.6975 352.919 78.8568C354.546 79.0048 356.175 79.1189 357.802 79.2564C358.69 79.3315 358.939 79.6873 358.631 80.5201C358.355 81.2691 358.02 81.997 357.697 82.7282C357.332 83.5565 356.976 84.3905 356.56 85.1933C356.465 85.3767 356.119 85.5758 355.931 85.5406C354.645 85.2998 353.372 84.9928 352.092 84.7198C351.676 84.6311 351.252 84.5183 350.833 84.5227C348.964 84.542 347.082 84.4714 345.232 84.6817C343.563 84.8716 341.908 85.3091 340.286 85.7725C338.003 86.4244 335.738 87.1508 333.497 87.9374C330.842 88.8695 328.242 89.9595 325.58 90.8689C323.214 91.6772 320.801 92.3492 318.399 93.0497C316.47 93.6125 314.478 93.7764 312.486 94.0086C308.957 94.42 305.421 94.4753 301.895 94.3248C299.589 94.2264 297.285 93.7834 295.011 93.3347C293.495 93.0354 292.024 92.4845 290.554 91.9838C290.008 91.798 289.523 91.4342 289.108 91.2054C287.916 93.609 286.746 95.9406 285.602 98.2847C284.634 100.267 283.424 102.082 281.889 103.661C279.874 105.733 277.48 107.229 274.653 107.846C272.869 108.236 271.029 108.343 269.191 108.049C267.76 107.82 266.3 107.745 264.889 107.435C262.385 106.885 260.094 105.745 257.833 104.569C256.805 104.034 255.836 103.387 254.836 102.796C254.411 102.545 254.2 102.194 254.265 101.705C255.318 100.861 256.364 101.221 257.431 101.678C259.546 102.584 261.751 103.1 264.048 103.328C266.15 103.537 268.215 103.375 270.277 103.038C271.611 102.82 272.982 102.661 274.243 102.213C275.417 101.795 276.51 101.093 277.564 100.402C279.046 99.4305 280.311 98.1982 281.332 96.7369C282.413 95.1894 283.5 93.6446 284.532 92.0646C285.038 91.2912 285.426 90.4407 285.871 89.6162C285.159 88.9358 284.433 88.2853 283.757 87.5868C282.372 86.1566 282.082 84.433 282.383 82.5144C282.646 80.8381 283.197 79.2804 284.035 77.8225C284.192 77.5486 284.522 77.374 284.772 77.1536C284.959 77.4601 285.263 77.7493 285.312 78.0764C285.462 79.1001 285.739 80.0518 286.37 80.8884C287.249 82.0521 288.301 83.0252 289.579 83.7178C290.557 84.2475 291.581 84.6915 292.628 85.2013Z" fill="white"/>
<path d="M117.891 86.352C114.837 86.2576 112.108 85.2999 109.537 83.8298C108.951 83.4948 108.415 83.0548 107.8 82.7966C107.479 82.6615 107.008 82.7332 106.653 82.8541C104.844 83.4694 103.053 84.1374 101.251 84.7715C100.921 84.8876 100.751 85.0293 100.632 85.4096C99.5894 88.7221 98.6106 92.0617 97.3884 95.3082C96.4094 97.9091 95.2931 100.485 93.6229 102.75C92.0056 104.943 89.9523 106.575 87.4346 107.669C85.6317 108.452 83.7568 108.739 81.8379 108.972C78.5189 109.376 75.3107 108.825 72.133 107.974C69.3609 107.232 66.7001 106.185 64.163 104.839C63.6989 104.592 63.2562 104.28 62.8668 103.928C62.6535 103.735 62.389 103.295 62.4715 103.144C62.6232 102.866 62.9923 102.67 63.31 102.529C63.9376 102.251 64.5562 102.453 65.1463 102.7C67.1991 103.563 69.3314 104.205 71.5297 104.453C73.4194 104.667 75.3628 104.765 77.2468 104.57C79.2709 104.36 81.2811 103.844 83.2454 103.28C84.8339 102.824 86.2098 101.864 87.5072 100.83C90.3816 98.5399 92.4106 95.5754 94.1423 92.3884C95.2268 90.3924 96.234 88.3541 97.2758 86.3348C97.2169 86.2812 97.158 86.2276 97.099 86.174C96.7752 86.2523 96.4265 86.2784 96.1322 86.419C95.3253 86.8043 94.6086 86.4316 94.3404 85.7927C93.7953 84.494 93.2909 83.1736 92.864 81.832C92.7152 81.3643 92.9285 80.838 93.4882 80.6424C94.717 80.2131 95.9523 79.8025 97.1866 79.389C99.6372 78.5681 102.118 77.8263 104.532 76.9101C106.988 75.9784 109.38 74.8784 111.798 73.8476C112.734 73.4485 113.436 73.8466 113.407 74.8749C113.374 76.0758 113.23 77.276 113.08 78.4696C113.038 78.8089 113.079 78.9195 113.411 78.9988C115.736 79.5543 118.086 79.9224 120.481 79.7701C122.73 79.6271 124.748 78.896 126.512 77.403C128.55 75.6773 130.106 73.6656 130.867 71.0778C130.938 70.8372 131.034 70.599 131.154 70.3792C131.337 70.0452 131.627 69.738 132.006 69.9511C132.224 70.0735 132.444 70.4691 132.414 70.7108C132.279 71.8053 132.094 72.8976 131.85 73.9733C131.665 74.7918 131.364 75.5841 131.096 76.4489C133.723 77.4608 136.403 78.1415 139.221 78.3842C139.186 77.6254 139.167 76.9635 139.122 76.3034C139.044 75.1413 138.959 73.9796 138.862 72.8189C138.716 71.0638 139.283 69.4493 139.841 67.8376C140.102 67.0835 140.423 66.3482 140.755 65.622C140.837 65.4432 141.07 65.2205 141.23 65.2229C141.393 65.2254 141.657 65.4582 141.695 65.6303C141.999 67.0163 142.329 68.4027 142.514 69.8072C142.664 70.9434 142.695 72.1075 142.653 73.2547C142.546 76.167 142.05 79.0222 140.666 81.6109C140.092 82.6858 139.239 83.6543 138.358 84.5105C137.325 85.5138 135.968 85.3019 134.714 84.9843C132.856 84.5136 131.051 83.8747 129.407 82.8544C129.138 82.6875 128.83 82.5461 128.628 82.3155C128.184 81.8074 127.865 82.0144 127.517 82.4104C126.51 83.5547 125.337 84.4873 123.967 85.1602C122.07 86.0923 120.06 86.4666 117.891 86.352Z" fill="white"/>
<path d="M251.139 75.0843C252.78 73.658 254.348 72.2142 256.01 70.8893C257.305 69.8569 258.867 69.4439 260.513 69.6797C261.635 69.8406 262.428 70.6441 263.162 71.4565C263.372 71.6894 263.518 71.98 263.707 72.234C264.138 72.8126 264.24 73.4517 263.95 74.0998C263.369 75.403 262.728 76.6753 261.666 77.6754C261.004 78.299 260.496 78.2086 260.021 77.471C259.387 76.4877 258.874 75.404 257.59 74.9971C256.836 74.7583 256.173 74.7921 255.539 75.1591C254.828 75.5708 254.13 76.0264 253.5 76.5521C252.623 77.2844 252.753 77.629 253.536 78.5492C255.046 80.3241 256.981 81.464 259.323 81.899C261.321 82.2703 263.278 82.1656 265.254 81.7698C266.296 81.5609 267.365 81.4833 268.424 81.361C268.857 81.3111 269.04 81.4835 268.812 81.9137C268.448 82.6013 268.104 83.3019 267.702 83.9668C267.318 84.6007 266.891 85.2113 266.441 85.7996C266.294 85.9924 266.017 86.196 265.793 86.2032C263.102 86.2902 260.602 87.2054 258.136 88.1191C255.697 89.0232 253.355 90.1988 250.985 91.287C250.337 91.5845 249.752 92.0157 249.116 92.345C248.882 92.4666 248.589 92.5033 248.319 92.5222C247.865 92.5541 247.759 92.2458 247.886 91.8996C248.285 90.8142 248.626 89.6897 249.181 88.6875C249.465 88.1757 250.136 87.8546 250.674 87.5153C251.541 86.9691 252.443 86.4792 253.335 85.9631C252.168 85.2169 251.018 84.4445 249.832 83.7343C248.585 82.9874 247.701 82.0357 247.84 80.4747C247.924 79.5324 248.249 78.6713 248.875 77.9248C249.643 77.0092 250.365 76.0553 251.139 75.0843Z" fill="white"/>
<path d="M225.539 38.1162C225.705 39.4052 225.867 40.6337 226.038 41.8611C226.217 43.1507 226.39 44.4414 226.592 45.7275C226.878 47.5571 227.195 49.3819 227.487 51.2107C227.722 52.6843 227.926 54.1627 228.165 55.6356C228.45 57.3998 228.769 59.1586 229.052 60.9232C229.295 62.4391 229.506 63.9601 229.736 65.4781C229.918 66.6786 230.112 67.8773 230.29 69.0781C230.419 69.9443 230.558 70.8101 230.648 71.6807C230.839 73.5194 231.002 75.3611 231.175 77.2017C231.181 77.2669 231.176 77.3331 231.178 77.3987C231.221 79.425 231.369 81.4559 231.28 83.4763C231.189 85.5194 231.214 87.5978 230.519 89.5729C230.457 89.7508 230.399 89.9557 230.272 90.0796C230.077 90.2701 229.83 90.508 229.594 90.5209C229.431 90.5297 229.144 90.2175 229.094 90.0061C228.917 89.2443 228.759 88.469 228.697 87.6906C228.534 85.6228 228.473 83.5461 228.279 81.4816C228.077 79.3299 227.794 77.1847 227.498 75.0434C227.23 73.1018 226.89 71.1701 226.592 69.2325C226.236 66.9149 225.911 64.5921 225.533 62.2781C225.169 60.0541 224.738 57.8412 224.37 55.6179C224.118 54.1026 223.923 52.578 223.704 51.0573C223.485 49.5363 223.236 48.0187 223.058 46.4928C222.8 44.279 222.49 42.0595 222.669 39.8257C222.792 38.2826 223.166 36.7768 223.851 35.3774C223.969 35.1362 224.318 34.8793 224.566 34.8739C224.753 34.8699 225.065 35.2302 225.119 35.4733C225.306 36.3235 225.406 37.1931 225.539 38.1162Z" fill="white"/>
<path d="M90.8693 53.0991C89.8901 52.3434 88.9648 51.5844 88.0256 50.8431C87.4506 50.3893 87.2309 49.7094 87.2612 49.0861C87.3629 46.9953 88.0388 45.051 89.354 43.4217C90.2063 42.3658 91.1811 41.369 92.2499 40.5382C93.8469 39.2969 95.5878 40.1494 96.4769 41.366C97.3058 42.5003 97.6556 43.8569 97.8339 45.2669C98.1268 47.583 97.7151 49.8023 97.099 52.0415C97.6903 52.5079 98.3372 52.9632 98.9186 53.4909C99.6007 54.1102 99.4615 54.9781 99.36 55.7471C99.2593 56.5093 98.9691 57.2497 98.73 57.9892C98.5334 58.5971 98.2108 58.6549 97.7436 58.2132C96.931 57.4451 96.1136 56.682 95.2078 55.832C94.9835 56.1777 94.7988 56.4028 94.6781 56.6583C93.9235 58.2563 92.9337 59.7071 91.6492 60.8979C89.981 62.4442 88.1425 63.7906 86.1315 64.8715C84.2186 65.8997 82.2901 66.8989 80.36 67.8946C80.0663 68.0461 79.7286 68.1872 79.4091 68.1922C79.0938 68.1971 78.6001 68.1083 78.5027 67.9065C78.3775 67.647 78.4577 67.146 78.647 66.9045C79.0911 66.3377 79.5978 65.7877 80.1764 65.3647C82.7073 63.5144 85.3015 61.7504 87.814 59.876C89.1187 58.9026 90.3308 57.7965 91.5251 56.6861C92.0477 56.2001 92.4249 55.5559 92.8612 54.9782C93.1497 54.5961 92.8174 54.4541 92.5769 54.2827C92.0241 53.8889 91.4705 53.4963 90.8693 53.0991ZM95.0674 47.6506C95.0223 46.5682 94.6519 45.582 94.0734 44.6928C93.4731 43.7701 92.4814 43.5128 91.8011 44.112C91.2944 44.5584 90.9052 45.1406 90.4736 45.6704C89.8006 46.4963 90.1438 47.1033 90.899 47.6632C91.7298 48.2792 92.5925 48.852 93.4405 49.4447C93.9528 49.8028 94.4636 50.163 94.975 50.5222C95.0479 50.493 95.1208 50.4638 95.1937 50.4347C95.1516 49.5468 95.1095 48.659 95.0674 47.6506Z" fill="white"/>
<path d="M363.879 61.9051C364.096 63.6187 364.323 65.271 364.528 66.9258C364.676 68.1173 364.821 69.3101 364.922 70.5061C365.116 72.7828 365.329 75.0597 365.438 77.3411C365.547 79.6272 365.654 81.9241 365.55 84.2067C365.452 86.3744 365.343 88.5672 364.669 90.6677C364.573 90.9683 364.495 91.2786 364.362 91.563C364.166 91.9852 363.913 92.3635 363.345 92.2669C362.778 92.1706 362.745 91.6587 362.719 91.2848C362.624 89.945 362.618 88.5991 362.566 87.2559C362.484 85.1304 362.43 83.0029 362.294 80.8808C362.173 79.0148 361.957 77.1551 361.78 75.2929C361.607 73.4746 361.464 71.6527 361.247 69.8399C361.028 68.0175 360.717 66.2065 360.478 64.3864C360.316 63.1531 360.219 61.9113 360.073 60.6757C359.912 59.3161 359.718 57.9604 359.557 56.6008C359.451 55.7047 359.36 54.806 359.293 53.9062C359.15 51.9898 358.92 50.0718 358.925 48.1549C358.929 46.0801 359.369 44.0582 360.476 42.2514C360.605 42.0413 360.919 41.8317 361.146 41.8335C361.315 41.8348 361.589 42.1583 361.629 42.373C361.767 43.1282 361.828 43.898 361.911 44.663C362.087 46.2839 362.26 47.9052 362.431 49.5266C362.523 50.4023 362.597 51.2801 362.701 52.1543C362.864 53.5134 363.053 54.8692 363.216 56.2283C363.36 57.4423 363.478 58.6593 363.618 59.8739C363.694 60.5321 363.791 61.1879 363.879 61.9051Z" fill="white"/>
<path d="M319.299 54.4201C319.086 55.272 318.875 56.0654 318.671 56.8368C318.156 57.0379 317.82 56.8559 317.495 56.4988C317.011 55.9655 316.496 55.4574 315.969 54.9651C315.501 54.5272 315.146 54.563 314.914 55.0653C313.562 57.9803 311.304 60.0402 308.686 61.7765C306.287 63.3669 303.742 64.6811 301.119 65.8441C300.69 66.0342 300.176 66.077 299.698 66.0978C299.174 66.1204 298.899 65.7007 299.223 65.3012C299.863 64.5126 300.543 63.7173 301.345 63.1068C304.182 60.946 307.11 58.9042 309.934 56.7269C310.971 55.9271 311.834 54.8931 312.74 53.9318C313.184 53.4616 313.081 53.2163 312.549 52.8127C311.14 51.7436 309.703 50.7034 308.373 49.5408C307.49 48.7683 307.489 47.6729 307.75 46.5681C308.422 43.7273 309.98 41.4797 312.264 39.714C314.074 38.3143 316.006 39.423 316.841 40.8711C318.019 42.9131 318.232 45.1569 317.848 47.456C317.681 48.4546 317.41 49.4354 317.216 50.43C317.189 50.5659 317.295 50.7819 317.409 50.8815C317.858 51.2752 318.331 51.6409 318.801 52.0104C319.622 52.6561 319.519 53.4956 319.299 54.4201ZM311.687 46.8525C312.794 47.6207 313.9 48.3889 315.08 49.2075C315.138 48.9901 315.228 48.8184 315.223 48.6499C315.195 47.787 315.228 46.9094 315.076 46.0665C314.893 45.0524 314.589 44.0462 313.785 43.3036C313.233 42.7939 312.73 42.6644 312.214 43.1338C311.612 43.6813 311.113 44.3618 310.655 45.0422C310.27 45.6133 310.598 46.1003 311.066 46.4795C311.226 46.6096 311.426 46.6911 311.687 46.8525Z" fill="white"/>
<path d="M251.991 50.2383C251.15 49.5926 250.25 48.979 250.289 47.8447C250.319 46.962 250.515 46.0568 250.799 45.2166C251.461 43.257 252.577 41.5649 254.179 40.2422C255.802 38.9028 256.796 38.5122 258.627 39.7293C259.623 40.3915 260.029 41.5489 260.263 42.6706C260.506 43.838 260.608 45.044 260.666 46.2383C260.727 47.51 260.22 49.6885 259.772 50.5496C260.32 51.0101 260.842 51.5278 261.441 51.9306C262.207 52.4456 262.219 53.1961 262.088 53.9198C261.914 54.8853 261.582 55.8221 261.324 56.746C260.735 56.8432 260.377 56.684 260.017 56.2259C259.556 55.638 258.943 55.1636 258.368 54.6737C257.938 54.308 257.727 54.6386 257.55 55.0009C256.726 56.6891 255.713 58.2634 254.251 59.4473C252.87 60.5655 251.423 61.6265 249.902 62.5395C247.97 63.699 245.936 64.6896 243.939 65.7382C243.627 65.9021 243.27 66.0939 242.941 66.0811C242.57 66.0667 242.081 65.9293 241.887 65.6654C241.755 65.487 241.936 64.8852 242.163 64.6676C242.983 63.8825 243.847 63.1346 244.756 62.455C247.322 60.536 249.938 58.6835 252.495 56.7531C253.821 55.7521 254.99 54.5735 255.818 53.1189C254.552 52.1682 253.289 51.2198 251.991 50.2383ZM257.666 45.8055C257.322 44.9786 257.066 44.0965 256.601 43.345C256.311 42.8769 255.684 42.4818 255.068 42.8643C254.217 43.3917 253.613 44.1906 253.23 45.1083C253.093 45.4377 253.142 45.8723 253.541 46.1494C254.654 46.9208 255.752 47.7148 256.858 48.4959C257.113 48.6756 257.379 48.8389 257.674 49.0317C258.119 47.9183 257.814 46.9207 257.666 45.8055Z" fill="white"/>
<path d="M185.022 44.9503C188.416 43.5718 191.759 42.2001 195.1 40.8231C195.721 40.5671 196.321 40.2555 196.953 40.0337C197.384 39.8825 197.854 39.8427 198.363 39.7421C198.505 40.7652 197.833 41.3662 197.506 42.0902C196.801 43.6554 195.27 44.0773 193.871 44.6619C191.739 45.5529 189.596 46.4174 187.457 47.2923C184.522 48.4932 181.581 49.682 178.651 50.8968C175.409 52.2408 172.178 53.608 168.942 54.9656C167.411 55.6077 165.891 56.276 164.345 56.8775C163.904 57.0487 163.39 57.027 162.899 57.0951C162.865 55.2896 164.061 53.5847 165.633 52.956C168.189 51.934 170.721 50.8546 173.268 49.8104C176.28 48.5754 179.3 47.3575 182.311 46.1203C183.206 45.7527 184.084 45.3447 185.022 44.9503Z" fill="white"/>
<path d="M124.941 53.9296C125.32 54.1631 125.515 54.2004 125.839 53.7782C126.831 52.4848 127.924 51.2681 129.006 50.0458C129.513 49.4724 129.945 49.5412 130.459 50.1141C131.643 51.4329 132.976 52.5751 134.498 53.4956C135.372 54.0243 135.35 54.2544 134.669 55.018C133.758 56.041 132.906 57.1175 132.023 58.1663C131.382 58.9276 130.774 59.3823 129.741 58.6101C128.615 57.7684 127.483 56.9356 126.307 56.065C125.322 57.287 124.256 58.6094 123.191 59.9323C122.978 60.1967 122.034 60.3313 121.685 60.1207C120.092 59.1602 118.657 58.0012 117.406 56.6227C116.929 56.0966 117 55.5766 117.464 55.0248C118.468 53.8296 119.446 52.612 120.432 51.4003C121.014 50.6836 121.546 50.6125 122.108 51.3628C122.879 52.3921 123.812 53.2289 124.941 53.9296Z" fill="white"/>
<path d="M276.784 43.1948C274.857 43.5315 273.393 44.4977 272.255 46.0124C272.121 46.1901 271.834 46.2521 271.619 46.3678C271.513 46.1481 271.309 45.9211 271.325 45.7105C271.351 45.3657 271.471 45.0054 271.636 44.6978C272.145 43.7532 272.625 42.7816 273.242 41.9102C274.283 40.4411 275.812 39.6632 277.533 39.3107C279.441 38.9199 281.301 39.2062 283.146 39.8139C284.822 40.3659 286.533 40.814 288.242 41.2562C288.784 41.3965 289.021 41.6996 288.855 42.1653C288.511 43.1307 288.139 44.0981 287.649 44.9932C287.438 45.3781 286.906 45.5878 286.516 45.8716C286.311 46.0204 286.062 46.1239 285.894 46.3044C284.135 48.1874 281.924 49.2155 279.466 49.8262C278.387 50.0943 277.341 50.4914 276.272 50.8035C275.909 50.9095 275.515 51.0082 275.15 50.9722C274.872 50.9449 274.527 50.7564 274.381 50.5301C274.284 50.3808 274.408 49.9654 274.568 49.7954C274.93 49.4088 275.335 49.0275 275.794 48.7726C277.506 47.8218 279.252 46.9318 280.975 46.0005C281.826 45.5409 282.654 45.041 283.594 44.5011C281.337 43.6141 279.185 42.8741 276.784 43.1948Z" fill="white"/>
<path d="M135.073 101.469C138.376 100.091 141.624 98.7069 144.884 97.3523C145.237 97.2054 145.662 97.2302 146.053 97.1754C146.016 97.5515 146.074 97.9715 145.925 98.2957C145.414 99.4087 144.997 100.658 143.833 101.255C142.416 101.981 140.924 102.558 139.461 103.192C137.744 103.935 136.025 104.673 134.303 105.406C132.35 106.238 130.398 107.073 128.436 107.884C126.261 108.783 124.076 109.656 121.896 110.541C120.709 111.024 119.525 111.513 118.335 111.988C118.131 112.07 117.905 112.097 117.606 112.169C117.666 110.929 117.897 109.774 118.509 108.88C118.945 108.245 119.847 107.866 120.61 107.534C123.229 106.393 125.878 105.321 128.518 104.227C130.536 103.39 132.556 102.56 134.574 101.723C134.731 101.658 134.872 101.556 135.073 101.469Z" fill="white"/>
<path d="M331.752 101.722C331.039 100.928 331.045 100.536 331.783 99.795C332.834 98.7386 333.919 97.7142 334.927 96.6183C335.493 96.0026 336.024 96.1027 336.531 96.7204C337.075 97.3842 337.607 98.0679 338.222 98.6621C338.88 99.2977 339.621 99.8488 340.341 100.418C340.742 100.735 340.8 101.127 340.428 101.503C339.261 102.682 338.088 103.855 336.913 105.027C336.587 105.351 335.737 105.39 335.312 105.106C333.942 104.192 332.809 103.023 331.752 101.722Z" fill="white"/>
<path d="M286.618 62.7373C287.055 63.1689 287.035 63.5527 286.641 63.9465C285.497 65.0889 284.36 66.2384 283.218 67.3826C282.818 67.7823 282.115 67.8098 281.641 67.4692C280.118 66.3761 278.849 65.0228 277.753 63.5177C277.601 63.3085 277.717 62.689 277.927 62.4641C279.134 61.1711 280.404 59.9377 281.658 58.6887C282.096 58.2516 282.432 58.5938 282.704 58.8946C283.337 59.5946 283.888 60.3737 284.557 61.0357C285.175 61.6483 285.903 62.1504 286.618 62.7373Z" fill="white"/>
<path d="M122.902 41.0378C123.235 40.6179 123.494 40.1878 123.846 39.8571C124.15 39.571 124.515 39.5953 124.87 39.9186C125.935 40.8883 127.018 41.8386 128.114 42.7725C128.415 43.029 128.791 43.195 129.126 43.4142C129.682 43.7794 129.745 44.2072 129.312 44.7284C128.804 45.3386 128.282 45.9364 127.77 46.5432C127.329 47.0668 126.885 47.5883 126.458 48.1237C125.906 48.8157 125.159 48.9563 124.441 48.4649C123.127 47.5651 121.883 46.5975 120.789 45.4364C120.272 44.8866 120.177 44.4096 120.639 43.805C121.353 42.8712 122.122 41.98 122.902 41.0378Z" fill="white"/>
</svg>
