<svg width="429" height="143" viewBox="0 0 429 143" fill="none" xmlns="http://www.w3.org/2000/svg">
<path d="M350.906 82.4087C349.515 82.6042 348.186 82.8105 346.854 82.9838C346.637 83.0121 346.333 82.9622 346.195 82.8235C346.09 82.7183 346.105 82.3659 346.203 82.2067C347.075 80.7828 347.95 79.358 348.894 77.9818C349.093 77.6914 349.562 77.5125 349.939 77.4305C351.327 77.1285 352.72 76.8277 354.126 76.6403C356.189 76.3655 358.262 76.1517 360.337 75.9852C361.413 75.8988 362.503 75.97 363.693 75.97C363.637 75.034 363.628 74.2428 363.533 73.4624C363.395 72.3415 363.203 71.227 363.018 70.1124C362.772 68.6224 362.492 67.1376 362.261 65.6452C362.091 64.5469 362.015 63.4335 361.829 62.3382C361.464 60.1803 361.021 58.0353 360.671 55.8752C360.472 54.6488 360.417 53.3997 360.254 52.1665C360.012 50.3307 359.467 48.5826 358.623 46.9306C358.355 46.4063 358.326 45.9306 358.66 45.3714C359.371 44.1809 359.992 42.9368 360.649 41.7138C360.679 41.6582 360.678 41.5791 360.719 41.5374C360.98 41.2691 361.248 41.0083 361.514 40.745C361.747 41.0305 362.083 41.2809 362.193 41.6075C362.788 43.3662 363.629 44.9883 364.725 46.4825C364.938 46.7734 365.139 47.0737 365.363 47.3562C365.955 48.1036 365.927 48.9078 365.267 49.5984C365.01 49.8676 364.768 50.1598 364.476 50.3848C363.637 51.0303 363.561 51.8263 363.781 52.8077C364.014 53.8471 364.059 54.9275 364.206 55.9873C364.411 57.4669 364.642 58.9429 364.846 60.4226C364.996 61.5037 365.11 62.5896 365.257 63.671C365.462 65.1727 365.699 66.6701 365.893 68.1731C366.053 69.4065 366.175 70.6448 366.304 71.882C366.362 72.4393 366.428 72.9991 366.431 73.5581C366.441 75.4071 366.107 77.1584 364.836 78.6333C366.854 79.7856 369.026 80.471 371.25 80.9408C373.393 81.3935 375.568 81.7102 377.74 81.9995C379.318 82.2096 380.915 82.28 382.504 82.4082C383.642 82.5 384.782 82.5722 385.92 82.677C386.578 82.7376 386.83 83.2124 386.552 83.8153C385.94 85.1376 385.302 86.4481 384.722 87.7839C384.556 88.1654 384.327 88.2523 383.99 88.1874C383.053 88.0072 382.126 87.776 381.185 87.6238C379.418 87.3379 377.658 87.222 375.848 87.3694C371.932 87.6884 368.27 88.9449 364.601 90.1786C362.069 91.0301 359.617 92.1173 357.087 92.9762C354.934 93.7071 352.743 94.3513 350.529 94.8667C348.791 95.2714 346.999 95.4714 345.221 95.6682C343.739 95.832 342.244 95.8979 340.753 95.9365C339.045 95.9806 337.323 96.073 335.628 95.9202C332.135 95.6052 328.673 95.0611 325.497 93.4313C325.041 93.1975 324.916 93.3724 324.769 93.7549C323.49 97.0872 321.834 100.227 319.666 103.059C317.83 105.458 315.425 107.135 312.44 107.805C311.044 108.119 309.617 108.325 308.158 108.057C307.211 107.883 306.215 107.956 305.276 107.757C303.773 107.437 302.231 107.143 300.828 106.548C298.815 105.693 296.906 104.588 294.967 103.562C294.606 103.371 294.117 103.125 294.32 102.588C294.499 102.114 294.943 101.873 295.454 102.002C296.411 102.243 297.361 102.518 298.302 102.816C300.203 103.416 302.139 103.726 304.135 103.861C306.783 104.039 309.356 103.677 311.824 102.86C313.176 102.412 314.454 101.568 315.593 100.68C318.614 98.325 320.548 95.1288 321.977 92.0825C321.226 91.1692 320.581 90.3679 319.917 89.5823C318.983 88.477 318.858 87.1589 319.015 85.8202C319.118 84.9478 319.368 84.0778 319.667 83.2478C319.928 82.5205 320.327 81.8378 320.715 81.1643C320.812 80.9966 321.097 80.8783 321.306 80.8619C321.397 80.8547 321.544 81.1478 321.613 81.3249C321.967 82.2221 322.138 83.2491 322.69 83.996C323.361 84.9045 324.267 85.7046 325.217 86.3301C327.583 87.8882 330.243 88.8231 332.986 89.4519C334.582 89.8176 336.228 90.0089 337.862 90.1447C339.871 90.3116 341.896 90.4549 343.907 90.3924C345.762 90.3347 347.615 90.0338 349.457 89.7651C353.257 89.2112 356.913 88.0744 360.557 86.9117C362.421 86.3169 364.262 85.6494 366.112 85.0092C366.183 84.9846 366.233 84.9013 366.378 84.7673C365.252 84.3616 364.202 83.9295 363.119 83.6065C361.825 83.2206 360.511 82.8953 359.192 82.6073C358.401 82.4346 357.585 82.3153 356.777 82.2918C355.137 82.244 353.495 82.2711 351.854 82.2834C351.558 82.2856 351.263 82.3649 350.906 82.4087Z" fill="white"/>
<path d="M116.874 82.5041C116.059 81.5954 115.178 80.7905 114.52 79.8323C113.361 78.146 113.122 76.2488 113.401 74.2099C113.745 71.6872 114.364 69.2584 115.558 67.0209C116.034 66.1284 116.756 65.3228 117.506 64.6305C118.838 63.4027 120.405 62.4933 122.127 61.918C123.969 61.303 125.816 61.4962 127.67 61.9896C129.583 62.4988 131.269 63.4274 132.841 64.5865C133.178 64.8352 133.468 65.1948 133.671 65.563C133.791 65.7817 133.816 66.2215 133.677 66.3747C133.485 66.5868 133.069 66.7606 132.801 66.705C132.275 66.5963 131.76 66.3621 131.284 66.1001C130.147 65.474 128.983 65.372 127.7 65.5618C125.057 65.953 122.543 66.7358 120.193 67.9655C117.943 69.1429 116.821 71.0906 116.851 73.6564C116.853 73.8386 116.932 74.0272 117.005 74.2001C117.91 76.3364 119.706 77.4821 121.726 78.3186C123.24 78.9454 124.868 79.2215 126.492 79.0965C128.415 78.9485 130.299 78.4904 132.063 77.6731C134.315 76.6292 136.55 75.5453 138.781 74.4575C139.196 74.2551 139.541 73.9048 139.959 73.7121C140.266 73.5706 140.641 73.5751 140.985 73.5145C141.004 73.8352 141.112 74.1824 141.026 74.4722C140.62 75.8435 140.165 77.2007 139.713 78.558C139.673 78.6777 139.547 78.8016 139.43 78.8577C137.03 80.0035 134.63 81.1513 132.22 82.275C128.683 83.9234 125.141 85.5583 121.596 87.1891C119.466 88.1693 117.281 89.062 114.968 89.4334C112.011 89.9081 109.057 89.9293 106.426 88.103C106.323 88.0314 106.198 87.993 106.088 87.9301C105.319 87.4903 105.361 87.5062 105.006 88.3901C104.455 89.7587 104.035 91.2057 102.949 92.2936C102.272 92.9722 101.425 93.233 100.488 93.3241C97.9276 93.5731 96.0667 92.1967 94.2976 90.7228C93.4997 91.3266 92.7763 92.0271 91.9234 92.4881C90.1155 93.4654 88.1757 93.3622 86.2435 92.8706C83.8765 92.2684 81.7672 91.121 79.807 89.6994C79.3743 89.3856 79.0286 89.3813 78.5913 89.5713C76.9102 90.3015 75.2363 91.0501 73.537 91.7355C72.7205 92.0649 71.8484 92.2539 71.0134 92.5413C70.8403 92.6009 70.6428 92.7893 70.5874 92.9607C69.9584 94.9047 69.3788 96.8649 68.7387 98.8052C67.8056 101.634 66.7125 104.407 65.2316 106.993C63.1954 110.55 60.1096 112.742 56.0869 113.543C54.9147 113.777 53.6992 113.969 52.5138 113.921C50.3172 113.834 48.1215 113.683 45.9676 113.1C43.5753 112.453 41.2908 111.548 39.0474 110.525C38.3245 110.196 37.6203 109.788 36.9864 109.312C36.4432 108.903 36.6023 108.44 37.2533 108.165C37.9515 107.87 38.6047 108.084 39.2301 108.335C40.9663 109.033 42.7379 109.592 44.6097 109.74C46.1831 109.865 47.7702 110.07 49.3365 109.98C52.8226 109.782 56.1132 108.898 58.9038 106.64C60.6819 105.2 62.1262 103.461 63.312 101.529C64.4266 99.7122 65.4243 97.8225 66.4293 95.9415C66.768 95.3077 66.9713 94.6016 67.3035 93.7586C66.8611 93.8901 66.6281 93.9643 66.3923 94.0284C65.8754 94.1689 65.3265 94.2532 65.0728 93.6489C64.5544 92.414 64.0657 91.1642 63.6288 89.8985C63.4493 89.3783 63.7577 88.9668 64.2673 88.7914C65.4015 88.4012 66.5494 88.0508 67.6863 87.6678C69.881 86.9284 72.0935 86.2349 74.2578 85.4144C76.163 84.6922 78.0004 83.7922 79.8954 83.0408C80.3461 82.8621 81.2088 82.7598 81.3556 82.9774C81.6625 83.4325 81.684 84.1223 81.6993 84.7189C81.7127 85.2387 81.5566 85.7628 81.4693 86.3244C82.8156 86.669 84.1072 87.0737 85.4282 87.3216C87.8989 87.7851 90.3309 87.9128 92.5052 86.2326C94.1302 84.9768 95.3641 83.4596 96.0836 81.5281C96.2735 81.0185 96.4726 80.5012 96.7572 80.0432C96.883 79.8408 97.2688 79.6379 97.4697 79.6905C97.6639 79.7414 97.9118 80.1321 97.8934 80.3533C97.8209 81.2216 97.6926 82.0906 97.5088 82.9429C97.318 83.8284 97.0221 84.6909 96.8152 85.5735C96.7806 85.7211 96.9173 86.0071 97.0549 86.0819C98.4404 86.8347 99.9233 87.3402 101.486 87.5159C102.387 87.6172 102.994 87.0313 103.443 86.2969C104.143 85.1537 104.321 83.8467 104.628 82.5774C104.836 81.7191 105.107 80.8757 105.356 80.0274C105.517 79.4796 105.988 79.4004 106.39 79.553C106.613 79.6377 106.742 80.0541 106.843 80.3453C106.911 80.5408 106.884 80.7834 106.851 80.9972C106.682 82.0758 107.351 82.6213 108.144 83.1172C109.034 83.6734 110.036 83.912 111.04 83.9617C112.589 84.0385 114.155 84.1025 115.681 83.652C116.24 83.487 116.816 83.3797 117.551 83.2069C117.254 82.8986 117.081 82.7188 116.874 82.5041Z" fill="white"/>
<path d="M235.922 83.9862C234.849 83.9862 233.838 83.937 232.834 83.9978C231.345 84.0879 229.919 84.3846 228.784 85.4969C228.592 85.6856 228.216 85.6872 227.925 85.7753C227.875 85.4919 227.746 85.1964 227.788 84.9273C228.044 83.2759 228.709 81.7641 229.63 80.3956C230.226 79.509 231.267 79.1547 232.277 79.0128C234.336 78.7235 236.411 78.5499 238.48 78.3361C239.421 78.2388 240.364 78.1618 241.306 78.0708C242.285 77.9762 242.669 77.404 242.496 76.3745C242.303 75.2174 242.145 74.0544 241.97 72.8941C241.792 71.7134 241.633 70.5294 241.428 69.3533C241.145 67.7211 240.832 66.0939 240.523 64.4662C240.138 62.4435 239.731 60.425 239.358 58.4001C238.901 55.9128 238.447 53.4243 238.032 50.9296C237.694 48.8927 236.915 47.0342 235.807 45.3181C235.401 44.6897 235.499 44.0981 235.878 43.4818C236.475 42.5103 237.037 41.5163 237.659 40.5614C237.851 40.2664 238.179 39.8972 238.467 39.8774C238.704 39.8611 239.08 40.263 239.212 40.5605C240.137 42.6524 241.419 44.4939 242.969 46.165C243.395 46.6246 243.3 47.4996 242.783 48.1366C242.457 48.5385 242.138 48.9593 241.748 49.2922C241.152 49.8001 241.074 50.4637 241.199 51.1186C241.914 54.8916 242.651 58.661 243.427 62.4221C243.952 64.9724 244.681 67.4874 245.078 70.0554C245.369 71.9385 245.587 73.8658 245.274 75.8035C245.089 76.9484 245.082 78.1219 244.991 79.2823C244.981 79.4091 244.97 79.5446 244.919 79.6579C244.722 80.0962 244.973 80.2433 245.333 80.3031C247.727 80.7009 250.121 81.101 252.518 81.48C253.07 81.5673 253.634 81.6051 254.193 81.6152C257.206 81.6695 260.218 81.7289 263.23 81.738C264.062 81.7405 264.893 81.5555 265.727 81.5005C266.033 81.4804 266.346 81.588 266.746 81.6518C266.476 83.5033 265.578 85.0706 264.893 86.7597C264.001 86.7119 263.094 86.6214 262.187 86.6223C258.713 86.6257 255.4 87.4352 252.197 88.7249C249.048 89.9925 246.178 91.7771 243.258 93.4867C241.34 94.6103 239.247 95.4495 237.193 96.3262C235.095 97.2222 232.843 97.6257 230.6 97.8854C228.03 98.1828 225.408 98.3514 222.902 97.497C221.137 96.8955 219.656 95.8681 218.55 94.2516C216.794 91.6853 215.791 88.8485 215.172 85.8539C214.867 84.3734 214.719 82.8603 214.5 81.3618C214.281 79.862 214.042 78.3648 213.852 76.8613C213.688 75.5621 213.598 74.2536 213.444 72.9531C213.292 71.68 213.088 70.4133 212.931 69.1409C212.82 68.2456 212.764 67.3436 212.657 66.4477C212.496 65.1101 212.304 63.7764 212.141 62.4391C211.996 61.2472 211.899 60.049 211.733 58.8602C211.513 57.2771 211.189 55.7068 211.013 54.1196C210.766 51.8946 209.83 49.7714 209.927 47.5159C210.004 45.7117 210.537 43.9757 211.348 42.3476C211.574 41.894 212.037 41.9265 212.25 42.4469C212.488 43.0275 212.684 43.6426 212.778 44.2609C213.076 46.2033 213.309 48.1555 213.582 50.1018C213.879 52.2159 214.217 54.3245 214.489 56.4415C214.668 57.8264 214.734 59.2256 214.902 60.6121C215.086 62.1379 215.343 63.655 215.543 65.1791C215.697 66.348 215.802 67.5233 215.949 68.6933C216.11 69.9868 216.297 71.2771 216.467 72.5695C216.604 73.6089 216.732 74.6496 216.866 75.6895C217.04 77.0472 217.193 78.4081 217.397 79.7614C217.635 81.3386 217.833 82.9289 218.2 84.4774C218.703 86.5936 219.609 88.5346 221.27 90.027C222.447 91.0843 223.873 91.6315 225.376 92.0658C227.133 92.5734 228.947 92.7421 230.699 92.4777C232.903 92.1451 235.071 91.5083 237.218 90.8804C240.188 90.0122 242.931 88.5889 245.674 87.1828C246.383 86.8189 247.07 86.4096 247.768 85.9343C243.882 84.9905 240.003 84.0908 235.922 83.9862Z" fill="white"/>
<path d="M173.984 71.0737C171.699 72.746 169.68 74.6031 168.348 77.0972C167.932 77.8771 167.483 78.6512 167.175 79.4751C166.655 80.8649 166.893 81.5447 168.168 82.2383C169.451 82.9362 170.805 83.5054 172.294 83.5862C173.618 83.658 174.946 83.7404 176.269 83.701C177.088 83.6766 177.896 83.3609 178.717 83.3051C180.088 83.212 181.517 82.8018 182.782 83.7231C183.595 84.315 184.057 85.1671 184.121 86.1394C184.248 88.0671 184.043 89.934 182.806 91.5576C181.463 93.3216 180.198 95.1533 178.519 96.6264C176.822 98.1164 174.951 99.3613 172.986 100.482C170.547 101.874 167.908 102.71 165.175 103.132C163.005 103.468 160.774 103.594 158.579 103.523C156.642 103.46 154.748 102.877 152.94 102.119C150.954 101.288 149.2 100.094 147.832 98.4451C146.591 96.9501 145.719 95.2255 145.502 93.2474C145.385 92.1775 145.298 91.1031 145.239 90.0285C145.085 87.2284 145.674 84.5449 146.593 81.9242C147.086 80.5168 147.605 79.1165 148.166 77.7352C148.427 77.0944 148.884 76.5873 149.645 76.4947C150.049 76.4456 150.307 76.5818 150.223 77.0317C150.143 77.4659 150.066 77.9106 149.904 78.3182C149.124 80.2926 148.555 82.3211 148.258 84.4239C148.076 85.7143 147.779 87.0044 147.758 88.2982C147.717 90.8875 148.739 92.9782 150.865 94.5818C152.752 96.0052 154.743 97.1569 157.045 97.6973C158.717 98.0901 160.394 98.2561 162.147 98.0854C165.52 97.7569 168.609 96.6616 171.614 95.1749C174.434 93.7796 177.08 92.124 179.561 90.1979C180.038 89.8275 180.484 89.4113 180.903 88.9759C181.042 88.8313 181.17 88.4749 181.092 88.3657C180.947 88.1621 180.629 87.926 180.415 87.9528C179.191 88.1058 177.983 88.3824 176.759 88.5238C174.091 88.8322 171.409 89.242 168.772 88.3239C166.565 87.5555 165.06 86.0738 164.596 83.7574C164.315 82.3518 164.479 80.9115 164.88 79.5177C165.816 76.2606 167.328 73.2732 169.213 70.4775C170.175 69.0496 171.131 67.5754 172.328 66.3573C173.805 64.8559 175.604 63.7297 177.755 63.3537C178.615 63.2035 179.477 63.0464 180.345 62.9655C182.112 62.8008 183.54 63.6506 184.923 64.5949C185.626 65.0743 186.282 65.6426 186.413 66.5078C186.518 67.1935 186.464 67.9249 186.355 68.616C186.227 69.4256 185.988 70.2219 185.74 71.0057C185.664 71.2451 185.426 71.558 185.214 71.6023C184.805 71.6874 184.339 71.7581 184.054 71.227C183.589 70.362 182.889 69.7286 182.016 69.2558C180.453 68.4094 178.843 68.553 177.312 69.168C176.151 69.6345 175.112 70.4047 173.984 71.0737Z" fill="white"/>
<path d="M189.922 94.596C189.834 93.2714 189.72 92.0035 189.689 90.7336C189.684 90.5486 190.05 90.295 190.294 90.185C190.45 90.1149 190.704 90.2338 190.905 90.2971C192.748 90.8782 194.559 90.4431 196.359 90.0893C198.957 89.5787 201.542 89.0072 204.131 88.4507C204.602 88.3493 205.078 88.2338 205.525 88.0569C206.226 87.7792 206.378 87.4279 206.107 86.7013C205.402 84.8071 204.389 83.0697 203.2 81.4498C201.921 79.7061 200.419 78.16 198.54 77.0434C197.641 76.5091 196.69 76.0615 195.713 75.5482C195.795 74.1031 195.872 72.5714 195.976 71.0416C196.001 70.6746 196.739 70.267 197.117 70.3585C199.921 71.0372 202.08 72.6479 203.727 74.9744C204.609 76.2201 205.558 77.4367 206.28 78.7723C207.248 80.5608 207.873 82.49 208.071 84.548C208.299 86.9068 208.247 89.2445 207.796 91.5708C207.603 92.5626 206.978 93.1861 206.028 93.4426C203.522 94.1189 201.021 94.8179 198.494 95.4043C196.312 95.9105 194.087 96.2124 191.836 96.0679C190.667 95.9929 190.258 95.7537 189.922 94.596Z" fill="white"/>
<path d="M294.705 83.0306C295.968 84.1234 297.352 84.85 298.985 85.0365C299.815 85.1314 300.652 85.3133 301.478 85.2758C302.582 85.2256 303.68 85.009 304.778 84.8476C305.43 84.7519 306.073 84.5833 306.727 84.5243C307.306 84.4722 307.432 84.6648 307.156 85.1465C306.535 86.2272 305.894 87.2984 305.212 88.3403C305.055 88.5785 304.715 88.7659 304.426 88.8352C302.658 89.2584 300.857 89.5556 299.112 90.0551C295.79 91.0065 292.722 92.5597 289.72 94.251C289.486 94.3829 289.147 94.3289 288.857 94.3613C288.869 94.0838 288.82 93.787 288.902 93.5325C289.155 92.7521 289.316 91.8858 289.779 91.2457C290.254 90.5899 291.018 90.1254 291.703 89.6455C292.25 89.2619 292.869 88.9808 293.506 88.627C292.669 88.0857 291.821 87.5714 291.012 87.0024C290.42 86.5859 289.748 86.1906 289.34 85.6217C288.462 84.3938 288.592 82.9901 289.705 81.538C290.537 80.4526 291.302 79.2889 292.277 78.3466C293.985 76.6954 295.691 74.9488 298.105 74.3372C299.325 74.0279 300.544 74.1932 301.526 75.1325C301.811 75.4048 302.096 75.6785 302.362 75.9684C303.204 76.8859 303.306 77.7612 302.659 78.8026C302.212 79.5227 301.727 80.2195 301.249 80.9202C300.553 81.9406 299.806 81.8956 299.198 80.8224C298.656 79.8651 298.047 78.9226 296.818 78.8486C296.29 78.8167 295.69 78.9585 295.22 79.2056C294.607 79.5278 294.087 80.0293 293.532 80.4607C293.048 80.837 293.129 81.3316 293.421 81.7223C293.775 82.1942 294.25 82.5755 294.705 83.0306Z" fill="white"/>
<path d="M270.225 68.6334C270.093 67.8636 269.953 67.1545 269.836 66.4414C269.612 65.0747 269.385 63.7083 269.192 62.3371C268.991 60.9178 268.842 59.4913 268.647 58.071C268.445 56.5911 268.21 55.1156 268.001 53.6364C267.935 53.1684 267.877 52.6954 267.868 52.2237C267.849 51.1284 267.86 50.0324 267.863 48.9368C267.866 47.5576 268.16 46.2349 268.648 44.9507C268.809 44.5258 268.861 43.9052 269.431 43.9325C269.994 43.9594 270.028 44.563 270.091 45.0111C270.241 46.0691 270.348 47.1331 270.494 48.1917C270.691 49.6295 270.909 51.0645 271.117 52.5008C271.303 53.7894 271.477 55.0799 271.676 56.3666C271.966 58.2401 272.279 60.11 272.572 61.983C272.763 63.2054 272.927 64.432 273.122 65.6539C273.416 67.5043 273.742 69.3498 274.023 71.2021C274.191 72.3022 274.29 73.4125 274.436 74.516C274.599 75.7437 274.801 76.9666 274.949 78.196C275.068 79.1783 275.162 80.1655 275.216 81.1534C275.324 83.1242 275.426 85.0963 275.477 87.0692C275.519 88.7336 275.565 90.405 275.457 92.0634C275.384 93.1953 275.087 94.3198 274.805 95.4263C274.729 95.7268 274.348 95.9499 274.107 96.2085C273.909 95.9562 273.612 95.731 273.534 95.4457C273.376 94.8762 273.3 94.2763 273.258 93.6841C273.109 91.5928 273.036 89.4949 272.843 87.408C272.64 85.2123 272.348 83.0241 272.063 80.8367C271.776 78.6342 271.473 76.4333 271.137 74.238C270.866 72.4721 270.533 70.7159 270.23 68.9549C270.215 68.8697 270.228 68.7799 270.225 68.6334Z" fill="white"/>
<path d="M389.311 50.6056C389.399 51.253 389.504 51.8404 389.566 52.4323C389.794 54.6101 390.003 56.7898 390.228 58.9679C390.396 60.5886 390.559 62.2101 390.758 63.827C390.952 65.3951 391.209 66.9554 391.403 68.5234C391.602 70.1403 391.758 71.7626 391.937 73.3822C392.153 75.3424 392.461 77.2973 392.571 79.2634C392.707 81.6998 392.749 84.1465 392.704 86.5865C392.663 88.785 392.537 90.9946 391.797 93.1025C391.613 93.6284 391.456 94.3663 390.707 94.2056C390.055 94.0656 390.105 93.3797 390.094 92.8215C390.055 90.8397 390.057 88.8553 389.951 86.8768C389.833 84.6833 389.638 82.493 389.431 80.3057C389.247 78.3647 389.024 76.4266 388.775 74.4929C388.496 72.3337 388.148 70.1835 387.87 68.0243C387.659 66.3869 387.493 64.7432 387.34 63.0992C387.146 61.0205 387.049 58.9306 386.791 56.8602C386.505 54.5578 386.94 52.416 387.919 50.3532C388.097 49.9791 388.345 49.5358 388.815 49.7168C389.051 49.8075 389.148 50.2593 389.311 50.6056Z" fill="white"/>
<path d="M335.158 69.0026C336.327 68.1906 337.46 67.3985 338.567 66.5713C340.393 65.2065 342.209 63.8268 344.016 62.4358C344.477 62.0809 344.923 61.6927 345.31 61.2606C345.703 60.8219 346.015 60.3101 346.396 59.7834C345.779 59.3332 345.194 58.92 344.624 58.4863C343.742 57.8149 342.814 57.188 342.021 56.4224C341.685 56.098 341.459 55.4526 341.504 54.984C341.592 54.0713 341.826 53.1511 342.143 52.2866C342.832 50.4067 344.114 48.9989 345.723 47.8011C347.005 46.8468 348.781 47.4975 349.463 48.6C350.556 50.3654 350.92 52.3072 350.547 54.3668C350.366 55.3679 350.169 56.3662 350.001 57.3694C349.98 57.4922 350.056 57.6813 350.153 57.7649C350.572 58.1291 350.999 58.4877 351.454 58.8063C351.938 59.1464 352.051 59.6469 351.96 60.1392C351.81 60.9446 351.559 61.7325 351.322 62.5196C351.163 63.052 350.808 63.1286 350.391 62.7479C349.832 62.2363 349.262 61.7347 348.724 61.2018C348.343 60.825 348.151 60.9733 347.968 61.3791C347.365 62.7169 346.524 63.9075 345.469 64.9086C343.857 66.4383 342.005 67.6578 340.062 68.7283C338.749 69.4522 337.411 70.1348 336.054 70.7744C335.61 70.9841 335.078 71.0588 334.579 71.09C334.037 71.124 333.765 70.6079 334.083 70.1646C334.382 69.7475 334.765 69.3903 335.158 69.0026ZM344.547 51.9202C343.845 52.9252 343.914 53.3026 344.926 53.9981C345.083 54.106 345.233 54.2242 345.391 54.3305C346.291 54.9364 347.193 55.5401 348.168 56.1945C348.168 55.4727 348.17 54.8644 348.168 54.256C348.164 53.0679 347.762 52.0218 347.023 51.1027C346.671 50.666 345.965 50.4699 345.616 50.7653C345.244 51.0808 344.945 51.4829 344.547 51.9202Z" fill="white"/>
<path d="M295.59 59.6749C294.216 58.5875 292.823 57.5731 291.476 56.5015C290.78 55.9475 290.571 55.0987 290.755 54.2848C291.262 52.0472 292.208 50.0237 293.979 48.4702C294.965 47.6055 296.016 46.9321 297.392 47.456C298.456 47.8609 299.057 48.6849 299.418 49.7603C300.221 52.1501 300.047 54.5229 299.392 56.8933C299.282 57.2903 299.235 57.4905 299.645 57.7835C300.204 58.1824 300.866 58.6892 301.055 59.2857C301.265 59.9455 301.015 60.7622 300.915 61.5038C300.871 61.8294 300.728 62.1509 300.581 62.4499C300.487 62.6412 300.318 62.9023 300.155 62.9245C299.97 62.9495 299.718 62.7799 299.557 62.6291C298.979 62.0877 298.446 61.4973 297.858 60.9674C297.48 60.6264 297.343 61.0188 297.219 61.2782C296.531 62.7227 295.679 64.0751 294.431 65.0734C292.957 66.2516 291.421 67.3689 289.822 68.368C288.428 69.2389 286.913 69.9165 285.442 70.6623C285.088 70.8418 284.708 71.0225 284.323 71.0722C284.043 71.1084 283.57 71.0102 283.481 70.8272C283.366 70.5912 283.443 70.1159 283.625 69.9105C284.125 69.3467 284.685 68.8202 285.289 68.3676C287.929 66.3866 290.638 64.4925 293.226 62.4463C294.152 61.714 294.809 60.6414 295.59 59.6749ZM297.151 55.9481C297.245 55.8525 297.416 55.7618 297.423 55.6605C297.528 54.0329 297.382 52.4425 296.362 51.0932C296.049 50.6794 295.549 50.2436 294.95 50.6159C294.188 51.0893 293.674 51.8184 293.382 52.6521C293.253 53.022 293.397 53.394 293.826 53.671C294.928 54.3832 295.98 55.174 297.151 55.9481Z" fill="white"/>
<path d="M88.6246 51.2966C87.0262 51.9711 85.4688 52.6128 83.9118 53.2554C81.8097 54.1231 79.7073 54.9903 77.6062 55.8605C76.9462 56.1339 76.2899 56.4164 75.4403 56.7757C75.4403 56.4342 75.3912 56.1964 75.4492 55.9885C75.647 55.2799 75.8267 54.5566 76.1277 53.8906C76.2712 53.5731 76.6319 53.2803 76.9637 53.1335C78.7349 52.3503 80.5269 51.6143 82.3138 50.8669C84.1202 50.1113 85.932 49.3686 87.736 48.6074C89.774 47.7474 91.8047 46.8702 93.8407 46.0056C95.7789 45.1825 97.7172 44.3591 99.6607 43.5487C101.195 42.9087 102.735 42.2809 104.281 41.6685C104.47 41.5935 104.824 41.561 104.9 41.6615C105.013 41.8098 105.012 42.1185 104.943 42.3183C104.38 43.944 103.473 45.1729 101.71 45.7773C99.7828 46.4384 97.9494 47.372 96.0697 48.1744C94.0551 49.0343 92.0351 49.8816 90.0157 50.73C89.5696 50.9174 89.1158 51.0866 88.6246 51.2966Z" fill="white"/>
<path d="M87.0092 71.4867C87.2149 71.0529 87.3719 70.6341 87.6355 70.2991C88.4433 69.2723 89.2909 68.2768 90.1255 67.2712C90.3955 66.9459 91.01 66.9127 91.3379 67.2195C92.3165 68.1353 93.2872 69.0595 94.3172 70.0335C94.7918 69.5144 95.2212 69.0707 95.6207 68.6016C96.26 67.8511 96.8657 67.0718 97.5121 66.3276C97.9497 65.8237 98.3769 65.8141 98.822 66.2936C99.9857 67.5472 101.26 68.6653 102.749 69.5146C103.18 69.7605 103.141 70.0776 102.916 70.3562C102.015 71.4757 101.099 72.5854 100.147 73.6623C99.402 74.5053 98.6756 74.4715 97.5911 73.5958C96.9555 73.0826 96.3217 72.5619 95.7356 71.9946C95.4014 71.6711 95.1938 71.7345 94.9427 72.0436C94.1736 72.9902 93.4092 73.9407 92.6253 74.8749C92.2586 75.3118 91.7116 75.4847 91.2344 75.2411C89.6083 74.4113 88.299 73.1626 87.0477 71.856C86.9889 71.7946 87.02 71.6473 87.0092 71.4867Z" fill="white"/>
<path d="M61.0821 75.9297C57.1531 77.6297 53.2654 79.299 49.3706 80.9518C49.1858 81.0302 48.9387 80.9619 48.6169 80.9619C48.7253 80.3889 48.8654 79.8475 48.9246 79.2973C49.0904 77.7545 50.1576 77.1224 51.4422 76.5954C53.5264 75.7404 55.5632 74.7706 57.6369 73.889C59.9792 72.8932 62.3563 71.9782 64.6884 70.9599C66.9848 69.9571 69.2423 68.8656 71.5216 67.8234C71.7568 67.7159 72.0244 67.679 72.277 67.6094C72.3247 67.878 72.4465 68.1578 72.4083 68.4136C72.1034 70.4546 70.9284 71.787 69.0311 72.5546C67.4319 73.2015 65.8588 73.9127 64.2705 74.5869C63.2244 75.031 62.1718 75.46 61.0821 75.9297Z" fill="white"/>
<path d="M319.788 52.3098C319.911 52.2284 319.984 52.1518 320.108 52.02C318.293 51.3182 316.515 50.5926 314.59 50.893C313.016 51.1388 311.513 51.6813 310.51 53.0867C310.273 53.4183 310.023 53.8287 309.37 53.5339C309.388 53.2735 309.337 52.9183 309.444 52.6194C310.35 50.0829 311.892 48.171 314.645 47.5189C316.071 47.1812 317.494 47.2313 318.896 47.6719C320.118 48.0563 321.331 48.4694 322.558 48.8378C323.243 49.0433 323.951 49.1703 324.641 49.358C325.026 49.4625 325.143 49.7069 324.96 50.0982C324.535 51.0073 324.134 51.9273 323.719 52.8413C323.685 52.9168 323.633 53.0321 323.575 53.0421C322.361 53.2503 321.77 54.3533 320.825 54.9489C319.215 55.9636 317.442 56.5436 315.629 57.0449C314.818 57.2692 314.027 57.5827 313.204 57.7388C312.846 57.8068 312.23 57.7008 312.088 57.4614C311.844 57.0524 312.048 56.5241 312.529 56.2606C313.914 55.5024 315.314 54.7721 316.7 54.0164C317.719 53.4608 318.725 52.8827 319.788 52.3098Z" fill="white"/>
<path d="M115.095 54.9382C114.753 54.9986 114.465 55.0571 114.015 55.1486C114.156 54.4877 114.34 53.9489 114.376 53.4004C114.495 51.6065 115.919 51.1678 117.215 50.6121C119.012 49.8414 120.831 49.1218 122.634 48.3647C124.904 47.4114 127.169 46.4459 129.434 45.4791C131.407 44.6365 133.377 43.7853 135.348 42.9364C135.503 42.8697 135.645 42.7594 135.806 42.7237C136.364 42.5997 136.553 42.7522 136.419 43.3227C136.022 45.0155 135.282 46.4005 133.491 47.09C131.391 47.8988 129.369 48.9075 127.295 49.7861C124.836 50.8277 122.351 51.8076 119.889 52.844C118.298 53.5139 116.729 54.2371 115.095 54.9382Z" fill="white"/>
<path d="M198.875 102.783C202.847 101.14 206.764 99.4931 210.688 97.8613C211.554 97.501 212.348 96.892 213.476 97.0206C213.423 97.3314 213.421 97.6508 213.311 97.9273C212.792 99.2362 212.088 100.335 210.667 100.915C206.635 102.559 202.64 104.294 198.624 105.977C196.103 107.033 193.573 108.066 191.039 109.093C190.824 109.18 190.555 109.135 190.311 109.151C190.314 108.916 190.267 108.668 190.328 108.449C190.485 107.882 190.676 107.324 190.878 106.771C191.171 105.971 191.898 105.705 192.599 105.41C194.675 104.537 196.748 103.661 198.875 102.783Z" fill="white"/>
<path d="M163.071 55.559C161.153 56.34 159.279 57.0979 157.396 57.8306C156.851 58.0429 156.285 58.2199 155.713 58.3434C155.35 58.422 155.118 58.288 155.347 57.8351C155.797 56.9439 155.705 55.7516 156.671 55.1592C157.419 54.7011 158.245 54.3599 159.061 54.0271C162.897 52.4621 166.742 50.9205 170.582 49.3652C172.513 48.5829 174.435 47.7765 176.374 47.0151C176.64 46.911 176.983 47.0051 177.29 47.0074C177.262 47.2987 177.293 47.6117 177.195 47.8777C176.536 49.6803 175.191 50.7242 173.427 51.3883C171.005 52.3001 168.622 53.3168 166.222 54.2855C165.187 54.7031 164.149 55.113 163.071 55.559Z" fill="white"/>
<path d="M221.218 38.7751C219.88 39.355 218.598 39.9444 217.301 40.4987C217.095 40.587 216.821 40.5178 216.578 40.5215C216.587 40.2836 216.55 40.0318 216.616 39.8106C216.765 39.3076 216.906 38.7855 217.163 38.3356C217.406 37.9103 217.719 37.4173 218.13 37.2139C220.015 36.2805 221.949 35.4479 223.857 34.5604C225.556 33.7701 227.234 32.9333 228.939 32.157C230.796 31.3117 232.673 30.5088 234.546 29.6986C234.734 29.6171 234.981 29.5383 235.155 29.5957C235.302 29.6442 235.516 29.9507 235.475 30.0427C234.83 31.4933 234.192 32.8647 232.509 33.5539C229.975 34.5911 227.546 35.8827 225.065 37.0506C223.808 37.6423 222.535 38.1999 221.218 38.7751Z" fill="white"/>
<path d="M321.305 66.7969C321.903 67.2915 322.456 67.7661 323.018 68.2299C323.43 68.5697 323.424 68.8689 323.033 69.2455C322.057 70.1859 321.113 71.1589 320.152 72.1142C319.555 72.7071 318.905 72.6677 318.231 72.137C317.075 71.2261 316.003 70.2504 315.131 69.0483C314.798 68.5887 314.87 68.2304 315.177 67.9091C316.219 66.8196 317.279 65.7463 318.371 64.7076C318.689 64.4056 319.097 64.3668 319.458 64.791C320.038 65.4709 320.66 66.1136 321.305 66.7969Z" fill="white"/>
<path d="M90.9193 62.8582C90.4639 62.314 89.6272 61.9745 89.93 61.1372C90.11 60.6396 90.5484 60.2297 90.8939 59.799C91.4971 59.0469 92.1246 58.3145 92.7294 57.5637C93.1404 57.0534 93.6321 57.0034 94.092 57.4877C95.1927 58.6466 96.3489 59.7427 97.7728 60.4937C98.3459 60.7959 98.2557 61.1527 97.9629 61.518C97.1045 62.5891 96.2242 63.6435 95.3285 64.6837C94.7933 65.3053 94.3162 65.3891 93.655 64.9272C92.731 64.2816 91.8511 63.5729 90.9193 62.8582Z" fill="white"/>
<path d="M366.344 105.673C365.289 104.848 364.272 104.04 363.293 103.189C362.976 102.913 362.755 102.525 362.491 102.188C362.104 101.691 362.269 101.244 362.653 100.854C363.619 99.8702 364.599 98.899 365.578 97.9279C365.989 97.5199 366.388 97.5249 366.797 97.9511C367.521 98.7073 368.216 99.4939 368.961 100.229C369.401 100.664 369.887 101.065 370.403 101.403C370.751 101.631 370.727 101.823 370.502 102.06C369.438 103.181 368.379 104.308 367.278 105.392C367.082 105.585 366.696 105.584 366.344 105.673Z" fill="white"/>
</svg>
