<svg width="428" height="142" viewBox="0 0 428 142" fill="none" xmlns="http://www.w3.org/2000/svg">
<path d="M353.681 76.4793C355.222 76.7363 356.703 77.0181 358.192 77.237C359.167 77.3803 360.154 77.4483 361.138 77.5223C363.027 77.6646 364.918 77.7744 366.806 77.9247C367.465 77.9772 367.708 78.496 367.406 79.1301C366.847 80.3026 366.267 81.4648 365.718 82.6413C365.514 83.0779 365.284 83.2162 364.773 83.0708C362.307 82.3686 359.763 82.1202 357.233 82.3938C355.14 82.6202 353.034 83.0293 351.022 83.6423C347.812 84.6199 344.666 85.8086 341.51 86.9557C338.68 87.9844 335.835 88.9622 332.871 89.5186C331.261 89.8208 329.627 90.0383 327.994 90.168C325.968 90.329 323.927 90.4753 321.898 90.4168C319.467 90.3467 317.042 90.1267 314.646 89.5908C313.03 89.2295 311.479 88.7523 309.995 88.0382C309.659 87.8768 309.458 87.9573 309.286 88.3145C308.397 90.1675 307.533 92.0359 306.56 93.8448C305.633 95.5658 304.554 97.2082 303.089 98.5371C301.303 100.156 299.246 101.31 296.83 101.652C295.057 101.903 293.279 101.813 291.487 101.569C287.733 101.057 284.457 99.442 281.3 97.4952C281.156 97.4067 280.984 97.3167 280.906 97.1814C280.775 96.9573 280.569 96.6223 280.651 96.468C280.759 96.264 281.1 96.1229 281.364 96.0713C282.134 95.9206 282.811 96.2853 283.517 96.5199C285.596 97.211 287.706 97.6733 289.923 97.793C292.351 97.9239 294.695 97.586 296.979 96.9255C298.103 96.6005 299.186 95.9265 300.114 95.1937C301.241 94.3048 302.257 93.2479 303.186 92.1501C304.025 91.1577 304.709 90.0293 305.409 88.9284C305.848 88.2387 306.183 87.4838 306.583 86.7686C306.749 86.4712 306.736 86.3303 306.409 86.1146C305.283 85.3701 304.452 84.366 303.939 83.1022C303.594 82.2505 303.672 81.3609 303.858 80.5404C304.124 79.3665 304.604 78.2395 305.013 77.0998C305.09 76.8867 305.252 76.6993 305.395 76.5153C305.733 76.0779 306.071 76.1124 306.258 76.6294C306.456 77.1783 306.552 77.7669 306.777 78.303C307.457 79.9223 308.776 80.9454 310.254 81.7623C312.762 83.1475 315.471 84.0093 318.272 84.5526C319.507 84.792 320.777 84.87 322.036 84.9565C323.804 85.078 325.581 85.2561 327.346 85.1931C329.11 85.1301 330.874 84.8554 332.623 84.5762C337.197 83.8457 341.577 82.3949 345.946 80.9174C346.84 80.6152 347.721 80.2746 348.66 79.7813C346.31 79.1179 343.991 78.2906 341.6 77.8436C339.727 77.4934 337.766 77.5823 335.842 77.5346C333.908 77.4867 332.009 77.778 330.135 78.254C329.91 78.3111 329.562 78.2267 329.399 78.0732C329.284 77.9644 329.299 77.5743 329.406 77.4024C330.217 76.0981 330.978 74.7463 331.944 73.5623C332.338 73.0787 333.178 72.8514 333.856 72.7214C335.401 72.4253 336.966 72.2099 338.532 72.0571C340.439 71.8711 342.357 71.7886 344.269 71.6487C344.8 71.6099 345.328 71.5262 345.983 71.4481C345.861 70.2373 345.769 69.0065 345.605 67.7853C345.44 66.5499 345.202 65.3241 344.996 64.0939C344.767 62.7176 344.547 61.3397 344.309 59.9649C344.021 58.3008 343.705 56.6414 343.427 54.9758C343.147 53.3056 342.806 51.6382 342.662 49.9552C342.484 47.8592 341.872 45.9196 340.953 44.0536C340.635 43.4081 341.129 43.0171 341.39 42.5428C341.902 41.6087 342.397 40.6654 342.898 39.7249C342.947 39.6333 342.962 39.5125 343.031 39.445C343.318 39.1665 343.619 38.9033 343.915 38.6344C344.146 38.943 344.463 39.2195 344.592 39.5655C345.284 41.4132 346.247 43.1138 347.464 44.6511C348.491 45.9491 348.031 46.7163 347.059 47.3984C345.957 48.172 345.94 49.1063 346.076 50.1711C346.251 51.535 346.495 52.8899 346.699 54.2502C346.923 55.7381 347.146 57.2263 347.348 58.7172C347.5 59.8342 347.607 60.9571 347.752 62.075C347.949 63.5899 348.207 65.0983 348.361 66.6173C348.589 68.8634 348.885 71.1317 347.741 73.2523C347.571 73.5661 347.319 73.8358 346.99 74.283C348.438 74.8087 349.836 75.3399 351.252 75.8203C352.027 76.0836 352.832 76.2611 353.681 76.4793Z" fill="white"/>
<path d="M127.094 85.6205C126.173 85.6474 125.307 85.7473 124.455 85.6806C122.675 85.5415 121.16 84.7252 119.756 83.6766C119.713 83.6441 119.629 83.6645 119.613 83.6634C119.118 84.8088 118.652 85.9437 118.14 87.058C117.488 88.4786 116.319 89.0549 114.783 89.1586C112.92 89.2843 111.468 88.4425 110.061 87.4194C109.734 87.1818 109.428 86.9162 109.167 86.7071C108.392 87.2663 107.676 87.8816 106.871 88.3426C105.344 89.2176 103.68 89.164 102.017 88.814C99.7757 88.3423 97.7773 87.3143 95.9377 85.9974C95.288 85.5324 94.7566 85.4877 94.0328 85.7809C91.7775 86.6946 89.498 87.5503 87.2164 88.3979C86.8644 88.5287 86.7669 88.7584 86.6751 89.0532C86.0656 91.0118 85.5181 92.9928 84.825 94.9218C83.7752 97.8436 82.6299 100.724 80.812 103.296C79.4622 105.206 77.6203 106.461 75.5474 107.392C73.6581 108.242 71.6104 108.483 69.5547 108.446C65.955 108.38 62.475 107.677 59.168 106.234C57.9751 105.714 56.8135 105.121 55.6482 104.541C55.2641 104.349 54.8439 104.098 54.9637 103.584C55.0169 103.356 55.2756 103.038 55.4771 103.009C55.9116 102.947 56.3897 102.972 56.8139 103.09C58.2081 103.479 59.5674 104.005 60.975 104.329C63.0996 104.817 65.266 105.038 67.4407 104.667C69.0024 104.401 70.6038 104.215 72.0898 103.709C73.282 103.303 74.4029 102.57 75.4234 101.807C77.9498 99.9192 79.6936 97.3687 81.1607 94.6268C81.9693 93.1155 82.7108 91.5685 83.4768 90.0347C83.5216 89.9451 83.5154 89.8302 83.5496 89.6287C83.3195 89.6944 83.1518 89.7573 82.9784 89.7892C82.0519 89.9596 81.4586 89.6632 81.1066 88.743C80.741 87.7875 80.3988 86.8147 80.1625 85.8221C80.023 85.2364 80.5339 84.8857 81.0259 84.7184C82.2782 84.2925 83.5562 83.942 84.8135 83.5297C86.7687 82.8887 88.7333 82.2696 90.6602 81.5514C92.4849 80.8714 94.2582 80.0556 96.0702 79.3401C96.9039 79.0108 97.2904 79.2901 97.2888 80.163C97.2878 80.6955 97.212 81.2281 97.1662 81.7603C97.1277 82.2079 97.1499 82.5607 97.7206 82.7158C99.6055 83.2282 101.474 83.815 103.457 83.7879C105.952 83.7539 107.817 82.5238 109.361 80.6819C110.313 79.5467 110.823 78.1931 111.322 76.836C111.497 76.3627 111.861 76.2235 112.22 76.3888C112.408 76.4752 112.555 76.9391 112.509 77.1951C112.227 78.7695 111.879 80.3319 111.576 81.9027C111.55 82.0365 111.657 82.3022 111.76 82.338C112.969 82.7553 114.175 83.1873 115.408 83.5203C116.618 83.8469 117.627 83.3061 118.003 82.1159C118.494 80.5603 118.887 78.9738 119.328 77.4023C119.413 77.1012 119.465 76.7594 119.648 76.5264C119.813 76.3168 120.137 76.1236 120.389 76.1251C120.584 76.1261 120.816 76.4148 120.955 76.6254C121.049 76.7672 121.022 76.9954 121.028 77.1856C121.043 77.6325 120.871 78.2031 121.085 78.5031C121.657 79.3028 122.453 79.896 123.456 80.1357C125.137 80.5375 126.816 80.4485 128.498 80.1422C129.367 79.9839 130.24 79.8453 131.007 79.7156C130.075 78.6452 129.096 77.6718 128.298 76.5686C127.156 74.9895 126.784 73.1877 127.189 71.2548C127.5 69.7735 127.639 68.2327 128.144 66.8208C129.103 64.1415 130.869 62.0837 133.405 60.6512C134.9 59.8072 136.431 59.2989 138.126 59.3974C139.785 59.4938 141.361 59.9514 142.82 60.7692C143.643 61.2303 144.52 61.6126 145.287 62.1511C145.706 62.4458 146.011 62.9597 146.253 63.4329C146.492 63.9029 146.231 64.2644 145.697 64.1934C145.146 64.1201 144.559 63.9841 144.089 63.7059C143 63.0609 141.877 62.9621 140.651 63.1181C138.556 63.3845 136.616 64.1256 134.663 64.8588C132.293 65.749 130.778 67.3605 130.35 69.8791C130.143 71.0963 130.857 72.005 131.599 72.8187C132.987 74.3403 134.804 75.1376 136.79 75.5579C137.496 75.7073 138.225 75.7931 138.947 75.8191C140.83 75.887 142.577 75.3075 144.321 74.6739C146.846 73.7568 149.192 72.4951 151.502 71.1537C151.847 70.9535 152.163 70.6938 152.524 70.5335C152.878 70.3765 153.213 70.4585 153.148 70.9433C153.067 71.5454 152.945 72.1452 152.794 72.7339C152.659 73.2597 152.406 73.7586 152.301 74.2882C152.116 75.2199 151.511 75.7171 150.7 76.0909C147.683 77.4825 144.688 78.9238 141.658 80.2897C138.022 81.9292 134.518 83.8876 130.65 84.9755C129.515 85.2948 128.322 85.4095 127.094 85.6205Z" fill="white"/>
<path d="M202.199 77.9082C202.155 76.2889 202.139 74.7322 202.061 73.1786C201.957 71.1212 201.811 69.0657 201.672 67.0102C201.55 65.1928 201.421 63.3758 201.278 61.5599C201.113 59.4488 200.979 57.3335 200.74 55.2304C200.561 53.6576 200.203 52.1059 199.986 50.5364C199.625 47.9255 199.426 45.3106 200.37 42.7637C200.551 42.2762 200.667 41.6429 201.617 41.8049C201.802 42.6555 202.039 43.5623 202.19 44.4832C202.439 46.0104 202.656 47.5438 202.844 49.0798C203.009 50.435 203.107 51.7983 203.25 53.1564C203.414 54.7237 203.612 56.2877 203.764 57.8562C203.88 59.05 203.936 60.2494 204.037 61.4449C204.202 63.4256 204.385 65.4049 204.555 67.3853C204.61 68.0262 204.651 68.6684 204.689 69.3107C204.78 70.8769 204.81 72.4488 204.965 74.0085C205.192 76.285 205.093 78.6069 205.867 80.8137C206.492 82.5976 207.292 84.2557 208.945 85.3517C210.358 86.2893 211.941 86.7277 213.586 87.0688C215.901 87.5491 218.242 87.5362 220.566 87.4095C222.621 87.2974 224.694 87.0267 226.698 86.5647C228.902 86.0567 231.083 85.3675 233.184 84.5324C234.574 83.9798 235.85 83.0943 237.092 82.2364C237.82 81.7336 238.411 81.0186 239.007 80.3483C239.339 79.9742 239.741 79.9127 240.105 80.0536C240.24 80.1059 240.281 80.645 240.213 80.9259C239.95 82.0201 239.626 83.0998 239.289 84.3125C240.647 84.3125 242.054 84.3001 243.461 84.3184C244.041 84.326 244.619 84.422 245.199 84.4375C245.997 84.4588 246.43 84.0564 246.374 83.2208C246.287 81.905 246.148 80.5893 245.955 79.2846C245.752 77.9078 245.45 76.5458 245.212 75.1738C244.977 73.8197 244.78 72.4589 244.545 71.1049C244.299 69.6918 244.028 68.2829 243.766 66.8727C243.376 64.7783 242.973 62.6863 242.596 60.5897C242.23 58.5526 241.869 56.514 241.543 54.4702C241.252 52.6515 241.057 50.8168 240.727 49.0059C240.61 48.3681 240.269 47.7514 239.942 47.1748C239.053 45.606 239.037 44.246 240.264 42.8086C240.888 42.0776 241.353 41.2123 241.941 40.3311C242.45 40.1403 242.692 40.5137 242.937 40.9961C243.638 42.3754 244.222 43.8506 245.141 45.0732C246.224 46.5153 246.158 47.745 245.138 49.0812C245.062 49.1807 245.018 49.31 244.929 49.3931C243.918 50.3351 244.105 51.5 244.319 52.6614C244.694 54.693 245.085 56.7219 245.471 58.7515C245.74 60.1598 246.014 61.567 246.282 62.9753C246.582 64.5495 246.878 66.1245 247.175 67.6992C247.508 69.4602 247.885 71.2144 248.164 72.9839C248.49 75.0578 248.808 77.1384 248.988 79.2281C249.149 81.0896 248.574 82.88 248.049 84.6431C247.656 85.9623 247.134 87.2447 246.638 88.5316C246.399 89.1527 245.893 89.4025 245.224 89.4075C242.504 89.4278 239.983 88.7516 237.657 87.3424C237.499 87.2465 237.151 87.2159 237.045 87.316C235.197 89.0619 232.972 90.0944 230.538 90.6935C228.388 91.2228 226.223 91.7063 224.049 92.1308C222.174 92.497 220.285 92.8992 218.385 93.0136C216.517 93.1262 214.614 93.0073 212.752 92.7789C211.477 92.6225 210.172 92.2619 209.012 91.7159C206.529 90.547 204.56 88.7973 203.497 86.1657C202.863 84.5952 202.567 82.9738 202.458 81.3005C202.385 80.1902 202.286 79.0816 202.199 77.9082Z" fill="white"/>
<path d="M193.567 85.8369C191.312 84.6243 188.876 84.0929 186.455 83.5545C185.294 83.2962 184.081 83.2594 182.889 83.141C181.864 83.0391 180.833 82.9833 179.811 82.8564C179.651 82.8365 179.377 82.5124 179.406 82.3872C179.606 81.5338 179.894 80.7012 180.112 79.8513C180.283 79.1853 180.68 78.972 181.353 78.7953C184.019 78.0956 186.597 77.1281 189.069 75.904C190.543 75.1743 190.876 74.219 190.061 72.7594C188.986 70.836 187.658 69.05 186.399 67.2321C185.891 66.4992 185.248 65.8598 184.731 65.1328C184.553 64.8826 184.455 64.4725 184.516 64.175C184.869 62.4464 185.262 60.7252 185.681 59.0109C185.852 58.3101 186.186 58.2308 186.676 58.7561C188.316 60.5146 189.755 62.417 190.938 64.5186C191.747 65.9568 192.459 67.448 192.671 69.0652C192.867 70.5615 192.815 72.1027 192.738 73.6174C192.679 74.773 192.451 75.9265 192.218 77.0646C192.072 77.7764 191.777 78.458 191.555 79.137C192.248 79.3636 192.98 79.6353 193.731 79.8414C195.052 80.2044 195.652 81.2594 196.153 82.362C197.061 84.3618 196.829 86.3827 195.968 88.321C195.624 89.0961 195.075 89.8121 194.502 90.4507C191.906 93.3441 188.745 95.506 185.347 97.3634C183.008 98.6423 180.463 99.2547 177.898 99.8579C175.862 100.337 173.803 100.482 171.739 100.347C168.715 100.149 165.794 99.4926 163.182 97.8588C160.321 96.0693 158.627 93.459 158.037 90.1879C157.728 88.4793 157.823 86.7424 158.099 85.0014C158.365 83.3288 158.724 81.6938 159.327 80.12C160.131 78.0203 161.171 76.0325 162.396 74.1433C162.477 74.0184 162.591 73.8775 162.721 73.8292C162.937 73.7493 163.293 73.6299 163.383 73.7236C163.528 73.8756 163.611 74.2261 163.537 74.4238C163.168 75.401 162.678 76.3354 162.343 77.3226C161.773 79.006 161.042 80.6868 160.82 82.4245C160.473 85.1371 160.908 87.8077 162.467 90.1778C163.403 91.6007 164.778 92.4824 166.335 93.0375C168.013 93.6361 169.716 94.2742 171.463 94.5442C173.148 94.8047 174.904 94.6552 176.628 94.6172C178.466 94.5767 180.277 94.2169 181.956 93.5098C183.867 92.7047 185.738 91.7697 187.525 90.7186C189.268 89.6929 190.887 88.4562 192.55 87.2967C192.918 87.0401 193.236 86.7141 193.585 86.4291C193.813 86.2426 193.89 86.0672 193.567 85.8369Z" fill="white"/>
<path d="M276.969 85.2632C277.933 84.6599 278.863 84.0916 279.872 83.475C279.291 83.1254 278.698 82.788 278.126 82.4188C277.435 81.9729 276.73 81.538 276.087 81.0296C275.209 80.3369 275.093 78.4776 275.837 77.3893C277.551 74.8793 279.642 72.7243 282.149 70.9976C283.031 70.3899 284.019 69.9396 285.155 69.9515C286.888 69.9698 288.304 71.4151 288.849 72.8046C288.921 72.9871 288.821 73.2635 288.74 73.4732C288.266 74.7007 287.684 75.8773 286.645 76.7309C286.072 77.2013 285.873 77.0834 285.451 76.443C285.096 75.9048 284.724 75.3465 284.244 74.9281C283.249 74.0609 282.198 74.0727 281.13 74.8635C280.786 75.1179 280.483 75.4248 280.151 75.6963C279.444 76.2755 279.526 76.6228 280.114 77.3226C281.746 79.2632 283.841 80.2611 286.431 80.2854C288.272 80.3027 290.05 79.9871 291.835 79.6373C292.024 79.6003 292.225 79.6098 292.42 79.6165C292.766 79.6282 292.926 79.8208 292.747 80.1234C292.086 81.2436 291.429 82.3698 290.692 83.4401C290.536 83.6665 290.054 83.7246 289.712 83.7613C286.995 84.0521 284.455 84.9564 281.976 86.0207C280.163 86.7991 278.42 87.7373 276.637 88.5856C276.271 88.7595 275.866 88.8506 275.389 89.0097C275.31 87.9287 275.758 87.1529 276.13 86.3738C276.32 85.9778 276.662 85.6545 276.969 85.2632Z" fill="white"/>
<path d="M259.634 87.7889C259.501 86.1353 259.404 84.5346 259.23 82.9422C259.054 81.3397 258.802 79.7457 258.586 78.1476C258.365 76.5076 258.177 74.8625 257.92 73.2282C257.604 71.2259 257.221 69.2342 256.886 67.2347C256.607 65.5661 256.378 63.8889 256.085 62.2228C255.768 60.4169 255.375 58.6239 255.064 56.817C254.802 55.2934 254.62 53.7563 254.384 52.228C254.181 50.9116 253.89 49.6058 253.748 48.2835C253.46 45.5967 253.384 42.9131 254.391 40.3237C254.511 40.013 254.643 39.7717 255.075 39.7909C255.47 39.8084 255.52 40.0343 255.57 40.3132C255.744 41.2881 255.931 42.2612 256.089 43.2389C256.338 44.7853 256.558 46.3364 256.806 47.8828C257.038 49.3221 257.287 50.7586 257.536 52.1951C257.77 53.5466 258.017 54.896 258.253 56.2471C258.498 57.6411 258.739 59.0356 258.976 60.4307C259.21 61.8055 259.44 63.181 259.668 64.5569C259.921 66.0791 260.181 67.6002 260.416 69.125C260.649 70.6333 260.885 72.142 261.063 73.6572C261.2 74.8258 261.277 76.0035 261.331 77.1794C261.439 79.5056 261.586 81.8339 261.569 84.1604C261.56 85.3976 261.276 86.6389 261.04 87.8641C260.986 88.1461 260.664 88.5088 260.392 88.5902C259.831 88.7582 259.815 88.1771 259.634 87.7889Z" fill="white"/>
<path d="M370.042 47.79C370.129 48.5412 370.236 49.2337 370.3 49.93C370.486 51.9521 370.624 53.9788 370.837 55.998C371.064 58.1546 371.35 60.305 371.618 62.4573C371.83 64.1649 372.074 65.8689 372.266 67.5787C372.506 69.7187 372.779 71.8587 372.909 74.0065C373.071 76.6997 373.213 79.4034 373.15 82.0976C373.107 83.9274 373.029 85.7975 372.401 87.5657C372.213 88.0934 372.139 88.8774 371.346 88.7175C370.678 88.583 370.709 87.8753 370.701 87.314C370.687 86.4224 370.724 85.5295 370.692 84.6389C370.623 82.7453 370.558 80.8503 370.424 78.9606C370.299 77.1948 370.108 75.4326 369.904 73.6736C369.718 72.0716 369.463 70.4776 369.261 68.8772C369.069 67.3573 368.914 65.8327 368.729 64.3119C368.475 62.223 368.192 60.1374 367.953 58.047C367.828 56.9633 367.758 55.8729 367.685 54.7841C367.624 53.8824 367.545 52.9777 367.561 52.0758C367.589 50.4974 367.905 48.9746 368.714 47.5909C368.847 47.3627 369.037 47.0814 369.261 47.0079C369.879 46.8057 369.946 47.3094 370.042 47.79Z" fill="white"/>
<path d="M331.776 57.7764C331.609 57.6799 331.475 57.6192 331.3 57.5399C330.602 59.0526 329.761 60.4873 328.448 61.541C327.178 62.5601 325.881 63.5689 324.491 64.41C322.946 65.3446 321.295 66.1121 319.66 66.8895C319.26 67.0796 318.741 67.0736 318.278 67.0658C317.939 67.0601 317.8 66.4689 318.123 66.1267C318.717 65.4977 319.342 64.8774 320.036 64.3644C322.349 62.6552 324.74 61.0472 327.017 59.2918C327.992 58.5401 328.758 57.5208 329.685 56.5545C328.821 55.9174 328.071 55.376 327.334 54.8172C326.742 54.3677 326.121 53.9417 325.591 53.4258C324.777 52.6338 324.84 51.6385 325.128 50.641C325.759 48.4557 326.983 46.6819 328.796 45.2832C330.122 44.2598 332.12 44.954 332.811 46.3883C333.245 47.2885 333.492 48.2158 333.611 49.2167C333.821 50.9882 333.472 52.656 332.947 54.3828C333.198 54.5572 333.489 54.7598 333.78 54.9618C334.845 55.7 335.109 56.4881 334.722 57.7944C334.615 58.1538 334.516 58.5183 334.37 58.862C334.27 59.0956 334.065 59.4918 333.958 59.4757C333.65 59.4292 333.329 59.257 333.084 59.0505C332.632 58.6692 332.231 58.2283 331.776 57.7764ZM331.225 50.7658C331.182 50.6045 331.133 50.4445 331.098 50.2817C330.93 49.5108 330.659 48.7961 330.065 48.2362C329.719 47.9109 329.305 47.721 328.937 48.0699C328.429 48.5519 327.991 49.1126 327.565 49.671C327.307 50.0082 327.439 50.3637 327.738 50.6197C328.092 50.9213 328.469 51.1965 328.849 51.4656C329.577 51.9821 330.315 52.4863 331.228 53.1203C331.228 52.2449 331.228 51.5655 331.225 50.7658Z" fill="white"/>
<path d="M277.335 51.5618C277.5 49.913 278.115 48.4962 279.108 47.2646C279.641 46.6039 280.289 46.0307 280.916 45.4507C282.6 43.8926 284.821 45.1308 285.322 46.7904C285.798 48.3655 286.072 49.9708 285.736 51.6305C285.562 52.491 285.474 53.3689 285.328 54.3708C285.595 54.5987 285.959 54.9665 286.378 55.2555C287.135 55.7781 287.117 56.5426 287.016 57.2867C286.939 57.8585 286.706 58.4132 286.508 58.9628C286.449 59.1254 286.273 59.3545 286.144 59.3586C285.942 59.3652 285.694 59.2515 285.537 59.1098C285.034 58.6546 284.572 58.155 284.079 57.6887C283.781 57.4078 283.543 57.5297 283.396 57.8627C282.2 60.5655 280.056 62.369 277.579 63.8084C275.706 64.8964 273.759 65.8572 271.845 66.8734C271.77 66.9132 271.686 66.9727 271.61 66.968C271.192 66.9422 270.645 67.0491 270.386 66.8277C269.98 66.4795 270.388 65.9903 270.661 65.739C271.363 65.0947 272.134 64.5211 272.903 63.9537C275.083 62.3448 277.319 60.8063 279.446 59.1307C280.411 58.3708 281.169 57.3523 281.975 56.5005C280.609 55.4156 279.352 54.413 278.09 53.4168C277.503 52.9539 277.235 52.3666 277.335 51.5618ZM281.494 47.7728C280.65 48.1791 280.175 48.922 279.853 49.7342C279.707 50.1028 279.822 50.521 280.283 50.8115C281.246 51.4173 282.149 52.1162 283.089 52.7586C283.22 52.8476 283.422 52.8326 283.615 52.8706C283.675 51.5482 283.608 50.3237 283.098 49.1726C282.804 48.5079 282.416 47.8999 281.494 47.7728Z" fill="white"/>
<path d="M91.917 52.4755C92.3369 52.0535 92.6936 51.5444 93.1806 51.3343C96.1279 50.0626 99.1058 48.8609 102.072 47.6324C104.922 46.4521 107.775 45.2799 110.617 44.0813C113.132 43.0205 115.629 41.9187 118.146 40.8612C118.484 40.7193 118.887 40.7311 119.446 40.6421C119.283 41.1188 119.183 41.4427 119.063 41.7593C118.46 43.3515 117.285 44.2449 115.677 44.7974C113.974 45.3825 112.353 46.202 110.69 46.9042C108.544 47.8101 106.39 48.6964 104.243 49.5999C102.211 50.455 100.187 51.3269 98.1548 52.1813C96.2588 52.9785 94.3621 53.7746 92.4535 54.541C92.1118 54.6782 91.7106 54.6684 91.1366 54.7577C91.43 53.9158 91.672 53.2211 91.917 52.4755Z" fill="white"/>
<path d="M229.575 66.656C230.078 66.0681 230.529 65.4968 231.026 64.9677C231.372 64.5986 231.773 64.603 232.141 64.9826C233.262 66.1381 234.428 67.2356 235.848 68.0367C236.18 68.2239 236.313 68.5226 235.995 68.8918C235.06 69.9753 234.149 71.079 233.217 72.1645C232.857 72.5841 232.359 72.7385 231.897 72.4328C231.032 71.8603 230.197 71.2365 229.397 70.5771C229.006 70.2554 228.836 70.051 228.433 70.6224C227.77 71.5611 227.019 72.4612 226.173 73.2346C225.886 73.497 225.053 73.541 224.723 73.3161C223.507 72.4877 222.407 71.4936 221.245 70.585C220.74 70.1901 220.978 69.7218 221.203 69.4172C222.049 68.2716 222.964 67.1761 223.87 66.076C224.27 65.5913 224.862 65.7023 225.288 66.1446C226.027 66.9128 226.837 67.6166 227.652 68.3053C227.751 68.388 228.14 68.2766 228.277 68.1392C228.728 67.685 229.125 67.1775 229.575 66.656Z" fill="white"/>
<path d="M107.958 66.2761C108.442 66.6208 108.89 66.9339 109.381 67.2772C110.046 66.5038 110.688 65.7617 111.324 65.0145C111.656 64.6253 111.957 64.2091 112.306 63.8375C112.732 63.3854 113.161 63.5188 113.628 63.9301C114.746 64.9154 115.91 65.8541 117.108 66.742C117.58 67.0921 117.631 67.3327 117.275 67.7638C116.367 68.8626 115.534 70.0313 114.545 71.0506C114.299 71.3048 113.471 71.2815 113.09 71.0685C112.191 70.5671 111.375 69.9055 110.577 69.246C110.164 68.9043 109.995 69.0975 109.754 69.3989C109.048 70.2795 108.335 71.1544 107.61 72.0201C107.204 72.5051 106.637 72.421 106.197 72.1904C104.82 71.468 103.667 70.4422 102.613 69.3082C102.268 68.9368 102.328 68.3688 102.786 67.8287C103.657 66.8006 104.512 65.7549 105.447 64.7866C105.609 64.6188 106.228 64.6659 106.469 64.8409C107.009 65.2328 107.445 65.7677 107.958 66.2761Z" fill="white"/>
<path d="M72.5219 75.0453C70.5968 75.9048 68.7265 76.7655 66.8475 77.6071C66.5758 77.7288 66.181 77.7185 66.2396 77.3146C66.3622 76.4707 66.4797 75.5936 66.8121 74.8207C67.2168 73.8796 68.2885 73.6801 69.1269 73.2894C70.9715 72.43 72.8604 71.664 74.7361 70.8715C78.1774 69.4177 81.6263 67.9816 85.0626 66.5161C85.8341 66.187 86.5664 65.7666 87.3173 65.3894C87.4483 65.3236 87.5776 65.2231 87.7151 65.2086C87.9815 65.1806 88.2532 65.2023 88.5226 65.2033C88.519 65.4168 88.5557 65.6403 88.505 65.8421C88.2373 66.9086 88.016 68.0506 87.0431 68.7073C86.2323 69.2545 85.3061 69.6446 84.4032 70.0415C82.6742 70.8016 80.9252 71.5168 79.1847 72.251C76.981 73.1806 74.7775 74.1106 72.5219 75.0453Z" fill="white"/>
<path d="M296.505 49.5043C296.211 49.8309 295.98 50.1593 295.679 50.4009C295.455 50.5805 295.14 50.6475 294.866 50.7646C294.796 50.4921 294.589 50.1585 294.679 49.9565C295.525 48.0619 296.516 46.2705 298.557 45.3692C300.492 44.5149 302.43 44.6583 304.394 45.2862C305.752 45.7204 307.132 46.0929 308.512 46.4562C309.43 46.6982 309.568 46.8126 309.319 47.6783C308.983 48.8484 308.565 49.9137 307.313 50.5474C306.043 51.1894 304.985 52.2583 303.702 52.8567C302.307 53.5065 300.763 53.841 299.277 54.2879C298.836 54.4204 298.371 54.5235 297.914 54.5334C297.661 54.539 297.183 54.3163 297.187 54.2114C297.199 53.9078 297.323 53.507 297.549 53.3335C298.113 52.9016 298.745 52.5509 299.372 52.2098C301.091 51.2761 302.822 50.3646 304.546 49.4417C304.62 49.4019 304.681 49.3361 304.933 49.1334C303.577 48.7788 302.399 48.393 301.191 48.1735C299.457 47.8585 297.892 48.3368 296.505 49.5043Z" fill="white"/>
<path d="M230.026 42.4707C230.292 42.0067 230.518 41.5786 230.78 41.1732C230.868 41.0372 231.049 40.8729 231.182 40.8782C231.316 40.8836 231.517 41.0596 231.561 41.2004C232.351 43.7423 232.46 46.2193 230.864 48.5486C230.35 49.2997 229.548 49.5186 228.775 49.7018C227.536 49.9956 226.324 49.8709 225.333 48.9346C225.01 48.6304 224.913 48.911 224.774 49.1207C223.984 50.3162 223.059 51.2757 221.538 51.5841C218.749 52.1501 217.625 50.3486 217.85 48.0439C217.963 46.8887 218.55 45.781 218.906 44.6468C219.046 44.1999 219.408 44.158 219.72 44.2786C219.851 44.3291 219.919 44.7422 219.885 44.9711C219.799 45.5494 219.574 46.1109 219.52 46.6898C219.393 48.0712 220.527 48.6557 221.669 48.3835C223.51 47.9447 224.252 46.8286 224.601 44.8534C224.811 43.6688 225.297 42.9374 226.39 42.6875C226.456 43.445 226.474 44.2074 226.599 44.9517C226.816 46.2364 227.877 47.059 229.187 46.3426C230.266 45.7523 230.357 45.8048 229.898 44.2126C229.726 43.6134 229.648 43.063 230.026 42.4707Z" fill="white"/>
<path d="M133.751 47.8988C137.456 46.3506 141.111 44.8103 144.762 43.2622C145.918 42.7721 147.062 42.2548 148.219 41.7668C148.369 41.7039 148.649 41.6727 148.713 41.7519C148.807 41.8668 148.803 42.1056 148.765 42.2741C148.327 44.1757 147.249 45.4279 145.343 46.1413C142.832 47.0809 140.419 48.2792 137.948 49.3277C135.824 50.2288 133.673 51.0661 131.543 51.9511C130.556 52.3609 129.592 52.8247 128.61 53.2451C128.431 53.3217 128.113 53.3985 128.034 53.3139C127.9 53.1692 127.827 52.8831 127.864 52.6809C127.973 52.0836 128.046 51.4435 128.328 50.9247C128.58 50.4597 129.026 50.0055 129.498 49.77C130.868 49.0877 132.295 48.5177 133.751 47.8988Z" fill="white"/>
<path d="M169.692 44.7688C172.223 43.6781 174.7 42.5852 177.183 41.5049C177.681 41.2883 178.206 41.1337 178.707 40.9246C179.154 40.7382 179.26 40.9511 179.25 41.3344C179.247 41.4633 179.269 41.6115 179.214 41.7176C178.749 42.62 178.369 43.6183 177.495 44.1991C176.752 44.6928 175.908 45.0476 175.085 45.4087C173.279 46.2005 171.458 46.957 169.644 47.7285C166.536 49.0499 163.43 50.3749 160.319 51.69C159.865 51.8823 159.39 52.0286 158.739 52.2633C158.832 51.8048 158.864 51.5693 158.929 51.343C159.101 50.7415 159.147 50.0361 159.506 49.574C159.896 49.072 160.542 48.7098 161.146 48.4405C163.137 47.5523 165.163 46.74 167.169 45.8852C168 45.5312 168.817 45.1434 169.692 44.7688Z" fill="white"/>
<path d="M218.817 35.4615C220.333 34.8272 221.812 34.234 223.284 33.6236C225.435 32.7321 227.579 31.8266 229.727 30.9302C230.81 30.4782 231.891 30.0192 232.986 29.5973C233.195 29.5168 233.465 29.5956 233.708 29.6008C233.694 29.8379 233.753 30.112 233.654 30.3061C233.081 31.4286 232.585 32.6188 231.286 33.156C229.639 33.8369 228.005 34.5513 226.358 35.2321C224.324 36.0729 222.283 36.898 220.242 37.7224C218.493 38.429 216.741 39.1293 214.985 39.8176C214.837 39.8757 214.644 39.8218 214.473 39.8199C214.489 39.6452 214.487 39.4661 214.527 39.2968C214.604 38.9723 214.725 38.6575 214.792 38.3315C215.052 37.0761 216.004 36.5642 217.082 36.169C217.653 35.9599 218.213 35.7205 218.817 35.4615Z" fill="white"/>
<path d="M199.876 101.447C198.324 102.107 196.817 102.746 195.3 103.36C192.462 104.51 189.619 105.648 186.774 106.78C186.564 106.863 186.314 106.889 186.088 106.873C185.991 106.867 185.825 106.685 185.827 106.585C185.843 105.423 187.054 103.918 188.167 103.49C190.066 102.762 191.943 101.975 193.824 101.199C196.171 100.232 198.51 99.2461 200.857 98.2786C201.767 97.9032 202.69 97.5559 203.607 97.1958C203.685 97.1651 203.768 97.1007 203.841 97.1101C204.108 97.1442 204.372 97.203 204.637 97.2526C204.572 97.482 204.531 97.7214 204.439 97.9393C203.803 99.4369 202.775 100.496 201.135 100.902C200.713 101.007 200.322 101.24 199.876 101.447Z" fill="white"/>
<path d="M306.871 66.073C306.094 66.8036 305.4 67.568 304.582 68.165C304.275 68.3884 303.509 68.4216 303.25 68.1987C302.125 67.23 301.072 66.1682 300.088 65.0564C299.902 64.8464 299.998 64.1171 300.227 63.8646C301.068 62.939 302.056 62.1475 302.918 61.2387C303.527 60.596 303.868 60.7836 304.35 61.2833C304.934 61.8884 305.487 62.5227 306.078 63.1209C306.408 63.4552 306.768 63.7671 307.147 64.0452C308.096 64.7422 308.115 64.8344 307.321 65.6258C307.182 65.764 307.043 65.9021 306.871 66.073Z" fill="white"/>
<path d="M226.428 63.3364C225.544 62.543 224.656 61.8209 223.873 60.9985C223.695 60.811 223.742 60.1694 223.93 59.9201C224.765 58.8154 225.671 57.762 226.589 56.7233C226.928 56.3389 227.326 56.4294 227.712 56.7745C228.686 57.6454 229.65 58.5353 230.686 59.3287C231.758 60.1489 231.792 60.102 230.914 61.1458C230.255 61.9297 229.601 62.7185 228.941 63.5017C228.431 64.1063 227.904 64.2024 227.226 63.8195C226.969 63.6743 226.717 63.521 226.428 63.3364Z" fill="white"/>
<path d="M105.052 59.5726C105.015 58.6949 105.727 58.2948 106.132 57.7247C106.659 56.9819 107.28 56.3047 107.858 55.5979C108.098 55.3053 108.812 55.1924 109.01 55.4655C109.929 56.7382 111.183 57.6123 112.508 58.3921C113.023 58.6948 113.049 58.9829 112.69 59.4053C111.809 60.4437 110.959 61.5104 110.049 62.5227C109.673 62.9409 109.168 63.0609 108.646 62.6555C107.726 61.9412 106.78 61.2595 105.873 60.5299C105.562 60.2796 105.335 59.9266 105.052 59.5726Z" fill="white"/>
<path d="M184.401 49.9574C184.87 50.3295 185.278 50.7144 185.748 50.9957C186.168 51.2469 186.195 51.4894 185.888 51.7993C184.894 52.8036 183.898 53.8075 182.879 54.787C182.367 55.279 181.754 55.2141 181.031 54.5468C180.149 53.7325 179.308 52.8723 178.475 52.0074C178.056 51.5719 178.093 50.9419 178.505 50.5297C179.413 49.6225 180.322 48.7169 181.234 47.8138C181.729 47.3235 182.106 47.3926 182.541 47.9196C183.116 48.6159 183.756 49.2591 184.401 49.9574Z" fill="white"/>
<path d="M346.799 93.2854C347.186 92.8992 347.569 92.569 347.887 92.1859C348.255 91.7431 348.586 91.8654 348.906 92.1907C349.281 92.5732 349.597 93.015 349.987 93.3816C350.724 94.0765 351.483 94.75 352.257 95.404C352.602 95.695 352.73 95.9002 352.335 96.2718C351.449 97.107 350.525 97.9233 349.768 98.8678C349.343 99.399 348.91 99.563 348.355 99.4306C347.991 99.3437 347.621 99.1055 347.35 98.8385C346.453 97.9542 345.569 97.0508 344.757 96.0899C344.625 95.9333 344.785 95.3647 344.983 95.1311C345.528 94.4858 346.166 93.917 346.799 93.2854Z" fill="white"/>
</svg>
