<svg width="429" height="142" viewBox="0 0 429 142" fill="none" xmlns="http://www.w3.org/2000/svg">
<path d="M374.623 77.0013C376.326 77.1766 377.967 77.3748 379.613 77.5141C380.693 77.6055 381.781 77.605 382.866 77.6591C383.424 77.687 383.984 77.7201 384.537 77.7951C385.092 77.8703 385.328 78.2613 385.098 78.7896C384.462 80.2498 383.795 81.6968 383.116 83.1379C383.057 83.2635 382.803 83.3986 382.669 83.3737C381.611 83.1765 380.561 82.9328 379.505 82.722C379.004 82.6221 378.493 82.4854 377.99 82.499C376.018 82.5526 374.034 82.5528 372.08 82.7811C370.578 82.9566 369.083 83.3515 367.638 83.8119C364.412 84.8393 361.16 85.8252 358.031 87.0983C355.112 88.2859 352.137 89.2359 349.088 89.9708C347.645 90.3186 346.159 90.5225 344.681 90.6934C343.013 90.8864 341.333 91.0001 339.655 91.0905C338.069 91.1759 336.474 91.287 334.891 91.2082C331.863 91.0574 328.86 90.6478 325.947 89.7744C325.025 89.4979 324.148 89.0567 323.278 88.6335C322.841 88.4204 322.612 88.4782 322.442 88.921C321.256 92.014 319.694 94.9143 317.799 97.6303C315.805 100.488 313.133 102.518 309.682 103.166C307.884 103.503 305.97 103.279 304.11 103.228C302.029 103.172 300.062 102.561 298.145 101.798C295.985 100.938 293.9 99.9266 291.971 98.6258C291.755 98.4796 291.501 97.9686 291.551 97.9204C291.84 97.6425 292.22 97.2641 292.559 97.273C293.264 97.2916 293.995 97.4482 294.658 97.697C296.314 98.3178 298.004 98.7594 299.764 98.9275C300.836 99.0299 301.914 99.2088 302.983 99.1695C305.224 99.087 307.482 98.8722 309.582 98.0795C310.806 97.6179 311.934 96.8284 312.996 96.0411C314.842 94.6728 316.311 92.9221 317.549 91.0047C318.333 89.7888 318.972 88.4804 319.689 87.2207C319.963 86.7395 319.505 86.6251 319.291 86.4103C318.679 85.794 317.974 85.2574 317.43 84.5887C316.454 83.3869 316.302 81.9378 316.661 80.501C316.974 79.2516 317.505 78.056 317.944 76.8381C317.986 76.72 318.032 76.5768 318.123 76.5072C318.386 76.3082 318.673 76.1409 318.95 75.9612C319.095 76.2397 319.321 76.5045 319.371 76.7989C319.668 78.5576 320.636 79.8812 322.038 80.9177C324.449 82.7008 327.213 83.7158 330.094 84.4298C331.451 84.766 332.831 85.0858 334.219 85.2005C336.873 85.4199 339.541 85.5998 342.201 85.5788C344.031 85.5644 345.88 85.2949 347.681 84.9406C350.249 84.4352 352.804 83.8285 355.322 83.1161C358.055 82.3428 360.74 81.4025 363.443 80.5253C363.878 80.3839 364.297 80.1917 364.92 79.9453C363.94 79.57 363.167 79.2073 362.356 78.9771C360.753 78.5226 359.144 78.0754 357.512 77.7471C355.574 77.357 353.615 77.0477 351.62 77.3865C351.279 77.4444 350.916 77.3581 350.571 77.4015C348.813 77.6225 347.058 77.8641 345.302 78.0988C345.111 78.1242 344.921 78.1772 344.731 78.1736C344.152 78.1623 343.936 77.8489 344.224 77.3426C344.742 76.4296 345.317 75.5482 345.869 74.6541C346.013 74.4215 346.186 74.2032 346.301 73.9576C346.988 72.4891 348.414 72.292 349.753 72.0647C351.523 71.7643 353.314 71.5643 355.103 71.4033C357.125 71.2213 359.156 71.134 361.182 70.9955C361.432 70.9784 361.678 70.8999 362.052 70.8243C361.924 69.5472 361.827 68.2708 361.661 67.0035C361.492 65.7248 361.258 64.4546 361.048 63.1813C360.822 61.8043 360.597 60.427 360.361 59.0516C360.115 57.6154 359.859 56.1807 359.602 54.7464C359.352 53.3544 359.072 51.9672 358.847 50.5713C358.672 49.4808 358.527 48.383 358.428 47.2832C358.271 45.5449 357.839 43.8755 357.045 42.333C356.528 41.3293 356.51 40.5832 357.269 39.6421C357.953 38.7951 358.31 37.6874 358.809 36.6934C358.826 36.6578 358.796 36.5905 358.819 36.5666C359.116 36.2531 359.418 35.9447 359.72 35.635C359.957 35.9274 360.301 36.1843 360.413 36.5181C361.137 38.6653 362.356 40.5179 363.737 42.2886C364.36 43.0867 364.14 43.9297 363.141 44.9793C362.727 45.4142 362.131 45.8402 362.018 46.3565C361.861 47.0748 362.054 47.8773 362.145 48.6381C362.284 49.7961 362.463 50.9493 362.626 52.1044C362.786 53.2385 362.952 54.3717 363.107 55.5065C363.259 56.6217 363.395 57.7391 363.548 58.8542C363.706 60.0094 363.882 61.1624 364.041 62.3176C364.189 63.3908 364.347 64.4632 364.46 65.5402C364.575 66.6468 364.736 67.7611 364.707 68.8675C364.663 70.5003 364.405 72.1123 363.273 73.4233C362.925 73.8268 363.31 73.8926 363.528 73.9949C365.519 74.9295 367.592 75.6372 369.746 76.0805C371.266 76.3932 372.804 76.6138 374.333 76.8809C374.414 76.895 374.486 76.9586 374.623 77.0013Z" fill="white"/>
<path d="M116.083 74.9875C115.69 73.8461 115.438 72.7324 115.531 71.5672C115.852 67.5256 116.856 63.7419 120.011 60.9002C121.69 59.3876 123.61 58.2735 125.937 57.9287C127.875 57.6417 129.692 58.0384 131.418 58.7632C132.826 59.3547 134.135 60.1948 135.442 60.9976C135.815 61.2262 136.078 61.6823 136.303 62.0832C136.585 62.5874 136.322 63.0488 135.752 63.019C135.258 62.9932 134.738 62.8739 134.292 62.6651C133.209 62.158 132.139 61.5815 130.899 61.7475C129.744 61.902 128.573 62.0689 127.467 62.415C125.824 62.9293 124.191 63.517 122.63 64.2356C120.488 65.2211 119.434 67.0714 119.094 69.3212C118.92 70.47 119.617 71.3747 120.328 72.1433C121.941 73.888 123.955 74.8996 126.335 75.3319C129.492 75.9056 132.358 75.0343 135.173 73.8422C136.939 73.0943 138.658 72.2335 140.377 71.3813C141.188 70.9793 141.942 70.4651 142.735 70.0263C143.455 69.6281 143.688 69.7544 143.646 70.545C143.621 71.0028 143.511 71.4626 143.388 71.9073C143.148 72.7722 142.833 73.6179 142.626 74.4896C142.507 74.9898 142.231 75.2097 141.788 75.4106C140.002 76.2209 138.24 77.0829 136.463 77.9125C133.369 79.3565 130.274 80.799 127.173 82.2266C124.631 83.3965 122.105 84.597 119.403 85.3919C117.228 86.0317 115.013 86.2831 112.772 86.1179C110.986 85.9863 109.397 85.2213 107.955 84.1713C107.805 84.0627 107.63 83.9899 107.591 83.9688C106.899 85.4064 106.291 86.856 105.519 88.2144C104.916 89.2765 103.857 89.6972 102.619 89.8097C100.244 90.0258 98.4142 88.9748 96.7281 87.5056C96.5721 87.3697 96.3813 87.2732 96.2819 87.2079C95.4642 87.8235 94.7554 88.5063 93.9194 88.9561C92.0035 89.9869 89.9581 89.8326 87.9213 89.3305C85.5869 88.7551 83.5296 87.6185 81.6192 86.1983C81.2088 85.8932 80.8717 85.8649 80.3542 86.1047C78.7534 86.8467 77.1096 87.5016 75.4616 88.1369C74.5597 88.4847 73.622 88.7477 72.6879 89.0036C72.2588 89.1212 72.1069 89.3744 72.0191 89.7688C71.8233 90.6478 71.6446 91.5363 71.3621 92.3893C70.6453 94.5536 69.984 96.746 69.0953 98.8413C68.2371 100.865 67.2827 102.884 66.0829 104.719C64.302 107.444 61.6735 109.131 58.5106 110.044C56.3405 110.671 54.1306 110.661 51.9467 110.509C48.6142 110.277 45.3979 109.417 42.3339 108.064C41.1035 107.52 39.89 106.939 38.6712 106.369C38.5579 106.317 38.431 106.248 38.3641 106.15C38.1797 105.881 37.8266 105.412 37.8912 105.342C38.1572 105.055 38.5622 104.697 38.8999 104.713C39.5802 104.744 40.2509 104.998 40.924 105.166C42.5194 105.566 44.0969 106.069 45.714 106.339C47.1122 106.573 48.554 106.588 49.9784 106.62C51.9164 106.662 53.7855 106.203 55.6439 105.71C57.1536 105.31 58.5273 104.581 59.7583 103.684C61.2993 102.562 62.6714 101.239 63.7904 99.649C65.214 97.6266 66.4983 95.532 67.6053 93.3291C68.0661 92.4121 68.4479 91.4559 68.9128 90.4115C68.5977 90.4671 68.3794 90.493 68.1677 90.5452C67.3491 90.747 66.9484 90.6199 66.5019 89.8525C65.846 88.725 65.3261 87.5368 65.192 86.2186C65.1486 85.7919 65.2968 85.4934 65.7399 85.3512C67.2015 84.8825 68.6644 84.4168 70.1155 83.9176C72.1637 83.213 74.22 82.5259 76.239 81.7449C78.1586 81.0023 80.0348 80.1489 81.9296 79.3429C82.0068 79.3101 82.0743 79.244 82.1535 79.2279C83.1132 79.033 83.4719 79.3162 83.4544 80.3026C83.4431 80.9447 83.3893 81.5875 83.323 82.2268C83.2824 82.6183 83.421 82.8011 83.8102 82.8838C85.3818 83.2177 86.9367 83.6503 88.5216 83.894C89.5046 84.0451 90.5346 83.9787 91.5361 83.9076C92.7806 83.8192 93.8065 83.2035 94.7677 82.4314C96.4924 81.0461 97.738 79.3612 98.333 77.2203C98.4104 76.9419 98.5319 76.6362 98.7309 76.442C98.9191 76.2582 99.2513 76.0977 99.4912 76.1313C99.6505 76.1536 99.8957 76.5546 99.8676 76.7532C99.6785 78.089 99.4425 79.419 99.1871 80.7443C99.0854 81.2715 98.8955 81.7818 98.7273 82.3638C100.263 83.0416 101.766 83.8103 103.494 83.9185C104.836 84.0026 105.429 83.2596 105.775 82.2796C106.323 80.7228 106.676 79.0986 107.122 77.5056C107.223 77.1448 107.293 76.7442 107.506 76.455C107.707 76.1828 108.056 75.9149 108.377 75.8612C108.738 75.8007 108.94 76.142 108.969 76.527C108.992 76.8196 109.165 77.1602 109.064 77.3915C108.761 78.0928 109.121 78.5278 109.555 78.9656C110.432 79.8515 111.583 80.1828 112.749 80.3815C114.99 80.7632 117.178 80.3638 119.333 79.7476C119.495 79.7013 119.654 79.6438 119.905 79.5618C118.283 78.306 117.012 76.8173 116.083 74.9875Z" fill="white"/>
<path d="M242.065 84.4061C242.602 84.0978 243.148 83.8823 243.588 83.5335C244.933 82.4665 246.327 82.6595 247.788 83.2223C249.513 83.8872 251.252 84.5166 252.993 85.141C253.328 85.2612 253.695 85.3262 254.052 85.3491C255.032 85.4121 255.337 85.1817 255.639 84.2518C256.049 82.9931 255.922 81.7185 255.73 80.4518C255.508 78.99 255.233 77.5362 254.982 76.0788C254.687 74.3711 254.392 72.6636 254.101 70.9554C253.866 69.5801 253.636 68.2041 253.405 66.8282C253.173 65.4522 252.947 64.0754 252.713 62.6998C252.465 61.2416 252.211 59.7843 251.958 58.3269C251.59 56.2041 251.209 54.0833 250.854 51.9584C250.634 50.6434 250.383 49.3281 250.267 48.0025C250.125 46.3774 249.722 44.8629 248.873 43.458C248.008 42.0258 248.354 40.3991 249.403 39.2431C249.961 38.6281 250.314 37.8337 250.792 37.1418C250.98 36.8691 251.255 36.6551 251.49 36.4144C251.733 36.6878 252.041 36.9277 252.207 37.2415C252.558 37.9037 252.787 38.6307 253.153 39.2837C253.747 40.3468 254.373 41.3977 255.057 42.4054C255.674 43.3128 255.648 44.1801 255.101 45.0666C254.801 45.5514 254.473 46.0239 254.114 46.4658C253.284 47.4845 253.49 48.6307 253.683 49.7634C253.96 51.3852 254.285 52.9988 254.587 54.6164C254.978 56.7114 255.374 58.8054 255.751 60.9029C256.077 62.7121 256.367 64.5276 256.693 66.3367C257.026 68.1844 257.404 70.0243 257.723 71.8743C257.979 73.3558 258.241 74.8413 258.38 76.336C258.512 77.7528 258.623 79.1957 258.5 80.6059C258.29 82.9991 257.633 85.3101 256.773 87.5616C256.321 88.7456 255.535 89.6444 254.483 90.3057C253.222 91.0979 251.84 90.9863 250.54 90.502C249.048 89.9457 247.604 89.2462 246.179 88.5314C245.431 88.1562 244.774 88.1693 244.068 88.5517C242.956 89.1542 241.82 89.7144 240.723 90.3416C238.071 91.8568 235.295 93.0707 232.295 93.693C230.96 93.9699 229.587 94.0723 228.229 94.2267C227.245 94.3385 226.252 94.5143 225.272 94.4674C223.756 94.3949 222.241 94.2027 220.738 93.9773C218.833 93.6917 217.229 92.7623 215.996 91.3204C214.278 89.3113 213.021 87.0444 212.526 84.4119C212.234 82.8581 211.884 81.3142 211.625 79.7553C211.468 78.8094 211.444 77.8423 211.343 76.8865C211.178 75.3191 210.992 73.7538 210.826 72.1864C210.725 71.2305 210.661 70.2707 210.554 69.3155C210.393 67.8784 210.206 66.4441 210.037 65.008C209.899 63.845 209.78 62.6798 209.634 61.5179C209.472 60.2336 209.294 58.9512 209.113 57.6694C208.944 56.4733 208.776 55.2767 208.582 54.0844C208.378 52.8343 208.082 51.5958 207.943 50.3395C207.84 49.4164 207.846 48.4643 207.947 47.5405C208.091 46.2198 208.359 44.9118 208.591 43.6015C208.642 43.3174 208.729 43.0268 208.864 42.7733C209.126 42.283 209.613 42.2754 209.805 42.7999C210.078 43.5429 210.27 44.3231 210.416 45.1022C210.668 46.4537 210.876 47.8142 211.071 49.1754C211.23 50.2912 211.323 51.4163 211.482 52.5321C211.676 53.8941 211.922 55.2487 212.12 56.6101C212.276 57.6827 212.383 58.7623 212.531 59.8361C212.736 61.3272 212.969 62.8145 213.172 64.3059C213.323 65.4228 213.434 66.5452 213.583 67.6625C213.734 68.7969 213.92 69.9269 214.073 71.0611C214.227 72.1988 214.393 73.3363 214.493 74.4792C214.698 76.8433 214.906 79.2035 215.681 81.4709C216.205 83.0021 216.818 84.5128 218.096 85.5697C219.596 86.8104 221.227 87.8712 223.21 88.2347C223.855 88.353 224.495 88.593 225.14 88.5992C226.793 88.615 228.468 88.6803 230.095 88.4471C231.927 88.1842 233.753 87.7305 235.513 87.1508C237.485 86.5008 239.381 85.6203 241.307 84.8308C241.558 84.7278 241.787 84.5703 242.065 84.4061Z" fill="white"/>
<path d="M168.495 96.7114C167.334 96.7114 166.237 96.7591 165.145 96.7028C161.358 96.5077 157.676 95.8996 154.292 94.0394C151.37 92.4337 149.391 90.1152 148.563 86.8816C148.053 84.8915 148.31 82.9203 148.82 80.973C149.275 79.2371 149.977 77.6033 151.015 76.1238C151.112 75.9854 151.193 75.7932 151.33 75.734C151.6 75.6165 151.903 75.5743 152.193 75.5009C152.183 75.816 152.29 76.2041 152.144 76.434C151.272 77.8062 151.015 79.2499 151.257 80.858C151.468 82.2502 151.827 83.5454 152.557 84.7683C153.603 86.5195 155.101 87.7863 156.775 88.8701C158.722 90.1301 160.926 90.8132 163.192 91.0569C165.691 91.3257 168.23 91.4163 170.742 91.3259C174.3 91.1979 177.824 90.6781 181.179 89.3962C184.027 88.3077 186.829 87.0811 189.161 85.0878C190.679 83.7905 192.127 82.3759 193.157 80.6262C193.409 80.1985 193.679 79.8568 194.22 80.0472C194.604 80.1824 194.952 81.0306 194.833 81.4539C194.474 82.7388 194.105 84.0213 193.741 85.3006C194.43 85.3563 195.236 85.4377 196.045 85.4831C197.106 85.5428 198.169 85.5898 199.232 85.6131C200.213 85.6346 200.734 85.1878 200.68 84.2008C200.606 82.844 200.428 81.4898 200.234 80.1431C200.032 78.743 199.756 77.3536 199.517 75.9586C199.282 74.5836 199.06 73.2065 198.822 71.832C198.533 70.168 198.24 68.5046 197.937 66.843C197.608 65.0377 197.255 63.2367 196.931 61.4304C196.64 59.8082 196.382 58.1802 196.097 56.557C195.874 55.2897 195.615 54.0285 195.401 52.7598C195.218 51.6738 195.057 50.5832 194.921 49.4904C194.752 48.1286 194.548 46.8057 193.766 45.601C192.733 44.0089 192.807 42.4051 194.025 40.9892C194.626 40.2914 195.042 39.4405 195.579 38.6851C195.747 38.4495 196.051 38.1379 196.267 38.1556C196.489 38.1737 196.785 38.5201 196.869 38.78C197.461 40.6047 198.558 42.1455 199.579 43.7349C199.88 44.2037 200.151 44.7293 200.266 45.2648C200.341 45.6121 200.181 46.0627 199.999 46.3993C199.67 47.0086 199.291 47.6047 198.85 48.1389C198.088 49.0622 198.151 50.0564 198.37 51.1333C198.786 53.1797 199.13 55.2406 199.52 57.2925C199.807 58.8035 200.132 60.3073 200.418 61.8186C200.744 63.5397 201.04 65.2664 201.358 66.9891C201.737 69.0425 202.167 71.0874 202.498 73.1482C202.864 75.4293 203.217 77.7172 203.435 80.0153C203.599 81.7438 203.062 83.4209 202.603 85.0706C202.165 86.6397 201.607 88.1765 201.071 89.7171C200.754 90.6278 200.207 90.9967 199.223 90.9633C196.507 90.8711 193.945 90.2109 191.557 88.8977C191.409 88.8167 191.086 88.8937 190.93 89.0102C189.788 89.8648 188.714 90.8155 187.532 91.6087C185.075 93.257 182.305 94.2274 179.47 95.0034C177.983 95.4104 176.477 95.7742 174.959 96.0356C173.442 96.2966 171.9 96.4123 170.367 96.5775C169.767 96.6421 169.162 96.6679 168.495 96.7114Z" fill="white"/>
<path d="M298.1 76.5371C297.323 76.8774 297.12 76.7828 296.642 76.1371C296.16 75.4873 295.691 74.7867 295.07 74.2903C294.321 73.693 293.408 73.7075 292.583 74.2663C291.968 74.6826 291.38 75.1388 290.782 75.5788C290.337 75.906 290.371 76.3376 290.647 76.7059C291.797 78.2407 293.244 79.4102 295.149 79.8579C296.139 80.0906 297.172 80.1454 298.188 80.2645C300.064 80.4844 301.849 79.9028 303.672 79.6503C303.969 79.6092 304.277 79.6445 304.623 79.6445C304.833 80.3494 304.261 80.7996 303.989 81.3248C303.613 82.0507 303.126 82.7196 302.691 83.4159C302.47 83.7702 302.181 83.9056 301.74 83.9413C300.938 84.0063 300.131 84.1347 299.354 84.3417C295.658 85.3268 292.105 86.6871 288.716 88.4592C288.044 88.8108 287.389 89.1965 286.706 89.5271C286.535 89.61 286.249 89.6087 286.091 89.5181C285.979 89.4543 285.908 89.1438 285.963 88.9956C286.287 88.113 286.64 87.2397 287.015 86.377C287.114 86.1505 287.287 85.9102 287.493 85.7832C288.458 85.1868 289.448 84.628 290.428 84.055C290.534 83.9928 290.637 83.9248 290.875 83.7765C290.395 83.4777 289.992 83.2339 289.596 82.978C288.692 82.3928 287.782 81.815 286.891 81.2098C285.691 80.3949 285.765 78.2425 286.332 77.4104C288.231 74.6249 290.515 72.1883 293.347 70.3165C294.633 69.4666 296.088 68.907 297.638 69.4588C298.918 69.9147 299.896 70.8285 300.343 72.151C300.459 72.4923 300.424 72.9694 300.272 73.2992C299.73 74.4711 299.141 75.6277 298.1 76.5371Z" fill="white"/>
<path d="M268.221 81.6234C267.993 80.0559 267.822 78.5362 267.592 77.0254C267.322 75.2499 266.999 73.4824 266.701 71.7109C266.429 70.0852 266.174 68.4565 265.886 66.8335C265.603 65.2346 265.272 63.644 264.993 62.0446C264.745 60.6277 264.546 59.2024 264.311 57.783C264.022 56.032 263.711 54.2847 263.424 52.5332C263.226 51.3211 263.02 50.1086 262.878 48.8894C262.709 47.4477 262.478 45.9962 262.506 44.5533C262.54 42.8082 262.699 41.0408 263.535 39.4398C263.652 39.2153 263.932 39.0743 264.136 38.8947C264.328 39.11 264.636 39.2999 264.69 39.5453C264.913 40.5525 265.072 41.5747 265.23 42.5952C265.434 43.9144 265.603 45.2389 265.807 46.5582C265.997 47.7907 266.211 49.0196 266.417 50.2497C266.646 51.6254 266.875 53.0012 267.111 54.3758C267.357 55.8117 267.605 57.2474 267.864 58.6812C268.189 60.4873 268.536 62.2897 268.855 64.097C269.108 65.5333 269.334 66.9745 269.57 68.4137C269.78 69.6863 269.993 70.9584 270.194 72.2324C270.304 72.9237 270.411 73.6163 270.485 74.3119C270.672 76.0721 270.9 77.8311 271.001 79.5969C271.113 81.5828 271.108 83.5755 271.147 85.5654C271.179 87.2354 271.044 88.8896 270.617 90.5108C270.564 90.7108 270.488 90.9338 270.35 91.0742C270.209 91.2161 269.978 91.3373 269.785 91.3389C269.625 91.3403 269.37 91.1875 269.32 91.046C269.146 90.5563 268.978 90.0485 268.925 89.5356C268.722 87.5592 268.562 85.5785 268.391 83.599C268.336 82.9584 268.297 82.3164 268.221 81.6234Z" fill="white"/>
<path d="M388.516 80.3082C388.428 79.5938 388.321 78.943 388.26 78.288C388.156 77.1588 388.107 76.0242 387.986 74.897C387.841 73.546 387.634 72.2017 387.473 70.8522C387.327 69.626 387.22 68.395 387.069 67.1693C386.866 65.5264 386.62 63.8887 386.424 62.245C386.266 60.9112 386.164 59.5709 386.019 58.2353C385.856 56.7336 385.651 55.2362 385.506 53.7329C385.418 52.8129 385.457 51.8799 385.353 50.9625C385.197 49.5927 385.378 48.2603 385.779 46.9694C386.024 46.179 386.448 45.4393 386.84 44.7017C386.908 44.5733 387.244 44.4776 387.4 44.5305C387.582 44.5922 387.793 44.8139 387.834 45.0002C387.969 45.6187 388.064 46.2498 388.117 46.8809C388.227 48.1837 388.258 49.4941 388.398 50.7932C388.571 52.3956 388.834 53.9881 389.036 55.5877C389.188 56.7915 389.29 58.0017 389.443 59.2055C389.592 60.3826 389.786 61.5541 389.944 62.7301C390.052 63.5312 390.13 64.3364 390.228 65.1389C390.399 66.5305 390.583 67.9205 390.746 69.3129C390.851 70.2026 390.966 71.0937 391.009 71.9874C391.158 75.0853 391.413 78.1867 391.367 81.2828C391.33 83.7064 391.277 86.1775 390.361 88.5025C390.292 88.6771 390.268 88.9165 390.138 89.0101C389.897 89.1849 389.552 89.421 389.325 89.3589C389.096 89.2961 388.947 88.9107 388.789 88.6505C388.741 88.5705 388.784 88.4375 388.781 88.3289C388.738 86.4262 388.701 84.5234 388.646 82.6211C388.625 81.8701 388.562 81.1203 388.516 80.3082Z" fill="white"/>
<path d="M344.19 59.0922C343.02 60.6067 341.507 61.6762 339.936 62.6027C337.799 63.8631 335.555 64.9466 333.333 66.0586C332.998 66.2265 332.525 66.1965 332.129 66.1503C331.755 66.1067 331.726 65.2995 332.123 64.961C333.098 64.1307 334.074 63.295 335.105 62.5364C337.254 60.9556 339.489 59.4863 341.589 57.845C342.688 56.9862 343.575 55.8602 344.521 54.8918C342.996 53.7041 341.577 52.5975 340.156 51.4938C339.252 50.7924 339.277 49.8286 339.508 48.8863C340.099 46.4698 341.369 44.4874 343.356 42.9171C345.389 41.31 347.414 42.642 348.125 44.4215C348.616 45.65 348.928 46.9472 348.804 48.2679C348.683 49.5439 348.412 50.809 348.148 52.0667C348.078 52.3975 347.994 52.5661 348.367 52.7721C348.827 53.0265 349.234 53.3869 349.634 53.7364C350.28 54.3021 350.015 55.0754 349.971 55.7479C349.933 56.3381 349.663 56.9156 349.48 57.4938C349.305 58.0447 348.867 58.1466 348.425 57.7459C347.866 57.2388 347.297 56.7412 346.761 56.2105C346.333 55.7855 346.182 56.062 345.957 56.4221C345.401 57.3142 344.805 58.1817 344.19 59.0922ZM342.122 47.721C342.255 48.0202 342.316 48.3942 342.537 48.6023C342.947 48.9908 343.446 49.2897 343.917 49.6132C344.638 50.1089 345.367 50.5938 346.197 51.153C346.197 50.3724 346.202 49.7479 346.196 49.1235C346.185 48.0132 345.825 47.0181 345.158 46.1332C344.587 45.3755 344.082 45.2302 343.41 45.8432C342.881 46.3251 342.547 47.0167 342.122 47.721Z" fill="white"/>
<path d="M296.755 57.3395C296.146 56.8 295.569 56.2963 294.946 55.7526C294.469 56.4869 294.028 57.1228 293.631 57.7846C292.959 58.9046 292.025 59.7702 291.034 60.6033C288.552 62.69 285.696 64.1642 282.812 65.5879C282.298 65.8417 281.688 65.9174 281.112 66.0256C280.953 66.0555 280.643 65.942 280.608 65.8308C280.535 65.5988 280.497 65.2373 280.628 65.0832C281.109 64.5173 281.608 63.9367 282.204 63.5022C284.308 61.9688 286.456 60.4948 288.586 58.996C290.285 57.8005 291.763 56.3822 293.03 54.6417C292.275 54.0892 291.535 53.5658 290.816 53.0146C290.135 52.4924 289.478 51.9383 288.806 51.4037C287.997 50.7599 287.948 49.8304 288.132 48.9912C288.705 46.3746 290.016 44.2035 292.273 42.6213C293.685 41.6308 295.467 42.3151 296.263 43.6663C297.292 45.4106 297.5 47.2898 297.175 49.2549C297.001 50.3072 296.839 51.3615 296.667 52.4447C297.163 53.0993 298.307 53.294 298.495 54.3781C298.557 54.7341 298.542 55.1206 298.475 55.4769C298.36 56.093 298.208 56.7072 298.005 57.2998C297.921 57.5454 297.627 57.9311 297.497 57.9059C297.236 57.8553 297.021 57.566 296.755 57.3395ZM294.419 47.4409C294.198 46.9937 294.033 46.5072 293.746 46.1074C293.095 45.2007 292.528 45.1912 291.868 45.8224C291.449 46.2238 291.156 46.7569 290.808 47.2322C290.419 47.7641 290.613 48.2152 291.071 48.55C292.093 49.2966 293.138 50.014 294.185 50.7254C294.57 50.9865 294.833 50.8411 294.797 50.3654C294.724 49.4149 294.598 48.4685 294.419 47.4409Z" fill="white"/>
<path d="M95.7343 45.3196C93.4612 46.2848 91.2336 47.2252 89.0041 48.1612C86.9874 49.0078 84.9719 49.8573 82.9498 50.691C81.2595 51.388 79.5647 52.0744 77.8604 52.7365C77.6378 52.8229 77.3471 52.7363 77.0879 52.7299C77.1071 52.4881 77.0921 52.2374 77.1532 52.0065C77.2597 51.6033 77.4559 51.2209 77.5381 50.8144C77.7247 49.8915 78.3812 49.4356 79.1724 49.1075C82.6102 47.6818 86.0522 46.2664 89.4904 44.8417C93.2594 43.2799 97.0272 41.7151 100.793 40.1455C102.617 39.3852 104.43 38.5983 106.262 37.8568C106.523 37.7513 106.861 37.8349 107.164 37.8309C107.144 38.1127 107.195 38.4227 107.094 38.6718C106.448 40.261 105.42 41.4316 103.716 42.0461C101.74 42.7587 99.8305 43.6521 97.8887 44.4589C97.1906 44.749 96.4825 45.0156 95.7343 45.3196Z" fill="white"/>
<path d="M94.0733 64.5064C94.8893 65.2165 95.6723 65.894 96.4928 66.6039C97.5718 65.2988 98.529 64.1373 99.4904 62.9793C100.074 62.2766 100.587 62.4117 101.229 63.0324C102.279 64.0482 103.445 64.9573 104.628 65.8225C105.334 66.3392 105.457 66.439 104.906 67.1239C103.957 68.3037 103.006 69.4882 101.959 70.5789C101.725 70.8234 100.973 70.8804 100.66 70.693C99.6818 70.1063 98.7776 69.3878 97.8905 68.6647C97.5519 68.3887 97.3485 68.2937 97.0476 68.6631C96.2936 69.5886 95.5126 70.4927 94.7658 71.4238C94.4295 71.8431 93.5488 72.1536 93.0921 71.8701C91.6104 70.9505 90.2469 69.8735 89.107 68.5527C88.7549 68.1447 88.9728 67.6497 89.2748 67.2791C90.1782 66.1705 91.0924 65.0694 92.0377 63.996C92.6135 63.3423 92.9203 63.3636 93.5294 63.9677C93.6996 64.1365 93.8699 64.3051 94.0733 64.5064Z" fill="white"/>
<path d="M228.729 72.1427C228.038 71.4558 227.35 70.8287 226.746 70.1303C226.601 69.9619 226.609 69.4617 226.755 69.2773C227.816 67.9383 228.915 66.6273 230.052 65.3521C230.165 65.2255 230.707 65.2925 230.899 65.4504C231.831 66.2167 232.732 67.0225 233.599 67.8603C234.015 68.2625 234.303 68.18 234.616 67.7966C235.493 66.7237 236.377 65.6567 237.238 64.5709C237.602 64.1112 238.232 64.0236 238.609 64.4795C239.656 65.7435 240.969 66.6871 242.313 67.5978C243.033 68.0862 243.067 68.1317 242.534 68.8055C241.636 69.9415 240.739 71.0805 239.78 72.1649C239.381 72.6161 238.752 72.7532 238.217 72.3931C237.285 71.7649 236.376 71.0928 235.516 70.3702C235.14 70.0537 234.926 70.023 234.623 70.395C233.828 71.3707 233.051 72.3631 232.205 73.2934C231.87 73.6617 231.34 73.771 230.857 73.486C230.148 73.0678 229.46 72.6146 228.729 72.1427Z" fill="white"/>
<path d="M176.672 73.876C175.517 73.0739 174.413 72.279 173.261 71.4495C172.732 72.0537 172.123 72.7376 171.528 73.4334C171.211 73.8045 170.938 74.2138 170.609 74.5742C170.047 75.1916 169.395 75.2212 168.667 74.7638C167.377 73.9539 166.245 72.9664 165.217 71.8536C164.824 71.4288 164.851 70.8252 165.239 70.3745C166.089 69.3881 166.934 68.3961 167.74 67.3744C168.267 66.7073 168.981 66.6294 169.533 67.2282C170.199 67.9507 170.994 68.5585 171.749 69.1977C172.357 69.7125 172.496 69.6827 172.996 69.0801C173.87 68.0284 174.761 66.9907 175.625 65.9316C175.991 65.4826 176.434 65.5106 176.757 65.8433C178.002 67.1268 179.35 68.2659 180.888 69.194C181.183 69.3719 181.387 69.7181 181.017 70.1348C180.08 71.1894 179.194 72.2887 178.275 73.3588C177.87 73.8293 177.391 74.1483 176.672 73.876Z" fill="white"/>
<path d="M58.0007 70.7759C60.5212 69.6973 63.0036 68.6583 65.4787 67.6022C67.7986 66.6123 70.1124 65.6081 72.4244 64.6C72.7708 64.4489 73.0893 64.2362 73.4262 64.0625C73.8579 63.8401 74.2337 63.9164 74.1107 64.4551C73.7925 65.8491 73.5029 67.374 72.0883 68.0788C69.6101 69.3134 67.0575 70.4027 64.5212 71.5197C62.5008 72.4094 60.4583 73.2495 58.4257 74.1117C56.258 75.0312 54.0887 75.9471 51.924 76.8734C51.5205 77.0461 51.1415 77.2748 50.7396 77.4518C50.327 77.6337 50.0051 77.5339 50.0879 77.0316C50.2308 76.1644 50.3258 75.2588 50.6633 74.4622C51.0142 73.6339 51.9524 73.3643 52.73 73.0152C54.3215 72.3007 55.9364 71.6374 57.5426 70.9552C57.678 70.8978 57.8204 70.8567 58.0007 70.7759Z" fill="white"/>
<path d="M311.069 50.6024C313.305 49.4077 315.502 48.2452 317.869 46.9932C317.414 46.8153 317.123 46.6869 316.822 46.5856C315.454 46.1258 314.096 45.5602 312.616 45.6912C310.731 45.8581 309.053 46.4814 307.918 48.1148C307.844 48.2206 307.753 48.3538 307.644 48.3873C307.415 48.4574 307.148 48.5359 306.936 48.4761C306.835 48.4478 306.731 48.0826 306.783 47.9173C307.649 45.1343 309.499 42.9028 312.709 42.2777C314.532 41.9227 316.203 42.4149 317.898 42.9608C319.259 43.3991 320.657 43.7226 322.034 44.1162C322.736 44.317 322.844 44.5021 322.577 45.1794C322.249 46.0123 321.871 46.8274 321.474 47.6307C321.387 47.8069 321.137 47.9114 320.951 48.0302C320.562 48.2771 320.106 48.4504 319.783 48.7611C318.094 50.3826 316.006 51.2058 313.8 51.8142C312.946 52.0495 312.102 52.3188 311.24 52.5175C310.706 52.6406 310.147 52.6601 309.619 52.7237C309.343 51.7878 309.765 51.3577 310.378 51.0217C310.6 50.9002 310.814 50.764 311.069 50.6024Z" fill="white"/>
<path d="M223.211 45.3302C223.553 44.6757 223.838 44.0486 224.192 43.4623C224.283 43.3114 224.589 43.2888 224.797 43.2072C224.869 43.3935 225.023 43.5909 224.999 43.764C224.928 44.2799 224.752 44.7815 224.683 45.2974C224.584 46.0323 224.469 46.767 225.085 47.4019C225.567 47.8985 226.154 48.0099 226.739 47.8772C228.962 47.3726 229.525 46.409 230.132 44.2224C230.233 43.8587 230.252 43.4668 230.267 43.0864C230.292 42.4278 230.895 42.2714 231.269 41.926C231.443 41.7652 231.718 41.7114 232.069 41.5544C232.135 41.8748 232.215 42.1395 232.239 42.4091C232.298 43.0898 232.227 43.7999 232.397 44.449C232.755 45.8071 234.301 46.4531 235.628 45.3863C236.247 44.8884 236.457 44.4474 236.084 43.7112C235.497 42.554 235.996 41.6438 236.536 40.6996C236.639 40.5179 236.715 40.3092 236.855 40.1611C237.067 39.9361 237.325 39.7532 237.563 39.5525C237.663 39.5929 237.762 39.6334 237.862 39.6738C238.048 41.0034 238.351 42.3297 238.39 43.6635C238.433 45.1505 237.962 46.5764 237.186 47.8574C236.691 48.6752 235.828 49.0087 234.924 49.2011C233.469 49.5105 232.087 49.4132 230.874 48.4374C230.78 48.3621 230.661 48.3188 230.505 48.2346C229.932 49.5039 229.057 50.4571 227.81 51.0207C226.248 51.7267 224.428 51.5479 223.431 50.4329C222.55 49.4476 222.555 48.2469 222.693 47.0527C222.76 46.4818 223.011 45.9321 223.211 45.3302Z" fill="white"/>
<path d="M124.691 48.1233C122.264 49.1585 119.881 50.167 117.49 51.157C117.244 51.2589 116.942 51.3077 116.684 51.2675C116.554 51.2473 116.356 50.9563 116.376 50.8146C116.451 50.2982 116.639 49.7985 116.723 49.2827C116.947 47.9242 118.02 47.4476 119.101 46.9909C121.155 46.124 123.219 45.2812 125.277 44.4248C127.297 43.5844 129.316 42.7432 131.333 41.8956C133.039 41.1784 134.725 40.4108 136.452 39.7465C137.279 39.4284 137.999 38.7315 138.995 38.9097C139.16 40.1451 138.091 42.3316 136.972 42.8425C134.446 43.9962 131.897 45.1011 129.345 46.1992C127.819 46.856 126.271 47.4624 124.691 48.1233Z" fill="white"/>
<path d="M169.944 44.897C168.055 45.683 166.216 46.4611 164.38 47.2464C162.875 47.8902 161.377 48.5511 159.867 49.1836C159.589 49.3001 159.268 49.3169 158.959 49.3815C158.744 47.1822 159.575 45.929 161.558 45.1429C163.297 44.4536 164.995 43.663 166.716 42.9289C169.075 41.9232 171.447 40.9478 173.797 39.9232C175.761 39.0666 177.697 38.1437 179.66 37.285C180.034 37.1215 180.637 36.9174 180.859 37.087C181.317 37.4357 180.91 37.9415 180.72 38.3586C180.503 38.8339 180.275 39.3043 180.035 39.7683C179.502 40.797 178.454 41.1527 177.503 41.5976C175.981 42.3098 174.424 42.9495 172.883 43.6225C171.919 44.0433 170.958 44.4688 169.944 44.897Z" fill="white"/>
<path d="M212.37 94.188C213.224 94.0574 213.302 94.1532 213.056 94.9144C212.463 96.7517 211.347 98.0118 209.452 98.7184C206.5 99.819 203.626 101.128 200.707 102.318C198.295 103.301 195.863 104.236 193.444 105.201C192.8 105.458 192.177 105.768 191.527 106.006C191.315 106.083 191.046 106.009 190.803 106.004C190.816 105.809 190.802 105.608 190.845 105.42C190.979 104.827 191.019 104.172 191.314 103.666C191.623 103.135 192.105 102.577 192.649 102.332C194.732 101.392 196.869 100.571 198.987 99.7113C201.674 98.6204 204.365 97.5384 207.051 96.4448C208.413 95.8902 209.769 95.3203 211.126 94.7532C211.531 94.5843 211.929 94.4014 212.37 94.188Z" fill="white"/>
<path d="M233.91 28.1563C235.607 27.5671 237.067 26.4506 238.992 26.3088C238.866 27.5629 238.298 28.4911 237.59 29.3245C236.776 30.2825 235.537 30.5558 234.449 31.0494C232.765 31.8128 231.048 32.5038 229.344 33.2214C227.329 34.0695 225.316 34.9215 223.296 35.7558C221.879 36.3409 220.452 36.9027 219.026 37.4651C218.821 37.5459 218.594 37.5719 218.154 37.6764C218.452 36.7325 218.74 35.9756 218.927 35.1951C219.195 34.0765 220.22 33.9357 221.022 33.5781C223.113 32.6469 225.249 31.815 227.361 30.9319C229.533 30.024 231.699 29.1023 233.91 28.1563Z" fill="white"/>
<path d="M320.743 63.2774C320.775 63.5684 320.879 63.9242 320.748 64.0693C319.802 65.1127 318.811 66.1161 317.828 67.1261C317.426 67.539 316.403 67.6773 315.996 67.2915C314.817 66.175 313.662 65.0305 312.561 63.8391C312.434 63.7014 312.611 63.12 312.812 62.8822C313.345 62.2518 313.976 61.7045 314.553 61.1096C315.018 60.63 315.451 60.1197 315.917 59.6408C316.264 59.2839 316.863 59.3118 317.136 59.7139C318.093 61.1258 319.348 62.2343 320.743 63.2774Z" fill="white"/>
<path d="M229.514 59.5646C229.968 58.9242 230.376 58.3133 230.825 57.7345C231.377 57.0246 231.964 56.3415 232.535 55.6468C232.886 55.2203 233.339 55.1945 233.748 55.599C234.949 56.7877 236.101 58.0242 237.682 58.7635C237.977 58.9015 238.155 59.2915 237.787 59.7048C236.893 60.7072 236.047 61.7511 235.194 62.789C234.691 63.4018 233.942 63.6909 233.123 63.1019C231.894 62.2181 230.66 61.3571 229.7 60.1748C229.579 60.0261 229.556 59.7991 229.514 59.5646Z" fill="white"/>
<path d="M95.2625 61.2499C94.0497 60.4355 92.9293 59.5939 92.0537 58.4667C91.7091 58.0231 91.8271 57.6132 92.1289 57.2549C93.0796 56.126 94.0353 54.9991 95.0413 53.9195C95.3242 53.6159 95.7521 53.6814 96.1077 53.9934C97.0411 54.8121 97.9856 55.6188 98.9418 56.4111C99.2318 56.6514 99.5628 56.8503 99.8958 57.0305C100.426 57.3175 100.376 57.7092 100.07 58.0836C99.1802 59.1742 98.2663 60.246 97.3486 61.314C96.9317 61.7992 96.2081 61.8743 95.6698 61.5234C95.5463 61.4429 95.4213 61.3648 95.2625 61.2499Z" fill="white"/>
<path d="M176.004 60.2993C176.574 60.867 175.972 61.1482 175.717 61.4634C174.899 62.4765 174.056 63.4713 173.185 64.4396C172.68 65.0006 172.196 64.9971 171.542 64.6129C170.215 63.8343 169.105 62.8066 168.017 61.739C167.556 61.2873 167.709 60.8597 167.981 60.516C168.88 59.3788 169.838 58.287 170.783 57.186C171.103 56.8139 171.715 56.7563 172.036 57.0953C173.205 58.3299 174.458 59.457 176.004 60.2993Z" fill="white"/>
<path d="M366.072 100.272C365.128 101.21 364.858 101.28 363.827 100.48C363.037 99.8677 362.357 99.1133 361.645 98.4059C361.34 98.1029 360.979 97.7985 360.824 97.4215C360.695 97.11 360.682 96.5633 360.875 96.3411C361.812 95.2628 362.83 94.2541 363.83 93.2304C364.298 92.7508 364.877 92.8417 365.33 93.3135C366.409 94.4364 367.512 95.5395 368.653 96.5991C369.081 96.996 369.042 97.3036 368.7 97.6509C367.845 98.5222 366.971 99.3766 366.072 100.272Z" fill="white"/>
</svg>
