<svg width="428" height="143" viewBox="0 0 428 143" fill="none" xmlns="http://www.w3.org/2000/svg">
<path d="M179.833 64.1375C181.169 64.3572 182.442 64.659 183.73 64.7668C184.805 64.8567 185.9 64.7289 186.985 64.679C187.631 64.6492 188.282 64.6286 188.919 64.5259C191.039 64.1839 193.194 63.9569 195.26 63.4043C197.755 62.7369 200.177 61.792 202.623 60.9457C203.393 60.6796 203.498 60.5468 203.099 59.7963C202.378 58.4395 201.547 57.1399 200.731 55.8355C200.338 55.2069 199.927 54.5735 199.426 54.0337C199.085 53.6661 199.066 53.2848 199.136 52.8975C199.413 51.3531 199.723 49.814 200.055 48.2805C200.11 48.0279 200.291 47.6886 200.499 47.6088C200.844 47.4757 201.134 47.6364 201.393 48.013C201.949 48.8226 202.634 49.5427 203.241 50.3188C204.423 51.8289 205.136 53.5729 205.539 55.42C205.794 56.5857 205.954 57.803 205.927 58.9919C205.886 60.7772 205.678 62.5698 205.023 64.2569C204.687 65.1224 204.136 65.8255 203.256 66.275C200.746 67.5575 198.139 68.5861 195.395 69.2085C193.552 69.6266 191.678 69.9542 189.8 70.1625C187.697 70.3957 185.572 70.5827 183.46 70.5465C180.731 70.4998 178.056 70.0281 175.527 68.8755C173.681 68.0345 172.112 66.8584 170.737 65.3923C170.665 65.3148 170.58 65.2488 170.441 65.1236C169.588 65.767 168.708 66.3652 167.903 67.052C166.162 68.5377 164.636 70.2319 163.381 72.1473C161.85 74.4838 160.892 77.0667 160.212 79.767C159.5 82.5965 159.274 85.4751 159.449 88.3668C159.683 92.2581 161.029 95.7046 164.085 98.2791C166.006 99.8975 168.283 100.878 170.715 101.458C173.105 102.028 175.533 102.32 177.999 102.261C179.331 102.229 180.668 102.317 181.997 102.241C184.126 102.12 186.249 101.905 188.375 101.733C189.514 101.641 190.656 101.577 191.793 101.461C193.263 101.312 194.73 101.122 196.198 100.95C196.964 100.86 197.728 100.753 198.497 100.685C199.678 100.581 200.861 100.497 202.044 100.422C202.225 100.411 202.417 100.477 202.595 100.534C203.193 100.724 203.289 101.096 202.894 101.579C202.288 102.319 201.482 102.762 200.598 103.028C197.974 103.819 195.348 104.608 192.702 105.319C189.499 106.179 186.293 107.043 183.054 107.748C180.209 108.367 177.285 108.473 174.388 108.272C171.721 108.086 169.108 107.541 166.659 106.345C164.78 105.427 163.047 104.318 161.626 102.791C159.458 100.462 158.13 97.6668 157.33 94.609C156.467 91.3091 156.388 87.9323 156.571 84.566C156.701 82.1742 157.146 79.7989 157.985 77.5294C158.714 75.557 159.275 73.4888 160.265 71.6543C161.698 68.9989 163.418 66.4943 165.085 63.9717C165.639 63.1338 166.393 62.4235 167.089 61.6862C167.367 61.3915 167.35 61.2211 167.08 60.9361C165.643 59.4214 163.706 59.4539 162.229 60.7455C162.086 60.8705 161.937 61.019 161.764 61.0721C161.494 61.1554 161.189 61.2279 160.924 61.1764C160.827 61.1576 160.711 60.7488 160.759 60.5577C160.987 59.6618 161.208 58.7556 161.545 57.8974C162.365 55.8064 163.551 54.012 165.712 53.0487C168.148 51.9627 170.676 51.69 173.304 52.0405C175.081 52.2775 176.694 52.9143 178.162 53.9161C179.475 54.8115 179.665 55.8406 179.218 57.2663C178.904 58.2665 178.56 59.2997 177.995 60.1655C177.54 60.8647 176.737 61.34 176.081 61.9053C175.927 62.0378 175.741 62.133 175.522 62.2769C176.85 63.2347 178.295 63.7248 179.833 64.1375Z" fill="white"/>
<path d="M345.502 84.4735C342.712 85.2535 339.982 86.0778 337.209 86.7158C335.695 87.0642 334.111 87.1329 332.553 87.2623C330.957 87.3948 329.351 87.5556 327.756 87.5074C325.781 87.4478 323.811 87.1917 321.841 87.01C319.155 86.7625 316.62 85.9889 314.182 84.7436C313.87 85.4274 313.551 86.0869 313.263 86.7598C312.07 89.553 310.703 92.2781 308.767 94.6091C306.793 96.9851 304.269 98.6636 301.099 99.0963C298.943 99.3906 296.808 99.2222 294.66 98.8651C292.585 98.5202 290.664 97.8101 288.813 96.8666C287.574 96.2353 286.354 95.5679 285.138 94.8919C284.864 94.7389 284.599 94.5164 284.419 94.2628C284.307 94.105 284.284 93.6658 284.354 93.6324C284.737 93.4501 285.199 93.1819 285.564 93.2626C286.565 93.4842 287.526 93.8817 288.512 94.179C290.975 94.9218 293.498 95.3605 296.066 95.1341C298.342 94.9334 300.654 94.6773 302.705 93.5604C304.445 92.6135 305.931 91.3339 307.228 89.8015C308.915 87.8064 310.218 85.5944 311.341 83.2389C310.303 82.5097 309.367 81.6851 308.728 80.5486C307.95 79.1624 308.141 77.7192 308.52 76.32C308.809 75.253 309.331 74.2441 309.808 73.2372C309.905 73.0326 310.254 72.9134 310.51 72.8429C310.572 72.8259 310.796 73.1473 310.834 73.3355C311.31 75.7085 312.777 77.2792 314.821 78.4402C317.462 79.9405 320.288 80.8828 323.275 81.3509C324.69 81.5726 326.114 81.7792 327.541 81.8658C329.432 81.9805 331.337 82.0919 333.223 81.982C335.266 81.8628 337.34 81.6719 339.32 81.1848C343.229 80.2233 347.086 79.05 350.955 77.932C351.944 77.6463 352.901 77.2486 353.865 76.8812C354.025 76.82 354.144 76.6496 354.454 76.3802C352.156 75.7326 350.085 75.0841 347.979 74.5806C346.821 74.3039 345.608 74.2276 344.414 74.1425C343.456 74.0742 342.483 74.0589 341.528 74.1436C339.674 74.308 337.829 74.5782 335.975 74.7601C335.548 74.802 335.104 74.6642 334.667 74.609C334.787 74.2201 334.839 73.7904 335.041 73.4502C335.57 72.5583 336.238 71.7434 336.716 70.8276C337.339 69.6349 338.403 69.1969 339.583 69.0209C341.762 68.6958 343.954 68.4429 346.147 68.2258C347.653 68.0767 349.17 68.0457 350.682 67.9463C351.042 67.9225 351.399 67.8364 351.81 67.7705C351.779 67.1488 351.785 66.4878 351.704 65.8378C351.561 64.6957 351.376 63.5585 351.189 62.4225C350.905 60.7012 350.605 58.9828 350.311 57.2631C350.079 55.8999 349.844 54.5371 349.615 53.1733C349.432 52.0815 349.251 50.9893 349.078 49.896C348.901 48.7802 348.666 47.6682 348.576 46.545C348.385 44.1514 347.906 41.8455 346.789 39.7006C346.464 39.0758 346.578 38.5846 346.998 37.9957C347.606 37.1437 348.051 36.1746 348.556 35.2502C348.747 34.9014 348.878 34.5152 349.1 34.1902C349.226 34.0069 349.497 33.7907 349.677 33.8114C349.886 33.8356 350.142 34.0642 350.249 34.2707C350.991 35.7087 351.68 37.1741 352.428 38.6085C352.701 39.1315 353.104 39.5849 353.423 40.0858C354.225 41.3466 354.078 41.4376 353.153 42.6404C352.909 42.9577 352.529 43.1666 352.24 43.4535C351.694 43.9939 351.809 44.6721 351.903 45.332C352.097 46.6819 352.309 48.0293 352.504 49.379C352.719 50.8581 352.931 52.3375 353.13 53.8188C353.244 54.6684 353.318 55.5232 353.428 56.3734C353.584 57.5811 353.759 58.7862 353.919 59.9934C354.023 60.7785 354.133 61.5636 354.208 62.3518C354.313 63.4674 354.419 64.5844 354.47 65.7033C354.544 67.3633 354.239 68.9296 353.172 70.2745C353.098 70.3686 353.075 70.5037 352.978 70.7429C354.176 71.2152 355.334 71.7986 356.561 72.127C358.562 72.6627 360.595 73.1059 362.639 73.4502C364.537 73.7702 366.464 73.9367 368.383 74.1199C369.781 74.2533 371.188 74.2981 372.589 74.3958C372.928 74.4194 373.27 74.4681 373.598 74.5549C374.097 74.6874 374.203 75.0416 373.94 75.6296C373.327 76.9981 372.708 78.3639 372.023 79.8806C371.044 79.6938 370.054 79.4972 369.061 79.3174C367.313 79.0008 365.56 78.8306 363.788 79.1185C361.855 79.4325 359.898 79.6396 357.992 80.0719C356.271 80.4622 354.584 81.0357 352.92 81.6325C350.444 82.5203 348.001 83.4997 345.502 84.4735Z" fill="white"/>
<path d="M118.404 76.0154C119.646 76.8626 121.045 77.0534 122.434 77.1227C123.431 77.1725 124.447 76.9948 125.445 76.8543C126.269 76.7384 127.079 76.5281 128.022 76.3335C127.454 75.8049 126.984 75.4018 126.554 74.9593C125.385 73.7561 124.446 72.4214 124.024 70.7528C123.72 69.5509 123.762 68.3525 123.96 67.1663C124.253 65.4168 124.706 63.7103 125.365 62.0465C126.252 59.8065 127.744 58.1569 129.762 56.8971C131.148 56.0318 132.607 55.2908 134.23 55.2486C135.51 55.2152 136.828 55.4689 138.08 55.7866C139.771 56.2154 141.281 57.0999 142.676 58.1383C143.055 58.4201 143.351 58.8606 143.579 59.2849C143.851 59.7875 143.567 60.224 143.005 60.1806C142.552 60.1456 142.076 60.0385 141.672 59.8389C140.707 59.3626 139.737 58.9089 138.638 59.0227C136.629 59.2307 134.665 59.6708 132.801 60.4638C131.682 60.9402 130.547 61.4198 129.516 62.0551C128.223 62.8515 127.586 64.1662 127.23 65.6095C126.747 67.5682 127.885 68.7945 129.213 69.9227C130.794 71.2663 132.688 71.9599 134.69 72.2345C135.848 72.3933 137.081 72.2843 138.243 72.0807C141.396 71.5284 144.226 70.072 147.059 68.668C148.02 68.1917 148.888 67.5301 149.818 66.9878C150.54 66.5673 150.88 66.7397 150.727 67.5476C150.496 68.7637 150.059 69.9393 149.75 71.1426C149.575 71.828 149.14 72.1301 148.507 72.3934C147.163 72.9523 145.875 73.6434 144.555 74.2599C140.848 75.9911 137.149 77.7409 133.42 79.4244C131.618 80.2377 129.777 80.9739 127.918 81.6452C125.818 82.4032 123.616 82.6482 121.393 82.528C119.571 82.4295 117.957 81.6779 116.484 80.6422C116.015 80.3126 115.94 80.4426 115.744 80.9077C115.195 82.2024 114.59 83.4754 113.947 84.7264C113.489 85.6176 112.596 85.9486 111.683 86.0742C109.704 86.3467 107.99 85.6588 106.457 84.4429C106.026 84.1007 105.593 83.7602 105.192 83.4438C103.892 84.911 102.411 85.8637 100.447 85.964C97.8062 86.099 95.4824 85.1843 93.2674 83.8807C92.4852 83.4203 91.7263 82.9199 90.9366 82.4733C90.7506 82.3681 90.4476 82.3174 90.2591 82.3929C88.539 83.0817 86.8388 83.8201 85.1188 84.509C84.3583 84.8136 83.5802 85.1066 82.7826 85.2757C82.1878 85.4019 82.0012 85.759 81.8871 86.244C81.1516 89.3714 80.0968 92.3982 78.8257 95.3378C78.0409 97.1529 77.0907 98.9073 76.0868 100.614C75.0856 102.316 73.5077 103.474 71.832 104.456C69.7809 105.657 67.5353 106.056 65.1599 106.094C61.9734 106.144 58.856 105.793 55.869 104.722C53.8343 103.992 51.8923 103.002 49.9163 102.112C49.7282 102.028 49.5842 101.834 49.4358 101.675C49.1006 101.317 49.0716 101.026 49.5516 100.723C50.1561 100.34 50.7723 100.374 51.3726 100.605C53.2328 101.321 55.1079 101.972 57.1129 102.121C58.5781 102.23 60.056 102.449 61.5106 102.353C63.7722 102.203 66.0652 101.914 68.0795 100.782C69.5152 99.9749 70.914 99.035 72.1433 97.9446C73.7777 96.495 74.9339 94.6096 76.0433 92.7419C76.869 91.352 77.5058 89.8491 78.2112 88.389C78.4852 87.822 78.7168 87.2345 78.9976 86.5875C78.6491 86.6485 78.3569 86.6851 78.0719 86.7523C77.3033 86.9334 76.8045 86.7894 76.5105 86.0614C76.087 85.0133 75.7347 83.9271 75.4675 82.829C75.3312 82.2692 75.7365 81.8201 76.2759 81.6241C77.303 81.2509 78.3461 80.9225 79.3815 80.5721C81.7138 79.7827 84.0627 79.038 86.3716 78.1853C88.0875 77.5516 89.7506 76.7752 91.4391 76.0669C91.652 75.9776 91.8762 75.856 92.0957 75.8549C92.5124 75.8528 92.9295 75.9604 92.9174 76.5009C92.9 77.2766 92.8157 78.0515 92.816 78.8267C92.8161 79.0137 92.9974 79.3143 93.1612 79.3703C95.4157 80.1411 97.716 80.6965 100.124 80.5633C101.568 80.4834 102.802 79.8777 103.923 78.9765C105.622 77.6112 106.717 75.8626 107.391 73.8125C107.534 73.3756 107.638 72.6921 108.278 72.8503C108.893 73.0026 108.758 73.6898 108.676 74.1361C108.411 75.5713 108.085 76.997 107.727 78.4121C107.63 78.7948 107.602 79.0363 108.011 79.1684C109.332 79.5945 110.643 80.0534 111.978 80.4267C112.792 80.6544 113.586 80.2373 114.088 79.5234C114.879 78.3985 115.067 77.0705 115.403 75.7889C115.632 74.9142 115.891 74.0472 116.146 73.1796C116.271 72.7535 116.616 72.5519 116.99 72.71C117.218 72.8065 117.364 73.1525 117.489 73.4144C117.556 73.5576 117.554 73.78 117.493 73.9309C117.099 74.9171 117.765 75.4318 118.404 76.0154Z" fill="white"/>
<path d="M243.284 51.148C243.109 49.9947 242.895 48.9051 242.766 47.8057C242.499 45.5297 242.429 43.2151 241.258 41.144C241.041 40.7604 240.844 40.3643 240.659 39.9641C240.423 39.4523 240.594 39.0718 240.953 38.6343C241.694 37.733 242.334 36.7494 243.017 35.8012C243.142 35.6288 243.266 35.4548 243.409 35.2979C243.763 34.9085 244.078 35.0586 244.306 35.4245C244.459 35.6696 244.551 35.9594 244.634 36.2399C245.213 38.1843 246.419 39.7709 247.555 41.399C248.069 42.136 248.014 42.8991 247.382 43.5364C246.94 43.981 246.49 44.4301 245.985 44.7951C245.113 45.4252 245.32 46.3172 245.436 47.1122C245.708 48.9813 246.092 50.8344 246.44 52.6923C246.76 54.4032 247.101 56.1104 247.417 57.822C247.672 59.202 247.908 60.5855 248.146 61.9687C248.366 63.2482 248.592 64.527 248.786 65.8106C248.908 66.6158 249.017 67.427 249.059 68.2393C249.21 71.1412 249.405 74.0441 249.429 76.9479C249.44 78.3428 249.206 79.7627 248.899 81.1301C248.63 82.3263 247.589 82.8926 246.514 83.33C244.414 84.1841 242.223 84.487 239.975 84.3656C239.424 84.3358 239.209 84.5542 239.08 85.0228C238.34 87.7041 237.176 90.2154 235.849 92.6405C234.8 94.5561 233.769 96.5059 232.17 98.057C230.113 100.052 227.752 101.493 224.89 101.985C224.09 102.123 223.276 102.206 222.465 102.245C221.547 102.289 220.625 102.253 219.704 102.256C217.506 102.264 215.363 101.901 213.288 101.196C211.337 100.534 209.397 99.8309 207.485 99.0624C206.924 98.8367 206.477 98.3265 205.975 97.9448C206.736 96.9679 207.043 96.8854 208.062 97.1907C209.654 97.6675 211.243 98.1616 212.85 98.5829C214.441 98.9997 216.063 98.9259 217.679 98.7088C218.948 98.5383 220.222 98.3926 221.483 98.1739C224.187 97.7052 226.582 96.5661 228.71 94.8249C231.378 92.6427 233.275 89.8588 234.991 86.9295C235.524 86.0196 235.976 85.062 236.457 84.1411C235.896 83.7767 235.336 83.4537 234.822 83.0709C233.989 82.4523 233.474 81.5967 233.38 80.5748C233.289 79.5832 233.268 78.5709 233.361 77.5813C233.432 76.8261 233.916 76.6633 234.639 77.0316C235.276 77.3564 235.867 77.7976 236.531 78.0419C238.369 78.7177 240.274 78.9338 242.218 78.5982C243.365 78.4 244.528 78.2401 245.645 77.9257C247.467 77.4131 247.583 77.107 247.231 75.2862C246.969 73.9274 246.795 72.5516 246.568 71.1857C246.275 69.4227 245.96 67.6634 245.67 65.8999C245.432 64.4488 245.224 62.9927 244.991 61.5408C244.774 60.1961 244.542 58.8539 244.314 57.511C244.104 56.2735 243.884 55.0377 243.68 53.7992C243.538 52.9369 243.415 52.0713 243.284 51.148Z" fill="white"/>
<path d="M278.903 75.8253C278.767 74.5613 279.471 73.66 280.156 72.861C281.405 71.4034 282.796 70.0657 284.144 68.6933C285.189 67.6291 286.44 66.8628 287.845 66.3879C289.064 65.9758 290.234 66.2169 291.191 67.0633C291.728 67.5377 292.139 68.1629 292.565 68.7501C292.888 69.1949 292.845 69.6962 292.572 70.158C292.002 71.1209 291.45 72.0965 290.825 73.0232C290.378 73.6876 289.75 73.6098 289.281 72.9365C288.881 72.3621 288.535 71.7013 288.007 71.2748C287.081 70.5266 286.032 70.4766 285.019 71.2215C284.592 71.5352 284.117 71.792 283.728 72.1452C283.083 72.7303 283.075 73.1375 283.636 73.7943C284.848 75.2126 286.345 76.2024 288.144 76.7183C288.266 76.7535 288.402 76.7401 288.531 76.7581C290.15 76.9859 291.769 77.0229 293.387 76.7551C294.204 76.6198 295.015 76.4407 295.834 76.3228C296.14 76.2788 296.464 76.3525 296.78 76.3726C296.692 76.6704 296.659 77.0002 296.507 77.2604C295.963 78.1911 295.394 79.109 294.796 80.006C294.665 80.2038 294.381 80.4086 294.157 80.4197C292.18 80.5182 290.316 81.1249 288.491 81.7829C286.395 82.5389 284.361 83.4767 282.327 84.3944C281.504 84.766 280.762 85.3158 279.959 85.7366C279.7 85.8722 279.361 85.8544 279.058 85.9068C279.037 85.6065 278.926 85.2774 279.011 85.0113C279.267 84.2121 279.564 83.4205 279.922 82.6624C280.05 82.3919 280.376 82.1907 280.65 82.0181C281.578 81.4329 282.523 80.8746 283.528 80.2655C283.17 80.037 282.789 79.7968 282.411 79.553C281.559 79.003 280.682 78.4853 279.863 77.8892C279.207 77.4124 278.894 76.7108 278.903 75.8253Z" fill="white"/>
<path d="M257.739 60.8825C257.563 59.8177 257.381 58.813 257.218 57.8052C256.952 56.1645 256.688 54.5234 256.445 52.8793C256.288 51.8214 256.162 50.7588 256.035 49.6969C255.854 48.1868 255.552 46.676 255.545 45.1645C255.539 43.5582 255.667 41.9223 256.406 40.4261C256.582 40.0686 256.73 39.6914 256.95 39.3632C257.056 39.2061 257.327 39.0289 257.475 39.0638C257.676 39.111 257.936 39.3262 257.986 39.5172C258.165 40.2124 258.296 40.9237 258.393 41.6359C258.628 43.3523 258.826 45.0737 259.055 46.791C259.263 48.357 259.472 49.9235 259.719 51.4838C260.044 53.5438 260.416 55.5964 260.748 57.6554C260.989 59.1501 261.184 60.6524 261.426 62.1469C261.668 63.6374 261.984 65.1167 262.194 66.6112C262.383 67.9503 262.444 69.3069 262.611 70.6495C262.99 73.6967 263.09 76.7582 262.976 79.8183C262.908 81.6406 262.851 83.5025 262.051 85.2026C261.919 85.482 261.505 85.7302 261.19 85.7762C261.044 85.7976 260.7 85.3197 260.656 85.0352C260.509 84.1048 260.451 83.1598 260.372 82.2193C260.193 80.0725 260.039 77.9234 259.841 75.7785C259.695 74.1991 259.524 72.6207 259.311 71.0493C259.096 69.4666 258.811 67.8934 258.561 66.3152C258.329 64.8416 258.101 63.3671 257.874 61.8927C257.825 61.5762 257.785 61.2584 257.739 60.8825Z" fill="white"/>
<path d="M215.957 37.0646C216.206 37.3872 216.494 37.6875 216.58 38.0375C216.707 38.5534 216.683 39.1055 216.736 39.6409C216.906 41.372 217.085 43.1022 217.256 44.8333C217.35 45.7964 217.416 46.7628 217.528 47.7239C217.679 49.0192 217.868 50.31 218.03 51.6042C218.176 52.7735 218.297 53.9458 218.445 55.1149C218.609 56.4081 218.803 57.6975 218.96 58.9914C219.11 60.2266 219.228 61.4657 219.364 62.7027C219.536 64.2804 219.726 65.8563 219.879 67.4359C219.959 68.2542 220.008 69.0784 220.014 69.9003C220.032 72.2881 220.099 74.6795 219.995 77.0629C219.912 78.9733 219.752 80.8976 219.099 82.7299C219.064 82.8282 219.017 82.922 218.974 83.0174C218.779 83.4539 218.558 84.0245 218.007 83.8059C217.741 83.7006 217.56 83.0888 217.543 82.6974C217.456 80.7398 217.486 78.7764 217.377 76.8205C217.267 74.8446 217.043 72.8751 216.867 70.903C216.737 69.4462 216.626 67.9871 216.465 66.5336C216.324 65.2598 216.112 63.994 215.955 62.7218C215.805 61.5087 215.697 60.2903 215.548 59.0771C215.397 57.8472 215.206 56.622 215.053 55.3922C214.94 54.4762 214.864 53.5556 214.762 52.6381C214.592 51.126 214.411 49.6154 214.243 48.1031C214.184 47.5679 214.129 47.0306 214.11 46.4929C214.055 44.9489 213.947 43.4021 213.994 41.8604C214.041 40.3186 214.579 38.8802 215.32 37.5323C215.431 37.3302 215.706 37.2182 215.957 37.0646Z" fill="white"/>
<path d="M377.347 81.3578C377.259 79.3859 377.208 77.4769 377.073 75.5739C376.947 73.7956 376.757 72.0207 376.551 70.2496C376.367 68.6798 376.109 67.1189 375.907 65.5511C375.715 64.0643 375.556 62.5733 375.374 61.0851C375.116 58.9818 374.836 56.8812 374.595 54.7759C374.471 53.6845 374.41 52.5859 374.324 51.4902C374.234 50.329 374.064 49.1662 374.08 48.0062C374.104 46.2518 374.446 44.5451 375.308 42.9816C375.389 42.834 375.482 42.6863 375.598 42.5653C375.992 42.1525 376.387 42.2338 376.548 42.794C376.682 43.2594 376.764 43.7453 376.815 44.2278C377.046 46.4063 377.255 48.5871 377.476 50.7666C377.604 52.0264 377.72 53.2877 377.877 54.544C378.073 56.1127 378.314 57.6757 378.518 59.2434C378.667 60.3908 378.784 61.5425 378.925 62.691C379.093 64.0497 379.275 65.4066 379.444 66.7651C379.5 67.2129 379.551 67.6622 379.578 68.1124C379.673 69.6677 379.778 71.2228 379.838 72.7796C379.907 74.5862 380.026 76.3984 379.951 78.2009C379.859 80.3737 379.753 82.5629 379.055 84.6591C378.982 84.8779 378.878 85.0861 378.793 85.3009C378.63 85.7106 378.265 85.7922 377.937 85.6686C377.737 85.5932 377.529 85.2893 377.497 85.0637C377.401 84.3824 377.378 83.6898 377.351 83.0006C377.33 82.4757 377.347 81.9492 377.347 81.3578Z" fill="white"/>
<path d="M338.346 54.646C337.941 54.2859 337.569 53.9582 337.197 53.6316C336.894 53.3655 336.673 53.4454 336.505 53.7905C335.066 56.7374 332.634 58.6813 329.875 60.2662C328.301 61.1711 326.674 61.987 325.056 62.8141C324.65 63.0218 324.196 63.1702 323.747 63.246C323.492 63.289 323.037 63.2013 322.969 63.0443C322.862 62.7963 322.892 62.3362 323.063 62.1499C323.586 61.5826 324.168 61.0535 324.792 60.5987C327.142 58.8857 329.562 57.2645 331.864 55.4911C332.873 54.7146 333.663 53.6553 334.551 52.7226C334.873 52.3838 334.852 52.1748 334.422 51.8655C333.176 50.9683 331.975 50.0073 330.78 49.0425C329.996 48.4092 330.018 47.4623 330.199 46.6483C330.649 44.6256 331.575 42.8184 333.135 41.3958C333.479 41.0815 333.843 40.7651 334.25 40.5466C335.913 39.6529 337.759 40.4313 338.45 42.2024C339.406 44.6513 339.221 47.0999 338.549 49.5504C338.448 49.9189 338.489 50.1072 338.746 50.3167C339.012 50.5335 339.246 50.8072 339.543 50.9646C340.548 51.4974 340.32 52.4224 340.251 53.2458C340.205 53.7989 339.949 54.3367 339.771 54.8761C339.595 55.4103 339.248 55.507 338.842 55.1433C338.68 54.9978 338.534 54.8342 338.346 54.646ZM335.873 48.242C336.091 48.3839 336.308 48.5259 336.602 48.7178C336.602 47.8412 336.674 47.0911 336.585 46.3608C336.457 45.3265 336.134 44.3443 335.322 43.6026C334.955 43.2676 334.567 43.1188 334.172 43.5147C333.758 43.9289 333.341 44.3515 332.998 44.8231C332.496 45.5131 332.65 46.0468 333.383 46.5487C334.187 47.0996 334.977 47.6705 335.873 48.242Z" fill="white"/>
<path d="M289.68 45.6096C289.519 47.1073 289.357 48.5402 289.181 50.0946C289.52 50.3525 290.03 50.7292 290.527 51.1219C291.032 51.5208 291.072 52.1037 290.976 52.6521C290.85 53.376 290.626 54.0853 290.41 54.7904C290.21 55.4427 289.854 55.4878 289.385 54.9798C288.966 54.5267 288.535 54.0812 288.072 53.6752C287.857 53.4872 287.553 53.4011 287.257 53.2524C285.946 56.4477 283.566 58.4504 280.813 60.0567C279.062 61.0781 277.242 61.9812 275.439 62.9107C275.111 63.0797 274.719 63.1834 274.352 63.1965C274.122 63.2047 273.791 63.043 273.679 62.8542C273.579 62.6859 273.627 62.2813 273.768 62.1445C274.42 61.5128 275.092 60.8905 275.821 60.3518C278.16 58.6234 280.573 56.9916 282.864 55.2032C283.962 54.3458 284.851 53.2201 285.797 52.2553C284.354 51.1575 283.029 50.1958 281.758 49.1683C280.81 48.4022 280.775 47.3689 281.064 46.2584C281.518 44.5205 282.337 42.9757 283.573 41.6934C284.167 41.0776 284.893 40.5324 285.658 40.1537C286.587 39.6934 287.906 40.222 288.494 41.1239C289.37 42.4665 289.73 43.9517 289.68 45.6096ZM283.497 45.1428C283.121 45.7871 283.636 46.1268 284.013 46.4233C284.913 47.1315 285.86 47.7788 286.8 48.4343C286.913 48.5128 287.123 48.55 287.238 48.4968C287.343 48.4477 287.44 48.2492 287.436 48.1199C287.412 47.3868 287.421 46.6436 287.296 45.9252C287.147 45.0693 286.838 44.2587 286.186 43.6194C285.78 43.2212 285.296 43.0469 284.876 43.4249C284.356 43.8936 283.955 44.4948 283.497 45.1428Z" fill="white"/>
<path d="M97.837 46.0331C95.4667 47.0474 93.1427 48.0389 90.8145 49.0203C89.8444 49.4293 88.8732 49.8384 87.8857 50.2017C87.5568 50.3227 87.1755 50.3012 86.7177 50.3572C86.9694 49.6134 87.2368 49.0564 87.3382 48.4706C87.4965 47.5557 88.1458 47.1537 88.8731 46.8456C92.944 45.1206 97.0255 43.4206 101.102 41.7078C104.731 40.1827 108.357 38.6492 111.987 37.1255C112.938 36.7262 113.895 36.3389 114.858 35.9702C115.087 35.8826 115.353 35.892 115.63 35.8528C115.779 36.7589 115.21 37.3489 114.897 38.0211C114.343 39.2106 113.168 39.5964 112.1 40.0731C110.236 40.9051 108.339 41.663 106.457 42.4539C104.166 43.4161 101.878 44.3833 99.5857 45.3415C99.0233 45.5766 98.45 45.7853 97.837 46.0331Z" fill="white"/>
<path d="M110.219 67.6873C109.25 67.7377 108.732 67.0108 108.073 66.5813C107.59 66.2667 107.175 65.8369 106.768 65.4205C106.485 65.13 106.276 65.1214 106.024 65.4301C105.225 66.4084 104.421 67.3822 103.619 68.3574C103.361 68.6708 102.632 68.7434 102.251 68.5501C100.775 67.8017 99.6485 66.6381 98.5246 65.4688C98.1822 65.1125 98.2084 64.7626 98.5232 64.3811C99.4624 63.2432 100.389 62.0948 101.308 60.9409C101.682 60.472 102.141 60.5095 102.51 60.8835C103.43 61.8163 104.41 62.6896 105.425 63.6423C106.148 62.8138 106.766 62.1106 107.379 61.4036C107.815 60.9007 108.227 60.376 108.684 59.8925C109.039 59.5159 109.395 59.6587 109.789 60.0052C110.978 61.0504 112.213 62.0442 113.448 63.0342C113.9 63.3963 113.945 63.623 113.586 64.0493C112.759 65.0329 111.963 66.0435 111.125 67.0179C110.894 67.2865 110.559 67.466 110.219 67.6873Z" fill="white"/>
<path d="M63.3166 73.3011C62.7069 73.6039 62.1431 73.8881 61.5627 74.133C61.3901 74.2057 61.1009 74.2496 60.9929 74.1573C60.8877 74.0674 60.9158 73.7826 60.9387 73.5897C60.994 73.1243 61.0936 72.6643 61.152 72.1992C61.3107 70.9351 62.2673 70.4098 63.2651 69.9667C65.0341 69.1812 66.8244 68.4436 68.6071 67.6889C72.0557 66.2288 75.5136 64.7902 78.9502 63.3024C80.3025 62.7169 81.6071 62.0216 82.936 61.3817C83.0855 61.3097 83.2616 61.292 83.4087 61.2167C83.8783 60.9766 84.0548 61.2218 83.9756 61.6258C83.6144 63.4692 82.8744 65.0039 80.9343 65.7402C79.1651 66.4117 77.4619 67.2557 75.7202 68.0017C73.4797 68.9614 71.2268 69.892 68.9851 70.8487C67.3198 71.5595 65.6642 72.2929 64.0032 73.0137C63.7908 73.1059 63.572 73.1832 63.3166 73.3011Z" fill="white"/>
<path d="M309.249 40.7468C310.657 41.1414 312.014 41.5241 313.363 41.9295C314.169 42.1714 314.265 42.3569 313.986 43.1318C313.787 43.6854 313.571 44.2383 313.302 44.7598C313.032 45.2811 312.748 45.7808 312.061 45.9386C311.699 46.0215 311.36 46.3441 311.083 46.6285C309.341 48.415 307.041 49.0282 304.757 49.6776C304.048 49.8794 303.316 50.0132 302.62 50.2506C302.166 50.4052 301.75 50.3752 301.553 49.9865C301.35 49.5873 301.531 49.1363 301.936 48.8975C302.791 48.3932 303.669 47.9278 304.538 47.4471C306.107 46.579 307.676 45.7113 309.264 44.6596C308.614 44.4327 307.966 44.2018 307.314 43.9796C305.402 43.3275 303.5 43.2435 301.723 44.3292C301.015 44.7615 300.453 45.4278 299.801 45.9591C299.615 46.1107 299.353 46.1974 299.114 46.232C299.062 46.2394 298.863 45.8722 298.898 45.7143C299.007 45.2258 299.155 44.7374 299.359 44.2805C300.262 42.2564 301.819 40.8953 303.911 40.2861C305.686 39.7693 307.473 40.1286 309.249 40.7468Z" fill="white"/>
<path d="M134.863 44.8213C133.355 45.4355 131.896 46.0404 130.445 46.6612C128.899 47.3222 127.359 47.9979 125.818 48.6686C125.779 48.6856 125.75 48.7335 125.711 48.7414C125.377 48.8093 125.043 48.8713 124.709 48.935C124.725 48.5895 124.716 48.2408 124.763 47.8996C124.814 47.5238 124.91 47.1535 124.998 46.7834C125.295 45.5228 126.375 45.1335 127.383 44.6958C129.216 43.8989 131.065 43.1375 132.91 42.3669C134.735 41.6045 136.573 40.8696 138.389 40.0853C140.644 39.111 142.88 38.0902 145.134 37.1115C145.457 36.9713 145.834 36.9549 146.219 36.8743C146.458 37.7407 145.908 38.3529 145.684 39.0277C145.324 40.1076 144.458 40.7109 143.441 41.1443C141.814 41.8377 140.203 42.5676 138.579 43.2698C137.362 43.7963 136.137 44.3033 134.863 44.8213Z" fill="white"/>
<path d="M223.965 57.221C224.272 56.2459 224.578 55.33 224.884 54.4144C224.897 54.3742 224.913 54.3325 224.937 54.2985C225.204 53.9248 225.335 53.2451 225.98 53.5337C226.61 53.8161 226.067 54.3374 226.04 54.7442C226.012 55.162 225.826 55.5715 225.815 55.9875C225.782 57.2364 226.849 57.8935 228.051 57.5094C229.778 56.9574 230.421 55.6443 230.658 54.0291C230.846 52.7474 231.337 52.2858 232.438 52.0635C232.505 52.8283 232.546 53.5956 232.643 54.3557C232.81 55.6585 234.267 56.3153 235.336 55.4951C236.145 54.8742 236.292 54.8585 235.89 53.7822C235.581 52.956 235.72 52.3132 236.134 51.6267C236.341 51.2834 236.491 50.9056 236.689 50.5564C236.765 50.4222 236.92 50.2187 237.011 50.2323C237.176 50.2571 237.422 50.3947 237.457 50.5313C237.807 51.8675 238.188 53.1884 237.934 54.6169C237.743 55.6955 237.421 56.6937 236.856 57.6261C236.448 58.299 235.778 58.5776 235.086 58.7346C233.686 59.0524 232.317 59.03 231.191 57.9078C230.773 58.4613 230.434 59.0067 230.002 59.4647C228.833 60.7039 227.361 61.0162 225.775 60.5582C224.673 60.2399 224.108 59.215 223.967 57.9368C223.943 57.7205 223.963 57.4993 223.965 57.221Z" fill="white"/>
<path d="M228.174 34.5668C231.021 33.3361 233.814 32.1063 236.612 30.886C237.846 30.3479 239.088 29.8296 240.326 29.3001C240.384 29.2753 240.435 29.1941 240.485 29.1981C240.777 29.2217 241.068 29.2628 241.359 29.298C241.302 29.5456 241.283 29.8109 241.179 30.0377C240.732 31.0191 240.385 32.1039 239.346 32.6402C238.114 33.2767 236.846 33.8472 235.58 34.4186C234.2 35.0421 232.806 35.6384 231.415 36.2384C228.826 37.3549 226.237 38.47 223.643 39.5754C222.975 39.8601 222.291 40.1066 221.614 40.3707C221.546 40.3022 221.479 40.2338 221.411 40.1653C221.516 39.7983 221.682 39.4365 221.714 39.0633C221.862 37.3097 223.111 36.6745 224.531 36.1327C225.749 35.668 226.927 35.0961 228.174 34.5668Z" fill="white"/>
<path d="M194.967 90.4572C195.652 90.1646 196.302 89.9187 196.931 89.6289C200.455 88.0066 203.968 86.3593 207.503 84.761C207.992 84.5402 208.581 84.544 209.161 84.5375C208.641 86.1065 208.107 87.5255 206.505 88.2581C202.363 90.153 198.253 92.1171 194.124 94.0418C192.998 94.5672 191.862 95.0767 190.708 95.5387C190.339 95.6864 189.899 95.6576 189.421 95.7187C189.632 94.8592 189.772 94.1475 189.987 93.4591C190.213 92.7317 190.818 92.3729 191.48 92.0773C192.635 91.562 193.776 91.0165 194.967 90.4572Z" fill="white"/>
<path d="M162.978 42.0589C166.954 40.4148 170.879 38.7771 174.802 37.1354C175.793 36.7206 176.766 36.2562 177.775 35.8911C178.123 35.765 178.556 35.871 179.04 35.871C178.394 37.7346 177.465 39.0475 175.671 39.738C173.334 40.6379 171.072 41.7322 168.764 42.7104C166.536 43.6547 164.289 44.5549 162.053 45.4809C161.392 45.7548 160.747 46.0702 160.08 46.3278C159.734 46.4614 159.355 46.5102 158.981 46.5996C158.753 44.9046 159.903 43.2295 161.64 42.5862C162.074 42.4256 162.497 42.2386 162.978 42.0589Z" fill="white"/>
<path d="M305.485 59.0468C306.152 58.3788 306.784 57.7422 307.421 57.1092C307.917 56.6149 308.329 56.6152 308.78 57.1634C309.79 58.3917 310.873 59.536 312.183 60.4586C312.318 60.5538 312.359 61.069 312.239 61.1969C311.22 62.2805 310.177 63.3452 309.088 64.3567C308.746 64.6735 308.262 64.8912 307.775 64.4375C306.982 63.6988 306.153 62.9993 305.359 62.262C305.074 61.9971 304.829 61.6829 304.594 61.3703C304.126 60.7486 304.16 60.3777 304.708 59.8212C304.954 59.5716 305.204 59.3267 305.485 59.0468Z" fill="white"/>
<path d="M193.043 75.1473C193.463 74.7277 193.855 74.3447 194.237 73.9531C194.556 73.626 194.88 73.6196 195.188 73.9443C195.589 74.3677 195.949 74.8317 196.364 75.2404C197.095 75.9603 197.857 76.6484 198.599 77.3572C198.793 77.5426 198.961 77.7549 199.152 77.9666C197.977 79.1426 196.862 80.2552 195.752 81.372C195.347 81.7786 194.86 81.7372 194.464 81.473C193.14 80.5902 191.996 79.5078 191.129 78.1591C190.857 77.7352 190.856 77.3235 191.245 76.9437C191.84 76.3624 192.423 75.7686 193.043 75.1473Z" fill="white"/>
<path d="M102.954 57.4116C102.451 56.9117 102.013 56.4095 101.509 55.9841C100.874 55.4473 100.934 55.0067 101.483 54.3376C102.353 53.2775 103.225 52.2184 104.121 51.1812C104.42 50.8355 104.749 50.9308 105.069 51.2431C105.786 51.9441 106.509 52.6417 107.267 53.2972C107.698 53.6693 108.174 54.0145 108.682 54.2639C109.202 54.5188 109.233 54.7911 108.908 55.1908C108.111 56.1697 107.294 57.1323 106.511 58.1225C105.97 58.8074 105.471 59.1104 104.97 58.852C104.433 58.5748 103.945 58.2002 103.444 57.8544C103.278 57.7391 103.14 57.5816 102.954 57.4116Z" fill="white"/>
<path d="M357.074 91.7752C357.417 92.0752 357.717 92.3526 358.038 92.605C358.506 92.9734 358.583 93.3134 358.169 93.7462C357.202 94.7573 356.239 95.7812 355.182 96.6927C354.928 96.9119 354.155 96.8986 353.892 96.6742C352.803 95.7455 351.779 94.7303 350.81 93.6744C350.307 93.1259 350.423 92.7155 350.958 92.1691C351.918 91.1877 352.847 90.1729 353.847 89.234C354.127 88.9709 354.592 88.984 354.923 89.3624C355.622 90.1615 356.334 90.9491 357.074 91.7752Z" fill="white"/>
</svg>
