<svg width="430" height="144" viewBox="0 0 430 144" fill="none" xmlns="http://www.w3.org/2000/svg">
<path d="M373.352 77.0294C375.423 77.1619 377.432 77.2871 379.441 77.4338C379.798 77.4599 380.152 77.5613 380.501 77.6521C381.167 77.8252 381.305 78.1374 381.007 78.8039C380.479 79.9859 379.968 81.1775 379.38 82.329C379.286 82.5115 378.817 82.5995 378.54 82.5676C377.888 82.4927 377.25 82.3041 376.601 82.1881C375.142 81.927 373.692 81.6457 372.188 81.913C371.071 82.1118 369.919 82.1249 368.805 82.3382C367.204 82.6447 365.582 82.9362 364.041 83.4515C361.041 84.4546 358.114 85.6809 355.113 86.6791C352.327 87.6053 349.492 88.3842 346.661 89.163C345.862 89.3828 345.003 89.4221 344.168 89.4615C341.754 89.5753 339.337 89.7333 336.923 89.7054C335.275 89.6864 333.63 89.3798 331.983 89.2109C329.85 88.9923 327.834 88.3889 325.921 87.4182C325.565 87.2375 325.302 87.3222 325.13 87.7501C323.9 90.7997 322.464 93.7624 320.423 96.3369C318.696 98.5147 316.431 100.085 313.634 100.558C311.734 100.878 309.807 100.745 307.874 100.488C304.287 100.013 301.19 98.3927 298.149 96.6024C297.855 96.4297 297.634 96.0536 297.507 95.7225C297.467 95.6204 297.826 95.233 298.044 95.1903C298.412 95.1181 298.847 95.1274 299.196 95.2577C301.293 96.0403 303.456 96.5818 305.664 96.8466C306.86 96.99 308.104 96.8664 309.313 96.735C310.536 96.602 311.743 96.3183 312.955 96.0866C314.257 95.8376 315.355 95.1233 316.364 94.3407C318.137 92.9651 319.625 91.2898 320.806 89.3701C321.518 88.2133 322.137 86.9994 322.757 85.8846C322.069 85.155 321.335 84.5433 320.808 83.7861C319.613 82.0675 319.62 80.1889 320.388 78.2948C320.657 77.6288 320.974 76.9765 321.335 76.3562C321.447 76.1631 321.77 76.018 322.004 76.005C322.115 75.9988 322.317 76.3413 322.358 76.5496C322.772 78.6501 324.007 80.0753 325.833 81.116C328.08 82.397 330.465 83.3052 332.97 83.8553C334.45 84.1805 335.981 84.3212 337.498 84.4237C339.26 84.5428 341.031 84.5662 342.799 84.5643C345.039 84.5618 347.233 84.1717 349.42 83.6957C353.169 82.8796 356.823 81.75 360.436 80.4726C361.229 80.192 362.017 79.8949 363.008 79.5321C361.938 79.145 361.038 78.7768 360.112 78.4936C358.24 77.9207 356.353 77.4455 354.383 77.2703C352.313 77.0863 350.268 77.1516 348.223 77.4331C347.254 77.5664 346.298 77.7936 345.33 77.9345C345.078 77.9711 344.697 77.928 344.568 77.7663C344.446 77.6137 344.491 77.2052 344.613 76.9986C345.314 75.8087 345.965 74.5657 346.833 73.5072C347.254 72.9946 348.084 72.6897 348.779 72.5614C350.483 72.2465 352.212 72.051 353.938 71.8779C355.723 71.6989 357.517 71.6081 359.306 71.4662C359.665 71.4377 360.021 71.3531 360.476 71.2783C360.405 70.4815 360.358 69.6641 360.255 68.8537C360.12 67.789 359.946 66.7291 359.781 65.6685C359.597 64.4822 359.412 63.2958 359.211 62.1124C358.927 60.4456 358.628 58.7814 358.333 57.1165C358.131 55.9788 357.904 54.8452 357.728 53.7037C357.553 52.5766 357.412 51.4437 357.283 50.3102C357.082 48.5374 356.659 46.8345 355.831 45.2427C355.391 44.3967 355.51 44.1306 356.028 43.3771C356.528 42.6504 356.867 41.8122 357.277 41.0231C357.452 40.6859 357.598 40.3285 357.813 40.0192C357.943 39.8321 358.212 39.5742 358.36 39.608C358.581 39.6584 358.821 39.9035 358.928 40.1264C359.202 40.697 359.34 41.3404 359.655 41.8836C360.357 43.0972 361.104 44.2881 361.891 45.4484C362.416 46.2232 362.423 46.8841 361.756 47.5788C361.421 47.9276 361.068 48.2589 360.742 48.6153C360.179 49.2306 360.302 49.9474 360.438 50.681C360.598 51.5457 360.709 52.4197 360.836 53.2904C361.056 54.7997 361.283 56.3083 361.488 57.8198C361.679 59.2285 361.837 60.6417 362.024 62.0511C362.228 63.5858 362.501 65.1132 362.648 66.6531C362.854 68.8199 363.18 71.0178 362.019 73.0539C361.84 73.368 361.615 73.6557 361.414 73.9524C365.137 75.8341 369.18 76.5635 373.352 77.0294Z" fill="white"/>
<path d="M115.694 78.4455C115.099 77.7958 114.458 77.236 113.992 76.5551C113.027 75.1455 112.485 73.5549 112.654 71.8291C112.843 69.8949 113.26 68.001 114.005 66.1901C114.538 64.8934 115.152 63.6481 116.19 62.681C117.742 61.2357 119.528 60.1026 121.607 59.7417C123.117 59.4795 124.725 59.5518 126.185 60.2307C127.525 60.8537 128.862 61.4964 130.142 62.2318C130.591 62.4897 130.896 63.0293 131.217 63.4758C131.565 63.9584 131.169 64.2298 130.806 64.2952C130.449 64.3596 130.034 64.2668 129.678 64.1443C128.925 63.8848 128.201 63.5386 127.45 63.2694C126.439 62.9068 125.435 63.2307 124.486 63.4957C122.844 63.9544 121.225 64.5174 119.63 65.1264C117.372 65.9884 116.136 67.7489 115.846 70.093C115.738 70.9652 116.258 71.8164 116.885 72.4919C118.281 73.9941 119.986 74.8848 121.996 75.3292C124.986 75.9904 127.701 75.1539 130.363 73.9815C132.124 73.206 133.836 72.3197 135.561 71.4644C135.977 71.2582 136.345 70.9548 136.757 70.7397C137.096 70.5625 137.469 70.4498 137.903 70.2785C138.021 71.5985 137.487 72.6093 137.245 73.6808C136.991 74.8029 136.41 75.4628 135.299 75.9513C131.543 77.6041 127.865 79.4369 124.136 81.1568C121.816 82.2275 119.496 83.3196 117.103 84.2063C115.746 84.7092 114.246 84.8271 112.807 85.1001C111.409 85.3653 110.005 85.3051 108.677 84.8189C107.615 84.4298 106.622 83.8493 105.593 83.3511C105.116 84.4026 104.645 85.5774 104.06 86.6927C103.453 87.8532 102.463 88.4597 101.117 88.5583C99.0269 88.7115 97.4339 87.7165 95.8921 86.5043C95.7294 86.3763 95.2679 86.3685 95.1401 86.4986C93.1329 88.5394 90.7446 88.7817 88.1324 88.0831C86.0141 87.5166 84.1261 86.4869 82.3711 85.1956C81.9493 84.8852 81.6122 85.0497 81.201 85.2197C79.4259 85.9538 77.6362 86.6523 75.8485 87.3554C75.2512 87.5903 74.4818 87.6464 74.0876 88.0656C73.7006 88.4772 73.6843 89.2448 73.5158 89.859C72.5541 93.3629 71.3758 96.7848 69.7675 100.05C68.0033 103.632 65.1658 105.908 61.3441 106.868C60.1048 107.18 58.7706 107.135 57.4772 107.2C54.8306 107.332 52.2483 106.904 49.7752 105.994C47.9152 105.311 46.122 104.441 44.3122 103.624C44.0305 103.497 43.7833 103.241 43.5842 102.993C43.266 102.596 43.6167 101.903 44.1541 101.93C44.7197 101.958 45.3129 102.041 45.8338 102.25C47.6214 102.97 49.4766 103.37 51.3743 103.639C54.1385 104.031 56.821 103.575 59.4511 102.812C61.2261 102.296 62.7367 101.252 64.1357 100.031C65.9892 98.412 67.3246 96.4036 68.508 94.2895C69.3668 92.7553 70.0973 91.1483 70.8745 89.5686C70.9612 89.3923 70.9794 89.1821 71.0567 88.8814C70.8645 88.9635 70.7948 88.9983 70.7218 89.0237C69.669 89.3904 69.094 89.1663 68.6978 88.1309C68.3652 87.2614 68.1615 86.3421 67.8258 85.474C67.6114 84.9196 67.859 84.6169 68.2737 84.4513C69.2511 84.061 70.2525 83.7302 71.2486 83.3881C73.3245 82.6753 75.4201 82.0169 77.4755 81.2493C79.3131 80.5631 81.0995 79.7401 82.9243 79.0177C83.7677 78.6838 84.1882 79.0102 84.1755 79.9283C84.1689 80.4026 84.0983 80.8763 84.0496 81.3495C84.0014 81.8187 84.0647 82.1437 84.6281 82.3101C86.6551 82.9086 88.6896 83.4084 90.8258 83.2484C92.139 83.1499 93.2559 82.6083 94.2837 81.7856C95.9338 80.4649 96.8862 78.7259 97.4997 76.7473C97.6153 76.3742 97.8274 76.0116 98.3339 76.1048C98.8351 76.1972 98.8197 76.5838 98.8056 76.9663C98.8023 77.0544 98.8213 77.1469 98.8012 77.2303C98.477 78.5745 98.1634 79.9215 97.8103 81.2581C97.7154 81.6174 97.7335 81.8405 98.1088 81.967C99.3674 82.3913 100.605 82.9003 101.89 83.2134C102.493 83.3603 103.144 83.0247 103.545 82.4562C104.456 81.1649 104.648 79.6252 105.001 78.1405C105.133 77.5846 105.303 77.0372 105.466 76.4892C105.628 75.9469 106.085 75.8559 106.501 76.0029C106.717 76.0789 106.837 76.4684 106.964 76.7335C107.016 76.8408 107.007 77.0053 106.968 77.1246C106.583 78.2988 107.386 78.8613 108.2 79.2531C108.944 79.612 109.805 79.8876 110.62 79.9056C112.174 79.94 113.734 79.7855 115.288 79.6627C115.715 79.6289 116.13 79.4299 116.391 79.3536C116.185 79.0833 115.956 78.782 115.694 78.4455Z" fill="white"/>
<path d="M224.588 86.7287C225.994 87.8804 227.554 88.5603 229.32 88.6666C230.844 88.7583 232.379 88.8786 233.896 88.7796C235.729 88.66 237.577 88.4497 239.369 88.0545C243.612 87.1188 247.645 85.5266 251.638 83.8341C252.197 83.5971 252.76 83.3697 253.321 83.1379C253.325 83.0575 253.329 82.9771 253.333 82.8967C250.445 82.1339 247.577 81.2805 244.662 80.6413C242.828 80.2391 240.934 80.2476 239.035 80.4398C237.366 80.6087 235.749 80.8867 234.18 81.4805C233.994 81.5508 233.643 81.4979 233.531 81.3645C233.41 81.2198 233.383 80.8608 233.479 80.6871C234.26 79.2774 234.955 77.7902 235.943 76.5392C236.393 75.9699 237.422 75.7201 238.228 75.6046C240.399 75.2934 242.593 75.14 244.776 74.9082C245.841 74.7951 246.901 74.6308 247.967 74.5204C248.647 74.4499 248.826 74.0658 248.725 73.4594C248.545 72.3813 248.379 71.3006 248.177 70.2267C247.846 68.4632 247.492 66.7039 247.144 64.9435C246.673 62.5547 246.193 60.1676 245.727 57.7777C245.314 55.6589 244.85 53.5471 244.528 51.4141C244.206 49.2837 243.434 47.3622 242.26 45.5842C241.717 44.7631 241.771 44.2689 242.309 43.4192C242.922 42.452 243.425 41.4148 244.018 40.4342C244.193 40.1458 244.51 39.7623 244.767 39.7585C245.019 39.7547 245.383 40.1303 245.515 40.4227C246.445 42.4721 247.755 44.2568 249.211 45.9458C249.867 46.7068 249.777 47.5028 248.915 48.4517C248.58 48.8208 248.297 49.2543 247.91 49.5556C247.048 50.228 247.24 51.085 247.43 51.9301C248.112 54.964 248.824 57.9908 249.514 61.0229C250.001 63.1633 250.499 65.302 250.94 67.4521C251.326 69.3344 251.549 71.258 251.326 73.1637C251.158 74.6006 250.681 76.0011 250.317 77.5164C251.429 77.8554 252.657 78.3369 253.929 78.5948C256.269 79.069 258.627 79.4692 260.992 79.7912C262.935 80.0557 264.897 80.1826 266.854 80.3306C268.004 80.4175 269.16 80.419 270.312 80.4743C270.784 80.4969 271.273 80.4979 271.716 80.6356C271.888 80.689 272.1 81.1429 272.038 81.3278C271.797 82.0476 271.482 82.7471 271.139 83.4262C270.853 83.9932 270.513 84.5369 270.155 85.0624C269.739 85.6739 269.17 85.1629 268.68 85.1837C268.112 85.2078 267.538 85.0193 266.963 84.9775C266.009 84.9082 265.051 84.8224 264.097 84.8493C260.937 84.9384 257.864 85.539 254.946 86.7605C253.059 87.5503 251.273 88.5821 249.388 89.3757C247.541 90.1533 245.659 90.8834 243.733 91.424C240.981 92.1968 238.185 92.8274 235.388 93.4221C233.842 93.7507 232.255 94.0618 230.687 94.0639C227.763 94.0677 224.862 93.7005 222.484 91.7332C221.47 90.8935 220.718 89.7649 220.296 88.5222C219.635 86.5799 219.069 84.599 218.587 82.604C218.316 81.4803 218.329 80.2904 218.154 79.1394C217.861 77.2116 217.525 75.2903 217.199 73.3677C216.956 71.932 216.691 70.4999 216.452 69.0635C216.216 67.646 216.013 66.2229 215.773 64.8062C215.53 63.3714 215.248 61.9432 215.003 60.5087C214.768 59.1351 214.571 57.755 214.334 56.3817C214.087 54.9484 213.82 53.5186 213.548 52.0897C213.357 51.0835 213.097 50.0878 212.962 49.0747C212.904 48.6356 213.043 48.1533 213.163 47.7102C213.453 46.647 213.77 45.5906 214.112 44.5435C214.173 44.3576 214.41 44.2298 214.566 44.0753C214.754 44.2679 215.063 44.4339 215.112 44.6574C215.583 46.803 216.027 48.955 216.444 51.1119C216.814 53.0237 217.156 54.9414 217.481 56.8613C217.772 58.5745 218.014 60.2959 218.296 62.0106C218.588 63.7857 218.91 65.5558 219.205 67.3305C219.482 69.0021 219.719 70.6805 220.011 72.3493C220.384 74.4768 220.783 76.5999 221.191 78.7208C221.433 79.976 221.681 81.2318 221.988 82.472C222.402 84.1405 223.287 85.5401 224.588 86.7287Z" fill="white"/>
<path d="M182.183 88.4161C181.271 88.7376 180.479 88.3785 179.73 88.0843C178.018 87.4107 176.478 86.4637 175.507 84.8036C175.451 84.7086 175.376 84.6253 175.261 84.4714C172.622 86.92 169.45 87.5955 165.993 87.4843C165.993 88.7859 166.033 90.0365 165.985 91.2835C165.868 94.2839 165.182 97.1695 163.441 99.6197C162.634 100.755 161.367 101.614 160.187 102.419C157.94 103.952 155.444 104.961 152.74 105.341C151.269 105.548 149.774 105.767 148.299 105.715C146.13 105.638 143.982 105.258 141.978 104.326C140.145 103.474 138.617 102.252 137.628 100.462C136.994 99.3149 136.74 98.0288 136.618 96.7262C136.554 96.0333 136.466 95.3344 136.494 94.6425C136.588 92.2947 137.05 90.0159 137.911 87.8264C138.392 86.6048 138.862 85.3777 139.396 84.1797C139.592 83.7405 139.937 83.3599 140.254 82.9865C140.5 82.6959 140.851 82.6295 141.159 82.8825C141.461 83.1298 141.516 83.4673 141.346 83.8397C140.676 85.3025 139.897 86.7282 139.374 88.2425C138.396 91.0688 138.652 93.8252 140.311 96.3701C140.992 97.4149 141.891 98.2555 143.037 98.7646C144.193 99.2779 145.346 99.8464 146.558 100.17C148.578 100.71 150.654 100.693 152.737 100.471C154.782 100.254 156.646 99.556 158.444 98.6083C160.655 97.4433 162.386 95.7502 163.511 93.544C163.846 92.8877 163.748 91.8726 163.548 91.1005C162.611 87.4834 161.455 83.9352 159.839 80.5541C159.769 80.4083 159.759 80.1936 159.807 80.0374C160.249 78.5996 160.697 77.1634 161.178 75.7385C161.251 75.5203 161.562 75.1789 161.659 75.2111C161.947 75.3064 162.286 75.5059 162.421 75.7623C162.824 76.5292 163.151 77.3377 163.486 78.1392C163.894 79.1164 164.273 80.1063 164.685 81.0817C164.741 81.2125 164.904 81.343 165.043 81.3852C166.678 81.8795 168.296 82.3722 170.051 82.3518C171.732 82.3322 173.099 81.6683 174.377 80.7071C175.864 79.5892 177.007 78.1872 177.705 76.4413C177.768 76.2837 177.8 76.0746 177.918 75.9855C178.193 75.7771 178.654 75.4106 178.786 75.4975C179.083 75.693 179.427 76.1483 179.391 76.4561C179.295 77.2916 179.037 78.113 178.794 78.925C178.636 79.4502 178.367 79.9413 178.201 80.4646C178.152 80.6198 178.218 80.9167 178.337 81.0051C179.48 81.8535 180.648 82.6389 182.064 83.0099C182.766 83.194 183.229 82.955 183.5 82.4229C184.122 81.2007 184.682 79.9444 185.218 78.6808C185.631 77.7078 185.942 76.6915 186.356 75.719C186.468 75.4552 186.752 75.1935 187.019 75.0825C187.606 74.8388 188.084 75.1648 187.972 75.7856C187.768 76.911 187.436 78.0132 187.151 79.1232C187.099 79.3255 187.013 79.5189 186.925 79.7662C187.893 80.3544 188.94 80.7125 190.062 80.8685C191.893 81.1228 193.294 80.1917 194.709 79.2293C196.948 77.7052 198.188 75.3585 199.722 73.2458C200.503 72.1691 201.347 71.1361 202.201 70.1153C202.64 69.5902 203.21 69.1734 203.638 68.6406C204.741 67.2679 206.712 67.4312 208.076 68.2794C209.458 69.1396 209.987 70.455 210.27 71.9814C210.757 74.6049 210.654 77.2487 210.634 79.8891C210.629 80.4469 210.43 81.0182 210.242 81.5557C210.012 82.2145 209.701 82.8452 209.422 83.4865C209.169 84.0664 208.706 84.2847 208.095 84.3142C206.517 84.3903 205.056 83.8717 203.624 83.344C201.981 82.7386 200.399 81.9651 198.792 81.2634C198.733 81.2378 198.681 81.1977 198.625 81.1672C197.531 80.5764 197.553 80.5923 196.815 81.631C196.256 82.4174 195.688 83.2111 195.023 83.9046C193.963 85.012 192.61 85.6239 191.109 85.8957C188.951 86.2864 186.888 85.9937 184.923 85.012C184.85 84.9754 184.758 84.9768 184.679 84.9613C184.205 85.8297 183.779 86.7109 183.252 87.527C183.019 87.8898 182.583 88.1213 182.183 88.4161ZM205.351 78.0838C206.045 78.2621 206.736 78.4583 207.436 78.6132C208.016 78.7418 208.145 78.6059 207.922 78.0578C207.404 76.7861 206.88 75.5149 206.288 74.2775C206.097 73.8792 205.735 73.5151 205.366 73.2608C204.352 72.5616 202.926 73.0605 202.145 73.76C201.579 74.2671 201.136 74.9133 200.645 75.4898C201.452 76.5629 203.184 77.3424 205.351 78.0838Z" fill="white"/>
<path d="M304.486 75.0852C304.118 75.5474 303.833 76.0319 303.429 76.3776C302.903 76.8289 302.465 76.7121 302.086 76.1531C301.823 75.7665 301.595 75.3512 301.296 74.9954C300.201 73.6912 299.003 73.9792 297.822 74.763C297.608 74.9048 297.41 75.0717 297.213 75.2374C296.44 75.8888 296.447 76.2732 296.999 76.9575C298.151 78.3838 299.601 79.4387 301.501 79.6766C302.203 79.7644 302.914 79.9718 303.605 79.9163C305.03 79.8018 306.444 79.5393 307.864 79.3549C308.334 79.2938 308.812 79.2858 309.453 79.2422C309.144 79.89 308.925 80.4292 308.639 80.9305C308.323 81.485 307.896 81.9792 307.611 82.547C307.345 83.0762 306.892 83.1364 306.419 83.2534C304.469 83.7362 302.477 84.1034 300.586 84.7601C298.656 85.43 296.823 86.3811 294.955 87.227C294.436 87.4624 293.95 87.772 293.438 88.0271C293.165 88.1634 292.87 88.256 292.481 88.4091C292.403 87.1766 292.796 86.0803 293.412 85.3828C294.292 84.3866 295.573 83.7481 296.663 82.9713C295.751 82.3682 294.744 81.6407 293.679 81.0139C292.079 80.0721 292.262 77.9898 293.04 76.8863C294.123 75.3494 295.368 73.9681 296.729 72.6892C297.823 71.6615 298.983 70.6953 300.401 70.1502C302.107 69.4943 303.633 69.8837 304.839 71.4532C305.096 71.787 305.435 72.162 305.465 72.5401C305.504 73.02 305.313 73.5394 305.135 74.0095C304.996 74.3802 304.727 74.7021 304.486 75.0852Z" fill="white"/>
<path d="M279.553 80.3334C279.553 81.987 279.638 83.5814 279.528 85.162C279.42 86.7203 279.13 88.2674 278.881 89.8131C278.82 90.1909 278.618 90.6466 278.129 90.499C277.895 90.4286 277.694 90.0604 277.593 89.7847C277.477 89.472 277.465 89.113 277.449 88.7722C277.353 86.8089 277.306 84.8424 277.17 82.882C277.045 81.0693 276.864 79.2588 276.646 77.4548C276.375 75.2124 276.036 72.9783 275.735 70.7396C275.465 68.7348 275.216 66.7271 274.938 64.7234C274.691 62.9357 274.389 61.1553 274.161 59.3653C273.948 57.694 273.831 56.0103 273.615 54.3393C273.338 52.1844 272.999 50.0351 273.103 47.8534C273.178 46.2817 273.591 44.7781 274.207 43.3405C274.297 43.1306 274.701 43.0566 275.122 42.8339C275.305 43.8918 275.486 44.7433 275.594 45.6041C275.876 47.8511 276.123 50.1026 276.391 52.3514C276.605 54.1488 276.809 55.9478 277.055 57.7408C277.385 60.1463 277.777 62.5435 278.095 64.9504C278.353 66.8968 278.559 68.8507 278.758 70.8042C278.996 73.1297 279.21 75.4577 279.416 77.7862C279.489 78.611 279.509 79.4407 279.553 80.3334Z" fill="white"/>
<path d="M385.999 69.996C386.131 71.5244 386.3 72.989 386.385 74.4586C386.508 76.5961 386.682 78.7403 386.625 80.8761C386.57 82.9736 386.478 85.0976 385.738 87.1116C385.562 87.5907 385.435 88.2348 384.79 88.1109C384.217 88.0007 384.162 87.3793 384.158 86.8607C384.147 85.5818 384.188 84.3016 384.146 83.024C384.095 81.5006 384.008 79.9769 383.883 78.4579C383.742 76.7566 383.566 75.0572 383.357 73.3629C383.077 71.0781 382.736 68.8008 382.449 66.5166C382.285 65.2087 382.191 63.8921 382.043 62.582C381.884 61.1688 381.683 59.7603 381.528 58.3468C381.414 57.3128 381.336 56.2745 381.259 55.2369C381.201 54.4549 381.15 53.6714 381.128 52.8877C381.082 51.2047 381.531 49.6246 382.222 48.1154C382.341 47.8568 382.71 47.714 382.963 47.5177C383.141 47.771 383.417 48.0026 383.478 48.2818C383.625 48.95 383.682 49.6395 383.757 50.3223C383.938 51.9536 384.111 53.5858 384.282 55.2182C384.42 56.5296 384.53 57.8441 384.687 59.1531C384.836 60.3908 385.045 61.621 385.2 62.858C385.353 64.0791 385.467 65.305 385.605 66.5281C385.732 67.664 385.867 68.799 385.999 69.996Z" fill="white"/>
<path d="M289.206 64.7509C291.206 63.2722 293.181 61.8408 295.132 60.3778C296.406 59.4223 297.674 58.4495 298.554 57.0772C298.644 56.9357 298.716 56.7821 298.771 56.6825C297.479 55.7017 296.196 54.7523 294.943 53.765C294.417 53.3502 294.241 52.6802 294.332 52.0826C294.604 50.3058 295.219 48.6433 296.53 47.354C297.186 46.7078 297.896 46.0815 298.679 45.6086C299.483 45.1228 301.041 45.6032 301.534 46.4038C302.544 48.0437 302.983 49.8165 302.612 51.7466C302.44 52.6462 302.264 53.5454 302.115 54.449C302.092 54.5888 302.162 54.8022 302.265 54.8942C302.632 55.2201 303.05 55.4883 303.416 55.815C304.038 56.371 303.803 57.1159 303.741 57.7841C303.697 58.2573 303.488 58.7206 303.313 59.1732C303.239 59.3657 303.056 59.6673 302.939 59.6599C302.693 59.6444 302.42 59.5003 302.225 59.3314C301.773 58.9397 301.376 58.4835 300.923 58.0935C300.783 57.9728 300.532 57.9812 300.343 57.9333C298.788 60.8679 296.533 63.0035 293.667 64.5061C292.13 65.3118 290.587 66.1048 289.044 66.8991C288.895 66.9762 288.72 67.0887 288.573 67.0687C288.283 67.0292 287.887 66.989 287.754 66.7966C287.637 66.6265 287.725 66.1694 287.887 65.9793C288.262 65.5362 288.737 65.1775 289.206 64.7509ZM300.368 52.3286C300.191 51.3885 300.14 50.4004 299.805 49.5209C299.433 48.5409 298.753 48.1221 297.995 48.656C297.713 48.855 297.461 49.1216 297.254 49.4008C296.45 50.482 296.519 50.8184 297.648 51.5993C297.806 51.7084 297.957 51.827 298.116 51.9351C298.806 52.4064 299.498 52.8755 300.368 53.4666C300.368 52.9924 300.368 52.7213 300.368 52.3286Z" fill="white"/>
<path d="M344.354 45.7409C345.928 45.0872 347.308 45.9472 347.917 47.3091C349.015 49.7646 348.697 52.252 347.981 54.7918C348.257 55.0258 348.542 55.3318 348.884 55.5444C349.875 56.1608 349.86 57.0562 349.616 58.0218C349.513 58.4324 349.387 58.8401 349.234 59.2343C349.167 59.4057 348.997 59.6708 348.888 59.6641C348.647 59.6491 348.356 59.5473 348.19 59.3774C347.635 58.8077 347.123 58.1966 346.484 57.9828C345.487 59.2757 344.64 60.5741 343.594 61.683C342.267 63.0895 340.567 64.0408 338.884 64.9646C337.568 65.687 336.2 66.3156 334.848 66.9709C334.665 67.0598 334.427 67.1248 334.236 67.0877C333.964 67.0348 333.567 66.9361 333.492 66.7484C333.41 66.5453 333.555 66.1184 333.743 65.9602C334.794 65.0779 335.883 64.2409 336.968 63.4006C339.168 61.6968 341.385 60.0156 343.566 58.2879C343.958 57.9777 344.233 57.5046 344.51 57.0729C344.586 56.9554 344.539 56.6261 344.433 56.5445C343.301 55.6711 342.143 54.8326 341 53.9751C340.234 53.4012 340.156 52.5424 340.305 51.7326C340.773 49.177 342.143 47.1945 344.354 45.7409ZM342.657 50.5106C342.755 50.7359 342.791 51.04 342.961 51.1733C343.799 51.831 344.665 52.453 345.537 53.0651C345.751 53.2152 346.024 53.2805 346.342 53.4153C346.357 51.8824 346.292 50.5244 345.564 49.282C345.035 48.3807 344.467 48.2056 343.751 48.8944C343.311 49.3181 343.018 49.8967 342.657 50.5106Z" fill="white"/>
<path d="M184.003 51.5802C176.792 54.8328 169.621 58.0552 162.444 61.2619C162.244 61.3514 161.969 61.2732 161.732 61.2732C161.5 60.1418 162.465 58.4061 163.487 57.9596C165.385 57.1301 167.257 56.2413 169.149 55.3962C172.196 54.0346 175.255 52.6962 178.301 51.3326C179.865 50.6329 181.409 49.8901 182.97 49.1848C184.452 48.5154 185.939 47.858 187.437 47.2254C187.668 47.1277 187.967 47.1911 188.234 47.1801C188.199 47.4514 188.209 47.7391 188.119 47.9903C187.983 48.3683 187.764 48.7156 187.602 49.0853C187.298 49.7798 186.848 50.2922 186.112 50.5749C185.403 50.8471 184.732 51.2194 184.003 51.5802Z" fill="white"/>
<path d="M99.6919 46.2846C96.4829 47.6572 93.3148 48.998 90.1449 50.3345C86.8975 51.7036 83.6494 53.0709 80.399 54.4327C79.8612 54.658 79.3224 54.9004 78.761 55.0429C78.3237 55.1539 78.1857 54.9156 78.3772 54.484C78.4791 54.2546 78.529 53.9964 78.5695 53.7458C78.7718 52.496 79.647 51.9205 80.715 51.4828C82.9211 50.5786 85.1098 49.6316 87.3091 48.7105C89.6441 47.7325 91.9868 46.7731 94.3191 45.7888C96.4391 44.8942 98.5489 43.9756 100.665 43.0706C101.848 42.5642 103.03 42.0523 104.224 41.5695C104.512 41.4526 104.844 41.4413 105.248 41.3635C105.248 41.6175 105.312 41.8347 105.238 41.9811C104.638 43.1652 104.229 44.4952 102.778 45.0084C101.746 45.3736 100.746 45.8334 99.6919 46.2846Z" fill="white"/>
<path d="M97.5332 69.8623C97.1954 69.586 96.895 69.343 96.5162 69.0367C95.8793 69.7974 95.2411 70.5737 94.5867 71.336C94.2451 71.7338 94.0028 72.2935 93.3549 72.2669C93.0444 72.2541 92.6622 72.2689 92.4408 72.1007C91.4152 71.3217 90.4116 70.509 89.4465 69.6555C88.864 69.1404 88.9299 68.5628 89.4439 67.9639C90.2142 67.0665 90.959 66.1461 91.6904 65.2162C92.0523 64.7559 92.6196 64.7024 93.0709 65.1134C93.8266 65.8017 94.6166 66.453 95.3532 67.1608C95.7147 67.5081 95.9126 67.3387 96.1439 67.055C96.9328 66.0878 97.7038 65.1049 98.5194 64.161C99.0019 63.6027 99.243 63.6857 99.8023 64.1839C100.879 65.1429 101.985 66.0718 103.126 66.9521C103.57 67.2948 103.7 67.5026 103.293 67.9689C102.431 68.9576 101.616 69.9881 100.788 71.0061C100.401 71.481 99.8834 71.4748 99.4482 71.2254C98.786 70.846 98.1929 70.345 97.5332 69.8623Z" fill="white"/>
<path d="M63.8004 73.3612C62.24 74.0306 60.712 74.6473 59.2041 75.31C57.8707 75.896 56.5646 76.5443 55.2346 77.1386C54.9606 77.261 54.6345 77.2657 54.2124 77.348C54.4545 76.1393 54.1645 74.8917 55.1975 74.079C55.7236 73.665 56.3552 73.3668 56.9732 73.0939C58.8469 72.2663 60.7385 71.4798 62.6207 70.6713C64.6593 69.7956 66.699 68.9221 68.7312 68.0313C70.7631 67.1406 72.785 66.2267 74.8149 65.3311C75.0814 65.2135 75.3689 65.1443 75.6561 65.0496C75.9112 66.3274 75.0462 68.1974 73.7392 68.9385C72.4929 69.6453 71.1664 70.2149 69.8546 70.7982C68.1181 71.5705 66.3622 72.299 64.6129 73.0422C64.3607 73.1493 64.0989 73.2337 63.8004 73.3612Z" fill="white"/>
<path d="M321.702 52.2801C320.458 53.2702 318.994 53.6634 317.566 54.1256C316.581 54.4444 315.588 54.7473 314.58 54.9764C314.28 55.0447 313.918 54.8392 313.584 54.7592C313.689 54.4528 313.706 54.0462 313.916 53.8601C314.406 53.4269 314.964 53.0555 315.538 52.7383C317.115 51.8663 318.716 51.0364 320.305 50.1855C320.471 50.0965 320.622 49.9788 320.935 49.772C319.93 49.4292 319.082 49.0598 318.196 48.8552C316.623 48.4922 315.075 48.6452 313.679 49.514C313.149 49.8433 312.635 50.2678 312.265 50.7631C311.965 51.1653 311.68 51.2774 311.218 51.1962C310.998 50.4496 311.417 49.8339 311.709 49.2161C312.558 47.4198 313.929 46.1541 315.858 45.6858C317.515 45.2836 319.18 45.5042 320.806 46.0533C321.986 46.4518 323.196 46.7607 324.39 47.1193C324.729 47.221 325.057 47.3571 325.524 47.526C325.107 48.5123 324.735 49.4209 324.332 50.315C324.261 50.4725 324.064 50.5801 323.912 50.6925C323.194 51.2237 322.472 51.7487 321.702 52.2801Z" fill="white"/>
<path d="M202.076 97.4095C199.536 98.4211 197.048 99.4304 194.52 100.456C194.263 98.1653 195.117 96.9398 197.319 96.0848C199.737 95.146 202.135 94.1539 204.539 93.1812C207.159 92.1217 209.779 91.0621 212.394 89.9915C212.785 89.8313 213.148 89.6018 213.532 89.4208C213.883 89.2551 214.244 89.1116 214.63 88.9459C214.898 90.3473 213.844 92.3442 212.488 92.9695C210.515 93.8797 208.502 94.7036 206.503 95.5576C205.047 96.1797 203.587 96.7911 202.076 97.4095Z" fill="white"/>
<path d="M122.517 46.9854C126.037 45.4825 129.503 43.9809 132.977 42.4969C133.162 42.4178 133.409 42.4867 133.784 42.4867C133.666 42.9027 133.547 43.267 133.461 43.6389C133.122 45.097 132.143 45.9511 130.832 46.5127C127.221 48.059 123.617 49.6187 120.005 51.1613C118.063 51.9907 116.112 52.7986 114.161 53.6077C113.955 53.6933 113.725 53.7214 113.499 53.7778C113.282 52.1515 113.995 50.6599 115.367 50.0444C117.716 48.9898 120.097 48.0046 122.517 46.9854Z" fill="white"/>
<path d="M227.905 37.721C229.224 37.1887 230.492 36.6637 231.758 36.1335C233.821 35.2691 235.883 34.4 237.946 33.5352C239.289 32.9723 240.63 32.4064 241.981 31.863C242.12 31.8072 242.366 31.8409 242.472 31.9352C242.561 32.0153 242.568 32.2558 242.53 32.4037C242.018 34.3727 240.696 35.4749 238.823 36.1561C236.704 36.927 234.659 37.9044 232.572 38.7676C230.076 39.7999 227.572 40.8109 225.067 41.8211C224.353 42.1089 223.626 42.3618 222.862 42.6467C222.672 40.9151 223.63 39.4173 225.05 38.8982C226 38.5506 226.919 38.1196 227.905 37.721Z" fill="white"/>
<path d="M94.3768 62.5737C93.5738 61.8708 92.7976 61.2104 92.0568 60.512C91.3905 59.8837 91.3976 59.6516 91.9694 58.9489C92.7431 57.9979 93.5051 57.037 94.2921 56.0973C94.61 55.7177 95.0311 55.7036 95.3681 56.0481C96.4438 57.1477 97.5524 58.1959 98.9077 58.9548C99.2605 59.1523 99.3279 59.4602 99.0162 59.8249C98.1342 60.8567 97.3135 61.9444 96.3855 62.931C96.1842 63.1451 95.625 63.0989 95.2498 63.043C94.9575 62.9995 94.6948 62.7549 94.3768 62.5737Z" fill="white"/>
<path d="M234.925 61.8423C235.393 61.3732 235.824 60.9348 236.262 60.5024C236.64 60.1282 237.062 60.1721 237.394 60.5759C237.875 61.1596 238.346 61.7563 238.88 62.2886C239.381 62.789 239.954 63.2183 240.503 63.6688C240.862 63.9628 240.911 64.1949 240.537 64.5639C239.635 65.452 238.791 66.3982 237.914 67.3111C237.473 67.7703 236.707 67.7868 236.252 67.3389C235.291 66.3917 234.336 65.438 233.398 64.4677C233.046 64.1036 233.049 63.7097 233.439 63.3342C233.934 62.8585 234.409 62.3627 234.925 61.8423Z" fill="white"/>
<path d="M317.666 66.7986C317.236 66.283 316.856 65.7887 316.443 65.3238C316.07 64.9047 316.132 64.4726 316.458 64.1272C317.41 63.1183 318.389 62.1327 319.393 61.1758C319.681 60.9013 320.024 60.8911 320.355 61.2854C321.318 62.4339 322.272 63.5977 323.565 64.4144C323.887 64.6179 323.942 64.9246 323.641 65.2379C322.749 66.1663 321.868 67.1044 320.975 68.0312C320.649 68.3695 319.785 68.4287 319.37 68.1256C318.801 67.711 318.255 67.2652 317.666 66.7986Z" fill="white"/>
<path d="M364.161 97.712C363.75 98.0782 363.481 98.6342 362.846 98.4615C362.554 98.3822 362.236 98.263 362.021 98.0627C361.131 97.2337 360.262 96.3804 359.415 95.5083C358.974 95.0554 359.13 94.5781 359.523 94.1744C360.397 93.277 361.301 92.4085 362.161 91.498C362.569 91.0657 362.892 91.1025 363.225 91.5399C364.129 92.7284 365.159 93.7802 366.406 94.6151C366.784 94.8684 366.695 95.1795 366.382 95.4837C365.641 96.2031 364.922 96.9451 364.161 97.712Z" fill="white"/>
</svg>
