<svg width="429" height="143" viewBox="0 0 429 143" fill="none" xmlns="http://www.w3.org/2000/svg">
<path d="M350.309 74.786C349.131 74.9613 348.015 75.1386 346.899 75.3106C346.478 75.3755 346.054 75.4284 345.448 75.512C345.54 75.0835 345.53 74.7235 345.687 74.4655C346.38 73.3271 347.139 72.2283 347.841 71.0951C348.316 70.3278 349.128 70.1114 349.876 69.9552C351.398 69.6376 352.948 69.4321 354.496 69.2793C356.407 69.0906 358.329 69.0084 360.245 68.8672C360.756 68.8295 361.264 68.7444 361.923 68.6625C361.813 67.6232 361.718 66.5588 361.585 65.499C361.423 64.2069 361.244 62.9163 361.045 61.6294C360.83 60.2417 360.587 58.8582 360.347 57.4744C360.061 55.8198 359.758 54.1679 359.473 52.513C359.246 51.191 359.031 49.8667 358.816 48.5427C358.593 47.178 358.44 45.7981 358.134 44.4525C357.941 43.6002 357.58 42.7714 357.191 41.9831C356.899 41.3925 356.9 40.9163 357.227 40.3526C357.872 39.241 358.462 38.0977 359.074 36.967C359.104 36.9113 359.11 36.8367 359.152 36.7943C359.367 36.5737 359.59 36.3607 359.811 36.1451C360.004 36.3571 360.248 36.5412 360.381 36.7857C361.187 38.2642 361.962 39.7589 362.759 41.2419C362.899 41.5015 363.088 41.7354 363.265 41.9738C364.289 43.3585 363.938 43.5717 363.014 44.756C362.661 45.2074 362.285 45.6406 361.948 46.1025C361.858 46.2257 361.823 46.4315 361.845 46.5875C361.996 47.6418 362.181 48.6911 362.331 49.7455C362.487 50.8466 362.607 51.9528 362.76 53.0545C362.959 54.4918 363.181 55.9258 363.381 57.363C363.533 58.4646 363.665 59.5691 363.809 60.6719C363.976 61.9434 364.178 63.2113 364.309 64.4865C364.526 66.6058 364.643 68.7224 363.423 70.6385C363.275 70.8716 363.101 71.0887 362.947 71.3023C364.784 72.4278 366.851 73.0345 368.92 73.5671C370.379 73.9423 371.904 74.0744 373.407 74.2513C375.221 74.4647 377.041 74.6185 378.86 74.7831C379.998 74.886 381.137 74.9634 382.276 75.048C383.182 75.1154 383.483 75.5201 383.115 76.3581C382.563 77.6136 381.938 78.8373 381.321 80.0628C381.26 80.1842 381.02 80.3129 380.892 80.2882C379.666 80.051 378.457 79.6538 377.223 79.5554C375.843 79.4454 374.436 79.5264 373.053 79.6567C371.679 79.7861 370.297 79.9877 368.96 80.3222C366.692 80.8895 364.428 81.5008 362.216 82.2505C359.587 83.1414 357.038 84.2674 354.41 85.1605C352.417 85.8375 350.371 86.3801 348.317 86.846C347.091 87.1241 345.809 87.1909 344.547 87.2608C342.249 87.3883 339.944 87.5581 337.648 87.5003C335.771 87.453 333.904 87.0917 332.03 86.8849C330.028 86.6639 328.172 85.981 326.375 85.1147C325.996 84.9321 325.816 85.0864 325.7 85.4024C324.552 88.5166 323.05 91.4658 321.01 94.0679C319.269 96.2899 317.016 97.9702 314.161 98.543C312.321 98.9119 310.462 98.911 308.578 98.6103C306.874 98.3383 305.167 98.1305 303.599 97.3845C301.755 96.5073 299.937 95.5732 298.13 94.6212C297.722 94.4064 297.181 94.1391 297.343 93.5122C297.451 93.0942 298.253 92.9409 298.906 93.1387C300.336 93.5719 301.748 94.094 303.205 94.4007C304.962 94.7705 306.729 95.0178 308.571 94.8073C310.23 94.6179 311.908 94.5359 313.469 93.9488C314.599 93.5237 315.712 92.943 316.685 92.2302C319.014 90.5243 320.666 88.2157 322.061 85.7163C322.452 85.0163 322.833 84.3113 323.233 83.5831C322.712 83.0996 322.208 82.6311 321.703 82.1652C320.373 80.94 319.984 79.4055 320.318 77.6855C320.58 76.3378 320.959 75.0121 321.763 73.8673C321.898 73.6758 322.192 73.5233 322.424 73.5053C322.536 73.4966 322.751 73.8293 322.79 74.032C323.217 76.2795 324.595 77.7563 326.53 78.8423C328.682 80.0504 330.963 80.9228 333.364 81.4296C334.989 81.7725 336.65 81.9708 338.305 82.1303C339.964 82.2901 341.639 82.4419 343.298 82.3763C345.088 82.3056 346.876 82.025 348.652 81.7546C353.099 81.0778 357.343 79.6462 361.582 78.2031C362.534 77.879 363.475 77.5216 364.537 77.1373C362.195 76.1669 359.919 75.3951 357.529 75.0666C355.889 74.8412 354.228 74.7556 352.572 74.6683C351.843 74.6298 351.105 74.742 350.309 74.786Z" fill="white"/>
<path d="M104.176 73.3585C105.163 73.265 105.315 73.4698 105.29 74.3411C105.276 74.8245 105.223 75.4124 105.46 75.7761C106 76.6044 106.901 77.0122 107.842 77.2802C109.48 77.7471 111.123 77.5287 112.762 77.2849C113.548 77.168 114.33 77.0231 115.114 76.8909C115.12 76.8234 115.126 76.7557 115.133 76.6882C114.755 76.3541 114.363 76.0348 114.002 75.6833C112.761 74.4744 111.76 73.0812 111.425 71.3694C111.228 70.3586 111.208 69.2643 111.361 68.2453C111.576 66.811 111.966 65.3942 112.385 64.0009C113.413 60.5798 115.853 58.4944 119.048 57.1757C121.188 56.2924 123.325 56.5774 125.389 57.3973C126.695 57.9161 127.934 58.6137 129.17 59.2908C129.574 59.5122 129.933 59.8807 130.202 60.2602C130.364 60.4888 130.441 60.9369 130.321 61.1599C130.21 61.3649 129.776 61.5098 129.501 61.4859C129.074 61.4487 128.592 61.3417 128.255 61.0965C126.865 60.0837 125.328 60.1497 123.823 60.5439C121.933 61.0389 120.037 61.5904 118.245 62.3544C116.294 63.1857 115.038 64.7159 114.588 66.8818C114.359 67.9797 114.785 68.8205 115.398 69.5591C116.878 71.3434 118.812 72.3728 121.097 72.831C123.048 73.2222 124.893 72.8797 126.742 72.33C129.302 71.5686 131.693 70.412 134.055 69.1939C134.786 68.8174 135.448 68.3108 136.164 67.904C136.382 67.78 136.823 67.6671 136.905 67.7649C137.077 67.9697 137.195 68.3487 137.129 68.6017C136.802 69.8431 136.415 71.069 136.028 72.2938C135.969 72.4815 135.839 72.7165 135.678 72.7924C132.357 74.3542 129.03 75.9057 125.696 77.4388C123.015 78.6715 120.343 79.9293 117.625 81.0763C115.819 81.8383 113.97 82.4969 111.977 82.6925C110.332 82.854 108.699 82.9434 107.132 82.3872C106.169 82.0455 105.244 81.5499 104.376 81.0057C103.857 80.6806 103.844 80.9471 103.695 81.2947C103.212 82.4145 102.753 83.5496 102.186 84.6263C101.606 85.7257 100.506 86.0698 99.3635 86.2127C97.4608 86.4507 95.9341 85.5862 94.5136 84.4582C94.2115 84.2183 93.9106 83.977 93.6372 83.7587C92.9211 84.2923 92.224 84.8533 91.4853 85.3529C90.3198 86.1412 88.9777 86.1933 87.6499 86.0699C85.6356 85.8828 83.8338 85.0244 82.0756 84.0876C81.5541 83.8097 81.0275 83.5084 80.585 83.1237C80.0131 82.6265 79.4935 82.5253 78.7665 82.8212C76.5254 83.7333 74.2557 84.5758 71.9922 85.4322C71.4278 85.6457 71.5058 86.2096 71.399 86.5972C70.49 89.8956 69.3713 93.1175 67.9362 96.2208C67.3177 97.5581 66.5997 98.8563 65.8383 100.119C64.8823 101.704 63.4041 102.771 61.8356 103.664C59.7797 104.835 57.5425 105.274 55.1563 105.307C50.3045 105.374 45.811 104.149 41.5487 101.93C41.1008 101.697 40.6683 101.403 40.3021 101.059C40.138 100.904 40.0596 100.531 40.1212 100.306C40.1697 100.128 40.4928 99.9122 40.6932 99.9131C41.1984 99.9152 41.7363 99.9416 42.2023 100.116C43.8717 100.739 45.5556 101.296 47.3381 101.46C48.6702 101.583 50.0175 101.787 51.3415 101.701C54.7508 101.48 58.0014 100.709 60.7553 98.4878C62.6571 96.9535 64.1061 95.0491 65.3016 92.9597C66.4221 91.0012 67.4039 88.9631 68.4406 86.9569C68.4834 86.8741 68.4645 86.7593 68.4758 86.6435C66.6663 87.1073 66.6015 87.0281 65.813 85.3207C65.5059 84.6556 65.2763 83.9468 65.0874 83.2376C64.9447 82.702 65.0584 82.1885 65.6803 81.9831C66.9989 81.5477 68.328 81.1434 69.6426 80.6966C71.5163 80.0598 73.3963 79.4369 75.245 78.7328C77.1125 78.0216 78.9403 77.2066 80.7959 76.4627C81.3929 76.2234 81.8669 76.5523 81.8732 77.2022C81.8786 77.7598 81.7902 78.3179 81.7576 78.8766C81.7329 79.2988 81.6528 79.6921 82.2713 79.8621C84.2748 80.4127 86.2692 80.9084 88.38 80.8502C89.8916 80.8084 91.1429 80.22 92.265 79.3096C93.8508 78.023 94.9028 76.3539 95.5471 74.4231C95.5804 74.3233 95.5749 74.1998 95.633 74.1209C95.8794 73.7864 96.078 73.2484 96.6096 73.4956C97.0855 73.7169 97.0375 74.1982 96.9273 74.6765C96.5721 76.2188 96.2538 77.7695 95.8862 79.4796C97.2331 79.9055 98.6826 80.4021 100.156 80.8135C100.903 81.0223 102.076 80.1087 102.375 79.0984C102.811 77.6237 103.16 76.1235 103.579 74.6435C103.704 74.2044 103.939 73.7966 104.176 73.3585Z" fill="white"/>
<path d="M267.994 78.3378C268.051 80.6492 267.728 82.8416 267.074 84.9893C266.537 86.7523 265.92 86.8661 264.452 86.8239C263.034 86.7832 261.588 86.4248 260.231 85.9761C258.777 85.4956 257.412 84.746 256.008 84.1158C255.876 84.0567 255.738 84.0112 255.63 83.9696C255.116 85.2298 254.651 86.4708 254.109 87.6778C253.108 89.9097 252.51 89.9622 250.469 89.4344C248.944 89.0398 247.537 88.1868 246.077 87.5388C246.058 87.5304 246.02 87.5419 246.014 87.5307C245.25 86.2731 244.444 86.8663 243.582 87.4314C241.869 88.5541 239.943 89.1621 237.932 89.3495C235.774 89.5505 233.598 89.6013 231.429 89.6153C230.411 89.6219 229.392 89.3851 228.373 89.2671C228.228 89.2503 228.065 89.2492 227.93 89.2958C226.4 89.8238 224.859 90.2168 223.22 90.3314C221.723 90.4361 220.261 90.4942 218.811 90.0776C216.78 89.4941 215.306 88.1992 214.256 86.4064C213.47 85.0631 213.045 83.5845 212.793 82.0568C212.436 79.8923 212.073 77.7285 211.749 75.5588C211.497 73.8672 211.324 72.1638 211.076 70.4715C210.845 68.8921 210.541 67.3233 210.305 65.7444C210.1 64.3696 209.959 62.9853 209.765 61.6088C209.571 60.2366 209.338 58.8701 209.139 57.4987C208.985 56.441 208.866 55.3781 208.714 54.3201C208.515 52.9268 208.294 51.5365 208.089 50.1439C207.899 48.8556 207.722 47.5654 207.533 46.277C207.412 45.4548 207.327 44.6234 207.14 43.8157C206.909 42.8118 207.171 41.883 207.426 40.9421C207.635 40.1687 207.821 39.3868 208.08 38.6302C208.166 38.3808 208.447 38.1984 208.639 37.9854C208.836 38.1909 209.153 38.3684 209.209 38.6068C209.478 39.7625 209.69 40.9322 209.896 42.1014C210.17 43.6522 210.436 45.2048 210.677 46.761C210.877 48.0484 211.024 49.3439 211.217 50.6325C211.464 52.276 211.745 53.9144 211.989 55.5584C212.186 56.8901 212.34 58.2282 212.531 59.5609C212.728 60.9329 212.951 62.301 213.153 63.6723C213.346 64.982 213.523 66.2939 213.712 67.604C213.871 68.7017 214.051 69.7965 214.199 70.8956C214.357 72.0623 214.54 73.229 214.62 74.4019C214.78 76.726 215.022 79.0301 215.952 81.1954C216.703 82.9415 218.094 84.0047 219.84 84.6213C221.292 85.134 222.763 85.5636 224.343 85.4375C226.653 85.253 228.933 84.8993 230.809 83.4363C232.115 82.4177 233.243 81.1785 234.082 79.7184C234.409 79.1472 234.706 78.5578 235.039 77.9901C235.258 77.6185 235.637 77.3941 236.023 77.5774C236.236 77.6785 236.45 78.0817 236.428 78.3279C236.198 80.9436 235.309 83.3074 233.488 85.4655C234.391 85.4227 235.177 85.4207 235.955 85.3401C237.059 85.2258 238.18 85.1479 239.254 84.8891C242.871 84.0171 245.979 82.3878 247.701 78.8452C247.875 78.4872 247.998 78.0728 248.264 77.8023C248.445 77.6183 248.835 77.5977 249.131 77.6009C249.2 77.6016 249.34 78.0055 249.318 78.2101C249.148 79.7997 248.709 81.3161 247.991 82.7479C247.954 82.8219 247.908 82.8913 247.84 83.0075C249.323 83.5951 250.737 84.2871 252.328 84.3712C253.224 84.4186 253.396 84.2486 253.703 83.37C254.391 81.4021 255.086 79.4369 255.767 77.4667C255.937 76.9768 256.213 76.6488 256.762 76.6258C257.298 76.6035 257.536 76.8942 257.402 77.4205C257.174 78.3215 256.935 79.22 256.716 80.1231C256.677 80.2845 256.71 80.4636 256.71 80.7521C258.551 80.9537 260.396 81.1719 262.244 81.3488C262.851 81.4068 263.471 81.3987 264.078 81.3474C264.87 81.2804 265.298 80.821 265.219 80.0272C265.072 78.5406 264.863 77.059 264.639 75.5814C264.426 74.1726 264.161 72.7716 263.919 71.3672C263.677 69.9629 263.434 68.5587 263.191 67.1545C262.908 65.5199 262.625 63.8853 262.342 62.2508C262.065 60.6584 261.793 59.0652 261.508 57.4743C261.269 56.136 261.008 54.8016 260.766 53.4636C260.502 51.9991 260.225 50.5361 260.002 49.0652C259.882 48.2778 259.957 47.4527 259.773 46.6854C259.59 45.9197 259.293 45.1418 258.872 44.4804C257.859 42.8923 258.235 41.5302 259.294 40.1606C259.873 39.4111 260.345 38.5789 260.9 37.732C261.47 37.504 261.681 37.9876 261.911 38.4228C262.676 39.8746 263.347 41.386 264.225 42.7656C264.949 43.9038 265.05 44.9032 264.261 45.9896C264.062 46.2641 263.906 46.5765 263.679 46.8233C262.908 47.6595 262.933 48.6047 263.156 49.6381C263.456 51.0296 263.672 52.4392 263.918 53.8421C264.157 55.2039 264.385 56.5674 264.623 57.9294C264.911 59.5839 265.205 61.2375 265.496 62.8917C265.728 64.2112 265.955 65.5316 266.19 66.8504C266.481 68.4821 266.779 70.1126 267.074 71.7436C267.251 72.7266 267.461 73.7051 267.598 74.6938C267.763 75.8822 267.865 77.0793 267.994 78.3378Z" fill="white"/>
<path d="M160.432 92.4997C161.733 91.478 162.801 90.3054 163.614 88.9222C164.18 87.9587 164.91 86.9979 164.651 85.7926C164.466 84.9357 164.149 84.0938 163.788 83.2909C162.795 81.0771 161.761 78.8815 160.716 76.6916C160.407 76.045 160.077 75.3863 159.631 74.8345C159.221 74.327 159.166 73.8483 159.294 73.2609C159.574 71.9769 159.81 70.6832 160.105 69.4029C160.152 69.2007 160.401 68.9151 160.573 68.9027C160.831 68.8843 161.22 68.9958 161.35 69.1888C161.929 70.0457 162.446 70.9457 162.965 71.8416C163.293 72.408 163.57 73.0046 163.905 73.5665C164.011 73.7449 164.221 73.9623 164.401 73.9802C166.23 74.1621 168.07 74.324 169.874 73.8478C170.474 73.6895 171.086 73.42 171.581 73.0519C172.848 72.1099 173.998 71.0201 174.69 69.5706C175.185 68.5322 175.576 67.4423 175.979 66.3622C176.137 65.9369 176.257 65.4977 176.821 65.5955C177.352 65.6874 177.616 66.0675 177.562 66.6006C177.431 67.878 177.301 69.1569 177.105 70.4252C177.054 70.7573 177.055 70.9103 177.39 70.9752C178.514 71.193 179.633 71.4359 180.761 71.6224C181.416 71.7306 182.085 71.7493 182.883 71.8203C182.767 70.7677 182.729 69.8043 182.543 68.8703C182.172 67.0012 182.186 65.1651 182.764 63.3431C182.993 62.6216 183.207 61.8938 183.48 61.189C183.54 61.0335 183.819 60.8841 184.001 60.8806C184.131 60.8781 184.323 61.099 184.391 61.2607C185.558 64.0657 185.759 67.0261 185.554 69.9941C185.38 72.5213 184.658 74.9109 182.831 76.8255C182.125 77.5647 181.201 77.6733 180.335 77.5108C178.847 77.2319 177.395 76.7643 175.933 76.3561C175.653 76.2779 175.367 76.1492 175.138 75.973C174.64 75.5893 174.311 75.7067 173.884 76.1432C172.017 78.0528 169.754 79.2344 167.104 79.653C166.835 79.6955 166.571 79.7744 166.263 79.8462C166.365 80.64 166.528 81.4375 166.558 82.2401C166.627 84.0931 166.777 85.9612 166.617 87.799C166.483 89.3401 166.021 90.8657 165.588 92.3644C165.115 93.9992 163.771 95.0238 162.588 96.1067C161.191 97.3847 159.585 98.3991 157.846 99.1661C155.806 100.066 153.703 100.779 151.46 100.932C150.116 101.024 148.758 101.141 147.42 101.05C144.549 100.854 141.93 99.9589 139.846 97.8516C138.737 96.73 138.142 95.3129 137.774 93.8358C137.461 92.5797 137.306 91.2671 137.237 89.9711C137.126 87.9025 137.531 85.8763 138.063 83.8869C138.438 82.4854 138.899 81.1064 139.346 79.7251C139.414 79.5133 139.572 79.2652 139.758 79.1716C140.056 79.0218 140.411 78.9874 140.742 78.9042C140.821 79.2361 141.034 79.6068 140.952 79.8928C140.704 80.7586 140.259 81.5711 140.042 82.442C139.694 83.8379 139.277 85.2583 139.235 86.6786C139.176 88.683 139.889 90.5156 141.102 92.1672C142.55 94.1397 144.634 94.9886 146.86 95.5263C148.911 96.0215 150.996 95.8532 153.094 95.5872C155.838 95.2393 158.138 93.9717 160.432 92.4997Z" fill="white"/>
<path d="M203.294 72.4621C204.961 75.5642 205.2 78.8732 205.028 82.2482C204.994 82.9282 204.914 83.6176 204.749 84.2764C204.482 85.3464 203.817 85.985 202.673 86.2381C200.511 86.7167 198.381 87.3395 196.227 87.8616C193.918 88.4216 191.575 88.7148 189.192 88.5855C188.53 88.5496 188.128 88.0817 188.05 87.5409C187.859 86.2047 187.739 84.8501 187.72 83.5011C187.712 82.9634 188.28 83.045 188.701 83.1042C189.608 83.2319 190.53 83.4943 191.423 83.425C192.772 83.3205 194.108 83.0063 195.439 82.7327C197.346 82.3409 199.243 81.9071 201.144 81.4871C201.557 81.3959 201.973 81.3096 202.375 81.1818C203.023 80.9761 203.273 80.4726 202.972 79.7686C202.56 78.8023 202.099 77.8501 201.576 76.9387C200.657 75.3342 199.535 73.8769 198.187 72.6001C196.924 71.4041 195.497 70.4535 193.885 69.8101C193.389 69.6121 193.306 69.3257 193.336 68.8774C193.392 68.0141 193.496 67.1461 193.455 66.2861C193.385 64.8243 194.212 64.3833 195.548 64.8403C197.118 65.3777 198.512 66.2321 199.665 67.4078C200.469 68.2284 201.162 69.1681 201.837 70.1034C202.366 70.8372 202.792 71.6458 203.294 72.4621Z" fill="white"/>
<path d="M296.47 80.6621C295.919 80.2095 295.332 79.7866 294.739 79.3718C294.166 78.9703 293.537 78.6332 293.02 78.1693C291.815 77.0858 291.816 75.6868 292.702 74.3378C293.788 72.6835 295.146 71.257 296.595 69.9241C297.737 68.8736 298.919 67.8404 300.445 67.3766C302.496 66.7535 303.598 67.3128 304.927 68.8315C305.675 69.6866 305.701 70.5571 305.059 71.4605C304.49 72.2606 303.949 73.0901 303.296 73.8182C302.933 74.2242 302.41 74.0541 302.089 73.5919C301.774 73.1393 301.506 72.6379 301.124 72.2514C299.957 71.0734 299.237 71.2741 298.059 71.8784C297.611 72.1085 297.198 72.4213 296.803 72.7388C296.229 73.2003 296.214 73.8392 296.793 74.4606C298.1 75.8637 299.611 76.8332 301.577 77.1887C303.798 77.5902 305.917 77.2256 308.065 76.837C308.485 76.761 308.92 76.7657 309.492 76.7222C309.365 77.0754 309.31 77.3354 309.185 77.5549C308.798 78.2332 308.307 78.8628 307.999 79.5732C307.604 80.4832 306.883 80.6575 306.026 80.8556C304.2 81.2779 302.358 81.7076 300.609 82.3669C298.464 83.1758 296.406 84.2168 294.316 85.1704C293.857 85.38 293.438 85.6823 292.971 85.8669C292.737 85.9591 292.437 85.8822 292.167 85.8818C292.171 85.6457 292.116 85.3883 292.191 85.1775C292.446 84.4642 292.734 83.7618 293.038 83.068C293.129 82.8601 293.279 82.6366 293.464 82.5182C294.443 81.8933 295.441 81.2997 296.47 80.6621Z" fill="white"/>
<path d="M387.464 60.3619C387.638 61.7801 387.817 63.1372 387.979 64.4963C388.083 65.37 388.168 66.2462 388.255 67.1219C388.431 68.8963 388.604 70.671 388.778 72.4457C388.784 72.5108 388.78 72.577 388.781 72.6426C388.825 74.5373 388.985 76.4382 388.882 78.3249C388.765 80.4918 388.789 82.6991 387.996 84.7815C387.989 84.801 388 84.8285 387.991 84.8463C387.77 85.2801 387.713 85.9799 387.014 85.7993C386.486 85.6629 386.412 85.1023 386.414 84.5934C386.418 83.7393 386.432 82.8848 386.412 82.0312C386.383 80.8151 386.364 79.597 386.276 78.3845C386.131 76.3887 385.962 74.3936 385.75 72.4038C385.522 70.2544 385.23 68.1117 384.97 65.9656C384.705 63.7765 384.435 61.5878 384.184 59.397C383.994 57.7343 383.81 56.0702 383.661 54.4035C383.504 52.6641 383.311 50.9219 383.286 49.1787C383.264 47.6583 383.743 46.2151 384.473 44.8728C384.64 44.5647 384.895 44.26 385.27 44.4463C385.486 44.5535 385.702 44.8566 385.737 45.0975C385.871 46.0322 385.923 46.9783 386.023 47.9182C386.189 49.4741 386.375 51.0278 386.542 52.5836C386.683 53.9074 386.79 55.2352 386.947 56.5572C387.095 57.8082 387.288 59.0538 387.464 60.3619Z" fill="white"/>
<path d="M276.668 78.7214C276.494 77.1047 276.322 75.5498 276.146 73.9954C276.016 72.8459 275.903 71.694 275.743 70.5487C275.516 68.9237 275.262 67.3023 275.001 65.6822C274.782 64.3178 274.532 62.9582 274.304 61.5951C274.037 59.9997 273.753 58.4065 273.527 56.8053C273.313 55.3005 273.223 53.7768 272.973 52.2791C272.683 50.5446 272.538 48.809 272.596 47.0551C272.639 45.7575 273.062 44.5635 273.682 43.4427C273.779 43.2675 274.118 43.1133 274.318 43.1411C274.505 43.1669 274.759 43.4249 274.804 43.6216C274.945 44.2426 275.004 44.8825 275.091 45.5155C275.303 47.0595 275.508 48.6046 275.727 50.1476C275.9 51.372 276.08 52.5957 276.277 53.8165C276.568 55.6228 276.885 57.4249 277.176 59.2313C277.413 60.7043 277.624 62.1814 277.852 63.656C278.066 65.0454 278.323 66.4293 278.494 67.8239C278.672 69.2744 278.813 70.7324 278.893 72.1913C279.018 74.4669 279.179 76.7483 279.13 79.023C279.097 80.5443 278.752 82.0629 278.484 83.5716C278.431 83.8672 278.142 84.2559 277.874 84.3499C277.322 84.5439 276.984 84.1884 276.936 83.4486C276.873 82.4752 276.85 81.4992 276.797 80.525C276.766 79.9438 276.712 79.3639 276.668 78.7214Z" fill="white"/>
<path d="M349.745 48.7642C349.577 49.7544 349.408 50.684 349.219 51.7284C349.461 51.9344 349.785 52.2984 350.186 52.5346C351.187 53.1262 351.085 54.0257 350.916 54.9383C350.828 55.4117 350.662 55.8739 350.499 56.3294C350.307 56.8634 349.877 56.9527 349.461 56.5546C349.05 56.1616 348.665 55.7408 348.246 55.3565C348.036 55.1636 347.776 55.0245 347.678 54.9567C346.715 56.2445 345.96 57.596 344.884 58.6076C343.61 59.8058 342.111 60.7917 340.616 61.7192C339.274 62.5516 337.809 63.1866 336.391 63.8946C336.016 64.0817 335.627 64.2827 335.223 64.3519C334.958 64.3972 334.569 64.2961 334.397 64.1108C334.276 63.9803 334.341 63.5442 334.471 63.3374C335.115 62.3109 336.205 61.7984 337.146 61.1128C339.808 59.1742 342.632 57.4399 344.889 54.9905C345.233 54.617 345.527 54.198 345.847 53.7969C344.543 52.8277 343.28 51.9043 342.034 50.9591C341.215 50.3373 341.131 49.4914 341.328 48.5462C341.811 46.2335 342.998 44.3339 344.823 42.8861C346.747 41.3595 348.413 42.5352 349.105 44.0994C349.603 45.2258 349.835 46.4016 349.869 47.6198C349.879 47.9797 349.789 48.3423 349.745 48.7642ZM347.509 49.9349C347.466 49.2692 347.482 48.5927 347.364 47.9403C347.207 47.0658 346.921 46.2269 346.239 45.583C345.837 45.2036 345.395 45.2133 345.035 45.5393C344.589 45.9435 344.189 46.4154 343.847 46.9117C343.593 47.2802 343.549 47.7402 343.985 48.0552C344.997 48.7858 346.034 49.4812 347.037 50.2237C347.363 50.4652 347.363 50.1692 347.509 49.9349Z" fill="white"/>
<path d="M297.864 53.0675C296.711 52.1797 295.568 51.3569 294.487 50.4587C293.973 50.0315 293.914 49.3382 294.032 48.725C294.513 46.2197 295.731 44.1524 297.828 42.6496C299.392 41.5292 300.758 42.1813 301.582 43.4197C302.246 44.4166 302.526 45.5789 302.567 46.7953C302.621 48.3527 302.467 49.8779 302.047 51.3803C302.007 51.5228 302.107 51.7694 302.225 51.8781C302.504 52.1353 302.823 52.3541 303.143 52.5608C304.033 53.1342 303.742 54.0274 303.716 54.8119C303.7 55.2791 303.476 55.7453 303.313 56.1999C303.121 56.7345 302.695 56.8201 302.274 56.4226C301.681 55.8622 301.096 55.2935 300.453 54.6761C300.015 55.3474 299.638 55.9062 299.28 56.4764C297.878 58.7084 295.91 60.3182 293.628 61.5635C292.111 62.3919 290.563 63.166 289.016 63.9393C288.684 64.1054 288.301 64.2257 287.935 64.2486C287.701 64.2632 287.33 64.117 287.247 63.9379C287.161 63.7538 287.272 63.3665 287.433 63.1996C288.003 62.6084 288.594 62.0245 289.245 61.5258C291.677 59.6617 294.151 57.8532 296.572 55.9753C297.167 55.5141 297.65 54.8937 298.129 54.3021C298.671 53.633 298.635 53.5635 297.864 53.0675ZM297.842 45.3904C297.443 45.8922 297.017 46.3753 296.654 46.9019C296.368 47.3152 296.467 47.7175 296.888 48.0159C297.785 48.6528 298.682 49.2916 299.586 49.9203C299.75 50.035 299.946 50.1052 300.128 50.1959C300.194 49.9773 300.343 49.7459 300.312 49.5421C300.154 48.4993 300.07 47.4207 299.724 46.4377C299.39 45.4876 298.755 44.9314 297.842 45.3904Z" fill="white"/>
<path d="M224.147 47.4778C225.392 46.942 226.592 46.4286 227.794 45.9231C229.928 45.0261 232.067 44.139 234.199 43.2381C236.081 42.4434 237.955 41.6324 239.835 40.8343C242.083 39.8801 244.336 38.941 246.58 37.978C248.109 37.3217 249.625 36.6332 251.149 35.9648C251.534 35.7959 251.921 35.6205 252.322 35.4999C252.732 35.3768 252.931 35.6115 252.804 36.0257C252.273 37.757 251.262 38.9646 249.469 39.5944C247.665 40.2279 245.952 41.1143 244.19 41.8684C241.964 42.8205 239.728 43.7461 237.5 44.6919C235.62 45.49 233.747 46.3063 231.867 47.1043C229.62 48.0582 227.368 49.0015 225.118 49.9487C224.343 50.2751 223.575 50.6224 222.786 50.9111C222.548 50.9981 222.25 50.9199 221.98 50.9174C222.002 50.6871 222.004 50.4527 222.051 50.2277C222.09 50.0444 222.213 49.878 222.246 49.6946C222.444 48.6036 223.04 47.8588 224.147 47.4778Z" fill="white"/>
<path d="M83.2357 49.325C81.6787 49.9898 80.1646 50.6269 78.6457 51.2521C78.0239 51.508 77.3971 51.7542 76.7624 51.9758C76.1558 52.1875 75.9742 52.0475 76.107 51.4536C76.2538 50.7973 76.3762 50.1123 76.6718 49.521C76.8511 49.1622 77.2991 48.864 77.6934 48.6981C80.9541 47.3262 84.2369 46.0066 87.5004 44.6414C90.7841 43.2677 94.0516 41.8554 97.3297 40.4685C99.1322 39.7059 100.941 38.9575 102.751 38.2131C102.923 38.1425 103.127 38.1145 103.313 38.1238C103.563 38.1362 103.739 38.1591 103.624 38.5578C103.168 40.1301 102.291 41.2903 100.743 41.9337C98.487 42.8718 96.2538 43.8648 94.0019 44.8129C91.6738 45.7932 89.3334 46.7442 87.0013 47.7151C85.7566 48.2332 84.5181 48.7663 83.2357 49.325Z" fill="white"/>
<path d="M172.051 50.0761C170.16 50.8677 168.324 51.6628 166.479 52.4392C164.287 53.3623 162.084 54.2634 159.891 55.1853C158.067 55.952 156.252 56.7408 154.428 57.5067C154.009 57.6826 153.704 57.5536 153.785 57.0495C153.998 55.7232 154.177 54.4253 155.721 53.8183C158.169 52.8558 160.569 51.7682 162.987 50.7296C165.117 49.8152 167.245 48.8995 169.371 47.9768C171.922 46.8697 174.465 45.7457 177.024 44.6575C177.262 44.5561 177.588 44.6597 177.873 44.6681C177.858 44.8869 177.887 45.1202 177.82 45.3217C177.621 45.9199 177.437 46.5324 177.151 47.0898C176.699 47.9694 175.843 48.3924 174.987 48.7831C174.03 49.2203 173.065 49.6425 172.051 50.0761Z" fill="white"/>
<path d="M99.6755 62.9276C100.34 63.3925 100.978 63.8149 101.584 64.2778C101.903 64.5212 101.991 64.8269 101.677 65.1923C100.782 66.2328 99.9089 67.2918 99.0308 68.3464C98.7596 68.6721 97.8539 68.7477 97.4235 68.4421C96.4867 67.777 95.5623 67.0944 94.5622 66.3676C93.9526 67.0886 93.311 67.8571 92.6576 68.6156C92.3861 68.9309 92.1314 69.2866 91.7946 69.5136C91.2871 69.8557 90.7334 69.662 90.3093 69.3287C89.2307 68.481 88.1833 67.5921 87.1463 66.6934C86.7418 66.3427 86.788 65.802 87.1325 65.3935C87.9475 64.4274 88.7584 63.4569 89.5384 62.4626C90.1235 61.7168 90.7044 61.7509 91.3306 62.4604C91.9481 63.1599 92.6815 63.7603 93.3897 64.3746C93.6697 64.6175 93.9574 64.5663 94.2113 64.2414C94.9093 63.3483 95.6579 62.494 96.3377 61.5878C96.8646 60.8854 97.6111 60.7248 98.1622 61.4048C98.6009 61.9462 99.1404 62.406 99.6755 62.9276Z" fill="white"/>
<path d="M59.293 71.5021C57.4003 72.2911 55.5577 73.0727 53.7208 73.8677C53.1591 74.1109 52.6212 74.41 52.0561 74.6442C51.8336 74.7364 51.5666 74.7214 51.3199 74.7552C51.2992 74.5275 51.2277 74.2908 51.2667 74.0738C51.4222 73.208 51.2524 72.197 52.1317 71.6145C52.8528 71.1369 53.6039 70.6826 54.3928 70.3334C56.6455 69.3363 58.9231 68.3954 61.193 67.4371C63.8114 66.3317 66.439 65.2478 69.0482 64.1211C70.1501 63.6453 71.21 63.0727 72.3009 62.57C72.5723 62.4449 72.8899 62.4202 73.1864 62.3494C73.1924 62.6464 73.2583 62.9569 73.1947 63.2382C72.7867 65.0444 71.742 66.2713 69.9734 66.9462C68.3023 67.5839 66.6881 68.37 65.0431 69.0774C63.1472 69.8926 61.2448 70.6931 59.293 71.5021Z" fill="white"/>
<path d="M312.184 45.3963C313.139 43.9296 314.384 42.9 316.04 42.4631C317.872 41.9796 319.661 42.2721 321.433 42.8647C322.61 43.2583 323.813 43.581 325.016 43.8915C326.026 44.1522 326.123 44.2456 325.733 45.2307C325.478 45.8734 325.158 46.4988 324.79 47.0837C324.621 47.3529 324.263 47.5009 323.999 47.7142C323.683 47.9701 323.373 48.2348 323.064 48.4995C321.469 49.8644 319.62 50.7028 317.577 51.1268C316.483 51.3539 315.497 52.0104 314.321 51.9214C313.768 51.8795 313.529 51.5598 313.868 51.096C314.165 50.6882 314.602 50.3389 315.048 50.0893C317.057 48.964 319.091 47.8837 321.114 46.7847C321.161 46.759 321.193 46.7046 321.268 46.6265C318.597 45.4836 315.972 44.7794 313.37 46.6662C312.96 46.9631 312.667 47.4169 312.272 47.739C312.05 47.9197 311.73 47.9791 311.454 48.0932C311.423 47.8051 311.297 47.4846 311.381 47.2352C311.589 46.6191 311.893 46.0356 312.184 45.3963Z" fill="white"/>
<path d="M239.902 63.2578C238.904 65.0197 237.497 65.9984 235.457 65.8438C233.797 65.718 232.94 64.7806 232.773 63.1246C232.607 61.4824 233.178 60.0168 233.973 58.6356C234.124 58.3733 234.545 58.2665 234.841 58.0879C234.92 58.1497 234.998 58.2114 235.076 58.2732C234.935 58.924 234.732 59.5693 234.674 60.2273C234.63 60.7402 234.666 61.3082 234.849 61.7818C235.134 62.524 235.998 62.7054 237.116 62.3566C238.718 61.8572 239.406 60.6105 239.731 59.0886C239.806 58.7349 239.702 58.2752 239.893 58.0281C240.292 57.511 240.833 57.1029 241.316 56.6501C241.446 56.8244 241.662 56.9853 241.692 57.1754C241.814 57.9528 241.791 58.7621 241.987 59.5167C242.26 60.5692 243.276 60.8966 244.281 60.4794C245.613 59.9267 245.644 59.5148 245.12 58.1079C244.961 57.682 244.879 57.2921 245.124 56.8693C245.462 56.2845 245.764 55.6786 246.102 55.0935C246.172 54.9719 246.352 54.8089 246.445 54.8294C246.596 54.8626 246.792 55.008 246.837 55.1483C247.036 55.7684 247.264 56.3942 247.343 57.0351C247.528 58.5251 247.403 59.9784 246.854 61.4167C246.276 62.9331 245.163 63.6746 243.664 63.8567C242.43 64.0065 241.196 63.9148 240.271 62.7336C240.135 62.929 240.034 63.074 239.902 63.2578Z" fill="white"/>
<path d="M128.85 40.6464C129.866 40.1637 130.829 39.6881 131.816 39.27C132.114 39.1438 132.48 39.1773 132.879 39.1299C132.864 40.2441 132.395 41.1421 131.838 41.9274C131.447 42.4783 130.804 42.9289 130.178 43.2199C128.078 44.1966 125.944 45.1007 123.807 45.996C121.964 46.7685 120.093 47.4771 118.245 48.2395C116.61 48.9141 114.993 49.6326 113.36 50.3119C112.959 50.4789 112.525 50.569 112.022 50.7198C112.022 50.4323 111.996 50.2684 112.027 50.1163C112.133 49.599 112.253 49.0845 112.378 48.5715C112.548 47.8753 113.014 47.4379 113.648 47.1544C114.898 46.5954 116.141 46.0184 117.4 45.4818C119.376 44.6405 121.365 43.832 123.344 42.9993C125.168 42.2318 126.987 41.4506 128.85 40.6464Z" fill="white"/>
<path d="M199.517 97.5239C197.576 98.3596 195.689 99.1977 193.795 100.019C192.444 100.605 191.087 101.18 189.72 101.729C189.498 101.818 189.208 101.741 188.95 101.741C188.968 101.521 188.949 101.289 189.011 101.083C189.187 100.503 189.308 99.8792 189.62 99.3779C189.864 98.984 190.318 98.6543 190.753 98.4552C192.782 97.5245 194.835 96.6466 196.882 95.7544C199.971 94.4081 203.063 93.0709 206.148 91.7163C206.707 91.471 207.208 91.0496 208.009 91.298C207.893 91.6718 207.836 92.0725 207.653 92.4051C207.199 93.2336 206.887 94.2112 205.972 94.663C204.746 95.2685 203.476 95.7854 202.225 96.3404C201.34 96.7333 200.454 97.1262 199.517 97.5239Z" fill="white"/>
<path d="M321.863 64.6677C321.088 65.6737 320.328 65.9992 319.378 65.1091C318.447 64.236 317.557 63.3185 316.665 62.4043C316.291 62.0206 316.467 61.5588 316.744 61.2692C317.692 60.2789 318.709 59.3541 319.677 58.3818C320.101 57.9557 320.381 58.0926 320.754 58.4654C321.803 59.5133 322.869 60.5453 323.971 61.5366C324.374 61.8999 324.365 62.2232 324.055 62.5478C323.362 63.2727 322.629 63.9599 321.863 64.6677Z" fill="white"/>
<path d="M90.3299 55.4963C91.0369 54.6585 91.6959 53.8419 92.3883 53.0547C92.7129 52.6855 93.1162 52.6969 93.4606 53.0501C94.5265 54.1434 95.6209 55.1943 96.9836 55.9293C97.3022 56.1012 97.3927 56.3973 97.1082 56.7431C96.2006 57.8459 95.3606 59.0105 94.38 60.0424C94.1568 60.2772 93.336 60.263 93.0249 60.0384C91.8651 59.2014 90.7808 58.2533 89.7259 57.2841C89.5502 57.1227 89.5684 56.6165 89.6668 56.3274C89.7697 56.0252 90.0775 55.7926 90.3299 55.4963Z" fill="white"/>
<path d="M360.657 92.7994C361.217 92.0507 361.754 91.3351 362.339 90.6611C362.767 90.1671 363.246 89.7136 363.727 89.2682C364.185 88.8431 364.443 88.9492 364.875 89.3938C365.875 90.4243 366.909 91.4266 367.982 92.3804C368.504 92.8437 368.583 92.9454 368.106 93.4247C367.181 94.3542 366.246 95.2738 365.325 96.2075C364.923 96.6145 364.434 96.6087 364.038 96.3429C362.669 95.4226 361.478 94.3098 360.657 92.7994Z" fill="white"/>
</svg>
