<svg width="430" height="143" viewBox="0 0 430 143" fill="none" xmlns="http://www.w3.org/2000/svg">
<path d="M349.795 75.1802C347.955 75.4395 346.181 75.7148 344.401 75.944C344.064 75.9873 343.703 75.8477 343.354 75.7925C343.432 75.4325 343.425 75.0216 343.604 74.7215C344.276 73.595 344.979 72.4832 345.737 71.4131C345.986 71.0619 346.402 70.7018 346.804 70.6081C348.23 70.2747 349.673 69.9687 351.127 69.811C353.425 69.5618 355.737 69.4433 358.042 69.2639C358.73 69.2103 359.417 69.138 360.207 69.0648C360.151 68.2624 360.129 67.4261 360.026 66.5999C359.891 65.5225 359.699 64.4518 359.517 63.3806C359.275 61.955 359.017 60.5323 358.772 59.1073C358.49 57.4717 358.22 55.8341 357.937 54.1988C357.686 52.7533 357.401 51.3133 357.175 49.8642C356.999 48.7436 356.873 47.6145 356.757 46.486C356.59 44.8693 356.183 43.3235 355.455 41.8679C355.043 41.0434 354.869 40.3681 355.61 39.497C356.314 38.6703 356.651 37.533 357.148 36.532C357.195 36.4375 357.215 36.3157 357.287 36.2498C357.534 36.0238 357.568 35.4498 358.06 35.6422C358.29 35.7325 358.489 36.0479 358.589 36.305C359.37 38.3118 360.454 40.1399 361.728 41.8724C362.35 42.7178 362.234 43.3358 361.475 44.1136C361.169 44.4274 360.875 44.7566 360.542 45.0395C360.007 45.494 359.982 46.0931 360.065 46.694C360.254 48.0653 360.495 49.4294 360.703 50.7983C360.972 52.5703 361.243 54.3422 361.486 56.1179C361.646 57.2856 361.746 58.4613 361.893 59.6309C362.04 60.7966 362.249 61.9554 362.364 63.1238C362.594 65.4644 363.077 67.8238 362.143 70.1227C361.916 70.6815 361.565 71.19 361.185 71.8764C362.633 72.41 364.047 73.0319 365.52 73.4471C367.273 73.9412 369.067 74.3054 370.86 74.6344C372.062 74.8549 373.29 74.9472 374.511 75.0417C376.54 75.1989 378.573 75.3116 380.605 75.4439C380.669 75.4481 380.735 75.455 380.797 75.4723C382.224 75.8709 382.558 75.6091 381.66 77.3956C381.139 78.4315 380.717 79.5175 380.171 80.5395C380.067 80.7354 379.582 80.8476 379.299 80.8083C378.438 80.689 377.589 80.4798 376.737 80.2998C374.912 79.9145 373.082 80.0247 371.238 80.1576C367.785 80.4066 364.568 81.6018 361.308 82.5916C359.376 83.1781 357.533 84.0521 355.642 84.7776C352.977 85.8006 350.284 86.7537 347.465 87.2598C345.615 87.592 343.749 87.8882 341.877 88.0379C339.579 88.2217 337.262 88.3763 334.963 88.291C331.417 88.1595 327.908 87.6592 324.572 86.34C324.085 86.147 323.628 85.8747 323.147 85.6342C322.653 86.6847 322.183 87.6714 321.724 88.6631C320.699 90.876 319.513 92.9973 318.033 94.9393C316.793 96.5662 315.259 97.8735 313.408 98.7653C311.917 99.4838 310.339 99.8713 308.665 99.8981C305.958 99.9416 303.268 99.7366 300.768 98.6791C298.481 97.7119 296.295 96.5028 294.087 95.3582C293.864 95.2426 293.674 94.8298 293.69 94.5681C293.701 94.3822 294.06 94.1385 294.306 94.0655C294.596 93.9797 294.952 93.9815 295.245 94.0654C296.825 94.5187 298.384 95.0489 299.972 95.47C300.752 95.677 301.578 95.7789 302.387 95.8009C304.425 95.8565 306.459 95.8356 308.478 95.4323C310.698 94.9889 312.637 94.0395 314.358 92.58C316.888 90.4347 318.595 87.7073 320.071 84.7944C320.319 84.3059 320.221 84.0413 319.84 83.7699C318.576 82.8703 317.534 81.7665 317.337 80.1844C317.223 79.2724 317.287 78.2779 317.538 77.3961C317.851 76.2959 318.423 75.2656 318.924 74.2251C319.007 74.053 319.303 73.8984 319.501 73.8975C319.622 73.897 319.787 74.1885 319.86 74.3766C320.174 75.1761 320.345 76.0561 320.783 76.7763C321.521 77.988 322.663 78.8229 323.9 79.5117C326.513 80.9671 329.34 81.8268 332.256 82.3878C333.496 82.6265 334.772 82.703 336.036 82.7955C337.681 82.9158 339.335 83.1012 340.976 83.0336C342.814 82.9578 344.645 82.6491 346.474 82.4087C349.598 81.9984 352.595 81.0503 355.599 80.1606C357.864 79.4899 360.088 78.681 362.328 77.9276C362.458 77.8836 362.571 77.7857 362.804 77.6451C358.58 75.9391 354.341 74.9389 349.795 75.1802Z" fill="white"/>
<path d="M141.692 67.9722C142.491 67.9779 142.616 68.1121 142.413 68.8365C142.066 70.0735 141.699 71.306 141.302 72.5278C141.037 73.3434 140.198 73.4331 139.561 73.7473C138.18 74.4288 136.773 75.0578 135.378 75.7108C131.893 77.342 128.434 79.0307 124.915 80.5854C122.856 81.495 120.741 82.3234 118.582 82.949C116.209 83.6365 113.739 83.8262 111.328 83.0464C110.435 82.7574 109.624 82.2118 108.779 81.7777C108.577 81.6737 108.385 81.5478 108.161 81.4154C107.691 82.5215 107.254 83.5612 106.808 84.5971C106.497 85.3216 106.047 85.9494 105.356 86.3512C103.849 87.2275 102.254 87.2983 100.708 86.5597C99.5678 86.0146 98.5273 85.2612 97.3837 84.565C96.5064 85.4448 95.4294 86.228 94.1026 86.6019C92.5475 87.0403 91.0051 86.8384 89.4874 86.4327C87.312 85.8511 85.3796 84.7717 83.5629 83.4612C83.369 83.3213 83.0011 83.2594 82.7818 83.3416C80.2746 84.2812 77.7766 85.2459 75.2893 86.2366C75.0465 86.3333 74.7927 86.6151 74.7098 86.8655C73.9819 89.0649 73.3358 91.2918 72.5791 93.4809C71.5849 96.3572 70.5513 99.2474 68.6144 101.646C67.7095 102.766 66.5611 103.737 65.3827 104.58C63.7612 105.741 61.839 106.293 59.8794 106.565C58.8022 106.714 57.6874 106.587 56.5896 106.594C53.3383 106.615 50.2405 105.872 47.26 104.642C45.8371 104.055 44.4683 103.334 43.0914 102.641C42.6865 102.437 42.21 102.08 42.4654 101.596C42.6149 101.313 43.1786 101.078 43.5325 101.107C44.2151 101.163 44.8796 101.427 45.5542 101.594C46.9915 101.95 48.4155 102.394 49.8732 102.622C51.2575 102.838 52.6846 102.957 54.0812 102.887C57.7173 102.704 61.1062 101.798 63.9894 99.3708C65.865 97.7915 67.2806 95.8784 68.4875 93.8053C69.5474 91.9844 70.4414 90.0671 71.399 88.1875C71.4889 88.0111 71.5088 87.7993 71.5859 87.5121C71.3302 87.5529 71.1664 87.5655 71.01 87.6062C70.1805 87.8223 69.655 87.6639 69.3135 86.893C68.854 85.856 68.4703 84.7808 68.1306 83.6981C67.9951 83.2662 68.209 82.834 68.6932 82.6712C69.6513 82.3491 70.623 82.0674 71.5805 81.7437C73.7983 80.9942 76.0291 80.278 78.2199 79.4559C79.9573 78.804 81.6418 78.0121 83.3527 77.2894C83.6817 77.1504 84.0198 77.0282 84.3622 76.9264C85.0059 76.735 85.4916 77.0721 85.4907 77.7548C85.4895 78.5751 85.4236 79.3952 85.3839 80.2575C87.6163 80.9634 89.8719 81.5951 92.2594 81.4846C93.6604 81.4198 94.8841 80.8898 95.9929 80.0333C97.292 79.0298 98.3104 77.8086 99.0142 76.3349C99.2673 75.8048 99.4067 75.2213 99.6487 74.685C99.834 74.2741 99.9882 73.6869 100.621 73.8853C101.181 74.0608 101.105 74.6321 101.029 75.0506C100.81 76.2581 100.521 77.4532 100.253 78.6519C100.157 79.0831 100.045 79.5107 99.9076 80.0703C101.274 80.4767 102.587 80.8434 103.885 81.2607C105.144 81.6657 106.192 80.9114 106.559 79.7968C107.079 78.2172 107.44 76.5862 107.905 74.9878C108.065 74.4413 108.135 73.7616 108.953 73.7334C109.38 73.7186 109.618 73.8944 109.608 74.343C109.605 74.4744 109.62 74.6072 109.606 74.7371C109.406 76.5801 110.147 76.9709 111.782 77.6597C113.209 78.2611 114.73 78.1745 116.238 77.9449C117.189 77.8003 118.144 77.6876 119.093 77.539C119.314 77.5045 119.521 77.3825 119.829 77.2647C119.095 76.5428 118.368 75.9295 117.764 75.2129C116.496 73.7101 115.688 72.0401 115.78 69.9748C115.898 67.2962 116.554 64.7552 117.699 62.3729C118.67 60.3532 120.372 58.9465 122.318 57.849C123.842 56.9899 125.452 56.5188 127.223 56.6423C128.596 56.738 129.934 57.0203 131.156 57.6212C132.384 58.225 133.549 58.9658 134.7 59.7106C135.015 59.9139 135.24 60.3212 135.397 60.6822C135.601 61.1507 135.297 61.5764 134.802 61.4926C134.186 61.3884 133.543 61.2422 133 60.9496C131.734 60.2664 130.447 60.2945 129.085 60.5217C126.937 60.8797 124.91 61.6129 122.927 62.4522C120.972 63.2803 119.708 64.7791 119.225 66.8811C118.772 68.8532 119.969 70.091 121.271 71.1954C122.684 72.3941 124.409 72.9992 126.222 73.3345C127.733 73.614 129.224 73.4038 130.679 73.0096C133.297 72.3006 135.822 71.3324 138.21 70.043C139.382 69.41 140.5 68.6778 141.692 67.9722Z" fill="white"/>
<path d="M190.84 101.304C188.238 102.076 185.697 102.874 183.124 103.552C180.38 104.275 177.621 104.957 174.84 105.517C173.225 105.842 171.557 105.938 169.907 106.052C168.749 106.131 167.574 106.143 166.417 106.053C162.655 105.759 159.183 104.686 156.179 102.276C153.118 99.8207 151.492 96.5601 150.577 92.8527C149.838 89.8568 149.812 86.8034 149.948 83.7595C150.053 81.4024 150.661 79.1132 151.367 76.8561C152.58 72.9833 154.493 69.4755 156.878 66.2143C157.864 64.865 158.933 63.5752 159.988 62.2276C158.718 60.3726 156.755 60.5277 155.024 61.854C154.78 62.0407 154.41 62.0635 154.099 62.1621C154.023 61.8874 153.833 61.586 153.89 61.3422C154.445 58.9719 155.229 56.7116 157.355 55.2307C158.722 54.2792 160.27 53.8349 161.913 53.6143C164.513 53.2651 167.001 53.4998 169.322 54.8119C170.258 55.3414 171.298 55.9005 171.317 57.0935C171.331 57.9865 171.037 58.9198 170.719 59.7757C169.947 61.8558 169.605 61.9871 167.706 63.1662C169.046 64.0176 170.488 64.5778 172.025 64.9331C174.195 65.435 176.397 65.5607 178.605 65.4365C180.102 65.3523 181.614 65.2128 183.076 64.9002C185.266 64.4321 187.434 63.8406 189.582 63.2025C190.81 62.8377 191.974 62.2627 193.178 61.8111C193.631 61.6411 193.728 61.3505 193.516 60.9843C192.787 59.7251 192.043 58.4744 191.275 57.2384C190.917 56.662 190.52 56.1047 190.09 55.5795C189.729 55.1373 189.688 54.7224 189.818 54.1651C190.141 52.782 190.355 51.3741 190.632 49.9797C190.759 49.34 191.242 49.1881 191.703 49.6448C193.939 51.8593 195.441 54.4442 195.914 57.6086C196.259 59.9158 196.119 62.182 195.454 64.3832C195.253 65.0463 194.607 65.7309 193.982 66.0844C190.829 67.869 187.417 68.965 183.864 69.6753C182.022 70.0437 180.166 70.1705 178.304 70.3446C175.907 70.5688 173.574 70.2396 171.219 69.9379C169.362 69.7001 167.571 69.2904 166.026 68.2034C165.037 67.5085 164.137 66.6887 163.15 65.8861C160.561 67.5597 158.289 69.7086 156.517 72.3569C155.024 74.5871 153.91 77.0056 153.365 79.6369C153.041 81.1999 152.919 82.8039 152.684 84.3861C152.312 86.8823 152.698 89.3063 153.494 91.6547C154.388 94.291 156.097 96.3112 158.506 97.7458C160.63 99.0102 162.95 99.7075 165.355 100.134C166.392 100.317 167.458 100.379 168.513 100.404C170.291 100.446 172.072 100.466 173.848 100.402C175.86 100.329 177.869 100.167 179.877 100.015C181.23 99.9118 182.581 99.7758 183.929 99.6217C185.248 99.4709 186.562 99.2617 187.881 99.1096C188.888 98.9936 189.9 98.9264 190.91 98.8384C191.426 98.7935 191.948 98.6864 192.457 98.7285C192.821 98.7586 193.347 98.8948 193.485 99.1522C193.738 99.6249 193.329 100.053 192.93 100.285C192.277 100.665 191.57 100.951 190.84 101.304Z" fill="white"/>
<path d="M205.119 47.4609C205.424 49.4566 205.743 51.3911 206.029 53.3303C206.231 54.7052 206.375 56.0887 206.573 57.4645C206.763 58.7932 206.999 60.1154 207.196 61.4432C207.353 62.5002 207.473 63.5627 207.625 64.6205C207.825 66.0138 208.049 67.4037 208.247 68.7974C208.403 69.8985 208.499 71.0088 208.684 72.1047C209.064 74.369 209.124 76.6787 209.807 78.9031C210.582 81.4256 212.266 82.8879 214.705 83.7547C216.341 84.3362 217.989 84.4931 219.662 84.3599C222.238 84.155 224.66 83.4354 226.505 81.492C227.798 80.13 229.044 78.7163 229.792 76.9474C229.903 76.6847 230.119 76.4171 230.359 76.2691C230.72 76.0465 231.261 76.4747 231.187 76.9906C231.015 78.2066 230.906 79.4651 230.49 80.6043C230.017 81.8991 229.239 83.0827 228.541 84.4139C228.913 84.4409 229.409 84.5473 229.888 84.498C231.208 84.3622 232.537 84.2359 233.834 83.9699C236.273 83.47 238.526 82.5321 240.444 80.8858C241.685 79.8204 242.506 78.4955 243.085 76.9851C243.183 76.7314 243.488 76.472 243.753 76.3851C244.309 76.2027 244.553 76.3996 244.5 76.985C244.372 78.406 243.989 79.7675 243.406 81.0711C243.286 81.3389 243.149 81.5989 242.98 81.9438C244.546 82.532 245.993 83.2649 247.667 83.344C248.415 83.3793 248.771 83.0267 248.985 82.4048C249.472 80.9911 249.949 79.5743 250.439 78.1617C250.694 77.4263 250.942 76.687 251.239 75.9681C251.539 75.241 252.187 75.4609 252.785 75.4547C252.949 76.8674 252.32 78.0953 252.006 79.4641C252.673 79.6121 253.336 79.8299 254.013 79.8952C255.797 80.0675 257.587 80.1982 259.378 80.2946C260.161 80.3368 260.776 79.9451 260.923 79.3578C261.016 78.9861 261.029 78.5678 260.966 78.1886C260.645 76.2375 260.281 74.2935 259.946 72.3446C259.665 70.7084 259.417 69.0663 259.129 67.4314C258.845 65.821 258.517 64.2183 258.229 62.6085C257.904 60.7866 257.612 58.9588 257.286 57.137C256.904 55.0042 256.47 52.8803 256.117 50.7429C255.846 49.0993 255.66 47.4414 255.446 45.7887C255.304 44.6954 255.153 43.6157 254.523 42.6575C253.792 41.544 253.419 40.3316 254.015 39.0512C254.289 38.4646 254.774 37.979 255.137 37.43C255.497 36.8836 255.806 36.3024 256.176 35.7633C256.299 35.5847 256.538 35.3964 256.734 35.385C256.892 35.3759 257.129 35.593 257.221 35.7673C257.961 37.162 258.668 38.5747 259.402 39.9726C259.685 40.5113 260.026 41.0195 260.32 41.5531C260.713 42.2692 260.482 42.9234 260.076 43.5477C259.729 44.0806 259.388 44.6178 259.024 45.1387C258.452 45.9568 258.585 46.8424 258.743 47.7335C259.091 49.701 259.434 51.6694 259.794 53.6347C260.177 55.7239 260.592 57.8071 260.963 59.8983C261.339 62.0144 261.659 64.1402 262.037 66.2559C262.354 68.0318 262.744 69.7949 263.053 71.5721C263.28 72.8754 263.46 74.1889 263.601 75.5042C263.701 76.4292 263.763 77.367 263.731 78.2954C263.659 80.4535 263.321 82.5761 262.547 84.6033C262.262 85.3483 261.665 85.7861 260.842 85.823C259.216 85.896 257.616 85.6963 256.107 85.0901C254.504 84.4464 252.941 83.703 251.362 83.0001C251.043 82.8583 250.916 82.9302 250.778 83.2847C250.245 84.6582 249.693 86.0276 249.07 87.3625C248.481 88.6257 247.743 89.019 246.401 88.6979C244.612 88.2697 242.875 87.6494 241.318 86.6409C240.838 86.3301 240.439 85.8944 239.961 85.4798C238.611 86.4723 237.067 87.3612 235.331 87.8111C234.018 88.1514 232.673 88.4392 231.325 88.5599C229.611 88.7132 227.879 88.7252 226.157 88.6979C225.177 88.6824 224.203 88.4342 223.221 88.3574C222.811 88.3252 222.366 88.406 221.972 88.5379C219.595 89.3324 217.145 89.7006 214.664 89.4757C212.561 89.2851 210.752 88.394 209.327 86.7114C207.982 85.124 207.302 83.311 206.964 81.318C206.568 78.9891 206.144 76.6646 205.789 74.3296C205.481 72.3008 205.273 70.257 204.981 68.2257C204.753 66.6455 204.444 65.0772 204.208 63.4982C204.002 62.1236 203.862 60.7394 203.666 59.3631C203.472 57.9916 203.235 56.6261 203.034 55.2553C202.839 53.9236 202.68 52.5866 202.482 51.2554C202.189 49.2949 201.867 47.3389 201.575 45.3784C201.38 44.0682 201.282 42.7399 201.017 41.4447C200.738 40.08 201.379 38.9199 201.663 37.6791C201.776 37.187 201.918 36.6972 202.102 36.2281C202.177 36.0389 202.433 35.757 202.547 35.7822C202.768 35.8308 203.062 36.0334 203.123 36.2335C203.35 36.9797 203.516 37.7465 203.665 38.5134C203.9 39.7236 204.119 40.9374 204.314 42.1545C204.514 43.3977 204.673 44.6473 204.858 45.8928C204.933 46.3975 205.031 46.8988 205.119 47.4609Z" fill="white"/>
<path d="M300.195 74.0978C299.034 74.9388 298.701 74.4552 298.271 73.6621C297.718 72.6434 296.922 71.977 295.745 71.8243C295.653 71.8124 295.54 71.8118 295.465 71.8548C294.624 72.3354 293.758 72.7829 292.962 73.3291C292.469 73.6667 292.46 74.1949 292.828 74.6859C293.887 76.0948 295.305 77.0014 296.959 77.5362C298.633 78.0775 300.355 78.0637 302.078 77.8102C303.175 77.6488 304.267 77.4481 305.365 77.288C305.972 77.1994 306.176 77.4202 305.887 77.9483C305.302 79.0203 304.661 80.0673 303.969 81.0734C303.803 81.3148 303.353 81.4383 303.018 81.4755C300.549 81.7503 298.227 82.5419 295.949 83.4644C294.351 84.1112 292.782 84.8315 291.219 85.5592C290.474 85.9063 289.78 86.3638 289.043 86.7319C288.879 86.8138 288.596 86.7914 288.437 86.6986C288.346 86.6452 288.335 86.3352 288.388 86.1738C288.678 85.296 288.928 84.3926 289.341 83.5731C289.542 83.1765 290.044 82.9053 290.453 82.646C291.234 82.1513 292.047 81.7059 292.834 81.247C291.7 80.4719 290.545 79.701 289.41 78.9023C288.315 78.1314 287.915 76.2463 288.726 75.1897C289.94 73.6082 291.175 72.0253 292.562 70.5992C293.787 69.3401 295.177 68.2099 296.912 67.648C298.957 66.9861 301.437 68.212 302.023 70.2477C302.136 70.6401 301.966 71.1917 301.76 71.5819C301.306 72.4383 300.746 73.2383 300.195 74.0978Z" fill="white"/>
<path d="M269.543 60.0317C269.391 58.9598 269.244 57.9468 269.092 56.9345C268.937 55.9013 268.775 54.869 268.619 53.836C268.452 52.7395 268.283 51.6434 268.126 50.5456C268.017 49.7831 267.895 49.0204 267.835 48.2535C267.723 46.8316 267.587 45.4067 267.583 43.9826C267.578 42.5521 267.921 41.1612 268.428 39.8201C268.509 39.6063 268.629 39.396 268.774 39.2196C269.183 38.7211 269.552 38.7701 269.692 39.3882C269.907 40.3391 270.049 41.3077 270.195 42.2729C270.381 43.4975 270.538 44.7264 270.71 45.9532C270.89 47.2432 271.058 48.5352 271.257 49.8224C271.497 51.3794 271.774 52.9308 272.018 54.4872C272.257 56.0041 272.469 57.5252 272.704 59.0426C272.894 60.263 273.11 61.4792 273.297 62.6998C273.504 64.0498 273.691 65.4029 273.888 66.7544C274.061 67.9368 274.25 69.1172 274.406 70.3017C274.518 71.153 274.632 72.0077 274.671 72.8643C274.821 76.2263 275.014 79.589 275.041 82.9527C275.053 84.4709 274.927 86.0311 274.285 87.4654C274.181 87.6976 273.907 88.0383 273.749 88.0193C273.515 87.9912 273.208 87.7259 273.121 87.4919C272.955 87.0415 272.876 86.5454 272.843 86.0627C272.77 84.9803 272.785 83.891 272.693 82.8107C272.554 81.1865 272.355 79.5674 272.179 77.9463C272.048 76.7308 271.928 75.5137 271.776 74.3008C271.606 72.9443 271.413 71.5905 271.216 70.2377C271.018 68.888 270.807 67.5402 270.593 66.1929C270.409 65.0365 270.217 63.8813 270.019 62.7272C269.869 61.8471 269.704 60.9695 269.543 60.0317Z" fill="white"/>
<path d="M384.908 47.4993C385.116 49.1953 385.296 50.8377 385.468 52.4808C385.606 53.7833 385.712 55.0894 385.873 56.389C386.066 57.9576 386.311 59.5199 386.516 61.0872C386.666 62.2346 386.781 63.3864 386.923 64.5349C387.09 65.8935 387.274 67.25 387.442 68.6086C387.502 69.0997 387.561 69.5934 387.575 70.0872C387.671 73.4824 387.855 76.8794 387.802 80.2726C387.775 82.0021 387.321 83.7255 387.049 85.4499C387.02 85.6318 386.925 85.8081 386.837 85.975C386.655 86.3223 386.414 86.7824 385.994 86.5749C385.69 86.4248 385.388 85.9505 385.369 85.6052C385.297 84.2951 385.401 82.9751 385.326 81.6652C385.201 79.4711 384.994 77.2816 384.812 75.0909C384.688 73.5898 384.574 72.0872 384.411 70.5901C384.272 69.3162 384.057 68.0507 383.899 66.7785C383.749 65.5654 383.641 64.347 383.492 63.1336C383.336 61.8609 383.147 60.5922 382.985 59.3202C382.88 58.4904 382.792 57.6582 382.707 56.8261C382.527 55.0738 382.333 53.3227 382.184 51.5678C381.98 49.1609 382.076 46.7889 383.279 44.6029C383.407 44.3699 383.661 44.1 383.898 44.0524C384.666 43.8983 384.6 44.5808 384.665 45.0019C384.787 45.8087 384.812 46.6305 384.908 47.4993Z" fill="white"/>
<path d="M331.939 63.3328C333.381 62.2224 334.769 61.1204 336.196 60.0715C338.444 58.4199 340.806 56.9122 342.697 54.8246C343.005 54.4845 343.248 54.0858 343.543 53.6843C342.399 52.8386 341.344 52.0277 340.257 51.2621C338.867 50.2826 338.571 49.6536 338.975 47.9951C339.527 45.7266 340.737 43.8849 342.59 42.4222C344.376 41.0117 346.297 42.1493 347.004 43.8865C347.555 45.2419 347.788 46.6534 347.645 48.0963C347.545 49.105 347.328 50.1098 347.068 51.0913C346.96 51.5014 347.073 51.7018 347.349 51.9102C347.654 52.1411 347.953 52.3826 348.275 52.5887C349.065 53.0948 348.898 53.8778 348.81 54.5855C348.739 55.162 348.499 55.719 348.321 56.2808C348.12 56.9157 347.823 56.9809 347.33 56.5115C346.707 55.9182 346.084 55.3257 345.459 54.7311C344.777 55.7289 344.243 56.7114 343.516 57.5227C342.649 58.4913 341.66 59.3661 340.648 60.1879C338.524 61.9116 336.043 63.0442 333.61 64.2455C333.243 64.4265 332.798 64.4992 332.383 64.5215C331.648 64.5609 331.472 64.2471 331.8 63.5973C331.839 63.5221 331.868 63.4425 331.939 63.3328ZM341.797 46.2664C341.132 47.2078 341.144 47.4139 342.038 48.0724C343.012 48.7897 344.011 49.4719 345.037 50.1957C345.123 49.9996 345.275 49.8103 345.279 49.6178C345.311 48.1946 345.177 46.8005 344.294 45.6023C343.717 44.8204 343.01 44.7679 342.358 45.4574C342.158 45.6691 342.024 45.9439 341.797 46.2664Z" fill="white"/>
<path d="M298.466 51.5286C298.755 51.7644 298.982 52.006 299.258 52.1612C300.087 52.6274 300.353 53.3627 300.221 54.2317C300.122 54.8941 299.927 55.5486 299.71 56.185C299.518 56.7483 298.949 56.7911 298.545 56.3476C298.114 55.8756 297.648 55.4364 297.192 54.9873C296.849 54.649 296.613 54.7668 296.416 55.1599C295.743 56.5047 294.97 57.8235 293.795 58.758C292.252 59.9851 290.6 61.0849 288.935 62.1479C287.834 62.8515 286.635 63.4046 285.468 64.0035C285.077 64.2041 284.664 64.4113 284.239 64.4779C283.925 64.5271 283.499 64.4483 283.262 64.2556C282.929 63.9839 283.151 63.612 283.421 63.3778C284.35 62.5698 285.252 61.7207 286.247 61.0003C288.846 59.1182 291.608 57.4473 293.826 55.0831C294.247 54.6336 294.61 54.1289 295.056 53.5801C294.472 53.1803 293.924 52.8244 293.397 52.4397C292.725 51.9491 292.071 51.4344 291.408 50.9316C290.231 50.0392 290.166 48.8687 290.55 47.5759C291.114 45.6757 291.99 43.96 293.596 42.7285C294.155 42.3001 294.798 41.9099 295.464 41.72C295.863 41.6065 296.428 41.8302 296.838 42.051C297.83 42.5853 298.352 43.4919 298.663 44.5615C299.3 46.757 299.116 48.9082 298.426 51.05C298.383 51.1844 298.424 51.3461 298.466 51.5286ZM294.3 48.5547C295.015 49.0758 295.73 49.5969 296.539 50.1857C296.838 48.594 296.687 47.1701 295.941 45.8801C295.144 44.4995 294.666 44.4893 293.544 45.6522C293.368 45.8352 293.212 46.0426 293.07 46.2541C292.54 47.0431 292.591 47.4049 293.347 47.9894C293.611 48.1936 293.925 48.3335 294.3 48.5547Z" fill="white"/>
<path d="M240.176 35.4893C241.738 34.8302 243.249 34.1735 244.758 33.5158C244.815 33.491 244.869 33.43 244.923 33.4322C245.237 33.4448 245.551 33.4712 245.865 33.4929C245.84 33.751 245.854 34.0212 245.781 34.2654C245.293 35.9076 244.139 36.9166 242.604 37.5696C240.895 38.2965 239.198 39.0539 237.49 39.7832C235.181 40.769 232.865 41.7381 230.554 42.7192C228.669 43.5192 226.79 44.332 224.904 45.1287C222.747 46.04 220.585 46.9407 218.424 47.844C217.88 48.0714 217.322 48.2669 216.791 48.5212C216.163 48.8221 216.132 48.4046 216.198 48.016C216.481 46.343 217.293 45.1517 219.011 44.5472C220.815 43.9122 222.538 43.0503 224.301 42.2973C226.552 41.3357 228.808 40.3873 231.06 39.4267C232.73 38.7142 234.396 37.9948 236.062 37.2721C237.418 36.6835 238.77 36.0854 240.176 35.4893Z" fill="white"/>
<path d="M91.9122 43.9952C97.0071 41.8405 102.058 39.7136 107.117 37.6033C107.32 37.5186 107.59 37.5925 107.894 37.5925C107.894 37.7629 107.937 37.9232 107.888 38.0476C107.291 39.5589 106.547 40.9083 104.876 41.5459C102.907 42.2969 100.985 43.169 99.0412 43.9833C96.9027 44.8791 94.7597 45.7641 92.6225 46.6628C90.5814 47.521 88.552 48.4073 86.5048 49.2509C84.4013 50.1177 82.2856 50.9557 80.1658 51.7824C79.9398 51.8705 79.651 51.7983 79.3914 51.8004C79.4081 51.5811 79.3796 51.346 79.4499 51.1454C79.6716 50.5138 79.8883 49.8737 80.1924 49.2805C80.3455 48.9819 80.6398 48.6773 80.9442 48.5463C83.0739 47.6299 85.2223 46.7565 87.3661 45.8727C88.8661 45.2543 90.3684 44.6412 91.9122 43.9952Z" fill="white"/>
<path d="M93.0536 68.7083C92.3464 68.0577 91.7061 67.4021 91.003 66.8223C90.481 66.3917 90.6195 65.9229 90.906 65.5459C91.8125 64.3527 92.753 63.1813 93.7483 62.0616C94.0363 61.7376 94.5155 61.7887 94.9003 62.1464C95.6913 62.8819 96.5262 63.5706 97.3112 64.3121C97.7224 64.7005 98.0011 64.5394 98.2858 64.1976C99.1374 63.175 99.9971 62.1589 100.83 61.1212C101.212 60.6452 101.661 60.729 101.96 61.0706C103.087 62.3553 104.412 63.3786 105.837 64.3032C105.983 64.3984 106.049 64.9171 105.931 65.0692C105.221 65.9871 104.448 66.8562 103.693 67.7394C103.565 67.8886 103.407 68.0144 103.295 68.173C102.868 68.7734 102.108 68.9879 101.52 68.58C100.714 68.0211 99.9151 67.4397 99.1845 66.7884C98.7286 66.3821 98.448 66.4623 98.1118 66.8663C97.4245 67.6921 96.7341 68.5155 96.0375 69.3336C95.5733 69.8788 94.896 69.9644 94.2991 69.5632C93.8946 69.2913 93.4952 69.0119 93.0536 68.7083Z" fill="white"/>
<path d="M74.1745 66.6394C72.0827 67.5608 70.0477 68.4937 67.9986 69.3947C66.1636 70.2016 64.3105 70.9674 62.47 71.7619C59.9305 72.858 57.3975 73.9694 54.8546 75.0577C54.5889 75.1714 54.2751 75.1734 53.8813 75.2461C53.898 74.9678 53.8958 74.7639 53.9252 74.5647C53.9902 74.1232 54.0906 73.6863 54.1414 73.2435C54.2525 72.2739 54.9046 71.7459 55.7026 71.3779C57.4085 70.5911 59.125 69.8262 60.8504 69.083C63.0595 68.1315 65.2836 67.215 67.4974 66.2744C69.6721 65.3504 71.8451 64.4224 74.0119 63.4802C74.6529 63.2014 75.2626 62.8513 75.9027 62.5704C76.0922 62.4872 76.3872 62.4464 76.5394 62.5396C76.6566 62.6115 76.7088 62.9537 76.6468 63.1237C76.3657 63.894 76.1317 64.7098 75.6887 65.3835C75.3498 65.8989 74.7236 66.2261 74.1745 66.6394Z" fill="white"/>
<path d="M309.885 46.562C309.545 46.9158 309.262 47.2609 308.926 47.5428C308.743 47.6962 308.469 47.7421 308.237 47.8365C308.166 47.6029 307.98 47.333 308.041 47.1415C308.552 45.5432 309.398 44.131 310.758 43.1244C312.69 41.6938 314.88 41.483 317.152 42.0869C318.925 42.5582 320.672 43.1247 322.436 43.6317C322.991 43.7911 323.179 44.0625 322.921 44.6176C322.586 45.339 322.294 46.0808 321.964 46.805C321.896 46.9556 321.762 47.095 321.625 47.1933C320.521 47.9849 319.475 48.8935 318.279 49.5139C317.042 50.1564 315.667 50.5477 314.332 50.9886C313.372 51.3053 312.388 51.5619 311.397 51.7572C311.154 51.8052 310.668 51.5594 310.609 51.3575C310.541 51.1223 310.754 50.7215 310.965 50.511C311.256 50.2191 311.646 50.0141 312.016 49.8126C313.95 48.7602 315.892 47.724 317.825 46.6703C317.981 46.5851 318.088 46.4103 318.331 46.1614C316.959 45.8119 315.765 45.4209 314.541 45.2283C313.792 45.1105 312.955 45.1665 312.229 45.3823C311.417 45.6235 310.686 46.1339 309.885 46.562Z" fill="white"/>
<path d="M229.692 59.674C231.562 60.1723 233.198 59.1225 233.824 57.3889C234.044 56.7796 234.128 56.1162 234.227 55.4703C234.329 54.8013 235.259 53.9483 236.157 53.8867C236.175 54.5954 236.164 55.2997 236.218 55.9991C236.273 56.7235 236.534 57.335 237.22 57.7386C237.92 58.1502 238.542 57.9669 239.137 57.5923C240.143 56.9594 240.297 56.7864 239.825 55.7793C239.287 54.6322 239.744 53.7955 240.293 52.902C240.426 52.6854 240.534 52.4528 240.679 52.2448C240.767 52.1185 240.927 51.9202 241.012 51.9394C241.178 51.9768 241.401 52.1167 241.448 52.263C241.924 53.7443 242.23 55.2654 241.9 56.8098C241.7 57.7467 241.348 58.6582 240.994 59.5534C240.654 60.4111 239.892 60.7626 239.044 61.0001C237.789 61.3514 236.564 61.4409 235.39 60.7558C235.118 60.5966 234.875 60.3855 234.577 60.1678C234.145 61.1839 233.463 61.9867 232.556 62.5894C231.367 63.3795 229.032 63.5487 227.948 62.4476C227.083 61.5694 226.834 60.5036 227.026 59.3928C227.204 58.3679 227.632 57.3841 227.978 56.392C228.066 56.1397 228.216 55.8653 228.42 55.7096C228.613 55.5629 228.915 55.5592 229.169 55.4925C229.222 55.7274 229.346 55.9718 229.316 56.1953C229.234 56.8009 229.076 57.3958 228.967 57.9983C228.842 58.6863 229.116 59.2198 229.692 59.674Z" fill="white"/>
<path d="M137.934 39.2012C137.536 40.9976 136.593 42.2457 134.878 42.9485C130.838 44.6041 126.822 46.3208 122.803 48.0262C121.018 48.7834 119.251 49.5831 117.464 50.3359C117.213 50.4418 116.894 50.3894 116.607 50.4104C116.603 50.1519 116.564 49.888 116.603 49.6363C116.675 49.1777 116.799 48.7277 116.89 48.2718C117.107 47.1838 118.066 46.8367 118.878 46.4585C120.73 45.5947 122.64 44.8528 124.531 44.0708C127.883 42.6845 131.241 41.3142 134.588 39.9155C135.268 39.6312 135.897 39.2261 136.572 38.9256C136.911 38.7743 137.297 38.7036 137.669 38.667C137.741 38.6599 137.846 38.9792 137.934 39.2012Z" fill="white"/>
<path d="M166.085 38.3421C168.704 37.3054 171.096 35.8316 173.864 35.0959C173.998 36.1988 173.421 36.8969 172.993 37.5865C172.664 38.1173 172.113 38.6151 171.545 38.8777C168.192 40.4276 164.804 41.901 161.43 43.4072C159.579 44.2336 157.737 45.0808 155.885 45.9043C155.231 46.1949 154.566 46.4658 153.889 46.6972C153.675 46.7704 153.393 46.7265 153.174 46.6473C153.116 46.6267 153.147 46.2646 153.195 46.0733C153.316 45.5829 153.506 45.1074 153.601 44.6129C153.739 43.8879 154.271 43.5406 154.853 43.2791C156.585 42.5002 158.337 41.7661 160.076 41.0048C162.068 40.1333 164.055 39.2513 166.085 38.3421Z" fill="white"/>
<path d="M189.184 90.2948C187.504 90.9989 185.878 91.702 184.248 92.3952C183.745 92.6089 183.241 92.8277 182.718 92.9805C182.472 93.0527 182.181 92.9748 181.91 92.9648C181.919 92.7271 181.893 92.4812 181.945 92.2535C182.016 91.9474 182.168 91.6607 182.249 91.3561C182.507 90.3913 183.157 89.8062 184.047 89.4306C187.855 87.8245 191.658 86.2094 195.467 84.6075C197.254 83.8561 199.048 83.1202 200.847 82.3988C201.031 82.3248 201.393 82.3183 201.464 82.422C201.568 82.5757 201.553 82.8841 201.472 83.078C200.787 84.7196 199.752 85.9063 197.954 86.5484C195.516 87.4186 193.187 88.5912 190.809 89.6305C190.288 89.8582 189.76 90.0705 189.184 90.2948Z" fill="white"/>
<path d="M187.9 80.4095C187.159 79.5889 186.479 78.7762 185.739 78.0213C185.302 77.5763 185.544 77.2068 185.813 76.9111C186.749 75.8799 187.727 74.8858 188.7 73.8882C189.137 73.44 189.625 73.4847 190.015 73.978C190.347 74.3968 190.643 74.8509 191.018 75.2265C191.681 75.8897 192.366 76.5357 193.09 77.1308C193.66 77.5991 193.715 77.8168 193.182 78.3496C192.299 79.2325 191.414 80.113 190.529 80.9937C190.081 81.4393 189.432 81.5108 188.911 81.1568C188.577 80.9301 188.259 80.6808 187.9 80.4095Z" fill="white"/>
<path d="M99.1617 58.987C98.7936 59.5538 98.4235 60.0532 97.736 60.1336C97.5457 60.1559 97.3124 60.1366 97.1526 60.0439C95.7911 59.2547 94.6518 58.1914 93.6202 57.0232C93.4478 56.828 93.4136 56.2692 93.5664 56.0703C94.4411 54.9324 95.3896 53.8508 96.3173 52.7535C96.687 52.3163 97.0261 52.3489 97.4673 52.7286C98.6514 53.7475 99.8689 54.7287 101.095 55.6972C101.443 55.9723 101.585 56.1532 101.229 56.5466C100.525 57.3253 99.8712 58.1492 99.1617 58.987Z" fill="white"/>
<path d="M313.895 61.092C314.847 60.1895 315.759 59.3155 316.68 58.4523C317.053 58.1037 317.489 58.0545 317.797 58.4836C318.738 59.7925 319.903 60.8528 321.227 61.758C321.657 62.0517 321.404 62.3847 321.17 62.6248C320.163 63.6618 319.171 64.7205 318.081 65.6656C317.826 65.8867 317.057 65.8813 316.789 65.6604C315.702 64.7618 314.681 63.7741 313.711 62.7479C313.184 62.1902 313.291 61.7447 313.895 61.092Z" fill="white"/>
<path d="M361.995 97.1728C361.317 96.5445 360.669 95.9591 360.036 95.3565C359.717 95.0524 359.417 94.7269 359.128 94.3933C358.659 93.8494 358.822 93.3216 359.259 92.8688C360.171 91.9231 361.092 90.9834 362.05 90.0846C362.386 89.7692 362.713 89.7771 363.125 90.2184C364.18 91.3496 365.324 92.4042 366.485 93.4289C366.869 93.7672 366.88 94.0346 366.591 94.3333C365.661 95.295 364.709 96.2355 363.753 97.1717C363.245 97.6691 362.545 97.6712 361.995 97.1728Z" fill="white"/>
</svg>
