<svg width="430" height="144" viewBox="0 0 430 144" fill="none" xmlns="http://www.w3.org/2000/svg">
<path d="M347.496 80.3355C345.972 80.5388 344.509 80.7398 343.047 80.9405C342.898 80.961 342.749 80.9939 342.599 80.9977C341.825 81.0177 341.645 80.7851 342.036 80.1352C342.868 78.7487 343.65 77.309 344.665 76.0662C345.12 75.5088 346.058 75.2051 346.826 75.0768C348.96 74.7197 351.117 74.4812 353.271 74.2616C354.737 74.1122 356.214 74.0812 357.685 73.9813C358.223 73.9448 358.757 73.8623 359.42 73.7863C359.366 72.8673 359.351 71.8934 359.24 70.9308C359.115 69.8452 358.909 68.7686 358.727 67.6901C358.438 65.9796 358.139 64.271 357.847 62.5612C357.612 61.1885 357.382 59.8151 357.147 58.4423C356.957 57.3237 356.75 56.2077 356.575 55.0868C356.399 53.9609 356.231 52.8329 356.098 51.7014C355.856 49.6389 355.611 47.5817 354.651 45.6941C354.469 45.3366 354.254 44.9713 354.188 44.5865C354.127 44.226 354.138 43.7807 354.299 43.4667C354.946 42.2036 355.662 40.9762 356.356 39.7374C356.47 39.5339 356.573 39.3143 356.728 39.1458C357.079 38.7646 357.55 38.816 357.795 39.2712C357.975 39.6042 358.129 39.9611 358.229 40.3257C358.744 42.2183 359.878 43.7699 360.982 45.3268C361.728 46.3785 361.641 46.9026 360.762 47.7891C360.684 47.8673 360.617 47.9613 360.527 48.0201C359.11 48.9443 359.268 50.2889 359.532 51.6798C359.688 52.5015 359.793 53.3333 359.913 54.1616C360.127 55.6289 360.34 57.0964 360.543 58.5653C360.693 59.6532 360.822 60.7441 360.969 61.8324C361.183 63.4095 361.463 64.9801 361.608 66.5634C361.8 68.6645 362.001 70.7763 361.979 72.8811C361.966 74.0914 361.597 75.33 360.713 76.2889C360.436 76.5896 360.589 76.7213 360.866 76.8543C363.759 78.2397 366.797 79.1327 369.973 79.5413C371.825 79.7796 373.678 80.0226 375.537 80.1946C377.091 80.3385 378.656 80.3677 380.214 80.4788C380.742 80.5165 381.283 80.5886 381.782 80.7555C382.283 80.9231 382.262 81.3351 382.054 81.7733C381.372 83.2139 380.707 84.6623 379.993 86.1989C379.243 86.0574 378.447 85.935 377.665 85.7541C375.939 85.3549 374.219 85.2376 372.431 85.3301C368.249 85.5464 364.291 86.662 360.387 88.0306C358.178 88.8052 356.058 89.8442 353.837 90.5777C350.808 91.5779 347.728 92.4271 344.652 93.2804C343.875 93.4962 343.036 93.5218 342.222 93.5662C339.445 93.7175 336.666 93.928 333.887 93.9373C332.197 93.9429 330.498 93.6784 328.818 93.4276C327.287 93.1988 325.763 92.8793 324.263 92.4945C323.371 92.2658 322.522 91.8547 321.671 91.4859C321 91.1951 320.929 91.223 320.627 91.9194C319.227 95.1449 317.714 98.3242 315.556 101.111C313.639 103.587 311.072 105.252 308.003 105.825C306.369 106.131 304.632 105.902 302.942 105.879C301.22 105.856 299.537 105.5 297.939 104.907C296.416 104.341 294.947 103.613 293.499 102.868C292.524 102.368 291.614 101.735 290.707 101.114C290.52 100.986 290.323 100.542 290.4 100.429C290.56 100.195 290.916 99.9305 291.163 99.9558C291.916 100.033 292.66 100.224 293.4 100.403C294.879 100.762 296.336 101.273 297.835 101.481C299.549 101.717 301.306 101.837 303.03 101.748C306.277 101.58 309.275 100.687 311.818 98.4502C314.587 96.015 316.424 92.9647 318.035 89.7328C317.389 89.1121 316.724 88.5451 316.144 87.9003C315.104 86.7433 314.674 85.4331 314.948 83.8149C315.187 82.408 315.534 81.072 316.179 79.8097C316.275 79.621 316.374 79.4161 316.526 79.2779C316.706 79.113 316.98 78.8749 317.148 78.9189C317.344 78.9702 317.527 79.2711 317.614 79.5023C317.82 80.0538 317.923 80.6463 318.146 81.1898C318.849 82.9018 320.251 83.9851 321.795 84.7846C323.379 85.6048 325.064 86.2773 326.771 86.7963C328.552 87.338 330.4 87.689 332.239 87.9987C335.016 88.4662 337.831 88.5168 340.634 88.3856C342.254 88.3098 343.881 88.0655 345.469 87.7304C348.017 87.1929 350.563 86.6071 353.061 85.8761C355.877 85.0523 358.639 84.0468 361.423 83.1149C361.662 83.035 361.887 82.9148 362.157 82.6504C360.252 82.0567 358.356 81.4325 356.441 80.8764C353.651 80.0667 350.78 80.1889 347.921 80.2115C347.8 80.2124 347.679 80.2908 347.496 80.3355Z" fill="white"/>
<path d="M131.652 61.1081C133.136 61.3065 134.438 61.8753 135.69 62.5504C136.36 62.9114 137.031 63.319 137.583 63.834C138.014 64.2358 138.34 64.8038 138.565 65.3583C138.726 65.7574 138.429 66.0976 137.954 66.0332C137.499 65.9714 137.042 65.8557 136.609 65.7001C135.897 65.4446 135.222 64.9815 134.497 64.8917C133.563 64.7761 132.548 64.7715 131.652 65.0215C129.5 65.6216 127.328 66.2405 125.295 67.1464C123.101 68.1238 121.796 69.9812 121.756 72.4636C121.732 73.9673 122.71 75.0616 123.814 75.9575C125.2 77.0823 126.783 77.8099 128.551 78.1487C130.256 78.4754 131.938 78.4402 133.608 78.0019C136.633 77.2082 139.464 75.9263 142.224 74.4802C143.106 74.0181 143.936 73.4589 144.81 72.9802C145.055 72.8461 145.415 72.7272 145.636 72.8165C145.782 72.8755 145.885 73.35 145.818 73.5842C145.406 75.0312 145.026 76.5 144.441 77.8779C144.255 78.3159 143.488 78.5319 142.959 78.7906C141.685 79.4135 140.395 80.0035 139.11 80.6032C135.39 82.3388 131.685 84.107 127.943 85.7926C126.097 86.624 124.204 87.3634 122.294 88.0323C120.187 88.7699 117.987 89.0584 115.755 88.9332C113.946 88.8317 112.364 88.063 110.866 87.0965C110.707 86.9941 110.544 86.8986 110.307 86.7539C110.063 87.4044 109.883 88.0337 109.597 88.6101C109.145 89.5213 108.665 90.425 108.118 91.2805C107.492 92.2584 106.437 92.5359 105.379 92.6321C103.406 92.8115 101.78 91.9369 100.284 90.7561C100.25 90.729 100.222 90.6928 100.189 90.6645C99.294 89.9093 99.3161 89.9352 98.4203 90.708C96.8056 92.1012 94.9775 92.6895 92.8049 92.4079C89.7742 92.015 87.2386 90.5675 84.7768 88.9193C84.4592 88.7067 84.2592 88.6573 83.9151 88.8003C81.8293 89.6671 79.7333 90.5095 77.6385 91.3543C77.483 91.417 77.3106 91.4403 77.1443 91.4725C76.0535 91.6841 75.6161 92.329 75.3004 93.4405C74.5374 96.1263 73.5512 98.7517 72.5736 101.371C72.0113 102.877 71.3437 104.351 70.6304 105.793C69.0859 108.914 66.6189 111.01 63.3817 112.246C61.0719 113.127 58.6731 113.265 56.2597 113.144C53.4407 113.003 50.664 112.511 48.0424 111.425C46.2316 110.675 44.4788 109.781 42.7166 108.917C42.3502 108.738 41.8893 108.493 42.0552 107.937C42.2226 107.376 42.7049 107.242 43.197 107.35C44.0808 107.545 44.945 107.827 45.8238 108.047C47.2194 108.396 48.6092 108.784 50.0224 109.039C51.08 109.229 52.1766 109.356 53.2451 109.301C56.3225 109.142 59.3788 108.754 62.1094 107.17C63.7082 106.243 65.1331 105.082 66.3472 103.641C68.5117 101.073 70.1289 98.1787 71.583 95.177C71.9054 94.5115 72.163 93.8142 72.4897 93.0382C72.1997 93.0939 71.9606 93.1172 71.736 93.1871C70.8627 93.4587 70.3234 93.3325 69.9805 92.5548C69.512 91.4921 69.1267 90.3867 68.7888 89.2741C68.6443 88.7981 68.8383 88.3147 69.381 88.1221C70.454 87.7415 71.5323 87.3759 72.6102 87.0093C74.7883 86.2686 76.9862 85.5816 79.1406 84.7768C80.8598 84.1345 82.5257 83.3484 84.2171 82.6305C84.5856 82.4741 84.9523 82.3004 85.3364 82.1966C86.5889 81.8584 86.6558 82.0664 86.7804 83.0224C86.8867 83.8389 86.695 84.6945 86.6315 85.5847C89.0537 86.4422 91.6065 87.048 94.2805 86.8116C95.8844 86.6698 97.2093 85.8599 98.3859 84.7954C99.8694 83.4532 100.801 81.7672 101.456 79.8939C101.573 79.5615 101.851 79.1751 102.153 79.0451C102.616 78.8455 102.963 79.1287 102.881 79.6703C102.716 80.7701 102.53 81.8682 102.305 82.9568C102.171 83.599 101.922 84.2164 101.778 84.8571C101.746 85.0011 101.903 85.3038 102.037 85.3509C103.369 85.8208 104.705 86.286 106.061 86.6819C106.849 86.9121 107.759 86.5179 108.169 85.902C108.908 84.7922 109.152 83.5196 109.474 82.2689C109.712 81.3425 109.894 80.3993 110.179 79.4884C110.269 79.2015 110.569 78.8879 110.849 78.7747C111.347 78.5731 111.776 78.9258 111.842 79.5028C111.871 79.7642 111.918 80.0568 111.835 80.2919C111.492 81.2655 112.173 81.7244 112.772 82.1814C113.692 82.8834 114.778 83.1095 115.916 83.2713C118.08 83.5791 120.131 83.1252 122.183 82.5664C122.239 82.5511 122.282 82.4862 122.396 82.3892C122.2 82.2288 122.005 82.0854 121.828 81.9219C120.099 80.3209 118.717 78.5242 118.288 76.1038C117.997 74.4546 118.292 72.8718 118.675 71.3051C118.995 69.9924 119.333 68.6448 119.937 67.4523C120.548 66.2447 121.394 65.1133 122.32 64.121C123.538 62.8166 125.106 61.9251 126.767 61.3027C128.327 60.7182 129.972 60.7473 131.652 61.1081Z" fill="white"/>
<path d="M254.998 88.528C255.824 87.936 255.985 87.0447 255.938 86.232C255.841 84.5145 255.585 82.8042 255.349 81.0972C255.15 79.6533 254.896 78.2168 254.652 76.7797C254.371 75.1341 254.071 73.4919 253.785 71.8472C253.543 70.4541 253.307 69.0601 253.074 67.6654C252.795 65.9954 252.525 64.3238 252.247 62.6537C252.043 61.428 251.834 60.2032 251.623 58.9786C251.347 57.3751 251.062 55.7732 250.792 54.1689C250.62 53.1535 250.33 52.1338 250.339 51.118C250.351 49.6457 249.812 48.4092 249.137 47.1798C248.267 45.5943 248.413 44.3711 249.528 42.9204C250.083 42.1975 250.539 41.397 251.035 40.6289C251.185 40.3973 251.206 39.9615 251.619 40.1189C251.902 40.2269 252.286 40.4406 252.355 40.6838C252.86 42.4852 253.897 43.9839 254.907 45.5121C256.037 47.2222 255.778 47.6676 254.778 49.3043C254.445 49.8488 254.026 50.3494 253.76 50.9233C253.329 51.8527 253.78 52.784 253.922 53.7018C254.173 55.3295 254.494 56.9465 254.786 58.5678C255.066 60.1259 255.349 61.6837 255.628 63.242C255.92 64.864 256.213 66.4856 256.497 68.1089C256.737 69.48 256.963 70.8536 257.2 72.2254C257.447 73.6603 257.71 75.0923 257.944 76.5294C258.178 77.9703 258.454 79.4098 258.578 80.8615C258.662 81.8544 258.578 82.8743 258.46 83.869C258.301 85.2063 258.088 86.5425 257.802 87.858C257.476 89.3557 257.006 90.8224 256.099 92.0839C254.888 93.7703 253.247 94.4769 251.114 93.8623C249.347 93.3531 247.698 92.6507 246.166 91.6298C245.549 91.2189 244.871 91.4457 244.275 91.7718C242.769 92.5956 241.293 93.4737 239.78 94.2836C237.551 95.4766 235.22 96.4314 232.744 96.9566C231.594 97.2007 230.409 97.2981 229.235 97.4036C227.855 97.5276 226.466 97.6866 225.086 97.6512C223.424 97.6086 221.744 97.468 220.176 96.8327C218.457 96.1361 217.129 94.9635 216.036 93.4415C214.471 91.262 213.568 88.8472 213.159 86.2234C212.874 84.3983 212.595 82.5712 212.374 80.7378C212.117 78.6135 211.929 76.4808 211.705 74.3525C211.535 72.7416 211.371 71.1297 211.175 69.5219C210.93 67.5129 210.653 65.5078 210.392 63.5008C210.17 61.7928 209.982 60.0796 209.721 58.3778C209.503 56.9627 209.149 55.568 208.955 54.1505C208.82 53.1612 208.733 52.1355 208.839 51.1496C208.986 49.7954 209.336 48.4636 209.598 47.1219C209.606 47.0793 209.583 47.021 209.604 46.9918C209.841 46.6653 209.678 46.0039 210.373 46.0588C210.984 46.1072 210.961 46.6744 211.023 47.0258C211.337 48.823 211.566 50.635 211.841 52.4396C212.182 54.6886 212.555 56.9329 212.883 59.1839C213.091 60.612 213.225 62.0511 213.424 63.4807C213.667 65.2247 213.962 66.9614 214.201 68.706C214.405 70.2013 214.555 71.704 214.738 73.2023C214.997 75.3196 215.294 77.4327 215.518 79.5537C215.725 81.5176 216.093 83.4383 216.708 85.3165C217.387 87.3926 218.732 88.8723 220.558 90.0143C223.238 91.6899 226.183 92.1119 229.221 91.827C232.984 91.4742 236.587 90.406 240.011 88.7977C241.446 88.124 242.835 87.3438 244.21 86.5527C245.626 85.7385 246.946 86.0584 248.356 86.6148C250.297 87.3812 252.296 88.0032 254.279 88.66C254.473 88.7243 254.73 88.5995 254.998 88.528Z" fill="white"/>
<path d="M151.896 90.7956C150.923 94.3682 151.395 97.6032 153.629 100.562C154.983 102.356 156.895 103.166 158.889 103.898C160.451 104.472 162.068 104.665 163.707 104.547C166.456 104.35 169.144 103.918 171.64 102.59C174.811 100.902 177.325 98.6085 178.95 95.3478C179.503 94.2363 179.514 93.1859 179.075 92.086C178.416 90.4339 177.78 88.7706 177.056 87.1471C176.268 85.3815 175.394 83.6547 174.552 81.9142C174.441 81.6852 174.313 81.4583 174.156 81.259C173.453 80.3624 173.319 79.4006 173.617 78.2928C173.954 77.0383 174.158 75.7477 174.426 74.4742C174.537 73.9462 175.043 73.7449 175.406 74.1381C175.792 74.5563 176.111 75.052 176.39 75.5529C177.114 76.8527 177.795 78.1766 178.506 79.4833C178.589 79.6354 178.738 79.7901 178.893 79.8582C181.546 81.0224 184.069 80.9033 186.537 79.2483C188.522 77.9175 189.979 76.1358 191.265 74.1813C193 71.5449 194.835 69.0042 197.139 66.8168C198.306 65.7092 200.474 65.7529 201.644 66.3121C203.674 67.2825 204.267 69.1158 204.586 71.1114C205.011 73.7731 205.129 76.4696 204.937 79.144C204.842 80.4626 204.221 81.7452 203.818 83.0375C203.725 83.335 203.554 83.6094 203.407 83.8881C203.152 84.373 202.753 84.5464 202.2 84.5873C200.145 84.7394 198.289 84.0042 196.435 83.3085C194.915 82.7379 193.436 82.0526 191.952 81.3888C191.53 81.2 191.156 80.9054 190.756 80.6649C190.417 80.4608 190.204 80.3818 189.889 80.8426C189.126 81.9571 188.311 83.0556 187.381 84.0285C186.028 85.4431 184.3 86.1953 182.355 86.4288C181.973 86.4746 181.595 86.5489 181.126 86.6247C181.237 87.4632 181.417 88.3247 181.451 89.1919C181.523 91.0373 181.572 92.8871 181.526 94.7325C181.499 95.8472 181.35 96.972 181.126 98.0656C180.775 99.7817 180.237 101.414 179.042 102.797C177.629 104.432 176.053 105.873 174.245 107.015C171.956 108.46 169.448 109.443 166.791 109.97C165.658 110.194 164.495 110.303 163.34 110.368C162.158 110.434 160.957 110.488 159.787 110.353C158.617 110.217 157.427 109.965 156.333 109.539C154.929 108.992 153.6 108.261 152.524 107.125C150.95 105.462 150.028 103.471 149.545 101.274C149.301 100.165 149.126 99.006 149.162 97.8772C149.215 96.1759 149.434 94.4747 149.668 92.7855C149.973 90.587 150.615 88.4735 151.507 86.4418C151.65 86.115 151.831 85.7653 152.093 85.5432C152.3 85.368 152.723 85.2291 152.935 85.3265C153.417 85.5479 153.45 86.0604 153.302 86.5207C152.851 87.9322 152.368 89.3335 151.896 90.7956ZM195.064 75.9666C196.944 76.9576 198.955 77.5825 200.995 78.1375C201.825 78.3633 201.895 78.3446 201.825 77.47C201.819 77.3835 201.826 77.287 201.791 77.213C201.039 75.6525 200.342 74.0606 199.499 72.5518C199.132 71.896 198.274 71.6838 197.573 71.7693C195.711 71.9962 194.494 73.1735 193.623 74.8794C194.067 75.217 194.524 75.5642 195.064 75.9666Z" fill="white"/>
<path d="M294.298 88.2768C291.381 89.3831 288.524 90.4984 285.946 92.2121C285.749 92.3428 285.458 92.3648 285.209 92.3735C284.86 92.3858 284.752 92.197 284.881 91.8589C285.219 90.969 285.496 90.0507 285.902 89.1935C286.076 88.8246 286.474 88.5273 286.831 88.2873C287.761 87.6606 288.725 87.0835 289.591 86.5395C288.368 85.737 287.075 84.9605 285.862 84.0716C284.671 83.1983 284.506 81.643 285.257 80.3766C286.746 77.8675 288.773 75.8432 291.028 74.027C292.051 73.2038 293.113 72.5377 294.427 72.2374C295.7 71.9466 296.673 72.4182 297.607 73.1406C297.917 73.3806 298.193 73.6765 298.445 73.98C299.127 74.8016 299.291 75.7078 298.703 76.6415C298.159 77.506 297.612 78.3795 296.963 79.1631C296.322 79.9364 295.819 79.7924 295.294 78.9009C294.97 78.3508 294.638 77.7326 294.145 77.3703C292.851 76.4186 292.059 76.6504 290.819 77.4324C290.584 77.5806 290.385 77.7855 290.153 77.9409C289.11 78.6422 288.99 79.2107 289.839 80.1301C291.236 81.6428 292.893 82.6772 294.989 83.0048C297.392 83.3804 299.717 83.025 302.047 82.5398C302.088 82.5314 302.126 82.4742 302.161 82.4782C302.514 82.5184 302.866 82.5666 303.219 82.6125C303.115 82.9229 303.053 83.2556 302.9 83.5391C302.517 84.2491 302.053 84.9172 301.696 85.6389C301.322 86.3926 300.762 86.7688 299.938 86.8247C298.117 86.9482 296.417 87.5624 294.709 88.1441C294.589 88.185 294.471 88.2308 294.298 88.2768Z" fill="white"/>
<path d="M270.592 79.0531C270.915 82.6035 271.124 86.101 270.964 89.6017C270.9 91.0044 270.57 92.3979 270.309 93.7856C270.268 94.0065 269.982 94.2665 269.753 94.3469C269.374 94.4801 269.093 94.2505 268.97 93.8634C268.894 93.6222 268.774 93.3821 268.759 93.1363C268.695 92.0898 268.701 91.0378 268.609 89.9942C268.469 88.4028 268.271 86.8167 268.095 85.2286C267.964 84.0489 267.852 82.8665 267.691 81.6909C267.463 80.0323 267.199 78.3786 266.946 76.7236C266.761 75.5149 266.576 74.3061 266.377 73.0999C266.139 71.6636 265.875 70.2315 265.64 68.7948C265.393 67.2922 265.166 65.7862 264.93 64.2818C264.74 63.0739 264.547 61.8665 264.362 60.658C264.195 59.5755 264.031 58.4927 263.877 57.4084C263.699 56.1521 263.467 54.8985 263.382 53.6353C263.316 52.6618 263.341 51.6581 263.506 50.6992C263.709 49.514 264.087 48.3575 264.417 47.1966C264.51 46.871 264.746 46.573 265.132 46.7387C265.327 46.8223 265.53 47.0743 265.578 47.2849C265.748 48.0333 265.871 48.7942 265.98 49.5549C266.185 50.9814 266.357 52.4127 266.563 53.8389C266.751 55.1337 266.96 56.4255 267.171 57.7168C267.409 59.1758 267.658 60.633 267.904 62.0905C268.141 63.4841 268.381 64.8769 268.618 66.2703C268.916 68.0229 269.226 69.7736 269.505 71.5292C269.755 73.0986 269.971 74.6735 270.199 76.2463C270.331 77.1611 270.46 78.0765 270.592 79.0531Z" fill="white"/>
<path d="M384.812 48.368C384.945 49.9108 385.047 51.4012 385.215 52.8841C385.451 54.96 385.746 57.0289 385.994 59.1035C386.189 60.7328 386.333 62.3682 386.531 63.9971C386.728 65.6202 386.982 67.2363 387.176 68.8597C387.337 70.2124 387.442 71.5718 387.581 72.9273C387.751 74.5824 387.93 76.2364 388.105 77.891C388.109 77.9346 388.106 77.9791 388.107 78.0232C388.151 80.0413 388.309 82.0652 388.208 84.076C388.092 86.3902 388.071 88.7368 387.316 90.9755C387.235 91.2155 387.184 91.4841 387.039 91.6797C386.874 91.9038 386.549 92.2551 386.417 92.2071C386.147 92.1084 385.84 91.8146 385.763 91.5403C385.626 91.0499 385.62 90.5151 385.61 89.9979C385.589 89.006 385.655 88.01 385.593 87.0216C385.451 84.7692 385.253 82.5203 385.078 80.27C384.99 79.1452 384.928 78.0174 384.806 76.8963C384.662 75.5701 384.456 74.2506 384.293 72.9263C384.147 71.7484 384.037 70.5662 383.888 69.3888C383.731 68.1518 383.535 66.9199 383.379 65.6828C383.266 64.7819 383.197 63.8757 383.1 62.9728C382.928 61.3843 382.701 59.8001 382.589 58.2077C382.448 56.2043 382.295 54.1916 382.347 52.1882C382.382 50.8607 382.756 49.5389 383.488 48.3729C383.51 48.3387 383.491 48.2707 383.517 48.249C383.759 48.0452 383.988 47.7445 384.262 47.6921C384.401 47.6656 384.625 48.0911 384.812 48.368Z" fill="white"/>
<path d="M346.269 60.8714C345.626 60.2768 345.035 59.6966 344.403 59.1668C344.299 59.08 343.88 59.1504 343.828 59.2573C342.703 61.5576 341.033 63.3554 338.951 64.8136C336.455 66.5621 333.799 68.0021 330.964 69.102C330.689 69.2087 330.186 69.1468 329.998 68.9556C329.71 68.6636 329.806 68.2306 330.168 67.9359C331.154 67.1312 332.107 66.2801 333.132 65.5273C335.881 63.5071 338.809 61.7169 341.135 59.1621C341.534 58.724 341.884 58.2417 342.206 57.8436C340.758 56.7047 339.315 55.6328 337.951 54.4667C337.35 53.9529 337.194 53.2065 337.333 52.3608C337.616 50.6348 338.285 49.092 339.378 47.7586C340.141 46.8289 340.987 45.974 342.123 45.4493C343.398 44.8601 345.032 45.8796 345.544 46.9716C346.226 48.428 346.616 49.9748 346.46 51.5886C346.333 52.8971 346.059 54.1912 345.833 55.6023C346.076 55.7998 346.461 56.135 346.869 56.4386C347.754 57.0972 347.823 57.9727 347.559 58.9427C347.408 59.4948 347.265 60.0504 347.081 60.5915C346.956 60.9598 346.725 61.2013 346.269 60.8714ZM341.27 52.41C342.086 52.9828 342.902 53.5557 343.805 54.1897C343.868 53.9666 343.971 53.7802 343.965 53.5971C343.941 52.8166 343.965 52.0214 343.819 51.2611C343.647 50.366 343.331 49.4953 342.608 48.8556C342.197 48.4918 341.715 48.4224 341.341 48.7998C340.848 49.2972 340.418 49.8711 340.039 50.4624C339.915 50.6555 339.927 51.0914 340.064 51.2673C340.382 51.6731 340.816 51.9878 341.27 52.41Z" fill="white"/>
<path d="M295.755 48.7323C295.98 49.848 296.136 50.8959 295.909 51.9922C295.677 53.1135 295.569 54.2607 295.387 55.5385C295.549 55.6758 295.824 56.0105 296.177 56.1858C297.312 56.7493 297.307 57.7516 297.185 58.7637C297.118 59.323 296.882 59.8637 296.705 60.4072C296.518 60.9791 296.171 61.0621 295.731 60.6551C295.156 60.1233 294.581 59.5923 294.008 59.0581C293.723 58.7925 293.541 58.8411 293.377 59.2017C292.622 60.8656 291.483 62.2493 290.112 63.42C289.172 64.2219 288.19 65.007 287.123 65.6174C285.052 66.8027 282.911 67.8645 280.792 68.9658C280.386 69.1771 279.905 69.2471 279.634 68.8119C279.368 68.3843 279.616 67.9626 279.977 67.677C281.237 66.6811 282.505 65.697 283.78 64.7212C286.029 62.9999 288.439 61.4813 290.416 59.42C290.932 58.8817 291.375 58.2725 291.824 57.7297C290.373 56.5652 288.973 55.4691 287.606 54.3335C286.949 53.7882 286.9 53.0482 287.013 52.2257C287.227 50.6584 287.858 49.2613 288.802 48.0559C289.535 47.1193 290.438 46.279 291.391 45.5642C292.405 44.8039 294.064 45.3445 294.821 46.602C295.209 47.2463 295.447 47.9815 295.755 48.7323ZM292.732 49.4418C292.218 48.6278 291.624 48.3035 291.091 48.7174C290.509 49.1685 290.026 49.7709 289.58 50.3674C289.266 50.7856 289.444 51.2301 289.836 51.5522C290.199 51.85 290.566 52.1455 290.953 52.4103C291.767 52.9672 292.595 53.5034 293.486 54.0943C293.578 52.4306 293.564 50.9145 292.732 49.4418Z" fill="white"/>
<path d="M82.8207 55.2889C82.1294 55.4971 81.4878 55.7096 80.8301 55.8402C80.4232 55.921 80.3091 55.7232 80.4799 55.3035C80.7023 54.7572 80.8461 54.1786 81.0223 53.6135C81.2369 52.9249 81.7411 52.5375 82.3765 52.2746C85.1446 51.1294 87.9149 49.9895 90.6765 48.8289C93.2655 47.7408 95.8418 46.6223 98.429 45.5298C101.073 44.4133 103.723 43.3109 106.371 42.205C107.344 41.7988 108.316 41.3901 109.297 41.0072C109.473 40.9388 109.816 40.916 109.87 41.0038C109.977 41.1775 110.013 41.4705 109.944 41.6664C109.329 43.4133 108.262 44.6576 106.425 45.2926C104.475 45.9669 102.601 46.8651 100.7 47.6793C98.5834 48.5855 96.4784 49.5185 94.3596 50.4187C92.5924 51.1695 90.8085 51.8807 89.0388 52.6258C86.9766 53.4941 84.9218 54.3802 82.8207 55.2889Z" fill="white"/>
<path d="M235.445 72.3052C236.516 71.2258 237.553 70.1799 238.594 69.1378C239.079 68.652 239.685 68.6646 240.088 69.2265C241.06 70.5815 242.216 71.7383 243.557 72.725C243.846 72.9373 244.011 73.2654 243.609 73.6471C242.636 74.5693 241.686 75.5182 240.77 76.4975C240.042 77.2768 239.282 77.4037 238.422 76.5469C237.774 75.9011 237.07 75.3108 236.432 74.6559C236.103 74.3179 235.902 74.3405 235.586 74.6653C234.803 75.4681 233.989 76.2393 233.18 77.0156C232.502 77.6665 232.029 77.6853 231.251 77.1697C229.89 76.2669 228.826 75.0662 227.912 73.7367C227.771 73.5324 227.857 72.9744 228.044 72.7719C229.117 71.61 230.234 70.4877 231.377 69.394C231.693 69.0906 232.095 69.0616 232.469 69.4808C233.3 70.4131 234.175 71.3073 235.043 72.2059C235.125 72.2908 235.287 72.2973 235.445 72.3052Z" fill="white"/>
<path d="M92.3154 71.2381C91.4733 70.0732 91.4769 70.0328 92.4793 69.0257C93.379 68.1218 94.2759 67.2151 95.1801 66.3159C95.6236 65.8749 96.0798 65.957 96.504 66.433C97.2916 67.317 98.1103 68.1744 98.9496 69.0088C99.0612 69.1198 99.4635 69.1284 99.5702 69.0218C100.517 68.0765 101.444 67.1097 102.342 66.1181C102.925 65.4753 103.512 65.4883 104.092 66.1075C105.121 67.2053 106.184 68.2737 107.276 69.3085C107.884 69.8846 107.931 70.0464 107.32 70.6601C106.421 71.5643 105.493 72.4424 104.63 73.3805C103.999 74.0663 103.078 74.1915 102.364 73.4131C101.717 72.7078 100.964 72.1019 100.286 71.4233C99.9868 71.1236 99.8069 71.1884 99.5367 71.4559C98.6523 72.3315 97.7776 73.223 96.8286 74.0241C96.3575 74.4219 95.7733 74.6258 95.1864 74.0167C94.274 73.0697 93.2985 72.184 92.3154 71.2381Z" fill="white"/>
<path d="M55.7674 79.7116C55.3685 79.9259 55.0199 80.1318 54.6502 80.2873C54.2206 80.4681 53.9587 80.2642 54.0186 79.797C54.0948 79.2023 54.1842 78.6074 54.3078 78.021C54.5417 76.9107 55.4569 76.424 56.3399 76.0022C57.92 75.2475 59.5438 74.5842 61.157 73.9008C63.1972 73.0366 65.2488 72.1997 67.2884 71.3341C69.2708 70.4927 71.2472 69.637 73.22 68.7734C74.1486 68.367 75.0638 67.9295 75.983 67.5016C76.466 67.2767 76.9445 67.0421 77.499 66.7765C77.7543 67.8812 77.2465 68.6149 76.9618 69.3949C76.5393 70.5526 75.5959 71.1412 74.5375 71.6098C72.9146 72.3283 71.3076 73.0834 69.6793 73.7891C67.3552 74.7964 65.0192 75.7762 62.6859 76.7619C60.8586 77.5338 59.0269 78.295 57.1989 79.0653C56.7319 79.2621 56.2718 79.4754 55.7674 79.7116Z" fill="white"/>
<path d="M314.854 45.6583C315.971 46.0188 317.024 46.4016 318.094 46.7243C318.82 46.9431 319.573 47.0724 320.311 47.2515C320.795 47.369 321.089 47.5532 320.805 48.1569C320.51 48.7842 320.357 49.4772 320.084 50.1167C319.827 50.7204 319.393 51.1344 318.737 51.3806C318.299 51.5448 317.94 51.9461 317.574 52.2731C316.008 53.6719 314.119 54.3933 312.137 54.9275C311.117 55.2024 310.108 55.5291 309.077 55.7494C308.76 55.8171 308.385 55.6099 308.037 55.5286C308.134 55.1977 308.126 54.7218 308.346 54.5617C309.166 53.9648 310.043 53.4378 310.932 52.9465C312.619 52.0147 314.329 51.1257 316.029 50.2189C316.03 50.1344 316.032 50.0499 316.034 49.9654C314.843 49.6338 313.656 49.2904 312.461 48.9739C311.206 48.6411 309.999 48.8985 308.833 49.3746C307.814 49.7904 306.968 50.4447 306.286 51.3248C306.131 51.5236 305.823 51.6019 305.586 51.7356C305.514 51.4808 305.332 51.1988 305.387 50.9754C305.998 48.4939 307.455 46.7141 309.858 45.8049C311.475 45.1932 313.137 45.2367 314.854 45.6583Z" fill="white"/>
<path d="M226.996 50.4979C228.25 50.6394 229.395 50.4976 230.297 49.5505C231.06 48.7492 231.461 47.7497 231.572 46.6889C231.667 45.7923 231.902 45.0624 232.711 44.623C232.942 44.4979 233.23 44.4805 233.502 44.411C233.574 45.3668 233.601 46.2558 233.72 47.1322C233.817 47.8553 234.675 48.579 235.365 48.7161C235.803 48.8029 237.32 48.0961 237.447 47.6186C237.56 47.1949 237.514 46.6443 237.333 46.2433C236.972 45.4445 236.982 44.7677 237.517 44.0599C237.768 43.7272 237.87 43.2837 238.101 42.9305C238.27 42.6715 238.538 42.4777 238.894 42.1226C239.136 42.9727 239.401 43.6044 239.486 44.2597C239.703 45.934 239.747 47.5827 239.14 49.2387C238.541 50.8701 237.46 51.7025 235.819 52.0289C234.492 52.2929 233.338 52.0436 232.293 51.1969C232.013 50.9697 231.902 51.1534 231.705 51.3935C231.109 52.1202 230.538 52.9256 229.785 53.4517C228.501 54.3498 227.02 54.4443 225.602 53.7297C224.609 53.2296 224.192 52.2726 224.094 51.1927C223.934 49.4223 224.641 47.8801 225.455 46.3908C225.585 46.1531 226.037 46.0934 226.341 45.9515C226.4 46.0053 226.46 46.0592 226.519 46.113C226.441 46.5695 226.393 47.0338 226.277 47.4808C226.018 48.4851 225.785 49.4738 226.68 50.3039C226.756 50.3738 226.865 50.407 226.996 50.4979Z" fill="white"/>
<path d="M131.519 49.403C129.057 50.4276 126.631 51.4062 124.22 52.4212C122.899 52.9772 121.604 53.5953 120.296 54.1833C120.124 54.261 119.951 54.3638 119.768 54.3902C119.052 54.4939 118.932 54.3574 119.095 53.6597C119.173 53.3295 119.315 53.0076 119.345 52.6746C119.469 51.2588 120.459 50.6453 121.598 50.1656C123.912 49.191 126.229 48.2228 128.546 47.2534C130.978 46.2354 133.419 45.2367 135.842 44.1956C137.296 43.5708 138.722 42.8811 140.162 42.2211C140.2 42.2035 140.241 42.179 140.28 42.1795C140.609 42.1834 140.937 42.1925 141.266 42.2C141.239 42.4599 141.242 42.7273 141.18 42.9786C140.672 45.0505 139.265 46.2326 137.349 46.9713C135.637 47.6314 133.963 48.3893 132.27 49.1014C132.037 49.1995 131.798 49.2823 131.519 49.403Z" fill="white"/>
<path d="M234.583 29.4811C236.68 28.6207 238.731 27.7839 240.789 26.9672C240.961 26.8992 241.309 26.8966 241.36 26.9865C241.46 27.1643 241.494 27.4673 241.408 27.6496C241.059 28.3987 240.776 29.2362 240.234 29.8221C239.711 30.3878 238.934 30.7641 238.208 31.0836C236.199 31.9673 234.157 32.7748 232.13 33.6182C229.81 34.584 227.496 35.5674 225.171 36.5219C222.984 37.42 220.786 38.2909 218.591 39.1717C218.455 39.2264 218.315 39.29 218.172 39.3036C217.731 39.3457 217.379 39.3145 217.628 38.6932C217.896 38.0264 218.095 37.3317 218.361 36.6643C218.646 35.9524 219.352 35.7581 219.962 35.49C221.602 34.7692 223.255 34.0789 224.911 33.3972C228.074 32.0958 231.242 30.8086 234.408 29.5174C234.446 29.5018 234.495 29.5119 234.583 29.4811Z" fill="white"/>
<path d="M156.301 57.0709C158.7 55.9972 161.051 54.9403 163.409 53.8994C166.269 52.6367 169.139 51.3948 171.996 50.126C172.517 49.8946 172.986 49.5456 173.506 49.31C173.934 49.116 174.401 49.0097 174.895 48.8505C174.939 50.6705 174.1 52.6695 172.373 53.4564C170.545 54.2888 168.723 55.1317 166.883 55.9355C165.258 56.6455 163.605 57.2917 161.977 57.9957C160.077 58.8179 158.188 59.669 156.297 60.5149C155.75 60.7598 155.213 61.0301 154.608 61.2096C154.665 59.5857 154.573 57.9724 156.301 57.0709Z" fill="white"/>
<path d="M211.279 94.9875C211.949 94.8937 212.11 95.0793 211.917 95.6785C211.3 97.5882 210.053 98.8391 208.159 99.546C206.321 100.232 204.545 101.083 202.737 101.851C200.6 102.76 198.457 103.657 196.318 104.561C194.586 105.293 192.861 106.041 191.123 106.756C190.663 106.945 190.163 107.037 189.492 107.227C189.695 106.442 189.864 105.866 189.992 105.28C190.211 104.275 190.803 103.7 191.767 103.309C194.564 102.171 197.316 100.922 200.098 99.744C202.936 98.5411 205.79 97.3747 208.633 96.1814C209.509 95.8137 210.37 95.4102 211.279 94.9875Z" fill="white"/>
<path d="M233.069 65.867C232.52 65.2167 231.972 64.6254 231.51 63.9725C231.398 63.8142 231.477 63.3697 231.627 63.1984C232.632 62.0551 233.666 60.9368 234.721 59.8403C235.07 59.4769 235.515 59.4351 235.899 59.8457C236.298 60.274 236.658 60.7429 237.08 61.1471C237.883 61.9169 238.712 62.6595 239.542 63.4004C239.871 63.6935 239.883 64.0008 239.599 64.2916C238.555 65.3611 237.539 66.4661 236.411 67.4381C236.122 67.6866 235.355 67.6766 234.989 67.4667C234.291 67.0668 233.723 66.4374 233.069 65.867Z" fill="white"/>
<path d="M313.048 63.8272C313.438 63.4372 313.791 63.0761 314.153 62.7244C314.56 62.3301 315.117 62.3795 315.51 62.7827C316.652 63.9532 317.782 65.1384 318.981 66.2477C319.338 66.5778 319.267 66.8184 319.053 67.0407C317.988 68.1488 316.908 69.2442 315.798 70.3067C315.327 70.7581 314.674 70.653 313.995 69.988C312.993 69.0077 312.028 67.987 311.092 66.9434C310.769 66.5834 310.753 66.124 311.156 65.7291C311.783 65.1142 312.396 64.484 313.048 63.8272Z" fill="white"/>
<path d="M101.473 63.1655C101.285 63.3543 101.113 63.4966 100.977 63.6678C99.9571 64.9529 99.1068 64.6069 98.2029 63.7597C97.2611 62.8768 96.4 61.9053 95.5266 60.9514C95.169 60.5608 95.4346 60.1357 95.6884 59.8655C96.7111 58.7771 97.7756 57.7278 98.84 56.6798C99.1723 56.3525 99.6808 56.5082 100.032 56.8633C101.127 57.9691 102.254 59.0427 103.379 60.117C103.738 60.4591 103.849 60.7822 103.459 61.1701C102.805 61.8212 102.157 62.478 101.473 63.1655Z" fill="white"/>
<path d="M160.289 74.9388C160.057 74.628 159.891 74.3203 159.658 74.0776C159.226 73.6283 159.448 73.2395 159.763 72.9117C160.767 71.866 161.792 70.8397 162.828 69.8246C163.338 69.3244 163.769 69.3759 164.14 69.978C164.958 71.3051 166.082 72.3161 167.343 73.1944C167.818 73.5254 167.855 73.8907 167.439 74.3135C166.482 75.2836 165.52 76.2477 164.559 77.2128C164.072 77.7015 163.226 77.7203 162.706 77.2351C161.905 76.4881 161.117 75.7266 160.289 74.9388Z" fill="white"/>
<path d="M364.097 102.143C363.693 102.55 363.323 102.925 362.951 103.297C362.492 103.755 362.056 103.793 361.555 103.35C360.592 102.502 359.641 101.639 358.712 100.753C358.458 100.51 358.211 100.191 358.123 99.8621C358.053 99.6005 358.133 99.1807 358.313 98.9885C359.333 97.8999 360.409 96.865 361.451 95.7976C361.762 95.479 362.028 95.4519 362.321 95.7945C362.839 96.4005 363.319 97.0474 363.89 97.5982C364.488 98.1752 365.163 98.6756 365.827 99.1789C366.354 99.5777 366.401 99.8251 365.941 100.291C365.341 100.901 364.734 101.504 364.097 102.143Z" fill="white"/>
</svg>
