<svg width="429" height="143" viewBox="0 0 429 143" fill="none" xmlns="http://www.w3.org/2000/svg">
<path d="M152.891 66.1442C154.324 63.9813 155.688 61.827 157.615 60.1228C155.974 58.0675 153.981 58.0464 152.14 59.5336C152.106 59.5609 152.084 59.6105 152.047 59.6251C151.683 59.7694 151.317 59.9085 150.951 60.0491C150.886 59.7244 150.705 59.3718 150.776 59.08C151.008 58.1212 151.273 57.1619 151.631 56.244C152.395 54.2862 153.585 52.6232 155.532 51.7192C156.629 51.2102 157.829 50.8677 159.019 50.6308C160.13 50.4095 161.3 50.2836 162.425 50.3683C164.936 50.5574 167.333 51.197 169.231 52.9973C169.862 53.5962 170.118 54.3775 169.831 55.2743C169.543 56.1763 169.335 57.1065 169.007 57.9932C168.578 59.156 167.76 60.0193 166.649 60.6271C168.658 61.9052 170.845 62.633 173.123 62.9174C175.274 63.1859 177.388 62.7479 179.306 61.6677C181.486 60.4398 182.753 58.4155 183.879 56.2789C184.016 56.0191 184.175 55.7425 184.396 55.5617C184.765 55.2598 185.222 55.4801 185.176 55.9473C185.111 56.5981 185.009 57.2596 184.81 57.8799C184.392 59.1774 183.9 60.4509 183.398 61.8453C184.565 61.9504 185.773 62.1255 186.984 62.1529C188.868 62.1954 190.25 61.2338 191.376 59.7896C192.522 58.3186 193.245 56.6432 193.859 54.9092C194.042 54.3943 194.29 54.0114 194.914 54.1573C195.261 54.2384 195.671 55.1011 195.557 55.5223C195.2 56.842 194.829 58.1578 194.452 59.5185C196.278 60.2282 198.178 60.9226 200.174 61.0067C200.174 59.6492 200.243 58.3504 200.157 57.0621C200.04 55.3188 200.509 53.7266 201.173 52.1622C201.379 51.6774 201.578 51.1855 201.837 50.7293C201.959 50.5157 202.216 50.3794 202.411 50.208C202.563 50.3816 202.8 50.5331 202.852 50.7327C203.044 51.4686 203.236 52.214 203.313 52.9676C203.417 53.98 203.495 55.0072 203.444 56.021C203.301 58.8882 202.783 61.6844 201.202 64.1422C200.598 65.0812 199.915 66.0694 198.74 66.4141C197.759 66.7019 196.774 66.4682 195.838 66.1667C194.412 65.7077 193.007 65.1805 191.801 64.2473C191.483 64.001 191.241 63.9573 190.864 64.285C189.442 65.5209 187.772 66.2814 185.893 66.4949C184.63 66.6386 183.355 66.7366 182.084 66.7485C181.255 66.7562 180.426 66.5585 179.595 66.4834C179.321 66.4588 179.001 66.4539 178.768 66.5708C177.538 67.1882 176.305 67.7472 174.919 67.9757C173.545 68.2023 172.198 68.2691 170.811 68.1023C169.249 67.9145 167.803 67.4062 166.427 66.7083C165.009 65.9889 163.812 64.9527 162.784 63.7388C162.371 63.2518 162.079 63.193 161.458 63.5608C159.207 64.8954 157.286 66.6079 155.535 68.5115C152.714 71.5762 151.008 75.2365 150.114 79.2733C149.792 80.7261 149.595 82.2149 149.458 83.698C149.329 85.103 149.225 86.532 149.333 87.9332C149.638 91.8847 150.922 95.4452 154.038 98.0941C156.051 99.8051 158.418 100.887 160.991 101.449C162.445 101.767 163.932 102.017 165.415 102.099C167.874 102.235 170.343 102.275 172.806 102.235C174.747 102.204 176.686 102.005 178.624 101.857C180.082 101.746 181.541 101.62 182.995 101.461C184.783 101.267 186.563 101.003 188.352 100.822C190.045 100.65 191.745 100.529 193.444 100.434C193.745 100.417 194.303 100.611 194.32 100.756C194.361 101.114 194.275 101.648 194.027 101.845C193.426 102.324 192.747 102.792 192.022 103.017C188.782 104.024 185.522 104.971 182.255 105.889C179.877 106.557 177.495 107.231 175.081 107.743C173.35 108.11 171.567 108.253 169.8 108.419C168.569 108.535 167.326 108.55 166.088 108.558C163.743 108.572 161.452 108.202 159.218 107.483C156.198 106.512 153.545 104.944 151.414 102.574C149.631 100.591 148.355 98.2827 147.654 95.7278C147.167 93.9534 146.932 92.1007 146.699 90.2684C146.515 88.8128 146.401 87.3319 146.446 85.868C146.494 84.3093 146.741 82.7543 146.945 81.2032C147.481 77.1124 148.815 73.2769 150.765 69.6556C151.405 68.4663 152.156 67.3363 152.891 66.1442Z" fill="white"/>
<path d="M297.522 91.2518C299.824 91.9596 302.142 92.1372 304.473 91.9896C307.536 91.7957 310.486 91.1884 312.958 89.1681C314.741 87.7105 316.184 85.9575 317.4 84.0198C318.128 82.8599 318.764 81.6426 319.248 80.7923C318.511 79.8978 317.893 79.1328 317.259 78.3814C316.374 77.3321 316.21 76.0851 316.381 74.8056C316.568 73.3999 316.974 72.0403 317.685 70.7934C317.78 70.6276 317.872 70.4431 318.014 70.3262C318.166 70.2001 318.413 70.0354 318.552 70.0831C318.732 70.145 318.949 70.3874 318.971 70.5738C319.291 73.1969 321.036 74.6814 323.172 75.8285C325.701 77.187 328.42 78.0403 331.228 78.5752C332.509 78.8194 333.829 78.87 335.133 78.9884C336.271 79.0917 337.416 79.2789 338.55 79.2299C340.547 79.1436 342.541 78.9366 344.53 78.7238C347.683 78.3864 350.703 77.4542 353.715 76.5284C356.332 75.7244 358.92 74.8263 361.519 73.9657C361.616 73.9336 361.699 73.858 361.923 73.719C359.867 73.1207 357.931 72.4757 355.954 72.0092C354.527 71.6726 353.05 71.464 351.586 71.3971C349.871 71.3188 348.143 71.3952 346.429 71.5219C345.334 71.603 344.256 71.9118 343.165 72.0834C342.921 72.1218 342.564 72.0974 342.425 71.9477C342.296 71.8097 342.292 71.4051 342.403 71.22C343.155 69.9686 343.904 68.7113 344.748 67.5226C345.344 66.6832 346.368 66.5359 347.302 66.3892C349.034 66.1173 350.777 65.9136 352.521 65.7243C353.699 65.5963 354.887 65.5495 356.069 65.4515C357.053 65.37 358.034 65.2666 359.105 65.1645C359.051 64.2956 359.044 63.4319 358.932 62.5825C358.755 61.2531 358.503 59.934 358.29 58.6093C358.064 57.1998 357.865 55.7855 357.619 54.3796C357.337 52.7691 356.986 51.1705 356.719 49.5578C356.381 47.517 356.01 45.4754 355.816 43.4189C355.614 41.271 354.983 39.2825 354.104 37.3388C353.977 37.0574 353.992 36.6026 354.133 36.3273C354.77 35.0918 355.475 33.8916 356.158 32.6802C356.242 32.5329 356.339 32.3933 356.434 32.253C356.747 31.7899 357.328 31.7865 357.484 32.2941C358.174 34.5361 359.47 36.4375 360.77 38.3451C361.25 39.0492 361.129 39.6521 360.509 40.298C360.072 40.7531 359.552 41.1584 359.227 41.6839C358.716 42.5098 359.178 43.4053 359.268 44.264C359.384 45.3668 359.577 46.4614 359.734 47.56C359.9 48.7227 360.066 49.8853 360.224 51.0491C360.373 52.1511 360.508 53.2551 360.655 54.3574C360.82 55.5855 360.996 56.8119 361.158 58.0403C361.262 58.8261 361.376 59.6121 361.436 60.4017C361.509 61.3744 361.527 62.3511 361.575 63.3258C361.657 64.9569 361.295 66.455 360.273 67.7624C360.215 67.8364 360.205 67.9481 360.168 68.057C362.811 69.3445 365.598 70.1598 368.503 70.5791C370.131 70.8142 371.759 71.0592 373.394 71.2264C375.153 71.4062 376.922 71.4892 378.685 71.6374C379.277 71.6872 379.863 71.8034 380.452 71.8961C380.945 71.9737 381.058 72.3052 380.884 72.7027C380.292 74.0546 379.662 75.39 379.06 76.7378C378.838 77.2361 378.394 77.0648 378.101 76.9905C375.965 76.4491 373.808 76.0529 371.601 76.2466C369.965 76.3903 368.318 76.5709 366.715 76.9181C364.822 77.3282 362.943 77.8516 361.11 78.4783C358.802 79.2674 356.573 80.2912 354.26 81.0663C351.625 81.9494 348.949 82.7214 346.265 83.4455C343.943 84.072 341.553 84.3241 339.147 84.3811C337.405 84.4224 335.659 84.5723 333.923 84.4888C330.896 84.3433 327.89 83.9417 324.983 83.0333C324.043 82.7395 323.15 82.2952 322.164 81.8904C321.834 82.6166 321.523 83.3948 321.136 84.1333C320.186 85.9461 319.277 87.7868 318.205 89.5263C317.492 90.6827 316.619 91.7754 315.656 92.7345C313.885 94.4987 311.706 95.5493 309.22 95.9513C307.511 96.2278 305.826 95.9576 304.128 95.8306C300.852 95.5857 297.981 94.1918 295.125 92.7528C294.429 92.402 293.772 91.9522 293.158 91.4694C292.92 91.2816 292.852 90.8766 292.707 90.5706C292.997 90.4349 293.285 90.195 293.578 90.1882C294.009 90.1782 294.452 90.3061 294.876 90.4261C295.748 90.673 296.61 90.9536 297.522 91.2518Z" fill="white"/>
<path d="M123.462 58.3909C121.031 59.2632 119.485 60.8771 118.959 63.3787C118.739 64.4214 119.203 65.3206 119.812 66.1093C121.395 68.1573 123.607 69.0725 126.077 69.5381C127.955 69.8919 129.732 69.4678 131.507 68.9723C133.916 68.3 136.194 67.3019 138.385 66.1074C139.312 65.6022 140.203 65.0313 141.125 64.5156C141.406 64.3582 141.734 64.2852 142.041 64.1736C142.094 64.5239 142.254 64.8991 142.18 65.2199C141.957 66.1834 141.591 67.1144 141.376 68.0793C141.157 69.063 140.588 69.5802 139.666 69.952C138.201 70.5426 136.801 71.2937 135.368 71.9666C132.411 73.3559 129.473 74.7902 126.483 76.1072C124.116 77.15 121.688 78.054 119.28 79.0035C117.231 79.8115 115.076 79.9168 112.926 79.7569C111.13 79.6234 109.614 78.6834 108.084 77.6157C107.842 78.2435 107.637 78.8507 107.377 79.4335C106.922 80.4517 106.607 81.5621 105.7 82.3102C104.721 83.1177 103.634 83.4494 102.328 83.248C100.519 82.969 99.0893 82.0466 97.7778 80.8721C97.4261 80.5572 97.2502 80.7552 97.0355 80.9994C96.1023 82.0605 94.9583 82.7752 93.5683 83.0639C91.8998 83.4104 90.2942 83.0748 88.7277 82.5311C86.8979 81.8962 85.2377 80.9294 83.6734 79.7954C83.367 79.5733 83.1046 79.4622 82.6862 79.6327C80.2504 80.6254 77.8057 81.5989 75.3385 82.5098C74.9284 82.6612 74.7722 82.8719 74.6595 83.2066C73.719 85.999 72.8098 88.8023 71.8343 91.5823C71.3965 92.83 70.8706 94.0516 70.3121 95.2513C68.9167 98.2484 66.7005 100.474 63.6827 101.8C62.5409 102.302 61.2652 102.573 60.0222 102.751C58.7606 102.932 57.4604 102.952 56.1836 102.896C53.43 102.775 50.7415 102.259 48.1774 101.217C46.7339 100.63 45.3066 100.001 43.89 99.3512C43.4917 99.1686 43.1322 98.8744 42.8043 98.5769C42.6438 98.4312 42.4572 98.0579 42.5247 97.9668C42.7046 97.7236 43.0291 97.4054 43.2721 97.4244C44.0468 97.485 44.8168 97.6589 45.5773 97.8371C47.1172 98.198 48.6346 98.6801 50.1899 98.9424C51.5027 99.1637 52.8643 99.2846 54.1896 99.205C57.4649 99.0085 60.6449 98.3533 63.3192 96.2837C65.2961 94.7538 66.9914 92.9425 68.21 90.7297C69.1575 89.0093 70.1144 87.2937 71.0332 85.5579C71.3221 85.012 71.5008 84.4078 71.7266 83.8386C71.5625 83.7634 71.5174 83.7242 71.4932 83.7344C69.9153 84.3988 69.7442 83.8115 69.0396 82.3382C68.7151 81.6595 68.5315 80.9126 68.2936 80.1935C68.1016 79.613 68.3554 79.0551 68.9454 78.866C70.7698 78.2815 72.629 77.7954 74.4248 77.1352C76.9526 76.2059 79.4314 75.1442 81.9399 74.1615C82.8365 73.8103 83.7491 73.4914 84.673 73.2213C85.2082 73.0649 85.4246 73.4593 85.4222 73.9188C85.4191 74.5209 85.343 75.1224 85.3049 75.7246C85.2759 76.1832 85.2154 76.617 85.8797 76.7398C87.3987 77.0207 88.9042 77.3736 90.4198 77.674C91.7489 77.9374 93.0311 77.8388 94.3154 77.3163C95.8202 76.7042 96.9996 75.6936 97.8846 74.4105C98.6041 73.3673 99.0574 72.1406 99.6279 70.9948C99.637 70.9766 99.6267 70.9434 99.639 70.9327C99.9269 70.683 100.217 70.4354 100.506 70.1874C100.651 70.5549 100.96 70.9461 100.91 71.2857C100.754 72.3727 100.478 73.4437 100.22 74.5144C100.093 75.0451 99.9064 75.5616 99.6922 76.2624C100.983 76.692 102.237 77.2882 103.555 77.5056C105.445 77.8175 106.28 77.1809 106.841 75.2942C107.255 73.9002 107.55 72.4709 107.912 71.0608C107.974 70.8191 108.045 70.5191 108.218 70.3814C108.444 70.2025 108.782 70.0762 109.063 70.0906C109.212 70.0983 109.418 70.4345 109.466 70.6517C109.535 70.965 109.561 71.3284 109.469 71.6288C109.227 72.4227 109.741 72.8456 110.244 73.1915C111.658 74.162 113.218 74.5483 114.947 74.2749C115.965 74.1139 117.006 74.1108 118.031 73.9874C118.609 73.9178 119.174 73.7482 119.805 73.6106C119.086 72.8899 118.425 72.2705 117.814 71.6052C116.32 69.9803 115.439 68.0634 115.688 65.8463C116.024 62.8494 116.653 59.9113 118.414 57.3511C119.307 56.0541 120.509 55.1037 121.857 54.3605C122.79 53.8454 123.795 53.3973 124.822 53.1284C126.188 52.771 127.6 52.8824 128.976 53.2325C131.144 53.7842 133.114 54.7217 134.778 56.2461C134.89 56.3484 135.046 56.4509 135.079 56.5798C135.158 56.8818 135.287 57.2493 135.179 57.4954C135.097 57.6828 134.683 57.8066 134.415 57.8098C134.093 57.8136 133.721 57.7339 133.453 57.5618C131.536 56.3302 129.528 56.4912 127.484 57.1144C126.154 57.5197 124.831 57.9451 123.462 58.3909Z" fill="white"/>
<path d="M255.914 78.7836C256.687 78.458 256.967 77.8164 256.931 77.1355C256.861 75.8333 256.698 74.5323 256.503 73.2416C256.251 71.5817 255.93 69.9325 255.639 68.2786C255.37 66.7499 255.108 65.2201 254.832 63.6927C254.538 62.0625 254.235 60.434 253.929 58.8058C253.542 56.7401 253.133 54.6782 252.761 52.6098C252.388 50.5375 252.034 48.4616 251.701 46.3826C251.496 45.0982 251.441 43.7818 251.136 42.524C250.938 41.7066 250.405 40.9723 250.035 40.1943C249.443 38.9485 249.665 37.6587 250.537 36.5543C251.202 35.7121 251.733 34.7638 252.372 33.7886C252.754 33.6927 253.089 33.7761 253.29 34.3481C253.912 36.1166 254.943 37.667 255.998 39.1999C256.708 40.2311 256.711 40.85 256.039 41.8568C255.686 42.3855 255.351 42.9267 254.993 43.4519C254.433 44.273 254.562 45.1579 254.732 46.0471C255.119 48.0689 255.511 50.0899 255.902 52.111C256.24 53.8609 256.592 55.6084 256.918 57.3606C257.249 59.1363 257.547 60.918 257.876 62.694C258.154 64.1963 258.502 65.687 258.736 67.1958C259.087 69.4564 259.82 71.6882 259.558 74.0042C259.396 75.4291 259.061 76.8442 258.687 78.2323C258.315 79.6114 257.822 80.9602 257.333 82.3044C257.076 83.0129 256.319 83.621 255.486 83.6021C252.688 83.5385 250.061 82.9202 247.685 81.3789C247.553 81.2932 247.211 81.3239 247.106 81.4336C245.195 83.4187 242.733 84.284 240.148 84.9049C238.318 85.3444 236.496 85.8264 234.651 86.1896C233.104 86.4941 231.534 86.7029 229.965 86.8654C228.163 87.0519 226.35 87.2678 224.545 87.243C221.651 87.2033 218.908 86.4451 216.533 84.7318C214.694 83.4059 212.993 81.8738 212.081 79.7434C211.582 78.5748 211.29 77.2842 211.112 76.0194C210.899 74.5039 210.919 72.9566 210.817 71.4244C210.698 69.6597 210.57 67.8954 210.422 66.133C210.263 64.2475 210.084 62.3636 209.897 60.4805C209.688 58.3658 209.475 56.2512 209.239 54.1394C208.993 51.9477 208.748 49.7551 208.445 47.5708C208.135 45.3336 207.731 43.1094 207.417 40.8726C207.268 39.8112 207.568 38.8003 208.007 37.8334C208.216 37.3732 208.395 36.8978 208.633 36.4532C208.729 36.2736 208.944 36.0452 209.106 36.0436C209.282 36.0419 209.558 36.2437 209.622 36.4181C210.089 37.7016 210.626 38.9749 210.924 40.3004C211.338 42.146 211.601 44.029 211.856 45.9058C212.051 47.3319 212.128 48.7739 212.267 50.2078C212.436 51.9393 212.621 53.6693 212.787 55.401C212.849 56.0457 212.886 56.693 212.921 57.3399C213.013 59.0266 213.096 60.7138 213.186 62.4007C213.316 64.8218 213.428 67.2441 213.588 69.6632C213.673 70.9462 213.739 72.2451 213.997 73.4989C214.499 75.9394 215.719 77.9972 217.792 79.4376C219.228 80.4357 220.875 81.0487 222.586 81.3296C224.384 81.6247 226.22 81.8795 228.032 81.8432C230.79 81.7879 233.536 81.4816 236.251 80.8816C238.795 80.3194 241.282 79.5864 243.662 78.5625C244.93 78.0171 246.095 77.1956 247.231 76.3923C247.986 75.8584 248.637 75.1637 249.279 74.4882C249.661 74.0867 250.044 73.8857 250.629 74.0418C250.736 75.2558 250.292 76.3618 249.868 77.4657C249.723 77.8424 249.677 78.0002 250.19 78.0905C251.627 78.3439 253.043 78.7177 254.481 78.9681C254.925 79.0453 255.411 78.8781 255.914 78.7836Z" fill="white"/>
<path d="M287.784 71.6236C288.958 70.1455 289.975 68.5848 291.261 67.2932C292.454 66.0957 293.847 65.031 295.314 64.1913C296.878 63.2961 298.394 63.2779 299.837 64.7706C300.383 65.3349 301.064 65.8142 301.133 66.6984C301.145 66.8476 301.164 67.0148 301.112 67.1475C300.622 68.4107 300.043 69.6328 298.984 70.5266C298.369 71.0459 298.062 70.9527 297.597 70.2858C297.257 69.7982 296.944 69.282 296.541 68.85C295.765 68.0164 294.739 67.8411 293.769 68.4183C293.128 68.7991 292.55 69.2975 291.989 69.7939C291.562 70.1715 291.726 70.6515 292.031 71.003C293.668 72.8894 295.695 73.9341 298.236 74.1646C300.378 74.3591 302.387 73.8134 304.448 73.5173C304.674 73.4849 304.955 73.564 305.144 73.6903C305.214 73.7367 305.146 74.1015 305.049 74.2672C304.493 75.2149 303.951 76.176 303.312 77.0669C303.096 77.3682 302.627 77.6168 302.251 77.6525C300.311 77.8368 298.486 78.4456 296.66 79.0542C293.768 80.0188 291.067 81.41 288.385 82.8401C288.18 82.9493 287.896 82.9092 287.648 82.9384C287.645 82.6771 287.576 82.3947 287.651 82.1588C287.844 81.5588 288.146 80.9925 288.32 80.3885C288.481 79.8304 288.813 79.4774 289.285 79.1794C290.174 78.6185 291.039 78.0207 291.929 77.4282C290.891 76.7216 289.865 76.0274 288.843 75.3271C287.615 74.4859 287.244 73.3678 287.699 71.9151C287.725 71.833 287.729 71.7442 287.784 71.6236Z" fill="white"/>
<path d="M267.339 52.0211C267.2 50.8799 267.075 49.7963 266.924 48.7163C266.817 47.9577 266.634 47.2083 266.557 46.4475C266.342 44.3222 266.369 42.209 267.077 40.1586C267.215 39.7614 267.37 39.3634 267.578 39.0006C267.672 38.8369 267.921 38.6593 268.088 38.6691C268.263 38.6793 268.522 38.8775 268.575 39.0465C268.733 39.5485 268.83 40.0732 268.909 40.5953C269.134 42.0713 269.339 43.5505 269.551 45.0285C269.733 46.2957 269.899 47.5655 270.1 48.8296C270.389 50.6361 270.711 52.4372 271.004 54.2429C271.281 55.9461 271.528 57.6541 271.808 59.3565C272.099 61.119 272.436 62.8738 272.71 64.6388C272.887 65.7807 272.98 66.9355 273.121 68.0833C273.288 69.4416 273.477 70.7975 273.637 72.1567C273.708 72.756 273.756 73.3602 273.772 73.9634C273.828 75.9887 273.96 78.0185 273.877 80.039C273.813 81.6066 273.497 83.1677 273.223 84.7194C273.176 84.9885 272.817 85.2787 272.533 85.4084C272.256 85.5346 271.949 85.4447 271.918 84.9857C271.888 84.5257 271.721 84.0756 271.68 83.6152C271.491 81.4919 271.333 79.3658 271.147 77.2422C271.031 75.9163 270.917 74.5889 270.745 73.2695C270.566 71.8971 270.312 70.5347 270.105 69.1657C269.917 67.9209 269.764 66.6707 269.567 65.4274C269.337 63.978 269.076 62.5336 268.83 61.0869C268.594 59.7031 268.355 58.3198 268.126 56.9348C267.859 55.3175 267.603 53.6986 267.339 52.0211Z" fill="white"/>
<path d="M384.444 50.2193C384.612 51.5946 384.784 52.9091 384.946 54.225C385.05 55.076 385.128 55.9303 385.235 56.7809C385.393 58.0316 385.574 59.2793 385.731 60.5301C385.84 61.4023 385.924 62.2777 386.021 63.1514C386.194 64.7065 386.384 66.2599 386.537 67.8169C386.617 68.6349 386.665 69.4588 386.672 70.2806C386.69 72.4481 386.761 74.62 386.653 76.7824C386.561 78.6434 386.459 80.5318 385.632 82.2718C385.475 82.6016 385.316 82.9618 384.899 82.7832C384.636 82.6709 384.443 82.3754 384.25 82.1368C384.18 82.0507 384.186 81.8913 384.183 81.7648C384.136 79.7391 384.146 77.7105 384.034 75.6885C383.933 73.8444 383.699 72.0077 383.528 70.1674C383.435 69.1606 383.371 68.1505 383.256 67.1463C383.108 65.8511 382.915 64.5611 382.754 63.2673C382.608 62.0984 382.485 60.9267 382.339 59.7577C382.173 58.4214 381.984 57.0879 381.823 55.7509C381.716 54.8554 381.645 53.9556 381.552 53.0583C381.38 51.3934 381.174 49.7315 381.037 48.0638C380.848 45.7713 380.886 43.4973 381.919 41.3612C382.056 41.077 382.189 40.7843 382.372 40.5299C382.626 40.1757 383.283 40.2846 383.383 40.7093C383.513 41.266 383.591 41.838 383.651 42.4077C383.837 44.1804 384.001 45.9553 384.179 47.7289C384.261 48.5396 384.355 49.349 384.444 50.2193Z" fill="white"/>
<path d="M346.429 41.5909C346.781 43.7555 346.603 45.8276 345.912 47.8622C346.462 48.2881 347.169 48.6039 347.484 49.1469C347.783 49.6645 347.753 50.4234 347.718 51.0681C347.692 51.554 347.444 52.0327 347.263 52.5026C347.197 52.6751 347.039 52.9417 346.926 52.9401C346.682 52.9366 346.394 52.8429 346.206 52.687C345.711 52.2751 345.247 51.8238 344.797 51.3624C344.447 51.0035 344.255 51.0638 344.035 51.5002C343.297 52.969 342.378 54.3301 341.087 55.3539C339.809 56.3679 338.483 57.3478 337.073 58.1632C335.415 59.1232 333.647 59.896 331.92 60.7364C331.513 60.9343 331.031 61.0195 330.763 60.5752C330.505 60.1461 330.759 59.7302 331.117 59.4468C332.305 58.5057 333.486 57.5531 334.711 56.6621C337.028 54.9771 339.457 53.4409 341.454 51.3452C342.579 50.1643 342.606 50.1098 341.384 49.1445C340.464 48.4179 339.524 47.7158 338.593 47.004C337.905 46.4786 337.68 45.733 337.805 44.9421C338.056 43.3576 338.632 41.8533 339.651 40.6234C340.511 39.5858 341.326 38.4043 342.818 38.1029C343.603 37.9443 344.868 38.2979 345.24 38.9733C345.691 39.7939 346.021 40.6816 346.429 41.5909ZM340.809 44.2293C341.912 44.978 343.015 45.7266 344.225 46.5484C344.225 45.7438 344.278 45.1277 344.214 44.5241C344.096 43.4176 343.799 42.3649 342.98 41.5379C342.634 41.1895 342.224 41.0058 341.832 41.3799C341.364 41.8256 340.952 42.3345 340.551 42.8444C340.174 43.3248 340.257 43.7814 340.809 44.2293Z" fill="white"/>
<path d="M297.674 52.5028C297.219 52.0698 296.79 51.6753 296.351 51.2941C296.011 51.0003 295.762 51.0421 295.554 51.4785C294.17 54.3785 291.783 56.2773 289.086 57.8333C287.514 58.7404 285.895 59.5692 284.276 60.3922C283.892 60.5871 283.429 60.6757 282.995 60.7081C282.402 60.7525 282.082 60.2262 282.472 59.7927C283.076 59.1223 283.767 58.5169 284.483 57.9647C286.826 56.1571 289.194 54.3799 291.561 52.6036C292.588 51.8332 293.418 50.9031 293.999 49.8635C292.673 48.8042 291.371 47.7972 290.109 46.7438C289.411 46.161 289.401 45.2816 289.575 44.5251C290.031 42.5533 290.704 40.6443 292.299 39.2624C293.008 38.6486 293.707 37.9509 294.778 37.9794C295.828 38.0072 296.853 38.7825 297.337 39.7517C298.005 41.0904 298.315 42.4971 298.201 43.9572C298.1 45.2363 297.805 46.5001 297.58 47.8619C297.96 48.1504 298.552 48.4641 298.943 48.9421C299.233 49.2958 299.423 49.8822 299.371 50.3314C299.276 51.1372 299.062 51.963 298.718 52.6959C298.39 53.3936 298.019 52.7745 297.674 52.5028ZM294.728 45.7439C295.025 45.9401 295.323 46.1363 295.726 46.4023C295.726 45.4715 295.777 44.7285 295.713 43.9956C295.634 43.0966 295.308 42.2693 294.673 41.599C294.075 40.9681 293.588 40.9601 292.98 41.5921C292.684 41.8985 292.404 42.2326 292.184 42.5951C291.711 43.3754 291.835 43.7761 292.6 44.2986C293.285 44.7658 293.954 45.2554 294.728 45.7439Z" fill="white"/>
<path d="M81.8337 47.416C81.378 47.6021 80.9731 47.7807 80.5537 47.9139C80.1984 48.0268 79.8265 48.0873 79.4456 48.1746C79.3319 46.3022 80.304 45.0092 82.1339 44.2859C84.4631 43.3651 86.7616 42.3668 89.075 41.4059C91.4074 40.4372 93.7458 39.4828 96.0742 38.5046C98.1906 37.6155 100.294 36.6955 102.409 35.8028C103.96 35.1481 105.517 34.5059 107.08 33.879C107.548 33.6912 107.789 33.8837 107.633 34.3479C107.181 35.6937 106.595 36.9275 105.143 37.538C101.378 39.1213 97.6387 40.7684 93.8748 42.3562C90.617 43.7305 87.338 45.0542 84.0721 46.4095C83.3327 46.7164 82.6091 47.0614 81.8337 47.416Z" fill="white"/>
<path d="M229.966 66.8768C230.838 65.8119 231.677 64.783 232.505 63.7461C232.766 63.4195 233.376 63.3731 233.682 63.6641C234.621 64.5574 235.567 65.4442 236.542 66.3629C237.633 64.9901 238.618 63.7042 239.674 62.4787C239.811 62.3189 240.446 62.3297 240.619 62.4985C241.837 63.6876 243.125 64.7772 244.594 65.6411C245.017 65.89 244.94 66.1679 244.698 66.4718C243.835 67.5597 242.972 68.6487 242.096 69.7263C241.616 70.3166 240.989 70.3979 240.339 69.9395C239.506 69.3514 238.706 68.7158 237.865 68.1404C237.723 68.0433 237.341 68.0589 237.244 68.1717C236.549 68.9818 235.884 69.8189 235.24 70.6701C234.641 71.4616 233.998 71.6162 233.142 71.0103C232.048 70.2363 230.987 69.4143 229.939 68.5783C229.444 68.1828 229.471 67.5802 229.966 66.8768Z" fill="white"/>
<path d="M220.635 42.1554C220.01 42.4272 219.433 42.6846 218.841 42.9008C218.652 42.9697 218.424 42.929 218.213 42.9385C218.204 42.7252 218.136 42.4937 218.195 42.3018C218.382 41.7008 218.653 41.125 218.821 40.5198C218.958 40.0208 219.273 39.7292 219.708 39.5444C222.188 38.4913 224.676 37.4585 227.154 36.3993C229.13 35.5543 231.091 34.6739 233.065 33.8231C235.559 32.748 238.061 31.6899 240.556 30.6183C241.369 30.2693 242.164 29.8763 242.988 29.556C243.236 29.4592 243.554 29.5394 243.84 29.5385C243.808 29.8138 243.809 30.0984 243.737 30.3631C243.229 32.23 241.841 33.1407 240.137 33.7988C238.35 34.4888 236.622 35.3302 234.859 36.0842C232.633 37.0364 230.395 37.9613 228.167 38.9089C225.977 39.8405 223.793 40.7858 221.606 41.7252C221.296 41.8582 220.987 41.9918 220.635 42.1554Z" fill="white"/>
<path d="M91.8413 60.6873C92.4257 59.9715 92.9803 59.2925 93.5272 58.6074C93.9208 58.1142 94.3911 58.0756 94.8425 58.5011C95.7421 59.3494 96.646 60.1932 97.6307 61.1161C98.1571 60.5066 98.6331 59.964 99.0994 59.4132C99.6674 58.7425 100.213 58.0519 100.796 57.3952C101.124 57.0268 101.539 57.0214 101.869 57.3882C102.974 58.6181 104.217 59.6718 105.644 60.5148C105.991 60.7202 106.059 61.0145 105.753 61.3809C104.822 62.4965 103.951 63.6645 102.982 64.745C102.763 64.9886 102.208 65.1017 101.867 65.0222C101.4 64.9133 100.948 64.6134 100.563 64.3046C99.8834 63.7596 99.2586 63.146 98.5452 62.5019C97.8937 63.2741 97.2798 64.0687 96.5916 64.7925C96.173 65.2327 95.9641 65.9683 95.2127 65.9933C94.889 66.0041 94.4846 65.9512 94.2463 65.7632C93.1185 64.8732 92.0235 63.9403 90.9426 62.9933C90.5192 62.6224 90.5514 62.1687 90.9187 61.7453C91.2149 61.4038 91.5117 61.0628 91.8413 60.6873Z" fill="white"/>
<path d="M321.193 42.8001C320.806 43.1508 320.454 43.4701 320.083 43.766C319.552 44.1905 318.979 44.5674 318.472 45.019C317.266 46.0945 315.778 46.5733 314.287 47.0438C313.223 47.3797 312.144 47.6681 311.072 47.9798C311.033 47.991 311.004 48.0384 310.966 48.0469C310.49 48.153 309.931 48.2415 309.698 47.7423C309.471 47.2543 309.836 46.8021 310.257 46.5556C311.295 45.9485 312.363 45.3916 313.424 44.8247C314.596 44.1986 315.774 43.5837 316.95 42.9646C317.047 42.9134 317.147 42.8675 317.334 42.7755C316.47 42.1418 315.631 41.9722 314.81 41.7374C312.835 41.1729 310.991 41.4203 309.304 42.5926C308.89 42.8802 308.57 43.3037 308.21 43.6681C308.073 43.8062 307.971 44.0128 307.809 44.0812C307.63 44.1562 307.364 44.175 307.204 44.0899C307.092 44.0302 307.012 43.729 307.059 43.5804C308.01 40.5743 310.062 38.1627 313.7 38.0935C315.372 38.0618 316.892 38.5042 318.421 39.0564C319.131 39.3129 319.872 39.4858 320.601 39.6896C321.064 39.8191 321.53 39.9356 321.994 40.0576C322.095 41.1128 321.627 41.9265 321.193 42.8001Z" fill="white"/>
<path d="M69.4106 61.7761C71.8165 60.7352 74.1704 59.6966 76.5689 58.6382C76.7248 60.3873 75.4165 62.4399 73.9196 63.0805C71.7153 64.024 69.5344 65.0223 67.3325 65.9717C65.4577 66.7801 63.5604 67.5364 61.6856 68.3449C59.4237 69.3204 57.1759 70.3284 54.9195 71.3166C54.7286 71.4001 54.5212 71.4764 54.3167 71.4913C54.0112 71.5135 53.8546 71.4378 53.9752 71.0369C54.1151 70.5721 54.1263 70.0675 54.1834 69.579C54.3534 68.1229 55.5204 67.6604 56.6254 67.1741C58.3199 66.4283 60.0359 65.7312 61.7439 65.0161C64.0153 64.0652 66.2885 63.1184 68.5589 62.1653C68.8316 62.0509 69.0924 61.908 69.4106 61.7761Z" fill="white"/>
<path d="M229.023 53.7314C230.546 53.224 231.211 52.0659 231.58 50.6749C231.699 50.2264 231.772 49.7644 231.847 49.3054C231.984 48.4566 232.688 47.9975 233.524 48.1803C233.58 48.8631 233.579 49.5402 233.7 50.1946C234.006 51.8505 235.273 52.3486 236.654 51.6157C237.554 51.1382 237.745 50.8122 237.299 49.8677C236.729 48.6594 237.178 47.7551 237.804 46.8124C237.931 46.6199 238.001 46.3857 238.144 46.2073C238.228 46.1018 238.407 46.0072 238.534 46.0182C238.676 46.0305 238.895 46.1415 238.93 46.2552C239.731 48.9018 239.771 51.5033 238.261 53.9352C237.762 54.7388 236.84 54.9616 235.974 55.2031C234.47 55.6228 233.216 55.1256 232.237 54.2343C231.497 55.0151 230.884 55.8916 230.063 56.4761C228.722 57.4301 227.179 57.5219 225.717 56.7192C224.812 56.2227 224.542 55.2262 224.512 54.2783C224.461 52.6726 224.988 51.1882 225.863 49.8503C226.005 49.6335 226.396 49.5796 226.672 49.4505C226.721 49.7306 226.839 50.0188 226.807 50.2893C226.728 50.959 226.584 51.6214 226.46 52.2853C226.264 53.3235 227.349 54.1412 228.542 53.8428C228.684 53.8072 228.829 53.7829 229.023 53.7314Z" fill="white"/>
<path d="M136.608 35.1244C136.849 35.0238 137.042 34.9378 137.243 34.8805C137.64 34.7676 137.881 35.0018 137.768 35.409C137.468 36.4955 137.175 37.6306 136.235 38.3364C135.503 38.8865 134.653 39.3059 133.809 39.6775C131.922 40.5079 130.008 41.2765 128.102 42.062C126.39 42.7676 124.667 43.4478 122.96 44.1658C121.177 44.9154 119.409 45.6967 117.634 46.4645C117.614 46.4731 117.599 46.4942 117.579 46.4986C117.244 46.5714 116.909 46.6425 116.573 46.714C116.577 46.39 116.567 46.065 116.59 45.7425C116.606 45.5335 116.677 45.3292 116.714 45.1212C116.895 44.1016 117.386 43.3821 118.404 42.9651C121.209 41.8161 123.985 40.5951 126.774 39.406C129.446 38.2664 132.122 37.1356 134.792 35.9905C135.393 35.7332 135.974 35.4327 136.608 35.1244Z" fill="white"/>
<path d="M182.217 86.6463C181.243 87.0353 180.428 87.7348 179.346 87.6692C179.144 86.2261 180.115 84.6438 181.403 84.1027C182.899 83.475 184.355 82.7547 185.835 82.0919C189.064 80.647 192.302 79.2247 195.526 77.77C197.196 77.0167 198.838 76.2018 200.505 75.4427C200.897 75.2639 201.341 75.1979 201.908 75.0389C201.859 75.4201 201.854 75.6434 201.799 75.8538C201.282 77.8526 199.856 78.9236 198.022 79.6321C196.747 80.1246 195.517 80.7327 194.265 81.2858C191.608 82.4601 188.948 83.626 186.294 84.8082C185.062 85.3571 183.844 85.9372 182.618 86.4999C182.504 86.5519 182.38 86.5801 182.217 86.6463Z" fill="white"/>
<path d="M162.063 40.4814C160.122 41.3171 158.236 42.1558 156.342 42.9761C154.991 43.5615 153.634 44.1352 152.266 44.682C152.019 44.7811 151.709 44.7251 151.428 44.7407C151.441 44.4648 151.436 44.1867 151.471 43.9134C151.7 42.0852 152.936 41.2944 154.541 40.7157C156.34 40.0668 158.062 39.2061 159.822 38.4475C162.334 37.3644 164.852 36.2928 167.365 35.2112C168.699 34.6372 170.024 34.0406 171.365 33.4855C171.57 33.4007 171.845 33.4854 172.088 33.4917C172.076 33.7102 172.105 33.9409 172.045 34.1453C171.558 35.7951 170.57 36.9016 168.877 37.4934C167.212 38.0755 165.636 38.9103 164.02 39.6327C163.386 39.9162 162.75 40.1954 162.063 40.4814Z" fill="white"/>
<path d="M320.153 58.9675C319.262 59.8813 318.402 60.7569 317.545 61.6362C317.109 62.0835 316.207 62.248 315.736 61.8532C314.969 61.211 314.258 60.5011 313.542 59.8006C313.234 59.4996 312.877 59.1904 312.721 58.8114C312.591 58.4977 312.575 57.9483 312.767 57.7238C313.654 56.6847 314.627 55.7176 315.58 54.7347C316.06 54.2395 316.47 54.3003 316.948 54.7958C317.987 55.8722 319.054 56.9218 320.122 57.9689C320.449 58.2895 320.624 58.5798 320.153 58.9675Z" fill="white"/>
<path d="M98.9296 55.4398C98.3383 56.4394 97.7777 56.6818 96.9416 56.0776C95.7803 55.2385 94.698 54.2836 93.6398 53.3149C93.4732 53.1624 93.4755 52.5766 93.6326 52.3605C94.4975 51.1709 95.4097 50.012 96.3761 48.904C96.5109 48.7494 97.1956 48.7981 97.3515 48.9833C98.3445 50.1643 99.5557 51.0625 100.845 51.8694C101.452 52.2497 101.492 52.4136 101.035 52.9451C100.336 53.758 99.654 54.5859 98.9296 55.4398Z" fill="white"/>
<path d="M361.833 93.7123C361.35 93.5048 360.838 93.385 360.509 93.073C359.591 92.2033 358.714 91.283 357.908 90.3097C357.758 90.128 357.896 89.4966 358.109 89.2622C359.051 88.2274 360.063 87.2569 361.061 86.274C361.418 85.9216 361.761 86.0238 362.058 86.3806C362.468 86.8742 362.836 87.4115 363.295 87.855C363.943 88.4819 364.629 89.0793 365.356 89.6126C365.775 89.9207 365.772 90.2145 365.486 90.512C364.501 91.5369 363.491 92.5386 362.469 93.5276C362.338 93.6543 362.084 93.6538 361.833 93.7123Z" fill="white"/>
</svg>
