<svg width="430" height="143" viewBox="0 0 430 143" fill="none" xmlns="http://www.w3.org/2000/svg">
<path d="M311.085 84.0834C313.101 84.6066 315.061 85.147 317.046 85.5775C318.4 85.8713 319.785 86.0356 321.162 86.2143C322.717 86.4162 324.276 86.6061 325.839 86.7324C327.097 86.8341 328.365 86.8137 329.626 86.8871C330.152 86.9177 330.674 87.0462 331.197 87.1385C331.759 87.2379 331.847 87.6203 331.652 88.0576C330.967 89.5985 330.24 91.1212 329.556 92.6624C329.402 93.01 329.18 93.1198 328.848 93.0498C327.666 92.8004 326.496 92.3994 325.303 92.3139C323.49 92.1839 321.649 92.1311 319.844 92.2993C317.706 92.4986 315.575 92.8877 313.474 93.3448C311.827 93.7031 310.206 94.2224 308.617 94.7908C306.017 95.7211 303.47 96.7982 300.867 97.7215C298.641 98.5111 296.385 99.2255 294.114 99.8734C292.068 100.457 289.992 100.887 287.855 101.104C284.674 101.427 281.494 101.699 278.301 101.579C276.452 101.51 274.598 101.335 272.771 101.049C270.974 100.768 269.193 100.346 267.436 99.8707C266.343 99.5749 265.309 99.0646 264.191 98.6279C263.864 99.3531 263.496 100.145 263.146 100.946C261.829 103.962 260.305 106.877 258.263 109.461C256.345 111.887 253.879 113.587 250.812 114.368C249.137 114.795 247.446 114.966 245.747 114.853C243.001 114.67 240.271 114.291 237.727 113.155C235.429 112.128 233.086 111.171 231.054 109.643C230.81 109.46 230.511 108.955 230.596 108.815C230.773 108.523 231.165 108.27 231.512 108.191C232.425 107.982 233.206 108.488 234.019 108.796C235.812 109.475 237.646 110.005 239.569 110.135C240.741 110.214 241.925 110.331 243.091 110.253C246.028 110.056 248.966 109.824 251.617 108.31C253.301 107.349 254.799 106.16 256.056 104.706C257.058 103.548 257.984 102.308 258.819 101.024C259.589 99.8411 260.19 98.5492 260.872 97.3089C261.046 96.992 261.006 96.8225 260.68 96.5774C259.387 95.6029 258.277 94.4923 257.78 92.8574C257.397 91.595 257.689 90.4224 257.941 89.2154C258.229 87.8347 258.719 86.5389 259.518 85.3744C259.633 85.2059 259.905 85.0835 260.115 85.0658C260.217 85.0572 260.392 85.3239 260.449 85.4943C260.636 86.0515 260.764 86.6283 260.949 87.1859C261.587 89.1061 263.024 90.3154 264.695 91.2999C267.417 92.9042 270.384 93.8948 273.442 94.5885C275.021 94.9468 276.649 95.1445 278.267 95.2697C280.434 95.4375 282.616 95.5799 284.786 95.5182C286.733 95.4629 288.68 95.1709 290.612 94.8877C294.376 94.3362 298.027 93.3071 301.639 92.1417C304.069 91.3577 306.487 90.5334 308.907 89.7206C309.085 89.661 309.245 89.5477 309.517 89.4042C308.923 89.158 308.404 88.9146 307.865 88.7244C305.405 87.8555 302.897 87.1364 300.313 86.7644C297.971 86.4272 295.596 86.5373 293.245 86.6504C291.614 86.7289 290 87.1544 288.373 87.3862C288.055 87.4316 287.711 87.2997 287.378 87.2496C287.446 86.8887 287.422 86.4741 287.597 86.176C288.358 84.8819 289.179 83.6232 289.973 82.3489C290.417 81.6368 291.129 81.2659 291.885 81.1164C293.558 80.7853 295.247 80.5066 296.943 80.3214C299.132 80.0823 301.333 79.9575 303.529 79.7794C304.53 79.6982 305.531 79.6072 306.658 79.5097C306.491 78.2051 306.338 76.9741 306.172 75.7449C306.001 74.4753 305.833 73.2048 305.633 71.9394C305.378 70.3212 305.1 68.7063 304.817 67.0925C304.574 65.7114 304.307 64.3347 304.058 62.9548C303.747 61.2396 303.41 59.5282 303.148 57.8056C302.958 56.5551 302.963 55.2709 302.716 54.0343C302.399 52.4446 301.942 50.8808 301.495 49.32C301.346 48.8 301.027 48.3309 300.815 47.8259C300.561 47.218 300.641 46.7262 301.051 46.1171C301.849 44.9328 302.453 43.6185 303.129 42.3536C303.366 41.9091 303.541 41.2723 304.103 41.3088C304.697 41.3472 304.817 41.9945 304.991 42.5034C305.713 44.6098 306.914 46.4697 308.237 48.2204C309.421 49.7876 308.902 50.486 307.639 51.6117C306.562 52.573 306.451 53.1489 306.633 54.4298C306.782 55.4856 306.936 56.5409 307.086 57.5967C307.248 58.7384 307.41 59.8801 307.568 61.0224C307.718 62.1018 307.86 63.1822 308.009 64.2617C308.211 65.7213 308.42 67.1799 308.619 68.6398C308.772 69.7628 308.926 70.886 309.06 72.0114C309.245 73.5653 309.476 75.1176 309.568 76.6777C309.648 78.0232 309.529 79.3774 308.939 80.6294C308.617 81.313 308.241 81.9711 307.849 82.7164C308.849 83.1354 309.944 83.5946 311.085 84.0834Z" fill="white"/>
<path d="M187.452 90.4265C188.405 90.4703 189.294 90.5315 190.184 90.553C191.087 90.5748 191.498 90.1027 191.558 89.1716C191.666 87.4738 191.247 85.8408 190.994 84.1887C190.775 82.7604 190.489 81.3423 190.233 79.9196C189.839 77.7228 189.434 75.5278 189.053 73.3286C188.644 70.959 188.273 68.5826 187.856 66.2143C187.536 64.3951 187.154 62.5867 186.827 60.7685C186.496 58.9258 186.196 57.0774 185.886 55.2309C185.664 53.9079 185.443 52.5846 185.233 51.2598C185.089 50.3577 185.06 49.4242 184.802 48.5574C184.566 47.7613 184.077 47.0422 183.724 46.2777C183.046 44.8085 183.306 43.4916 184.306 42.2301C184.907 41.4715 185.346 40.587 185.9 39.7882C186.104 39.4943 186.429 39.2844 186.699 39.0361C186.955 39.3226 187.28 39.5726 187.454 39.9019C188.232 41.371 188.952 42.87 189.726 44.3412C189.922 44.7141 190.25 45.0157 190.496 45.3652C191.348 46.5783 191.092 47.7132 190.251 48.8161C189.917 49.2546 189.612 49.7173 189.316 50.183C188.616 51.2831 188.884 52.4482 189.102 53.6103C189.44 55.4055 189.765 57.2029 190.102 58.9982C190.463 60.9181 190.834 62.8361 191.195 64.7559C191.493 66.3425 191.782 67.9308 192.078 69.5178C192.354 71.0001 192.642 72.4804 192.911 73.9639C193.212 75.6165 193.496 77.2721 193.79 78.9258C194.003 80.1187 194.312 81.3032 194.411 82.5051C194.521 83.8316 194.657 85.2181 194.394 86.4995C193.9 88.9118 193.171 91.2803 192.448 93.6392C192.207 94.4283 191.744 95.1718 191.267 95.8563C191.077 96.1291 190.574 96.3231 190.216 96.3194C187.161 96.288 184.264 95.6214 181.631 94.0101C181.098 93.684 180.708 93.6618 180.184 94.1702C178.443 95.8617 176.303 96.8863 173.975 97.5167C172.239 97.9868 170.497 98.4416 168.742 98.831C167.123 99.1902 165.485 99.4673 163.851 99.7542C162.484 99.9943 161.117 100.281 159.737 100.394C158.065 100.529 156.379 100.568 154.701 100.533C151.2 100.462 148.008 99.4542 145.229 97.2549C142.77 95.3087 141.313 92.7838 140.844 89.7125C140.589 88.0393 140.444 86.3465 140.313 84.6577C140.181 82.952 140.143 81.2392 140.036 79.5313C139.922 77.7223 139.789 75.9143 139.641 74.1078C139.481 72.1563 139.3 70.2063 139.116 68.257C138.903 66.0107 138.75 63.7553 138.436 61.5229C138.083 59.0183 137.504 56.5452 137.161 54.0395C136.744 50.9821 136.962 47.9557 138.069 45.0345C138.634 43.543 139.193 42.0495 139.755 40.5568C140.075 39.7084 140.67 39.0846 141.437 38.6444C142.093 38.2677 142.777 37.922 143.483 37.6527C144.261 37.3559 144.584 37.5794 144.504 38.3852C144.366 39.7903 144.376 41.2732 143.446 42.4477C142.932 43.0969 142.229 43.5984 141.608 44.1622C140.999 44.7149 140.374 45.2503 139.776 45.8147C138.969 46.5761 139.249 47.5123 139.397 48.4199C139.653 49.9959 139.92 51.5702 140.17 53.1473C140.393 54.5587 140.614 55.9707 140.807 57.3865C140.969 58.5755 141.083 59.7709 141.227 60.9624C141.396 62.3648 141.586 63.7648 141.744 65.1684C141.854 66.1518 141.912 67.141 142.019 68.1248C142.18 69.5939 142.374 71.0595 142.535 72.5286C142.642 73.5124 142.705 74.501 142.809 75.4852C142.973 77.0418 143.159 78.5961 143.326 80.1524C143.386 80.7095 143.472 81.2711 143.456 81.828C143.384 84.2785 144.087 86.5122 145.156 88.6933C146.133 90.6864 147.76 91.8524 149.719 92.6522C151.559 93.4032 153.473 93.9021 155.471 93.9692C157.608 94.0409 159.757 94.2161 161.883 94.0744C166.253 93.7831 170.511 92.8517 174.63 91.3429C177.118 90.4316 179.512 89.343 181.428 87.4399C181.97 86.9016 182.483 86.3322 182.983 85.7546C183.294 85.3956 183.673 85.1122 184.103 85.3521C184.48 85.5626 184.482 85.9766 184.341 86.4318C183.959 87.6548 183.656 88.9017 183.293 90.2417C184.568 90.2992 185.978 90.3628 187.452 90.4265Z" fill="white"/>
<path d="M120.509 62.7715C120.615 61.8347 120.732 60.9604 121.306 59.9872C124.317 63.023 126.946 66.1845 128.139 70.2026C129.336 74.2361 128.908 78.3 127.519 82.3924C128 82.4844 128.499 82.5928 129.003 82.674C131.099 83.012 132.167 84.4469 132.784 86.2892C133.71 89.0559 133.058 91.5844 131.376 93.865C129.158 96.8707 126.166 98.9872 123.041 100.95C121.1 102.17 119.089 103.224 116.883 103.876C114.785 104.496 112.69 105.134 110.486 105.282C109.474 105.35 108.457 105.582 107.457 105.518C104.325 105.316 101.179 104.997 98.3895 103.412C96.3168 102.235 94.3738 100.808 93.2912 98.5839C92.514 96.9874 91.971 95.3124 91.7984 93.5016C91.5166 90.5429 92.0728 87.7185 92.8762 84.9134C93.6028 82.3765 94.8208 80.0618 96.1746 77.8136C96.4107 77.4216 96.6938 77.0771 97.2526 77.1441C97.6717 77.1943 97.8109 77.3287 97.6397 77.7533C97.1358 79.0025 96.6296 80.252 96.1735 81.5189C95.3949 83.682 94.6024 85.8565 94.7306 88.2062C94.8629 90.6316 95.3808 92.9726 96.8681 94.9607C97.8787 96.3116 99.2665 97.2497 100.871 97.7595C102.762 98.3604 104.67 98.9664 106.617 99.3156C107.957 99.5559 109.375 99.3645 110.759 99.3642C112.658 99.3638 114.514 99.0094 116.295 98.4171C117.851 97.8999 119.367 97.2259 120.829 96.482C122.202 95.7836 123.52 94.9578 124.793 94.0879C126.149 93.1617 127.431 92.1269 128.731 91.1208C129.174 90.7774 129.581 90.385 129.991 90.0001C130.267 89.7406 130.241 89.5006 129.861 89.3741C128.142 88.8005 126.442 88.1561 124.693 87.691C123.258 87.3091 121.768 87.122 120.295 86.8919C119.635 86.7887 118.958 86.783 118.287 86.7484C117.289 86.6967 116.289 86.6695 115.291 86.6108C114.687 86.5752 114.487 86.2721 114.675 85.6998C114.998 84.7212 115.319 83.7414 115.68 82.7771C115.756 82.5767 115.976 82.3621 116.178 82.2883C118.277 81.5236 120.404 80.8344 122.483 80.0221C123.578 79.5943 124.62 79.0085 125.639 78.4135C126.537 77.8887 126.633 76.7427 126.05 75.7038C125.223 74.2294 124.29 72.8032 123.285 71.4424C122.279 70.0806 121.146 68.8102 120.036 67.5286C119.53 66.9447 119.809 66.3393 119.899 65.7537C120.05 64.77 120.283 63.7988 120.509 62.7715Z" fill="white"/>
<path d="M239.795 89.6409C241.188 89.4416 242.518 89.2343 243.852 89.0568C244.129 89.0199 244.421 89.0936 244.706 89.1163C244.665 89.3754 244.697 89.6764 244.573 89.8867C243.899 91.0339 243.203 92.169 242.474 93.2822C242.339 93.4869 242.03 93.6747 241.787 93.6958C239.396 93.903 237.129 94.6085 234.877 95.3703C231.581 96.4854 228.453 97.9648 225.453 99.7244C225.227 99.8572 224.818 99.8482 224.582 99.7303C224.455 99.6665 224.43 99.2062 224.504 98.9701C224.736 98.2279 225.048 97.5112 225.308 96.7771C225.59 95.9816 226.232 95.5521 226.909 95.1549C227.802 94.6315 228.7 94.1173 229.732 93.5202C229.079 93.1266 228.451 92.7634 227.84 92.375C227.052 91.8749 226.268 91.3683 225.499 90.8401C224.231 89.969 224.143 87.5776 224.992 86.4551C225.897 85.2605 226.852 84.102 227.827 82.9631C229.3 81.2417 230.999 79.7794 232.957 78.6177C235.773 76.9475 238.697 77.753 240.047 80.8219C240.219 81.2129 240.171 81.8482 239.964 82.2289C239.35 83.3583 238.712 84.5097 237.875 85.4726C237.271 86.1689 236.593 86.2007 236.074 85.1908C235.468 84.009 234.735 82.9781 233.249 82.7649C232.456 82.651 231.872 83.0693 231.263 83.3824C230.74 83.6512 230.292 84.0848 229.853 84.4911C229.254 85.0459 229.187 85.4378 229.667 86.0459C231.085 87.8405 232.891 89.0958 235.167 89.4821C236.481 89.7052 237.837 89.688 239.175 89.7621C239.359 89.7723 239.548 89.6854 239.795 89.6409Z" fill="white"/>
<path d="M336.067 65.0935C336.241 66.512 336.417 67.8697 336.584 69.2286C336.726 70.3771 336.849 71.5278 336.993 72.6758C337.159 73.9909 337.353 75.3025 337.51 76.6186C337.622 77.5578 337.698 78.5014 337.781 79.4438C337.959 81.4597 338.181 83.4734 338.291 85.493C338.373 87 338.308 88.515 338.309 90.0264C338.311 92.6358 338.137 95.2292 337.507 97.7706C337.378 98.292 337.074 98.7679 336.902 99.282C336.765 99.6933 336.442 99.6865 336.173 99.605C335.975 99.5451 335.748 99.3134 335.689 99.1131C335.548 98.6283 335.441 98.1191 335.422 97.6161C335.383 96.5661 335.44 95.5126 335.404 94.4624C335.338 92.5115 335.272 90.5594 335.136 88.6125C335.011 86.8123 334.822 85.0153 334.613 83.2224C334.381 81.2259 334.086 79.2366 333.835 77.2422C333.644 75.7331 333.488 74.2197 333.3 72.7103C333.047 70.6723 332.761 68.6382 332.521 66.5986C332.396 65.5295 332.342 64.4521 332.248 63.3792C332.076 61.4288 331.811 59.4814 331.757 57.528C331.725 56.3671 331.944 55.18 332.197 54.0372C332.381 53.2069 332.801 52.4277 333.126 51.6299C333.305 51.1905 333.637 50.8366 334.109 51.0297C334.352 51.1294 334.547 51.5562 334.601 51.8638C334.743 52.6639 334.801 53.4792 334.882 54.2894C335.061 56.0636 335.23 57.8388 335.41 59.6128C335.582 61.2997 335.76 62.986 335.941 64.6718C335.955 64.7953 336.022 64.913 336.067 65.0935Z" fill="white"/>
<path d="M208.677 86.1073C208.589 88.0545 208.577 89.946 208.389 91.82C208.238 93.3289 208.039 94.8552 207.356 96.2547C207.165 96.6467 206.909 97.0326 206.435 96.8389C206.198 96.7418 205.962 96.3695 205.929 96.0973C205.827 95.2417 205.808 94.375 205.781 93.5119C205.728 91.8147 205.737 90.1142 205.635 88.4201C205.508 86.314 205.318 84.2108 205.112 82.1105C204.925 80.1912 204.697 78.2753 204.456 76.3619C204.215 74.4545 203.918 72.554 203.678 70.6464C203.515 69.3475 203.423 68.0397 203.271 66.7393C203.116 65.423 202.9 64.1137 202.759 62.7961C202.633 61.6174 202.572 60.4317 202.485 59.2489C202.352 57.4418 202.124 55.6349 202.116 53.8271C202.108 51.9833 202.646 50.2253 203.561 48.6123C203.675 48.4119 204.044 48.2793 204.302 48.267C204.449 48.26 204.709 48.5419 204.747 48.7281C204.906 49.5202 205.025 50.3224 205.115 51.1258C205.305 52.8324 205.467 54.5422 205.643 56.2503C205.773 57.5096 205.894 58.77 206.046 60.0267C206.199 61.2994 206.394 62.567 206.555 63.8389C206.703 65.008 206.819 66.1809 206.966 67.35C207.13 68.6432 207.325 69.9325 207.482 71.2264C207.594 72.1433 207.656 73.0661 207.756 73.9846C207.923 75.5187 208.107 77.0509 208.274 78.585C208.335 79.142 208.388 79.7012 208.409 80.2608C208.465 81.7608 208.494 83.2617 208.549 84.7617C208.565 85.1901 208.633 85.6166 208.677 86.1073Z" fill="white"/>
<path d="M231.305 67.2593C229.432 68.9959 227.434 70.4807 225.208 71.6471C223.838 72.3648 222.469 73.0833 221.084 73.7711C220.635 73.9939 220.149 74.1759 219.66 74.2697C219.374 74.3244 218.89 74.2633 218.779 74.0817C218.643 73.8587 218.686 73.3615 218.857 73.1485C219.328 72.5638 219.851 71.9888 220.454 71.5468C223.044 69.6487 225.703 67.8428 228.271 65.9164C229.764 64.7965 231.182 63.5584 232.081 61.9525C230.561 60.778 229.051 59.6045 227.532 58.4416C226.646 57.7626 226.551 56.7767 226.757 55.8565C227.292 53.4684 228.355 51.3239 230.236 49.6785C230.964 49.042 231.682 48.3908 232.776 48.3496C234.099 48.2997 235.489 49.3554 236.092 50.901C236.695 52.4441 236.858 54.0332 236.714 55.6423C236.615 56.7541 236.351 57.8612 236.053 58.9409C235.928 59.3934 236.042 59.6332 236.345 59.8643C236.8 60.2125 237.36 60.467 237.712 60.8947C237.995 61.2379 238.202 61.7988 238.151 62.2287C238.043 63.1445 237.769 64.0447 237.516 64.938C237.34 65.5586 236.885 65.642 236.409 65.1892C235.809 64.619 235.2 64.0587 234.611 63.4776C234.174 63.0467 233.912 63.1989 233.712 63.6935C233.169 65.037 232.274 66.1452 231.305 67.2593ZM232.912 52.5244C232.118 51.7283 231.478 51.7012 230.715 52.4831C230.39 52.8156 230.151 53.23 229.848 53.586C229.309 54.219 229.42 54.9718 230.228 55.4992C230.887 55.9289 231.507 56.4163 232.154 56.8637C232.696 57.2386 233.253 57.5927 233.971 58.0665C233.971 57.1077 233.967 56.3362 233.971 55.5647C233.977 54.4569 233.547 53.506 232.912 52.5244Z" fill="white"/>
<path d="M283.466 52.6718C284.352 51.0017 285.57 49.715 287.152 48.7675C288.757 47.8064 290.407 48.9273 290.995 49.9594C292.059 51.8268 292.467 53.8563 292.07 56.0021C291.862 57.1254 291.622 58.243 291.43 59.3688C291.408 59.4953 291.575 59.6863 291.698 59.7988C292.048 60.1173 292.409 60.4264 292.787 60.7105C293.658 61.3652 293.654 62.2265 293.398 63.154C293.231 63.7634 293.076 64.3776 292.875 64.9761C292.8 65.1978 292.617 65.5396 292.471 65.5454C292.237 65.5549 291.95 65.3767 291.763 65.1969C291.34 64.7885 290.984 64.3112 290.563 63.9002C290.278 63.6224 289.93 63.4097 289.547 63.1201C289.132 63.8426 288.744 64.4881 288.386 65.1496C287.369 67.0267 285.839 68.4125 284.123 69.6265C281.622 71.3963 278.9 72.7762 276.158 74.1182C275.783 74.3013 275.368 74.456 274.96 74.4954C274.673 74.5231 274.148 74.3835 274.111 74.2288C274.034 73.9016 274.091 73.4155 274.3 73.1735C274.822 72.5707 275.414 72.0046 276.06 71.537C278.074 70.0795 280.146 68.7024 282.155 67.2384C283.349 66.3682 284.513 65.4445 285.602 64.4476C286.369 63.745 286.985 62.8789 287.709 62.0384C287.07 61.568 286.521 61.1687 285.977 60.763C284.934 59.986 283.83 59.2752 282.879 58.3997C282.316 57.8822 282.035 57.1005 282.312 56.2538C282.698 55.0765 283.06 53.8915 283.466 52.6718ZM289.43 54.6597C289.185 53.8134 288.829 53.0326 288.162 52.4223C287.65 51.954 287.149 51.8483 286.633 52.3098C286.108 52.7789 285.655 53.3521 285.265 53.9419C284.885 54.5174 285.052 55.1201 285.609 55.5222C286.677 56.2919 287.754 57.0488 288.835 57.8007C289.031 57.9373 289.262 58.0248 289.628 58.2126C289.558 56.9656 289.495 55.87 289.43 54.6597Z" fill="white"/>
<path d="M162.701 76.1004C161.995 75.4479 161.325 74.8097 160.68 74.1475C160.257 73.7132 160.374 73.2027 160.691 72.8024C161.702 71.5244 162.753 70.2765 163.801 69.0277C164.159 68.6001 164.726 68.6159 165.154 69.0193C166.209 70.0127 167.267 71.0026 168.412 72.0774C169.163 71.2142 169.817 70.4803 170.449 69.7285C170.972 69.1069 171.457 68.454 171.982 67.8345C172.333 67.4203 172.874 67.4302 173.285 67.805C174.277 68.711 175.26 69.6276 176.275 70.5076C176.657 70.8389 177.094 71.1277 177.547 71.3521C178.147 71.6488 178.07 72.0513 177.75 72.4363C176.705 73.6951 175.639 74.9374 174.552 76.161C174.07 76.704 173.453 76.7479 172.864 76.3105C171.887 75.5851 170.924 74.8397 169.972 74.0813C169.613 73.7957 169.432 73.7652 169.108 74.1945C168.268 75.3067 167.347 76.3595 166.437 77.4174C166.033 77.8874 165.305 77.943 164.766 77.568C164.084 77.0935 163.42 76.5934 162.701 76.1004Z" fill="white"/>
<path d="M263.126 53.9129C262.72 54.2383 262.353 54.5333 261.98 54.8203C261.591 55.1193 261.151 55.3669 260.812 55.713C259.315 57.2388 257.411 57.9959 255.43 58.6142C254.142 59.0166 252.849 59.4095 251.548 59.7669C251.221 59.8568 250.847 59.8292 250.502 59.7919C250.086 59.7468 249.843 59.1971 250.126 58.7656C250.37 58.3941 250.744 58.0562 251.136 57.842C252.956 56.8477 254.807 55.9091 256.639 54.9346C257.362 54.5498 258.063 54.1234 258.774 53.7159C258.777 53.6412 258.779 53.5665 258.782 53.4919C257.651 53.1418 256.525 52.7754 255.388 52.4452C253.224 51.8167 251.26 52.434 249.439 53.5536C248.892 53.8899 248.554 54.5516 248.069 55.0088C247.874 55.1923 247.538 55.2268 247.266 55.329C247.217 55.0905 247.077 54.8268 247.134 54.6172C247.934 51.7033 249.608 49.5922 252.631 48.7313C254.326 48.2483 256.007 48.3183 257.677 48.8253C259.09 49.2541 260.492 49.7169 261.906 50.1414C262.392 50.2874 262.9 50.3585 263.397 50.4721C264.103 50.6335 264.312 50.9741 264.063 51.6596C263.79 52.4093 263.465 53.14 263.126 53.9129Z" fill="white"/>
<path d="M155.98 49.6996C156.406 48.5928 156.826 47.5421 157.258 46.4962C157.413 46.1213 157.677 45.9212 158.106 46.0802C158.597 46.2622 158.408 46.6243 158.349 46.9622C158.212 47.7542 158.012 48.5449 157.974 49.3425C157.922 50.456 158.97 51.127 160.076 50.9503C161.338 50.7487 162.398 50.2723 163.005 49.1489C163.407 48.4043 163.729 47.566 163.852 46.735C164.012 45.6554 164.368 44.8378 165.421 44.387C165.859 44.1995 165.97 44.3503 165.993 44.741C166.035 45.4726 166.01 46.2158 166.135 46.9332C166.448 48.7395 167.855 49.383 169.445 48.4964C169.483 48.4753 169.519 48.4521 169.556 48.4285C170.531 47.7944 170.639 47.5429 170.082 46.0899C169.775 45.2879 169.849 44.6444 170.318 43.9608C170.626 43.5104 170.826 42.9863 171.122 42.5256C171.224 42.3667 171.468 42.2202 171.65 42.2171C171.781 42.2148 171.989 42.4369 172.039 42.5972C172.514 44.1318 172.707 45.7126 172.566 47.3077C172.434 48.8057 171.956 50.2393 170.921 51.3426C170.434 51.8614 169.65 52.1981 168.939 52.3924C167.68 52.7365 166.394 52.7232 165.219 51.996C165.182 51.9737 165.152 51.9418 165.115 51.9211C164.813 51.7521 164.432 51.3864 164.227 51.4665C163.964 51.5688 163.863 52.0468 163.656 52.3359C162.543 53.884 161.058 54.8509 159.119 54.7854C157.145 54.7187 155.949 53.5488 155.859 51.4916C155.834 50.9164 155.936 50.3357 155.98 49.6996Z" fill="white"/>
<path d="M127.608 113.263C126.112 113.861 124.659 114.427 123.209 115.003C121.545 115.663 119.884 116.336 118.218 116.993C118.014 117.073 117.784 117.089 117.566 117.135C117.501 117.089 117.437 117.043 117.372 116.997C117.701 115.985 117.841 114.846 118.417 114.001C118.88 113.322 119.821 112.889 120.634 112.541C123.093 111.487 125.593 110.526 128.078 109.532C130.543 108.546 133.016 107.577 135.475 106.576C137.173 105.885 138.851 105.144 140.55 104.453C140.754 104.37 141.03 104.462 141.272 104.473C141.257 104.67 141.284 104.883 141.219 105.062C140.803 106.208 140.359 107.385 139.336 108.109C138.484 108.712 137.507 109.163 136.543 109.584C134.533 110.46 132.497 111.274 130.47 112.107C129.534 112.491 128.592 112.86 127.608 113.263Z" fill="white"/>
<path d="M165.385 31.0493C166.678 30.5126 167.925 29.9993 169.175 29.4934C170.854 28.8137 172.533 28.1343 174.218 27.4692C174.465 27.3718 174.743 27.3538 175.058 27.2883C175.182 28.321 174.537 28.9898 174.171 29.748C173.447 31.2504 171.931 31.6821 170.565 32.2838C168.675 33.1163 166.766 33.9053 164.855 34.6908C162.146 35.8046 159.427 36.894 156.716 38.0026C155.799 38.3778 154.9 38.7993 153.978 39.161C153.555 39.3269 153.096 39.3996 152.44 39.5697C152.684 38.716 152.93 38.0739 153.045 37.4092C153.29 35.9944 154.443 35.5795 155.523 35.1262C158.087 34.0495 160.676 33.0321 163.252 31.982C163.955 31.6957 164.644 31.3788 165.385 31.0493Z" fill="white"/>
<path d="M170.246 60.299C170.964 60.7956 171.636 61.2771 172.335 61.7155C172.741 61.9698 172.729 62.2789 172.487 62.5774C171.435 63.8745 170.365 65.157 169.288 66.4342C168.961 66.8224 168.14 66.8987 167.7 66.5558C166.386 65.5325 165.084 64.4943 163.798 63.4364C163.381 63.093 163.37 62.4524 163.74 61.9979C164.431 61.1501 165.141 60.317 165.851 59.4853C166.216 59.058 166.619 58.6617 166.97 58.2243C167.306 57.8066 167.634 57.8527 167.979 58.1728C168.727 58.866 169.467 59.5677 170.246 60.299Z" fill="white"/>
<path d="M313.114 109.32C312.275 110.157 311.469 110.961 310.663 111.765C310.253 112.173 309.25 112.304 308.825 111.927C307.928 111.131 307.065 110.293 306.208 109.453C305.869 109.122 305.526 108.771 305.285 108.369C305.009 107.909 304.964 107.427 305.435 106.975C306.54 105.915 307.609 104.816 308.696 103.736C309.168 103.267 309.629 103.323 310.066 103.841C311.144 105.12 312.215 106.401 313.658 107.316C314.386 107.777 314.373 108.066 313.752 108.685C313.551 108.886 313.348 109.086 313.114 109.32Z" fill="white"/>
<path d="M261.477 70.8811C261.739 71.0709 262.074 71.179 262.168 71.3924C262.271 71.6289 262.27 72.075 262.114 72.2343C261.033 73.338 259.896 74.387 258.785 75.4615C258.152 76.0737 257.539 76.1369 256.869 75.6114C255.591 74.6098 254.408 73.513 253.444 72.1966C253.083 71.7034 253.102 71.2732 253.54 70.8349C254.655 69.7205 255.77 68.6069 256.888 67.4954C257.42 66.9656 257.74 67.0594 258.241 67.6034C259.269 68.7201 260.371 69.7691 261.477 70.8811Z" fill="white"/>
<path d="M121.565 50.5677C120.641 51.533 119.747 52.4621 118.86 53.3986C118.569 53.7064 117.646 53.7394 117.241 53.4128C115.927 52.3538 114.7 51.2083 113.67 49.8614C113.299 49.3775 113.371 48.9061 113.733 48.5408C114.897 47.3675 116.089 46.2188 117.321 45.1184C117.497 44.9621 118.134 44.9946 118.262 45.1629C119.344 46.5918 120.617 47.8123 122.045 48.8856C122.522 49.2436 122.526 49.5938 122.108 50.0239C121.941 50.1966 121.768 50.3643 121.565 50.5677Z" fill="white"/>
</svg>
