<svg width="429" height="143" viewBox="0 0 429 143" fill="none" xmlns="http://www.w3.org/2000/svg">
<path d="M181.019 78.3837C181.291 77.5787 181.484 76.799 181.808 76.0788C181.903 75.8683 182.417 75.6793 182.66 75.7504C182.898 75.8202 183.19 76.2337 183.189 76.4954C183.187 77.2374 183.07 77.9825 182.952 78.7191C182.885 79.1388 182.947 79.3831 183.364 79.6144C185.391 80.7371 187.581 81.3792 189.839 81.7297C192.757 82.1826 195.599 81.846 198.26 80.4606C199.206 79.9685 200.152 79.4766 201.169 78.9471C199.677 77.8866 198.18 77.0704 196.465 76.768C194.996 76.509 193.539 76.4484 192.143 77.2087C191.464 77.5781 191.111 77.2802 191.103 76.499C191.09 75.2698 191.71 74.2792 192.448 73.417C193.391 72.3144 194.421 71.2643 195.532 70.3325C196.63 69.4115 197.99 68.9217 199.418 68.755C200.449 68.6345 201.496 68.6397 202.537 68.6112C204.388 68.5607 206.116 69.1295 207.76 69.867C208.946 70.3992 210.049 71.1459 211.122 71.8928C212.15 72.6084 212.115 73.7615 211.966 74.8314C211.693 76.789 210.39 78.0905 208.931 79.2632C208.762 79.3989 208.613 79.5604 208.424 79.7403C209.925 80.6688 211.461 81.3285 213.224 81.5198C215.204 81.7348 216.927 81.2862 218.418 79.9819C218.582 79.8379 218.706 79.5353 218.691 79.3168C218.589 77.7921 218.453 76.2696 218.312 74.7478C218.191 73.4435 218.071 72.1384 217.912 70.8386C217.719 69.2697 217.475 67.7071 217.271 66.1395C217.121 64.9922 217.012 63.8396 216.863 62.6923C216.658 61.1251 216.426 59.5616 216.218 57.9947C216.072 56.8909 215.962 55.7822 215.811 54.679C215.609 53.199 215.376 51.7232 215.17 50.2437C215.023 49.1843 214.91 48.12 214.76 47.0609C214.557 45.6249 214.323 44.1931 214.122 42.7569C214.009 41.9502 213.876 41.1395 213.856 40.3281C213.823 38.9598 213.433 37.6932 212.89 36.4657C212.54 35.6753 212.137 34.907 211.727 34.1452C211.431 33.5936 211.676 33.1415 211.957 32.7184C212.708 31.5884 213.479 30.4718 214.27 29.3698C214.441 29.1321 214.778 28.7845 214.949 28.8293C215.223 28.9012 215.555 29.2213 215.633 29.5005C216.23 31.6345 217.544 33.3619 218.809 35.0999C219.839 36.5155 219.602 37.0847 218.592 38.282C218.199 38.7491 217.734 39.157 217.297 39.5868C216.995 39.883 216.908 40.1859 216.975 40.6422C217.204 42.1888 217.317 43.7524 217.532 45.3015C217.751 46.8831 218.054 48.453 218.293 50.0321C218.494 51.363 218.648 52.7011 218.84 54.0336C219.046 55.469 219.29 56.8991 219.484 58.3362C219.645 59.5258 219.745 60.7235 219.892 61.9152C220.053 63.2309 220.25 64.5424 220.407 65.8587C220.518 66.798 220.615 67.7406 220.672 68.6846C220.819 71.1049 220.852 73.5358 221.098 75.9454C221.321 78.1229 221.115 80.2424 220.506 82.3011C220.047 83.8549 218.973 85.0951 217.691 86.0688C215.918 87.4152 213.877 87.6746 211.692 87.4276C209.906 87.2257 208.403 86.475 207.063 85.3751C206.552 84.9558 206.243 84.295 205.826 83.7565C205.393 83.1974 204.94 82.6532 204.519 82.1297C202.898 82.9625 201.386 83.8068 199.818 84.5291C197.822 85.4482 195.754 86.1386 193.564 86.5162C191.842 86.813 190.131 86.9111 188.402 86.8724C186.279 86.8248 184.393 86.0749 182.689 84.8358C182.336 84.579 181.992 84.31 181.681 84.0753C181.12 85.3661 180.624 86.5947 180.057 87.7895C179.349 89.2809 178.052 89.8997 176.476 90.031C174.37 90.2063 172.69 89.2555 171.128 87.9964C170.963 87.8631 170.768 87.7612 170.621 87.6107C170.296 87.2769 170.04 87.3591 169.745 87.6645C168.201 89.2618 166.283 90.0076 164.094 89.8783C162.486 89.7833 160.9 89.3962 159.457 88.6537C157.993 87.9008 156.564 87.0712 155.174 86.1903C154.741 85.9158 154.452 85.9698 154.061 86.1343C152.198 86.9178 150.334 87.6989 148.461 88.4579C147.838 88.7101 147.2 88.9508 146.547 89.0917C145.991 89.2115 145.77 89.4832 145.61 90.0172C144.905 92.356 144.205 94.6997 143.376 96.9961C142.72 98.816 141.912 100.584 141.112 102.349C140.329 104.078 139.422 105.745 138 107.054C135.835 109.049 133.416 110.591 130.418 110.916C128.763 111.095 127.079 111.272 125.429 111.158C121.964 110.92 118.622 110.051 115.432 108.651C114.217 108.117 113.001 107.583 111.812 106.994C111.323 106.752 110.785 106.405 110.981 105.716C111.102 105.289 112.185 105.023 112.78 105.221C113.878 105.586 114.951 106.049 116.071 106.312C117.557 106.661 119.073 106.902 120.588 107.102C121.573 107.232 122.589 107.316 123.575 107.228C126.091 107.004 128.61 106.684 130.908 105.531C133.108 104.427 134.928 102.848 136.505 100.949C138.653 98.3616 140.181 95.4114 141.674 92.4355C141.955 91.8753 142.138 91.2656 142.416 90.5488C142.053 90.6075 141.768 90.6098 141.516 90.7029C140.881 90.9377 140.356 90.8372 140.079 90.1978C139.58 89.0432 139.085 87.8817 138.685 86.6908C138.481 86.0869 138.731 85.5236 139.397 85.2904C140.429 84.9294 141.47 84.5977 142.507 84.2508C144.703 83.5158 146.924 82.8464 149.087 82.0241C151.251 81.2017 153.345 80.1992 155.495 79.3391C155.927 79.1663 156.766 79.0863 156.906 79.299C157.21 79.7636 157.246 80.4409 157.275 81.037C157.298 81.4934 157.097 81.9576 157.087 82.4203C157.083 82.5883 157.319 82.8741 157.492 82.9156C159.075 83.2968 160.664 83.6519 162.259 83.983C163.785 84.3 165.3 84.1927 166.733 83.5819C167.481 83.2629 168.241 82.874 168.853 82.35C170.552 80.8955 171.873 79.1618 172.46 76.9393C172.554 76.584 172.819 76.144 173.126 76.0012C173.816 75.6796 174.111 76.5868 173.958 77.2606C173.594 78.8688 173.191 80.468 172.826 82.0759C172.796 82.2107 172.895 82.4868 172.996 82.5228C174.303 82.9869 175.606 83.4748 176.94 83.8446C178.321 84.2269 179.148 83.8532 179.782 82.4765C180.253 81.4535 180.511 80.3312 180.847 79.2479C180.929 78.9864 180.944 78.7043 181.019 78.3837Z" fill="white"/>
<path d="M340.445 80.8318C337.221 81.1343 334.137 81.8411 331.135 82.8286C328.378 83.7352 325.703 84.8882 322.964 85.8524C320.7 86.6492 318.407 87.3704 316.104 88.0456C314.645 88.4732 313.149 88.7859 311.658 89.0893C310.863 89.2511 310.043 89.321 309.231 89.368C306.636 89.518 304.039 89.7356 301.443 89.7357C299.647 89.7358 297.837 89.5062 296.058 89.2203C294.309 88.9391 292.579 88.5065 290.867 88.0434C289.98 87.8034 289.134 87.3855 288.3 86.9846C287.895 86.7899 287.721 86.8897 287.58 87.2539C286.253 90.6976 284.635 93.9934 282.406 96.948C281.247 98.4836 279.779 99.696 278.087 100.645C276.135 101.74 274.061 102.142 271.833 102.148C269.018 102.156 266.286 101.803 263.654 100.807C261.179 99.871 258.828 98.6765 256.618 97.2187C256.4 97.0752 256.133 96.6359 256.205 96.5012C256.357 96.2146 256.694 95.8963 256.996 95.8493C257.466 95.7762 258.011 95.8116 258.45 95.9869C260.567 96.8317 262.743 97.3968 265.008 97.6625C268.02 98.0158 270.979 97.7373 273.884 96.934C275.47 96.4955 276.841 95.6225 278.118 94.5766C279.954 93.0732 281.452 91.2834 282.708 89.2933C283.405 88.1881 283.972 87.0004 284.602 85.8524C284.713 85.6508 284.845 85.4613 284.679 85.5157C283.993 84.6901 283.319 83.8545 282.618 83.0414C281.673 81.944 281.524 80.6297 281.684 79.2907C281.866 77.7535 282.324 76.2773 283.108 74.9217C283.192 74.7753 283.239 74.59 283.358 74.4848C283.526 74.3359 283.799 74.1086 283.931 74.1604C284.137 74.2413 284.366 74.5098 284.404 74.7303C284.586 75.767 284.937 76.7028 285.543 77.5842C286.242 78.5994 287.145 79.3253 288.182 79.9398C291.075 81.6542 294.202 82.6985 297.515 83.1914C298.997 83.4118 300.487 83.593 301.98 83.7118C303.707 83.8493 305.443 83.9975 307.171 83.9571C308.751 83.9202 310.336 83.7055 311.899 83.4468C313.863 83.1216 315.821 82.7328 317.754 82.2586C319.616 81.802 321.453 81.2355 323.282 80.6561C325.63 79.9119 327.959 79.1066 330.296 78.3277C330.311 78.2653 330.327 78.2029 330.342 78.1405C329.982 77.9854 329.632 77.7922 329.259 77.6816C327.178 77.0659 325.1 76.4346 323.001 75.8859C322.2 75.6766 321.348 75.6601 320.516 75.5784C319.872 75.515 319.221 75.4257 318.578 75.4536C315.812 75.5734 313.037 75.6112 310.333 76.34C310.091 76.4051 309.559 76.2462 309.543 76.136C309.494 75.7997 309.542 75.3834 309.713 75.0933C310.262 74.1646 310.985 73.3286 311.453 72.3654C312.265 70.6933 313.746 70.2806 315.353 70.0623C317.22 69.8087 319.093 69.5949 320.968 69.4042C322.213 69.2775 323.465 69.2259 324.714 69.1328C325.678 69.061 326.641 68.9771 327.682 68.8922C327.628 68.0167 327.615 67.1758 327.515 66.3453C327.381 65.2241 327.19 64.1093 327.005 62.9948C326.768 61.5684 326.51 60.1455 326.266 58.7204C325.985 57.0849 325.713 55.448 325.429 53.8131C325.153 52.2214 324.857 50.633 324.588 49.0401C324.453 48.24 324.301 47.436 324.258 46.6284C324.11 43.9021 323.525 41.2887 322.249 38.8688C321.987 38.3729 322.023 37.985 322.314 37.6608C323.226 36.643 323.683 35.3883 324.25 34.187C324.421 33.8253 324.611 33.4677 324.837 33.1386C325.132 32.7093 325.6 32.7203 325.839 33.1976C326.347 34.2131 326.733 35.2936 327.288 36.28C327.962 37.4765 328.751 38.6086 329.506 39.7586C330.064 40.6088 330.045 41.1369 329.36 41.8684C328.983 42.2716 328.613 42.6914 328.184 43.0346C327.62 43.4859 327.598 44.0779 327.676 44.6831C327.869 46.1634 328.1 47.6388 328.323 49.1151C328.536 50.5276 328.771 51.9369 328.97 53.3513C329.125 54.4537 329.23 55.5631 329.376 56.6669C329.583 58.2336 329.835 59.7948 330.018 61.3642C330.188 62.8161 330.313 64.2742 330.419 65.7325C330.525 67.1977 330.514 68.6632 329.895 70.0381C329.629 70.6297 329.281 71.1845 328.917 71.8526C329.636 72.1785 330.425 72.6505 331.28 72.9015C333.586 73.5794 335.899 74.2668 338.251 74.7516C340.111 75.1349 342.028 75.2607 343.926 75.4329C345.883 75.6105 347.847 75.7031 349.808 75.8409C350.06 75.8587 350.309 75.9285 350.56 75.9683C351.323 76.0893 351.537 76.4998 351.2 77.2336C350.531 78.6904 349.854 80.1435 349.122 81.7239C346.305 81.0518 343.432 80.6413 340.445 80.8318Z" fill="white"/>
<path d="M117.658 90.2041C119.811 88.25 121.582 86.0356 123.054 83.5971C123.749 82.4473 124.265 81.1884 124.829 79.9636C124.936 79.7313 124.886 79.427 124.914 79.1019C123.948 79.2133 122.969 79.3091 121.995 79.4421C120.038 79.7093 118.047 79.9059 116.151 79.3299C114.436 78.8089 113.327 77.5434 112.89 75.7191C112.317 73.3235 112.785 71.0657 113.648 68.8458C114.412 66.8791 115.514 65.1156 117.029 63.6408C118.28 62.4222 119.779 62.2926 121.289 63.2491C123.897 64.9006 125.268 67.4415 126.283 70.2031C126.842 71.7217 127.308 73.3 127.58 74.8917C127.926 76.9159 127.963 78.9901 127.465 81.0083C126.908 83.2653 126.15 85.4709 124.977 87.4834C124.094 88.9988 123.089 90.4541 122.025 91.8503C121.199 92.9351 120.22 93.9083 119.27 94.8938C117.828 96.3902 115.978 97.1742 114.038 97.7873C112.234 98.3575 110.416 98.8534 108.514 98.9718C107.221 99.0522 105.924 99.2565 104.637 99.2068C102.639 99.1297 100.642 98.9292 98.6552 98.6945C97.0094 98.5001 95.3685 98.2289 93.7448 97.8972C92.888 97.7221 92.6594 97.0191 93.1994 96.4915C93.369 96.3258 93.6775 96.2189 93.9189 96.2249C94.8908 96.2494 95.8607 96.3535 96.8327 96.3821C98.5124 96.4315 100.194 96.4822 101.873 96.4621C102.816 96.4509 103.759 96.3186 104.697 96.2064C107.312 95.8938 109.754 95.0317 112.069 93.8043C113.945 92.8096 115.793 91.7643 117.395 90.3447C117.456 90.291 117.548 90.2734 117.658 90.2041ZM122.162 71.7583C121.457 70.9742 120.84 70.0813 120.028 69.4311C118.772 68.4246 118.637 68.5862 117.389 69.4631C117.101 69.6655 116.866 69.9827 116.686 70.293C115.809 71.8011 115.973 73.0574 117.755 73.5884C119.253 74.0346 121.746 73.9505 123.444 73.4864C123.027 72.9154 122.629 72.37 122.162 71.7583Z" fill="white"/>
<path d="M102.387 65.4601C103.178 67.1846 103.509 68.9694 103.703 70.7895C103.827 71.961 104.049 73.1297 104.07 74.3024C104.091 75.5043 103.895 76.7084 103.839 77.9136C103.77 79.3946 103.406 80.8054 102.911 82.1889C102.535 83.2381 102.049 84.2231 101.195 84.9829C99.9482 86.0917 98.7618 87.2767 97.4501 88.3018C95.6143 89.7365 93.4387 90.5073 91.2411 91.2265C88.6437 92.0766 85.9674 92.1465 83.3059 91.9689C80.5138 91.7826 77.8989 90.8939 75.9559 88.7399C74.5003 87.1263 73.5827 85.1699 73.2357 83.0256C73.0057 81.604 72.8964 80.1334 72.9733 78.6976C73.1525 75.3533 73.8062 72.0923 75.1833 69.0102C75.2862 68.7799 75.3971 68.515 75.5846 68.3703C75.8256 68.1843 76.2122 67.9364 76.4201 68.0164C76.7413 68.14 76.9653 68.451 76.7885 68.9543C76.2376 70.5223 75.6939 72.0996 75.2795 73.7074C74.2378 77.7487 75.2906 81.222 78.4239 83.9666C79.6376 85.0297 81.2313 85.4713 82.7613 85.9616C84.2979 86.4539 85.8826 86.4272 87.4495 86.3351C91.1894 86.1152 94.5692 84.8924 97.5007 82.5043C99.4285 80.9338 100.94 79.0542 101.709 76.677C101.894 76.1029 101.822 75.3429 101.611 74.7619C100.908 72.8252 100.162 70.8957 99.2908 69.0299C98.3446 67.0042 97.2316 65.0567 96.2138 63.0636C96.0953 62.8316 96.0438 62.5123 96.091 62.2575C96.3731 60.7361 96.681 59.2191 97.0068 57.7063C97.1396 57.0897 97.6651 56.9484 98.0901 57.4373C98.4761 57.8815 98.8228 58.3788 99.0929 58.9013C100.209 61.0602 101.289 63.2376 102.387 65.4601Z" fill="white"/>
<path d="M263.139 78.5974C264.978 78.3535 266.754 78.1096 268.531 77.8659C268.679 77.8456 268.827 77.8221 268.977 77.8099C269.525 77.7649 269.743 77.9783 269.437 78.4864C268.717 79.6781 267.981 80.8596 267.233 82.0335C267.155 82.1551 266.957 82.2612 266.811 82.2679C264.771 82.3615 262.836 82.943 260.939 83.6113C258.956 84.3097 257.002 85.1022 255.078 85.9485C253.825 86.4992 252.648 87.2222 251.434 87.861C251.268 87.9483 251.086 88.0281 250.903 88.054C250.452 88.1178 250.271 87.8707 250.414 87.4707C250.753 86.5199 251.118 85.577 251.509 84.6467C251.598 84.4354 251.813 84.2467 252.014 84.1181C253.115 83.4161 254.23 82.736 255.287 82.0813C254.145 81.2992 252.989 80.4339 251.762 79.6862C250.202 78.7361 250.029 76.7907 250.965 75.3609C252.445 73.0994 254.262 71.1105 256.43 69.4765C257.307 68.8154 258.21 68.1637 259.179 67.6554C260.833 66.7875 262.571 67.1347 263.915 68.408C264.169 68.6487 264.464 68.868 264.65 69.1554C265.434 70.3649 265.43 70.7102 264.727 71.9419C264.276 72.7302 263.773 73.4912 263.253 74.236C263.068 74.5019 262.795 74.779 262.503 74.8814C262.1 75.0226 261.751 74.8569 261.5 74.4274C260.84 73.2972 260.135 72.18 258.672 71.9776C258.395 71.9393 258.05 71.9314 257.825 72.0621C257.022 72.5289 256.222 73.0167 255.49 73.5852C255.031 73.9413 254.941 74.4283 255.356 74.9904C256.722 76.8397 258.535 77.9361 260.78 78.3278C261.538 78.4601 262.311 78.5099 263.139 78.5974Z" fill="white"/>
<path d="M232.28 45.1637C232.508 46.7414 232.688 48.2705 232.905 49.7943C233.194 51.8205 233.528 53.8403 233.812 55.8672C234.016 57.3295 234.157 58.8006 234.35 60.2645C234.552 61.7877 234.805 63.3043 234.993 64.829C235.122 65.8751 235.195 66.929 235.263 67.9814C235.406 70.2038 235.543 72.4268 235.656 74.6508C235.726 76.0183 235.852 77.3945 235.769 78.7555C235.639 80.8723 235.372 82.9817 235.118 85.0888C235.071 85.4868 234.88 85.9102 234.637 86.2322C234.275 86.7118 233.739 86.5882 233.567 86.0106C233.435 85.5673 233.325 85.1027 233.305 84.6432C233.235 83.0129 233.257 81.3774 233.15 79.75C233.035 77.9937 232.811 76.2446 232.642 74.4917C232.545 73.4853 232.485 72.4749 232.37 71.4708C232.22 70.1761 232.024 68.8869 231.862 67.5935C231.716 66.4244 231.607 65.2504 231.451 64.0829C231.255 62.6246 231.017 61.1719 230.814 59.7146C230.622 58.3387 230.461 56.9586 230.27 55.5827C230.063 54.1041 229.82 52.6306 229.625 51.1506C229.466 49.9392 229.364 48.7203 229.218 47.5071C229.056 46.17 228.81 44.8401 228.713 43.4989C228.568 41.4883 228.387 39.4644 228.48 37.4582C228.541 36.1543 229.054 34.8697 229.384 33.5815C229.44 33.3627 229.555 33.1237 229.718 32.9777C229.874 32.8378 230.145 32.7162 230.333 32.7541C230.51 32.7901 230.749 33.025 230.78 33.2035C230.948 34.1908 231.064 35.1871 231.191 36.1813C231.368 37.5604 231.543 38.9398 231.71 40.3202C231.851 41.4901 231.979 42.6615 232.112 43.8324C232.16 44.2589 232.203 44.6859 232.28 45.1637Z" fill="white"/>
<path d="M355.888 59.3296C356.093 60.7835 356.274 62.1842 356.442 63.5866C356.584 64.7789 356.709 65.9733 356.843 67.1666C357.016 68.7002 357.201 70.2326 357.36 71.7676C357.432 72.4551 357.471 73.147 357.497 73.838C357.551 75.3383 357.69 76.8449 357.609 78.3387C357.469 80.886 357.529 83.4633 356.833 85.9532C356.681 86.4959 356.447 87.0284 356.163 87.5144C356.062 87.6868 355.694 87.7892 355.461 87.7685C355.296 87.7539 355.078 87.502 355.02 87.3142C354.917 86.9734 354.885 86.6021 354.876 86.2423C354.823 84.0628 354.851 81.879 354.721 79.7044C354.588 77.4752 354.302 75.2552 354.086 73.0309C353.95 71.6403 353.847 70.2461 353.681 68.8592C353.494 67.2901 353.245 65.7286 353.039 64.1616C352.891 63.0361 352.777 61.9061 352.635 60.7797C352.425 59.1034 352.192 57.4298 351.99 55.7525C351.877 54.8135 351.804 53.8696 351.718 52.9274C351.584 51.4707 351.353 50.0139 351.348 48.5564C351.34 46.3714 351.657 44.2197 352.79 42.2864C352.902 42.0952 353.252 41.9628 353.495 41.9588C353.64 41.9563 353.883 42.235 353.923 42.4218C354.059 43.0439 354.144 43.6794 354.21 44.3138C354.396 46.109 354.56 47.9063 354.737 49.7024C354.866 51.0059 354.983 52.3109 355.14 53.6111C355.288 54.8404 355.49 56.0632 355.652 57.291C355.739 57.9507 355.791 58.615 355.888 59.3296Z" fill="white"/>
<path d="M252.616 47.1776C252.691 45.3092 253.416 43.728 254.521 42.3663C255.284 41.4266 256.194 40.5542 257.185 39.863C258.807 38.7325 260.525 40.0412 261.124 41.2268C261.833 42.6296 262.181 44.1719 262.054 45.7404C261.948 47.0465 261.646 48.3401 261.372 49.6267C261.305 49.9393 261.294 50.0666 261.588 50.2296C261.902 50.4036 262.152 50.6891 262.448 50.9003C263.415 51.5903 263.514 52.5297 263.224 53.5746C263.083 54.0808 262.904 54.5765 262.739 55.076C262.524 55.7255 262.128 55.8222 261.633 55.3409C260.967 54.6931 260.306 54.0399 259.599 53.3462C259.064 54.2471 258.644 55.0286 258.155 55.7642C256.88 57.6824 255.118 59.1187 253.188 60.2838C251.06 61.5677 248.803 62.6364 246.591 63.7786C246.319 63.9191 245.98 64.0013 245.677 63.9883C245.411 63.9769 244.99 63.85 244.929 63.6733C244.844 63.4277 244.937 62.9988 245.119 62.8054C245.65 62.244 246.229 61.714 246.851 61.2553C249.467 59.3247 252.148 57.4795 254.717 55.488C255.836 54.6201 256.74 53.4751 257.756 52.4417C256.193 51.2355 254.78 50.1528 253.376 49.0578C252.789 48.5995 252.567 47.9711 252.616 47.1776ZM259.141 48.3853C259.244 48.3662 259.435 48.3514 259.436 48.3276C259.519 46.5754 259.44 44.8535 258.327 43.3713C257.925 42.8361 257.104 42.6539 256.691 43.0725C256.199 43.5695 255.753 44.1309 255.385 44.7248C255.04 45.2799 255.233 45.7583 255.787 46.136C256.873 46.8758 257.955 47.6225 259.141 48.3853Z" fill="white"/>
<path d="M303.74 57.9625C305.013 56.9946 306.286 56.0843 307.447 55.0498C308.337 54.2573 309.088 53.3079 309.899 52.4292C308.637 51.4944 307.491 50.6681 306.372 49.806C305.902 49.444 305.433 49.052 305.067 48.5919C304.55 47.9439 304.66 47.1139 304.822 46.403C305.409 43.8202 306.775 41.7195 308.905 40.1026C310.534 38.8658 312.52 39.9676 313.168 41.1784C314.225 43.1545 314.327 45.2675 313.992 47.4248C313.869 48.2155 313.637 48.9888 313.489 49.7766C313.463 49.9121 313.572 50.1224 313.685 50.2257C314.128 50.631 314.606 50.9981 315.055 51.3965C315.691 51.9593 315.474 52.7229 315.4 53.387C315.33 54.0202 315.039 54.6333 314.81 55.2419C314.741 55.4265 314.535 55.7121 314.424 55.6978C314.183 55.6665 313.93 55.5085 313.74 55.3378C313.198 54.8497 312.679 54.3344 312.16 53.82C311.817 53.4789 311.648 53.6129 311.445 53.9892C310.672 55.4208 309.848 56.8588 308.579 57.8829C307.064 59.1043 305.443 60.2073 303.794 61.2441C302.42 62.1081 300.945 62.8128 299.503 63.5652C299.077 63.7873 298.623 64.0129 298.159 64.0846C297.821 64.1367 297.386 64.0167 297.115 63.8126C297.008 63.7315 297.124 63.1099 297.319 62.9175C298.056 62.1894 298.833 61.492 299.658 60.8656C300.976 59.8647 302.345 58.9296 303.74 57.9625ZM311.375 45.4128C311.286 45.1328 311.213 44.8462 311.105 44.5742C310.826 43.8775 310.477 43.1844 309.691 42.997C308.891 42.8062 308.554 43.5653 308.063 43.9862C308.046 44.0004 308.026 44.0126 308.014 44.0304C307.128 45.4295 307.134 45.6272 308.446 46.5607C309.308 47.1747 310.183 47.7715 311.052 48.3758C311.435 48.6422 311.633 48.4626 311.62 48.0756C311.592 47.2142 311.513 46.3545 311.375 45.4128Z" fill="white"/>
<path d="M147.337 46.0923C147.12 47.1446 146.892 48.133 146.699 49.1281C146.674 49.2575 146.792 49.4559 146.901 49.5626C147.225 49.8775 147.537 50.2421 147.928 50.4434C148.874 50.9311 148.701 51.7807 148.625 52.5396C148.558 53.2 148.305 53.847 148.091 54.4855C147.9 55.0555 147.592 55.0977 147.138 54.6734C146.584 54.1557 145.997 53.6711 145.473 53.1253C144.99 52.6231 144.754 52.8607 144.528 53.3393C143.776 54.9282 142.793 56.3731 141.424 57.467C140.069 58.5497 138.631 59.545 137.149 60.4467C135.599 61.3898 133.964 62.1985 132.341 63.0147C131.921 63.2257 131.409 63.302 130.932 63.3365C130.334 63.3796 130.038 62.9073 130.404 62.4244C130.877 61.8008 131.433 61.2024 132.061 60.7414C134.233 59.1484 136.491 57.671 138.641 56.0495C140.217 54.8609 141.783 53.6278 142.901 51.948C142.971 51.8423 143.026 51.7264 143.048 51.6868C141.584 50.5132 140.11 49.3728 138.687 48.1721C138.06 47.6438 137.964 46.8983 138.089 46.0843C138.339 44.452 139.075 43.0457 139.972 41.6987C140.724 40.5714 141.722 39.7089 142.881 39.042C143.73 38.5536 144.551 38.8313 145.315 39.3174C146.582 40.1228 146.941 41.4617 147.177 42.7874C147.365 43.8445 147.293 44.9477 147.337 46.0923ZM143.835 47.3203C144.133 47.5499 144.43 47.7794 144.761 48.0346C145.168 46.9467 144.934 45.9372 144.76 44.9354C144.597 43.9988 144.187 43.1698 143.503 42.4988C143.171 42.1733 142.73 42.0089 142.354 42.3335C141.816 42.7966 141.282 43.2987 140.883 43.8778C140.394 44.5854 140.583 45.1289 141.286 45.6087C142.108 46.1695 142.921 46.7435 143.835 47.3203Z" fill="white"/>
<path d="M176.019 62.3364C175.168 63.3632 174.37 64.3729 173.523 65.3393C173.086 65.8381 172.428 65.8815 171.9 65.4943C170.972 64.8149 170.052 64.1229 169.159 63.3988C168.855 63.1526 168.673 63.1933 168.458 63.4575C167.726 64.3531 166.97 65.2298 166.268 66.1476C165.723 66.8598 164.976 67.1191 164.248 66.6098C163.062 65.78 161.885 64.9196 160.808 63.9571C160.07 63.2981 160.144 62.7515 160.801 61.9163C161.646 60.841 162.499 59.7721 163.354 58.7046C163.742 58.2195 164.326 58.2199 164.805 58.6607C165.663 59.451 166.554 60.2065 167.395 61.0139C167.8 61.4027 168.073 61.2686 168.365 60.9225C169.306 59.8062 170.255 58.697 171.181 57.5683C171.564 57.1014 171.954 57.2152 172.316 57.5203C173.338 58.3796 174.331 59.2727 175.347 60.1378C175.604 60.3564 175.911 60.5153 176.189 60.7103C177.085 61.3396 176.827 61.2241 176.418 61.927C176.333 62.0733 176.176 62.1778 176.019 62.3364Z" fill="white"/>
<path d="M161.375 37.2871C160.747 37.895 160.165 38.4803 159.551 39.0291C159.387 39.1753 159.122 39.2703 158.906 39.2663C158.814 39.2646 158.614 38.9044 158.659 38.7786C158.973 37.9137 159.233 37.0025 159.708 36.2277C161.241 33.7277 163.567 32.5813 166.46 32.759C167.603 32.8291 168.731 33.2309 169.853 33.5273C171.237 33.8928 172.605 34.3183 173.987 34.693C174.652 34.8734 174.856 35.0865 174.659 35.7387C174.448 36.4402 174.182 37.1355 173.848 37.7861C173.563 38.3405 173.12 38.7187 172.481 38.9923C171.78 39.2923 171.219 39.9214 170.603 40.4148C169.306 41.4541 167.779 41.9936 166.213 42.4514C165.223 42.741 164.232 43.0291 163.239 43.3095C162.955 43.3896 162.666 43.4707 162.375 43.4969C162.013 43.5295 161.49 43.599 161.45 43.1486C161.419 42.8022 161.657 42.2671 161.945 42.086C163.159 41.3222 164.435 40.6552 165.693 39.9613C166.912 39.289 168.137 38.6284 169.357 37.9589C169.488 37.8873 169.605 37.7911 169.796 37.6602C166.951 36.4391 164.232 35.7043 161.375 37.2871Z" fill="white"/>
<path d="M286.757 41.4036C288.077 41.8936 287.803 41.8586 287.547 42.8135C287.3 43.74 287.026 44.7346 286.181 45.3466C283.929 46.9773 281.803 48.8192 278.909 49.3127C277.795 49.5026 276.717 49.9184 275.636 50.2725C275.142 50.4342 274.708 50.3006 274.525 49.9156C274.421 49.6966 274.611 49.1579 274.837 48.9939C275.621 48.4246 276.459 47.9226 277.31 47.4563C279.105 46.4734 280.92 45.5292 282.727 44.5692C282.729 44.5039 282.731 44.4386 282.733 44.3733C281.749 44.0405 280.783 43.6203 279.775 43.3984C278.661 43.1536 277.537 43.0527 276.365 43.3425C274.8 43.7295 273.546 44.4676 272.613 45.7806C272.494 45.9492 272.228 46.0141 272.03 46.127C271.911 45.915 271.65 45.6598 271.698 45.4984C271.91 44.7984 272.135 44.0817 272.495 43.4515C273.538 41.6271 275.027 40.3571 277.118 39.8028C278.826 39.3499 280.449 39.5826 282.088 40.0849C283.617 40.5533 285.163 40.9651 286.757 41.4036Z" fill="white"/>
<path d="M74.7515 39.2598C76.1048 38.658 77.4164 38.0843 78.7331 37.5229C81.0557 36.5326 83.3849 35.558 85.7047 34.5612C87.4652 33.8047 89.2151 33.0237 90.97 32.2542C93.0711 31.3329 95.169 30.4042 97.2785 29.5025C97.5208 29.399 97.8285 29.4484 98.2706 29.4141C98.1367 29.914 98.0679 30.3421 97.9088 30.7335C97.3896 32.0109 96.6966 33.0526 95.2837 33.6238C91.9866 34.9567 88.7574 36.4567 85.4913 37.8674C81.5888 39.553 77.6762 41.2154 73.7688 42.8896C73.4208 43.0388 73.0891 43.2351 72.7305 43.3482C72.2209 43.509 71.9968 43.3118 72.1698 42.7917C72.478 41.8657 72.45 40.7728 73.2923 40.0935C73.7094 39.7572 74.2354 39.5559 74.7515 39.2598Z" fill="white"/>
<path d="M211.336 94.1095C211.5 94.304 211.751 94.5587 211.698 94.6787C211.237 95.7207 210.936 96.8982 209.978 97.609C209.255 98.1448 208.425 98.556 207.602 98.9329C205.88 99.7218 204.131 100.454 202.391 101.205C199.84 102.306 197.284 103.397 194.735 104.505C193.518 105.034 192.323 105.616 191.097 106.126C190.586 106.338 190.022 106.425 189.459 106.575C189.269 104.658 190.164 103.292 191.773 102.634C193.488 101.932 195.158 101.12 196.857 100.376C199.055 99.414 201.266 98.478 203.466 97.5187C205.011 96.8449 206.544 96.1448 208.088 95.4685C209.148 95.0041 210.218 94.5603 211.336 94.1095Z" fill="white"/>
<path d="M89.8187 52.7217C88.762 53.7761 87.7439 54.8001 86.7231 55.8212C86.3829 56.1616 85.5116 56.2781 85.1192 55.9943C83.7955 55.0371 82.5482 54.007 81.5924 52.6459C81.23 52.1299 81.3916 51.7269 81.6913 51.4075C82.7385 50.2916 83.8358 49.2223 84.9281 48.1495C85.2691 47.8146 85.7793 47.9549 86.124 48.3032C87.2135 49.4043 88.3504 50.4585 89.4461 51.5537C89.742 51.8494 90.3745 52.0787 89.8187 52.7217Z" fill="white"/>
<path d="M332.891 93.8789C333.442 94.327 333.951 94.7522 334.48 95.1528C334.992 95.5411 335.021 95.754 334.566 96.2103C333.545 97.2326 332.523 98.2526 331.5 99.2728C331.059 99.7129 330.33 99.8074 329.884 99.3968C328.744 98.3466 327.636 97.2614 326.522 96.1833C326.065 95.7409 326.14 95.215 326.513 94.8202C327.581 93.6869 328.689 92.5892 329.814 91.511C330.15 91.1888 330.561 91.2449 330.889 91.6174C331.544 92.3613 332.202 93.1027 332.891 93.8789Z" fill="white"/>
<path d="M279.987 58.3894C280.33 58.0483 280.648 57.7478 280.947 57.4299C281.305 57.0499 281.637 57.0586 281.99 57.4364C282.75 58.248 283.502 59.0675 284.289 59.8516C284.665 60.2255 285.104 60.5388 285.532 60.8561C286.116 61.2902 286.154 61.7594 285.632 62.2317C284.629 63.1398 283.703 64.1347 282.745 65.0924C282.271 65.5654 281.496 65.5786 280.943 65.2C279.646 64.3125 278.653 63.1291 277.681 61.9239C277.29 61.4393 277.432 60.9653 277.826 60.5596C278.526 59.8378 279.244 59.1337 279.987 58.3894Z" fill="white"/>
<path d="M166.767 56.0337C165.63 55.0719 164.489 54.1884 163.459 53.1901C163.243 52.9813 163.264 52.2235 163.474 51.9338C164.363 50.7042 165.334 49.5294 166.342 48.3938C166.632 48.0679 167.104 48.1262 167.492 48.4753C168.486 49.3676 169.497 50.2405 170.519 51.099C170.79 51.3266 171.126 51.4786 171.437 51.6571C171.863 51.9017 171.857 52.2374 171.587 52.567C170.704 53.6469 169.82 54.7268 168.9 55.7752C168.22 56.5499 167.889 56.5703 166.767 56.0337Z" fill="white"/>
</svg>
