<svg width="429" height="143" viewBox="0 0 429 143" fill="none" xmlns="http://www.w3.org/2000/svg">
<path d="M93.1511 91.6093C89.5248 92.0267 86.658 90.3363 83.8584 88.4938C83.4352 88.2153 83.1069 88.2052 82.6946 88.3701C80.3497 89.308 78.0024 90.2399 75.6623 91.1898C75.5166 91.2489 75.3624 91.4251 75.3188 91.5774C74.3617 94.9223 73.2808 98.2248 71.8692 101.408C71.2819 102.732 70.7497 104.121 69.9219 105.289C68.2846 107.599 66.0619 109.246 63.2941 109.985C62.0884 110.306 60.816 110.453 59.5656 110.517C56.9553 110.65 54.372 110.372 51.8626 109.61C49.6022 108.924 47.3877 108.11 45.3724 106.848C44.9981 106.614 44.6991 106.259 44.3872 105.979C44.8969 104.931 45.6496 105.064 46.5742 105.398C48.4711 106.083 50.3935 106.629 52.406 106.864C55.4644 107.221 58.4264 106.861 61.3162 105.82C62.8794 105.257 64.2184 104.324 65.4427 103.238C67.5695 101.353 69.0275 98.9587 70.3573 96.4888C71.0747 95.1565 71.6983 93.7737 72.4401 92.2587C71.9106 92.3177 71.5514 92.3668 71.1906 92.3958C70.6831 92.4367 70.3134 92.2224 70.1251 91.7456C69.7545 90.8074 69.3652 89.8747 69.0444 88.9193C68.8524 88.3474 69.0215 87.8306 69.6477 87.6155C71.0401 87.1372 72.4439 86.692 73.8398 86.2236C75.536 85.6543 77.2472 85.123 78.9184 84.4871C80.746 83.7916 82.5269 82.974 84.3452 82.2526C85.1751 81.9233 85.5757 82.2288 85.5574 83.1075C85.5454 83.6872 85.4719 84.2654 85.4343 84.8447C85.4153 85.1373 85.4367 85.3285 85.8269 85.4537C87.9605 86.1388 90.114 86.6535 92.3758 86.4798C93.6374 86.3829 94.7236 85.8617 95.7158 85.0823C97.4017 83.7579 98.4055 81.9946 99.1032 80.0167C99.1581 79.8612 99.2323 79.6842 99.3535 79.5869C99.5319 79.4436 99.756 79.2997 99.9702 79.2837C100.07 79.2763 100.289 79.5697 100.287 79.7243C100.279 80.3255 100.263 80.9384 100.14 81.5236C99.8962 82.6764 99.579 83.8136 99.2624 85.0769C100.068 85.396 100.935 85.7627 101.82 86.08C102.234 86.2286 102.705 86.2261 103.111 86.3897C104.021 86.7565 105.263 86.023 105.537 85.0738C105.994 83.4957 106.408 81.9054 106.867 80.3279C106.964 79.9918 107.123 79.6461 107.344 79.3794C107.738 78.9042 108.401 79.0389 108.462 79.6376C108.538 80.3715 108.423 81.1259 108.38 81.8707C108.37 82.032 108.314 82.1906 108.289 82.3082C109.875 83.3296 111.558 83.8963 113.333 84.2674C115.032 84.6227 116.733 84.6193 118.419 84.3566C120.027 84.1063 121.574 83.587 123.015 82.8021C123.22 82.6907 123.41 82.5531 123.609 82.4322C124.402 81.9513 124.428 81.8477 123.62 81.3939C122.089 80.5351 120.472 79.8554 118.68 79.9377C117.897 79.9737 117.129 80.3056 116.347 80.4728C116.117 80.5222 115.743 80.561 115.649 80.4393C115.498 80.2434 115.419 79.8777 115.492 79.6398C116.519 76.2953 118.742 74.0296 122.081 73.1326C124.798 72.4025 127.57 72.6691 130.168 73.8814C131.102 74.3168 132.014 74.82 132.87 75.3912C133.964 76.1209 134.332 77.2961 134.035 78.5458C133.666 80.1006 132.73 81.2417 131.486 82.1788C131.28 82.334 131.12 82.5495 130.822 82.8571C132.209 83.3586 133.494 83.9716 134.848 84.2771C136.703 84.6956 138.395 84.0549 139.793 82.8241C140.064 82.5861 139.982 81.8803 139.96 81.3949C139.93 80.735 139.795 80.0803 139.715 79.4221C139.537 77.9553 139.36 76.4883 139.193 75.0202C139.052 73.784 138.949 72.5431 138.789 71.3095C138.547 69.4459 138.259 67.5884 138.014 65.7252C137.858 64.5351 137.764 63.3367 137.606 62.1468C137.41 60.6664 137.161 59.1929 136.963 57.7127C136.766 56.2487 136.625 54.7772 136.422 53.3141C136.238 51.9851 135.997 50.6641 135.793 49.3375C135.645 48.3679 135.509 47.3962 135.384 46.4234C135.198 44.987 134.532 43.73 133.866 42.4867C133.555 41.9045 133.705 41.4576 134.005 41.0085C134.664 40.0216 135.34 39.0439 136.05 38.093C136.221 37.8642 136.557 37.623 136.807 37.6331C136.997 37.6408 137.244 38.0107 137.34 38.2666C137.994 40.0078 139.032 41.5181 140.079 43.0343C141.104 44.517 141.008 44.7309 139.928 46.1029C139.678 46.4199 139.281 46.6205 139.03 46.9366C138.807 47.2166 138.542 47.5908 138.559 47.9096C138.613 48.932 138.791 49.9478 138.917 50.9666C139.054 52.0713 139.171 53.1786 139.324 54.2809C139.54 55.8442 139.781 57.4042 140.014 58.9652C140.175 60.0408 140.347 61.1147 140.501 62.1912C140.725 63.7557 140.952 65.3199 141.15 66.8878C141.269 67.8259 141.326 68.7715 141.425 69.7123C141.592 71.3124 141.779 72.9104 141.94 74.5111C142.009 75.1989 142.054 75.8905 142.076 76.5814C142.131 78.3007 142.257 80.0242 142.189 81.7394C142.103 83.8921 141.665 85.967 140.016 87.5629C138.704 88.8324 137.174 89.4887 135.313 89.5298C133.409 89.572 131.635 89.2828 130.148 88.0455C129.535 87.535 129.073 86.8422 128.544 86.2304C128.461 86.1341 128.397 86.0202 128.312 85.9262C127.328 84.8437 127.319 84.8311 126.056 85.5655C123.594 86.9968 120.978 88.0466 118.207 88.6829C117.376 88.8735 116.505 88.8883 115.653 88.9799C115.204 89.0281 114.754 89.1027 114.305 89.1063C111.779 89.1263 109.449 88.5372 107.522 86.8051C107.117 86.4419 107.005 86.672 106.856 87.0116C106.382 88.088 105.903 89.1622 105.416 90.2326C104.902 91.3607 102.855 92.0027 101.509 91.7825C99.8719 91.5147 98.6057 90.6806 97.3622 89.701C97.2059 89.5779 96.7471 89.5915 96.6141 89.7257C95.6572 90.6916 94.5351 91.3254 93.1511 91.6093Z" fill="white"/>
<path d="M388.402 83.7257C390.629 83.0002 392.802 82.2771 395.146 81.4968C389.026 78.7668 382.895 78.5207 376.71 79.8854C376.244 79.152 376.731 78.7159 376.98 78.2904C377.589 77.2502 378.259 76.2434 378.954 75.2579C379.136 74.9995 379.475 74.7639 379.782 74.6961C381.189 74.3847 382.601 74.0723 384.028 73.882C385.837 73.6406 387.661 73.5054 389.481 73.3496C390.025 73.3031 390.576 73.3518 391.123 73.3367C391.594 73.3237 392.064 73.282 392.665 73.2449C392.541 71.945 392.461 70.702 392.296 69.4702C392.133 68.2484 391.879 67.0389 391.674 65.8223C391.445 64.4579 391.239 63.0892 390.999 61.7267C390.711 60.0954 390.355 58.4751 390.107 56.8383C389.837 55.062 389.76 53.2516 389.407 51.4946C389.106 49.9967 388.583 48.5356 388.061 47.0933C387.799 46.3688 387.648 45.8496 388.202 45.1177C388.891 44.2079 389.301 43.0875 389.833 42.0589C389.911 41.9087 389.979 41.7489 390.083 41.6178C390.494 41.0954 390.846 41.1209 391.146 41.7243C391.408 42.2503 391.563 42.8343 391.858 43.3376C392.618 44.6314 393.419 45.9021 394.225 47.1676C394.867 48.1739 394.851 48.5211 394.005 49.5129C393.807 49.7454 393.608 50.0045 393.353 50.1565C392.619 50.5942 392.66 51.2762 392.746 51.9575C392.892 53.1212 393.079 54.2798 393.25 55.4404C393.461 56.8755 393.684 58.3091 393.882 59.746C394.037 60.8696 394.155 61.9983 394.304 63.1228C394.455 64.2655 394.628 65.4054 394.785 66.5474C394.893 67.3317 395.021 68.1151 395.082 68.9033C395.159 69.8974 395.261 70.9011 395.202 71.8916C395.117 73.2989 394.818 74.6695 393.794 75.7837C396.176 77.0351 398.701 77.8053 401.343 78.2004C403.243 78.4845 405.145 78.7711 407.054 78.9784C408.493 79.1346 409.946 79.1524 411.39 79.2617C411.982 79.3065 412.575 79.4014 413.155 79.5277C413.539 79.6111 413.735 79.8184 413.505 80.2801C412.999 81.2988 412.545 82.3437 412.076 83.3808C411.964 83.6291 411.88 83.8902 411.777 84.1432C411.664 84.422 411.52 84.5696 411.158 84.4808C408.852 83.9153 406.513 83.4981 404.136 83.7449C402.469 83.9179 400.81 84.2316 399.17 84.5892C395.014 85.4957 391.13 87.2125 387.147 88.6469C384.417 89.6304 381.58 90.3346 378.763 91.0529C377.734 91.3153 376.625 91.287 375.55 91.3405C373.383 91.4485 371.21 91.6372 369.045 91.5752C367.081 91.519 365.123 91.1903 363.166 90.952C361.152 90.7068 359.275 90.016 357.407 89.0766C357.19 89.538 356.967 89.9851 356.766 90.4416C355.7 92.8631 354.563 95.255 353.016 97.4076C351.159 99.9938 348.728 101.897 345.55 102.465C343.958 102.75 342.273 102.553 340.632 102.513C337.696 102.441 335.091 101.239 332.51 100.008C331.654 99.5994 330.857 99.0672 330.045 98.5721C329.635 98.3221 329.208 98.0338 329.411 97.4475C329.538 97.0775 330.271 96.8864 330.8 97.045C332.211 97.4678 333.609 97.9401 335.034 98.3051C337.09 98.8315 339.181 99.0542 341.299 98.7054C342.578 98.4949 343.917 98.4407 345.113 97.9997C346.38 97.5323 347.602 96.8127 348.679 95.9872C351.455 93.8575 353.19 90.9065 354.734 87.8349C354.751 87.7999 354.736 87.7485 354.736 87.7696C354.06 87.0672 353.33 86.4602 352.789 85.716C351.618 84.1043 351.609 82.3033 352.255 80.49C352.544 79.6788 352.935 78.8995 353.337 78.136C353.428 77.9625 353.759 77.8373 353.978 77.8393C354.102 77.8404 354.306 78.1338 354.333 78.316C354.694 80.8069 356.332 82.3268 358.378 83.4313C360.827 84.7537 363.484 85.4845 366.231 85.984C369.42 86.5639 372.626 86.563 375.825 86.4405C377.813 86.3644 379.804 85.9599 381.759 85.5376C383.901 85.0748 386.002 84.4225 388.12 83.8493C388.201 83.8275 388.272 83.7694 388.402 83.7257Z" fill="white"/>
<path d="M296.649 81.6204C294.046 81.9062 291.621 82.6525 289.252 83.5695C287.524 84.2382 285.82 84.9813 284.153 85.7895C282.96 86.3684 281.847 87.1129 280.695 87.7786C277.927 89.3779 275.109 90.9098 271.959 91.5718C269.397 92.1102 266.785 92.1141 264.311 91.0657C262.695 90.3809 261.467 89.179 260.51 87.7147C259.114 85.5775 258.296 83.2091 257.886 80.7101C257.519 78.4767 257.241 76.228 256.958 73.9817C256.672 71.7068 256.433 69.4258 256.163 67.1488C255.908 65.0016 255.651 62.8544 255.373 60.7101C255.035 58.1031 254.723 55.4911 254.307 52.8963C254.001 50.9934 253.557 49.1122 253.151 47.2263C252.886 45.9912 253.154 44.8083 253.478 43.6399C253.708 42.8113 254.03 42.0064 254.348 41.206C254.407 41.0589 254.649 40.8968 254.803 40.9002C254.961 40.9037 255.211 41.0724 255.255 41.2187C255.54 42.1656 255.842 43.1146 256.018 44.0849C256.288 45.5752 256.469 47.0822 256.673 48.5841C256.822 49.6872 256.94 50.7946 257.087 51.898C257.251 53.1254 257.447 54.3486 257.601 55.5772C257.754 56.7901 257.856 58.0094 258.009 59.2224C258.158 60.4085 258.353 61.5888 258.508 62.7743C258.66 63.9428 258.779 65.1156 258.927 66.2846C259.091 67.5779 259.282 68.8677 259.442 70.1615C259.59 71.3532 259.685 72.5519 259.85 73.7409C260.275 76.8032 260.486 79.9085 262.029 82.715C263.236 84.9129 265.123 86.0739 267.48 86.6096C268.018 86.7319 268.568 86.8368 269.118 86.8696C271.381 87.0045 273.503 86.3566 275.607 85.6347C278.495 84.6432 281.18 83.2408 283.738 81.5835C284.075 81.3652 284.423 81.1636 284.762 80.949C284.791 80.9309 284.794 80.8725 284.851 80.7237C283.797 80.4945 282.763 80.2511 281.722 80.0472C280.096 79.729 278.473 79.3781 276.833 79.1483C274.12 78.7679 271.406 78.7361 268.778 79.6688C268.294 79.8406 267.903 80.2602 267.442 80.5171C267.24 80.6299 266.935 80.7109 266.743 80.6364C266.617 80.5874 266.519 80.2145 266.562 80.0205C266.905 78.4635 267.43 76.9564 268.388 75.6764C269.027 74.8226 270.098 74.5856 271.095 74.4108C272.295 74.2003 273.519 74.1172 274.735 74.0002C276.233 73.8559 277.736 73.7571 279.232 73.5918C279.98 73.5092 280.086 73.2369 279.965 72.4041C279.841 71.5551 279.809 70.6928 279.685 69.844C279.463 68.327 279.21 66.8143 278.954 65.3026C278.684 63.7096 278.403 62.1183 278.112 60.5291C277.793 58.7958 277.456 57.066 277.129 55.3341C276.798 53.5818 276.432 51.8352 276.152 50.0747C275.818 47.9679 275.249 45.9717 274.113 44.1284C273.535 43.1902 273.308 43.177 274.221 41.9204C274.814 41.103 275.26 40.1802 275.808 39.3273C275.953 39.1 276.236 38.8058 276.443 38.8155C276.66 38.8257 276.916 39.1317 277.059 39.3669C277.691 40.413 278.257 41.4997 278.909 42.5328C279.35 43.2315 279.857 43.898 280.402 44.5192C280.919 45.1086 280.782 45.6578 280.439 46.2157C280.25 46.5233 280.028 46.8466 279.741 47.0508C278.66 47.8193 278.859 48.8438 279.071 49.9055C279.424 51.675 279.735 53.453 280.089 55.2224C280.48 57.176 280.907 59.1226 281.305 61.0747C281.695 62.986 282.113 64.8932 282.435 66.8162C282.616 67.8959 282.723 69.0068 282.692 70.0988C282.643 71.7984 282.45 73.494 282.31 75.1907C282.302 75.2879 282.227 75.3795 282.141 75.5645C283.04 75.7478 283.897 75.9728 284.77 76.0906C286.933 76.3828 289.102 76.6346 291.271 76.884C291.936 76.9604 292.607 76.9813 293.275 77.019C294.141 77.0677 295.007 77.1496 295.872 77.1427C297.548 77.1294 299.225 77.0774 300.9 77.0112C301.342 76.9937 301.778 76.8392 302.221 76.7989C302.485 76.775 302.757 76.8647 303.027 76.8792C303.452 76.9022 303.506 77.1241 303.379 77.4704C302.901 78.7722 302.434 80.078 301.935 81.372C301.889 81.4919 301.653 81.6112 301.508 81.6078C300.904 81.5938 300.302 81.492 299.699 81.4981C298.702 81.5082 297.706 81.5766 296.649 81.6204Z" fill="white"/>
<path d="M191.851 88.3575C191.709 86.5649 191.475 84.8124 191.532 83.0694C191.603 80.8558 192.237 78.7287 193.075 76.6764C193.495 75.6461 193.908 74.6088 194.405 73.6151C194.729 72.9675 195.537 72.815 196.238 73.1628C195.899 74.197 195.48 75.2169 195.235 76.2768C194.809 78.114 194.489 79.9756 194.128 81.8277C193.894 83.0282 193.974 84.2085 194.24 85.4054C194.558 86.8402 195.361 87.9441 196.445 88.8459C198.051 90.1814 199.813 91.3031 201.869 91.7713C203.299 92.0968 204.785 92.3911 206.238 92.3569C209.104 92.2893 211.846 91.5023 214.432 90.2625C215.915 89.5514 217.402 88.8133 218.77 87.9092C220.542 86.7378 222.206 85.4002 223.891 84.1009C224.085 83.9511 224.115 83.5884 224.221 83.3244C223.974 83.2383 223.715 83.0537 223.483 83.0836C222.578 83.2 221.687 83.4163 220.782 83.5374C218.199 83.8833 215.609 84.2263 213.059 83.3304C211.116 82.6479 209.705 81.4162 209.292 79.3283C209.055 78.133 209.122 76.8927 209.442 75.7148C210.548 71.6368 212.626 68.0298 215.12 64.6764C216.848 62.3518 219.212 60.8746 222.108 60.3292C224.748 59.8321 226.91 60.6982 228.682 62.6315C229.374 63.3871 229.268 64.3244 229.07 65.2384C228.869 66.1683 228.642 67.0926 228.424 68.0275C228.358 68.0466 228.295 68.0579 228.238 68.0824C227.334 68.4697 227.014 67.8413 226.55 67.2375C225.531 65.9123 223.873 65.2034 222.066 65.5356C219.871 65.9392 218.231 67.241 216.571 68.5679C214.489 70.2313 213.034 72.3808 211.799 74.6915C211.471 75.3057 211.089 76.0628 211.503 76.7292C211.854 77.2945 212.396 77.8367 212.983 78.1401C214.191 78.765 215.527 78.9826 216.891 79.1571C218.752 79.3952 220.512 78.9241 222.318 78.7557C223.275 78.6666 224.296 78.6844 225.215 78.9284C226.32 79.2217 226.857 80.236 226.952 81.3058C227.039 82.2811 226.875 83.2843 226.768 84.2695C226.651 85.3486 225.942 86.1676 225.334 86.9769C224.354 88.2816 223.336 89.5945 222.14 90.6932C219.038 93.5436 215.486 95.6537 211.328 96.5959C208.769 97.1757 206.16 97.4288 203.551 97.2346C200.919 97.0387 198.475 96.1708 196.289 94.6345C194.655 93.4863 193.277 92.1229 192.476 90.266C192.219 89.6708 192.08 89.0246 191.851 88.3575Z" fill="white"/>
<path d="M46.2192 78.6278C45.9356 76.4433 46.3406 74.4157 47.2154 72.4649C47.8458 71.0593 48.6312 69.7531 49.7133 68.6497C51.2981 67.0338 53.0484 67.2403 54.593 68.6145C56.5869 70.3885 57.7422 72.6758 58.5181 75.213C59.0481 76.9462 59.4009 78.6935 59.3946 80.4897C59.3807 84.4569 58.3411 88.1469 55.9954 91.374C54.7871 93.0364 53.4397 94.6102 52.0399 96.1171C50.7713 97.4829 49.0806 98.2396 47.2935 98.6892C45.6115 99.1124 43.9102 99.5113 42.1931 99.7274C40.6681 99.9194 39.0994 99.9783 37.5682 99.86C34.9882 99.6607 32.4215 99.2836 29.8525 98.9552C29.5532 98.917 29.2591 98.7401 28.9924 98.5783C28.8089 98.4669 28.52 98.2162 28.5524 98.1224C28.639 97.8719 28.8437 97.522 29.0545 97.4804C29.744 97.3443 30.4747 97.1976 31.1582 97.2893C33.3619 97.5849 35.5555 97.5875 37.7663 97.4069C39.5598 97.2604 41.2988 96.8888 42.9729 96.2667C45.423 95.3562 47.7043 94.1077 49.7696 92.4987C52.7965 90.1405 54.9203 87.0786 56.5311 83.6364C56.7379 83.1943 56.8397 82.7032 57.0299 82.1109C55.9962 82.25 55.1379 82.4186 54.2728 82.4691C53.0537 82.5402 51.8294 82.5193 50.6076 82.5463C49.6419 82.5676 48.7566 82.3257 47.9765 81.7504C46.9407 80.9866 46.3693 79.9568 46.2192 78.6278ZM54.2083 77.4145C54.6528 77.3654 55.0973 77.3162 55.5426 77.267C55.108 76.2083 53.3553 74.1113 52.3252 73.4159C51.6452 72.9569 51.1708 72.9204 50.5964 73.4324C49.9812 73.9807 49.4251 74.5505 49.2429 75.4631C49.117 76.0939 49.3557 76.4691 49.6993 76.8048C49.9525 77.0522 50.3611 77.1629 50.7187 77.2769C51.825 77.6294 52.9547 77.5803 54.2083 77.4145Z" fill="white"/>
<path d="M172.781 71.3895C174.563 71.2711 175.775 72.2468 176.757 73.4554C178.474 75.5674 179.547 78.0207 180.114 80.6819C180.54 82.683 180.535 84.6997 180.349 86.7374C180.151 88.9045 179.495 90.9271 178.568 92.8558C178.022 93.9919 177.316 95.0714 176.551 96.077C175.576 97.3587 174.512 98.5799 173.409 99.7545C172.048 101.204 170.248 101.944 168.392 102.503C167.06 102.904 165.689 103.186 164.325 103.472C163.678 103.608 163.007 103.671 162.345 103.692C161.251 103.727 160.155 103.732 159.061 103.695C156.292 103.603 153.536 103.383 150.824 102.78C150.302 102.664 149.703 102.423 149.749 101.876C149.8 101.263 150.449 101.181 151.003 101.206C152.865 101.289 154.728 101.466 156.589 101.449C160.685 101.413 164.505 100.372 168.039 98.2285C169.877 97.1133 171.682 95.9615 173.125 94.3762C175.101 92.205 176.852 89.8551 177.862 87.0459C177.981 86.7164 178.044 86.367 178.102 86.1427C175.896 86.2578 173.728 86.5271 171.575 86.443C168.995 86.3423 167.522 84.638 167.292 81.9665C167.048 79.1254 168.04 76.6726 169.457 74.3585C170.055 73.3823 170.742 72.3853 171.814 71.8037C172.104 71.6462 172.422 71.5384 172.781 71.3895ZM174.34 77.9362C174.123 77.7628 173.893 77.6028 173.691 77.4135C173.024 76.7895 172.543 76.7259 171.803 77.2003C171.113 77.6423 170.678 78.2597 170.451 79.0568C170.162 80.0704 170.515 80.8367 171.513 81.0848C173.25 81.5168 174.992 81.3945 176.902 81.0406C176.029 79.9759 175.219 78.9884 174.34 77.9362Z" fill="white"/>
<path d="M11.3056 86.729C10.8359 84.7611 10.6625 82.8434 10.8882 80.8658C11.164 78.4494 11.7448 76.117 12.4924 73.8169C12.6275 73.4013 12.7726 72.9445 13.0546 72.6361C13.2544 72.4177 13.7095 72.3143 14.017 72.3649C14.1612 72.3886 14.3583 72.9265 14.3012 73.1793C14.1398 73.8936 13.8721 74.5855 13.6232 75.278C12.987 77.0484 12.6195 78.8605 12.7506 80.751C12.8708 82.4851 13.6152 83.9803 14.6734 85.3001C16.2831 87.3079 18.5822 88.0863 21.002 88.4317C24.1411 88.8798 27.1861 88.3748 29.981 86.8515C31.2583 86.1553 32.5349 85.3431 33.5604 84.3291C34.8158 83.0877 35.9523 81.6611 36.395 79.8684C36.5 79.4434 36.4885 78.9296 36.3515 78.5159C35.9354 77.2596 35.4899 76.0061 34.9482 74.7999C34.1522 73.0273 33.2674 71.2945 32.41 69.5498C32.2332 69.1901 32.0512 68.8198 31.8006 68.5124C31.347 67.9561 31.3326 67.4104 31.52 66.7275C31.822 65.6266 31.9623 64.4822 32.2162 63.3666C32.2722 63.1204 32.544 62.7176 32.6701 62.7344C32.9658 62.7739 33.3456 62.9564 33.492 63.2005C34.0015 64.0502 34.4443 64.9418 34.8792 65.8337C35.7015 67.5197 36.6114 69.1751 37.2732 70.9233C37.7696 72.2346 38.0342 73.6581 38.2203 75.0558C38.4253 76.5949 38.5811 78.1728 38.4738 79.7139C38.3035 82.1618 38.0208 84.6632 36.5143 86.7182C35.3659 88.2848 33.834 89.499 32.1933 90.5676C30.0913 91.9366 27.8006 92.8588 25.3557 93.2792C23.7459 93.5561 22.073 93.6128 20.4367 93.5499C18.4544 93.4737 16.5218 92.9435 14.8507 91.8491C13.1081 90.7077 11.8397 89.1408 11.4281 87.0119C11.4126 86.9315 11.3492 86.8603 11.3056 86.729Z" fill="white"/>
<path d="M245.476 84.7363C246.041 84.5957 246.56 84.4929 247.077 84.3796C247.951 84.1881 248.303 83.7059 247.91 82.9239C247.136 81.3825 246.314 79.8529 245.368 78.4129C244.072 76.4406 242.325 74.9005 240.262 73.7431C239.735 73.4471 239.151 73.2506 238.684 73.0477C238.684 71.6387 238.675 70.25 238.691 68.8615C238.695 68.5331 239.478 68.0032 239.792 68.0961C241.932 68.7287 243.865 69.7078 245.229 71.5483C246.227 72.8954 247.296 74.2133 248.106 75.6706C249.148 77.5456 249.738 79.5876 249.887 81.7777C250.025 83.8135 249.982 85.8052 249.461 87.776C249.266 88.5119 248.796 88.9339 248.015 89.1314C245.685 89.7211 243.382 90.4195 241.052 91.0064C238.995 91.5243 236.891 91.7138 234.77 91.6012C234.059 91.5634 233.439 91.2824 233.321 90.4781C233.153 89.3374 232.985 88.1918 232.92 87.0425C232.879 86.3203 233.299 85.9819 233.939 86.2435C235.649 86.9427 237.303 86.4694 238.966 86.1357C241.125 85.7023 243.276 85.2267 245.476 84.7363Z" fill="white"/>
<path d="M335.978 72.5179C336.294 72.8346 336.585 73.1086 336.856 73.4012C337.582 74.1848 337.709 74.7903 337.189 75.6929C336.704 76.5343 336.158 77.3506 335.553 78.1099C335.07 78.7171 334.519 78.6157 334.063 77.9666C333.593 77.2978 333.26 76.5113 332.415 76.1718C331.881 75.9574 331.385 75.7069 330.818 76.0929C330.158 76.543 329.461 76.9401 328.808 77.4003C328.39 77.6949 328.402 78.1081 328.692 78.5022C329.962 80.228 331.627 81.3061 333.769 81.6232C336.021 81.9566 338.217 81.6568 340.398 81.1041C340.563 81.0623 340.747 81.0875 340.922 81.0966C341.234 81.1129 341.459 81.1736 341.216 81.566C340.541 82.6591 339.916 83.7849 339.19 84.8427C339.034 85.0702 338.546 85.1278 338.201 85.1588C336.048 85.3526 334.019 86.0329 332.034 86.8132C330.193 87.5373 328.412 88.4179 326.614 89.2498C326.137 89.4706 325.709 89.8013 325.229 90.012C324.981 90.1207 324.666 90.0767 324.381 90.1017C324.381 89.8669 324.325 89.615 324.391 89.4006C324.595 88.7369 324.833 88.0826 325.081 87.4338C325.416 86.5614 326.284 86.295 326.973 85.8393C327.516 85.4807 328.114 85.2073 328.712 84.8826C327.703 84.256 326.73 83.6497 325.755 83.0467C324.02 81.9737 323.831 80.0517 325.062 78.5127C325.879 77.4919 326.639 76.4033 327.582 75.5114C329.092 74.0825 330.55 72.5387 332.62 71.8604C333.847 71.4582 334.959 71.6182 335.978 72.5179Z" fill="white"/>
<path d="M312.193 87.4516C311.951 88.4497 311.767 89.4037 311.506 90.336C311.46 90.5001 311.095 90.6478 310.869 90.6613C310.735 90.6693 310.498 90.4211 310.457 90.2518C310.328 89.7172 310.22 89.1679 310.193 88.6199C310.121 87.1649 310.144 85.7042 310.04 84.2521C309.92 82.5835 309.704 80.9219 309.531 79.2571C309.44 78.3815 309.367 77.5038 309.26 76.6302C309.099 75.3153 308.912 74.0037 308.743 72.6897C308.604 71.6073 308.491 70.5213 308.34 69.4406C308.137 67.9836 307.894 66.5322 307.696 65.0746C307.54 63.9288 307.441 62.7754 307.288 61.629C307.086 60.1058 306.846 58.5876 306.644 57.0644C306.531 56.2137 306.462 55.3573 306.372 54.5035C306.198 52.8391 305.942 51.1778 305.877 49.5091C305.832 48.3578 305.974 47.1825 306.176 46.0434C306.332 45.163 306.685 44.3117 307.014 43.4723C307.083 43.2959 307.425 43.1526 307.65 43.1389C307.784 43.1307 308.034 43.3868 308.063 43.5537C308.229 44.4979 308.353 45.4497 308.473 46.4013C308.697 48.1848 308.911 49.9696 309.124 51.7544C309.263 52.9246 309.376 54.0981 309.531 55.2661C309.729 56.7678 309.965 58.2646 310.172 59.7652C310.318 60.8245 310.431 61.8883 310.581 62.9471C310.784 64.3825 311.018 65.8135 311.217 67.2495C311.372 68.3731 311.495 69.5012 311.629 70.6277C311.804 72.0948 311.986 73.5612 312.147 75.0299C312.217 75.6734 312.269 76.3213 312.282 76.9681C312.337 79.7818 312.388 82.5958 312.408 85.4099C312.413 86.0728 312.29 86.7366 312.193 87.4516Z" fill="white"/>
<path d="M150.063 59.856C149.88 58.5514 149.729 57.2985 149.571 56.0466C149.356 54.3497 149.076 52.6585 148.933 50.9557C148.775 49.0787 148.608 47.1848 148.699 45.3106C148.759 44.0736 149.245 42.8521 149.593 41.6386C149.663 41.394 149.967 41.2166 150.164 41.0082C150.318 41.2351 150.562 41.4441 150.612 41.6921C150.784 42.5448 150.901 43.4095 151.015 44.2727C151.199 45.6722 151.366 47.074 151.538 48.4751C151.673 49.5798 151.79 50.687 151.941 51.7895C152.143 53.2683 152.38 54.7425 152.584 56.221C152.734 57.3017 152.844 58.3876 152.992 59.4686C153.196 60.9694 153.43 62.4663 153.629 63.9678C153.784 65.1353 153.895 66.3084 154.043 67.4769C154.206 68.7697 154.404 70.0582 154.556 71.3521C154.672 72.3344 154.777 73.3207 154.822 74.3081C154.932 76.7596 155.125 79.2163 155.055 81.6642C154.995 83.7689 155.04 85.9177 154.305 87.9553C154.255 88.0933 154.231 88.2451 154.158 88.3692C153.871 88.8582 153.462 88.8532 153.212 88.3354C153.087 88.0766 153.014 87.7732 152.997 87.4854C152.933 86.3807 152.931 85.272 152.851 84.1688C152.698 82.0649 152.514 79.9632 152.331 77.8616C152.21 76.4705 152.098 75.0777 151.93 73.692C151.745 72.1672 151.496 70.6503 151.286 69.1286C151.101 67.7952 150.94 66.4587 150.752 65.1258C150.544 63.6479 150.313 62.1733 150.105 60.6955C150.069 60.4376 150.095 60.1709 150.063 59.856Z" fill="white"/>
<path d="M417.697 64.5346C417.959 66.653 418.242 68.7088 418.477 70.7701C418.644 72.2443 418.802 73.7234 418.868 75.2046C418.995 78.0721 419.126 80.943 419.117 83.812C419.111 85.6392 418.905 87.4745 418.218 89.2077C418.149 89.3831 418.072 89.5691 417.95 89.7072C417.599 90.1035 417.068 89.99 416.916 89.485C416.837 89.2239 416.789 88.9451 416.782 88.6728C416.728 86.8003 416.754 84.9231 416.628 83.0559C416.483 80.8931 416.207 78.7391 415.991 76.581C415.856 75.2346 415.748 73.8851 415.587 72.5419C415.445 71.356 415.233 70.1785 415.076 68.9943C414.965 68.1651 414.902 67.3297 414.803 66.4989C414.636 65.0967 414.451 63.6966 414.285 62.2942C414.184 61.4415 414.088 60.5876 414.021 59.7318C413.878 57.8818 413.703 56.032 413.638 54.1787C413.584 52.6208 414.143 51.1814 414.828 49.8105C414.951 49.5645 415.342 49.4206 415.639 49.321C415.697 49.3017 415.959 49.6913 416.018 49.9204C416.136 50.371 416.199 50.8391 416.247 51.3038C416.431 53.0989 416.597 54.8957 416.775 56.6913C416.902 57.9727 417.023 59.255 417.175 60.5335C417.331 61.8493 417.521 63.161 417.697 64.5346Z" fill="white"/>
<path d="M326.478 52.5751C327.125 50.378 328.346 48.6626 330.236 47.4447C331.189 46.8306 332.007 47.0254 332.93 47.6583C333.908 48.3284 334.264 49.4131 334.468 50.4687C334.855 52.474 334.646 54.4736 333.975 56.4466C334.407 56.7957 334.852 57.1591 335.302 57.5159C335.778 57.8938 335.895 58.4215 335.799 58.9639C335.678 59.6465 335.482 60.3183 335.279 60.983C335.09 61.6027 334.794 61.6826 334.308 61.241C333.82 60.7967 333.377 60.3023 332.898 59.8467C332.574 59.5382 332.33 59.5798 332.098 60.0091C330.659 62.673 328.57 64.6918 325.905 66.1119C324.229 67.0053 322.542 67.8785 320.841 68.7245C320.554 68.8674 320.171 68.8813 319.84 68.8562C319.405 68.8231 319.176 68.2567 319.514 67.9249C320.219 67.2311 320.978 66.5813 321.769 65.9861C324.376 64.0249 327.192 62.3343 329.507 59.9956C329.553 59.9489 329.601 59.9035 329.646 59.856C330.844 58.5978 330.819 58.5272 329.434 57.5671C328.509 56.9252 327.549 56.2933 326.765 55.4984C325.975 54.6984 326.079 53.6388 326.478 52.5751ZM330.966 50.3405C330.644 50.3311 330.193 50.1821 330.023 50.3385C329.526 50.7956 329.096 51.3448 328.728 51.9151C328.431 52.3762 328.643 52.7996 329.088 53.0974C329.457 53.344 329.818 53.6013 330.19 53.8421C330.826 54.2536 331.468 54.656 332.196 55.1184C332.411 53.2926 332.247 51.7142 330.966 50.3405Z" fill="white"/>
<path d="M378.226 47.3173C380 47.9944 380.331 49.5434 380.627 51.0955C380.966 52.8639 380.652 54.5807 380.169 56.2844C380.124 56.4449 380.272 56.7196 380.412 56.8596C380.617 57.0642 380.904 57.1844 381.142 57.359C381.978 57.9719 382.141 58.6802 381.742 59.9455C381.579 60.4635 381.403 60.9775 381.236 61.4846C380.753 61.5716 380.448 61.4667 380.155 61.0112C379.862 60.5565 379.368 60.2158 378.921 59.8809C378.476 59.5475 378.284 60.0261 378.164 60.2731C377.534 61.5715 376.652 62.6869 375.562 63.5911C374.354 64.5926 373.093 65.562 371.742 66.3491C370.088 67.3116 368.327 68.0918 366.585 68.8933C366.331 69.0104 365.93 68.8089 365.597 68.7548C365.674 68.4038 365.63 67.9133 365.847 67.7259C366.832 66.8784 367.89 66.1167 368.921 65.3238C371.118 63.6344 373.336 61.9701 375.498 60.2376C376.034 59.8086 376.392 59.1583 376.805 58.6431C375.555 57.6719 374.368 56.7145 373.142 55.8098C372.265 55.1622 372.193 54.242 372.381 53.3585C372.883 50.9948 374.168 49.0891 376.141 47.6881C376.729 47.2713 377.413 46.9866 378.226 47.3173ZM375.303 51.2646C375.193 51.4203 375.089 51.5805 374.972 51.7309C374.639 52.1604 374.719 52.6008 374.997 52.9951C375.118 53.1662 375.379 53.234 375.568 53.362C376.485 53.9839 377.398 54.6103 378.398 55.2931C378.398 54.4545 378.456 53.734 378.383 53.0269C378.292 52.1347 377.967 51.3088 377.324 50.6472C376.794 50.1023 376.569 50.0907 375.987 50.5852C375.768 50.7718 375.577 50.9916 375.303 51.2646Z" fill="white"/>
<path d="M62.1267 66.8751C63.4718 65.8547 64.7652 64.8451 66.0935 63.8836C68.1781 62.3747 70.325 60.9447 72.0736 59.0256C72.4325 58.6316 72.7463 58.1965 73.0242 57.8508C71.7163 56.8507 70.4051 55.905 69.162 54.8769C68.3809 54.2309 68.3994 53.2755 68.6408 52.4034C69.1272 50.6464 69.9277 49.0373 71.2683 47.7542C71.5905 47.4458 71.9595 47.1831 72.3224 46.9207C73.9452 45.7475 75.6463 46.9526 76.1678 48.398C76.5024 49.3253 76.837 50.3183 76.841 51.2832C76.8465 52.5917 76.5916 53.9128 76.3291 55.2042C76.2397 55.6439 76.2756 55.8924 76.5858 56.1497C76.6362 56.1914 76.6713 56.2589 76.7272 56.2855C78.0261 56.9038 78.1689 57.9556 77.8052 59.185C77.6386 59.7485 77.4359 60.3013 77.199 61.0107C76.8163 60.7117 76.4908 60.4893 76.2034 60.2252C75.7811 59.8371 75.3853 59.42 74.9797 59.0138C74.7381 58.7718 74.5948 58.8435 74.4613 59.1362C73.7305 60.739 72.569 62.0494 71.3423 63.2503C70.3996 64.1732 69.2234 64.8837 68.0787 65.5678C66.6662 66.4119 65.1887 67.1505 63.7169 67.8902C63.3332 68.083 62.8701 68.1738 62.4368 68.2001C61.6889 68.2456 61.5111 67.9311 61.853 67.2804C61.9213 67.1503 62.011 67.0315 62.1267 66.8751ZM73.1017 49.5529C72.9425 49.5137 72.7707 49.4152 72.6262 49.4458C72.0548 49.5666 71.0399 50.8108 70.9711 51.4062C70.925 51.8046 71.0251 52.1255 71.3577 52.3664C72.3703 53.1001 73.3806 53.8369 74.3959 54.5755C75.0841 53.3663 74.4641 50.8762 73.1017 49.5529Z" fill="white"/>
<path d="M96.9064 68.9762C95.6854 67.7908 96.0001 67.6704 94.8612 69.0875C94.3766 69.6904 93.8818 70.2872 93.3588 70.8565C92.8355 71.4262 92.314 71.4902 91.674 71.079C90.4202 70.2736 89.2015 69.4125 88.3604 68.1522C88.2143 67.9332 88.213 67.4554 88.3568 67.2361C88.7435 66.6463 89.2485 66.1346 89.6997 65.5863C90.0529 65.1572 90.4047 64.7265 90.7415 64.2845C91.2751 63.5843 91.7558 63.5744 92.3948 64.1841C93.0959 64.8531 93.8284 65.4928 94.588 66.0937C94.7248 66.202 95.1583 66.1544 95.285 66.0193C95.9308 65.3313 96.4885 64.5597 97.1427 63.8806C97.5268 63.4819 97.6723 62.7302 98.4505 62.8337C98.6441 62.8594 98.8697 62.9431 99.0029 63.0773C100.05 64.1323 101.115 65.1572 102.447 65.8654C102.932 66.1236 102.855 66.544 102.57 66.9049C101.814 67.8625 101.041 68.8073 100.259 69.7447C99.6718 70.4494 99.2333 70.4962 98.4287 69.9779C97.9312 69.6574 97.4372 69.3317 96.9064 68.9762Z" fill="white"/>
<path d="M356.669 48.8949C357.563 49.3376 357.598 49.3509 357.249 50.2583C356.986 50.942 356.623 51.5879 356.296 52.2459C356.249 52.3395 356.164 52.4491 356.073 52.4796C354.629 52.9615 353.787 54.373 352.364 54.8797C351.06 55.3436 349.759 55.8158 348.444 56.2454C347.766 56.4671 347.064 56.6256 346.364 56.7688C346.084 56.8262 345.676 56.8665 345.659 56.4346C345.648 56.1437 345.732 55.7296 345.933 55.5722C346.494 55.1308 347.122 54.7651 347.752 54.4216C349.309 53.5727 350.882 52.7537 352.448 51.9199C352.595 51.8416 352.732 51.7438 352.951 51.6064C351.047 50.6752 349.137 50.1104 347.131 50.6398C345.943 50.9534 344.846 51.6087 344.084 52.678C343.955 52.8584 343.673 52.9291 343.461 53.0505C343.373 52.7836 343.144 52.4679 343.217 52.2572C343.985 50.0493 345.218 48.2564 347.607 47.537C349.485 46.9716 351.294 47.26 353.104 47.8601C354.261 48.2438 355.444 48.5517 356.669 48.8949Z" fill="white"/>
<path d="M89.6951 42.0847C91.0125 41.4033 92.37 41.0187 93.7959 41.162C94.777 41.2606 95.7437 41.5496 96.703 41.8053C97.8832 42.1199 99.0519 42.4789 100.22 42.8366C101.137 43.1174 101.208 43.2343 100.909 44.0925C100.736 44.5871 100.525 45.0782 100.258 45.527C99.9746 46.0021 99.6296 46.3924 99.0731 46.6677C98.3614 47.0196 97.7757 47.6224 97.1257 48.1035C95.5596 49.2625 93.7094 49.7173 91.8743 50.2097C91.4064 50.3353 90.9478 50.4959 90.4797 50.6212C90.256 50.6811 89.9965 50.7735 89.796 50.7119C89.5483 50.6356 89.2494 50.4567 89.1548 50.2419C89.087 50.0878 89.2561 49.7219 89.4271 49.59C89.9452 49.1905 90.4948 48.8201 91.0698 48.508C92.7221 47.611 94.3938 46.7499 96.055 45.8693C96.2025 45.7912 96.329 45.6735 96.5289 45.5278C93.9724 44.3621 91.4757 43.7831 88.9605 45.3646C88.459 45.6799 88.1136 46.2347 87.6576 46.635C87.4812 46.7897 87.1973 46.8219 86.9625 46.9099C86.8961 46.6785 86.7147 46.4051 86.7815 46.2225C87.3017 44.7995 87.8998 43.416 89.2317 42.5225C89.3921 42.415 89.5122 42.2475 89.6951 42.0847Z" fill="white"/>
<path d="M25.7748 41.1409C28.0924 40.1735 30.3559 39.2033 32.6274 38.2519C32.8174 38.1723 33.0604 38.2194 33.2788 38.2076C33.2719 38.4242 33.3033 38.6503 33.252 38.8557C32.7984 40.6712 31.4942 41.6495 29.8569 42.3233C27.9886 43.0921 26.136 43.8991 24.2774 44.6912C21.915 45.698 19.5501 46.6988 17.1926 47.7169C15.4326 48.4771 13.6883 49.274 11.9244 50.0249C11.446 50.2286 10.925 50.3385 10.4161 50.4605C10.2953 50.4895 10.1446 50.3941 10.0114 50.357C10.1971 49.6789 10.2973 49.0238 10.5622 48.444C10.7524 48.0279 11.0922 47.5588 11.4867 47.3775C13.8197 46.3054 16.1885 45.3113 18.5448 44.2896C20.5158 43.435 22.4867 42.5801 24.4561 41.7219C24.8816 41.5365 25.3007 41.3364 25.7748 41.1409Z" fill="white"/>
<path d="M249.995 98.1805C252.017 97.2671 253.982 96.3478 255.96 95.4583C256.369 95.2748 256.827 95.2025 257.317 95.0634C257.453 96.1786 256.823 96.8718 256.385 97.6142C255.711 98.7586 254.418 99.0376 253.342 99.5773C251.65 100.426 249.889 101.134 248.164 101.918C244.616 103.529 241.076 105.156 237.523 106.756C237.211 106.897 236.832 106.886 236.484 106.946C236.516 106.638 236.538 106.329 236.582 106.022C236.622 105.75 236.678 105.48 236.739 105.211C236.983 104.144 237.772 103.623 238.703 103.22C240.518 102.434 242.327 101.633 244.132 100.824C246.073 99.9529 248.007 99.0654 249.995 98.1805Z" fill="white"/>
<path d="M123.236 99.8579C125.983 98.6559 128.686 97.4802 131.39 96.3072C131.987 96.0481 132.577 95.7666 133.191 95.554C133.725 95.3689 133.979 95.5663 133.777 96.0793C133.364 97.1258 133.057 98.314 131.958 98.8833C130.687 99.5414 129.361 100.093 128.049 100.671C126.374 101.41 124.689 102.128 123.009 102.856C120.383 103.995 117.76 105.142 115.126 106.264C114.787 106.408 114.393 106.422 114.02 106.497C113.828 104.897 114.828 103.426 116.398 102.783C118.17 102.057 119.915 101.266 121.674 100.508C122.176 100.291 122.686 100.092 123.236 99.8579Z" fill="white"/>
<path d="M172.085 56.2909C174.867 55.1172 177.606 53.9715 180.35 52.8393C180.762 52.6696 181.195 52.4197 181.68 52.813C181.07 54.5215 180.205 55.8785 178.326 56.5582C175.557 57.5599 172.878 58.809 170.154 59.9358C167.898 60.8689 165.634 61.781 163.37 62.6945C162.798 62.9254 162.214 63.1263 161.58 63.3614C161.53 61.656 162.426 60.2774 163.807 59.7058C166.433 58.6189 169.055 57.5226 171.68 56.4325C171.796 56.3841 171.922 56.3591 172.085 56.2909Z" fill="white"/>
<path d="M272.548 30.0663C267.39 32.3735 262.275 34.6551 257.153 36.9215C256.971 37.0019 256.722 36.9317 256.509 36.9317C256.317 35.6506 257.341 33.9675 258.478 33.5036C259.862 32.9392 261.213 32.2939 262.575 31.6776C265.915 30.1673 269.246 28.6388 272.596 27.1528C273.319 26.8319 274.108 26.6577 274.869 26.4223C274.922 26.4057 274.992 26.442 275.111 26.4644C274.826 28.067 274.074 29.3052 272.548 30.0663Z" fill="white"/>
<path d="M18.4027 58.3231C18.4992 58.0015 18.5279 57.6685 18.7076 57.4782C19.5622 56.5729 20.4556 55.7041 21.3401 54.8273C21.7696 54.4015 22.1914 54.4499 22.617 54.8713C23.5773 55.8221 24.5499 56.7618 25.5482 57.6722C26.1528 58.2235 26.1811 58.3784 25.6163 58.964C24.8902 59.7169 24.1889 60.4938 23.4591 61.2429C22.6418 62.0818 22.1343 62.1531 21.2824 61.4129C20.4725 60.7092 19.7427 59.912 18.9929 59.1411C18.7703 58.9123 18.5992 58.6334 18.4027 58.3231Z" fill="white"/>
<path d="M398.255 96.0791C398.59 96.3599 399.132 96.6663 399.104 96.9058C399.062 97.2583 398.632 97.5798 398.337 97.8849C397.668 98.5755 396.98 99.2478 396.301 99.9277C395.686 100.543 395.001 100.679 394.388 100.117C393.411 99.2217 392.523 98.2287 391.611 97.2642C391.251 96.8827 391.306 96.5023 391.679 96.1351C392.582 95.2468 393.47 94.3435 394.37 93.4523C394.792 93.0345 395.367 93.0937 395.769 93.5275C396.568 94.3888 397.392 95.227 398.255 96.0791Z" fill="white"/>
<path d="M350.239 69.0366C349.612 68.3241 349.033 67.6313 348.418 66.9708C348.029 66.5521 348.217 66.1604 348.493 65.8684C349.406 64.8995 350.363 63.9706 351.313 63.037C351.686 62.6709 352.166 62.7471 352.533 63.1779C353.119 63.8645 353.699 64.5583 354.318 65.2151C354.669 65.5884 355.061 65.9433 355.492 66.217C355.935 66.4987 355.916 66.8147 355.632 67.1117C354.681 68.1048 353.735 69.1115 352.695 70.0058C352.436 70.228 351.777 70.1751 351.399 70.017C350.967 69.8363 350.643 69.397 350.239 69.0366Z" fill="white"/>
<path d="M96.9053 60.3549C96.513 60.7918 96.0825 61.1537 95.8155 61.611C95.4527 62.2325 94.9424 62.1496 94.4913 61.9376C93.0642 61.2667 91.9538 60.1697 90.9199 59.0135C90.5585 58.6093 90.9029 58.1539 91.1824 57.8107C91.9015 56.9279 92.6426 56.0625 93.3902 55.2035C93.8928 54.6259 94.267 54.6125 94.7899 55.1706C95.7815 56.2289 96.8666 57.1595 98.1623 57.8323C98.7689 58.1473 98.3825 58.5217 98.1573 58.8265C97.7757 59.343 97.3482 59.8255 96.9053 60.3549Z" fill="white"/>
</svg>
