<svg width="429" height="143" viewBox="0 0 429 143" fill="none" xmlns="http://www.w3.org/2000/svg">
<path d="M85.5637 91.0801C86.0675 89.9863 86.5667 88.9426 87.0645 87.9019C86.9603 87.8446 86.9116 87.7978 86.8887 87.8081C85.3175 88.5155 85.0573 87.8205 84.3915 86.3131C84.1547 85.7769 84.0664 85.1761 83.8409 84.6337C83.5948 84.0414 83.7955 83.6577 84.3262 83.4543C85.3075 83.0783 86.3085 82.7535 87.3027 82.4116C89.4719 81.6656 91.6575 80.9638 93.8066 80.1639C95.4044 79.5693 96.9415 78.8125 98.5328 78.1983C99.4685 77.8371 100.019 78.0625 99.9 79.0523C99.8158 79.7539 99.8276 80.4669 99.7934 81.2453C101.17 81.5858 102.545 82.0466 103.956 82.2451C105.868 82.5141 107.774 82.5235 109.458 81.2409C110.975 80.0854 112.12 78.6877 112.777 76.8923C112.922 76.4979 113.074 76.0918 113.31 75.7512C113.451 75.547 113.761 75.4596 113.995 75.3196C114.111 75.5809 114.367 75.87 114.321 76.099C114.04 77.5076 113.714 78.9087 113.351 80.2986C113.243 80.7134 113.345 80.9171 113.707 81.0391C114.943 81.4553 116.157 81.9857 117.426 82.2332C118.261 82.3961 119.031 81.8148 119.34 81.0043C119.81 79.7703 120.138 78.4818 120.524 77.2158C120.702 76.6342 120.833 76.0338 121.07 75.4777C121.153 75.281 121.524 75.0449 121.697 75.0887C121.911 75.1432 122.204 75.4671 122.207 75.6785C122.22 76.5023 122.131 77.3277 122.077 78.2023C126.267 81.119 132.9 81.1751 137.764 77.8623C136.799 77.0871 135.711 76.5875 134.561 76.2481C133.852 76.0392 133.1 75.8556 132.372 75.8698C131.65 75.8839 130.936 76.1703 130.214 76.3177C129.891 76.3837 129.558 76.4019 129.23 76.4418C129.208 76.0946 129.101 75.7272 129.178 75.4037C129.601 73.6304 130.773 72.3678 132.071 71.1701C133.118 70.2051 134.301 69.5742 135.676 69.2572C137.125 68.9232 138.586 68.8765 140.041 69.1255C140.952 69.2813 141.883 69.463 142.73 69.8136C143.832 70.2698 144.919 70.8174 145.905 71.4852C147.184 72.3521 147.227 73.9831 146.634 75.3926C146.023 76.8479 144.99 77.6541 143.801 78.5401C145.493 79.5412 147.223 80.3409 149.235 80.1669C150.389 80.0671 151.441 79.6252 152.399 78.9815C152.846 78.6813 152.906 78.2059 152.855 77.7094C152.725 76.45 152.607 75.1893 152.459 73.9321C152.31 72.658 152.124 71.3881 151.964 70.1152C151.859 69.286 151.781 68.4533 151.672 67.6246C151.464 66.0357 151.237 64.4493 151.03 62.8602C150.883 61.7346 150.769 60.6048 150.62 59.4797C150.468 58.3374 150.283 57.1997 150.128 56.0578C149.976 54.9339 149.852 53.8063 149.701 52.6822C149.5 51.1792 149.281 49.6786 149.077 48.1759C148.928 47.0737 148.843 45.9602 148.638 44.869C148.42 43.7106 148.134 42.5603 147.799 41.4301C147.591 40.7291 147.252 40.0638 146.939 39.3983C146.697 38.8846 146.858 38.4411 147.118 38.019C147.706 37.0655 148.303 36.1166 148.93 35.1888C149.073 34.9776 149.349 34.745 149.572 34.7362C149.741 34.7295 149.978 35.0345 150.091 35.25C151.042 37.0697 151.966 38.9008 153.308 40.4841C153.833 41.1043 153.763 41.8293 153.185 42.4501C152.749 42.9184 152.244 43.327 151.844 43.8222C151.622 44.0977 151.413 44.5059 151.437 44.8369C151.519 45.9648 151.698 47.0863 151.858 48.2075C152.003 49.2201 152.173 50.2293 152.332 51.2399C152.544 52.5868 152.768 53.932 152.967 55.281C153.163 56.6127 153.333 57.9482 153.515 59.2819C153.688 60.552 153.879 61.8201 154.032 63.0928C154.147 64.0534 154.205 65.0208 154.306 65.9833C154.471 67.5618 154.658 69.1381 154.822 70.7167C154.887 71.3392 154.936 71.9648 154.956 72.5901C155.012 74.3096 155.146 76.0342 155.067 77.7483C154.968 79.8704 154.411 81.8542 152.752 83.3842C151.502 84.5379 150.047 85.0887 148.372 85.1738C146.684 85.2595 145.119 84.9698 143.679 84.0043C142.812 83.4233 142.329 82.551 141.692 81.7939C141.39 81.4358 141.128 81.0423 140.806 80.7048C140.726 80.6211 140.443 80.6271 140.322 80.7025C138.162 82.0484 135.893 83.1763 133.444 83.867C132.122 84.2397 130.737 84.3884 129.382 84.6464C127.674 84.9717 126.001 84.7497 124.373 84.2336C123.217 83.8669 122.162 83.268 121.262 82.4291C121.175 82.3481 121.05 82.3073 120.955 82.2544C120.474 83.3349 120.036 84.395 119.537 85.4256C118.653 87.2524 116.954 87.599 115.313 87.3583C113.832 87.1409 112.649 86.3015 111.573 85.3277C111.205 84.9949 111 84.9894 110.678 85.344C109.276 86.8886 107.47 87.4297 105.458 87.2572C103.577 87.0959 101.856 86.3763 100.233 85.4377C99.5194 85.0253 98.7983 84.6071 98.1596 84.0936C97.8251 83.8247 97.5766 83.9163 97.3058 84.0287C95.905 84.6103 94.522 85.2351 93.1159 85.803C92.2575 86.1497 91.3627 86.4051 90.4984 86.7385C90.308 86.8119 90.095 87.0144 90.0327 87.2037C89.446 88.9843 88.9211 90.7854 88.3176 92.56C87.4195 95.2008 86.342 97.7735 84.8894 100.158C83.8568 101.854 82.3471 103.101 80.6276 104.08C78.9964 105.008 77.2462 105.446 75.3587 105.564C71.5148 105.804 67.8492 105.138 64.323 103.658C63.0615 103.129 61.8534 102.471 60.6277 101.859C60.4409 101.765 60.2807 101.609 60.1265 101.462C59.7781 101.13 59.9471 100.89 60.2693 100.66C61.0014 100.137 61.7211 100.468 62.3987 100.735C64.5169 101.567 66.6915 102.02 68.9734 102.15C71.5327 102.296 73.9851 101.917 76.3683 101.061C77.6575 100.597 78.7387 99.7801 79.8406 98.9393C81.2124 97.8926 82.1963 96.5765 83.1447 95.2232C84.051 93.93 84.7622 92.5 85.5637 91.0801Z" fill="white"/>
<path d="M394.54 75.1801C395.325 75.2677 396.046 75.368 396.769 75.4396C397.596 75.5214 397.817 75.8906 397.453 76.6471C396.94 77.7136 396.379 78.7593 395.923 79.8492C395.718 80.3396 395.401 80.3689 395.022 80.2972C393.919 80.0887 392.832 79.7378 391.721 79.6425C390.345 79.5244 388.947 79.5393 387.565 79.624C386.51 79.6887 385.446 79.8732 384.422 80.1426C382.547 80.6356 380.684 81.183 378.846 81.797C377.071 82.3901 375.339 83.1122 373.578 83.7485C370.563 84.8376 367.537 85.9064 364.371 86.4743C363.026 86.7155 361.664 86.8927 360.302 86.9953C358.4 87.1384 356.489 87.2751 354.585 87.2443C352.958 87.218 351.335 86.9547 349.711 86.7906C347.374 86.5544 345.169 85.8467 343.026 84.8623C342.274 86.3918 341.589 87.9093 340.796 89.3689C339.698 91.3925 338.592 93.4295 336.832 94.9852C335.202 96.4263 333.374 97.4536 331.17 97.8069C329.229 98.118 327.341 97.9285 325.417 97.6827C323.149 97.3928 321.1 96.5293 319.081 95.562C318.038 95.0618 317.048 94.4412 316.068 93.8219C315.85 93.6843 315.602 93.2516 315.673 93.082C315.775 92.8369 316.138 92.6043 316.422 92.5554C316.784 92.4931 317.214 92.5357 317.554 92.678C319.504 93.4947 321.554 93.9452 323.628 94.2013C324.821 94.3486 326.066 94.2368 327.268 94.0881C328.589 93.9248 329.889 93.5949 331.194 93.3192C332.391 93.0664 333.351 92.3497 334.279 91.6186C336.713 89.7016 338.473 87.2464 339.843 84.4909C340.002 84.1708 340.2 83.8703 340.417 83.4977C339.85 82.9453 339.23 82.4185 338.701 81.8125C337.382 80.3014 337.25 78.531 337.826 76.7088C338.109 75.8147 338.598 74.9813 339.042 74.1466C339.126 73.9897 339.444 73.8846 339.649 73.8923C339.777 73.8972 339.985 74.1471 340.004 74.3058C340.288 76.6075 341.744 77.9627 343.649 79.035C346.096 80.412 348.746 81.1712 351.46 81.7288C352.673 81.978 353.927 82.0524 355.167 82.1356C356.511 82.2257 357.865 82.3198 359.207 82.2542C360.657 82.1832 362.111 81.9973 363.541 81.7403C365.918 81.3131 368.309 80.905 370.636 80.2749C373.194 79.5823 375.687 78.6493 378.206 77.817C378.617 77.6815 379.021 77.5252 379.457 77.2209C378.487 76.8911 377.53 76.5133 376.544 76.243C375.139 75.8578 373.725 75.4639 372.289 75.2387C371.097 75.0517 369.867 75.0705 368.654 75.0559C366.584 75.0311 364.532 75.2005 362.511 75.6868C362.246 75.7504 361.934 75.6143 361.644 75.5706C361.683 75.3114 361.652 75.0111 361.774 74.7999C362.376 73.76 363.056 72.7645 363.633 71.7119C364.019 71.0081 364.67 70.7184 365.334 70.6048C367.269 70.2737 369.219 70.0144 371.171 69.8029C372.907 69.6149 374.653 69.513 376.396 69.4066C376.902 69.3757 377.158 69.2303 377.087 68.6826C376.875 67.0711 376.697 65.455 376.467 63.8463C376.262 62.4135 376.01 60.9872 375.768 59.5599C375.537 58.1973 375.283 56.8385 375.055 55.4755C374.802 53.9633 374.52 52.4539 374.334 50.933C374.028 48.4224 373.769 45.9053 372.533 43.6318C372.269 43.1463 372.37 42.7553 372.61 42.3204C373.2 41.2507 373.767 40.1685 374.35 39.0948C374.441 38.9277 374.548 38.7622 374.678 38.625C375.076 38.2051 375.563 38.2556 375.762 38.7831C376.459 40.6348 377.394 42.3606 378.56 43.9476C379.01 44.5598 379.364 45.1171 378.884 45.805C378.589 46.229 378.194 46.6031 377.785 46.9244C377.13 47.439 377.153 48.1184 377.241 48.8118C377.387 49.954 377.573 51.091 377.741 52.2304C377.955 53.687 378.178 55.1423 378.378 56.6009C378.531 57.725 378.648 58.8542 378.794 59.9793C378.949 61.1654 379.14 62.3471 379.278 63.5349C379.505 65.4839 379.853 67.4463 379.423 69.3948C379.233 70.2599 378.759 71.0626 378.401 71.9246C383.354 74.5638 388.946 74.7262 394.54 75.1801Z" fill="white"/>
<path d="M278.207 86.3905C277.347 85.974 276.518 85.6109 275.715 85.1974C275.345 85.007 275.115 85.049 274.828 85.3498C273.312 86.938 271.385 87.7869 269.3 88.32C267.417 88.8014 265.535 89.2932 263.637 89.7025C262.388 89.9716 261.102 90.0617 259.848 90.3048C257.965 90.6696 256.068 90.7275 254.162 90.6888C251.526 90.6354 249.075 89.8894 246.915 88.4161C244.609 86.8425 243.199 84.6044 242.766 81.8165C242.585 80.6534 242.464 79.4787 242.373 78.3048C242.287 77.2016 242.283 76.0923 242.231 74.9862C242.149 73.2549 242.065 71.5236 241.967 69.7931C241.892 68.4776 241.807 67.1623 241.704 65.8487C241.54 63.7658 241.353 61.6848 241.184 59.6024C241.088 58.4198 241.045 57.2317 240.909 56.0539C240.699 54.2295 240.464 52.4067 240.179 50.5925C239.759 47.9168 239.57 45.2655 240.662 42.6886C240.735 42.5153 240.836 42.3292 240.977 42.2139C241.269 41.9748 241.587 41.9077 241.701 42.3899C241.896 43.2126 242.089 44.038 242.226 44.8715C242.464 46.3241 242.672 47.7821 242.867 49.2412C242.987 50.1345 243.057 51.0344 243.153 51.9311C243.326 53.5525 243.507 55.1731 243.672 56.7953C243.735 57.4178 243.757 58.0445 243.811 58.6681C243.982 60.6407 244.161 62.6125 244.332 64.585C244.386 65.2087 244.43 65.8335 244.465 66.4585C244.557 68.0578 244.617 69.6593 244.736 71.2566C244.886 73.2739 244.949 75.3104 245.292 77.2969C245.639 79.3056 246.305 81.2639 247.877 82.7176C249.034 83.7881 250.459 84.3888 251.972 84.7671C254.352 85.3627 256.787 85.5965 259.221 85.4032C261.365 85.2329 263.512 84.9263 265.616 84.4807C268.214 83.9303 270.759 83.1281 273.119 81.8723C274.606 81.0813 275.88 80.0071 276.954 78.6915C277.159 78.4408 277.637 78.2074 277.919 78.2714C278.396 78.3797 278.315 78.9286 278.222 79.2796C277.956 80.274 277.614 81.2478 277.305 82.2198C278.171 82.2806 279.086 82.3496 280.001 82.4076C280.8 82.4582 281.602 82.4713 282.399 82.5464C283.587 82.6583 283.93 82.2281 284.002 81.0089C284.046 80.2759 283.852 79.5246 283.731 78.7868C283.492 77.3172 283.23 75.8511 282.977 74.3838C282.734 72.9797 282.489 71.5759 282.246 70.1718C282.007 68.7884 281.771 67.4044 281.531 66.0213C281.21 64.1779 280.891 62.3343 280.564 60.4921C280.278 58.8807 279.98 57.2715 279.692 55.6605C279.494 54.5515 279.294 53.4426 279.114 52.3305C278.984 51.5296 278.794 50.7234 278.795 49.9197C278.797 48.6742 278.138 47.7044 277.648 46.6568C277.16 45.6144 277.141 44.6087 277.849 43.6452C278.251 43.0973 278.654 42.5486 279.034 41.9851C279.293 41.6015 279.513 41.1918 279.762 40.7733C280.314 40.592 280.583 40.9365 280.736 41.4059C281.234 42.9335 282.051 44.2859 283.001 45.5632C283.791 46.6248 283.825 47.3695 283.079 48.4602C282.767 48.9156 282.432 49.355 282.125 49.8138C281.655 50.5167 281.782 51.2785 281.928 52.0426C282.412 54.5873 282.888 57.1336 283.372 59.6783C283.805 61.9512 284.266 64.2191 284.675 66.4962C285.056 68.6114 285.399 70.7338 285.732 72.8571C285.935 74.1439 286.155 75.4335 286.249 76.7305C286.448 79.4664 285.817 82.0772 284.893 84.6299C284.729 85.0848 284.581 85.546 284.411 85.9986C284.024 87.0249 283 87.5285 281.698 87.2604C280.54 87.0221 279.399 86.7054 278.207 86.3905Z" fill="white"/>
<path d="M224.21 95.2873C222.184 95.941 220.183 96.44 218.122 96.7599C215.525 97.163 213.005 96.914 210.465 96.3645C208.191 95.8725 206.253 94.8443 204.452 93.3715C202.352 91.6542 201.516 89.3883 201.094 86.8598C200.802 85.1125 201.049 83.4016 201.317 81.6668C201.748 78.8777 202.871 76.3704 204.157 73.9118C204.47 73.3136 204.844 72.7451 205.225 72.1864C205.35 72.0027 205.565 71.8293 205.774 71.768C205.98 71.7072 206.252 71.7472 206.45 71.8401C206.52 71.873 206.508 72.2136 206.443 72.3778C205.8 74.001 205.093 75.6005 204.494 77.2392C203.956 78.7087 203.592 80.2365 203.73 81.8212C203.9 83.7779 204.272 85.6736 205.416 87.3507C206.318 88.6724 207.571 89.4999 209.025 90.0162C210.53 90.5504 212.05 91.1563 213.614 91.3825C215.309 91.6278 217.072 91.5875 218.788 91.4545C220.258 91.3407 221.783 91.1216 223.142 90.5876C225.153 89.7977 227.084 88.7693 228.961 87.6885C230.462 86.8236 231.843 85.7448 233.254 84.7284C233.742 84.3771 234.159 83.9279 234.658 83.4779C234.142 82.8367 233.378 82.6749 232.689 82.4167C230.455 81.5794 228.14 81.0732 225.767 80.832C224.443 80.6973 223.119 80.5542 221.792 80.4438C221.163 80.3914 220.897 80.0517 221.103 79.4423C221.393 78.5864 221.69 77.7325 222.005 76.8859C222.047 76.7745 222.207 76.6626 222.332 76.6337C224.95 76.0262 227.443 75.0503 229.888 73.9669C230.592 73.655 231.528 73.3268 231.503 72.289C231.489 71.722 231.398 71.0828 231.116 70.6101C230.251 69.1566 229.31 67.7448 228.336 66.3612C227.599 65.3157 226.761 64.3429 225.985 63.3245C225.891 63.2012 225.848 62.9826 225.88 62.8287C226.238 61.1082 226.61 59.3908 226.995 57.6762C227.026 57.5391 227.186 57.3238 227.278 57.3279C227.538 57.3397 227.884 57.364 228.035 57.53C228.655 58.2089 229.265 58.908 229.786 59.6636C230.711 61.004 231.644 62.3484 232.436 63.7679C233.811 66.2345 234.062 68.9609 233.785 71.7C233.609 73.4319 233.1 75.13 232.731 76.888C233.215 77.0351 233.884 77.2385 234.554 77.442C236.129 77.9207 236.813 79.2011 237.218 80.6137C237.915 83.0494 237.232 85.2288 235.695 87.1672C233.702 89.6807 231.171 91.5531 228.41 93.1242C227.056 93.8945 225.647 94.5678 224.21 95.2873Z" fill="white"/>
<path d="M188.181 91.9691C187.037 93.5891 185.725 94.9936 184.207 96.1853C183.189 96.9845 181.987 97.4464 180.752 97.8489C179.008 98.4177 177.236 98.8652 175.411 98.9492C173.444 99.0396 171.462 99.0721 169.499 98.9407C167.544 98.8097 165.602 98.4559 163.659 98.1694C163.338 98.1221 163.023 97.9475 162.738 97.7776C162.571 97.6785 162.332 97.4267 162.366 97.323C162.44 97.0989 162.653 96.7771 162.837 96.7578C163.623 96.6755 164.419 96.6668 165.211 96.6714C166.957 96.6814 168.709 96.8081 170.449 96.7113C171.888 96.6313 173.321 96.344 174.741 96.0671C176.5 95.7239 178.098 94.9162 179.634 94.0393C180.919 93.3063 182.189 92.4972 183.307 91.5366C184.544 90.4732 185.724 89.2925 186.702 87.9918C187.76 86.5839 188.575 84.9897 189.453 83.4523C189.708 83.0052 189.816 82.4741 190.046 81.8303C189.206 81.9257 188.512 82.0111 187.817 82.0821C186.016 82.2662 184.194 82.5242 182.425 81.9935C180.759 81.494 179.826 80.2911 179.531 78.5592C179.156 76.3638 179.651 74.3431 180.553 72.3561C181.147 71.0471 181.887 69.8491 182.847 68.7921C184.396 67.0864 186.149 67.2901 187.709 68.7088C190.138 70.9168 191.421 73.7563 192.013 76.9285C192.221 78.0412 192.423 79.1837 192.392 80.3063C192.319 83.0205 191.939 85.701 190.585 88.1208C189.855 89.4257 189.009 90.6655 188.181 91.9691ZM182.948 74.2061C182.898 74.2979 182.85 74.3911 182.797 74.4813C182.108 75.6559 182.602 76.7225 183.927 77.0552C185.501 77.4505 187.033 77.2009 188.587 77.1234C188.595 77.0229 188.629 76.9396 188.601 76.8959C187.709 75.5027 186.725 74.1816 185.345 73.2332C185.067 73.0422 184.549 72.9058 184.295 73.0382C183.81 73.291 183.436 73.7555 182.948 74.2061Z" fill="white"/>
<path d="M64.2984 93.6235C62.7836 94.088 61.3221 94.5857 59.8242 94.9206C58.7638 95.1577 57.6565 95.2147 56.5658 95.2776C55.5836 95.3343 54.5894 95.3603 53.6112 95.2758C51.0246 95.0524 48.4429 94.7698 45.8619 94.4862C45.5822 94.4555 45.2796 94.3136 45.0614 94.1337C44.8445 93.9548 44.544 93.6085 44.5979 93.4335C44.6777 93.1747 45.0366 92.8256 45.2795 92.8234C46.4254 92.8131 47.5717 92.933 48.719 92.9586C50.0176 92.9874 51.3204 93.0202 52.6155 92.9479C53.6558 92.8898 54.6873 92.6761 55.723 92.5336C57.6349 92.2706 59.3662 91.4946 61.0758 90.655C63.5805 89.425 65.8682 87.8732 67.6757 85.7402C69.4426 83.6554 71.1282 81.4875 71.9067 78.7874C71.9808 78.5304 72.0086 78.2601 72.0701 77.9306C69.8396 78.4138 67.6666 78.629 65.5005 78.4364C63.5412 78.2623 62.0219 77.0461 61.6421 74.8217C61.1639 72.0213 62.0234 69.5366 63.409 67.1607C64.0802 66.0099 64.8916 65.012 65.961 64.1989C66.8302 63.538 68.4272 63.5553 69.3791 64.4495C71.8635 66.7833 73.3623 69.6655 73.9788 72.9905C74.2244 74.3152 74.3992 75.6824 74.3636 77.0238C74.2801 80.1671 73.4108 83.0969 71.8403 85.8587C70.6618 87.9312 69.1694 89.7165 67.5452 91.4202C66.6356 92.3745 65.5519 93.0811 64.2984 93.6235ZM70.5313 72.8283C69.7922 71.915 69.1021 70.9561 68.3025 70.0993C67.1152 68.8271 66.425 68.8783 65.3085 70.136C65.2796 70.1685 65.2437 70.195 65.2154 70.228C64.1105 71.5155 64.5688 73.0133 66.2057 73.3296C67.6955 73.6175 69.1973 73.5214 70.7376 73.3098C70.6709 73.1475 70.6243 73.0344 70.5313 72.8283Z" fill="white"/>
<path d="M39.939 84.2491C42.2727 84.0891 44.4064 83.5229 46.4017 82.3681C47.7202 81.605 48.9116 80.7202 49.9227 79.5958C50.8794 78.5318 51.6271 77.3265 52.104 75.9729C52.4037 75.1222 52.0548 74.3037 51.7477 73.5581C50.8496 71.3776 49.8824 69.2241 48.885 67.0867C48.4493 66.153 47.8651 65.2894 47.3694 64.3825C47.2616 64.1853 47.158 63.9215 47.1989 63.7177C47.4776 62.3287 47.7802 60.944 48.1086 59.5659C48.2275 59.067 48.6278 58.9681 49.0005 59.3221C49.2316 59.5416 49.4678 59.7868 49.6071 60.0674C50.9005 62.6722 52.485 65.1508 53.2868 67.9723C53.6565 69.2734 53.8079 70.6399 54.0106 71.9839C54.1449 72.8745 54.3138 73.7858 54.255 74.6737C54.1594 76.1178 53.9478 77.5616 53.6731 78.9839C53.4991 79.8847 53.2829 80.8501 52.7981 81.6009C52.0817 82.7101 51.2264 83.7947 50.217 84.633C48.9561 85.6802 47.5293 86.5603 46.0819 87.3415C44.3837 88.2581 42.5344 88.8111 40.5908 88.983C39.7357 89.0587 38.8764 89.268 38.0297 89.2215C35.9282 89.106 33.8286 88.9201 31.8985 87.9299C29.692 86.798 28.3687 84.993 27.7323 82.6321C27.2448 80.8238 27.0401 78.9691 27.239 77.1256C27.4203 75.4464 27.8195 73.7832 28.2266 72.1387C28.4921 71.066 28.913 70.0268 29.3338 69.0011C29.4302 68.7662 29.7961 68.5412 30.067 68.4993C30.6373 68.4111 30.8492 68.7326 30.6753 69.2873C30.2601 70.6119 29.8215 71.9297 29.4347 73.2625C28.5517 76.3053 29.1672 79.016 31.2556 81.4104C32.1158 82.3966 33.2073 82.9611 34.3803 83.4797C36.1555 84.2646 38.001 84.3028 39.939 84.2491Z" fill="white"/>
<path d="M314.599 80.9357C314.717 80.8732 314.792 80.8351 314.943 80.7578C314.591 80.5159 314.278 80.2876 313.952 80.0794C313.169 79.5792 312.365 79.1098 311.598 78.587C310.98 78.1661 310.193 76.632 310.851 75.5013C311.456 74.4632 312.12 73.4294 312.924 72.5449C314.328 71.0003 315.838 69.5577 317.69 68.5117C319.833 67.3013 322.25 68.0044 323.343 70.2399C323.69 70.9498 323.287 71.5339 323.013 72.0996C322.72 72.7045 322.304 73.2567 321.894 73.7961C321.094 74.8487 320.462 74.6789 319.896 73.7649C319.559 73.2197 319.127 72.6952 318.628 72.2987C318.132 71.9047 317.487 71.7583 316.877 72.1612C316.241 72.5819 315.608 73.0103 314.995 73.4652C314.574 73.7774 314.629 74.1829 314.903 74.5692C315.96 76.059 317.42 77.005 319.171 77.3824C320.196 77.6034 321.294 77.6139 322.348 77.5465C323.924 77.4458 325.491 77.193 327.184 76.9902C327.114 77.3174 327.116 77.6018 326.996 77.8188C326.597 78.5399 326.118 79.2182 325.738 79.9483C325.377 80.6402 324.788 80.896 324.087 80.955C322.122 81.1204 320.268 81.7178 318.48 82.4838C316.177 83.4703 313.921 84.5687 311.644 85.6167C311.473 85.6957 311.297 85.8004 311.116 85.817C310.735 85.8521 310.45 85.7783 310.659 85.269C310.955 84.5501 311.198 83.8089 311.502 83.0934C311.842 82.2916 312.655 82.0195 313.314 81.5873C313.699 81.3344 314.141 81.1663 314.599 80.9357Z" fill="white"/>
<path d="M164.161 67.2883C163.899 65.4117 163.628 63.5962 163.379 61.7777C163.187 60.3789 163.034 58.9748 162.844 57.5758C162.642 56.0957 162.403 54.6207 162.207 53.1399C162.049 51.9503 161.934 50.755 161.794 49.563C161.624 48.1167 161.373 46.6755 161.29 45.2245C161.154 42.8316 161.293 40.4597 162.459 38.278C162.531 38.1429 162.736 38.0158 162.886 38.0061C162.999 37.9988 163.189 38.1638 163.234 38.2909C163.393 38.7454 163.57 39.2092 163.623 39.6825C163.787 41.1574 163.866 42.6421 164.039 44.1158C164.215 45.6203 164.475 47.1149 164.679 48.6164C164.829 49.7196 164.935 50.8287 165.084 51.9321C165.289 53.4551 165.524 54.9741 165.731 56.4967C165.919 57.874 166.073 59.2558 166.268 60.632C166.461 62.0039 166.701 63.3694 166.893 64.7415C167.015 65.6123 167.118 66.488 167.178 67.365C167.327 69.5437 167.492 71.723 167.565 73.9049C167.629 75.8308 167.643 77.7635 167.555 79.6876C167.497 80.96 167.274 82.2333 167.018 83.4843C166.912 84.0005 166.638 84.6115 165.732 84.3076C165.655 83.8151 165.514 83.2401 165.485 82.6596C165.411 81.1605 165.446 79.6543 165.329 78.1593C165.167 76.0844 164.904 74.0175 164.688 71.9467C164.552 70.6441 164.427 69.3404 164.29 68.0379C164.265 67.8061 164.205 67.578 164.161 67.2883Z" fill="white"/>
<path d="M293.492 74.7645C293.356 73.5336 293.237 72.3606 293.078 71.1932C292.932 70.1167 292.745 69.0457 292.571 67.9731C292.274 66.1447 291.962 64.3185 291.677 62.4883C291.476 61.2016 291.316 59.9086 291.123 58.6205C290.969 57.5884 290.775 56.562 290.635 55.5281C290.545 54.8669 290.548 54.1933 290.464 53.531C290.262 51.9416 290.018 50.3574 289.819 48.7677C289.516 46.3524 289.449 43.9462 290.233 41.5921C290.346 41.253 290.457 40.9107 290.608 40.5881C290.676 40.4421 290.857 40.229 290.956 40.2442C291.123 40.2695 291.342 40.4227 291.404 40.5765C291.568 40.9833 291.716 41.4121 291.771 41.8449C291.972 43.4183 292.104 45.0008 292.317 46.5725C292.531 48.1557 292.818 49.7288 293.059 51.3086C293.258 52.6171 293.428 53.93 293.625 55.2389C293.816 56.5027 294.027 57.7634 294.222 59.0265C294.421 60.3122 294.612 61.5992 294.806 62.8856C295.01 64.2351 295.224 65.5832 295.415 66.9346C295.576 68.0784 295.732 69.2239 295.853 70.3726C296.045 72.2114 296.226 74.052 296.372 75.8951C296.43 76.6353 296.383 77.3838 296.383 78.1286C296.383 79.6179 296.45 81.1112 296.362 82.5953C296.295 83.7149 296.046 84.8255 295.846 85.9343C295.789 86.2505 295.638 86.5006 295.195 86.5027C294.742 86.5049 294.606 86.2328 294.557 85.9237C294.433 85.1431 294.343 84.3548 294.285 83.5662C294.139 81.5624 294.039 79.555 293.876 77.5526C293.802 76.639 293.623 75.7339 293.492 74.7645Z" fill="white"/>
<path d="M398.341 59.4607C398.2 58.253 398.073 57.0991 397.984 55.9424C397.839 54.0488 397.646 52.1546 397.611 50.2581C397.586 48.8826 398.178 47.6254 398.834 46.4341C398.927 46.2652 399.265 46.1581 399.489 46.1602C399.631 46.1615 399.845 46.3929 399.898 46.5618C400.007 46.9031 400.045 47.2703 400.081 47.6299C400.263 49.4251 400.432 51.2216 400.609 53.0172C400.737 54.3203 400.852 55.6252 401.01 56.9248C401.205 58.5366 401.45 60.1423 401.654 61.7532C401.804 62.944 401.914 64.14 402.058 65.3317C402.215 66.6263 402.399 67.9176 402.556 69.2121C402.626 69.7888 402.672 70.369 402.71 70.9489C402.764 71.7477 402.817 72.5472 402.841 73.3474C402.896 75.1539 403.039 76.9664 402.948 78.7664C402.845 80.8039 402.824 82.8759 402.056 84.8249C402.01 84.9417 402.001 85.0999 401.918 85.1697C401.685 85.3636 401.348 85.7113 401.188 85.649C400.937 85.5511 400.775 85.1796 400.621 84.8987C400.557 84.7806 400.613 84.5979 400.61 84.4447C400.567 82.6159 400.587 80.7828 400.462 78.9596C400.314 76.797 400.042 74.643 399.823 72.4853C399.691 71.1826 399.58 69.8773 399.422 68.5777C399.226 66.966 398.97 65.3615 398.781 63.7491C398.615 62.3406 398.505 60.9255 398.341 59.4607Z" fill="white"/>
<path d="M315.98 44.5548C317.476 43.1953 319.342 44.3693 319.936 45.6037C320.613 47.0122 320.8 48.4713 320.68 49.9756C320.599 50.9993 320.342 52.0091 320.151 53.0974C320.304 53.2305 320.551 53.4669 320.819 53.6764C321.949 54.5591 322.068 54.8852 321.699 56.2332C321.599 56.5969 321.497 56.9633 321.35 57.3093C321.251 57.5436 321.052 57.9339 320.934 57.9213C320.672 57.8936 320.402 57.6886 320.19 57.4957C319.665 57.0178 319.171 56.5061 318.676 56.0189C317.993 56.9759 317.408 57.8052 316.813 58.626C315.784 60.042 314.45 61.1368 312.968 62.0168C311.355 62.9746 309.667 63.8073 308.004 64.6795C307.69 64.8438 307.322 64.9049 307.01 65.0718C306.578 65.3031 306.147 65.2447 305.917 64.8922C305.67 64.5123 305.899 64.0946 306.244 63.8181C307.025 63.1909 307.813 62.5702 308.614 61.9679C310.688 60.408 312.799 58.8948 314.837 57.2884C315.629 56.6638 316.264 55.839 316.96 55.1157C315.639 54.1048 314.425 53.1756 313.21 52.2481C312.639 51.812 312.411 50.7168 312.605 49.8081C313.067 47.6402 314.271 45.9596 315.98 44.5548ZM315.227 48.1186C314.947 48.5834 314.606 49.1299 315.139 49.5473C316.176 50.3581 317.292 51.0674 318.375 51.8188C318.449 51.7854 318.524 51.7519 318.598 51.7185C318.422 50.6139 318.316 49.4914 318.043 48.4114C317.873 47.741 317.447 47.0404 316.682 46.9541C315.99 46.8761 315.667 47.5566 315.227 48.1186Z" fill="white"/>
<path d="M90.9181 45.5211C91.3972 46.8726 91.6647 48.1934 91.3551 49.584C91.1624 50.4498 91.0191 51.3271 90.8751 52.2028C90.8565 52.3162 90.9362 52.481 91.0237 52.569C91.1874 52.7336 91.3775 52.8814 91.5788 52.9979C92.8589 53.7384 92.623 54.8598 92.3327 55.9881C92.2547 56.2915 92.115 56.5788 92.0088 56.8753C91.8231 57.3935 91.5922 57.4625 91.2015 57.0913C90.6094 56.5287 90.0287 55.9541 89.3746 55.3179C88.9134 56.0538 88.5521 56.6956 88.1289 57.2936C86.8337 59.1243 85.1996 60.5954 83.2329 61.6686C81.6224 62.5475 79.9762 63.3611 78.3422 64.1964C78.1568 64.2911 77.9507 64.3844 77.7487 64.3983C77.4339 64.42 77.1145 64.373 76.797 64.3551C76.8748 63.9956 76.8379 63.5289 77.0535 63.2984C77.5453 62.7726 78.1477 62.3452 78.7283 61.9085C81.4219 59.8826 84.3514 58.1589 86.7025 55.6961C87.0677 55.3135 87.3647 54.8659 87.6947 54.4465C86.4381 53.4781 85.2109 52.5393 83.9917 51.5901C83.1608 50.9432 83.1651 49.9789 83.3691 49.1493C83.8877 47.0414 85.0279 45.2709 86.8326 44.0158C88.5744 42.8044 90.2553 43.4361 90.9181 45.5211ZM87.2791 46.321C86.7949 46.7822 86.2565 47.2 85.8426 47.7175C85.474 48.1783 85.6295 48.8735 86.0418 49.151C86.9514 49.7631 87.8604 50.3763 88.775 50.9809C88.8961 51.061 89.0484 51.094 89.1862 51.1489C89.2544 51.1117 89.3225 51.0745 89.3906 51.0374C89.2101 49.9509 89.0857 48.851 88.8297 47.7827C88.6522 47.0425 88.2051 46.4324 87.2791 46.321Z" fill="white"/>
<path d="M359.17 58.0658C360.268 57.2103 361.161 56.2372 361.836 55.1006C360.626 54.1675 359.407 53.2814 358.252 52.3193C357.472 51.6691 357.373 50.7846 357.625 49.8157C358.186 47.6504 359.295 45.855 361.129 44.5535C362.474 43.5991 364.217 44.2146 364.876 45.7408C365.867 48.0364 365.645 50.3428 365.067 52.6583C364.96 53.0894 365.07 53.2656 365.381 53.5023C366.029 53.995 366.874 54.3996 366.692 55.4375C366.558 56.2063 366.414 56.9864 366.145 57.714C365.986 58.1471 365.557 58.0544 365.244 57.7529C364.655 57.1857 364.073 56.6116 363.577 56.127C362.59 57.4449 361.806 58.8219 360.707 59.8703C359.506 61.0166 358.068 61.9466 356.636 62.8093C355.212 63.6672 353.667 64.3243 352.175 65.0702C352.157 65.0795 352.145 65.1078 352.127 65.1116C351.687 65.2045 351.125 65.4093 350.915 64.9144C350.805 64.6536 351.06 64.0661 351.33 63.8468C352.451 62.9353 353.637 62.1042 354.805 61.2503C356.246 60.1962 357.692 59.1487 359.17 58.0658ZM359.983 49.5956C361.036 50.3586 362.089 51.1215 363.283 51.9871C363.283 51.1959 363.321 50.6301 363.275 50.0711C363.192 49.0596 362.855 48.1258 362.181 47.355C362.014 47.1637 361.647 46.9489 361.457 47.0102C360.611 47.2838 360.146 48.0083 359.765 48.7506C359.669 48.9374 359.85 49.2666 359.983 49.5956Z" fill="white"/>
<path d="M262.079 67.4253C262.345 67.0646 262.604 66.7496 262.868 66.4383C263.252 65.9848 263.565 65.9797 264.007 66.3937C264.87 67.202 265.74 68.0032 266.665 68.8608C267.283 68.1075 267.832 67.4303 268.39 66.7609C268.775 66.2988 269.15 65.8245 269.574 65.3987C269.893 65.0768 270.189 65.0796 270.587 65.4484C271.655 66.4377 272.801 67.3437 273.912 68.287C274.111 68.4556 274.293 68.644 274.467 68.8088C273.588 69.9019 272.753 70.9307 271.93 71.969C271.372 72.6728 270.81 72.7875 270.024 72.2862C269.328 71.8416 268.665 71.3336 268.033 70.7999C267.502 70.352 267.39 70.3465 266.964 70.8883C266.37 71.6455 265.731 72.3676 265.131 73.121C264.747 73.6035 264.232 73.598 263.789 73.3844C262.41 72.7201 261.243 71.7652 260.286 70.5649C259.989 70.1924 260.018 69.844 260.351 69.4779C260.943 68.8253 261.502 68.1427 262.079 67.4253Z" fill="white"/>
<path d="M109.801 64.4303C108.991 65.3527 108.244 66.2686 107.451 67.1435C106.947 67.7002 106.463 67.7388 105.868 67.2775C104.887 66.5177 103.941 65.7137 102.977 64.9309C102.337 64.41 102.33 64.0199 102.871 63.3424C103.688 62.3192 104.542 61.3242 105.416 60.3503C105.729 60.0024 106.078 60.1602 106.401 60.4575C107.129 61.1287 107.878 61.7787 108.631 62.4233C108.972 62.7159 109.214 62.8212 109.584 62.3086C110.312 61.3015 111.19 60.4042 111.996 59.4524C112.343 59.0422 112.629 59.0665 113.015 59.4376C113.872 60.2596 114.765 61.0437 115.658 61.8272C115.861 62.0054 116.109 62.145 116.358 62.2551C116.872 62.4829 116.827 62.8307 116.549 63.1792C115.763 64.1663 114.96 65.1405 114.146 66.1056C113.745 66.5812 113.028 66.6821 112.523 66.3164C111.748 65.7542 111.004 65.1491 110.239 64.5721C110.129 64.4886 109.977 64.4603 109.801 64.4303Z" fill="white"/>
<path d="M329.463 47.8132C330.525 45.6501 332.132 44.418 334.549 44.1296C336.329 43.9171 337.887 44.4635 339.496 45.0054C340.413 45.3141 341.373 45.4929 342.31 45.7423C342.736 45.8556 343.1 46.0045 342.816 46.5845C342.476 47.2792 342.217 48.0155 341.85 48.6946C341.708 48.9582 341.369 49.1167 341.117 49.3196C340.684 49.6672 340.242 50.0022 339.818 50.3597C338.184 51.7387 336.214 52.3471 334.19 52.8369C333.473 53.0104 332.763 53.2242 332.037 53.3384C331.831 53.3708 331.451 53.1634 331.385 52.9809C331.314 52.7887 331.457 52.4275 331.626 52.2598C331.921 51.9658 332.29 51.73 332.659 51.5278C334.584 50.4758 336.518 49.4421 338.563 48.3403C337.082 47.69 335.712 47.1811 334.242 47.2025C332.514 47.2276 331.043 47.9427 329.975 49.3147C329.723 49.6377 329.45 49.809 329.212 49.6335C329.035 49.5036 329.004 49.0623 329.046 48.78C329.093 48.4584 329.294 48.1595 329.463 47.8132Z" fill="white"/>
<path d="M110.053 42.7493C110.246 42.6484 110.4 42.5797 110.549 42.502C110.584 42.4837 110.603 42.4349 110.661 42.3574C109.13 41.7596 107.614 41.1082 105.944 41.2869C104.358 41.4566 103.001 42.1386 101.997 43.4415C101.862 43.6162 101.557 43.6595 101.331 43.7636C101.255 43.5192 101.054 43.2289 101.124 43.0374C101.914 40.8699 103.195 39.1092 105.504 38.4098C107.321 37.8594 109.117 38.1465 110.886 38.7925C112.008 39.2021 113.18 39.4739 114.325 39.8229C115.102 40.0601 115.158 40.1349 114.864 40.9034C114.604 41.5848 114.342 42.2947 113.92 42.8754C113.602 43.3124 113.006 43.5361 112.576 43.9048C111.206 45.0813 109.66 45.9273 107.933 46.4406C106.842 46.7649 105.752 47.1013 104.641 47.3416C104.282 47.4194 103.861 47.2091 103.468 47.1305C103.646 46.7671 103.727 46.2516 104.018 46.0684C104.926 45.4964 105.922 45.0651 106.868 44.5509C107.925 43.9761 108.965 43.3704 110.053 42.7493Z" fill="white"/>
<path d="M28.5252 43.8985C31.8389 42.4749 35.0992 41.0511 38.3644 39.6387C41.5134 38.2766 44.6641 36.9184 47.8236 35.581C48.2183 35.4139 48.6713 35.3846 49.2512 35.2578C48.8714 36.5809 48.5237 37.7468 47.4034 38.3647C46.006 39.1354 44.5538 39.8127 43.0984 40.4709C41.3153 41.2772 39.5071 42.0287 37.7046 42.7917C35.5731 43.6939 33.4352 44.581 31.3018 45.4789C30.0992 45.9851 28.9081 46.5197 27.6952 46.9996C27.3121 47.1511 26.8754 47.1669 26.35 47.2661C26.9302 45.9423 26.8282 44.3754 28.5252 43.8985Z" fill="white"/>
<path d="M268.26 42.5848C268.526 43.0107 268.813 43.4157 268.941 43.8659C269.439 45.6219 269.142 47.3192 268.487 48.9868C267.912 50.4515 266.675 50.8409 265.299 50.9901C264.195 51.1097 263.24 50.7546 262.595 50.0305C261.942 50.7234 261.402 51.5159 260.666 52.0282C259.521 52.826 258.2 53.0912 256.9 52.3128C255.803 51.656 255.418 50.6081 255.652 49.39C255.842 48.405 256.158 47.443 256.446 46.4792C256.51 46.2638 256.655 46.0337 256.831 45.9006C257.025 45.7538 257.297 45.711 257.536 45.6229C257.598 45.856 257.737 46.1 257.706 46.3201C257.627 46.8818 257.388 47.4293 257.364 47.9889C257.311 49.2624 258.077 49.766 259.327 49.5742C261.115 49.2998 261.813 47.6545 262.063 46.3245C262.198 45.6087 262.203 44.8726 262.983 44.5133C263.203 44.4118 263.473 44.2812 263.677 44.3331C263.8 44.3645 263.887 44.7163 263.909 44.9324C263.946 45.3007 263.919 45.6754 263.919 46.0474C263.922 47.5178 265.197 48.2852 266.48 47.5894C267.42 47.0799 267.504 46.7424 267.049 45.5184C266.963 45.2884 266.877 44.981 266.96 44.7796C267.258 44.0608 267.626 43.3704 267.979 42.6754C268.007 42.6207 268.129 42.6139 268.26 42.5848Z" fill="white"/>
<path d="M180.892 54.3193C183.554 53.1884 186.174 52.0894 188.795 50.9914C190.076 50.4548 191.352 49.9072 192.641 49.3911C193.128 49.1957 193.495 49.4618 193.325 49.8837C192.853 51.0518 192.323 52.225 191.118 52.8199C190.121 53.3121 189.066 53.6878 188.038 54.1161C186.114 54.9169 184.194 55.7252 182.267 56.5179C179.66 57.5904 177.049 58.6524 174.437 59.7137C174.286 59.7749 174.117 59.7898 173.944 59.8291C173.984 58.3675 174.445 56.844 175.811 56.3684C177.518 55.7742 179.173 55.0307 180.892 54.3193Z" fill="white"/>
<path d="M141.115 93.2844C142.815 92.5327 144.471 91.805 146.134 91.0959C146.303 91.0239 146.519 91.0639 146.714 91.052C146.692 91.2656 146.719 91.4994 146.64 91.6889C146.462 92.1136 146.216 92.5094 146.026 92.9294C145.581 93.909 144.739 94.3765 143.802 94.7748C142.313 95.4076 140.854 96.1103 139.372 96.7595C136.751 97.9074 134.121 99.0339 131.499 100.177C130.668 100.539 129.857 100.944 129.021 101.292C128.604 101.465 128.152 101.554 127.692 101.688C127.572 100.182 128.437 98.8036 129.673 98.2757C131.434 97.524 133.173 96.7207 134.929 95.956C136.973 95.0659 139.024 94.1937 141.115 93.2844Z" fill="white"/>
<path d="M261.389 34.3961C262.105 34.073 262.79 33.8002 263.459 33.4923C265.911 32.3634 268.354 31.2159 270.81 30.0963C271.086 29.9707 271.422 29.9786 271.807 29.9111C271.816 30.8795 271.289 31.5475 270.892 32.2373C270.248 33.3591 269.02 33.7203 267.952 34.2513C266.501 34.9733 265.002 35.6008 263.528 36.2764C260.653 37.5934 257.785 38.924 254.902 40.2238C254.592 40.3639 254.206 40.3382 253.842 40.3912C253.938 38.4055 254.445 37.3012 255.943 36.8894C256.966 36.6081 257.909 36.0308 258.885 35.5808C259.708 35.201 260.529 34.8141 261.389 34.3961Z" fill="white"/>
<path d="M228.998 104.131C228.128 104.578 227.299 104.994 226.469 105.409C226.375 105.456 226.282 105.514 226.181 105.536C225.451 105.697 225.192 105.47 225.424 104.78C225.713 103.918 225.825 102.908 226.76 102.434C228.456 101.574 230.19 100.789 231.883 99.9211C234.91 98.3691 237.911 96.7659 240.942 95.222C241.322 95.0287 241.819 95.0651 242.371 94.9778C241.922 96.7386 241.185 97.9834 239.61 98.7279C236.954 99.9832 234.358 101.367 231.739 102.7C230.836 103.161 229.939 103.633 228.998 104.131Z" fill="white"/>
<path d="M338.602 60.2906C339.563 61.193 340.493 62.0612 341.481 62.9838C341.336 63.1744 341.182 63.4248 340.982 63.6303C340.297 64.3346 339.577 65.006 338.904 65.7218C337.834 66.8605 337.283 66.641 336.388 65.8092C335.579 65.0585 334.857 64.2147 334.102 63.4076C333.699 62.9768 333.825 62.526 334.175 62.1759C335.114 61.2362 336.076 60.3169 337.07 59.4367C337.221 59.3032 337.659 59.322 337.851 59.4461C338.143 59.6358 338.335 59.9786 338.602 60.2906Z" fill="white"/>
<path d="M383.11 92.8772C382.212 93.7808 381.347 94.6492 380.478 95.514C380.06 95.9297 379.279 95.9573 378.865 95.5507C377.953 94.654 377.049 93.7487 376.153 92.8363C375.774 92.4505 375.79 91.9246 376.174 91.5368C377.022 90.6823 377.873 89.8308 378.729 88.9843C379.152 88.5653 379.752 88.6021 380.125 89.0655C380.999 90.1503 381.882 91.2171 383.112 91.9396C383.509 92.1731 383.527 92.5266 383.11 92.8772Z" fill="white"/>
<path d="M267.337 59.1453C267.714 59.3842 268.054 59.6047 268.368 59.8578C268.659 60.0921 268.882 60.3705 268.558 60.7483C267.761 61.6787 266.981 62.6246 266.159 63.5326C265.607 64.1423 265.19 64.173 264.536 63.7356C263.399 62.9742 262.236 62.2375 261.447 61.0734C261.208 60.7214 261.194 60.3945 261.509 60.0313C262.337 59.077 263.091 58.055 263.961 57.1434C264.149 56.9461 264.827 56.9367 265.067 57.1196C265.86 57.7248 266.556 58.4574 267.337 59.1453Z" fill="white"/>
<path d="M39.5922 57.6033C39.1751 57.9973 38.8752 58.5198 38.2141 58.3544C38.0554 58.3147 37.8616 58.2904 37.7553 58.1862C36.7653 57.2158 35.8024 56.2178 34.8062 55.2539C34.4236 54.8837 34.5301 54.5458 34.815 54.2495C35.7387 53.2889 36.6689 52.332 37.6435 51.424C37.956 51.1328 38.3441 51.1169 38.7348 51.5213C39.6887 52.5085 40.6987 53.4424 41.7042 54.3783C42.0888 54.7362 42.2149 55.0265 41.7665 55.4442C41.031 56.1293 40.3368 56.8587 39.5922 57.6033Z" fill="white"/>
<path d="M225.898 53.9897C225.516 54.3649 225.228 54.8496 224.626 54.6681C224.356 54.5869 224.064 54.4666 223.867 54.2763C222.961 53.4021 222.097 52.4848 221.193 51.6082C220.759 51.1874 220.977 50.7976 221.255 50.5012C222.136 49.5613 223.047 48.6464 223.988 47.7663C224.336 47.4412 224.731 47.4569 225.128 47.8628C226.073 48.8285 227.056 49.7578 228.053 50.6705C228.525 51.1028 228.572 51.3177 228.113 51.778C227.388 52.5061 226.66 53.2308 225.898 53.9897Z" fill="white"/>
<path d="M108.195 51.5221C108.454 51.6042 108.713 51.6337 108.861 51.777C109.851 52.7293 110.799 53.719 112.066 54.3358C112.414 54.5051 112.72 54.7898 112.246 55.2978C111.403 56.2027 110.662 57.204 109.877 58.1639C109.496 58.6302 108.949 58.6561 108.548 58.3658C107.409 57.5414 106.313 56.6521 105.256 55.7243C105.074 55.5645 105.012 54.968 105.159 54.7825C106.015 53.7011 106.948 52.6805 107.863 51.646C107.925 51.5766 108.048 51.5622 108.195 51.5221Z" fill="white"/>
</svg>
