<svg width="429" height="143" viewBox="0 0 429 143" fill="none" xmlns="http://www.w3.org/2000/svg">
<path d="M150.886 71.8878C150.974 73.8785 151.162 75.8088 151.122 77.7343C151.077 79.8539 150.588 81.8762 148.914 83.3976C147.809 84.4013 146.574 84.993 145.025 85.0698C143.52 85.1445 142.139 84.9832 140.792 84.269C139.739 83.7104 139.079 82.8181 138.4 81.912C138.105 81.5189 137.852 80.9703 137.455 80.8194C137.164 80.7087 136.671 81.1317 136.267 81.3147C134.426 82.1482 132.624 83.0901 130.73 83.7748C129.509 84.2161 128.157 84.3204 126.853 84.4976C125.976 84.6168 125.079 84.6546 124.194 84.632C122.342 84.5847 120.67 83.9781 119.19 82.8527C118.945 82.6663 118.674 82.5134 118.462 82.3757C117.99 83.4428 117.595 84.4645 117.095 85.4324C116.536 86.5146 115.587 87.0366 114.364 87.1501C112.551 87.3186 111.087 86.5859 109.742 85.4909C109.025 84.908 109.044 84.9258 108.347 85.5744C107.439 86.4206 106.381 86.8953 105.11 87.0293C102.577 87.2965 100.433 86.3163 98.3359 85.1201C97.7305 84.7747 97.1647 84.359 96.5541 84.0241C96.3729 83.9247 96.0736 83.9182 95.8746 83.9926C93.6863 84.8108 91.5157 85.677 89.32 86.4744C88.6934 86.7019 88.7231 87.2525 88.6126 87.6687C87.8543 90.5273 86.9158 93.3243 85.664 95.9986C84.9686 97.4843 84.1125 98.9033 83.2338 100.292C82.4133 101.589 81.127 102.421 79.8208 103.152C78.4278 103.932 76.9248 104.373 75.2984 104.523C73.6001 104.679 71.9426 104.547 70.2666 104.368C67.0577 104.026 64.1457 102.802 61.2854 101.418C60.9276 101.244 60.614 100.969 60.3038 100.712C59.8646 100.347 60.0603 99.9599 60.4619 99.8527C60.9425 99.7244 61.5481 99.6382 61.9793 99.8196C64.9011 101.048 67.9412 101.546 71.0799 101.319C73.9352 101.113 76.6239 100.335 78.8923 98.4733C80.4308 97.2103 81.6682 95.6806 82.663 93.9695C83.8387 91.9473 84.9472 89.8861 86.0849 87.8418C86.0335 87.7809 85.9821 87.7201 85.9307 87.6592C85.6996 87.6968 85.4686 87.7358 85.2371 87.7716C84.6834 87.8574 84.1978 87.7789 83.9596 87.1876C83.5747 86.232 83.1643 85.2842 82.8376 84.3087C82.6835 83.8489 82.9588 83.4658 83.4193 83.3051C84.5511 82.91 85.6945 82.5479 86.828 82.1575C88.8381 81.4653 90.8575 80.7973 92.8476 80.0513C94.2276 79.5339 95.5667 78.9068 96.9207 78.3209C97.8334 77.9259 98.4404 78.2711 98.4316 79.2513C98.4259 79.8853 98.3013 80.5183 98.224 81.2049C99.3667 81.4924 100.54 81.8517 101.738 82.0741C103.636 82.4262 105.542 82.5333 107.238 81.3518C108.743 80.3034 109.899 78.9539 110.536 77.204C110.672 76.8286 110.777 76.4392 110.941 76.077C111.095 75.7386 111.321 75.4783 111.778 75.5689C112.254 75.6635 112.148 76.0337 112.101 76.2915C111.85 77.6664 111.551 79.0324 111.29 80.4057C111.256 80.5854 111.3 80.9292 111.39 80.9604C112.602 81.3801 113.81 81.8357 115.056 82.1218C116.071 82.3547 116.791 81.5962 117.091 80.6515C117.544 79.227 117.879 77.765 118.302 76.3305C118.397 76.0108 118.587 75.5947 118.849 75.4746C119.43 75.2077 119.92 75.6593 119.86 76.3472C119.823 76.7679 119.716 77.1827 119.634 77.599C119.544 78.0603 119.602 78.3999 120.098 78.6558C121.81 79.5388 123.584 80.1225 125.521 80.3281C128.849 80.6812 131.794 79.7314 134.642 78.0052C132.944 76.9254 131.241 76.0622 129.253 76.125C128.555 76.147 127.862 76.4364 127.176 76.6371C126.408 76.8622 126.33 76.8052 126.303 76.0168C126.268 75.0032 126.817 74.2388 127.364 73.4862C128.568 71.8299 129.997 70.4351 132.052 69.8992C132.768 69.7125 133.513 69.6164 134.251 69.5353C135.681 69.3781 137.128 69.4081 138.464 69.9455C139.942 70.5402 141.421 71.2005 142.76 72.0511C143.594 72.5807 143.612 73.66 143.48 74.6341C143.248 76.3403 142.302 77.5484 140.873 78.4304C140.783 78.4855 140.722 78.5858 140.527 78.7926C141.832 79.2898 143.03 79.9073 144.303 80.1923C146.02 80.5767 147.633 80.0372 148.853 78.7808C149.174 78.4501 149.047 77.6297 149.028 77.0373C149.008 76.4216 148.859 75.8109 148.785 75.1958C148.562 73.3457 148.341 71.4952 148.131 69.6435C147.988 68.3855 147.883 67.1229 147.726 65.8668C147.578 64.6812 147.369 63.5034 147.215 62.3186C147.062 61.1497 146.961 59.9741 146.807 58.8055C146.618 57.3666 146.395 55.932 146.191 54.495C146.044 53.4587 145.906 52.4211 145.76 51.3847C145.545 49.8627 145.34 48.3391 145.105 46.8201C144.953 45.8354 144.829 44.8364 144.555 43.8834C144.312 43.0404 143.899 42.2424 143.523 41.4429C143.23 40.822 143.138 40.3068 143.637 39.6893C144.326 38.8347 144.879 37.8702 145.496 36.9563C145.798 36.5094 146.277 36.5248 146.445 37.0291C147.036 38.8043 148.098 40.2955 149.166 41.7982C150.176 43.2185 149.777 43.5417 148.834 44.7009C148.752 44.8023 148.663 44.9102 148.554 44.9768C147.421 45.6688 147.594 46.7241 147.761 47.781C147.972 49.1067 148.18 50.4327 148.389 51.7587C148.65 53.4217 148.923 55.0831 149.167 56.7487C149.324 57.8287 149.431 58.916 149.573 59.9983C149.783 61.5871 150.008 63.1738 150.218 64.7625C150.319 65.5273 150.416 66.2932 150.486 67.0612C150.629 68.6483 150.754 70.2371 150.886 71.8878Z" fill="white"/>
<path d="M356.579 87.0092C354.717 86.9211 352.908 86.9352 351.127 86.72C348.689 86.4256 346.281 85.9266 344.065 84.7791C344.031 84.7612 343.979 84.7768 343.921 84.7768C343.191 86.2683 342.505 87.7878 341.715 89.2509C340.712 91.1084 339.661 92.9537 338.075 94.3963C336.512 95.8177 334.749 96.8803 332.593 97.1295C329.123 97.5306 325.754 97.171 322.566 95.6768C321.115 94.9968 319.713 94.2106 318.284 93.483C317.861 93.2675 317.468 92.9339 317.726 92.4934C317.962 92.0899 318.475 91.9225 319.014 92.0808C320.469 92.5083 321.919 92.9665 323.392 93.3207C325.205 93.7565 327.054 93.9034 328.907 93.5765C330.219 93.3448 331.576 93.2025 332.814 92.7493C333.902 92.3507 334.92 91.6634 335.852 90.9501C338.266 89.1014 339.799 86.5639 341.127 83.8838C341.323 83.487 341.386 83.3077 340.946 82.9659C339.338 81.717 338.367 80.0536 338.748 77.9832C338.976 76.7454 339.614 75.5801 340.105 74.3978C340.163 74.2583 340.496 74.1097 340.635 74.1578C340.814 74.2201 341.026 74.4618 341.053 74.6505C341.379 76.9424 342.89 78.227 344.785 79.2721C347.057 80.5245 349.512 81.2037 352.013 81.7284C353.224 81.9825 354.479 82.0659 355.72 82.1337C357.437 82.2275 359.169 82.3722 360.876 82.241C362.823 82.0912 364.784 81.8012 366.676 81.3236C369.863 80.5193 373.004 79.5319 376.156 78.5928C377.095 78.313 378.005 77.9371 378.958 77.4424C377.572 76.9955 376.199 76.504 374.798 76.1119C372.55 75.4826 370.245 75.161 367.914 75.3304C366.081 75.4635 364.261 75.7721 362.433 75.9806C362.22 76.0049 361.94 75.9458 361.788 75.8135C361.701 75.7374 361.75 75.4 361.842 75.2422C362.526 74.079 363.184 72.8945 363.958 71.7922C364.458 71.0793 365.372 70.977 366.161 70.8633C368.112 70.5825 370.075 70.3803 372.037 70.1939C373.414 70.0632 374.799 70.0247 376.176 69.9053C376.355 69.8898 376.671 69.616 376.656 69.4953C376.434 67.7197 376.181 65.9477 375.907 64.1791C375.613 62.2858 375.304 60.3946 374.977 58.5069C374.697 56.8954 374.358 55.294 374.091 53.6806C373.909 52.5835 373.756 51.4769 373.678 50.3683C373.562 48.738 373.163 47.1864 372.467 45.7231C372.089 44.9273 371.95 44.2988 372.582 43.5079C373.163 42.782 373.487 41.8521 373.931 41.0155C374.05 40.791 374.173 40.5641 374.327 40.3641C374.647 39.9497 375.052 39.9954 375.295 40.4654C375.992 41.8118 376.668 43.1688 377.384 44.5044C377.633 44.9691 377.978 45.3823 378.277 45.8208C378.681 46.4142 378.638 46.9854 378.143 47.498C377.824 47.829 377.516 48.1747 377.167 48.4708C376.646 48.912 376.635 49.4516 376.737 50.0579C376.914 51.109 377.058 52.1657 377.215 53.2202C377.381 54.3388 377.556 55.4562 377.707 56.5767C377.862 57.7222 377.986 58.8717 378.137 60.0178C378.299 61.246 378.486 62.4709 378.642 63.6998C378.753 64.5724 378.846 65.4479 378.919 66.3243C378.984 67.1003 379.065 67.8811 379.043 68.657C379.006 69.9784 378.609 71.195 377.648 72.3952C379.156 72.9411 380.582 73.612 382.083 73.9628C384.17 74.4507 386.308 74.7365 388.435 75.0362C389.86 75.237 391.303 75.312 392.738 75.443C393.701 75.5309 394.665 75.6039 395.625 75.7112C396.266 75.7828 396.419 76.0892 396.151 76.6879C395.614 77.8828 395.072 79.075 394.465 80.4176C393.463 80.2261 392.426 80.0146 391.383 79.8314C389.661 79.5289 387.947 79.5162 386.199 79.7432C382.939 80.1663 379.868 81.2335 376.79 82.2859C374.361 83.1166 371.971 84.0625 369.545 84.9042C367.118 85.7462 364.651 86.4387 362.068 86.6166C360.259 86.7412 358.452 86.8779 356.579 87.0092Z" fill="white"/>
<path d="M288.629 79.1466C288.379 77.55 288.134 76.0149 287.879 74.4814C287.653 73.1172 287.412 71.7553 287.184 70.3914C286.913 68.7748 286.661 67.155 286.379 65.5405C286.138 64.1598 285.851 62.7871 285.61 61.4064C285.372 60.0431 285.175 58.6726 284.942 57.3082C284.692 55.8417 284.399 54.3822 284.167 52.9131C283.959 51.6059 283.88 50.2747 283.606 48.9833C283.452 48.258 283.068 47.5644 282.701 46.9048C281.983 45.6145 282.171 44.5023 282.96 43.4487C283.468 42.7703 283.91 42.0427 284.404 41.3536C284.54 41.1641 284.756 40.9136 284.939 40.9109C285.113 40.9084 285.379 41.1613 285.451 41.3581C285.964 42.75 286.524 44.1119 287.44 45.2987C287.582 45.4829 287.704 45.6826 287.841 45.8711C288.651 46.9851 288.066 47.9254 287.434 48.8237C286.912 49.5647 286.35 50.2653 286.526 51.2567C286.708 52.2825 286.884 53.3095 287.07 54.3344C287.367 55.9645 287.67 57.5934 287.972 59.2226C288.362 61.332 288.769 63.4386 289.141 65.5513C289.514 67.6679 289.896 69.7844 290.192 71.9124C290.435 73.6549 290.705 75.415 290.696 77.1658C290.683 79.598 290.177 81.9832 289.146 84.2077C288.324 85.9821 287.056 87.0854 285.191 86.8497C284.267 86.7329 283.356 86.3807 282.484 86.0248C281.689 85.7005 280.982 85.1598 280.184 84.8476C279.778 84.6885 279.179 84.6644 278.801 84.8506C277.23 85.6241 275.728 86.5373 274.166 87.3309C272.164 88.3481 270.05 89.0848 267.84 89.4887C266.871 89.6659 265.873 89.7015 264.886 89.7637C263.803 89.832 262.714 89.935 261.634 89.8828C259.934 89.8007 258.266 89.5451 256.714 88.7327C255.118 87.8978 254.013 86.6386 253.425 84.9861C252.762 83.1235 252.214 81.2173 251.689 79.31C251.465 78.4942 251.416 77.6289 251.304 76.784C251.123 75.4268 250.942 74.0694 250.786 72.7093C250.674 71.7263 250.618 70.7368 250.509 69.7534C250.351 68.3279 250.16 66.906 249.995 65.4812C249.852 64.2452 249.745 63.0049 249.588 61.7707C249.403 60.3092 249.199 58.8497 248.971 57.3942C248.715 55.7555 248.412 54.1241 248.15 52.4861C247.828 50.4719 248.484 48.5624 248.839 46.6247C248.882 46.3904 249.211 46.2086 249.407 46.0024C249.603 46.1898 249.903 46.3444 249.974 46.5709C250.162 47.1725 250.275 47.8013 250.377 48.426C250.651 50.1086 250.92 51.7926 251.161 53.4802C251.361 54.8778 251.507 56.2831 251.699 57.6818C251.897 59.1187 252.131 60.5506 252.333 61.987C252.485 63.0674 252.602 64.1526 252.749 65.2337C252.953 66.7357 253.18 68.2347 253.381 69.7372C253.533 70.8833 253.64 72.0356 253.803 73.1801C254.152 75.6326 254.383 78.1023 255.483 80.3959C256.173 81.8339 257.258 82.7948 258.57 83.6011C260.712 84.9184 263.078 85.2542 265.496 85.0134C269.733 84.5914 273.714 83.2653 277.453 81.2244C278.064 80.8905 278.638 80.4741 279.274 80.1999C280.065 79.8586 280.835 80.1339 281.61 80.4209C283.347 81.0636 285.1 81.6663 286.86 82.2431C287.612 82.4897 288.166 82.1691 288.353 81.3619C288.516 80.6606 288.542 79.9276 288.629 79.1466Z" fill="white"/>
<path d="M236.975 61.5036C236.581 59.183 236.176 56.9224 235.795 54.6579C235.517 53.0015 235.336 51.3251 234.977 49.6872C234.81 48.9278 234.283 48.2546 233.989 47.5144C233.599 46.5301 233.803 45.5885 234.385 44.7304C234.921 43.9394 235.472 43.1581 236.043 42.3923C236.16 42.236 236.406 42.0673 236.571 42.0863C236.748 42.1066 236.991 42.3126 237.049 42.4887C237.563 44.0528 238.354 45.4627 239.34 46.7709C240.117 47.8022 240.014 48.8139 239.277 49.8128C239.024 50.1554 238.74 50.4788 238.523 50.8427C238.251 51.299 238.101 51.7621 238.226 52.348C238.559 53.9061 238.797 55.4841 239.08 57.053C239.294 58.2448 239.514 59.4357 239.742 60.6251C240.041 62.1882 240.354 63.7488 240.654 65.3117C241.007 67.1463 241.367 68.9799 241.698 70.8184C242.019 72.5969 242.381 74.3733 242.576 76.1668C242.657 76.9176 242.381 77.7153 242.223 78.4826C241.801 80.537 241.359 82.5874 240.915 84.6373C240.839 84.9866 240.764 85.3506 240.604 85.6638C240.308 86.2405 239.891 86.6277 239.147 86.6276C236.844 86.6275 234.683 86.1251 232.658 85.0173C232.496 84.9287 232.129 84.9826 231.993 85.1122C230.448 86.5832 228.67 87.6944 226.744 88.5828C224.762 89.4972 222.684 90.129 220.548 90.5452C219.085 90.8303 217.605 91.0783 216.121 91.1954C214.024 91.3609 211.914 91.504 209.814 91.4491C207.19 91.3805 204.651 90.8349 202.234 89.702C200.416 88.8502 198.898 87.7103 197.823 86.0242C197.089 84.8735 196.643 83.6256 196.471 82.2382C196.104 79.2789 197.163 76.7421 198.599 74.2918C198.974 73.6523 199.107 73.6068 199.813 73.6238C199.755 73.897 199.773 74.203 199.636 74.4028C198.017 76.7595 199.268 80.9591 200.89 82.6979C202.883 84.833 205.293 86.0579 208.122 86.6289C210.663 87.1418 213.228 87.0966 215.776 86.9755C218.859 86.8291 221.887 86.2127 224.758 85.0261C227.577 83.8607 230.231 82.411 232.274 80.0655C232.86 79.3925 233.403 78.6722 233.881 77.9193C234.147 77.4992 234.516 77.2812 234.87 77.4562C235.135 77.5874 235.418 78.1014 235.365 78.3822C235.145 79.5336 234.8 80.6609 234.469 81.9152C234.555 81.9311 234.78 81.9961 235.008 82.0109C236.386 82.1001 237.765 82.1726 239.143 82.2619C239.721 82.2994 240.273 81.6971 240.245 80.8763C240.216 80.0013 240.099 79.1248 239.959 78.2588C239.688 76.58 239.379 74.9072 239.076 73.2337C238.785 71.6242 238.47 70.0188 238.185 68.4082C237.858 66.565 237.555 64.7177 237.236 62.8731C237.16 62.4342 237.063 61.9989 236.975 61.5036Z" fill="white"/>
<path d="M177.268 91.9732C180.845 89.3558 183.251 85.9517 184.798 81.8175C183.591 81.9387 182.559 82.0534 181.524 82.1425C180.792 82.2055 180.051 82.3085 179.323 82.2605C178.163 82.184 177.013 82.0805 176.037 81.2559C175.255 80.5951 174.875 79.7701 174.682 78.8315C174.127 76.1159 175.02 73.6894 176.324 71.3934C176.92 70.3435 177.617 69.3259 178.664 68.6258C179.548 68.0345 180.453 68.0274 181.407 68.432C183.046 69.1273 183.962 70.5285 184.771 71.9806C185.838 73.8953 186.533 75.9451 186.781 78.1497C187.122 81.1894 186.823 84.1256 185.681 86.977C184.807 89.1579 183.492 91.0561 181.946 92.7857C180.944 93.9066 179.853 94.9746 178.672 95.899C177.985 96.4364 177.056 96.6924 176.205 96.9853C175.251 97.314 174.273 97.599 173.284 97.798C172.135 98.0291 170.967 98.2531 169.801 98.2875C168.04 98.3396 166.267 98.3099 164.513 98.1575C162.71 98.0009 160.924 97.6567 159.132 97.389C159.01 97.3709 158.896 97.3038 158.778 97.2624C158.418 97.1366 158.136 96.8694 158.276 96.5143C158.373 96.2712 158.733 95.9753 158.976 95.9746C160.078 95.9715 161.181 96.0916 162.284 96.1162C163.539 96.1443 164.798 96.1696 166.05 96.0989C167.026 96.0439 167.995 95.8471 168.966 95.7014C170.872 95.415 172.618 94.6688 174.293 93.758C175.295 93.2138 176.255 92.5931 177.268 91.9732ZM179.536 77.4116C180.83 77.4116 182.124 77.4116 183.418 77.4116C183.443 77.3392 183.469 77.2669 183.495 77.1945C182.833 76.3442 182.185 75.4817 181.501 74.6495C181.234 74.3239 180.892 74.0564 180.568 73.7802C180.205 73.4702 179.802 73.1556 179.301 73.3901C178.55 73.7423 177.936 74.2682 177.69 75.1019C177.378 76.1599 177.564 76.766 178.47 77.0714C178.786 77.1777 179.106 77.2705 179.536 77.4116Z" fill="white"/>
<path d="M71.5468 78.8836C71.6046 78.6532 71.6234 78.4627 71.6488 78.2061C71.1187 78.2517 70.6355 78.303 70.1511 78.3331C68.6619 78.4255 67.1674 78.6296 65.6839 78.57C63.3165 78.4749 61.9117 77.0619 61.6298 74.6084C61.3165 71.8809 62.2795 69.52 63.6384 67.2856C64.1339 66.4708 64.7937 65.695 65.5411 65.1088C66.6333 64.2522 68.0716 64.4545 69.2309 65.3434C70.3771 66.2222 71.1258 67.3724 71.7814 68.6363C72.5555 70.1286 73.1829 71.6649 73.5088 73.3096C73.8489 75.026 73.9431 76.7475 73.7653 78.5108C73.5668 80.4804 73.0361 82.3367 72.2716 84.1314C71.6759 85.5298 70.891 86.8351 69.908 88.0083C69.2185 88.8312 68.5308 89.6556 67.8363 90.4742C66.4921 92.0585 64.7328 92.9616 62.7894 93.5853C60.9773 94.1668 59.1467 94.6076 57.2305 94.6373C56.1895 94.6535 55.1408 94.8254 54.1102 94.7433C51.3853 94.5264 48.6262 94.5471 45.9737 93.7223C45.5386 93.587 45.1303 93.354 45.2589 92.9278C45.3444 92.6445 45.8285 92.3074 46.1418 92.2997C47.0638 92.2769 47.9896 92.4055 48.9138 92.4771C49.0635 92.4887 49.2123 92.5264 49.3616 92.527C50.4567 92.5314 51.552 92.5401 52.6469 92.5273C55.436 92.4946 58.0558 91.7963 60.5569 90.5687C62.9716 89.3834 65.2221 87.9678 67.0556 85.9834C68.9274 83.9576 70.4372 81.6798 71.4949 79.1191C71.5186 79.0618 71.5044 78.989 71.5468 78.8836ZM65.8662 69.9665C65.4679 70.4685 65.0005 70.9313 64.6873 71.4818C64.2107 72.3193 64.6017 73.1862 65.522 73.4647C66.0239 73.6166 66.5439 73.7912 67.0586 73.8006C68.1731 73.821 69.2894 73.7418 70.4049 73.7033C70.4403 73.6103 70.4757 73.5173 70.511 73.4244C69.5563 72.353 68.6182 71.2663 67.6409 70.216C67.04 69.5701 66.726 69.5466 65.8662 69.9665Z" fill="white"/>
<path d="M52.8376 82.2652C51.3441 84.1493 49.5801 85.6683 47.4835 86.7581C45.7751 87.6462 43.9866 88.3699 42.0504 88.5754C40.677 88.7212 39.2887 88.8732 37.9138 88.8259C35.1393 88.7304 32.6318 87.8885 30.7275 85.7273C29.8229 84.7008 29.3521 83.4373 29.0767 82.1408C28.8197 80.9307 28.6297 79.6657 28.6907 78.4388C28.7729 76.7849 29.0497 75.1292 29.383 73.5029C29.6437 72.2305 30.1049 70.9978 30.5073 69.7572C30.5821 69.5266 30.76 69.2666 30.9638 69.157C31.2035 69.028 31.6023 68.9243 31.7851 69.0406C31.9492 69.145 32.0197 69.5929 31.9492 69.8366C31.6102 71.0086 31.1502 72.1472 30.8418 73.3262C29.9803 76.6186 30.5082 79.6287 33.1596 81.9148C34.1304 82.7518 35.4589 83.2259 36.6886 83.6976C38.3114 84.3201 40.0209 84.1686 41.7277 84.0046C43.3788 83.8459 44.9592 83.4556 46.3868 82.6497C47.6191 81.9541 48.8486 81.1838 49.8897 80.2378C51.1016 79.1368 51.9812 77.7185 52.5614 76.1668C52.909 75.2373 52.4208 74.3769 52.0664 73.5716C50.962 71.0616 49.942 68.4915 48.568 66.1317C47.7564 64.7377 48.0368 63.5394 48.2764 62.2157C48.3743 61.6748 48.4935 61.136 48.6398 60.6064C48.6937 60.4113 48.873 60.085 48.9615 60.0957C49.2519 60.1308 49.6622 60.213 49.785 60.4202C50.4308 61.5097 51.0211 62.6336 51.5954 63.7635C52.4538 65.4523 53.4285 67.1014 53.8019 68.9877C54.0583 70.2826 54.2552 71.5929 54.4001 72.905C54.5118 73.9162 54.5892 74.9464 54.5264 75.9586C54.4037 77.9342 53.9891 79.861 53.2005 81.6902C53.1179 81.8817 52.9632 82.042 52.8376 82.2652Z" fill="white"/>
<path d="M325.045 70.7482C325.041 71.1876 325.141 71.6288 324.988 71.9516C324.621 72.7308 324.163 73.4714 323.693 74.1965C323.152 75.0311 322.429 75.0212 321.884 74.1933C321.422 73.4909 321.041 72.6892 320.094 72.5499C319.698 72.4917 319.235 72.474 318.883 72.6243C318.347 72.8524 317.845 73.2006 317.393 73.5747C316.734 74.1192 316.682 74.5821 317.263 75.2053C318.479 76.5115 319.924 77.4239 321.745 77.6861C323.737 77.973 325.68 77.7507 327.622 77.313C327.995 77.2291 328.402 77.301 328.969 77.301C328.602 77.9747 328.289 78.5744 327.951 79.1591C327.729 79.5427 327.446 79.892 327.233 80.2797C326.982 80.7341 326.584 80.9177 326.11 80.9591C324.109 81.1343 322.213 81.7446 320.362 82.4596C318.694 83.1039 317.085 83.9004 315.457 84.6471C314.998 84.8578 314.575 85.1448 314.12 85.3674C313.777 85.5354 313.411 85.6566 312.932 85.8475C313.071 83.0831 314.634 81.6892 317.04 80.8253C316.195 80.2828 315.499 79.8326 314.8 79.3882C314.119 78.9553 313.437 78.5475 313.067 77.76C312.591 76.7447 312.889 75.8591 313.444 75.017C314.939 72.7445 316.856 70.8684 319.111 69.376C320.348 68.5576 321.733 68.0213 323.238 68.8434C324.03 69.2761 324.607 69.9123 325.045 70.7482Z" fill="white"/>
<path d="M159.955 47.3035C160.174 49.0384 160.38 50.7152 160.616 52.3876C160.861 54.1191 161.15 55.8444 161.393 57.5762C161.591 58.9959 161.741 60.4225 161.929 61.8439C162.136 63.4108 162.385 64.9726 162.573 66.5417C162.702 67.6102 162.786 68.686 162.841 69.761C162.988 72.6194 163.216 75.4796 163.202 78.3381C163.193 80.0982 162.82 81.8595 162.554 83.6116C162.518 83.85 162.173 84.0858 161.917 84.2209C161.834 84.2644 161.479 84.0127 161.424 83.8403C161.31 83.4807 161.292 83.085 161.273 82.7022C161.177 80.7306 161.143 78.7548 160.993 76.7876C160.834 74.7128 160.601 72.6419 160.34 70.577C160.027 68.0986 159.642 65.6292 159.301 63.1542C159.027 61.1643 158.778 59.171 158.507 57.1807C158.253 55.3185 157.958 53.4615 157.731 51.5962C157.556 50.1666 157.445 48.7287 157.331 47.2925C157.261 46.4073 157.166 45.5146 157.211 44.6319C157.287 43.1669 157.521 41.7164 158.174 40.3778C158.279 40.1625 158.538 40.0225 158.726 39.8477C158.872 40.0588 159.108 40.2542 159.148 40.4837C159.316 41.4503 159.441 42.4252 159.554 43.4004C159.702 44.6798 159.823 45.9623 159.955 47.3035Z" fill="white"/>
<path d="M400.745 84.1233C400.626 84.5148 400.56 84.8825 400.376 85.1763C400.259 85.3621 399.967 85.5318 399.753 85.5315C399.594 85.5313 399.413 85.2638 399.283 85.0853C399.203 84.9762 399.173 84.8112 399.169 84.6699C399.118 82.9291 399.127 81.1849 399.019 79.4479C398.907 77.626 398.684 75.811 398.512 73.9927C398.42 73.0296 398.353 72.0637 398.24 71.1032C398.092 69.8515 397.906 68.6045 397.745 67.3544C397.641 66.5473 397.556 65.7377 397.455 64.9302C397.285 63.5725 397.1 62.2165 396.937 60.8578C396.832 59.9839 396.731 59.1081 396.672 58.2303C396.526 56.0522 396.334 53.8735 396.299 51.6929C396.277 50.3521 396.751 49.0776 397.446 47.9191C397.548 47.7493 397.862 47.5715 398.027 47.6107C398.216 47.6556 398.452 47.921 398.487 48.1217C398.62 48.901 398.686 49.6922 398.769 50.4797C398.99 52.5486 399.207 54.6179 399.425 56.6871C399.557 57.9458 399.67 59.2071 399.827 60.4627C400.022 62.0305 400.265 63.5925 400.468 65.1595C400.619 66.3281 400.753 67.4993 400.87 68.6719C401.057 70.5543 401.311 72.4359 401.373 74.3232C401.438 76.3233 401.35 78.3315 401.256 80.3328C401.202 81.4842 401.007 82.6291 400.869 83.7761C400.856 83.8769 400.789 83.971 400.745 84.1233Z" fill="white"/>
<path d="M298.223 74.4108C298.048 73.2798 297.877 72.2077 297.697 71.1371C297.414 69.4599 297.127 67.7835 296.839 66.1073C296.558 64.4739 296.272 62.8412 295.989 61.2081C295.691 59.4908 295.373 57.7766 295.103 56.0549C294.924 54.9142 294.859 53.7551 294.665 52.6178C294.353 50.7986 294.819 49.1167 295.481 47.4662C295.571 47.2423 295.912 46.9253 296.057 46.9623C296.289 47.0212 296.583 47.3196 296.624 47.5558C296.845 48.8367 296.979 50.1325 297.177 51.4177C297.391 52.8047 297.637 54.1868 297.88 55.569C298.163 57.1795 298.461 58.7873 298.748 60.3972C299.043 62.0499 299.342 63.7021 299.621 65.3574C299.827 66.5753 300.004 67.798 300.195 69.0184C300.363 70.0916 300.55 71.1621 300.695 72.2383C300.816 73.1311 300.939 74.0284 300.973 74.9271C301.049 76.9511 301.153 78.98 301.082 81.0012C301.044 82.106 300.683 83.2011 300.449 84.2967C300.366 84.6805 300.026 84.7145 299.743 84.6255C299.556 84.5667 299.328 84.3598 299.284 84.1791C299.151 83.6237 299.073 83.0514 299.016 82.4814C298.83 80.5997 298.667 78.7157 298.486 76.8335C298.41 76.0447 298.312 75.258 298.223 74.4108Z" fill="white"/>
<path d="M319.516 45.6075C320.948 45.5826 321.68 46.4103 322.137 47.7735C322.864 49.9445 322.64 52.1005 321.931 54.258C322.287 54.532 322.645 54.8345 323.031 55.0974C323.849 55.6566 323.596 56.4824 323.549 57.2316C323.524 57.6174 323.34 57.9995 323.19 58.3682C323.114 58.5565 322.947 58.8598 322.837 58.8529C322.562 58.8355 322.237 58.7352 322.038 58.5525C321.542 58.097 321.106 57.577 320.577 57.0094C320.102 57.7673 319.734 58.4056 319.316 59.0097C318.226 60.5868 316.829 61.855 315.181 62.8131C313.538 63.7678 311.849 64.6437 310.164 65.5227C309.818 65.7027 309.405 65.7921 309.014 65.8288C308.802 65.8488 308.398 65.6915 308.383 65.5764C308.351 65.3161 308.419 64.929 308.601 64.7755C309.594 63.9345 310.626 63.1387 311.659 62.346C313.281 61.101 314.938 59.8994 316.534 58.6214C317.234 58.0607 317.831 57.3676 318.453 56.7139C318.808 56.3406 318.829 56.0561 318.303 55.7042C317.277 55.0175 316.304 54.2445 315.353 53.4543C314.54 52.779 314.555 51.8529 314.815 50.9333C315.42 48.7937 316.566 47.02 318.475 45.8166C318.741 45.649 319.127 45.6725 319.516 45.6075ZM320.301 50.5924C320.083 50.0723 319.903 49.5319 319.639 49.0366C319.174 48.1654 318.37 48.1429 317.792 48.9493C317.644 49.1563 317.487 49.3576 317.333 49.5607C316.84 50.2122 316.892 50.7398 317.542 51.1851C318.425 51.7901 319.33 52.3645 320.285 52.9916C320.339 52.7237 320.433 52.4829 320.426 52.2448C320.413 51.7318 320.348 51.2202 320.301 50.5924Z" fill="white"/>
<path d="M89.3475 46.1722C90.1906 47.723 90.5062 49.3191 90.1651 51.019C90.0034 51.8245 89.8159 52.625 89.6626 53.432C89.6437 53.5316 89.7374 53.6869 89.8246 53.7658C90.0617 53.9801 90.3229 54.1677 90.5753 54.365C91.395 55.0063 91.5449 55.6428 91.1559 56.9045C91.0634 57.2048 90.933 57.4933 90.8264 57.7896C90.6387 58.3114 90.2974 58.4034 89.8915 58.0156C89.3448 57.4933 88.8139 56.9544 88.3713 56.5166C87.3582 57.8128 86.548 59.1454 85.4512 60.1718C84.2865 61.2618 82.8892 62.1251 81.5203 62.9687C80.3187 63.7092 79.0228 64.2996 77.7528 64.9243C77.4415 65.0774 77.0725 65.1404 76.7229 65.1772C76.5354 65.197 76.1827 65.1011 76.1657 65.009C76.1192 64.7582 76.1183 64.3989 76.267 64.2311C76.6782 63.767 77.1438 63.3367 77.6431 62.9675C79.8454 61.3391 82.1049 59.7853 84.264 58.1022C85.169 57.3967 85.8762 56.4375 86.6591 55.6086C85.3716 54.6282 84.1436 53.747 82.9811 52.7865C82.3484 52.2638 82.2682 51.4507 82.4363 50.7077C82.9406 48.4774 84.178 46.7122 86.0135 45.3525C87.1896 44.4812 88.8657 45.1573 89.3475 46.1722ZM88.0606 51.5664C88.1444 50.4754 87.9575 49.4416 87.4016 48.4886C86.898 47.6252 86.0352 47.5399 85.451 48.2997C85.2714 48.5333 85.1235 48.7912 84.9582 49.036C84.5117 49.697 84.595 50.1449 85.2475 50.5943C85.8059 50.9789 86.3571 51.3743 86.9227 51.7479C87.262 51.972 87.6229 52.1635 88.0606 52.4204C88.0606 52.0806 88.0606 51.885 88.0606 51.5664Z" fill="white"/>
<path d="M354.346 65.0599C353.58 65.4253 352.914 65.9122 352.045 65.8533C351.479 65.815 351.261 65.4833 351.607 65.0305C351.952 64.5786 352.346 64.1353 352.801 63.8018C354.719 62.3989 356.697 61.0787 358.594 59.6485C359.874 58.6825 361.163 57.6896 361.99 56.1856C361.244 55.642 360.479 55.1101 359.743 54.54C359.217 54.1318 358.7 53.7022 358.233 53.2284C357.634 52.6204 357.801 51.8152 357.976 51.1399C358.426 49.4115 359.238 47.8611 360.602 46.6407C362.177 45.2319 363.343 45.1947 364.663 46.8549C365.164 47.4857 365.333 48.4334 365.499 49.2673C365.818 50.871 365.484 52.4459 365.086 54.0036C365.057 54.1144 365.087 54.2801 365.156 54.3675C365.318 54.5718 365.489 54.8041 365.712 54.9191C366.869 55.5179 366.813 56.4789 366.533 57.5173C366.446 57.8424 366.364 58.1724 366.236 58.4821C366.156 58.6763 365.969 58.9966 365.873 58.9817C365.611 58.9406 365.34 58.7901 365.13 58.6145C364.705 58.2583 364.316 57.8576 363.913 57.4741C363.592 57.1686 363.462 57.331 363.238 57.6443C362.42 58.7874 361.68 60.0348 360.661 60.9721C359.454 62.0832 358.007 62.9426 356.627 63.8548C355.926 64.3186 355.142 64.659 354.346 65.0599ZM361.489 51.789C362.097 52.2348 362.706 52.6806 363.414 53.2C363.414 52.4659 363.513 51.8415 363.39 51.2646C363.226 50.497 362.966 49.7258 362.605 49.0304C362.181 48.2138 361.548 48.1744 360.917 48.8383C360.627 49.1436 360.395 49.5068 360.155 49.8562C359.892 50.24 359.876 50.6205 360.27 50.9342C360.637 51.2258 361.017 51.4991 361.489 51.789Z" fill="white"/>
<path d="M213.051 43.1187C213.599 41.438 214.58 40.1368 215.94 39.0961C217.205 38.1289 218.494 38.5338 219.23 39.7485C219.778 40.6529 220.066 41.6437 220.025 42.7207C219.999 43.3986 220.076 44.0844 220.003 44.7553C219.93 45.4182 219.727 46.0669 219.56 46.8182C219.743 46.9606 219.987 47.1624 220.243 47.3487C221.015 47.9102 221.266 48.6201 220.995 49.5649C220.863 50.027 220.701 50.4807 220.552 50.9379C220.408 51.3791 220.172 51.3496 219.889 51.0655C219.437 50.6128 218.987 50.1582 218.533 49.7078C218.247 49.424 218.082 49.5178 217.906 49.858C216.614 52.3497 214.624 54.1421 212.182 55.4546C210.809 56.193 209.403 56.8712 208.012 57.5766C207.994 57.5859 207.975 57.6071 207.958 57.6055C207.558 57.5685 206.939 57.6705 206.803 57.4605C206.53 57.0381 206.965 56.6469 207.317 56.3836C208.967 55.1456 210.65 53.95 212.288 52.6959C213.769 51.5616 215.332 50.5096 216.456 48.9724C216.543 48.8528 216.614 48.7214 216.691 48.5988C215.669 47.8136 214.666 47.0083 213.625 46.2549C212.803 45.6601 212.684 44.8506 212.801 43.9503C212.835 43.6852 212.963 43.4321 213.051 43.1187ZM216.551 44.6829C217.06 45.0134 217.569 45.344 218.078 45.6745C218.16 45.6209 218.242 45.5674 218.324 45.5139C218.136 44.5145 218.006 43.4996 217.741 42.5214C217.57 41.89 217.145 41.2125 216.46 41.1881C215.756 41.163 215.384 41.8798 215.033 42.4385C214.651 43.0467 214.764 43.4786 215.364 43.8871C215.731 44.137 216.104 44.3786 216.551 44.6829Z" fill="white"/>
<path d="M112.474 61.8067C113.073 62.256 113.62 62.7006 114.21 63.077C114.59 63.3195 114.58 63.631 114.38 63.8862C113.574 64.9133 112.74 65.918 111.89 66.909C111.5 67.3643 110.949 67.2762 110.537 67.0149C109.622 66.4348 108.764 65.7653 107.811 65.0809C107.229 65.7549 106.52 66.452 105.962 67.254C105.367 68.1096 104.713 68.475 103.748 67.6572C102.806 66.8586 101.888 66.0286 101.01 65.1606C100.861 65.0134 100.846 64.509 100.981 64.3328C101.803 63.264 102.669 62.2282 103.556 61.2118C103.929 60.7844 104.341 60.9032 104.727 61.28C105.382 61.919 106.061 62.5341 106.727 63.162C107.017 63.436 107.203 63.4417 107.485 63.0778C108.209 62.146 108.988 61.255 109.774 60.3742C110.212 59.8835 110.56 59.9648 111.011 60.4564C111.448 60.932 111.961 61.3372 112.474 61.8067Z" fill="white"/>
<path d="M266.384 70.4817C266.022 70.0359 265.621 69.6606 265.384 69.2009C265.099 68.6507 265.696 68.3467 265.949 67.996C266.551 67.1633 267.241 66.3936 267.909 65.6105C268.272 65.1852 268.694 65.206 269.131 65.6005C269.834 66.2361 270.569 66.838 271.258 67.4882C271.575 67.7875 271.774 67.7028 272.004 67.4223C272.725 66.5439 273.464 65.6798 274.166 64.787C274.544 64.3069 275.048 64.3008 275.457 64.6836C276.403 65.5686 277.37 66.4404 278.402 67.2195C279.071 67.7245 279.156 67.7896 278.649 68.406C277.887 69.3311 277.17 70.2958 276.364 71.1797C276.039 71.5361 275.504 71.692 275.028 71.359C274.154 70.7482 273.303 70.1052 272.345 69.4041C271.725 70.1447 271.016 70.9426 270.366 71.7856C269.843 72.462 269.352 72.6447 268.612 72.165C267.845 71.6685 267.146 71.0692 266.384 70.4817Z" fill="white"/>
<path d="M221.057 67.8996C221.711 67.5335 221.938 67.6857 222.433 68.1478C223.272 68.9309 224.217 69.602 225.123 70.3122C225.304 70.4543 225.552 70.5266 225.7 70.6926C225.872 70.8853 226.017 71.0826 225.738 71.3961C224.87 72.3706 224.068 73.4027 223.222 74.3967C222.851 74.8324 222.343 74.7653 221.941 74.5112C221.136 74.0024 220.392 73.3978 219.596 72.8742C219.45 72.778 219.08 72.7888 218.975 72.9012C218.334 73.593 217.717 74.3109 217.136 75.0545C216.698 75.6142 216.24 75.7678 215.67 75.3589C214.635 74.6161 213.598 73.87 212.626 73.0494C212.268 72.7472 212.071 72.2371 212.477 71.7465C213.296 70.7581 214.106 69.7618 214.927 68.7746C215.304 68.3212 215.666 68.3843 216.07 68.783C216.864 69.5649 217.688 70.3154 218.53 71.1069C219.424 69.9715 220.224 68.9554 221.057 67.8996Z" fill="white"/>
<path d="M338.517 49.1847C337.423 48.8627 336.387 48.5242 335.269 48.6272C333.715 48.7704 332.396 49.3164 331.452 50.6378C331.306 50.8417 330.914 50.8697 330.636 50.979C330.609 50.711 330.491 50.4126 330.569 50.1797C331.313 47.9584 332.663 46.3312 335.053 45.7858C336.267 45.5087 337.482 45.5405 338.681 45.8757C340.202 46.3011 341.716 46.7496 343.235 47.1838C343.719 47.3221 343.997 47.5119 343.714 48.0951C343.397 48.7514 343.252 49.5045 342.868 50.1112C342.619 50.5034 342.049 50.6778 341.668 51.0031C340.448 52.0466 339.149 52.938 337.581 53.387C336.305 53.7525 335.047 54.1841 333.76 54.5029C333.432 54.5842 333.025 54.3483 332.672 54.2624C332.92 52.9773 333.976 52.7827 334.755 52.3295C336.215 51.4803 337.735 50.7352 339.228 49.942C339.333 49.8861 339.417 49.7907 339.549 49.6825C339.188 49.509 338.876 49.3591 338.517 49.1847Z" fill="white"/>
<path d="M34.4846 46.1651C32.6193 46.9643 30.7983 47.7361 28.9772 48.5079C28.8812 48.5486 28.7884 48.6125 28.6886 48.6265C27.9273 48.733 27.9049 48.5946 28.0224 47.8637C28.2893 46.2034 29.4318 45.5046 30.8301 44.9526C32.6109 44.2496 34.3591 43.4641 36.1232 42.7187C38.4298 41.7442 40.7432 40.7856 43.0442 39.7983C44.8057 39.0424 46.5485 38.2429 48.3091 37.4849C48.7082 37.3131 49.1467 37.2327 49.6384 37.0895C49.7951 38.0361 49.2922 38.6641 48.9358 39.2995C48.3586 40.3285 47.2445 40.6735 46.2546 41.1247C44.3975 41.9713 42.511 42.7538 40.633 43.5543C38.6005 44.4206 36.5638 45.277 34.4846 46.1651Z" fill="white"/>
<path d="M112.421 43.5291C112.055 44.2115 111.765 44.8228 110.963 45.1148C110.412 45.3156 109.997 45.8766 109.508 46.2608C108.166 47.3153 106.571 47.7911 104.963 48.2355C104.293 48.4206 103.624 48.6098 102.954 48.7983C102.853 48.8268 102.738 48.9101 102.656 48.8845C102.343 48.788 102.041 48.657 101.735 48.5389C101.886 48.2248 101.954 47.7874 102.203 47.6196C102.953 47.114 103.77 46.7058 104.568 46.2737C105.719 45.651 106.878 45.0443 108.029 44.421C108.19 44.3338 108.32 44.1907 108.485 44.0575C105.647 42.585 103.599 42.5439 101.106 44.2179C100.797 44.4251 100.62 44.8185 100.336 45.0749C100.179 45.2163 99.9273 45.2522 99.7183 45.3357C99.6447 45.1268 99.4795 44.9024 99.5117 44.7114C99.8857 42.4946 102.339 40.3745 104.533 40.0545C106.382 39.7847 108.012 40.352 109.692 40.8851C110.372 41.1011 111.078 41.2391 111.775 41.4007C112.85 41.6501 112.97 41.8493 112.64 42.8856C112.576 43.0868 112.518 43.2899 112.421 43.5291Z" fill="white"/>
<path d="M267.496 50.564C267.335 50.6192 267.156 50.6826 267.091 50.806C266.306 52.2798 265.114 53.1065 263.421 53.0941C261.453 53.0796 260.719 51.8241 260.704 50.2346C260.693 48.9749 261.166 47.8031 261.813 46.7091C262.045 46.3159 262.369 46.3245 262.672 46.4559C262.769 46.498 262.758 46.8828 262.729 47.1017C262.668 47.5607 262.535 48.0105 262.478 48.4698C262.296 49.9389 263.456 50.3143 264.589 49.9941C266.172 49.5468 266.698 48.2761 266.933 46.8316C267.064 46.0276 267.317 45.3536 268.163 45.0827C268.322 45.0316 268.587 44.9839 268.659 45.064C268.756 45.1725 268.716 45.4058 268.732 45.5859C268.789 46.23 268.671 46.9577 268.935 47.5009C269.485 48.6343 270.488 48.827 271.475 48.1019C271.647 47.9761 271.816 47.8469 272.071 47.6546C271.904 47.0552 271.716 46.4176 271.555 45.7732C271.522 45.6404 271.559 45.467 271.619 45.338C271.895 44.7451 272.175 44.1528 272.489 43.58C272.57 43.4311 272.805 43.2432 272.927 43.2694C273.089 43.3044 273.285 43.5091 273.336 43.6799C274.04 46.0281 273.919 48.3174 272.546 50.3923C272.053 51.1368 271.086 51.2848 270.217 51.3825C269.225 51.4941 268.311 51.2544 267.496 50.564Z" fill="white"/>
<path d="M236.203 98.0516C241.665 95.7329 247.076 93.4162 252.518 91.0862C252.729 92.3061 251.805 94.0461 250.615 94.6205C248.87 95.4622 247.087 96.2267 245.308 96.9944C243.278 97.8703 241.235 98.7181 239.195 99.5698C237.661 100.21 236.123 100.842 234.581 101.465C234.427 101.527 234.123 101.562 234.083 101.494C233.984 101.329 233.94 101.083 233.978 100.892C234.24 99.5983 234.74 98.4729 236.203 98.0516Z" fill="white"/>
<path d="M184.521 54.5428C179.486 56.6891 174.458 58.7188 169.387 60.7282C169.113 59.188 170.04 57.7502 171.484 57.1728C174.181 56.0946 176.867 54.988 179.555 53.8852C182.105 52.8384 184.65 51.7768 187.204 50.7376C187.394 50.6604 187.636 50.711 187.853 50.7022C187.841 50.9411 187.872 51.1923 187.809 51.417C187.341 53.0843 186.096 53.9589 184.521 54.5428Z" fill="white"/>
<path d="M138.496 92.4909C139.711 91.9379 140.885 91.413 142.064 90.9021C142.424 90.7462 142.8 90.6289 143.257 90.4617C143.248 91.7493 142.873 92.8182 141.9 93.4226C140.582 94.2415 139.149 94.8851 137.735 95.5406C136.17 96.2669 134.573 96.9287 132.985 97.6063C130.565 98.639 128.143 99.6675 125.713 100.679C125.446 100.79 125.126 100.776 124.723 100.837C124.94 100.085 125.072 99.4784 125.291 98.9057C125.527 98.2902 126.006 97.9019 126.627 97.6419C128.492 96.8619 130.342 96.0471 132.196 95.2432C134.283 94.3384 136.369 93.4307 138.496 92.4909Z" fill="white"/>
<path d="M267.239 36.0521C265.683 36.7174 264.172 37.3599 262.651 37.9769C260.857 38.704 259.058 39.4172 257.253 40.1123C257.041 40.1936 256.771 40.1213 256.528 40.1203C256.547 39.9064 256.549 39.689 256.591 39.4795C256.632 39.2749 256.733 39.0823 256.773 38.8775C257.029 37.5593 258.07 37.1056 259.15 36.6708C261.297 35.8068 263.442 34.9366 265.577 34.0423C268.023 33.0176 270.454 31.9568 272.9 30.9317C273.223 30.7962 273.596 30.7786 274.03 30.6891C274.06 31.7295 273.642 32.5495 272.998 33.1231C272.286 33.7579 271.408 34.2379 270.543 34.663C269.488 35.1813 268.37 35.5722 267.239 36.0521Z" fill="white"/>
<path d="M378.749 95.2755C377.49 94.4639 376.489 93.443 375.64 92.2859C375.498 92.0923 375.541 91.5685 375.706 91.3768C376.501 90.456 377.36 89.591 378.209 88.7185C378.607 88.3093 379.209 88.3845 379.565 88.7549C380.497 89.7233 381.439 90.6857 382.441 91.5798C382.799 91.8995 382.847 92.0895 382.537 92.4009C381.641 93.3006 380.767 94.2246 379.825 95.0741C379.602 95.2758 379.149 95.2233 378.749 95.2755Z" fill="white"/>
<path d="M37.2944 53.9864C37.76 53.521 38.1866 53.0821 38.6276 52.6581C38.9871 52.3124 39.4761 52.3993 39.8063 52.741C40.7385 53.7056 41.6709 54.6762 42.6771 55.5603C43.0814 55.9155 43.0646 56.1027 42.7406 56.4246C41.857 57.3026 40.9823 58.1895 40.0964 59.0652C39.8082 59.3501 38.9513 59.3846 38.6701 59.1086C37.7589 58.2142 36.854 57.3129 35.9656 56.3959C35.6122 56.031 35.6201 55.641 36.0093 55.2704C36.4365 54.8637 36.8449 54.4372 37.2944 53.9864Z" fill="white"/>
<path d="M342.385 63.7384C342.265 63.9593 342.167 64.1507 342.023 64.2976C341.258 65.0769 340.482 65.8453 339.71 66.6171C339.176 67.1503 338.651 67.2666 338.09 66.7578C337.095 65.8565 336.166 64.8769 335.271 63.8751C335.15 63.7399 335.288 63.1971 335.473 62.9961C336.299 62.0968 337.175 61.2425 338.054 60.3936C338.43 60.0312 338.823 60.0896 339.179 60.4729C339.857 61.2031 340.533 61.9365 341.23 62.6481C341.592 63.0174 341.998 63.343 342.385 63.7384Z" fill="white"/>
<path d="M273.225 60.1049C273.418 60.2456 273.574 60.3575 273.738 60.455C274.615 60.9754 274.616 61.047 273.965 61.7912C273.289 62.5654 272.64 63.364 271.985 64.1575C271.673 64.5367 270.866 64.7335 270.473 64.4263C269.428 63.609 268.397 62.77 267.415 61.8792C267.242 61.7224 267.188 61.1593 267.329 60.9782C268.106 59.9784 268.954 59.0332 269.792 58.0815C270.142 57.6846 270.531 57.7201 270.914 58.0592C271.672 58.7307 272.432 59.3996 273.225 60.1049Z" fill="white"/>
<path d="M103.262 56.5366C103.402 56.117 103.515 55.6826 103.767 55.3527C104.389 54.5355 105.077 53.7687 105.732 52.9762C106.023 52.625 106.671 52.5511 106.986 52.9119C107.904 53.9657 108.966 54.8441 110.169 55.5408C110.649 55.8192 110.376 56.1402 110.229 56.324C109.449 57.2952 108.627 58.2322 107.806 59.1697C107.445 59.5823 106.961 59.5153 106.57 59.2924C105.322 58.5816 104.187 57.7188 103.262 56.5366Z" fill="white"/>
<path d="M219.803 63.1878C220.203 63.4354 220.552 63.6747 220.924 63.8693C221.295 64.0633 221.304 64.3055 221.071 64.5919C220.452 65.3552 219.823 66.1105 219.197 66.8681C219.033 67.0662 218.883 67.2796 218.697 67.4542C218.339 67.7891 217.906 68.0208 217.463 67.6759C216.453 66.8882 215.473 66.0614 214.492 65.2373C214.062 64.8766 214.118 64.4185 214.416 64.034C215.16 63.0731 215.938 62.1375 216.718 61.2054C217.008 60.8596 217.341 60.8838 217.667 61.1923C218.363 61.851 219.063 62.5044 219.803 63.1878Z" fill="white"/>
</svg>
