<svg width="430" height="144" viewBox="0 0 430 144" fill="none" xmlns="http://www.w3.org/2000/svg">
<path d="M110.747 80.3689C111.72 79.3582 112.249 78.1521 112.689 76.8961C112.696 76.8762 112.685 76.8491 112.693 76.8308C112.886 76.4289 112.925 75.7918 113.596 75.9888C114.242 76.1785 114.061 76.7878 113.973 77.2176C113.685 78.6332 113.326 80.0344 112.959 81.5914C114.283 82.0029 115.635 82.4851 117.022 82.8315C117.876 83.0451 118.668 82.4235 119.107 81.3391C119.534 80.2827 119.773 79.149 120.082 78.0456C120.231 77.5146 120.345 76.9739 120.485 76.4401C120.613 75.9502 120.966 75.6839 121.421 75.8678C121.655 75.9625 121.895 76.3552 121.908 76.6241C121.934 77.1544 121.844 77.7017 121.724 78.224C121.627 78.6427 121.672 78.8754 122.083 79.1108C124.678 80.5951 127.469 81.2305 130.427 80.9835C132.771 80.7877 134.939 79.9926 136.888 78.647C136.936 78.6139 136.96 78.5451 137.019 78.4566C135.799 77.5116 134.465 76.8921 132.948 76.6215C131.721 76.4025 130.577 76.5239 129.459 77.0884C128.919 77.3611 128.506 77.059 128.55 76.4389C128.578 76.0428 128.634 75.6026 128.829 75.272C129.994 73.2967 131.362 71.5079 133.52 70.5034C134.583 70.0083 135.709 69.8634 136.863 69.7261C138.528 69.5281 140.137 69.7566 141.659 70.3127C143.084 70.833 144.499 71.4625 145.651 72.5323C146.414 73.2412 146.455 74.119 146.301 75.0392C146.024 76.6886 145.027 77.86 143.724 78.8158C143.582 78.9199 143.453 79.0411 143.307 79.1638C146.231 81.0184 148.604 81.4911 151.214 79.9337C151.817 79.5738 152.298 79.1822 152.085 78.2276C151.819 77.0319 151.9 75.7626 151.769 74.5316C151.637 73.292 151.414 72.0625 151.258 70.825C151.105 69.6036 151.005 68.3755 150.849 67.1546C150.649 65.5976 150.408 64.046 150.201 62.49C150.053 61.3786 149.944 60.2619 149.794 59.1506C149.588 57.6167 149.351 56.0869 149.145 54.553C148.995 53.4417 148.889 52.3246 148.737 51.2137C148.534 49.7236 148.232 48.2431 148.107 46.7471C147.98 45.2172 147.711 43.7351 147.15 42.3117C146.91 41.7006 146.637 41.0941 146.305 40.529C145.936 39.9002 146.126 39.3873 146.483 38.8633C147.059 38.0159 147.648 37.1763 148.202 36.3146C148.543 35.7831 148.595 35.7271 149.293 35.7802C149.883 37.7697 151.087 39.4426 152.29 41.1283C153.259 42.487 152.905 42.6769 151.975 43.9371C151.833 44.1299 151.663 44.3277 151.46 44.4457C150.466 45.0258 150.619 45.9622 150.736 46.8469C150.963 48.5704 151.245 50.2868 151.516 52.0044C151.816 53.9115 152.151 55.8134 152.428 57.7238C152.641 59.1957 152.78 60.6784 152.969 62.154C153.177 63.7764 153.428 65.3935 153.617 67.018C153.746 68.1383 153.825 69.2661 153.886 70.3927C154.032 73.0729 154.269 75.7551 154.25 78.4349C154.235 80.5471 153.625 82.541 151.971 84.0535C150.9 85.0327 149.712 85.6246 148.222 85.7998C146.268 86.0296 144.511 85.6616 142.94 84.5496C142.343 84.1274 141.927 83.4457 141.437 82.8756C140.987 82.3526 140.548 81.8208 140.104 81.2925C138.904 81.9115 137.721 82.5665 136.5 83.1421C134.497 84.0866 132.429 84.8597 130.207 85.0974C129.067 85.2194 127.919 85.3556 126.775 85.3509C124.76 85.3427 122.918 84.7288 121.308 83.482C120.582 82.9204 120.568 82.9697 120.192 83.831C119.701 84.9546 119.409 86.1957 118.451 87.0735C117.484 87.9603 116.326 88.1566 115.091 87.9604C113.409 87.6932 112.087 86.7255 110.996 85.7434C109.983 86.3525 109.084 87.0197 108.086 87.4653C106.214 88.3017 104.356 87.7744 102.532 87.1603C100.907 86.6135 99.463 85.7251 98.0383 84.7928C97.8268 84.6544 97.4559 84.5868 97.229 84.6729C94.9353 85.5431 92.6536 86.4457 90.3774 87.3614C90.1725 87.4438 89.922 87.6553 89.8745 87.8512C89.172 90.7456 88.2055 93.5516 87.0684 96.2982C86.2037 98.3869 85.3213 100.502 83.7839 102.184C82.5705 103.511 81.0846 104.557 79.3725 105.223C78.1257 105.708 76.8451 105.926 75.5075 106.038C71.6329 106.365 67.9685 105.594 64.417 104.128C63.3598 103.692 62.332 103.184 61.2948 102.7C61.1226 102.619 60.9369 102.523 60.8176 102.383C60.5616 102.082 59.9311 101.814 60.41 101.345C60.7022 101.059 61.2927 100.843 61.6733 100.929C62.6767 101.158 63.6248 101.619 64.6198 101.898C66.7481 102.496 68.9254 102.905 71.1366 102.683C73.2304 102.474 75.3321 102.166 77.2544 101.213C79.8389 99.9314 81.7743 97.9177 83.3154 95.5303C84.7634 93.2871 86.1111 90.9781 87.0481 88.3761C86.8677 88.4363 86.7345 88.4815 86.6007 88.5253C85.5744 88.8615 85.1137 88.6829 84.6758 87.6501C84.3295 86.8331 84.0501 85.9844 83.791 85.1344C83.607 84.5305 83.9776 84.0194 84.7409 83.7844C86.6429 83.1988 88.5766 82.7055 90.4493 82.0387C92.5404 81.2942 94.5658 80.3659 96.6454 79.5861C97.4689 79.2773 98.1791 78.6164 99.1605 78.7396C99.4925 78.7812 99.7684 78.7598 99.7577 79.2197C99.7385 80.044 99.7523 80.8691 99.7523 81.849C100.777 82.1124 101.953 82.449 103.145 82.7084C103.857 82.8632 104.593 82.9564 105.321 82.9726C106.695 83.0031 107.999 82.6774 109.118 81.8512C109.693 81.4269 110.184 80.8886 110.747 80.3689Z" fill="white"/>
<path d="M339.45 92.1596C338.087 94.5203 336.263 96.3725 333.852 97.5065C332.726 98.0365 331.423 98.3351 330.176 98.4344C327.626 98.6374 325.086 98.3945 322.642 97.5446C320.413 96.7696 318.281 95.7871 316.296 94.4986C315.974 94.2894 315.605 94.0022 315.812 93.6245C315.964 93.3497 316.415 93.0538 316.704 93.0805C317.345 93.1399 317.962 93.4194 318.598 93.568C320.17 93.9352 321.736 94.3435 323.325 94.6184C326.04 95.088 328.689 94.5828 331.285 93.8211C332.516 93.4598 333.558 92.7023 334.568 91.9003C336.116 90.6718 337.3 89.1341 338.371 87.5121C339.093 86.4198 339.664 85.2275 340.311 84.0653C338.463 82.8464 337.417 81.2469 337.452 79.1014C337.476 77.5778 338.082 76.1974 338.852 74.9041C338.964 74.7161 339.275 74.5338 339.477 74.5502C339.633 74.5628 339.844 74.8743 339.89 75.0839C340.118 76.1243 340.448 77.1197 341.242 77.8601C341.89 78.4641 342.557 79.08 343.31 79.5326C345.907 81.0936 348.745 82.018 351.735 82.4472C353.036 82.6339 354.349 82.7469 355.661 82.845C356.769 82.928 357.888 83.0289 358.993 82.9644C360.56 82.8729 362.125 82.678 363.68 82.4543C367.457 81.9111 371.085 80.7777 374.698 79.5904C376.101 79.1292 377.499 78.6521 378.952 78.0121C378.53 77.8175 378.125 77.5579 377.683 77.4395C375.613 76.8852 373.555 76.2326 371.449 75.8871C369.97 75.6444 368.419 75.8404 366.9 75.8376C365.234 75.8345 363.599 76.0519 361.988 76.4832C361.812 76.5302 361.441 76.4279 361.412 76.3243C361.344 76.08 361.351 75.7539 361.464 75.5311C361.763 74.9452 362.14 74.3997 362.475 73.832C362.636 73.5609 362.79 73.2834 362.916 72.9956C363.402 71.8944 364.332 71.3987 365.435 71.2199C366.813 70.9969 368.2 70.8313 369.588 70.6821C371.435 70.4835 373.285 70.3156 375.135 70.155C375.613 70.1135 376.097 70.1487 376.675 70.1487C376.619 69.3191 376.602 68.5213 376.503 67.7338C376.365 66.6272 376.173 65.5271 375.991 64.4265C375.75 62.9683 375.495 61.5123 375.247 60.0551C374.967 58.4081 374.688 56.7609 374.408 55.1138C374.19 53.8253 373.958 52.539 373.758 51.2476C373.561 49.9741 373.477 48.6775 373.194 47.4248C372.982 46.4839 372.608 45.5586 372.167 44.6975C371.838 44.0548 371.967 43.6112 372.311 43.0604C372.872 42.1624 373.357 41.2164 373.867 40.2866C373.977 40.0855 374.03 39.85 374.154 39.6597C374.5 39.1297 374.999 39.1706 375.289 39.7359C375.986 41.096 376.675 42.4611 377.39 43.8118C377.608 44.2236 377.89 44.6041 378.164 44.9833C378.901 46.0027 378.621 46.3699 377.983 47.1689C377.569 47.6873 377.135 48.1898 376.722 48.7094C376.663 48.7838 376.643 48.9197 376.658 49.0188C376.864 50.353 377.093 51.6837 377.289 53.0193C377.448 54.106 377.562 55.1993 377.712 56.2874C377.915 57.7561 378.143 59.2213 378.342 60.6904C378.458 61.546 378.536 62.4067 378.634 63.2646C378.807 64.7647 379.029 66.2609 379.143 67.7654C379.232 68.9297 379.069 70.0874 378.587 71.1703C378.373 71.6507 378.107 72.1075 377.852 72.5993C379.707 73.5714 381.686 74.2549 383.754 74.6336C385.775 75.0037 387.81 75.3087 389.848 75.5599C391.48 75.7609 393.127 75.8374 394.766 75.9713C395.262 76.0117 395.759 76.0442 396.251 76.1076C396.9 76.191 397.083 76.6236 396.767 77.3207C396.215 78.5383 395.654 79.7513 395.057 81.0505C394.2 80.8971 393.307 80.7886 392.441 80.572C390.691 80.1341 388.941 80.1745 387.156 80.3156C384.362 80.5364 381.719 81.3533 379.101 82.234C376.179 83.2168 373.342 84.451 370.417 85.424C368.127 86.186 365.773 86.769 363.422 87.3256C362.423 87.5623 361.361 87.5595 360.325 87.6114C358.147 87.7207 355.964 87.9194 353.79 87.851C351.029 87.7641 348.27 87.4617 345.627 86.5557C344.689 86.2342 343.776 85.84 342.821 85.4668C341.875 87.7882 340.846 90.0397 339.45 92.1596Z" fill="white"/>
<path d="M240.513 52.9725C240.797 52.0489 241.32 51.7387 241.778 52.1845C242.151 52.5462 242.501 52.9352 242.823 53.3427C244.142 55.0139 245.141 56.8636 245.612 58.946C245.992 60.6262 246.107 62.3448 245.793 64.0581C245.605 65.0827 245.41 66.1113 245.122 67.1104C244.846 68.068 244.215 68.7745 243.271 69.1705C240.926 70.1546 238.566 71.1086 236.068 71.6268C234.354 71.9823 232.628 72.326 230.89 72.5045C228.965 72.7023 227.016 72.8184 225.083 72.763C223.079 72.7055 221.069 72.3543 219.218 71.5605C217.367 70.7661 215.664 69.6712 214.285 68.1483C214.199 68.053 214.099 67.9702 213.981 67.8591C210.68 70.2029 207.956 73.0274 206.281 76.7418C205.397 78.7014 204.813 80.757 204.434 82.8916C204.077 84.9099 203.97 86.93 204.093 88.9479C204.266 91.7931 205.097 94.421 207.036 96.6316C209.01 98.8811 211.526 100.083 214.374 100.721C216.34 101.161 218.327 101.387 220.343 101.389C221.036 101.39 221.733 101.534 222.423 101.503C224.68 101.402 226.937 101.266 229.192 101.111C230.658 101.01 232.122 100.876 233.583 100.714C235.335 100.52 237.08 100.257 238.833 100.07C240.061 99.9381 241.296 99.8457 242.53 99.819C242.861 99.8118 243.199 100.109 243.535 100.266C243.379 100.557 243.276 100.901 243.057 101.131C242.283 101.94 241.202 102.138 240.193 102.431C235.879 103.683 231.567 104.946 227.226 106.1C225.744 106.494 224.188 106.653 222.654 106.789C221.111 106.925 219.549 106.992 218.003 106.921C214.763 106.772 211.711 105.929 208.921 104.203C205.678 102.198 203.719 99.2282 202.563 95.6861C201.951 93.8086 201.549 91.8712 201.552 89.8703C201.553 89.043 201.414 88.2138 201.438 87.3884C201.518 84.6286 201.913 81.923 202.726 79.2671C203.425 76.9831 204.204 74.7299 205.413 72.6808C206.656 70.5726 208.073 68.5649 209.463 66.547C209.982 65.7919 210.64 65.1319 211.252 64.4073C209.926 62.5761 208.172 62.6327 206.526 63.9129C206.423 63.9931 206.352 64.1515 206.243 64.1801C205.984 64.2473 205.687 64.3336 205.454 64.26C205.335 64.2227 205.225 63.8337 205.271 63.6423C205.737 61.7033 206.362 59.8035 207.765 58.3361C208.976 57.0699 210.586 56.4379 212.287 56.1348C213.304 55.9536 214.351 55.8614 215.383 55.8693C217.635 55.8865 219.641 56.703 221.377 58.0997C221.746 58.397 222.019 59.0784 221.99 59.5621C221.885 61.3268 221.31 62.9583 220.038 64.2423C219.632 64.6512 219.077 64.9111 218.588 65.241C220.108 66.4592 221.91 66.9793 223.754 67.2023C225.694 67.4369 227.679 67.5937 229.62 67.4515C231.805 67.2914 234 66.9045 236.122 66.3504C238.49 65.7323 240.78 64.8187 243.101 64.0248C243.47 63.8985 243.722 63.6783 243.467 63.2402C242.797 62.0857 242.144 60.9203 241.449 59.7809C241.127 59.2529 240.773 58.7251 240.344 58.2857C239.571 57.4946 239.889 56.6208 240.036 55.7482C240.189 54.8409 240.354 53.9357 240.513 52.9725Z" fill="white"/>
<path d="M284.487 67.3428C284.62 68.2514 284.772 69.0976 284.877 69.9495C285.277 73.1919 285.37 76.4512 285.254 79.7105C285.215 80.7984 285.225 81.9226 284.527 82.9214C283.98 83.7043 283.211 84.1417 282.41 84.3914C281.118 84.7941 279.759 84.9951 278.419 85.2238C277.673 85.3512 276.906 85.3622 276.191 85.4221C275.485 87.161 274.83 88.9479 274.036 90.6707C273.381 92.0947 272.57 93.4478 271.812 94.8233C271.125 96.0688 270.242 97.1551 269.195 98.1238C267.408 99.7771 265.349 100.899 262.941 101.226C261.374 101.439 259.762 101.603 258.197 101.47C256.272 101.306 254.341 100.935 252.477 100.42C250.692 99.9263 248.988 99.1384 247.254 98.4651C246.981 98.3588 246.694 98.2171 246.492 98.0138C246.296 97.8179 246.026 97.4159 246.1 97.2909C246.248 97.0427 246.619 96.7655 246.882 96.781C247.531 96.8193 248.21 96.9183 248.806 97.1663C251.142 98.1391 253.569 98.5315 256.07 98.3246C259.717 98.0227 263.26 97.3052 266.239 94.9706C267.833 93.7208 269.211 92.2398 270.29 90.5154C271.372 88.7857 272.391 87.0156 273.434 85.2613C273.486 85.1727 273.509 85.0661 273.558 84.9336C272.457 84.5096 271.569 83.8975 271.096 82.7612C270.643 81.6716 270.462 80.5825 270.749 79.4311C270.827 79.1145 270.927 78.5353 271.017 78.5351C271.448 78.5345 271.963 78.5737 272.296 78.8127C274.292 80.2487 276.518 80.2373 278.793 79.9388C279.828 79.8029 280.873 79.6628 281.879 79.3951C283.27 79.025 283.565 78.3733 283.283 76.9715C283.021 75.6691 282.852 74.3481 282.635 73.0364C282.341 71.2602 282.041 69.4853 281.745 67.7095C281.512 66.3141 281.285 64.9176 281.051 63.5225C280.759 61.7899 280.453 60.0598 280.171 58.3256C279.965 57.0537 279.792 55.7764 279.598 54.5026C279.432 53.4208 279.236 52.3434 279.094 51.2587C279.004 50.5713 279.111 49.837 278.914 49.1894C278.534 47.9384 278.043 46.7153 277.513 45.5186C277.277 44.9859 277.128 44.5959 277.534 44.0636C278.245 43.1328 278.859 42.1287 279.533 41.1694C279.967 40.5535 280.444 40.6131 280.788 41.2852C281.474 42.6242 282.158 43.9637 282.863 45.2923C283.111 45.7599 283.387 46.2202 283.705 46.6413C284.165 47.2476 283.923 47.7241 283.493 48.1752C283.007 48.6854 282.515 49.1916 281.996 49.6676C281.616 50.0164 281.5 50.4393 281.587 50.9059C282.102 53.6585 282.66 56.4031 283.153 59.1594C283.587 61.5857 283.955 64.0238 284.353 66.4568C284.398 66.732 284.441 67.0075 284.487 67.3428Z" fill="white"/>
<path d="M177.353 95.2592C180.169 93.9225 182.683 92.229 184.673 89.8802C185.732 88.6315 186.641 87.2422 187.503 85.8455C188.042 84.9728 188.377 83.9718 188.782 83.0191C188.867 82.8173 188.86 82.5755 188.896 82.344C188.063 82.4778 187.311 82.6533 186.55 82.7083C185.31 82.7979 184.065 82.8412 182.821 82.8457C180.656 82.8536 179.056 81.5077 178.595 79.3625C178.145 77.2655 178.635 75.273 179.43 73.3312C180.036 71.8513 180.914 70.5313 181.972 69.3672C183.15 68.0707 184.805 67.5293 186.46 69.1079C188.93 71.4652 190.34 74.4192 190.966 77.708C191.742 81.782 191.199 85.7411 189.143 89.3769C188.255 90.9491 187.161 92.4249 186.013 93.823C185.096 94.939 184.026 95.9574 182.899 96.8631C181.431 98.0433 179.578 98.3916 177.802 98.8678C175.106 99.5904 172.344 99.6769 169.595 99.4986C167.163 99.341 164.703 99.2402 162.347 98.4761C161.976 98.3558 161.482 98.2687 161.587 97.7863C161.642 97.5289 162.062 97.2016 162.346 97.1714C163.127 97.0884 163.922 97.1296 164.711 97.1513C165.713 97.1788 166.714 97.2391 167.715 97.2787C170.456 97.3869 173.109 96.9586 175.667 95.9583C176.218 95.7428 176.764 95.5129 177.353 95.2592ZM181.623 76.9033C181.977 77.1652 182.305 77.5988 182.69 77.6569C183.859 77.8334 185.05 77.8989 186.234 77.9351C186.675 77.9485 187.122 77.7612 187.64 77.6498C186.735 76.3503 185.874 75.1623 184.706 74.2105C183.958 73.6003 183.641 73.5021 182.81 73.9853C181.944 74.4896 181.314 75.9756 181.623 76.9033Z" fill="white"/>
<path d="M67.9614 91.7537C66.225 93.6187 63.9665 94.3761 61.6584 95.0256C59.0058 95.7721 56.2886 95.9639 53.5541 95.8084C51.899 95.7144 50.249 95.4973 48.603 95.2866C47.6332 95.1624 46.6733 94.9541 45.7135 94.7607C45.2646 94.6703 44.8384 94.4708 44.9652 93.9051C45.0795 93.3949 45.519 93.2848 45.9817 93.311C47.4345 93.3932 48.886 93.5018 50.3394 93.5699C53.0119 93.6952 55.6451 93.4317 58.1819 92.5524C60.8946 91.6121 63.3788 90.2358 65.6133 88.4185C68.2164 86.3013 70.1289 83.6452 71.5984 80.6557C71.8986 80.045 72.047 79.3594 72.2777 78.6717C71.1588 78.7987 70.2094 78.9297 69.2557 79.0081C68.3449 79.0829 67.428 79.1591 66.5167 79.1329C65.3578 79.0997 64.2207 78.8777 63.2831 78.1208C62.3818 77.3934 62.0286 76.3694 61.8533 75.2636C61.4314 72.6018 62.3121 70.2368 63.574 67.9879C64.0208 67.1915 64.6353 66.4794 65.2334 65.7806C66.5492 64.243 68.068 64.3863 69.5609 65.3606C70.6846 66.0939 71.3369 67.2152 72.0176 68.3075C73.3446 70.4369 74.1231 72.801 74.3573 75.2619C74.633 78.1596 74.3426 81.0438 73.2151 83.7928C72.1681 86.3457 70.69 88.6165 68.8904 90.69C68.5921 91.0336 68.2933 91.3769 67.9614 91.7537ZM65.6127 70.6805C65.502 70.8375 65.3897 70.9934 65.2809 71.1517C64.741 71.9373 64.5311 73.5299 65.8959 73.8502C66.8038 74.0633 67.7459 74.1956 68.6769 74.2238C69.4168 74.2461 70.1631 74.0558 70.9804 73.9503C70.6128 73.4062 70.3083 72.8393 69.8945 72.369C69.2253 71.6087 68.5353 70.8502 67.7593 70.2056C66.9863 69.5635 66.3073 70.1088 65.6127 70.6805Z" fill="white"/>
<path d="M42.5549 89.3357C40.6659 89.8309 38.7848 89.8381 36.9272 89.7089C34.5488 89.5434 32.341 88.8143 30.5303 87.1375C29.4671 86.1528 28.8419 84.9283 28.448 83.5643C27.947 81.8293 27.637 80.0427 27.818 78.2539C27.9982 76.4729 28.4071 74.712 28.7726 72.9543C28.949 72.106 29.2166 71.2702 29.5206 70.458C29.6726 70.0519 29.9479 69.6546 30.2679 69.3649C30.4313 69.2169 30.864 69.2219 31.0844 69.335C31.2274 69.4085 31.3067 69.8314 31.2434 70.0473C30.8445 71.4094 30.3078 72.7361 29.9844 74.1141C29.192 77.4902 29.9424 80.4947 32.6074 82.7896C33.4423 83.5086 34.6028 83.8896 35.6642 84.2938C37.81 85.1113 40.0389 85.0232 42.2394 84.5786C43.4965 84.3245 44.7596 83.9709 45.9309 83.4576C46.9697 83.0024 47.9362 82.3314 48.8439 81.6366C50.313 80.5121 51.3731 79.0293 52.1889 77.3702C52.5694 76.5964 52.6497 75.8326 52.3576 74.9871C51.1951 71.6216 49.7037 68.4129 47.8937 65.3517C47.6138 64.8782 47.6169 64.4042 47.722 63.8929C47.9541 62.7635 48.1531 61.627 48.4009 60.5013C48.4449 60.3011 48.6363 60.0211 48.801 59.9885C49.008 59.9477 49.3178 60.0628 49.4757 60.2195C49.76 60.5017 50.0235 60.8371 50.1926 61.1987C51.3257 63.6215 52.5386 66.0155 53.5027 68.5055C54.0101 69.8161 54.1393 71.2934 54.3059 72.7112C54.4532 73.9648 54.4615 75.2407 54.4491 76.506C54.429 78.5406 53.9043 80.4773 53.1267 82.344C52.982 82.6913 52.7356 83.0095 52.4859 83.2973C50.0012 86.1623 46.92 88.0984 43.2972 89.1799C43.0735 89.2467 42.8407 89.2829 42.5549 89.3357Z" fill="white"/>
<path d="M315.829 70.5736C316.889 69.9554 317.864 69.255 318.94 68.7939C320.916 67.9472 322.851 69.5267 323.524 71.1326C323.632 71.3896 323.573 71.8098 323.43 72.0628C322.888 73.0204 322.343 73.9883 321.675 74.8574C321.227 75.4407 320.674 75.2615 320.258 74.6491C319.875 74.0857 319.466 73.5022 318.947 73.0779C317.951 72.2646 316.989 72.7333 316.087 73.3596C315.876 73.5063 315.674 73.6674 315.474 73.8298C314.856 74.3322 314.833 74.8992 315.369 75.4925C316.49 76.7328 317.821 77.6277 319.461 78.0063C319.94 78.1168 320.434 78.1701 320.924 78.2173C322.734 78.3913 324.498 78.0847 326.258 77.7029C326.57 77.6352 326.909 77.6933 327.337 77.6933C327.239 77.9984 327.202 78.2559 327.081 78.4652C326.626 79.257 326.103 80.0125 325.685 80.8228C325.427 81.3222 325.006 81.4218 324.556 81.5258C323.377 81.7984 322.183 82.0132 321.017 82.3319C318.457 83.0315 316.023 84.0686 313.648 85.2437C313.06 85.5348 312.523 85.9308 311.937 86.2272C311.647 86.3735 311.299 86.4028 310.901 86.5045C311.038 83.6407 312.761 82.2403 315.233 81.3477C314.739 81.0425 314.341 80.8035 313.95 80.5535C313.323 80.1527 312.703 79.7399 312.075 79.3407C310.657 78.4391 310.532 76.6375 311.348 75.4979C312.239 74.2543 313.286 73.1208 314.304 71.9735C314.749 71.4716 315.29 71.0549 315.829 70.5736Z" fill="white"/>
<path d="M258.041 64.2466C258.247 65.9987 258.43 67.6968 258.598 69.3962C258.66 70.0233 258.713 70.653 258.731 71.2826C258.787 73.2126 258.938 75.149 258.838 77.0717C258.722 79.2985 258.724 81.5618 257.942 83.7064C257.906 83.8051 257.854 83.8979 257.816 83.996C257.664 84.3915 257.507 84.8104 256.967 84.6984C256.43 84.5872 256.395 84.1075 256.367 83.6864C256.332 83.1372 256.371 82.5838 256.356 82.0328C256.319 80.6096 256.301 79.185 256.219 77.7643C256.12 76.0743 255.997 74.3841 255.822 72.7005C255.593 70.4911 255.302 68.2882 255.039 66.0823C254.817 64.2195 254.604 62.3557 254.376 60.4936C254.12 58.3975 253.83 56.3052 253.596 54.2068C253.463 53.0204 253.422 51.824 253.317 50.6341C253.253 49.9038 253.1 49.1794 253.067 48.4487C252.996 46.839 253.245 45.275 253.926 43.8025C254.12 43.3827 254.327 42.9498 254.619 42.5989C254.979 42.1654 255.362 42.2489 255.515 42.7935C255.677 43.3664 255.768 43.9668 255.824 44.5615C256.018 46.6554 256.152 48.7553 256.368 50.8468C256.593 53.0339 256.882 55.2146 257.152 57.3969C257.433 59.663 257.725 61.9277 258.041 64.2466Z" fill="white"/>
<path d="M294.291 81.0768C294.084 78.8822 293.914 76.7421 293.728 74.6035C293.609 73.2462 293.489 71.8883 293.326 70.536C293.134 68.9564 292.88 67.3846 292.682 65.8057C292.524 64.5414 292.42 63.2704 292.273 62.0046C292.11 60.6139 291.918 59.2268 291.754 57.8364C291.65 56.956 291.553 56.0739 291.488 55.19C291.383 53.7796 291.252 52.3678 291.234 50.9553C291.213 49.354 291.607 47.8221 292.307 46.3781C292.4 46.1869 292.534 46.0133 292.664 45.8429C292.997 45.4055 293.355 45.4117 293.58 45.9068C293.735 46.2463 293.816 46.6358 293.852 47.0105C294.044 48.9665 294.201 50.9259 294.39 52.8822C294.552 54.5592 294.715 56.2367 294.923 57.9083C295.157 59.7854 295.457 61.6543 295.7 63.5304C295.86 64.7724 295.96 66.0221 296.108 67.266C296.27 68.6346 296.464 69.9995 296.626 71.3682C296.695 71.9499 296.737 72.5361 296.761 73.1215C296.817 74.4554 296.871 75.7898 296.892 77.1245C296.914 78.5578 296.928 79.9927 296.889 81.4254C296.84 83.2559 296.683 85.0779 296.103 86.833C296.011 87.1124 295.913 87.4117 295.733 87.6335C295.588 87.8133 295.283 88.0236 295.109 87.9799C294.888 87.9245 294.701 87.6439 294.554 87.4241C294.48 87.3149 294.524 87.1246 294.521 86.9709C294.476 85.1074 294.433 83.2438 294.385 81.3803C294.383 81.297 294.344 81.2147 294.291 81.0768Z" fill="white"/>
<path d="M163.527 69.2545C163.395 68.3233 163.262 67.4531 163.134 66.5821C162.917 65.0943 162.693 63.6074 162.491 62.1176C162.296 60.6882 162.136 59.2543 161.943 57.8247C161.736 56.2913 161.494 54.7627 161.295 53.2283C161.176 52.3062 161.11 51.377 161.021 50.451C160.846 48.6204 160.572 46.7921 160.53 44.9585C160.501 43.7009 160.755 42.4293 160.963 41.1773C161.058 40.6037 161.315 40.0488 161.558 39.5125C161.647 39.3162 161.901 39.0935 162.093 39.0799C162.229 39.0704 162.483 39.3739 162.52 39.5695C162.672 40.3486 162.773 41.1385 162.867 41.9274C163.094 43.8332 163.306 45.7409 163.527 47.6476C163.702 49.1684 163.86 50.6917 164.064 52.2086C164.251 53.5901 164.502 54.9628 164.703 56.3426C164.858 57.4079 164.97 58.4794 165.117 59.5459C165.281 60.7372 165.473 61.9246 165.635 63.1163C165.742 63.9074 165.819 64.7027 165.906 65.4965C166.083 67.1062 166.262 68.7155 166.43 70.3261C166.491 70.9089 166.549 71.4943 166.562 72.0795C166.617 74.538 166.745 76.9997 166.667 79.4545C166.617 81.0542 166.268 82.6456 166.027 84.2367C165.995 84.4509 165.853 84.6901 165.688 84.8336C165.375 85.1069 165.059 85.0747 164.886 84.6475C164.807 84.4529 164.736 84.2419 164.725 84.0349C164.667 83.0101 164.658 81.9821 164.581 80.959C164.425 78.8842 164.241 76.8115 164.059 74.7388C163.936 73.3379 163.796 71.9384 163.661 70.5385C163.622 70.1303 163.574 69.7229 163.527 69.2545Z" fill="white"/>
<path d="M400.157 56.1228C400.325 57.464 400.497 58.7434 400.657 60.0244C400.764 60.8806 400.842 61.7405 400.952 62.5962C401.117 63.8755 401.313 65.151 401.469 66.4312C401.582 67.3542 401.674 68.2808 401.738 69.2084C401.884 71.3351 401.939 73.4704 402.157 75.5892C402.378 77.7331 402.245 79.8529 402 81.9738C401.872 83.077 401.691 84.1774 401.462 85.2637C401.367 85.7107 401.25 86.3547 400.597 86.2701C399.918 86.1821 399.945 85.5199 399.904 85.0107C399.858 84.4413 399.912 83.8646 399.89 83.2924C399.811 81.2635 399.766 79.2315 399.616 77.2077C399.455 75.0537 399.204 72.906 398.963 70.7587C398.767 69.0043 398.524 67.2552 398.31 65.5027C398.041 63.2995 397.758 61.0978 397.523 58.8909C397.315 56.9321 397.217 54.9605 396.973 53.007C396.749 51.2213 397.124 49.5674 397.826 47.9637C398.011 47.5404 398.201 46.8335 398.779 47.0462C399.089 47.1601 399.286 47.865 399.344 48.3271C399.496 49.5317 399.514 50.7525 399.639 51.9612C399.781 53.3313 399.982 54.6952 400.157 56.1228Z" fill="white"/>
<path d="M320.797 50.9693C320.653 51.8288 320.539 52.6347 320.351 53.4225C320.27 53.7574 320.203 53.9653 320.579 54.1614C320.897 54.3274 321.144 54.6237 321.44 54.8392C322.276 55.4489 321.956 56.2759 321.839 57.0443C321.769 57.5016 321.597 57.9451 321.451 58.3881C321.314 58.8037 320.867 58.8935 320.551 58.5798C319.961 57.9957 319.374 57.409 318.868 56.9048C317.873 58.1881 317.071 59.5057 315.994 60.5338C314.829 61.6466 313.466 62.5891 312.08 63.4229C310.576 64.3278 308.946 65.0231 307.369 65.8051C307.258 65.8602 307.116 65.9271 307.009 65.902C306.731 65.8369 306.295 65.7844 306.234 65.6145C306.151 65.3815 306.264 64.9476 306.453 64.7701C307.125 64.1367 307.848 63.5522 308.583 62.9911C310.729 61.3541 312.917 59.7713 315.031 58.0949C315.803 57.483 316.414 56.6676 317.095 55.9488C315.824 54.9487 314.743 53.994 313.556 53.1979C312.591 52.5505 312.609 51.646 312.788 50.7801C313.272 48.441 314.588 46.5977 316.543 45.2513C317.677 44.4704 319.254 44.9435 319.969 46.2686C320.741 47.7027 321.14 49.251 320.797 50.9693ZM318.138 52.4104C318.25 52.4559 318.363 52.5015 318.526 52.5674C318.611 51.043 318.602 49.6039 317.637 48.3489C317.254 47.8494 316.818 47.6733 316.342 48.0598C315.887 48.4284 315.471 48.8971 315.187 49.4053C314.99 49.7578 315.008 50.2453 315.467 50.5575C316.335 51.1471 317.185 51.7622 318.138 52.4104Z" fill="white"/>
<path d="M85.3865 61.0526C83.293 62.2716 81.2446 63.477 79.1646 64.6249C78.6205 64.9252 77.9907 65.1412 77.3773 65.2236C76.7551 65.3071 76.4533 64.7507 76.8903 64.3149C77.701 63.5065 78.592 62.7657 79.5156 62.0871C81.8484 60.3731 84.3098 58.8257 86.3619 56.7538C86.8275 56.2837 87.212 55.7328 87.6011 55.2591C86.3908 54.3146 85.2194 53.3951 84.042 52.4834C83.1502 51.7928 83.1467 50.8356 83.3981 49.9091C83.9567 47.8505 85.0476 46.1397 86.7705 44.8067C88.3245 43.6044 90.0091 44.6404 90.6397 45.8686C91.2466 47.0507 91.5036 48.3481 91.4114 49.6646C91.3402 50.6822 91.1573 51.7098 90.8684 52.6867C90.7181 53.1949 90.8786 53.4248 91.1887 53.6781C91.4854 53.9204 91.8177 54.1187 92.1153 54.36C92.6659 54.8065 92.5265 55.4439 92.4616 56.0046C92.3993 56.5437 92.1895 57.0702 92.0051 57.5882C91.9367 57.7802 91.7349 58.0866 91.6308 58.0722C91.3613 58.035 91.0736 57.8935 90.8633 57.712C90.4279 57.3365 90.0502 56.8946 89.6249 56.5062C89.3741 56.2771 89.1514 56.3086 88.9794 56.6544C88.1225 58.3768 86.9336 59.8315 85.3865 61.0526ZM88.2741 51.5648C88.3353 51.5845 88.398 51.6004 88.4573 51.6247C88.6428 51.7006 88.8269 51.7797 89.0116 51.8575C89.0703 51.6601 89.1832 51.4612 89.1776 51.2656C89.1611 50.6836 89.1528 50.092 89.0399 49.5245C88.8864 48.753 88.6383 47.9997 88.0074 47.4553C87.6831 47.1754 87.2944 46.9881 86.9489 47.329C86.508 47.764 86.1081 48.2527 85.7577 48.7644C85.4017 49.2843 85.6883 49.7056 86.1233 50.023C86.8095 50.5236 87.5111 51.0027 88.2741 51.5648Z" fill="white"/>
<path d="M351.731 65.9533C351.345 66.0186 350.87 66.2614 350.786 65.7213C350.737 65.4138 350.88 64.9449 351.108 64.7481C352.066 63.9225 353.08 63.1625 354.087 62.3964C355.858 61.049 357.673 59.7562 359.401 58.3569C360.241 57.6775 360.927 56.8087 361.657 56.0534C360.358 55.0528 359.163 54.1556 357.995 53.2235C357.159 52.5561 357.137 51.6689 357.367 50.6987C357.887 48.5021 359.135 46.8171 360.911 45.4899C362.333 44.4275 363.729 45.2403 364.348 46.333C365.2 47.8355 365.532 49.4909 365.17 51.2318C364.993 52.0855 364.819 52.9401 364.664 53.7981C364.646 53.9012 364.74 54.0434 364.817 54.1405C364.91 54.2585 365.026 54.3698 365.154 54.4463C366.779 55.4142 366.445 56.0454 366.161 57.5584C366.084 57.9662 365.898 58.3533 365.705 58.9158C365.35 58.7235 364.998 58.5961 364.727 58.3713C364.318 58.0327 363.952 57.6381 363.593 57.2449C363.247 56.8669 362.974 57.0565 362.82 57.3768C361.532 60.0663 359.388 61.9122 356.889 63.3808C355.445 64.2295 353.934 64.964 352.446 65.7354C352.245 65.8398 352 65.8591 351.731 65.9533ZM363.052 52.153C362.964 51.2308 362.95 50.293 362.762 49.3914C362.62 48.7071 362.149 48.1134 361.437 47.9338C360.758 47.7623 360.418 48.3779 360.024 48.7968C359.953 48.8715 359.921 48.9812 359.856 49.0628C359.285 49.7818 359.368 50.3054 360.131 50.8228C361.026 51.4305 361.917 52.0454 362.877 52.7034C362.937 52.5556 362.995 52.4122 363.052 52.153Z" fill="white"/>
<path d="M209.844 46.5568C210.059 46.285 210.24 46.0474 210.455 45.7658C209.733 45.2369 209.02 44.7377 208.334 44.2044C207.806 43.7944 207.261 43.3876 206.815 42.8957C206.251 42.273 206.394 41.4861 206.589 40.7608C207.14 38.7066 208.309 37.1039 210.111 35.9449C211.212 35.2364 212.579 35.8608 213.153 36.9257C213.874 38.2622 214.174 39.7269 213.853 41.2752C213.668 42.1684 213.569 43.0795 213.42 44.054C213.68 44.2607 214.106 44.5034 214.393 44.8593C214.643 45.1684 214.877 45.6101 214.865 45.9851C214.843 46.6566 214.666 47.3312 214.488 47.9869C214.345 48.516 214.049 48.5654 213.654 48.1829C213.291 47.8307 212.939 47.4664 212.575 47.1141C212.17 46.7212 211.846 46.7418 211.604 47.2367C211.006 48.4588 210.14 49.4655 209.177 50.4026C207.7 51.8395 205.904 52.7888 204.103 53.7254C203.24 54.1747 202.356 54.5958 201.448 54.9434C201.174 55.0486 200.789 54.8647 200.455 54.8132C200.546 54.4894 200.533 54.0431 200.745 53.8632C201.626 53.1163 202.583 52.4606 203.497 51.7514C205.463 50.2254 207.423 48.6906 209.375 47.1474C209.555 47.0059 209.666 46.7785 209.844 46.5568ZM211.735 40.4351C211.475 39.8676 211.286 39.2482 210.925 38.7551C210.752 38.5198 210.233 38.3953 209.908 38.4493C209.349 38.5422 208.653 39.6692 208.698 40.2543C208.712 40.4302 208.774 40.663 208.899 40.7597C209.8 41.457 210.722 42.126 211.637 42.804C211.697 42.7682 211.757 42.7323 211.817 42.6965C211.817 41.9711 211.817 41.2458 211.735 40.4351Z" fill="white"/>
<path d="M106.38 61.3709C107.035 61.9847 107.658 62.5632 108.281 63.1408C108.665 63.496 108.986 63.4321 109.304 63.0275C110.034 62.0969 110.79 61.1867 111.521 60.2567C111.89 59.7864 112.227 59.8464 112.63 60.2195C113.426 60.956 114.233 61.6817 115.06 62.3828C115.364 62.6406 115.748 62.8005 116.075 63.0344C116.361 63.2383 116.555 63.4957 116.263 63.8507C115.442 64.8484 114.628 65.8526 113.799 66.8434C113.408 67.311 112.678 67.4068 112.176 67.0488C111.322 66.4395 110.486 65.8054 109.552 65.1144C108.872 65.9211 108.121 66.7754 107.414 67.6653C106.991 68.1984 106.276 68.4016 105.721 67.9823C104.64 67.1644 103.587 66.3077 102.536 65.45C102.13 65.1187 102.129 64.7201 102.462 64.3165C103.284 63.3199 104.098 62.3168 104.926 61.3253C105.447 60.7008 105.72 60.7103 106.38 61.3709Z" fill="white"/>
<path d="M332.473 45.5579C334.238 44.8689 335.995 44.792 337.758 45.2954C339.282 45.7308 340.775 46.2834 342.305 46.6936C342.88 46.8478 342.977 47.1676 342.811 47.5658C342.486 48.3425 342.16 49.1535 341.651 49.8064C341.262 50.3054 340.529 50.5179 340.055 50.9704C338.324 52.6256 336.121 53.1783 333.911 53.7426C333.442 53.8623 332.999 54.1416 332.53 54.1838C332.154 54.2175 331.588 54.1214 331.411 53.8686C331.199 53.567 331.406 53.1226 331.86 52.8846C332.95 52.3144 334.007 51.6837 335.083 51.0875C336.175 50.4828 337.273 49.8903 338.565 49.1847C337.618 48.8646 336.846 48.5613 336.05 48.3431C333.854 47.7406 331.922 48.232 330.296 49.8475C330.131 50.0115 330.042 50.2697 329.856 50.3899C329.678 50.5049 329.397 50.5742 329.208 50.5142C329.094 50.4779 328.97 50.1259 329.02 49.9703C329.62 48.0968 330.627 46.5267 332.473 45.5579Z" fill="white"/>
<path d="M110.048 43.2842C109.004 42.8953 107.983 42.446 106.915 42.252C105.784 42.0464 104.62 42.2489 103.634 42.8926C102.748 43.471 101.942 44.1724 101.101 44.8195C101.028 44.7825 100.954 44.7455 100.88 44.7086C100.944 44.3058 100.941 43.8778 101.082 43.5044C101.858 41.4541 103.187 39.9018 105.367 39.3594C106.953 38.9648 108.567 39.0872 110.147 39.6043C111.333 39.9922 112.56 40.2521 113.741 40.6495C114.586 40.9337 114.932 40.8413 114.525 41.8953C114.231 42.6558 113.836 43.3914 113.383 44.0689C113.181 44.3709 112.689 44.4609 112.391 44.7189C111.004 45.9199 109.475 46.8408 107.687 47.3161C106.604 47.6041 105.537 47.9512 104.463 48.2717C104.421 48.284 104.379 48.3076 104.338 48.3046C103.952 48.2765 103.403 48.4648 103.312 47.9344C103.263 47.6496 103.517 47.1587 103.779 47.0004C104.959 46.2869 106.191 45.6599 107.404 45.0003C108.223 44.5545 109.044 44.1117 109.856 43.6517C109.95 43.5984 109.987 43.4438 110.048 43.2842Z" fill="white"/>
<path d="M34.6092 45.2298C32.4076 46.186 30.2489 47.1117 28.0904 48.038C27.9931 48.0798 27.9024 48.1434 27.8016 48.1695C27.2067 48.3236 26.9727 48.1039 27.1314 47.5046C27.2882 46.9121 27.3669 46.2437 27.7052 45.7705C28.0289 45.3177 28.6049 44.9883 29.1353 44.7524C31.029 43.9104 32.9535 43.1384 34.8607 42.3266C37.0023 41.4152 39.1413 40.4976 41.2748 39.5675C43.1964 38.7297 45.1079 37.8686 47.0266 37.0237C47.5484 36.794 48.0696 36.5538 48.6111 36.3819C48.8731 36.2988 49.1814 36.3625 49.4688 36.3597C49.4381 36.6377 49.4553 36.9317 49.369 37.191C48.8046 38.8865 47.4463 39.7195 45.9098 40.3668C44.0577 41.1471 42.2162 41.9528 40.3696 42.7462C38.4641 43.5648 36.5579 44.3818 34.6092 45.2298Z" fill="white"/>
<path d="M272.218 58.9515C272.334 58.8787 272.415 58.8492 272.491 58.8108C273.492 58.3088 273.638 58.0498 273.181 57.0549C272.904 56.4533 272.907 55.9701 273.257 55.4305C273.546 54.9844 273.772 54.4982 274.051 54.0455C274.11 53.9513 274.291 53.8645 274.394 53.8852C274.512 53.9091 274.667 54.0373 274.701 54.1518C275.306 56.1695 275.321 58.1588 274.454 60.1264C273.983 61.1944 273.107 61.6059 272.057 61.8094C270.583 62.0951 269.82 61.6698 268.911 61.0263C268.411 61.5871 267.922 62.1557 267.411 62.7043C266.64 63.533 264.33 63.8901 263.337 63.1383C262.709 62.6623 262.402 62.0054 262.319 61.2876C262.143 59.7771 262.665 58.4159 263.467 57.1684C263.575 57.0007 263.958 57.0107 264.214 56.9383C264.238 57.1441 264.301 57.3543 264.278 57.5548C264.209 58.1702 264.065 58.7794 264.028 59.3957C263.986 60.1122 264.469 60.6068 265.184 60.613C266.716 60.6264 267.915 59.7787 268.369 57.8002C268.445 57.4669 268.467 57.1205 268.506 56.7793C268.561 56.3108 269.178 55.6604 269.643 55.5889C270.127 55.5145 270.271 55.7206 270.161 56.2462C269.975 57.1399 270.273 58.6962 271.368 58.9135C271.634 58.9661 271.91 58.9664 272.218 58.9515Z" fill="white"/>
<path d="M187.209 54.8293C181.89 57.2967 173.762 60.5029 172.976 60.4579C172.812 59.0773 173.834 57.6122 175.263 57.0393C177.383 56.1892 179.479 55.2797 181.588 54.4011C183.931 53.425 186.276 52.455 188.62 51.4825C189.576 51.0856 190.526 50.6719 191.494 50.3051C191.721 50.2191 192.008 50.2924 192.267 50.2924C191.801 52.628 190.24 53.6927 188.319 54.3962C187.962 54.527 187.608 54.6643 187.209 54.8293Z" fill="white"/>
<path d="M144.743 94.47C143.6 95.0745 142.508 95.6811 141.38 96.2073C139.943 96.8772 138.476 97.4829 137.022 98.1149C134.714 99.1177 132.406 100.121 130.096 101.121C129.301 101.465 128.507 101.813 127.702 102.131C127.375 102.259 126.97 102.179 127.108 101.753C127.402 100.841 127.383 99.7285 128.334 99.1627C129.056 98.7325 129.851 98.4207 130.625 98.0803C132.231 97.3731 133.844 96.6819 135.454 95.9841C137.841 94.9498 140.228 93.9149 142.615 92.8815C143.546 92.4787 144.475 92.0725 145.411 91.6842C145.6 91.606 145.82 91.602 146.13 91.5441C145.993 92.7259 145.444 93.6074 144.743 94.47Z" fill="white"/>
<path d="M231.633 95.5569C231.006 95.5881 230.88 95.3526 231.11 94.8367C231.246 94.53 231.329 94.1944 231.4 93.8639C231.591 92.971 232.219 92.5173 232.993 92.1699C234.945 91.2938 236.887 90.3955 238.834 89.5098C241.881 88.1245 244.927 86.74 247.978 85.3644C248.165 85.2801 248.389 85.2389 248.594 85.2448C248.868 85.2527 248.987 85.325 248.876 85.6977C248.437 87.1709 247.623 88.2901 246.2 88.9443C243.736 90.0772 241.29 91.2498 238.822 92.3752C236.453 93.4554 234.066 94.4967 231.633 95.5569Z" fill="white"/>
<path d="M267.146 42.5817C265.09 43.4992 263.078 44.3933 261.056 45.2627C260.773 45.3844 260.438 45.3853 260.124 45.4426C260.01 44.1119 260.894 42.6722 262.039 42.1482C264.024 41.2394 265.993 40.2931 267.976 39.3787C270.978 37.9944 273.987 36.6234 276.994 35.2494C277.146 35.1795 277.357 35.044 277.458 35.0972C277.637 35.1909 277.901 35.4496 277.869 35.5649C277.502 36.8619 276.983 38.0144 275.606 38.6268C272.778 39.8852 269.991 41.2371 267.146 42.5817Z" fill="white"/>
<path d="M237.359 84.1765C236.823 83.879 236.274 83.6519 235.876 83.268C235.207 82.6243 234.63 81.8849 234.024 81.1777C233.591 80.6728 233.68 80.2178 234.146 79.7664C234.984 78.9549 235.795 78.1155 236.624 77.2945C237.06 76.863 237.482 76.955 237.879 77.3888C238.799 78.3931 239.737 79.388 240.743 80.3034C241.15 80.674 241.146 80.941 240.841 81.2585C239.988 82.1477 239.121 83.0251 238.224 83.8694C238.029 84.0526 237.687 84.0783 237.359 84.1765Z" fill="white"/>
<path d="M376.124 91.8576C376.881 91.0148 377.593 90.1728 378.416 89.4582C378.62 89.2802 379.313 89.3657 379.555 89.5831C380.622 90.5409 381.601 91.5971 382.624 92.6044C382.944 92.9189 382.944 93.17 382.622 93.4845C381.748 94.3385 380.896 95.2158 380.026 96.075C379.67 96.4272 378.896 96.5157 378.531 96.1685C377.54 95.2246 376.549 94.2723 375.645 93.2467C375.132 92.6649 375.809 92.304 376.124 91.8576Z" fill="white"/>
<path d="M39.1355 52.2486C40.1633 53.2937 41.1797 54.291 42.2038 55.2801C42.5288 55.594 42.5767 55.9141 42.255 56.2411C41.3913 57.1192 40.5294 57.9995 39.6436 58.8549C39.2005 59.2828 38.5344 59.2543 38.053 58.7892C37.1443 57.9112 36.249 57.0185 35.374 56.107C35.0132 55.7311 35.0925 55.344 35.4611 54.9678C36.3174 54.0936 37.1511 53.1971 37.9898 52.3056C38.3416 51.9317 38.7136 51.8712 39.1355 52.2486Z" fill="white"/>
<path d="M111.466 56.6189C110.744 57.5068 110.098 58.4006 109.341 59.1887C109.152 59.3859 108.485 59.4069 108.251 59.2282C107.083 58.3383 105.97 57.3721 104.883 56.3826C104.745 56.2569 104.758 55.7484 104.897 55.5684C105.725 54.4936 106.586 53.4419 107.499 52.4403C107.641 52.2849 108.207 52.2985 108.406 52.4537C109.225 53.0915 109.971 53.8219 110.758 54.5013C111.014 54.7224 111.314 54.8926 111.595 55.0845C112.322 55.5803 112.337 55.7235 111.733 56.3509C111.656 56.4301 111.578 56.5075 111.466 56.6189Z" fill="white"/>
<path d="M336.967 60.2277C337.426 59.9772 337.764 60.0649 338.096 60.4073C339.051 61.392 339.999 62.3867 341.011 63.3102C341.404 63.669 341.332 63.9117 341.052 64.1992C340.163 65.1109 339.298 66.0551 338.332 66.8774C338.056 67.1121 337.292 67.1798 337.049 66.9731C336.01 66.087 335.064 65.0864 334.121 64.0922C333.754 63.7053 333.879 63.2847 334.254 62.9181C335.151 62.039 336.036 61.1469 336.967 60.2277Z" fill="white"/>
</svg>
