<svg width="429" height="143" viewBox="0 0 429 143" fill="none" xmlns="http://www.w3.org/2000/svg">
<path d="M135.934 42.4187C136.209 42.8032 136.458 43.1473 136.69 43.5027C137.345 44.5091 137.213 45.2213 136.258 46.0117C135.956 46.2616 135.618 46.5114 135.426 46.8377C135.235 47.1622 135.096 47.5929 135.129 47.9595C135.257 49.386 135.443 50.8084 135.646 52.2267C135.83 53.5119 136.081 54.7874 136.274 56.0714C136.474 57.4023 136.635 58.7391 136.824 60.0718C137.034 61.5507 137.277 63.0252 137.466 64.5067C137.631 65.8056 137.742 67.1115 137.874 68.4145C138.049 70.1455 138.222 71.8767 138.395 73.6079C138.402 73.673 138.398 73.7392 138.4 73.8049C138.444 74.999 138.544 76.1944 138.518 77.3869C138.48 79.0721 138.362 80.7719 137.471 82.2668C136.468 83.9493 135.098 85.103 133.028 85.325C131.833 85.4532 130.663 85.509 129.522 85.157C128.229 84.7585 127.049 84.1643 126.297 82.9347C125.964 82.3918 125.536 81.9015 125.106 81.429C125.008 81.3214 124.67 81.3003 124.528 81.3844C121.933 82.9275 119.2 84.174 116.231 84.7261C113.652 85.2058 111.026 85.361 108.563 84.1072C107.963 83.8018 107.426 83.3722 106.859 83.0017C106.724 82.9134 106.584 82.8334 106.563 82.821C105.948 84.0114 105.371 85.1514 104.77 86.2786C104.398 86.9765 103.688 87.2307 102.999 87.3861C101.127 87.8084 99.549 87.0997 98.1149 85.9573C97.8323 85.7321 97.5467 85.5106 97.2217 85.2553C95.9473 86.9028 94.2356 87.5452 92.2223 87.3961C90.3277 87.2558 88.6167 86.5279 86.9863 85.5995C86.4721 85.3067 85.945 85.0104 85.5017 84.6258C84.9468 84.1443 84.4585 84.2994 83.881 84.5466C82.2558 85.2423 80.6462 86.007 78.962 86.5202C77.9471 86.8295 77.5202 87.2712 77.2423 88.3015C76.3867 91.474 75.3542 94.6068 73.8381 97.5331C73.1505 98.8602 72.3246 100.173 71.3138 101.262C69.7064 102.995 67.6496 104.129 65.2563 104.33C63.4731 104.479 61.663 104.441 59.8727 104.342C56.7087 104.168 53.828 102.994 51.0309 101.596C50.6729 101.418 50.3074 101.216 50.0206 100.945C49.8032 100.74 49.5516 100.377 49.5999 100.142C49.6437 99.9293 50.0608 99.6819 50.3334 99.6552C50.6921 99.62 51.0854 99.7446 51.4379 99.8723C53.132 100.486 54.8391 101.012 56.6457 101.215C59.4859 101.535 62.2684 101.321 64.9201 100.258C66.0207 99.8166 67.0495 99.1315 68.0113 98.4222C70.2336 96.7834 71.5898 94.4361 72.9065 92.085C73.6473 90.7623 74.2938 89.3868 75.0712 87.8617C74.634 87.9846 74.3834 88.0548 74.133 88.1255C73.6814 88.2531 73.2704 88.1958 73.065 87.7332C72.6134 86.7162 72.1176 85.7072 71.8013 84.6468C71.6503 84.1404 72.1177 83.7495 72.6663 83.5862C74.0989 83.1597 75.5548 82.7905 76.9492 82.2611C79.5664 81.2674 82.1414 80.1631 84.7465 79.1364C85.3716 78.89 86.185 78.3219 86.6724 78.9656C87.0101 79.4116 86.8802 80.2899 86.7937 80.9535C86.7281 81.4567 86.7753 81.6969 87.2836 81.835C89.0401 82.312 90.7886 82.7404 92.6423 82.6946C94.0261 82.6605 95.175 82.1453 96.1783 81.3017C97.5431 80.154 98.5886 78.7616 98.9934 76.9687C99.0292 76.8098 99.1605 76.6748 99.2279 76.5202C99.3791 76.1736 99.6548 75.9383 99.9768 76.1693C100.194 76.3251 100.41 76.7319 100.36 76.9697C100.08 78.2895 99.7022 79.5883 99.4028 80.9045C99.3644 81.0732 99.5398 81.4231 99.695 81.4821C100.815 81.908 101.945 82.3135 103.092 82.6565C103.685 82.8336 104.572 82.3105 104.874 81.5434C105.296 80.4715 105.599 79.3517 105.931 78.2457C106.094 77.7002 106.18 77.131 106.352 76.5884C106.483 76.1728 106.744 75.8818 107.264 75.9636C107.774 76.0439 107.801 76.3918 107.775 76.7836C107.729 77.4616 107.676 78.1391 107.623 78.8515C111.444 81.4554 117.234 81.9158 122.137 78.5861C120.42 77.2899 118.534 76.6021 116.384 76.7699C116.04 76.7968 115.717 77.0264 115.371 77.0951C114.988 77.1709 114.591 77.1693 114.2 77.2014C114.189 76.827 114.124 76.4449 114.176 76.0795C114.33 75.0013 115.023 74.189 115.687 73.4071C116.837 72.0533 118.201 70.9502 119.983 70.5339C121.324 70.2206 122.668 70.132 124.068 70.2788C126.048 70.4865 127.764 71.2792 129.453 72.2157C131.163 73.1639 131.343 74.4322 130.774 76.1251C130.365 77.3396 129.014 78.4903 128.127 79.2233C129.38 79.868 130.578 80.5223 131.997 80.7191C133.416 80.9159 134.592 80.3426 135.786 79.7708C136.128 79.6072 136.347 79.332 136.303 78.8881C136.157 77.4328 136.043 75.9743 135.905 74.5182C135.781 73.2142 135.66 71.9095 135.503 70.6093C135.355 69.3799 135.151 68.1573 134.992 66.929C134.843 65.7815 134.736 64.6286 134.585 63.4815C134.383 61.9577 134.145 60.4388 133.943 58.915C133.791 57.7684 133.687 56.6154 133.533 55.469C133.317 53.8613 133.073 52.2574 132.844 50.6514C132.721 49.7841 132.559 48.9192 132.495 48.0473C132.361 46.239 131.834 44.5559 130.962 42.9823C130.508 42.1633 130.541 41.8644 131.127 41.0966C131.678 40.3752 132.169 39.6023 132.628 38.8184C132.893 38.3664 133.184 38.1186 133.608 38.2466C134.395 39.667 135.148 41.0253 135.934 42.4187Z" fill="white"/>
<path d="M401.605 80.4686C400.723 80.3526 399.894 80.2296 399.06 80.1809C396.413 80.0261 393.854 80.5445 391.369 81.3759C387.317 82.732 383.303 84.2053 379.252 85.5655C377.142 86.2737 374.975 86.7446 372.753 87.038C369.807 87.4268 366.853 87.535 363.911 87.3648C360.776 87.1834 357.668 86.6597 354.778 85.1182C354.32 86.1022 353.933 87.0869 353.42 88.0006C352.396 89.8231 351.455 91.7221 350.2 93.3771C348.605 95.4814 346.419 96.9018 343.762 97.3727C342.208 97.6484 340.635 97.4435 339.064 97.2818C335.638 96.9292 332.678 95.4303 329.79 93.7153C329.754 93.694 329.688 93.6985 329.673 93.6708C329.505 93.3698 328.866 93.2752 329.216 92.753C329.494 92.3373 329.907 92.1655 330.419 92.3226C331.666 92.7055 332.899 93.1575 334.168 93.4449C336.031 93.8666 337.904 94.1471 339.848 93.8698C341.536 93.6291 343.22 93.4304 344.756 92.652C346.4 91.8187 347.759 90.6371 348.949 89.2147C350.186 87.7344 351.165 86.1115 352.039 84.4064C352.244 84.0056 352.287 83.8244 351.851 83.4886C350.427 82.3919 349.546 80.9415 349.626 79.0818C349.69 77.5905 350.334 76.2694 351.079 75.0067C351.154 74.8796 351.468 74.7556 351.569 74.8123C351.747 74.9121 351.89 75.1351 351.97 75.3371C352.247 76.037 352.394 76.8072 352.769 77.4458C353.46 78.6225 354.596 79.3395 355.779 79.97C358.062 81.1866 360.504 81.8848 363.05 82.2841C365.469 82.6634 367.901 82.8955 370.344 82.7839C371.795 82.7176 373.243 82.4985 374.681 82.2791C378.708 81.665 382.575 80.4418 386.414 79.1235C387.289 78.823 388.152 78.488 389.054 78.0018C387.34 77.4994 385.633 76.9703 383.91 76.5013C381.89 75.9517 379.811 75.8564 377.742 75.9913C376.169 76.0938 374.612 76.4211 373.043 76.6033C372.685 76.6449 372.306 76.5013 371.801 76.4216C372.671 75.0346 373.396 73.8184 374.183 72.6443C374.693 71.8839 375.598 71.771 376.391 71.6553C378.384 71.3647 380.393 71.1753 382.398 70.9803C383.795 70.8446 385.197 70.7667 386.705 70.6551C386.651 69.8504 386.64 69.0133 386.532 68.189C386.351 66.8165 386.118 65.4504 385.887 64.0849C385.66 62.7439 385.41 61.4068 385.167 60.0684C384.928 58.751 384.667 57.4372 384.449 56.1163C384.209 54.6644 384.019 53.2044 383.785 51.7513C383.631 50.7887 383.495 49.8171 383.246 48.8775C383.042 48.1112 382.709 47.3744 382.382 46.6476C382.177 46.1926 382.198 45.8397 382.463 45.3995C383.006 44.4984 383.465 43.547 383.96 42.6172C384.069 42.4124 384.161 42.1929 384.302 42.0117C384.715 41.4786 385.226 41.5141 385.476 42.1338C386.232 44.0081 387.251 45.7292 388.38 47.3972C388.753 47.9474 388.519 48.5012 388.111 48.9647C387.895 49.2107 387.674 49.4649 387.413 49.6579C386.673 50.2054 386.75 50.9686 386.846 51.7237C386.989 52.8452 387.173 53.9613 387.335 55.0803C387.555 56.6015 387.782 58.1218 387.985 59.6453C388.177 61.0882 388.332 62.536 388.521 63.9794C388.668 65.1007 388.895 66.2138 388.993 67.3386C389.168 69.3506 389.124 71.3359 387.752 73.0342C389.961 74.0716 392.247 74.8514 394.672 75.1827C396.598 75.4457 398.52 75.7473 400.452 75.9556C401.89 76.1107 403.342 76.1566 404.789 76.2275C405.906 76.2823 406.101 76.6034 405.614 77.6141C405.146 78.584 404.7 79.5641 404.247 80.5406C404.099 80.8596 403.976 81.0377 403.523 80.8687C402.936 80.6499 402.282 80.6116 401.605 80.4686Z" fill="white"/>
<path d="M282.942 52.7535C283.246 54.0642 283.519 55.3267 283.793 56.5891C284.354 59.1758 284.932 61.7589 285.467 64.3511C285.656 65.2694 285.818 66.2069 285.852 67.1408C285.925 69.1442 285.57 71.0908 284.784 72.9746C286.792 73.7855 288.842 74.3276 290.949 74.6515C292.469 74.885 293.988 75.1202 295.515 75.3C296.67 75.4362 297.835 75.5015 298.997 75.5708C300.706 75.6726 302.416 75.7423 304.125 75.8414C304.735 75.8768 305.007 76.3151 304.723 76.8829C304.195 77.94 303.632 78.9818 303.038 80.0031C302.675 80.6271 302.081 80.1538 301.629 80.1392C300.28 80.0958 298.929 79.759 297.589 79.81C294.213 79.9388 290.933 80.635 287.838 82.0275C286.57 82.5975 285.396 83.3792 284.12 83.9243C282.651 84.5519 281.134 85.0833 279.605 85.55C277.427 86.215 275.242 86.8972 273.017 87.3618C270.649 87.856 268.257 88.3841 265.805 88.1854C263.723 88.0167 261.657 87.7509 259.884 86.4869C258.975 85.8387 258.259 85.0102 257.752 84.0257C256.629 81.846 255.944 79.5402 255.616 77.0962C255.229 74.2074 254.67 71.3416 254.198 68.4638C253.836 66.2567 253.513 64.0429 253.135 61.8386C252.631 58.9052 252.088 55.9788 251.567 53.0482C251.21 51.0396 250.802 49.0368 250.547 47.015C250.461 46.3366 250.74 45.5985 250.918 44.9044C251.089 44.2365 251.327 43.5834 251.576 42.9396C251.635 42.7887 251.856 42.6117 252.004 42.6094C252.157 42.607 252.413 42.7753 252.453 42.917C252.75 43.9733 253.047 45.0331 253.264 46.108C253.687 48.2107 254.079 50.3205 254.446 52.4339C254.782 54.3645 255.055 56.3058 255.38 58.2384C255.707 60.1889 256.074 62.1328 256.404 64.0828C256.773 66.2661 257.076 68.4618 257.491 70.6363C257.963 73.1106 258.421 75.5962 259.08 78.024C259.789 80.6373 261.568 82.2885 264.234 82.9534C265.869 83.3612 267.501 83.5881 269.192 83.3429C270.299 83.1826 271.433 83.2096 272.54 83.0514C273.797 82.8717 275.079 82.7026 276.279 82.312C279.521 81.2572 282.729 80.0952 285.942 78.9551C286.466 78.7692 286.953 78.478 287.615 78.1592C286.382 77.7471 285.309 77.3279 284.204 77.0335C282.549 76.593 280.889 76.0925 279.198 75.892C277.535 75.6947 275.831 75.8352 274.145 75.8355C272.829 75.8358 271.57 76.1077 270.353 76.6111C270.147 76.6963 269.857 76.6784 269.642 76.6049C269.504 76.5581 269.308 76.2565 269.348 76.1789C270.021 74.8893 270.648 73.5648 271.451 72.3583C272.045 71.4655 273.156 71.3745 274.139 71.2495C276.182 70.9898 278.235 70.8011 280.283 70.5809C281.07 70.4963 281.854 70.3713 282.643 70.3277C283.359 70.288 283.447 69.8516 283.365 69.3112C283.2 68.2171 283.015 67.1255 282.812 66.0378C282.484 64.2855 282.138 62.5366 281.793 60.7876C281.37 58.644 280.932 56.5034 280.515 54.3586C280.142 52.4413 279.821 50.5134 279.419 48.6024C279.034 46.7701 278.3 45.0743 277.277 43.4964C277.117 43.2493 277.076 42.7705 277.207 42.5159C277.834 41.2963 278.525 40.1078 279.226 38.9278C279.508 38.4533 280.19 38.507 280.395 39.0287C281.194 41.0626 282.552 42.7206 283.913 44.3815C284.434 45.0168 284.301 45.7332 283.543 46.5558C283.251 46.8722 283.022 47.2711 282.68 47.5124C281.804 48.1306 282.103 48.9711 282.229 49.739C282.393 50.7383 282.679 51.7175 282.942 52.7535Z" fill="white"/>
<path d="M198.211 102.258C196.841 102.566 195.536 102.947 194.203 103.151C193.137 103.315 192.036 103.331 190.955 103.293C188.403 103.203 185.995 102.555 183.918 101.021C182.16 99.7219 181.264 97.9187 180.964 95.7351C180.493 92.3046 181.333 89.1241 182.606 86.014C182.977 85.1057 183.506 84.2575 184.007 83.4081C184.247 83.0018 184.683 82.9048 185.077 83.1685C185.533 83.4743 185.308 83.8779 185.123 84.2569C184.615 85.298 184.047 86.3166 183.628 87.3927C182.373 90.6077 182.717 93.6494 185.406 96.1736C186.867 97.5454 188.692 98.4028 190.76 98.5782C191.594 98.6489 192.424 98.8045 193.258 98.8286C196.365 98.9184 199.15 97.9339 201.692 96.1986C203.057 95.2663 204.043 93.9922 204.925 92.6128C205.383 91.8948 205.167 91.1745 204.994 90.4998C204.167 87.2705 203.113 84.1158 201.696 81.0901C201.602 80.8894 201.567 80.6024 201.632 80.3951C202.002 79.2096 202.396 78.0309 202.819 76.8635C202.892 76.663 203.145 76.3989 203.318 76.3967C203.524 76.394 203.833 76.5939 203.926 76.7881C204.488 77.9642 205.164 79.122 205.484 80.3676C205.793 81.5756 206.548 82.0176 207.575 82.2252C208.575 82.4275 209.593 82.6086 210.61 82.6555C212.967 82.7642 214.649 81.4531 216.057 79.7725C216.687 79.0201 217.121 78.0992 217.615 77.2381C217.835 76.8543 218.106 76.4657 218.544 76.6652C218.774 76.7698 219.004 77.2915 218.939 77.5518C218.671 78.6301 218.311 79.6876 217.941 80.7372C217.826 81.0642 217.712 81.2793 218.106 81.4964C219.084 82.0356 220.013 82.6683 221.014 83.1559C221.754 83.5161 222.511 83.1903 222.837 82.4034C223.512 80.7706 224.116 79.108 224.755 77.4603C224.853 77.208 224.996 76.9732 225.102 76.7238C225.359 76.1182 225.921 76.1337 226.352 76.2933C226.529 76.3592 226.624 76.9922 226.552 77.3233C226.348 78.269 226.032 79.1903 225.78 80.1265C225.747 80.2487 225.797 80.5034 225.864 80.5257C226.761 80.8208 227.652 81.1784 228.576 81.3368C230.16 81.6086 231.397 80.7214 232.602 79.873C234.547 78.5039 235.676 76.4558 236.98 74.5494C238.085 72.9319 239.302 71.3976 240.865 70.1879C241.849 69.4259 243.205 69.5285 244.503 70.2921C245.832 71.0744 246.281 72.4042 246.412 73.7926C246.602 75.7981 246.623 77.82 246.698 79.8355C246.754 81.3339 246.138 82.6489 245.464 83.9249C245.34 84.1599 244.92 84.3301 244.618 84.3645C242.835 84.5677 241.217 83.9076 239.623 83.2582C238.203 82.6796 236.823 82 235.446 81.3228C235.024 81.1152 234.926 81.3839 234.739 81.6147C234.053 82.4647 233.373 83.3213 232.663 84.1512C231.786 85.1765 230.542 85.5337 229.304 85.8106C227.585 86.1955 225.907 85.9516 224.305 85.203C223.854 84.9919 223.506 84.9712 223.285 85.5837C223.064 86.1932 222.704 86.7556 222.374 87.3211C222.065 87.8518 221.629 88.1423 220.96 88.0679C218.598 87.8049 216.761 86.7205 215.387 84.5926C214.25 85.3783 213.144 86.3731 211.667 86.6397C210.225 86.8999 208.783 87.1631 207.271 87.4378C207.271 88.0168 207.29 88.7131 207.268 89.4081C207.183 92.0928 206.693 94.6739 205.45 97.0969C204.881 98.2072 204.003 98.9851 203.049 99.693C201.584 100.779 200.016 101.693 198.211 102.258ZM242.435 75.0529C241.902 74.6158 241.389 74.2691 240.602 74.4748C239.306 74.8133 238.408 75.5663 237.789 76.7701C239.648 78.3105 241.896 78.8594 244.274 79.4574C244.035 77.7454 243.186 76.4711 242.435 75.0529Z" fill="white"/>
<path d="M156.315 95.7232C157.203 95.4253 158.079 95.2388 158.881 94.8822C161.374 93.7724 163.778 92.4725 165.736 90.5424C167.932 88.3787 169.753 85.9297 170.773 82.9665C170.807 82.8671 170.841 82.7664 170.861 82.6635C170.873 82.6013 170.856 82.5337 170.846 82.3677C170.143 82.4509 169.447 82.59 168.749 82.6044C167.112 82.6381 165.457 82.9357 163.845 82.4227C162.035 81.8466 161.323 80.4554 161.143 78.8707C160.785 75.7142 162.036 73.0865 163.879 70.6515C164.367 70.0075 164.883 69.4114 165.658 69.1421C166.789 68.7491 167.785 69.0935 168.698 69.7943C170.343 71.0582 171.289 72.8075 172.039 74.6757C172.993 77.0543 173.398 79.5445 173.212 82.0949C173.071 84.0213 172.625 85.893 171.849 87.6858C170.967 89.7229 169.63 91.4402 168.233 93.1273C167.074 94.5275 165.873 95.9276 164.135 96.5777C162.505 97.1878 160.791 97.5778 159.109 98.048C157.397 98.5265 155.636 98.5162 153.89 98.4259C152.089 98.3328 150.293 98.1241 148.502 97.909C147.624 97.8037 146.753 97.6046 145.899 97.372C145.642 97.302 145.455 96.9766 145.236 96.7682C145.547 96.5382 145.854 96.1181 146.168 96.1135C147.154 96.0988 148.141 96.2765 149.13 96.3123C150.354 96.3565 151.586 96.4109 152.804 96.3165C153.966 96.2264 155.115 95.9508 156.315 95.7232ZM168.441 75.974C167.976 75.5094 167.525 75.0306 167.044 74.5834C166.29 73.8815 165.802 73.8255 165.16 74.3968C164.825 74.6946 164.476 75.0279 164.279 75.4187C163.619 76.7268 163.826 77.6692 165.496 77.8138C166.091 77.8653 166.68 78.0375 167.273 78.0412C168.063 78.0462 168.854 77.9406 169.783 77.8723C169.281 77.1546 168.893 76.5995 168.441 75.974Z" fill="white"/>
<path d="M60.5588 86.318C59.4965 87.6885 58.4513 89.0108 57.4458 90.3625C56.5011 91.6326 55.2689 92.5509 53.8523 93.1697C52.1886 93.8964 50.4623 94.5017 48.6257 94.6254C46.8324 94.7462 45.0329 94.9072 43.2403 94.8663C41.5723 94.8282 39.9066 94.5731 38.2463 94.3628C37.3889 94.2542 36.531 94.0843 35.7034 93.8404C35.4106 93.7541 35.2067 93.3658 34.9623 93.1154C35.2652 92.9202 35.564 92.5672 35.8718 92.5591C36.8197 92.5343 37.7704 92.6699 38.7212 92.6903C40.1075 92.7201 41.4977 92.7599 42.8809 92.689C43.8982 92.6369 44.9148 92.4555 45.9177 92.2595C48.2965 91.7948 50.4388 90.7277 52.4343 89.4112C53.7847 88.5204 55.1275 87.5422 56.2354 86.3766C58.1099 84.4045 59.7376 82.2154 60.6034 79.5701C60.6856 79.3188 60.7046 79.0468 60.7309 78.9041C58.7856 78.9786 56.8954 79.1228 55.0073 79.0993C53.6229 79.0822 52.3565 78.5782 51.6275 77.2934C51.313 76.7393 51.0814 76.0829 51.0164 75.4519C50.6629 72.0244 51.9497 69.1112 54.1503 66.6157C55.6817 64.879 57.2914 65.105 58.886 66.603C60.9441 68.5365 62.0643 71.0157 62.7008 73.741C63.0832 75.3787 63.207 77.0411 63.0679 78.6966C62.8402 81.4052 62.0557 83.9621 60.5588 86.318ZM59.2341 74.3911C59.3078 74.2982 59.4652 74.1589 59.4431 74.1191C58.7022 72.7843 57.7205 71.6378 56.5063 70.7267C55.8382 70.2253 55.2313 70.4192 54.4475 71.4497C53.6014 72.5623 53.5541 73.7175 54.9369 74.1631C55.6921 74.4065 56.5215 74.4583 57.3229 74.507C57.9181 74.5432 58.522 74.4353 59.2341 74.3911Z" fill="white"/>
<path d="M38.5473 67.3896C38.4245 67.1855 38.3654 66.989 38.2382 66.8593C37.2082 65.8095 37.685 64.6029 37.8744 63.4324C37.9723 62.8271 38.0977 62.223 38.2638 61.6334C38.3303 61.3972 38.5583 61.0133 38.6802 61.0254C38.9466 61.0518 39.2936 61.2272 39.4286 61.4502C40.008 62.4075 40.5585 63.3863 41.0521 64.3904C41.7686 65.8476 42.6034 67.2808 43.0629 68.8212C43.5751 70.5384 43.7419 72.3612 44.0259 74.1433C44.4237 76.6392 43.8816 79.0232 43.1149 81.3782C42.6318 82.862 41.5947 83.8957 40.4543 84.8938C39.127 86.0555 37.6679 86.9715 36.0683 87.6934C34.5924 88.3595 33.0695 88.8616 31.4497 88.9712C30.1064 89.0622 28.7499 89.1785 27.4124 89.0886C24.8512 88.9164 22.5231 88.0989 20.809 86.0544C19.9078 84.9795 19.4381 83.6786 19.2033 82.3158C19.0076 81.1807 18.7441 80.0082 18.8443 78.882C19.013 76.9854 19.393 75.101 19.7898 73.2339C19.9974 72.2569 20.4139 71.3216 20.7727 70.3815C20.8572 70.1601 21.059 69.8923 21.2621 69.8318C21.4908 69.7638 21.8635 69.824 22.0221 69.9813C22.1654 70.1234 22.2 70.5075 22.1185 70.7228C21.5498 72.2239 20.9927 73.7173 20.7454 75.322C20.5381 76.6681 20.56 77.9796 21.0425 79.2438C21.6437 80.8193 22.5022 82.2637 24.0349 83.0848C25.4485 83.8422 26.9399 84.4469 28.5927 84.5171C30.9289 84.6163 33.24 84.465 35.3697 83.4383C36.6163 82.8373 37.774 82.0362 38.9235 81.2542C40.0016 80.5208 40.6382 79.3935 41.3653 78.3364C42.2927 76.988 42.3746 75.6601 41.6971 74.2108C40.6435 71.9567 39.6173 69.6898 38.5473 67.3896Z" fill="white"/>
<path d="M338.672 80.4046C338.297 81.3104 337.59 81.3814 336.756 81.5374C335.15 81.838 333.543 82.2795 332.027 82.8887C329.784 83.7904 327.621 84.893 325.419 85.8985C325.16 86.0166 324.868 86.0609 324.52 86.1595C324.623 83.459 326.255 82.139 328.559 81.3013C327.507 80.6093 326.542 79.9859 325.59 79.3446C324.571 78.6593 324.173 77.4254 324.757 76.3431C325.247 75.4358 325.825 74.5389 326.528 73.792C327.915 72.3192 329.283 70.8076 331.108 69.8187C332.419 69.1083 334.354 68.8775 335.475 70.3036C335.583 70.4403 335.721 70.5528 335.844 70.677C336.557 71.3942 336.731 72.0618 336.264 72.9349C335.876 73.6589 335.407 74.3573 334.873 74.9797C334.196 75.7681 333.677 75.6707 333.182 74.7303C332.766 73.9393 332.205 73.3391 331.313 73.1278C331.116 73.0811 330.855 73.063 330.692 73.1547C329.995 73.5477 329.304 73.9595 328.65 74.4193C328.272 74.6855 328.309 75.2966 328.7 75.7448C330.114 77.3669 331.849 78.3255 334.053 78.339C335.758 78.3494 337.452 78.3094 339.108 77.8229C339.368 77.7464 339.67 77.8122 340.057 77.8122C339.867 78.8441 339.097 79.5137 338.672 80.4046Z" fill="white"/>
<path d="M146.814 47.6782C146.946 48.6248 147.08 49.5104 147.205 50.3973C147.422 51.9401 147.641 53.4828 147.846 55.0274C147.995 56.1516 148.107 57.2807 148.261 58.4042C148.46 59.862 148.691 61.3153 148.893 62.7728C149.045 63.8743 149.172 64.9792 149.308 66.0828C149.484 67.5056 149.667 68.9277 149.828 70.3522C149.898 70.9734 149.948 71.5993 149.961 72.2241C150.016 74.7306 150.137 77.2398 150.065 79.7432C150.024 81.1771 149.667 82.6029 149.432 84.0291C149.4 84.2266 149.29 84.438 149.154 84.586C148.883 84.8808 148.578 84.9219 148.393 84.4935C148.271 84.2077 148.152 83.8971 148.136 83.5921C148.068 82.2906 148.075 80.9846 147.986 79.6849C147.842 77.5806 147.658 75.4786 147.465 73.378C147.311 71.7126 147.147 70.0472 146.935 68.3885C146.708 66.6122 146.408 64.8453 146.161 63.0713C145.925 61.3784 145.725 59.6806 145.495 57.9869C145.242 56.1257 144.948 54.2697 144.719 52.4058C144.546 50.9988 144.515 49.5722 144.298 48.1734C143.979 46.1218 144.479 44.1892 144.982 42.2481C145.054 41.9701 145.215 41.6997 145.391 41.4687C145.555 41.2541 146.064 41.4452 146.133 41.7498C146.245 42.246 146.355 42.7467 146.408 43.2517C146.558 44.7054 146.679 46.1622 146.814 47.6782Z" fill="white"/>
<path d="M307.818 64.7804C307.683 63.726 307.557 62.7302 307.412 61.737C307.249 60.6194 307.058 59.5059 306.901 58.3875C306.672 56.7584 306.45 55.1282 306.248 53.4955C305.971 51.2563 306.045 49.058 307.014 46.9566C307.189 46.579 307.365 46.2588 307.791 46.421C307.985 46.4949 308.161 46.8206 308.201 47.0567C308.366 48.0234 308.475 48.9999 308.607 49.9723C308.777 51.2205 308.952 52.468 309.121 53.7163C309.302 55.0499 309.465 56.3861 309.662 57.7175C309.904 59.3612 310.183 60.9995 310.425 62.6433C310.624 63.996 310.787 65.3538 310.973 66.7083C311.185 68.2522 311.427 69.7923 311.614 71.3391C311.743 72.4072 311.829 73.4824 311.886 74.557C311.958 75.9242 311.94 77.2969 312.035 78.6621C312.192 80.9228 312.073 83.1538 311.494 85.3498C311.395 85.7238 311.272 86.1008 310.755 86.0928C310.266 86.0852 310.252 85.7118 310.176 85.3856C310.123 85.1608 310.068 84.9323 310.056 84.7032C309.962 82.8857 309.926 81.0637 309.776 79.251C309.616 77.3084 309.392 75.3687 309.122 73.4381C308.77 70.9278 308.343 68.428 307.953 65.923C307.897 65.5638 307.863 65.2011 307.818 64.7804Z" fill="white"/>
<path d="M408.759 56.6425C408.977 58.3116 409.208 59.9184 409.409 61.5291C409.563 62.7629 409.664 64.0032 409.814 65.2376C410.064 67.2963 410.342 69.3516 410.593 71.4103C410.666 72.009 410.712 72.6136 410.726 73.2165C410.781 75.5041 410.909 77.795 410.833 80.0789C410.774 81.8548 410.702 83.6701 409.926 85.3319C409.805 85.5928 409.463 85.7512 409.223 85.9571C409.025 85.6836 408.805 85.4225 408.639 85.1305C408.573 85.0147 408.631 84.8301 408.627 84.677C408.584 82.9364 408.589 81.1929 408.483 79.4561C408.365 77.5037 408.17 75.5548 407.964 73.6092C407.729 71.3957 407.446 69.1873 407.181 66.977C406.964 65.1712 406.74 63.3663 406.526 61.5602C406.303 59.6888 406.06 57.8192 405.877 55.9438C405.658 53.6902 405.695 51.4585 406.871 49.4171C407 49.1941 407.293 49.0661 407.51 48.894C407.665 49.1168 407.896 49.3201 407.959 49.5665C408.096 50.0982 408.168 50.6498 408.23 51.1974C408.415 52.8598 408.584 54.5241 408.756 56.188C408.77 56.318 408.759 56.4505 408.759 56.6425Z" fill="white"/>
<path d="M326.501 54.2116C325.874 52.9971 326.379 51.9229 326.813 50.876C327.416 49.4214 328.424 48.266 329.688 47.3299C330.959 46.3886 332.522 47.0669 333.197 48.328C333.769 49.3938 334.015 50.5826 333.947 51.7715C333.884 52.8662 333.585 53.9463 333.419 55.0372C333.393 55.2113 333.465 55.4609 333.586 55.5844C333.836 55.8414 334.141 56.05 334.439 56.256C335.255 56.8201 335.036 57.6059 334.881 58.3606C334.802 58.7493 334.635 59.1204 334.503 59.4981C334.321 60.0235 333.977 60.1123 333.569 59.7238C333.154 59.3285 332.761 58.9104 332.35 58.5102C332.069 58.2362 331.853 58.2783 331.654 58.6356C330.302 61.0676 328.368 62.9133 325.925 64.2236C324.475 65.0009 323.014 65.7578 321.532 66.4707C321.188 66.6365 320.72 66.6836 320.343 66.6105C319.85 66.515 319.933 66.0546 320.179 65.8079C320.773 65.2126 321.401 64.6388 322.077 64.1391C324.549 62.3112 327.21 60.726 329.334 58.4551C329.683 58.082 329.984 57.6652 330.285 57.297C329.01 56.2683 327.765 55.2637 326.501 54.2116ZM331.345 50.8174C331.16 50.5383 330.98 50.2549 330.787 49.981C330.484 49.5497 330.039 49.5638 329.722 49.8493C329.269 50.2569 328.858 50.7435 328.556 51.2689C328.444 51.462 328.591 51.9909 328.791 52.1447C329.708 52.8499 330.685 53.4764 331.638 54.1302C331.941 53.3523 331.798 51.7396 331.345 50.8174Z" fill="white"/>
<path d="M367.195 62.0022C368.786 61.0665 371.14 58.9526 372.36 57.3389C371.902 57.0191 371.432 56.7166 370.99 56.3767C370.278 55.8281 369.57 55.2727 368.888 54.6875C368.029 53.9509 368.188 52.9792 368.424 52.0611C368.92 50.1301 370.017 48.5886 371.647 47.4348C373.062 46.4327 374.464 47.1169 375.111 48.3591C375.924 49.919 376.081 51.5664 375.773 53.2781C375.675 53.8214 375.682 54.4036 375.478 54.9018C375.295 55.3508 375.472 55.5762 375.755 55.7671C377.055 56.6424 377.241 57.2164 376.696 58.9645C376.69 58.9848 376.7 59.0123 376.691 59.0293C376.493 59.3751 376.294 59.7199 376.095 60.0648C375.758 59.8147 375.415 59.574 375.089 59.3108C374.899 59.157 374.751 58.9505 374.561 58.7967C373.857 58.2271 373.875 58.2434 373.435 59.0493C372.343 61.0517 370.772 62.6238 368.823 63.7632C367.041 64.805 365.169 65.6942 363.338 66.6517C363.282 66.6812 363.226 66.7583 363.179 66.7519C362.829 66.7055 362.322 66.7631 362.17 66.5597C361.906 66.2075 362.132 65.7869 362.505 65.5099C363.649 64.6606 364.79 63.8071 365.932 62.9549C366.342 62.6492 366.751 62.3427 367.195 62.0022ZM373.798 53.5352C373.754 52.936 373.786 52.3182 373.647 51.7422C373.464 50.9902 373.238 50.0912 372.436 49.8547C371.541 49.5908 371.101 50.4359 370.658 51.0578C370.323 51.5274 370.488 52.1235 370.991 52.4371C371.204 52.5704 371.423 52.6962 371.63 52.839C372.332 53.3225 373.029 53.812 373.798 54.3477C373.798 54.0438 373.798 53.8499 373.798 53.5352Z" fill="white"/>
<path d="M78.333 47.9993C79.3505 50.244 78.9987 52.439 78.3755 54.7607C78.6091 54.9652 78.8934 55.292 79.2457 55.5073C80.163 56.0679 80.0004 56.9265 79.8778 57.7411C79.8074 58.2094 79.5105 58.64 79.4069 59.1078C79.2773 59.6936 78.99 59.4314 78.7772 59.2468C78.3819 58.9038 78.0407 58.4994 77.6551 58.1442C77.4432 57.949 77.1868 57.802 76.9985 57.6675C76.2361 58.7008 75.5663 59.6993 74.8037 60.6209C73.6539 62.0103 72.1233 62.9537 70.5984 63.8527C69.2043 64.6747 67.7166 65.3437 66.2413 66.0168C65.9725 66.1395 65.4055 66.0802 65.2573 65.8881C65.0195 65.5796 65.1946 65.1618 65.5575 64.8877C66.7477 63.989 67.9326 63.083 69.111 62.1688C70.8469 60.8219 72.5971 59.4919 74.2931 58.0963C74.7686 57.7049 75.0752 57.1082 75.414 56.665C74.1754 55.6976 72.9451 54.815 71.8138 53.8198C71.2521 53.3257 71.2305 52.521 71.4181 51.828C71.8795 50.1231 72.6244 48.5596 74.0024 47.3781C74.2945 47.1277 74.5918 46.8797 74.9088 46.663C76.0856 45.8582 77.5566 46.453 78.333 47.9993ZM76.7574 52.377C76.7845 51.4467 76.5775 50.5834 76.1392 49.7509C75.8139 49.1329 75.3305 48.8632 74.7779 49.2582C74.3657 49.5529 74.0396 49.9906 73.7357 50.4086C73.3074 50.9978 73.3757 51.2535 73.967 51.6952C74.1539 51.8348 74.3343 51.9836 74.527 52.1145C75.2331 52.5942 75.943 53.0681 76.7574 53.6154C76.7574 53.1419 76.7574 52.8214 76.7574 52.377Z" fill="white"/>
<path d="M218.19 57.007C217.962 57.5921 218.429 57.8369 218.715 58.004C219.653 58.5525 219.802 59.3036 219.499 60.2551C219.39 60.5959 219.335 60.9539 219.229 61.2955C219.035 61.9172 218.838 61.9583 218.359 61.4906C218.014 61.1545 217.69 60.7962 217.333 60.4754C216.857 60.049 216.653 60.1015 216.361 60.6452C215.232 62.7455 213.676 64.4435 211.567 65.5818C209.953 66.4531 208.304 67.2594 206.672 68.0986C206.284 68.2985 205.837 68.3429 205.664 67.9353C205.564 67.7005 205.736 67.194 205.954 67.0078C206.812 66.277 207.735 65.6234 208.636 64.9437C210.404 63.6105 212.198 62.3117 213.925 60.9278C214.477 60.4855 214.85 59.8198 215.334 59.2199C214.537 58.6485 213.762 58.1317 213.031 57.5591C212.177 56.8898 211.181 56.2716 211.481 54.9199C211.59 54.4281 211.71 53.9351 211.875 53.46C212.438 51.8436 213.479 50.591 214.915 49.686C215.898 49.0666 217.215 49.4447 217.781 50.4812C218.285 51.4022 218.599 52.3756 218.585 53.454C218.569 54.6373 218.597 55.8179 218.19 57.007ZM215.765 55.8553C215.886 55.939 216.012 56.0169 216.128 56.1074C216.47 56.3748 216.751 56.2763 216.717 55.8685C216.643 54.9841 216.661 54.0203 216.303 53.246C215.509 51.5319 214.918 51.7821 213.931 52.9554C213.478 53.4949 213.438 54.1371 213.835 54.4537C214.431 54.9281 215.067 55.3517 215.765 55.8553Z" fill="white"/>
<path d="M92.7445 68.8552C91.4733 68.0841 90.3263 67.2314 89.4458 66.0873C89.2843 65.8775 89.2325 65.3668 89.374 65.1763C90.1395 64.1462 90.948 63.1414 91.8271 62.2083C91.9953 62.0298 92.6614 62.0651 92.8991 62.253C93.7575 62.9319 94.531 63.7181 95.364 64.489C96.2435 63.4388 97.0465 62.4456 97.8891 61.4873C98.3767 60.9329 98.7107 60.9813 99.2502 61.4488C100.226 62.294 101.235 63.1004 102.23 63.9222C102.572 64.2045 102.83 64.4523 102.398 64.9145C101.53 65.8425 100.754 66.8602 99.8456 67.7435C99.6261 67.9569 98.9407 67.9512 98.6368 67.7682C97.7846 67.2551 97.0197 66.5968 96.1517 65.9441C95.4745 66.7184 94.7259 67.4668 94.1141 68.3141C93.7441 68.8264 93.3268 68.9025 92.7445 68.8552Z" fill="white"/>
<path d="M98.4075 42.4934C99.1541 42.6792 99.8643 42.8057 100.558 42.9922C100.922 43.0898 101.23 43.2614 100.956 43.7756C100.642 44.3642 100.514 45.0726 100.125 45.5948C99.7143 46.146 99.0864 46.5335 98.5618 47.002C96.4566 48.8822 93.7162 49.3012 91.1803 50.1795C90.9171 50.2706 90.4168 50.0969 90.2266 49.8747C89.9808 49.5877 90.1992 49.1979 90.5229 49.0027C91.4085 48.4688 92.3049 47.9523 93.208 47.4484C94.4208 46.7718 95.6439 46.1136 96.9258 45.4129C95.4709 44.9135 94.1491 44.2709 92.6452 44.4252C91.158 44.5778 89.8201 45.0025 88.9331 46.3441C88.7994 46.5462 88.4619 46.6136 88.2187 46.7434C88.1389 46.4568 87.9194 46.1201 88.0015 45.8916C88.6665 44.039 89.771 42.5025 91.6937 41.849C92.5852 41.5461 93.6205 41.4341 94.5542 41.5443C95.8423 41.6962 97.096 42.1402 98.4075 42.4934Z" fill="white"/>
<path d="M21.4658 48.7971C20.5756 49.1996 19.7333 49.5856 18.875 49.9324C18.6878 50.008 18.4439 49.9434 18.2288 49.9434C17.9916 48.7192 18.7903 47.2743 19.9085 46.8091C21.6755 46.074 23.4328 45.3154 25.1908 44.559C27.8775 43.4029 30.5599 42.2366 33.2471 41.0814C35.0629 40.3009 36.881 39.5253 38.7066 38.7683C38.8905 38.692 39.134 38.7593 39.3498 38.76C39.3328 38.9576 39.3523 39.1669 39.2932 39.3509C38.7981 40.893 37.8058 41.8966 36.2547 42.4807C34.2679 43.2288 32.3482 44.1541 30.3939 44.9898C28.1505 45.9491 25.9006 46.8929 23.6543 47.8453C22.9375 48.1493 22.2233 48.4593 21.4658 48.7971Z" fill="white"/>
<path d="M342.472 52.0257C342.21 52.1277 341.985 52.1968 341.76 52.266C341.711 52.0466 341.561 51.7885 341.628 51.6141C342.197 50.14 343.006 48.8344 344.343 47.9107C345.176 47.3348 346.109 47.1271 347.091 47.0529C348.418 46.9527 349.67 47.2108 350.916 47.6867C351.952 48.0827 353.045 48.3498 354.133 48.585C354.677 48.7026 354.738 49.0121 354.595 49.3778C354.288 50.1578 354.109 51.1918 353.516 51.6173C351.671 52.9416 349.914 54.4912 347.561 54.9487C346.736 55.1093 345.933 55.3858 345.116 55.5979C344.872 55.6613 344.619 55.7179 344.369 55.721C343.889 55.7269 343.648 55.2982 343.948 54.9152C344.199 54.5961 344.524 54.299 344.877 54.1037C346.633 53.1338 348.409 52.2018 350.176 51.252C350.266 51.2034 350.334 51.1132 350.419 51.0368C347.931 49.6579 344.809 49.2556 342.472 52.0257Z" fill="white"/>
<path d="M265.764 37.5898C263.695 38.5035 261.679 39.4151 259.659 40.315C259.528 40.373 259.358 40.3514 259.206 40.3477C258.882 40.3398 258.736 40.2667 258.89 39.8707C259.056 39.4425 259.084 38.9626 259.193 38.51C259.411 37.5991 260.214 37.2846 260.925 36.9481C262.848 36.0384 264.802 35.193 266.744 34.324C269.821 32.9472 272.897 31.5669 275.982 30.2079C276.184 30.1187 276.461 30.1975 276.703 30.1982C276.702 30.4405 276.749 30.6947 276.692 30.9231C276.247 32.7157 274.949 33.5877 273.314 34.2248C271.431 34.9583 269.618 35.8694 267.774 36.7027C267.122 36.9978 266.468 37.2909 265.764 37.5898Z" fill="white"/>
<path d="M245.774 93.5814C241.924 95.1879 238.125 96.787 234.329 98.3941C233.789 98.623 233.296 99.0267 232.577 98.7485C232.846 97.9817 233.016 97.158 233.41 96.4605C233.919 95.5592 234.996 95.4202 235.862 95.0406C238.096 94.0613 240.362 93.1571 242.61 92.2103C245.053 91.1817 247.487 90.1345 249.931 89.1086C250.172 89.0073 250.452 88.9979 250.717 88.9452C250.857 90.2559 249.708 91.9374 248.484 92.4068C247.581 92.7531 246.71 93.1836 245.774 93.5814Z" fill="white"/>
<path d="M112.736 100.369C112.912 99.8401 112.982 99.3126 113.227 98.8842C113.451 98.4912 113.804 98.0811 114.202 97.8929C116.029 97.0287 117.89 96.2339 119.743 95.4253C121.306 94.7433 122.881 94.09 124.44 93.3996C126.212 92.6149 127.97 91.8008 129.739 91.0078C129.871 90.9486 130.036 90.9671 130.181 90.9311C130.704 90.8013 130.929 90.9923 130.762 91.5049C130.374 92.6922 129.749 93.726 128.567 94.2749C126.943 95.029 125.304 95.7503 123.664 96.4676C121.87 97.252 120.07 98.0218 118.268 98.7868C116.622 99.4855 114.971 100.175 113.318 100.856C112.913 101.023 112.564 101.04 112.736 100.369Z" fill="white"/>
<path d="M163.225 58.8802C160.986 59.7627 158.803 60.6532 156.61 61.5171C155.962 61.7725 155.892 61.6733 156.007 61.001C156.254 59.5595 157.005 58.6848 158.455 58.1887C160.522 57.4811 162.506 56.5299 164.526 55.6836C166.584 54.8211 168.644 53.9613 170.702 53.0968C171.382 52.8112 172.05 52.4974 172.737 52.2295C173.161 52.0641 173.609 51.961 174.046 51.83C174.107 51.8838 174.168 51.9376 174.229 51.9914C174.053 52.4896 173.926 53.013 173.689 53.4808C173.186 54.476 172.302 55.0421 171.3 55.463C169.242 56.3273 167.191 57.2078 165.137 58.0823C164.517 58.3465 163.897 58.6127 163.225 58.8802Z" fill="white"/>
<path d="M273.682 60.4302C274.393 61.0752 275.046 61.7147 275.752 62.2901C276.246 62.6924 276.314 62.9759 275.858 63.437C275.104 64.1979 274.347 64.9556 273.584 65.7076C273.038 66.246 272.534 66.3004 271.96 65.7939C271.111 65.0448 270.285 64.2658 269.493 63.4566C269.008 62.9616 269.053 62.5046 269.547 62.0014C270.328 61.2059 271.117 60.418 271.912 59.6374C272.309 59.2485 272.794 59.3117 273.116 59.754C273.28 59.9783 273.469 60.1835 273.682 60.4302Z" fill="white"/>
<path d="M93.1569 59.1816C92.6719 58.6963 92.1931 58.2688 91.7769 57.7871C91.4741 57.4365 91.5347 57.0757 91.8682 56.705C92.6276 55.8605 93.352 54.9836 94.0711 54.104C94.4296 53.6654 94.7905 53.6279 95.2185 54.0144C96.002 54.7219 96.7966 55.4171 97.5864 56.1176C97.6027 56.1321 97.6146 56.1524 97.6323 56.1642C98.7863 56.9326 98.7959 56.9402 97.961 57.9794C97.3436 58.7479 96.7477 59.5465 96.0351 60.218C95.804 60.4357 95.1734 60.4322 94.8314 60.2846C94.2406 60.0295 93.7326 59.5826 93.1569 59.1816Z" fill="white"/>
<path d="M351.75 66.4069C351.423 66.7332 351.129 67.0263 350.836 67.32C350.133 68.0226 349.4 68.0397 348.67 67.3296C347.812 66.4953 346.978 65.6361 346.056 64.7095C346.38 64.2972 346.628 63.9393 346.919 63.6203C347.606 62.8678 348.305 62.1265 349.014 61.3948C349.429 60.9667 349.739 61.0279 350.158 61.4497C351.111 62.4093 352.085 63.3487 353.077 64.2681C353.376 64.5455 353.374 64.7725 353.126 65.0301C352.687 65.4864 352.231 65.9269 351.75 66.4069Z" fill="white"/>
<path d="M31.6429 58.4549C31.1773 58.9202 30.7445 59.3524 30.3119 59.7848C29.6058 60.4905 29.2359 60.57 28.4548 59.9251C27.5957 59.2157 26.8066 58.4169 26.0274 57.6175C25.6277 57.2075 25.6476 56.7762 26.117 56.3421C26.9342 55.5865 27.6999 54.7752 28.4882 53.9882C29.0337 53.4437 29.1518 53.494 29.6902 54.0479C30.5851 54.9687 31.5181 55.8557 32.4796 56.7066C32.8311 57.0177 32.8176 57.2527 32.555 57.5427C32.2772 57.8497 31.9701 58.13 31.6429 58.4549Z" fill="white"/>
<path d="M389.558 95.3629C388.737 95.6232 388.208 95.153 387.72 94.6754C387.071 94.0394 386.465 93.3587 385.854 92.6844C385.48 92.2715 385.481 91.8352 385.878 91.4327C386.693 90.6085 387.521 89.7988 388.331 88.9704C388.699 88.5937 389.011 88.6215 389.378 88.981C390.376 89.9574 391.389 90.9188 392.406 91.8748C392.698 92.1488 392.6 92.3361 392.358 92.5727C391.429 93.482 390.514 94.4053 389.558 95.3629Z" fill="white"/>
</svg>
