<svg width="429" height="143" viewBox="0 0 429 143" fill="none" xmlns="http://www.w3.org/2000/svg">
<path d="M132.714 64.4576C132.919 66.1097 133.098 67.7083 133.27 69.3078C133.325 69.8215 133.373 70.3367 133.402 70.8524C133.456 71.8049 133.502 72.758 133.535 73.7115C133.586 75.1899 133.69 76.6706 133.652 78.1472C133.603 80.012 133.261 81.8423 132.076 83.3553C130.839 84.9338 129.276 85.9978 127.157 85.9575C126.263 85.9405 125.334 86.0698 124.482 85.8723C122.608 85.4383 121.048 84.4701 120.079 82.7095C119.886 82.3589 119.544 82.0936 119.298 81.7679C119.007 81.3815 118.676 81.4382 118.339 81.655C115.628 83.4004 112.684 84.6447 109.537 85.2388C106.684 85.7772 103.77 85.939 101.058 84.4993C100.314 84.1041 99.6391 83.5773 98.9399 83.1156C98.4359 84.2157 97.9455 85.3717 97.3819 86.4908C96.8795 87.4884 96.0111 88.002 94.9105 88.2C92.8598 88.5689 91.2366 87.6607 89.7232 86.483C88.9081 85.8487 88.9691 85.8159 88.2277 86.5039C87.2539 87.4075 86.1075 87.9349 84.7633 88.0689C82.2799 88.3165 80.1099 87.4496 78.0315 86.2479C77.2637 85.804 76.5478 85.2705 75.7833 84.8202C75.6049 84.7152 75.2928 84.7037 75.0966 84.7833C73.5164 85.4245 71.9565 86.1162 70.3745 86.7528C69.6933 87.0269 68.9754 87.2103 68.2722 87.4289C67.8852 87.5492 67.6624 87.7549 67.5375 88.1883C67.0538 89.8674 66.5521 91.5443 65.9724 93.1922C64.9002 96.2397 63.7797 99.2801 61.894 101.941C60.9428 103.283 59.6695 104.319 58.2352 105.15C56.163 106.35 53.9295 106.76 51.5526 106.746C49.4732 106.734 47.3961 106.692 45.3884 106.169C43.8057 105.757 42.2647 105.154 40.7466 104.535C39.6401 104.083 38.6013 103.466 37.532 102.923C37.0411 102.674 36.8685 102.147 37.1347 101.814C37.3632 101.529 37.9876 101.338 38.3597 101.428C39.8718 101.791 41.3362 102.358 42.8518 102.7C44.8945 103.162 46.9748 103.415 49.071 103.042C50.4054 102.804 51.7346 102.535 53.0613 102.257C54.53 101.949 55.7307 101.098 56.8894 100.22C58.4984 99.0018 59.8297 97.4939 60.8315 95.7466C62.0708 93.5852 63.2046 91.3632 64.3787 89.1645C64.4156 89.0955 64.3951 88.9958 64.4037 88.8794C64.2643 88.87 64.1315 88.8325 64.0116 88.8574C63.0246 89.0627 62.7145 88.9471 62.3064 88.0263C61.9239 87.1635 61.5971 86.2737 61.2897 85.3806C61.0681 84.7367 61.4733 84.0829 62.2157 83.8601C63.7287 83.4059 65.2668 83.0288 66.7621 82.524C68.5365 81.9249 70.2861 81.2485 72.0289 80.561C73.4972 79.9818 74.9308 79.3148 76.3983 78.7335C77.229 78.4045 77.425 78.509 77.5314 79.3938C77.6207 80.1366 77.5498 80.8986 77.5498 81.8094C78.5436 82.0687 79.6871 82.4322 80.8577 82.6524C81.8247 82.8344 82.822 82.889 83.8086 82.925C85.3333 82.9805 86.6072 82.341 87.7292 81.3574C89.2077 80.0614 90.3288 78.5337 90.8325 76.5985C90.8783 76.4227 90.9969 76.22 91.1435 76.1269C91.3636 75.9871 91.6349 75.8926 91.8922 75.8707C91.9581 75.8652 92.1478 76.2204 92.1204 76.3829C91.8624 77.9092 91.5686 79.4294 91.2883 80.9519C91.2503 81.158 91.2298 81.3672 91.1864 81.6821C92.5669 82.105 93.9093 82.53 95.2608 82.9235C95.788 83.077 96.586 82.6248 96.9987 82.031C97.7405 80.9634 97.9922 79.7158 98.3067 78.4937C98.47 77.8595 98.5495 77.2036 98.7158 76.5703C98.8467 76.0719 99.0994 75.604 99.7268 75.7264C99.9363 75.7674 100.255 76.0452 100.257 76.2176C100.266 77.0686 100.186 77.9204 100.131 78.8873C105.31 81.7805 110.55 81.7578 115.835 78.4045C114.947 77.9659 114.078 77.4836 113.167 77.0991C111.807 76.5248 110.378 76.4768 108.942 76.7656C108.559 76.8427 108.205 77.0699 107.822 77.1399C107.253 77.2438 107.098 76.8257 107.131 76.3854C107.223 75.1502 107.892 74.1675 108.618 73.2229C109.49 72.0873 110.49 71.0642 111.8 70.4653C112.707 70.0504 113.69 69.7614 114.668 69.5519C115.42 69.3907 116.217 69.4243 116.995 69.4004C118.804 69.3446 120.476 69.889 122.085 70.6434C122.81 70.9832 123.509 71.3885 124.185 71.8186C125.713 72.7906 125.719 73.8457 125.435 75.2983C125.05 77.2692 123.922 78.1182 122.349 79.3141C123.669 79.8037 124.847 80.3582 126.086 80.6716C127.7 81.0796 129.245 80.7318 130.641 79.7849C131.08 79.4868 131.374 79.1665 131.31 78.5751C131.115 76.7811 130.958 74.983 130.778 73.1872C130.653 71.9274 130.535 70.6663 130.377 69.4103C130.185 67.885 129.946 66.3657 129.744 64.8415C129.592 63.6951 129.477 62.5438 129.328 61.397C129.177 60.2326 128.997 59.072 128.841 57.9082C128.69 56.7845 128.557 55.6584 128.41 54.5342C128.268 53.4538 128.123 52.3738 127.97 51.2951C127.817 50.2181 127.625 49.146 127.496 48.0663C127.139 45.0718 126.901 42.0518 125.29 39.3744C125.027 38.9365 125.057 38.5011 125.372 38.0614C126.089 37.0614 126.765 36.0313 127.483 35.0321C127.625 34.8342 127.885 34.5989 128.088 34.6011C128.292 34.6033 128.568 34.8387 128.683 35.0444C129.444 36.403 130.16 37.7863 130.913 39.1497C131.127 39.5375 131.383 39.9101 131.67 40.2481C132.454 41.1736 132.113 42.2194 131.459 42.8859C131.198 43.1515 130.959 43.4474 130.666 43.6701C129.882 44.2641 129.914 45.043 130.057 45.8918C130.237 46.9651 130.351 48.0494 130.517 49.1255C130.765 50.7464 131.047 52.3624 131.289 53.9843C131.488 55.3157 131.642 56.6538 131.83 57.9869C132.039 59.4658 132.272 60.9412 132.477 62.4205C132.568 63.0788 132.617 63.7429 132.714 64.4576Z" fill="white"/>
<path d="M387.496 71.2387C388.944 70.9741 390.332 70.6545 391.737 70.4631C393.46 70.2283 395.197 70.1 396.928 69.9284C397.058 69.9155 397.191 69.923 397.322 69.923C398.225 69.9227 399.128 69.9228 400.113 69.9228C399.991 68.7213 399.916 67.6988 399.777 66.6853C399.6 65.3985 399.373 64.1185 399.164 62.8364C398.937 61.4498 398.711 60.0631 398.476 58.6781C398.229 57.2317 397.971 55.7874 397.719 54.3421C397.502 53.1061 397.271 51.8725 397.074 50.6333C396.877 49.3904 396.795 48.1235 396.513 46.9017C396.283 45.9059 395.88 44.9402 395.465 44.0003C395.148 43.2816 395.151 42.7351 395.64 42.0528C396.222 41.2402 396.598 40.2794 397.06 39.3809C397.155 39.1945 397.195 38.9636 397.33 38.8169C397.532 38.5974 397.811 38.2698 398.029 38.2898C398.29 38.3137 398.64 38.607 398.747 38.8675C399.453 40.5952 400.297 42.2418 401.398 43.7521C401.499 43.89 401.617 44.0152 401.718 44.153C402.239 44.8666 402.174 45.581 401.509 46.3471C401.337 46.545 401.164 46.7569 400.95 46.9004C400.048 47.5043 400.018 48.3239 400.203 49.2933C400.446 50.5716 400.558 51.8745 400.744 53.1643C400.949 54.5783 401.187 55.9874 401.384 57.4023C401.541 58.5263 401.652 59.6566 401.795 60.7827C401.942 61.9488 402.13 63.1105 402.253 64.2792C402.484 66.4875 402.968 68.7114 402.051 70.8818C401.839 71.3821 401.551 71.8499 401.285 72.3579C403.248 73.4106 405.385 74.0546 407.571 74.5059C409.259 74.8543 410.973 75.0975 412.686 75.2979C414.355 75.4931 416.037 75.567 417.712 75.7092C418.522 75.7779 419.335 75.8493 420.137 75.9776C420.882 76.0968 421.046 76.3527 420.763 77.0311C420.285 78.1772 419.736 79.2938 419.219 80.4237C419.123 80.6317 419.037 80.8438 418.91 81.138C417.971 80.9406 417.005 80.7196 416.031 80.5367C414.399 80.23 412.773 80.1366 411.095 80.2714C407.56 80.5552 404.271 81.7351 400.959 82.8218C398.3 83.6939 395.718 84.7957 393.063 85.6802C391.065 86.3461 389.021 86.8996 386.967 87.3674C385.741 87.6464 384.459 87.7132 383.197 87.7868C381.009 87.9143 378.815 88.063 376.626 88.031C375.003 88.0072 373.385 87.7045 371.763 87.5379C369.463 87.3015 367.315 86.5645 365.243 85.5699C364.591 86.954 363.963 88.3502 363.281 89.7194C362.306 91.679 361.24 93.612 359.722 95.1928C357.917 97.0725 355.838 98.5701 353.103 98.8464C351.308 99.0276 349.541 98.9726 347.746 98.7345C344.212 98.2658 341.143 96.7197 338.185 94.8769C337.886 94.6903 337.67 94.28 337.557 93.928C337.514 93.7922 337.842 93.3927 338.046 93.3542C338.433 93.2812 338.873 93.3135 339.257 93.4224C340.653 93.8185 342.024 94.304 343.426 94.6755C344.185 94.8765 344.984 94.9809 345.769 95.0138C347.782 95.098 349.797 95.0586 351.776 94.6256C353.577 94.2318 355.206 93.4894 356.643 92.2896C358.883 90.4181 360.587 88.1478 361.902 85.5643C362.131 85.1153 362.346 84.6595 362.55 84.2432C361.991 83.6407 361.394 83.0623 360.873 82.4223C359.671 80.9463 359.548 79.2375 360.042 77.4912C360.308 76.5479 360.773 75.656 361.199 74.7655C361.303 74.5483 361.609 74.4278 361.822 74.2628C361.958 74.4888 362.182 74.7023 362.216 74.9427C362.526 77.1341 363.942 78.4745 365.73 79.5003C368.111 80.8661 370.699 81.7112 373.374 82.2458C374.88 82.5469 376.428 82.6651 377.964 82.7909C379.24 82.8955 380.527 82.9529 381.807 82.9218C384.401 82.8587 386.96 82.5165 389.497 81.9295C393.1 81.096 396.64 80.0633 400.132 78.8582C400.864 78.6056 401.584 78.3183 402.513 77.9708C401.48 77.6119 400.648 77.2465 399.778 77.036C397.948 76.5932 396.115 76.087 394.253 75.8789C392.5 75.6831 390.705 75.7723 388.935 75.8589C387.683 75.9202 386.442 76.2067 385.192 76.3464C384.876 76.3817 384.541 76.2399 384.215 76.1794C384.281 75.8353 384.26 75.4385 384.43 75.1568C385.01 74.1957 385.707 73.3032 386.258 72.3279C386.553 71.8069 386.929 71.4739 387.496 71.2387Z" fill="white"/>
<path d="M261.548 85.8292C262.996 86.3525 264.409 86.4196 265.894 86.2593C267.177 86.121 268.437 85.9669 269.599 85.4171C270.356 85.0591 271.11 84.6288 271.74 84.0853C273.312 82.7292 274.571 81.1064 275.495 79.2332C275.663 78.8933 275.949 78.6222 276.384 78.737C276.818 78.8516 276.822 79.2128 276.8 79.5756C276.666 81.8361 275.88 83.8635 274.608 85.7178C274.477 85.9095 274.344 86.0999 274.17 86.3504C275.192 86.3504 276.17 86.4331 277.129 86.3314C278.644 86.1707 280.142 85.8831 281.573 85.3076C283.18 84.6613 284.72 83.9047 285.943 82.6496C286.854 81.7144 287.495 80.592 287.983 79.3792C288.069 79.1672 288.265 78.9558 288.465 78.8429C288.926 78.5835 289.154 78.7235 289.15 79.2491C289.139 80.6969 288.68 82.0398 288.144 83.3617C288.05 83.5925 287.962 83.8257 287.825 84.1791C289.219 84.5961 290.598 85.038 291.996 85.4143C292.665 85.5943 293.247 85.1582 293.492 84.4248C294.105 82.5881 294.718 80.7511 295.333 78.9152C295.498 78.4243 295.691 77.9561 296.289 77.8454C296.733 77.7633 297.119 77.7994 297.032 78.383C296.916 79.1577 296.749 79.9253 296.585 80.6918C296.511 81.0367 296.39 81.3717 296.289 81.7195C297.735 81.9498 299.159 82.237 300.597 82.3853C301.614 82.4902 302.652 82.4396 303.678 82.3948C304.213 82.3715 304.699 81.7821 304.652 81.2216C304.559 80.1133 304.429 79.0059 304.257 77.907C304.026 76.4375 303.745 74.9759 303.48 73.512C303.09 71.3586 302.683 69.2082 302.306 67.0526C301.98 65.1865 301.702 63.312 301.374 61.4463C300.954 59.0612 300.482 56.6851 300.076 54.2976C299.851 52.9716 299.665 51.6347 299.551 50.2951C299.434 48.9123 299.059 47.6178 298.32 46.4652C297.57 45.2942 297.767 44.202 298.415 43.1291C298.963 42.2235 299.6 41.3723 300.193 40.4939C300.585 39.9129 300.843 39.902 301.201 40.5156C301.41 40.8745 301.505 41.2996 301.711 41.6613C302.378 42.8369 303.047 44.0132 303.764 45.1583C304.411 46.1914 304.45 47.1223 303.786 48.128C303.436 48.6581 303.078 49.183 302.732 49.716C302.161 50.596 302.623 51.5009 302.738 52.3701C302.961 54.0539 303.31 55.7211 303.613 57.3942C303.904 59.0039 304.213 60.6105 304.496 62.2217C304.782 63.8564 305.042 65.4958 305.322 67.1316C305.58 68.6406 305.842 70.1491 306.116 71.6553C306.367 73.0339 306.705 74.4006 306.88 75.7882C307.087 77.4319 307.299 79.0958 307.258 80.7447C307.205 82.8449 306.898 84.9363 305.982 86.8816C305.682 87.5195 305.146 87.8214 304.513 87.7789C303.299 87.6974 302.069 87.6074 300.888 87.3353C298.91 86.8794 297.041 86.0942 295.245 84.9585C294.953 85.7372 294.713 86.4717 294.405 87.1763C294.051 87.9851 293.688 88.7976 293.237 89.5542C292.623 90.5854 291.981 90.8452 290.834 90.5348C289.142 90.0769 287.489 89.5049 286.047 88.4596C285.927 88.3728 285.793 88.3025 285.686 88.2024C284.979 87.5382 284.977 87.5302 284.171 88.061C282.282 89.3044 280.203 90.0317 277.968 90.2869C276.429 90.4625 274.881 90.6528 273.337 90.6608C271.99 90.6677 270.643 90.3495 269.294 90.3288C268.509 90.3168 267.708 90.5625 266.935 90.7715C265.151 91.254 263.334 91.4574 261.503 91.3329C257.704 91.0746 255.09 88.6602 254.216 85.1249C253.693 83.0053 253.371 80.8333 253.019 78.6749C252.669 76.5264 252.396 74.3654 252.088 72.2101C251.783 70.0762 251.487 67.9409 251.167 65.8093C250.831 63.5753 250.458 61.3469 250.125 59.1124C249.883 57.4853 249.7 55.8495 249.457 54.2226C249.126 52.0101 248.762 49.8026 248.415 47.5927C248.279 46.73 248.05 45.8664 248.05 45.0032C248.05 44.3954 248.366 43.7876 248.54 43.1798C248.768 42.3899 248.976 41.5936 249.236 40.8148C249.298 40.6301 249.524 40.3975 249.693 40.3819C249.847 40.3676 250.13 40.5892 250.176 40.7559C250.408 41.6119 250.612 42.4782 250.769 43.3512C251.09 45.1313 251.385 46.9162 251.668 48.7027C251.872 49.9886 252.03 51.2816 252.224 52.5692C252.417 53.854 252.638 55.1347 252.831 56.4196C252.99 57.4757 253.121 58.536 253.274 59.5929C253.471 60.9434 253.682 62.2918 253.88 63.6423C254.034 64.6986 254.177 65.7566 254.324 66.8139C254.466 67.8292 254.6 68.8456 254.749 69.8598C254.907 70.9353 255.083 72.0083 255.244 73.0835C255.465 74.5603 255.663 76.0408 255.901 77.5148C256.097 78.729 256.256 79.9582 256.576 81.1417C257.208 83.4812 258.783 84.9567 261.072 85.6938C261.213 85.7389 261.353 85.7823 261.548 85.8292Z" fill="white"/>
<path d="M196.183 93.8086C198.61 93.2422 200.687 92.1121 202.576 90.5926C204.227 89.2642 205.393 87.579 206.162 85.6321C206.324 85.2217 206.226 84.6442 206.09 84.191C205.17 81.1197 203.708 78.2876 202.154 75.5008C201.784 74.8372 201.333 74.2152 201.008 73.5317C200.874 73.2492 200.915 72.844 200.978 72.5141C201.213 71.2878 201.478 70.0668 201.761 68.8506C201.823 68.5817 202.011 68.1261 202.132 68.1291C202.43 68.1365 202.821 68.2834 202.999 68.5115C203.465 69.1101 203.855 69.7711 204.241 70.4276C204.615 71.0649 205.059 71.6936 205.268 72.3875C205.527 73.2495 206.242 73.1211 206.77 73.1761C208.362 73.3418 209.952 73.4065 211.531 72.8665C213.016 72.3585 214.048 71.3313 215.015 70.2071C216.137 68.9018 216.796 67.3622 217.169 65.6801C217.233 65.3917 217.633 65.1778 217.878 64.9295C218.11 65.1732 218.507 65.3954 218.542 65.6648C218.631 66.3483 218.612 67.059 218.534 67.7476C218.457 68.4382 218.241 69.1124 218.129 69.8009C218.111 69.9108 218.305 70.1461 218.433 70.1739C219.551 70.4162 220.674 70.6376 221.8 70.8365C222.264 70.9185 222.74 70.9297 223.211 70.9745C223.583 71.0099 223.752 70.8343 223.698 70.4733C223.543 69.4415 223.349 68.4148 223.22 67.3798C223.048 65.9982 222.975 64.6202 223.462 63.266C223.719 62.554 223.879 61.808 224.098 61.0821C224.158 60.8842 224.24 60.6722 224.374 60.5218C224.642 60.222 224.947 60.1771 225.1 60.626C225.438 61.6216 225.863 62.6082 226.035 63.635C226.279 65.0942 226.424 66.5854 226.436 68.0644C226.452 69.9894 226.152 71.9225 225.335 73.6602C224.807 74.785 224.188 76.0826 222.836 76.4708C222.114 76.6781 221.25 76.6139 220.5 76.4476C219.21 76.1618 217.955 75.7147 216.696 75.3032C216.343 75.1878 216.026 74.9603 215.724 74.8008C214.966 75.4317 214.243 76.0755 213.476 76.6609C212.178 77.6512 210.686 78.2269 209.107 78.5975C209.025 78.6167 208.943 78.6345 208.862 78.6568C207.791 78.9512 207.822 78.9486 207.922 80.0615C208.079 81.8218 208.318 83.5882 208.291 85.3484C208.255 87.6533 207.783 89.9232 206.667 91.9636C206.203 92.8122 205.453 93.5423 204.719 94.1977C203.258 95.5009 201.662 96.6422 199.879 97.4695C197.996 98.3431 196.062 99.0878 193.957 99.2327C192.665 99.3215 191.371 99.5037 190.082 99.4749C187.604 99.4196 185.242 98.8405 183.186 97.3811C181.661 96.2992 180.732 94.8002 180.178 93.0062C179.534 90.9255 179.385 88.7978 179.577 86.677C179.728 84.9997 180.194 83.3468 180.576 81.6959C180.784 80.7961 181.079 79.9125 181.392 79.0425C181.54 78.6334 181.777 78.2326 182.065 77.9088C182.204 77.7527 182.59 77.6833 182.796 77.7593C182.984 77.829 183.22 78.1678 183.193 78.3519C183.107 78.9288 182.951 79.5053 182.743 80.0523C182.014 81.9757 181.454 83.9255 181.506 86.0125C181.553 87.9124 182.365 89.503 183.53 90.9157C185.187 92.9252 187.468 93.7543 189.967 94.1075C191.671 94.3484 193.367 94.3165 195.058 93.9821C195.413 93.912 195.776 93.8856 196.183 93.8086Z" fill="white"/>
<path d="M42.5376 93.9436C40.284 94.9613 37.9837 95.5914 35.5826 95.9813C33.4715 96.324 31.3668 96.2531 29.2727 96.1701C27.0548 96.0822 24.8478 95.6943 22.6401 95.4066C22.298 95.362 21.9412 95.2036 21.6586 95.0029C21.4429 94.8496 21.1495 94.4458 21.213 94.3293C21.3775 94.0279 21.7152 93.6227 21.9926 93.6158C23.1805 93.5864 24.3711 93.7101 25.5616 93.7319C26.9668 93.7577 28.3775 93.8059 29.7771 93.7133C30.9626 93.635 32.1485 93.4277 33.3103 93.1701C34.3119 92.9479 35.3232 92.67 36.2544 92.2492C38.7561 91.1186 41.1441 89.7921 43.1978 87.9203C45.8064 85.5427 47.8075 82.7607 49.0373 79.4417C49.1138 79.2353 49.1387 79.0099 49.208 78.7033C48.1085 78.8325 47.1172 78.9999 46.1197 79.0545C44.5276 79.1417 42.895 79.3906 41.3614 78.8225C39.7683 78.2323 38.9142 76.9558 38.6413 75.2883C38.1804 72.4718 38.9529 69.9202 40.4322 67.5753C41.0814 66.5463 41.8848 65.5849 42.7567 64.7349C43.5272 63.9838 44.5109 63.9552 45.5553 64.3783C47.2574 65.0679 48.2288 66.4601 49.1392 67.9076C50.4528 69.9962 51.1723 72.3199 51.5065 74.7435C51.8808 77.4568 51.6141 80.1393 50.8244 82.7667C50.0429 85.3668 48.655 87.6252 46.9309 89.6939C46.2157 90.5521 45.5418 91.4543 44.7497 92.2357C44.1031 92.8735 43.3086 93.3615 42.5376 93.9436ZM42.0609 71.0818C41.9725 71.2948 41.8709 71.5034 41.7979 71.7216C41.515 72.567 41.9994 73.5874 42.8582 73.7121C44.0263 73.8818 45.2139 73.9395 46.3955 73.9818C46.8652 73.9987 47.3409 73.8458 47.8139 73.7702C47.856 73.7046 47.8981 73.6389 47.9401 73.5733C46.906 72.4282 45.8955 71.2604 44.8268 70.1487C44.3655 69.6688 43.8012 69.4941 43.2169 70.0089C42.8453 70.3363 42.4742 70.6641 42.0609 71.0818Z" fill="white"/>
<path d="M141.739 98.9399C141.309 98.7481 140.887 98.529 141.053 98.0522C141.206 97.612 141.617 97.3686 142.131 97.3911C144.212 97.4821 146.291 97.5849 148.372 97.6507C150.576 97.7204 152.723 97.2955 154.778 96.5784C157.408 95.6611 159.797 94.2673 162.002 92.5405C164.756 90.3847 166.691 87.6135 168.26 84.549C168.575 83.9337 168.779 83.2618 169.071 82.5248C168.21 82.6467 167.443 82.8059 166.67 82.8546C164.792 82.9728 162.882 83.1877 161.06 82.6135C159.494 82.1202 158.669 80.8837 158.372 79.2717C157.995 77.2216 158.394 75.2872 159.161 73.3975C159.839 71.7293 160.785 70.212 162.001 68.9014C162.782 68.0603 164.046 67.5726 165.386 68.2116C166.9 68.9337 167.902 70.1396 168.768 71.5177C169.907 73.3278 170.676 75.2939 171.084 77.3703C171.445 79.2125 171.474 81.0866 171.287 82.9795C171.07 85.1857 170.495 87.2733 169.523 89.2339C168.926 90.4398 168.151 91.5712 167.354 92.6615C166.546 93.7674 165.66 94.8277 164.72 95.8246C163.48 97.14 161.947 97.9971 160.243 98.6546C156.657 100.038 152.937 100.179 149.192 99.9927C147.04 99.8857 144.901 99.5014 142.758 99.226C142.428 99.1836 142.109 99.0551 141.739 98.9399ZM163.444 77.6775C164.792 77.9879 166.111 77.7251 167.562 77.5757C166.667 76.1273 165.757 74.8917 164.472 73.9909C164.154 73.7679 163.662 73.481 163.376 73.5817C162.474 73.8994 161.798 74.5141 161.509 75.5112C161.149 76.7497 161.708 77.1566 162.52 77.513C162.766 77.6211 163.057 77.6255 163.444 77.6775Z" fill="white"/>
<path d="M25.1429 81.6551C26.448 80.6634 27.4379 79.4604 28.2571 78.1057C28.7465 77.2965 29.2613 76.4807 28.9974 75.4835C28.7828 74.6725 28.5298 73.8615 28.1925 73.095C27.233 70.9145 26.227 68.7542 25.2261 66.5921C25.0312 66.1713 24.8517 65.7027 24.5347 65.387C23.7248 64.5801 24.0645 63.6657 24.2093 62.7853C24.367 61.8264 24.618 60.8823 24.848 59.9364C24.8932 59.7503 25.0316 59.437 25.1208 59.4392C25.396 59.446 25.7532 59.4964 25.9236 59.6765C26.2687 60.0412 26.5689 60.4749 26.7876 60.9284C27.8604 63.1531 28.9713 65.364 29.9207 67.6414C30.3697 68.7184 30.5981 69.9211 30.729 71.0889C30.9191 72.786 31.0493 74.5073 30.9886 76.2106C30.9114 78.3754 30.7275 80.5965 29.5409 82.4778C28.8031 83.6476 27.7978 84.6849 26.7704 85.6267C25.4871 86.8031 23.965 87.6681 22.3646 88.3759C20.614 89.1501 18.8095 89.7395 16.8924 89.8927C15.7899 89.9808 14.6761 90.0754 13.5758 90.0149C10.8646 89.8658 8.34267 89.1564 6.31148 87.2096C5.09401 86.0428 4.56737 84.5392 4.20412 82.9493C3.85065 81.4022 3.68439 79.8298 3.83038 78.2572C3.97793 76.6678 4.21821 75.0808 4.52886 73.5148C4.7697 72.3007 5.16918 71.1167 5.52653 69.9279C5.60849 69.6552 5.75525 69.3556 5.96551 69.1803C6.19799 68.9866 6.5986 68.7554 6.81765 68.8358C7.23726 68.9898 7.34469 69.4401 7.18738 69.8817C7.04653 70.277 6.82802 70.6487 6.72079 71.0513C6.34634 72.4573 5.96267 73.8632 5.66072 75.2857C5.10249 77.9155 6.17921 80.0944 7.75793 82.0499C8.76122 83.2926 10.2482 83.8656 11.7222 84.3737C13.6579 85.041 15.6442 84.9922 17.653 84.7904C19.2995 84.625 20.8746 84.2493 22.319 83.4505C23.2794 82.9194 24.1785 82.2774 25.1429 81.6551Z" fill="white"/>
<path d="M238.775 67.1977C240.343 67.9891 241.459 69.2258 242.47 70.5386C243.28 71.5909 244.026 72.7122 244.65 73.8833C245.477 75.4365 245.998 77.1118 246.181 78.8828C246.417 81.1722 246.423 83.4515 245.901 85.703C245.756 86.329 245.434 86.8454 244.693 87.0253C241.924 87.6977 239.185 88.5044 236.397 89.0771C234.806 89.4038 233.141 89.3506 231.513 89.5147C230.337 89.6333 229.751 88.9134 229.629 87.8141C229.519 86.8254 229.535 85.8233 229.48 84.8279C229.45 84.2719 229.677 84.0254 230.239 84.1173C230.785 84.2065 231.33 84.3569 231.877 84.3655C232.695 84.3784 233.531 84.3785 234.33 84.2288C236.391 83.8429 238.436 83.3732 240.486 82.9344C241.5 82.7175 242.514 82.5028 243.525 82.2725C244.298 82.0966 244.606 81.5539 244.263 80.8362C243.264 78.7435 242.137 76.7343 240.557 74.9995C239.057 73.3532 237.347 72.0371 235.264 71.2192C235.138 71.1699 235.013 70.9243 235.016 70.7724C235.039 69.5127 235.077 68.2528 235.144 66.9947C235.169 66.5257 235.932 66.0804 236.461 66.2585C237.234 66.5186 237.979 66.8602 238.775 67.1977Z" fill="white"/>
<path d="M335.452 72.3216C336.762 71.0101 338.058 69.7708 339.666 68.8788C342.225 67.4591 344.374 68.5538 345.403 70.9279C345.533 71.2274 345.5 71.7216 345.334 72.0024C344.765 72.9657 344.137 73.8994 343.464 74.7929C343.119 75.2503 342.526 75.1506 342.21 74.6761C342 74.36 341.797 74.0389 341.595 73.717C341.047 72.8418 339.474 72.1053 338.364 72.9378C337.94 73.2558 337.467 73.5149 337.075 73.8673C336.445 74.435 336.422 74.75 337.006 75.3715C338.499 76.96 340.241 77.9573 342.518 78.1129C344.502 78.2485 346.395 78.0103 348.297 77.5582C348.565 77.4946 348.86 77.5495 349.301 77.5495C349.183 77.953 349.137 78.3279 348.969 78.6361C348.545 79.4138 348.119 80.2023 347.585 80.9035C347.329 81.2393 346.854 81.4909 346.431 81.6004C345.264 81.9027 344.053 82.0394 342.896 82.3691C340.15 83.1513 337.555 84.3198 335.025 85.6318C334.501 85.9037 334.016 86.2619 333.474 86.487C333.194 86.6037 332.828 86.5162 332.501 86.521C332.511 86.2827 332.472 86.0288 332.541 85.809C332.743 85.1668 332.981 84.5356 333.218 83.9049C333.562 82.9892 334.442 82.6516 335.163 82.1547C335.645 81.8221 336.183 81.5708 336.626 81.3227C335.556 80.607 334.394 79.9349 333.357 79.1062C332.319 78.2766 332.011 76.7284 333.028 75.2957C333.757 74.2673 334.617 73.3315 335.452 72.3216Z" fill="white"/>
<path d="M146.157 73.5617C146.201 73.8545 146.279 74.0846 146.28 74.3151C146.29 76.2421 146.368 78.1739 146.259 80.0948C146.177 81.5326 145.858 82.9577 145.626 84.3855C145.563 84.7736 145.402 85.2492 144.94 85.1288C144.677 85.0606 144.397 84.6116 144.34 84.2954C144.216 83.5981 144.225 82.8763 144.183 82.1644C144.051 79.919 143.961 77.6703 143.776 75.4293C143.617 73.5081 143.371 71.5932 143.125 69.6805C142.891 67.8602 142.591 66.0484 142.35 64.2289C142.15 62.7219 142.015 61.2061 141.81 59.6999C141.624 58.328 141.36 56.9667 141.17 55.5951C141.006 54.4064 140.911 53.2084 140.763 52.0173C140.557 50.3627 140.316 48.7123 140.116 47.0571C139.766 44.1668 139.693 41.2976 140.901 38.55C140.968 38.3968 141.065 38.255 141.161 38.1165C141.442 37.7112 141.765 37.7203 141.944 38.185C142.124 38.6522 142.274 39.1478 142.33 39.643C142.456 40.7776 142.489 41.9226 142.613 43.0576C142.748 44.2888 142.958 45.5115 143.105 46.7415C143.189 47.4477 143.181 48.1651 143.27 48.8706C143.418 50.0556 143.621 51.2336 143.781 52.4173C143.97 53.8163 144.126 55.2197 144.318 56.6183C144.514 58.0553 144.745 59.4877 144.945 60.9244C145.098 62.0259 145.229 63.1306 145.365 64.2344C145.542 65.6577 145.72 67.0808 145.886 68.5054C145.948 69.04 145.994 69.5777 146.02 70.1153C146.074 71.2428 146.111 72.3712 146.157 73.5617Z" fill="white"/>
<path d="M316.756 62.0164C316.931 63.0811 317.126 64.0836 317.276 65.0928C317.513 66.6765 317.727 68.2635 317.933 69.8512C318.041 70.6806 318.157 71.5127 318.193 72.3469C318.303 74.9295 318.468 77.5152 318.429 80.0969C318.407 81.5511 318.041 83.0025 317.796 84.4493C317.732 84.8276 317.56 85.2047 317.044 85.17C316.539 85.1361 316.438 84.7488 316.368 84.3683C316.294 83.9712 316.263 83.5652 316.231 83.1617C316.053 80.9065 315.907 78.6484 315.696 76.3964C315.518 74.4997 315.319 72.602 315.034 70.719C314.649 68.176 314.158 65.6492 313.743 63.1106C313.491 61.5741 313.298 60.0282 313.075 58.4871C312.824 56.7566 312.568 55.0269 312.314 53.2968C311.92 50.6022 311.73 47.925 313.105 45.4135C313.216 45.2117 313.503 44.975 313.695 44.9861C313.89 44.9974 314.187 45.2674 314.235 45.472C314.418 46.2555 314.532 47.0565 314.65 47.8541C314.876 49.3731 315.09 50.8939 315.304 52.4145C315.528 53.9994 315.723 55.5886 315.974 57.1692C316.203 58.6167 316.492 60.0547 316.748 61.4982C316.774 61.647 316.754 61.804 316.756 62.0164Z" fill="white"/>
<path d="M423.874 83.9835C423.83 82.2653 423.848 80.6079 423.727 78.9606C423.572 76.843 423.305 74.7336 423.087 72.6204C422.953 71.3184 422.845 70.0133 422.685 68.7145C422.492 67.1469 422.24 65.5866 422.043 64.0194C421.886 62.7642 421.78 61.5026 421.638 60.2453C421.472 58.7776 421.287 57.312 421.12 55.8445C421.061 55.3315 421.008 54.8165 420.987 54.301C420.931 52.9769 420.798 51.6462 420.878 50.3291C420.96 48.9514 421.427 47.6406 422.167 46.4584C422.272 46.2894 422.582 46.1398 422.773 46.1652C422.937 46.1871 423.153 46.4526 423.195 46.6437C423.328 47.2447 423.415 47.8589 423.475 48.4724C423.663 50.3977 423.821 52.3259 424.008 54.2512C424.17 55.9158 424.333 57.5809 424.537 59.2405C424.773 61.1475 425.067 63.0471 425.312 64.9528C425.468 66.1642 425.602 67.3792 425.709 68.5958C425.86 70.3128 426.027 72.0308 426.096 73.752C426.19 76.0815 426.303 78.419 426.203 80.7443C426.135 82.3233 425.721 83.8882 425.446 85.4566C425.407 85.6786 425.323 85.9296 425.175 86.0858C425.004 86.2655 424.721 86.4756 424.517 86.4481C424.327 86.4223 424.064 86.1221 424.028 85.9096C423.924 85.2982 423.918 84.6702 423.874 83.9835Z" fill="white"/>
<path d="M388.128 47.5811C388.161 48.6973 388.259 49.7588 388.198 50.8112C388.156 51.5385 387.874 52.2496 387.749 52.9764C387.72 53.145 387.857 53.3778 387.982 53.5277C388.127 53.7032 388.335 53.8328 388.531 53.9609C389.89 54.8532 389.433 56.0932 389.125 57.2647C388.767 58.6278 388.511 58.6706 387.508 57.678C387.083 57.2573 386.64 56.8552 386.191 56.432C385.596 57.3018 385.095 58.1085 384.521 58.8592C383.306 60.4458 381.823 61.7384 380.064 62.6946C378.429 63.5828 376.789 64.4614 375.133 65.3076C374.79 65.4831 374.367 65.5313 373.974 65.5717C373.762 65.5935 373.365 65.5041 373.349 65.413C373.297 65.1179 373.273 64.7063 373.439 64.5071C373.863 63.9985 374.356 63.5265 374.892 63.1358C376.829 61.7231 378.824 60.3899 380.739 58.9482C382.094 57.9277 383.421 56.8466 384.307 55.3377C383.133 54.4444 381.944 53.5634 380.782 52.6472C379.836 51.9007 379.844 50.894 380.106 49.8376C380.644 47.6696 381.775 45.8918 383.584 44.5669C385.176 43.4012 386.682 44.1721 387.44 45.5676C387.765 46.1666 387.902 46.8678 388.128 47.5811ZM384.704 51.19C385.065 51.44 385.425 51.69 385.786 51.94C385.855 51.9237 385.924 51.9073 385.992 51.8909C385.958 51.2332 385.953 50.5724 385.883 49.9186C385.788 49.0446 385.486 48.2403 384.892 47.5722C384.515 47.1472 384.063 47.0108 383.617 47.4368C383.212 47.8247 382.835 48.2523 382.503 48.7049C382.187 49.1363 382.289 49.5639 382.731 49.8695C383.355 50.3008 383.993 50.7122 384.704 51.19Z" fill="white"/>
<path d="M64.8938 54.4447C63.9123 53.6839 63.0175 52.8713 62.0051 52.2507C60.7503 51.4816 60.5701 50.3848 60.873 49.1528C61.4145 46.9513 62.6037 45.1535 64.4424 43.7827C66.015 42.6103 67.7586 43.7531 68.3233 44.9404C68.9018 46.1567 69.2335 47.4819 69.1163 48.8413C69.0217 49.9386 68.7553 51.0204 68.5967 52.1137C68.5668 52.3193 68.6381 52.5765 68.7502 52.7549C68.8558 52.9229 69.0667 53.0355 69.2487 53.1431C70.4812 53.871 70.2851 54.9703 70.0111 56.0816C69.9207 56.4482 69.7805 56.8028 69.6568 57.1607C69.4909 57.6408 69.1247 57.7359 68.7456 57.3744C68.1528 56.809 67.5786 56.2241 67.0526 55.7031C66.1066 56.9493 65.2752 58.1478 64.3365 59.2556C63.103 60.7113 61.4841 61.6976 59.8276 62.5939C58.3801 63.377 56.8893 64.0809 55.4085 64.8011C54.9451 65.0265 54.413 65.0779 54.0438 64.681C53.7694 64.386 54.1872 63.5849 54.6844 63.2161C57.5054 61.1239 60.3458 59.0562 63.1201 56.9035C63.8732 56.3192 64.423 55.4719 65.0535 54.7346C65.0781 54.7058 64.973 54.5661 64.8938 54.4447ZM63.4039 47.7207C63.0882 48.1821 62.9592 48.681 63.4649 49.0551C64.511 49.8287 65.5973 50.5478 66.7404 51.3401C66.807 49.8822 66.9124 48.508 66.0972 47.3385C65.3874 46.3201 64.9902 45.9933 63.9962 47.005C63.803 47.2016 63.6488 47.4366 63.4039 47.7207Z" fill="white"/>
<path d="M334.662 49.2079C335.304 47.1981 336.472 45.6272 338.124 44.4268C339.463 43.4548 341.1 44.235 341.876 45.5981C342.771 47.1721 342.708 48.8666 342.624 50.5544C342.581 51.4255 342.29 52.2842 342.124 53.0866C342.655 53.6857 343.421 54.225 343.709 54.9533C344.131 56.0172 343.602 57.1176 343.174 58.1307C343.012 58.515 342.608 58.3883 342.247 57.9863C341.819 57.5095 341.335 57.0827 340.863 56.6469C340.559 56.3652 340.341 56.5048 340.175 56.8249C338.835 59.4004 336.795 61.2871 334.3 62.6982C332.719 63.5924 331.103 64.4255 329.489 65.2592C329.16 65.4292 328.775 65.5248 328.405 65.5688C328.179 65.5958 327.759 65.5029 327.73 65.3878C327.659 65.1046 327.65 64.6746 327.819 64.4869C328.357 63.8909 328.945 63.3214 329.59 62.8444C331.739 61.2534 333.961 59.7574 336.075 58.1218C337.078 57.3458 337.9 56.3361 338.866 55.3707C337.956 54.7095 337.189 54.1909 336.467 53.6168C335.842 53.1206 335.225 52.6016 334.684 52.0182C334.186 51.4799 334.347 50.7632 334.416 50.1059C334.447 49.8178 334.559 49.5383 334.662 49.2079ZM337.124 49.7425C338.142 50.4461 339.159 51.1497 340.176 51.8533C340.247 51.819 340.317 51.7848 340.388 51.7506C340.353 51.127 340.41 50.4798 340.259 49.8855C340.056 49.0853 339.76 48.2891 339.367 47.5661C339.195 47.2516 338.7 46.8121 338.253 47.1939C337.698 47.6689 337.212 48.2443 336.789 48.8424C336.687 48.9861 336.954 49.3901 337.124 49.7425Z" fill="white"/>
<path d="M207.172 49.7795C206.191 49.0185 205.174 48.3645 204.322 47.5408C203.708 46.9471 203.787 46.0524 203.993 45.2528C204.518 43.2055 205.578 41.4887 207.288 40.2223C208.859 39.0596 210.285 39.8276 211.025 41.1937C211.645 42.3368 211.967 43.6291 211.853 44.947C211.764 45.9789 211.498 46.9946 211.341 48.0223C211.31 48.2292 211.348 48.5144 211.474 48.6632C211.719 48.9549 212.019 49.2277 212.35 49.4154C213.01 49.7905 212.985 50.4058 212.901 50.9811C212.807 51.6219 212.585 52.2468 212.387 52.8685C212.269 53.237 212.007 53.3869 211.668 53.1069C211.285 52.7914 210.93 52.4415 210.556 52.1144C210.304 51.893 210.039 51.6852 209.741 51.4395C209.351 52.0813 209.032 52.6771 208.646 53.2267C207.51 54.8478 206.075 56.169 204.372 57.1623C202.731 58.1191 201.042 58.9952 199.358 59.8748C199.013 60.0548 198.598 60.1479 198.208 60.1751C197.99 60.1903 197.607 60.028 197.565 59.8738C197.499 59.626 197.564 59.2363 197.732 59.0522C198.213 58.528 198.736 58.0271 199.309 57.6065C201.464 56.0224 203.682 54.5211 205.8 52.8891C206.675 52.2146 207.356 51.2882 208.151 50.4496C207.768 50.1917 207.487 50.0028 207.172 49.7795ZM208.793 43.2484C207.9 42.3646 207.802 42.3601 206.941 43.2482C206.703 43.4931 206.43 43.7415 206.3 44.043C206.128 44.4423 206.097 44.8954 206.542 45.1992C207.346 45.7476 208.15 46.2966 208.963 46.83C209.145 46.9488 209.368 47.0041 209.63 47.113C209.66 45.7215 209.605 44.4518 208.793 43.2484Z" fill="white"/>
<path d="M289.198 38.9385C290.317 38.5979 291.203 37.756 292.392 37.7103C292.499 38.9077 291.483 40.7913 290.457 41.2662C286.784 42.9661 283.102 44.6468 279.422 46.3328C276.988 47.4479 274.56 48.5754 272.117 49.6685C269.406 50.8813 266.683 52.0688 263.956 53.2447C263.656 53.374 263.292 53.3545 262.96 53.4036C262.758 52.1756 263.557 50.4728 264.595 50.0058C267.226 48.8215 269.877 47.6842 272.514 46.5113C274.381 45.6801 276.234 44.8149 278.099 43.9771C281.02 42.6649 283.947 41.3667 286.868 40.0541C287.638 39.7082 288.394 39.3311 289.198 38.9385Z" fill="white"/>
<path d="M90.7617 59.5467C91.794 60.7374 92.9475 61.7054 94.2429 62.5115C94.738 62.8196 94.773 63.1817 94.3865 63.6541C93.5595 64.6651 92.73 65.674 91.8941 66.6776C91.5872 67.0459 90.8484 67.1407 90.4367 66.8381C89.6648 66.2706 88.9161 65.6714 88.1539 65.0904C88.0043 64.9763 87.8372 64.885 87.6313 64.7531C87.0671 65.4366 86.5417 66.1372 85.947 66.773C85.4796 67.2727 85.1938 68.1201 84.2786 67.9348C83.9022 67.8586 83.513 67.6614 83.2153 67.4154C82.2655 66.6308 81.3626 65.7898 80.4278 64.9866C80.0118 64.6292 80.1135 64.2195 80.367 63.8984C81.2163 62.8226 82.098 61.7709 82.9997 60.7384C83.4099 60.2687 84.001 60.3943 84.4466 60.8349C85.1691 61.5494 85.9551 62.2009 86.7339 62.8558C86.802 62.913 87.0739 62.8475 87.1515 62.7552C87.9782 61.7728 88.7859 60.7744 89.5961 59.7781C89.9057 59.3974 90.2679 59.2657 90.7617 59.5467Z" fill="white"/>
<path d="M3.18304 46.1927C3.36244 44.569 4.5812 44.0358 5.79626 43.5085C7.59269 42.729 9.39448 41.9618 11.1936 41.1885C13.7857 40.0744 16.3801 38.9655 18.9685 37.843C20.8633 37.0213 22.747 36.1744 24.643 35.3555C25.0043 35.1994 25.3997 35.122 25.8237 34.995C26.0843 36.1107 25.3887 36.8222 24.9988 37.6092C24.53 38.5555 23.5127 38.8486 22.6541 39.2629C21.0815 40.0216 19.4543 40.6676 17.8475 41.3549C15.4472 42.3817 13.0448 43.4035 10.6433 44.4275C8.6089 45.295 6.57682 46.1679 4.53856 47.0261C4.07915 47.2195 3.59829 47.362 2.98193 47.5792C3.05466 47.0273 3.10636 46.635 3.18304 46.1927Z" fill="white"/>
<path d="M87.2521 41.9293C85.7438 41.3556 84.2265 41.1995 82.7248 41.5603C81.5561 41.841 80.4834 42.4343 79.7958 43.4906C79.5653 43.8448 79.285 44.0157 78.9629 43.8524C78.8318 43.786 78.803 43.3267 78.8712 43.087C79.6388 40.3897 81.878 38.0733 85.0839 38.0823C86.8936 38.0874 88.4883 38.7351 90.154 39.2207C91.0612 39.4852 91.9865 39.6875 92.9318 39.9249C92.9182 41.3 92.4259 42.5975 91.5147 43.2842C89.2908 44.9598 87.0167 46.6735 84.0989 47.0657C83.415 47.1576 82.7587 47.4461 82.0756 47.5575C81.8141 47.6001 81.5131 47.4002 81.23 47.3108C81.3757 46.928 81.4511 46.492 81.6886 46.1789C81.8901 45.9134 82.2704 45.774 82.5862 45.6062C84.2461 44.7245 85.9131 43.8559 87.5713 42.9709C87.8311 42.8322 88.0586 42.633 88.3815 42.4049C87.9646 42.2214 87.6352 42.0764 87.2521 41.9293Z" fill="white"/>
<path d="M361.469 51.0361C359.29 52.5784 356.701 52.8944 354.297 53.7034C354.114 53.7648 353.679 53.606 353.648 53.4787C353.573 53.1757 353.542 52.6858 353.72 52.5288C354.275 52.0405 354.91 51.6281 355.558 51.2656C357.18 50.3589 358.826 49.4962 360.461 48.6126C360.49 48.5965 360.499 48.5406 360.516 48.5029C358.309 47.2215 355.349 46.9446 353.181 48.4341C352.716 48.7534 352.381 49.256 351.951 49.6347C351.776 49.7893 351.508 49.8387 351.282 49.9359C351.215 49.6575 351.027 49.3384 351.104 49.1084C351.31 48.4929 351.602 47.9003 351.911 47.326C352.884 45.5169 354.453 44.467 356.44 44.2065C357.459 44.073 358.553 44.2332 359.573 44.4486C361.218 44.7957 362.825 45.3174 364.459 45.7256C365.093 45.8842 365.282 46.1567 365.003 46.7728C364.692 47.4603 364.488 48.2013 364.13 48.8601C363.963 49.1663 363.533 49.3243 363.236 49.5655C362.653 50.038 362.079 50.5217 361.469 51.0361Z" fill="white"/>
<path d="M287.282 56.9942C287.688 56.5056 287.944 56.5145 288.1 57.0025C288.852 59.3472 288.718 61.635 287.576 63.829C286.994 64.9481 285.889 65.1814 284.771 65.3173C283.62 65.4571 282.605 65.1569 281.808 64.2097C281.156 65.5065 280.325 66.5296 278.923 66.9541C276.226 67.7708 274.469 66.2108 274.72 63.6003C274.84 62.3646 275.222 61.1514 276.006 60.1381C276.147 59.9558 276.481 59.9229 276.726 59.821C276.787 60.0538 276.926 60.2975 276.895 60.5173C276.816 61.0809 276.596 61.6286 276.55 62.1923C276.449 63.4218 277.323 64.1115 278.541 63.8537C280.073 63.5297 281.297 62.0685 281.389 60.4606C281.438 59.6092 281.727 58.9404 282.491 58.5318C282.662 58.4403 282.908 58.3691 283.071 58.4258C283.174 58.4612 283.218 58.751 283.234 58.9314C283.291 59.5735 283.234 60.2403 283.387 60.8561C283.675 62.0118 284.881 62.5893 285.998 61.8484C286.907 61.2457 287.023 61.0446 286.479 59.8854C286.206 59.3051 286.376 58.8698 286.572 58.3974C286.766 57.9301 287.024 57.4898 287.282 56.9942Z" fill="white"/>
<path d="M116.669 95.2559C119.522 94.0271 122.255 92.6347 125.189 91.6163C125.325 92.8928 124.42 94.6469 123.356 95.1516C121.244 96.1529 119.104 97.0969 116.97 98.0503C115.143 98.8661 113.307 99.6597 111.476 100.467C109.896 101.165 108.324 101.883 106.734 102.556C106.436 102.682 106.068 102.64 105.736 102.675C105.54 101.012 106.433 99.6139 107.977 98.982C109.865 98.2087 111.737 97.3943 113.614 96.5924C114.62 96.1624 115.622 95.7213 116.669 95.2559Z" fill="white"/>
<path d="M170.548 52.808C167.887 53.9366 165.27 55.0429 162.65 56.1429C159.738 57.3657 156.823 58.5834 153.908 59.8009C153.754 59.8654 153.594 59.9344 153.431 59.9542C153.19 59.9835 152.945 59.9704 152.702 59.9753C152.708 59.7155 152.694 59.453 152.728 59.1967C152.752 59.0118 152.874 58.8388 152.893 58.6543C153.035 57.3258 153.993 56.8179 155.078 56.3809C157.168 55.5393 159.238 54.6515 161.318 53.7877C163.884 52.7223 166.454 51.6654 169.019 50.5974C169.833 50.2584 170.627 49.8693 171.451 49.5587C171.718 49.4582 172.051 49.5351 172.354 49.5308C172.335 49.8146 172.4 50.1411 172.282 50.3744C171.836 51.2537 171.454 52.191 170.548 52.808Z" fill="white"/>
<path d="M231.399 101.437C231.223 101.478 231.095 101.503 230.968 101.505C230.725 101.509 230.481 101.5 230.238 101.497C230.251 101.258 230.202 100.994 230.289 100.786C230.515 100.248 230.741 99.6902 231.081 99.2236C231.35 98.8559 231.742 98.4747 232.158 98.3346C237.386 96.5756 242.627 94.8582 247.866 93.135C248.227 93.0165 248.596 92.9157 248.968 92.8471C249.139 92.8157 249.432 92.8249 249.483 92.918C249.565 93.0665 249.543 93.3225 249.473 93.4948C248.822 95.0792 247.67 96.0815 246.025 96.6136C241.658 98.0259 237.31 99.496 232.953 100.94C232.454 101.106 231.95 101.254 231.399 101.437Z" fill="white"/>
<path d="M15.0695 58.7167C14.5785 58.4854 14.0611 58.2977 13.6985 57.949C12.8775 57.1593 12.1352 56.2881 11.356 55.4545C10.9858 55.0585 11.1468 54.67 11.4355 54.3677C12.3877 53.3707 13.3587 52.3902 14.3562 51.4387C14.6349 51.173 14.9781 51.0757 15.3175 51.5103C16.2407 52.6926 17.226 53.8166 18.5252 54.6246C18.9254 54.8735 18.9321 55.2618 18.582 55.612C17.6534 56.5409 16.7332 57.4787 15.7864 58.3887C15.62 58.5485 15.3406 58.5908 15.0695 58.7167Z" fill="white"/>
<path d="M404.59 91.5805C405.129 92.0066 405.622 92.4159 406.141 92.789C406.516 93.0586 406.503 93.3721 406.242 93.6549C405.344 94.6289 404.471 95.6379 403.473 96.4996C403.173 96.7586 402.318 96.8009 402.022 96.5632C400.922 95.6797 399.918 94.6679 398.945 93.6405C398.59 93.2662 398.788 92.7289 399.124 92.39C400.051 91.4567 401.012 90.5566 401.975 89.6608C402.328 89.3327 402.838 89.4757 403.194 89.9213C403.635 90.4737 404.101 91.0067 404.59 91.5805Z" fill="white"/>
<path d="M86.1907 51.5221C86.4153 51.6361 86.6 51.7357 86.7591 51.8665C87.8333 52.7492 88.8757 53.6733 89.9855 54.5081C90.4189 54.8341 90.4057 55.1857 90.1822 55.4784C89.3916 56.5138 88.5504 57.5116 87.704 58.5027C87.3363 58.9333 86.6818 58.9692 86.2047 58.6725C85.049 57.9538 84.0169 57.0917 83.091 56.0935C82.6834 55.6541 82.651 55.2407 83.0254 54.7839C83.824 53.8095 84.6089 52.8233 85.4323 51.8703C85.5904 51.6873 85.8995 51.6348 86.1907 51.5221Z" fill="white"/>
<path d="M361.149 60.8995C361.851 61.5576 362.51 62.1959 363.207 62.7877C363.606 63.1257 363.695 63.5184 363.326 63.8934C362.452 64.7823 361.572 65.6661 360.68 66.5377C360.253 66.9554 359.77 67.1187 359.27 66.6441C358.257 65.6815 357.231 64.7305 356.256 63.7307C355.886 63.3512 356.071 62.8894 356.405 62.5474C357.322 61.6085 358.261 60.6903 359.185 59.7591C359.61 59.3317 359.953 59.5123 360.278 59.8851C360.56 60.2092 360.841 60.535 361.149 60.8995Z" fill="white"/>
</svg>
