<svg width="429" height="143" viewBox="0 0 429 143" fill="none" xmlns="http://www.w3.org/2000/svg">
<path d="M147.111 77.7577C146.903 76.1059 146.728 74.5068 146.551 72.9079C146.376 71.3309 146.217 69.7519 146.018 68.1781C145.824 66.6532 145.576 65.1354 145.373 63.6117C145.181 62.1687 145.032 60.7198 144.836 59.2775C144.64 57.8406 144.394 56.4105 144.195 54.9739C143.999 53.5539 143.818 52.1314 143.661 50.7066C143.392 48.272 143.062 45.8501 141.78 43.6992C141.479 43.1957 141.577 42.8079 141.835 42.411C142.471 41.4336 143.134 40.4737 143.799 39.515C144.061 39.1369 144.557 39.1935 144.741 39.6625C145.293 41.0701 146.007 42.3797 146.93 43.5772C147.137 43.8453 147.325 44.1277 147.517 44.4073C148.202 45.4088 148.154 45.8721 147.313 46.7533C146.91 47.1748 146.498 47.595 146.159 48.0652C145.99 48.2991 145.876 48.6561 145.908 48.9376C146.141 50.9549 146.393 52.9708 146.687 54.9802C147.008 57.1727 147.403 59.3543 147.721 61.5471C147.939 63.0519 148.073 64.5687 148.26 66.0784C148.469 67.7771 148.721 69.471 148.904 71.1724C149.038 72.4166 149.113 73.6686 149.171 74.9191C149.241 76.3968 149.362 77.882 149.282 79.3542C149.199 80.8698 148.985 82.3841 148.008 83.6774C146.87 85.183 145.523 86.1808 143.547 86.3896C141.924 86.5612 140.477 86.29 139.053 85.5701C138.052 85.0644 137.439 84.2044 136.82 83.3324C136.523 82.9149 136.192 82.5211 135.885 82.1271C134.8 82.7015 133.787 83.2632 132.752 83.7805C130.658 84.8269 128.484 85.6113 126.127 85.8346C124.188 86.0183 122.247 86.193 120.401 85.4179C119.378 84.9881 118.427 84.385 117.435 83.8554C117.063 84.6661 116.614 85.604 116.2 86.5569C115.802 87.4738 115.107 88.0555 114.174 88.3125C112.788 88.6943 111.461 88.4731 110.251 87.6986C109.697 87.3439 109.176 86.9313 108.67 86.5095C108.287 86.1908 108.05 86.3898 107.793 86.6596C107.023 87.4678 106.094 87.9718 104.994 88.1986C103.429 88.5212 101.892 88.3442 100.466 87.7324C98.8452 87.0371 97.3115 86.1399 95.7178 85.319C93.8494 86.023 91.8644 86.8448 89.8268 87.5041C88.9455 87.7893 88.532 88.2585 88.3181 89.1013C87.5798 92.0086 86.5568 94.8178 85.2989 97.541C84.5416 99.1803 83.765 100.835 82.4625 102.105C80.4965 104.024 78.1811 105.223 75.3514 105.433C71.5865 105.711 68.0001 105.108 64.5499 103.635C63.3881 103.139 62.2662 102.548 61.1311 101.991C60.7291 101.794 60.3653 101.409 60.6527 101.033C60.8725 100.745 61.439 100.56 61.8241 100.599C62.3942 100.657 62.9428 100.945 63.4959 101.148C65.2433 101.789 67.0306 102.215 68.9034 102.26C71.2152 102.316 73.5277 102.229 75.6694 101.307C76.9344 100.763 78.1523 100.01 79.2293 99.1489C81.3776 97.4305 82.7449 95.0768 84.0248 92.6876C84.6618 91.4985 85.2504 90.2836 85.9059 88.9918C85.6386 88.9918 85.4907 88.9616 85.3603 88.9967C84.4392 89.2438 83.9239 89.0094 83.5954 88.1516C83.3246 87.4444 83.069 86.7311 82.8178 86.0166C82.5867 85.3591 82.724 84.9239 83.4102 84.6448C84.4015 84.2414 85.435 83.9422 86.4497 83.5963C88.4223 82.924 90.4089 82.2892 92.3617 81.5636C93.7028 81.0653 94.994 80.4338 96.3124 79.8733C97.4651 79.3832 97.9312 79.6838 97.9122 80.9192C97.9036 81.476 97.8303 82.0317 97.7801 82.6674C99.0792 82.9669 100.362 83.3033 101.662 83.5535C103.885 83.9816 105.878 83.5632 107.56 81.9199C108.717 80.79 109.555 79.5051 110.031 77.9566C110.154 77.556 110.268 76.8901 110.908 77.0467C111.593 77.2145 111.376 77.8964 111.297 78.3253C111.077 79.5295 110.765 80.7188 110.444 81.9017C110.345 82.2658 110.47 82.4359 110.758 82.5308C111.756 82.86 112.765 83.156 113.762 83.4903C114.748 83.8213 115.608 83.4333 116.013 82.442C116.455 81.3576 116.663 80.1782 116.977 79.0412C117.128 78.4932 117.222 77.9138 117.473 77.4151C117.6 77.1643 118.024 76.9335 118.308 76.9398C118.482 76.9437 118.781 77.4079 118.789 77.6724C118.807 78.2873 118.661 78.9054 118.629 79.5247C118.621 79.6957 118.732 79.9556 118.87 80.0389C121.309 81.5099 123.976 82.1121 126.792 81.8631C128.874 81.679 130.838 81.0193 132.607 79.8593C132.765 79.7557 132.943 79.6814 133.306 79.4914C132.134 78.941 131.11 78.3416 130.008 77.9726C128.694 77.5324 127.335 77.5138 126.033 78.1877C125.811 78.3026 125.359 78.3244 125.233 78.1871C125.058 77.9979 124.994 77.5954 125.052 77.3207C125.457 75.4326 126.766 74.1543 128.145 72.956C129.015 72.1996 130.037 71.7035 131.194 71.488C132.603 71.2257 133.999 71.1728 135.431 71.3492C137.332 71.5835 138.955 72.4473 140.584 73.3499C142.568 74.4494 142.165 76.789 141.232 78.0348C140.617 78.8553 139.83 79.5463 139.049 80.3696C140.226 80.8041 141.379 81.3662 142.597 81.6461C144.304 82.0383 145.835 81.465 147.13 80.302C147.253 80.1923 147.335 79.9633 147.326 79.796C147.288 79.1328 147.207 78.4721 147.111 77.7577Z" fill="white"/>
<path d="M361.213 87.932C360.626 88.0202 360.103 88.1631 359.575 88.1818C357.615 88.2512 355.65 88.38 353.695 88.2984C351.202 88.1944 348.724 87.8444 346.324 87.1243C345.582 86.9017 344.873 86.5493 344.175 86.204C343.831 86.0335 343.712 86.0706 343.558 86.4295C342.393 89.156 341.141 91.8588 339.296 94.1894C337.622 96.3035 335.46 97.8073 332.694 98.1749C328.692 98.7065 324.918 97.9578 321.379 96.0263C320.452 95.5203 319.528 95.0054 318.632 94.4468C318.426 94.3184 318.179 93.9294 318.24 93.7735C318.337 93.5279 318.663 93.2463 318.918 93.2188C319.297 93.178 319.702 93.3307 320.09 93.427C321.687 93.8235 323.264 94.3389 324.882 94.5984C326.202 94.8101 327.58 94.8442 328.915 94.737C331.412 94.5364 333.78 93.9224 335.79 92.2472C338.211 90.2291 339.863 87.6797 341.205 84.8854C341.233 84.8273 341.271 84.774 341.309 84.7102C340.187 84.0572 339.403 83.101 338.918 81.8995C338.378 80.5601 338.56 79.2281 339.054 77.9297C339.293 77.3041 339.614 76.7045 339.954 76.1263C340.067 75.9344 340.356 75.8458 340.564 75.71C340.69 75.9157 340.89 76.108 340.929 76.329C341.31 78.4769 342.705 79.8019 344.516 80.7835C346.903 82.0777 349.465 82.8601 352.151 83.1857C354.114 83.4236 356.09 83.675 358.062 83.6853C359.791 83.6943 361.527 83.4143 363.252 83.1954C368.066 82.5844 372.617 81.0031 377.15 79.3632C377.385 79.278 377.613 79.1719 377.881 78.9128C376.002 78.3697 374.136 77.7785 372.241 77.2975C370.514 76.8592 368.73 76.7701 366.96 76.9068C365.409 77.0266 363.869 77.301 362.324 77.5054C362.174 77.5252 362.017 77.5651 361.874 77.5388C361.628 77.4937 361.275 77.471 361.184 77.3133C361.091 77.1537 361.208 76.8132 361.324 76.6015C361.75 75.823 362.262 75.0889 362.651 74.2937C363.215 73.1403 364.254 72.7458 365.371 72.5698C367.188 72.2835 369.02 72.0834 370.852 71.9034C372.42 71.7491 373.996 71.6741 375.676 71.5565C375.568 70.5257 375.486 69.4628 375.339 68.4089C375.16 67.1229 374.933 65.8434 374.716 64.5628C374.486 63.2001 374.246 61.839 374.005 60.4781C373.72 58.8667 373.413 57.2589 373.145 55.6446C372.821 53.6919 372.58 51.7235 372.196 49.7833C372.031 48.9513 371.565 48.1826 371.295 47.3653C371.207 47.097 371.215 46.7203 371.338 46.4723C371.872 45.3981 372.439 44.3389 373.05 43.3067C373.225 43.0102 373.585 42.8227 373.86 42.5852C374.06 42.8585 374.286 43.1162 374.455 43.4075C375.353 44.9585 376.167 46.5638 377.155 48.054C377.622 48.7588 377.468 49.458 376.958 49.9996C376.793 50.1749 376.644 50.3814 376.446 50.5066C375.541 51.0771 375.684 51.9346 375.804 52.7784C376 54.1497 376.218 55.5178 376.427 56.8872C376.6 58.0253 376.791 59.1612 376.942 60.3023C377.097 61.4706 377.203 62.6454 377.349 63.8149C377.504 65.0443 377.712 66.2675 377.841 67.4992C378.078 69.7476 378.314 72.0073 376.588 74.0662C378.055 74.5843 379.427 75.1958 380.864 75.5465C382.923 76.0492 385.021 76.4109 387.117 76.7363C388.35 76.9276 389.612 76.928 390.86 77.0214C391.954 77.1034 393.047 77.2098 394.142 77.2772C394.75 77.3147 394.823 77.7173 394.662 78.119C394.182 79.3104 393.657 80.4854 393.089 81.6372C393.016 81.7849 392.573 81.8418 392.327 81.7973C390.602 81.4855 388.891 81.0261 387.123 81.1052C384.539 81.2209 381.981 81.6247 379.533 82.444C375.802 83.6928 372.143 85.1621 368.403 86.384C366.443 87.0244 364.377 87.3425 362.356 87.7931C362.002 87.8719 361.634 87.8858 361.213 87.932Z" fill="white"/>
<path d="M197.054 71.9347C198.396 69.8188 199.639 67.691 201.507 66.046C200.542 64.6888 198.76 64.4494 197.467 65.4652C197.109 65.746 196.69 66.2696 196.276 65.8709C196.049 65.6517 196.14 64.987 196.242 64.5604C196.571 63.1926 197.102 61.8871 198.049 60.8317C199.196 59.5528 200.717 58.9009 202.388 58.6303C203.298 58.4831 204.226 58.3569 205.143 58.3747C207.072 58.4123 208.857 59.0038 210.421 60.1446C211.114 60.6505 211.423 61.4629 211.184 62.264C210.861 63.3425 210.443 64.4229 209.867 65.3835C209.515 65.9708 208.79 66.3349 208.225 66.8054C209.558 67.8116 211.176 68.2385 212.817 68.4483C214.508 68.6645 216.242 68.8269 217.933 68.6976C220.277 68.5183 222.629 68.2052 224.88 67.4306C226.313 66.9377 227.781 66.5319 229.18 65.9592C230.658 65.3546 230.584 65.2921 229.931 64.1506C229.26 62.977 228.542 61.8129 227.701 60.7595C227.075 59.9759 226.875 59.2425 227.127 58.2896C227.36 57.4095 227.45 56.4926 227.659 55.6051C227.726 55.3195 227.92 54.9947 228.156 54.8468C228.276 54.7718 228.668 54.9983 228.85 55.1772C230.787 57.0814 232.005 59.352 232.384 62.0687C232.64 63.9084 232.543 65.7195 232.103 67.5127C231.899 68.3448 231.415 68.9878 230.634 69.4032C227.931 70.8422 225.066 71.8021 222.072 72.4301C219.608 72.947 217.121 73.2076 214.618 73.0565C212.096 72.9043 209.526 72.7793 207.259 71.4781C206.168 70.852 205.199 70.0156 204.073 69.2015C203.598 69.5452 202.943 69.9765 202.334 70.4665C199.767 72.5348 197.871 75.1146 196.61 78.1538C195.844 80.0006 195.279 81.9085 195.184 83.9222C195.117 85.3339 194.966 86.7574 195.076 88.1581C195.264 90.5628 195.998 92.7906 197.633 94.6703C199.614 96.9482 202.16 98.1348 205.07 98.5541C206.983 98.8298 208.924 98.9972 210.856 99.0341C212.995 99.075 215.141 98.942 217.281 98.8272C218.675 98.7525 220.067 98.6011 221.454 98.4378C223.472 98.2002 225.481 97.8924 227.501 97.6734C228.302 97.5865 229.121 97.6349 229.93 97.6659C230.319 97.6808 230.542 98.1793 230.254 98.4582C229.836 98.8617 229.361 99.2849 228.829 99.4776C224.382 101.09 219.801 102.258 215.215 103.391C213.876 103.722 212.472 103.82 211.091 103.952C209.991 104.057 208.876 104.132 207.774 104.081C204.2 103.914 200.852 102.991 198.035 100.685C195.39 98.5194 193.896 95.6687 193.182 92.3269C192.603 89.6206 192.575 86.8955 192.719 84.1805C192.864 81.4649 193.505 78.8192 194.782 76.3693C195.542 74.9108 196.277 73.4397 197.054 71.9347Z" fill="white"/>
<path d="M290.337 84.3684C290.294 84.5428 290.238 84.6585 290.211 84.7805C289.837 86.4419 288.851 86.6329 287.26 86.4004C285.68 86.1695 284.137 85.8489 282.685 85.169C281.978 84.8379 281.261 84.5211 280.583 84.1363C280.219 83.9295 280.101 83.9498 279.941 84.3524C279.489 85.4863 279.039 86.6281 278.48 87.7106C277.816 88.9979 277.327 89.1549 275.859 88.8979C274.301 88.625 272.881 87.982 271.558 87.1322C271.207 86.9069 270.929 86.5678 270.572 86.2382C268.943 87.4668 267.02 88.2485 264.948 88.6602C264.152 88.8184 263.339 88.9357 262.53 88.9673C261.239 89.0177 259.945 89.0112 258.654 88.9695C257.863 88.944 257.073 88.7195 256.288 88.7466C255.515 88.7733 254.724 88.9277 253.983 89.1608C252.061 89.7657 250.073 89.804 248.137 89.5901C245.868 89.3396 244.144 88.0054 243.031 85.9882C242.159 84.4081 241.833 82.6592 241.57 80.894C241.332 79.2935 241.031 77.7023 240.797 76.1012C240.59 74.6829 240.459 73.2536 240.255 71.8347C240.07 70.5498 239.817 69.2749 239.623 67.9912C239.463 66.9339 239.357 65.8687 239.207 64.8098C239.004 63.3738 238.775 61.9416 238.57 60.5058C238.38 59.1733 238.218 57.8367 238.024 56.5047C237.83 55.1762 237.605 53.8523 237.408 52.5243C237.211 51.1937 237.141 49.8329 236.817 48.535C236.378 46.7794 237.256 45.2862 237.544 43.6774C237.576 43.498 237.664 43.2487 237.798 43.1868C237.976 43.1041 238.377 43.1013 238.418 43.1889C238.64 43.6571 238.841 44.1525 238.935 44.6598C239.269 46.4584 239.574 48.263 239.858 50.0704C240.103 51.6309 240.292 53.2001 240.527 54.7622C240.775 56.4053 241.064 58.0423 241.305 59.6864C241.546 61.3355 241.735 62.9924 241.974 64.6419C242.216 66.3079 242.507 67.9668 242.749 69.6328C242.948 71.0084 243.094 72.3918 243.288 73.7684C243.489 75.2042 243.686 76.6423 243.948 78.0676C244.147 79.1442 244.377 80.2247 244.717 81.2633C245.31 83.078 246.755 84.0623 248.465 84.6181C249.543 84.9685 250.704 85.2818 251.819 85.2576C253.941 85.2115 256.09 84.9726 257.849 83.5828C259.121 82.5783 260.218 81.3894 261.041 79.975C261.307 79.5181 261.521 79.0245 261.834 78.6038C261.983 78.4031 262.337 78.2001 262.546 78.2444C262.734 78.2841 262.986 78.6652 262.978 78.8878C262.908 80.9499 262.232 82.8216 261.078 84.5248C260.914 84.7673 260.728 84.9952 260.518 85.2755C262.566 85.4081 264.53 85.1524 266.431 84.5468C267.586 84.1786 268.729 83.7137 269.796 83.1394C271.512 82.2151 272.485 80.6099 273.229 78.8791C273.436 78.3969 273.746 78.1277 274.174 78.2334C274.682 78.3588 274.624 78.8351 274.498 79.2588C274.115 80.5469 273.736 81.8363 273.324 83.2296C274.394 83.5903 275.549 84.0403 276.739 84.3605C277.583 84.5877 278.082 84.1954 278.382 83.3253C278.945 81.6942 279.493 80.0567 280.106 78.4445C280.29 77.9617 280.465 77.3679 281.233 77.3994C281.73 77.4199 281.862 77.6919 281.779 78.0526C281.56 78.9961 281.278 79.9247 280.994 80.9566C281.599 81.0882 282.202 81.2713 282.817 81.3424C284.247 81.5076 285.683 81.6369 287.119 81.7369C287.414 81.7574 287.728 81.6031 288.022 81.4992C288.454 81.3466 288.692 81.0506 288.629 80.5638C288.434 79.0376 288.266 77.5072 288.039 75.9856C287.83 74.5767 287.554 73.1777 287.316 71.7729C287.081 70.3879 286.863 68.9998 286.625 67.6154C286.336 65.9395 286.039 64.2651 285.736 62.5918C285.406 60.7735 285.043 58.9609 284.737 57.1387C284.429 55.3104 284.142 53.4774 283.91 51.6385C283.774 50.5669 283.468 49.5683 282.918 48.6537C282.286 47.6023 282.188 46.5989 282.942 45.5576C283.5 44.7867 284.001 43.9739 284.53 43.1817C284.838 42.7199 285.209 42.6979 285.475 43.161C285.693 43.54 285.817 43.9723 286.023 44.3588C286.508 45.2659 287.024 46.1568 287.516 47.0601C287.767 47.5211 288.07 47.973 288.215 48.4684C288.396 49.0875 288.042 49.6245 287.715 50.1324C287.372 50.6666 286.971 51.1716 286.689 51.7362C286.294 52.5273 286.726 53.3204 286.839 54.1015C287.042 55.5103 287.333 56.9063 287.576 58.3097C287.854 59.9242 288.114 61.5421 288.394 63.1562C288.638 64.5588 288.891 65.9601 289.157 67.3587C289.624 69.8186 290.119 72.2735 290.577 74.7353C290.95 76.7409 291.13 78.7729 290.971 80.805C290.879 81.9835 290.557 83.144 290.337 84.3684Z" fill="white"/>
<path d="M166.231 99.3639C164.492 99.3201 162.809 99.3599 161.142 99.21C159.32 99.0461 157.512 98.7083 155.699 98.4406C155.578 98.4226 155.428 98.3884 155.352 98.3059C155.16 98.0952 154.875 97.8548 154.871 97.6227C154.868 97.4492 155.228 97.1531 155.46 97.116C156.074 97.0177 156.72 96.9296 157.328 97.017C159.246 97.2928 161.161 97.4003 163.08 97.1219C164.34 96.9393 165.646 96.8428 166.829 96.4222C168.509 95.8255 170.142 95.0519 171.707 94.195C173.363 93.2891 174.891 92.1463 176.139 90.7155C177.886 88.7122 179.508 86.6098 180.359 84.0322C180.431 83.8122 180.483 83.5851 180.556 83.3181C179.323 83.4362 178.107 83.564 176.889 83.6668C175.382 83.7939 173.889 83.8127 172.537 82.9644C171.349 82.2189 170.861 81.0355 170.752 79.7428C170.467 76.3756 171.732 73.4909 173.925 71.0488C175.449 69.3512 177.026 69.6416 178.573 71.0116C180.608 72.8146 181.601 75.2265 182.294 77.78C182.707 79.3017 182.892 80.8578 182.823 82.4365C182.732 84.5125 182.307 86.5094 181.524 88.4459C180.749 90.3641 179.572 92.0146 178.269 93.5792C177.418 94.6012 176.499 95.5817 175.514 96.4738C174.175 97.6865 172.441 98.1337 170.745 98.5546C169.284 98.9171 167.779 99.101 166.231 99.3639ZM175.647 74.9225C174.938 75.1916 174.287 75.5607 173.937 76.2601C173.424 77.2828 173.347 78.3392 174.809 78.7497C176.263 79.158 177.688 78.9486 179.306 78.8034C178.365 77.188 177.34 75.8224 175.647 74.9225Z" fill="white"/>
<path d="M73.9972 79.3691C73.8582 81.6161 73.2794 83.6813 72.3791 85.6714C71.4543 87.7157 70.0863 89.4404 68.6471 91.1343C67.6902 92.2604 66.688 93.3081 65.3193 93.9037C63.5137 94.6896 61.6509 95.3309 59.6822 95.5398C58.2438 95.6924 56.7891 95.8379 55.3485 95.7885C53.3516 95.7201 51.3593 95.4833 49.3687 95.2828C48.5678 95.2022 47.7699 95.0563 46.9834 94.8826C46.5586 94.7888 45.9902 94.5815 46.1815 94.0523C46.2866 93.7617 46.8598 93.5142 47.2434 93.4785C47.9018 93.4172 48.5765 93.5472 49.2452 93.5787C50.3511 93.6308 51.4573 93.6911 52.564 93.7082C56.397 93.7672 59.8655 92.6298 63.1207 90.6306C64.9022 89.5365 66.5387 88.2921 67.8838 86.7186C69.5243 84.7997 70.9825 82.7395 71.8223 80.3147C71.8568 80.2152 71.8779 80.1093 71.8908 80.0046C71.898 79.9461 71.8755 79.884 71.8588 79.773C70.7407 79.8768 69.6316 79.9754 68.5234 80.0838C66.8235 80.2502 65.1449 80.3371 63.6477 79.2623C62.7343 78.6067 62.3592 77.6638 62.1729 76.6231C61.7123 74.05 62.4854 71.7378 63.7875 69.5756C64.2683 68.7772 64.8907 68.0592 65.487 67.3363C66.3173 66.3298 67.8077 66.2557 68.8348 66.8152C70.0989 67.5039 71.082 68.4672 71.647 69.8319C72.1853 71.1325 72.8313 72.3906 73.3284 73.7058C74.0088 75.5058 74.0551 77.405 73.9972 79.3691ZM69.4709 73.4767C68.9765 72.9838 68.4896 72.4829 67.9857 71.9998C67.2658 71.3095 66.6193 71.3127 65.9346 72.0125C65.6815 72.2712 65.4046 72.5339 65.2415 72.8482C64.7097 73.873 64.8797 74.744 65.7485 75.1182C66.2394 75.3296 66.8135 75.4066 67.3549 75.4293C68.4521 75.4752 69.5525 75.443 70.8487 75.443C70.3225 74.6837 69.9286 74.1154 69.4709 73.4767Z" fill="white"/>
<path d="M53.3287 67.6012C54.1802 69.4679 54.7929 71.3498 54.9412 73.3619C55.0203 74.4358 55.1814 75.5083 55.1872 76.5821C55.1967 78.3623 54.7645 80.0769 54.3454 81.8037C53.9028 83.6268 52.6734 84.8246 51.3958 85.992C50.154 87.1266 48.7067 87.991 47.1615 88.663C45.4838 89.3926 43.748 89.9296 41.9041 90.0309C40.9734 90.082 40.038 90.1967 39.1117 90.1488C36.5641 90.0172 34.2044 89.3408 32.3386 87.4696C31.0717 86.199 30.5388 84.5741 30.2402 82.864C30.0929 82.0206 30.0023 81.1598 29.9772 80.3041C29.9151 78.1888 30.3962 76.1476 30.9621 74.1302C31.2398 73.1403 31.5826 72.1654 31.9555 71.2068C32.1318 70.7536 32.5845 70.5562 33.0362 70.7468C33.4962 70.9409 33.3391 71.3634 33.2128 71.7262C33.1158 72.0049 33.0242 72.2859 32.9176 72.5609C32.2274 74.3416 31.7274 76.1566 31.8037 78.0949C31.9053 80.6765 33.5899 83.6255 36.423 84.6453C37.8089 85.1442 39.2001 85.6326 40.6958 85.5554C42.9332 85.4397 45.1773 85.2357 47.169 84.0999C48.3984 83.3987 49.6289 82.6325 50.6717 81.6887C51.8028 80.665 52.6983 79.3716 53.1991 77.9023C53.3682 77.4063 53.3187 76.7477 53.1472 76.238C52.0475 72.9694 50.5882 69.8599 48.8203 66.8975C48.5182 66.3913 48.8146 65.9273 48.8992 65.4537C49.1004 64.328 49.3329 63.208 49.5489 62.1051C50.3578 61.7983 50.603 62.3982 50.8652 62.8897C51.6916 64.4382 52.4901 66.0015 53.3287 67.6012Z" fill="white"/>
<path d="M320.281 70.6661C321.217 70.2746 322.128 69.9816 323.101 70.3198C324.277 70.7287 325.09 71.5542 325.529 72.689C325.642 72.9802 325.43 73.4316 325.291 73.7787C324.909 74.7288 324.386 75.595 323.539 76.2083C323.077 76.5426 322.687 76.4107 322.388 75.909C321.879 75.0533 321.332 74.227 320.219 74.1014C320.009 74.0777 319.756 74.0735 319.58 74.1669C319.002 74.4727 318.426 74.7931 317.896 75.173C317.308 75.5944 317.249 76.0051 317.714 76.5867C318.978 78.165 320.601 79.0895 322.649 79.2623C324.566 79.4242 326.435 79.1987 328.292 78.7451C328.476 78.7002 328.805 78.7499 328.876 78.8692C328.968 79.0233 328.934 79.3281 328.838 79.5046C328.444 80.228 327.971 80.9093 327.596 81.6412C327.296 82.2258 326.783 82.3444 326.237 82.4032C324.222 82.6201 322.297 83.1917 320.456 83.9995C318.45 84.8794 316.496 85.8741 314.518 86.8166C314.366 86.889 314.21 86.987 314.049 87.0003C313.654 87.0329 313.322 87.0029 313.562 86.4314C313.871 85.6957 313.999 84.8453 314.448 84.2183C314.844 83.6647 315.56 83.3278 316.161 82.9371C316.585 82.662 317.054 82.4568 317.536 82.2026C316.653 81.6287 315.794 81.024 314.891 80.495C313.298 79.5618 313.1 77.7899 314.256 76.2774C315.72 74.3641 317.375 72.6652 319.318 71.2467C319.606 71.0367 319.935 70.8826 320.281 70.6661Z" fill="white"/>
<path d="M157.494 67.7697C157.289 66.4924 157.106 65.2676 156.943 64.0401C156.796 62.9365 156.685 61.8282 156.534 60.7252C156.332 59.2454 156.085 57.7715 155.898 56.2898C155.732 54.9695 155.598 53.6439 155.491 52.3173C155.339 50.4243 155.156 48.5297 155.115 46.633C155.086 45.291 155.471 43.9904 156.054 42.7733C156.147 42.5802 156.404 42.3778 156.604 42.3556C156.734 42.3412 156.999 42.6269 157.033 42.81C157.205 43.7302 157.337 44.659 157.454 45.5883C157.683 47.3936 157.893 49.2012 158.112 51.0077C158.287 52.4526 158.445 53.8998 158.645 55.3413C158.88 57.031 159.162 58.714 159.403 60.4029C159.562 61.5259 159.675 62.6554 159.826 63.7797C159.988 64.9856 160.178 66.1875 160.338 67.3935C160.445 68.2014 160.531 69.0124 160.61 69.8236C160.971 73.5285 161.126 77.2449 160.98 80.9621C160.925 82.3553 160.592 83.7414 160.324 85.1186C160.28 85.3429 159.937 85.5846 159.685 85.6581C159.572 85.691 159.3 85.3537 159.181 85.1392C159.074 84.9462 159.049 84.6928 159.04 84.4639C158.986 83.0732 159.003 81.6773 158.89 80.2917C158.722 78.2171 158.466 76.1497 158.249 74.079C158.115 72.7981 157.993 71.5159 157.849 70.2362C157.757 69.4293 157.634 68.626 157.494 67.7697Z" fill="white"/>
<path d="M298.486 51.5105C298.705 53.2018 298.913 54.8345 299.147 56.4635C299.395 58.1946 299.682 59.9202 299.924 61.652C300.123 63.0718 300.267 64.4991 300.462 65.9196C300.661 67.378 300.908 68.8299 301.103 70.2889C301.224 71.2044 301.316 72.1259 301.372 73.0478C301.521 75.4899 301.625 77.9347 301.779 80.3765C301.931 82.8094 301.837 85.2198 301.242 87.5934C301.147 87.9718 301.008 88.3504 300.493 88.3241C299.979 88.2977 299.979 87.904 299.929 87.5439C299.887 87.2503 299.82 86.9583 299.804 86.6635C299.709 84.8013 299.663 82.9358 299.526 81.0769C299.405 79.4297 299.207 77.7872 299.006 76.1471C298.814 74.5781 298.568 73.0159 298.359 71.4489C298.13 69.7317 297.931 68.0105 297.694 66.2945C297.449 64.519 297.16 62.7496 296.918 60.9738C296.758 59.806 296.652 58.631 296.514 57.4602C296.3 55.6523 296.007 53.8503 295.88 52.0366C295.735 49.9692 295.903 47.9181 296.92 46.0404C297.003 45.8864 297.276 45.7756 297.468 45.7627C297.581 45.7551 297.769 45.9612 297.819 46.1069C297.941 46.4641 298.043 46.8378 298.082 47.2124C298.232 48.6234 298.354 50.0374 298.486 51.5105Z" fill="white"/>
<path d="M397.158 52.4961C397.364 54.2365 397.542 55.923 397.716 57.6098C397.851 58.9126 397.959 60.2185 398.119 61.5181C398.312 63.0868 398.564 64.6482 398.761 66.2164C398.918 67.4725 399.04 68.7332 399.163 69.9935C399.345 71.8771 399.589 73.7589 399.669 75.6474C399.757 77.7244 399.787 79.8142 399.657 81.8868C399.566 83.3374 399.194 84.7755 398.872 86.2022C398.812 86.4681 398.41 86.8116 398.138 86.8385C397.735 86.8784 397.591 86.4914 397.58 86.0786C397.562 85.3894 397.488 84.702 397.458 84.0129C397.365 81.8662 397.332 79.7152 397.178 77.5729C397.026 75.4542 396.787 73.34 396.527 71.2311C396.261 69.0696 395.904 66.9195 395.626 64.7594C395.453 63.4176 395.361 62.0657 395.22 60.7196C395.053 59.1194 394.825 57.5239 394.71 55.9201C394.591 54.2402 394.723 52.5775 395.479 51.0225C395.589 50.7965 395.6 50.4859 395.766 50.3328C395.975 50.14 396.29 50.0103 396.573 49.9776C396.67 49.9664 396.883 50.3188 396.917 50.5256C397.02 51.1591 397.062 51.8026 397.158 52.4961Z" fill="white"/>
<path d="M322.933 52.077C322.99 53.4584 322.838 54.7499 322.471 56.021C322.427 56.1726 322.547 56.4198 322.665 56.5614C323.065 57.0428 323.676 57.4301 323.88 57.9755C324.251 58.9659 323.677 59.9157 323.358 60.8495C323.341 60.8991 322.825 60.8921 322.67 60.76C322.1 60.2721 321.585 59.7205 321.078 59.2219C320.219 60.3608 319.547 61.5246 318.615 62.4172C317.516 63.4692 316.255 64.3907 314.95 65.1782C313.441 66.0889 311.809 66.7974 310.222 67.5779C310.041 67.667 309.808 67.6875 309.601 67.6819C309.066 67.6673 308.833 67.2943 309.148 66.8849C309.507 66.418 309.918 65.9629 310.389 65.615C312.541 64.0265 314.757 62.5217 316.876 60.892C317.713 60.2487 318.359 59.3571 319.095 58.5817C319.37 58.2915 319.263 58.1581 318.956 57.9444C318.013 57.2873 317.122 56.5548 316.185 55.8888C315.344 55.2915 315.145 54.4604 315.322 53.5387C315.743 51.3465 316.899 49.5984 318.722 48.3171C319.83 47.5384 321.576 47.9897 322.111 49.2425C322.486 50.1232 322.666 51.0876 322.933 52.077ZM317.548 52.9959C318.584 53.7452 319.597 54.5332 320.848 55.1837C320.787 53.8462 320.807 52.6794 320.204 51.6085C319.594 50.5263 319.09 50.4261 318.248 51.285C318.025 51.512 317.781 51.7493 317.654 52.0304C317.541 52.2835 317.575 52.6032 317.548 52.9959Z" fill="white"/>
<path d="M82.6264 54.5697C82.0118 53.7227 82.3901 52.8817 82.5957 52.0959C83.0735 50.2695 84.1881 48.8357 85.7181 47.7717C87.1808 46.7546 88.6082 47.5437 89.1903 48.6648C89.9236 50.0772 90.2393 51.5751 89.9094 53.1778C89.7355 54.0228 89.6414 54.8843 89.4953 55.8436C89.8029 56.1016 90.254 56.4522 90.6718 56.8387C91.0403 57.1796 91.1694 57.5993 91.0137 58.1109C90.8357 58.6957 90.7241 59.3006 90.552 59.8875C90.3903 60.439 90.0448 60.519 89.6213 60.109C89.1029 59.6071 88.6027 59.0864 88.0531 58.5319C87.6937 59.094 87.3717 59.5832 87.064 60.0812C85.8237 62.0882 84.0264 63.4807 82.0023 64.5976C80.5997 65.3715 79.1573 66.0745 77.7196 66.7823C77.4263 66.9267 77.0767 66.9947 76.7481 67.0142C76.5644 67.0251 76.2289 66.887 76.2107 66.7755C76.1735 66.547 76.2236 66.2024 76.379 66.0616C77.1574 65.3563 77.9588 64.6716 78.7942 64.0349C80.6558 62.6159 82.5667 61.2606 84.4071 59.8153C85.1532 59.2293 85.7682 58.4762 86.5177 57.724C85.7696 57.1758 85.1209 56.7386 84.5166 56.247C83.8768 55.7267 83.2792 55.1547 82.6264 54.5697ZM86.2691 50.0765C85.4457 50.1991 85.1122 50.8982 84.6727 51.4587C84.3719 51.8422 84.464 52.2687 84.8219 52.5385C85.7381 53.2292 86.6908 53.8714 87.6506 54.5482C88.0309 53.2236 87.8764 50.7815 86.2691 50.0765Z" fill="white"/>
<path d="M360.755 57.8659C359.82 57.1499 358.899 56.4938 358.025 55.7793C357.347 55.2241 357.152 54.5225 357.343 53.6098C357.719 51.8103 358.517 50.2889 359.889 49.0717C360.176 48.8175 360.488 48.5897 360.801 48.3676C362.17 47.3957 363.648 48.3867 364.17 49.6118C365.196 52.021 364.958 54.0745 364.204 56.4083C364.607 56.7389 365.014 57.0761 365.425 57.4085C365.901 57.7934 365.976 58.3276 365.897 58.869C365.819 59.4095 365.655 59.9388 365.512 60.4686C365.353 61.058 364.98 61.1517 364.535 60.7206C364.174 60.3705 363.833 59.9982 363.458 59.6626C363.097 59.3386 362.767 59.2876 362.489 59.8083C361.414 61.8205 359.874 63.4332 357.955 64.6235C356.235 65.6911 354.42 66.6119 352.618 67.5408C352.266 67.7225 351.774 67.7065 351.356 67.6683C350.966 67.6326 350.962 67.2709 351.146 67.0285C351.483 66.5826 351.827 66.1069 352.268 65.78C354.249 64.3146 356.273 62.9075 358.264 61.4561C358.853 61.027 359.419 60.5552 359.935 60.0418C360.448 59.5313 360.884 58.9439 361.399 58.3381C361.159 58.1662 360.974 58.0334 360.755 57.8659ZM360.521 53.8199C361.064 54.1872 361.612 54.5474 362.148 54.924C362.556 55.2105 362.753 55.0829 362.754 54.6204C362.754 53.4598 362.591 52.3353 361.977 51.315C361.64 50.7565 361.218 50.5622 360.726 50.86C360.119 51.2275 359.555 51.6807 359.482 52.4592C359.458 52.706 359.527 53.023 359.677 53.2093C359.867 53.4457 360.182 53.5816 360.521 53.8199Z" fill="white"/>
<path d="M194.231 49.776C196.142 48.4284 198.058 47.1636 199.487 45.3176C199.717 45.02 199.68 44.8928 199.362 44.6719C198.417 44.0177 197.505 43.3158 196.595 42.6145C195.832 42.0275 195.641 41.1645 196.012 39.9895C196.58 38.1947 197.536 36.6509 199.112 35.5786C200.351 34.736 201.972 35.2348 202.671 36.9518C203.522 39.0428 203.21 41.1127 202.592 43.1802C202.923 43.4406 203.255 43.7044 203.59 43.9636C204.514 44.679 204.105 45.6079 203.936 46.4582C203.858 46.8556 203.535 47.2047 203.323 47.5758C203.021 47.3393 202.687 47.1333 202.421 46.8609C201.378 45.7916 201.37 45.7733 200.586 46.9742C199.121 49.2198 197.136 50.8585 194.757 52.0498C193.607 52.6257 192.454 53.195 191.303 53.769C191.266 53.7874 191.235 53.851 191.206 53.8474C190.812 53.7969 190.262 53.8784 190.059 53.6515C189.679 53.2273 190.165 52.8674 190.481 52.6228C191.607 51.7518 192.763 50.9203 193.905 50.0713C194.009 49.9937 194.1 49.8982 194.231 49.776ZM198.207 40.1341C199.135 40.756 200.062 41.3779 201.053 42.042C201.169 40.3527 201.028 39.4322 200.568 38.6398C200.003 37.6662 199.204 37.591 198.557 38.5054C198.25 38.9389 197.628 39.3665 198.207 40.1341Z" fill="white"/>
<path d="M251.515 53.5931C250.959 53.777 250.448 53.9332 249.891 54.1034C250.032 52.237 250.367 51.2632 251.745 50.7329C255.14 49.4264 258.5 48.0266 261.865 46.6429C264.687 45.4826 267.496 44.2902 270.312 43.1157C271.903 42.4519 273.495 41.7899 275.094 41.1446C275.26 41.0778 275.565 41.0528 275.643 41.1452C275.755 41.2789 275.793 41.5609 275.736 41.7392C275.304 43.0895 274.479 44.1235 273.151 44.6782C270.9 45.6184 268.638 46.5326 266.377 47.4503C263.669 48.55 260.951 49.6281 258.248 50.7415C256.01 51.6632 253.789 52.6228 251.515 53.5931Z" fill="white"/>
<path d="M103.138 69.4338C102.356 68.8299 101.555 68.318 100.887 67.6689C100.146 66.9492 99.9696 66.6962 100.748 65.7199C101.416 64.8809 102.118 64.0683 102.817 63.2535C103.212 62.7925 103.582 62.8793 104.013 63.3111C104.753 64.0514 105.566 64.7176 106.405 65.4644C107.093 64.649 107.671 63.9088 108.312 63.2277C108.693 62.8219 108.883 62.1277 109.62 62.1784C109.811 62.1916 110.023 62.2934 110.175 62.4168C111.224 63.2683 112.237 64.1659 113.311 64.9831C113.695 65.275 113.752 65.5248 113.488 65.8441C112.721 66.7721 111.93 67.6803 111.141 68.5905C110.711 69.0873 110.17 69.1638 109.643 68.8171C108.934 68.3502 108.239 67.8488 107.6 67.2911C107.244 66.98 107.037 66.9731 106.759 67.3279C106.246 67.9842 105.726 68.6365 105.195 69.2786C104.534 70.0774 103.961 70.1801 103.138 69.4338Z" fill="white"/>
<path d="M103.96 45.3447C102.364 45.4626 101.031 45.9868 100.037 47.227C99.7842 47.5425 99.5058 47.8823 98.959 47.6396C98.9684 46.5091 99.5945 45.6214 100.184 44.7275C101.698 42.4315 104.847 41.9696 107.571 42.8552C108.77 43.2453 109.992 43.5704 111.213 43.8931C112.013 44.1046 112.136 44.2508 111.847 45.0341C111.638 45.6017 111.395 46.167 111.084 46.6828C110.915 46.9619 110.574 47.1384 110.306 47.3554C109.858 47.7178 109.391 48.0579 108.959 48.4389C107.816 49.4493 106.39 49.8632 104.992 50.33C104.194 50.5966 103.374 50.7969 102.563 51.0228C102.401 51.0678 102.235 51.108 102.069 51.1248C101.71 51.161 101.265 51.1549 101.241 50.7304C101.225 50.4356 101.446 49.9843 101.697 49.8406C103.308 48.9188 104.958 48.065 106.592 47.1831C106.981 46.973 107.359 46.7411 107.851 46.4559C106.587 45.8045 105.327 45.5001 103.96 45.3447Z" fill="white"/>
<path d="M332.23 49.9139C333.28 48.7904 334.505 48.2652 336.013 48.0591C337.725 47.8251 339.174 48.5217 340.72 48.9023C341.517 49.0984 342.305 49.3331 343.097 49.5506C343.531 49.6699 343.869 49.8055 343.58 50.3861C343.273 51.002 343.048 51.6585 342.78 52.2942C342.625 52.6597 342.313 52.8135 341.967 52.9857C341.538 53.1989 341.145 53.5158 340.794 53.848C339.564 55.011 338.02 55.5282 336.451 55.9794C335.52 56.2472 334.569 56.4589 333.614 56.6263C333.375 56.6684 333.088 56.4432 332.823 56.3408C332.989 56.0487 333.085 55.65 333.335 55.4842C334.143 54.9487 335.001 54.4865 335.852 54.0189C337.054 53.3586 338.268 52.7188 339.588 52.0107C337.508 51.0897 335.503 50.524 333.433 51.431C332.711 51.7474 332.165 52.4591 331.525 52.9733C331.334 53.1271 331.096 53.2231 330.879 53.3456C330.817 53.0855 330.622 52.7587 330.713 52.5765C331.166 51.6789 331.694 50.8197 332.23 49.9139Z" fill="white"/>
<path d="M37.8951 47.6142C35.1715 48.7613 32.4909 49.8799 29.8058 50.9875C29.6787 51.0399 29.5112 50.9942 29.367 50.9942C29.2038 49.4367 30.0449 48.2192 31.6239 47.585C33.3425 46.8948 35.0477 46.1706 36.7514 45.4439C39.2888 44.3614 41.8219 43.269 44.3526 42.1708C46.0913 41.4164 47.8204 40.6399 49.5596 39.8868C49.8229 39.7728 50.118 39.7324 50.4669 39.6398C50.5265 40.946 49.9319 41.9388 49.0219 42.5445C47.8047 43.3547 46.4242 43.9301 45.0852 44.544C43.6121 45.2193 42.1073 45.8254 40.6149 46.4586C39.7237 46.8367 38.8299 47.2088 37.8951 47.6142Z" fill="white"/>
<path d="M269.39 65.1897C268.092 65.4862 266.991 65.1823 266.019 64.3859C265.614 64.9107 265.265 65.4481 264.833 65.9062C263.81 66.9894 262.522 67.1008 261.16 66.768C260.244 66.5444 259.797 65.8232 259.597 64.9948C259.214 63.4071 259.867 62.0006 260.564 60.6417C260.68 60.4158 261.124 60.3583 261.417 60.223C261.473 60.2675 261.529 60.3121 261.585 60.3567C261.486 60.8633 261.44 61.3879 261.276 61.8724C261.02 62.6273 261.139 63.2806 261.701 63.8124C262.078 64.1686 263.325 64.0562 263.909 63.6949C264.994 63.023 265.396 61.9543 265.63 60.7798C265.732 60.2666 265.715 59.6862 266.256 59.3778C266.567 59.2005 266.905 59.0695 267.336 58.8683C267.336 59.6185 267.296 60.1884 267.346 60.7504C267.427 61.6832 268.208 62.6036 269.134 62.4052C269.624 62.3002 270.136 62.0057 270.482 61.6464C270.649 61.4727 270.566 60.8919 270.405 60.6009C270.029 59.9203 270.126 59.3301 270.491 58.7088C270.704 58.3445 270.867 57.95 271.08 57.5859C271.151 57.4654 271.315 57.3209 271.43 57.3259C271.558 57.3316 271.747 57.4699 271.793 57.5937C272.585 59.7352 272.578 61.8523 271.387 63.8455C271.115 64.3015 270.541 64.5856 270.083 64.9187C269.902 65.0509 269.66 65.101 269.39 65.1897Z" fill="white"/>
<path d="M174.528 56.5144C176.11 55.8571 177.637 55.1946 179.171 54.5491C180.295 54.0759 181.425 53.6133 182.562 53.1712C182.909 53.0362 183.288 52.9848 183.738 52.874C183.758 53.8886 183.224 54.53 182.763 55.192C182.08 56.1737 180.934 56.4384 179.937 56.8894C177.867 57.826 175.753 58.6689 173.651 59.5344C171.492 60.4235 169.326 61.299 167.159 62.1675C166.752 62.3304 166.326 62.4594 165.897 62.5416C165.8 62.56 165.525 62.2545 165.55 62.2015C165.944 61.3698 165.806 60.2608 166.775 59.7302C167.164 59.5172 167.587 59.3645 167.998 59.194C170.156 58.2998 172.316 57.4088 174.528 56.5144Z" fill="white"/>
<path d="M133.361 95.2559C135.873 94.1504 138.343 93.0745 140.813 91.9972C140.89 91.9635 140.964 91.8775 141.035 91.8823C141.265 91.8976 141.55 91.8765 141.7 92.0035C141.791 92.0807 141.707 92.4155 141.644 92.6168C141.141 94.2361 139.89 95.0672 138.419 95.6853C136.731 96.3945 135.06 97.1452 133.379 97.8705C130.789 98.9874 128.2 100.104 125.604 101.207C125.016 101.457 124.404 101.651 123.716 101.904C123.928 100.066 124.173 99.0621 125.718 98.5437C127.308 98.0099 128.815 97.226 130.36 96.5555C131.344 96.1283 132.332 95.7084 133.361 95.2559Z" fill="white"/>
<path d="M227.032 90.1965C225.069 91.0953 223.154 91.977 221.222 92.8202C220.985 92.9236 220.658 92.8205 220.372 92.8131C220.387 92.5943 220.358 92.361 220.424 92.1592C220.659 91.446 220.684 90.6085 221.419 90.1602C221.94 89.8423 222.491 89.5675 223.045 89.3103C225.071 88.371 227.104 87.4483 229.133 86.5172C231.394 85.4796 233.651 84.4312 235.919 83.4094C236.256 83.2577 236.646 83.2257 237.017 83.1372C237.219 84.28 236.422 85.7546 235.198 86.3484C232.507 87.6551 229.785 88.8985 227.032 90.1965Z" fill="white"/>
<path d="M223.722 79.9984C223.148 79.0847 223.156 79.0931 223.868 78.3588C224.563 77.6417 225.266 76.9288 225.911 76.168C226.302 75.7081 226.914 75.7834 227.25 76.143C228.138 77.0922 229.051 78.0231 230.011 78.8974C230.403 79.2533 230.368 79.5811 230.107 79.8622C229.304 80.7269 228.497 81.6027 227.587 82.3442C227.308 82.5708 226.545 82.5653 226.251 82.3414C225.354 81.6577 224.578 80.8159 223.722 79.9984Z" fill="white"/>
<path d="M336.305 67.0629C335.99 66.7043 335.709 66.3786 335.428 66.0527C335.091 65.6615 335.181 65.2655 335.486 64.9336C336.296 64.0546 337.126 63.1948 337.96 62.3389C338.253 62.0382 338.821 62.1676 339.122 62.4731C339.993 63.3581 340.875 64.2365 341.803 65.0606C342.333 65.5308 342.406 65.7602 341.909 66.2588C341.137 67.034 340.365 67.8088 339.589 68.5802C339.196 68.9703 338.58 69.0004 338.153 68.6431C337.543 68.1332 336.943 67.6121 336.305 67.0629Z" fill="white"/>
<path d="M42.6175 59.7038C42.2906 60.0306 41.9767 60.3074 41.7065 60.6219C41.0151 61.4266 40.237 61.6807 39.4313 60.8542C38.658 60.0609 37.8712 59.2802 37.1168 58.4694C36.7937 58.1221 36.8264 57.7392 37.1796 57.3902C38.0042 56.5757 38.8166 55.7488 39.6408 54.9339C40.0408 54.5383 40.4663 54.5886 40.8647 54.9816C41.7807 55.8854 42.7185 56.7671 43.6542 57.6507C43.9798 57.9581 44.0323 58.2741 43.7177 58.605C43.3714 58.9692 43.0069 59.3163 42.6175 59.7038Z" fill="white"/>
<path d="M105.668 54.8079C105.903 54.8978 106.111 54.9576 106.265 55.0826C107.28 55.9031 108.274 56.7499 109.296 57.5613C109.669 57.8576 109.755 58.1118 109.424 58.4929C108.652 59.3835 107.937 60.329 107.112 61.1661C106.873 61.4092 106.245 61.5531 105.954 61.4129C104.701 60.8096 103.708 59.8379 102.8 58.7999C102.65 58.6281 102.607 58.1494 102.735 57.982C103.554 56.9126 104.433 55.8883 105.304 54.8591C105.356 54.7981 105.509 54.823 105.668 54.8079Z" fill="white"/>
<path d="M377.127 90.0552C377.494 89.6367 377.846 89.394 378.295 89.8656C379.356 90.978 380.416 92.0908 381.527 93.2562C380.588 94.2006 379.608 95.2482 378.544 96.2018C378.334 96.3901 377.659 96.3764 377.439 96.1827C376.45 95.3134 375.538 94.3546 374.619 93.4088C374.216 92.9942 374.546 92.6543 374.827 92.364C375.572 91.5952 376.335 90.845 377.127 90.0552Z" fill="white"/>
</svg>
