<svg width="429" height="143" viewBox="0 0 429 143" fill="none" xmlns="http://www.w3.org/2000/svg">
<path d="M132.561 78.4971C131.443 78.2481 130.373 78.1173 129.307 78.4735C128.969 78.5865 128.65 78.7679 128.306 78.85C127.944 78.9363 127.762 78.7807 127.742 78.3593C127.698 77.3791 128.114 76.5939 128.672 75.8461C129.949 74.1331 131.419 72.618 133.561 72.0947C136.179 71.4549 138.799 71.5431 141.267 72.7517C142.249 73.2324 143.17 73.8563 144.057 74.5009C144.37 74.7286 144.635 75.1946 144.684 75.5816C144.868 77.0537 144.442 78.3496 143.41 79.4599C142.965 79.9387 142.647 80.536 142.313 81.019C143.281 81.6859 144.738 82.3344 146.313 82.3664C147.626 82.3931 148.946 81.9587 149.868 80.9346C150.146 80.626 150.096 79.9613 150.08 79.4634C150.06 78.8258 149.913 78.1931 149.837 77.5563C149.613 75.6842 149.392 73.8117 149.18 71.9383C148.996 70.3186 148.852 68.6941 148.645 67.0775C148.412 65.2566 148.107 63.4449 147.874 61.624C147.741 60.5784 147.708 59.5203 147.595 58.4716C147.47 57.3018 147.313 56.135 147.155 54.9689C147.007 53.8694 146.819 52.7748 146.684 51.6738C146.358 49.0165 146.094 46.3378 144.683 43.975C144.34 43.4014 144.455 42.9524 144.751 42.5001C145.344 41.5953 145.979 40.7179 146.608 39.8374C146.76 39.6251 146.956 39.4445 147.246 39.123C147.53 39.63 147.837 39.9981 147.955 40.4192C148.34 41.7822 149.259 42.8245 149.989 43.9804C150.215 44.3391 150.501 44.6602 150.728 45.0185C151.057 45.5389 150.909 46.2811 150.382 46.8296C149.987 47.2398 149.563 47.6223 149.183 48.0447C148.488 48.8161 148.934 49.7235 148.978 50.5536C149.038 51.6783 149.278 52.7935 149.44 53.9128C149.627 55.2011 149.81 56.49 150.001 57.7777C150.16 58.8534 150.331 59.9275 150.491 61.0031C150.664 62.1639 150.847 63.3235 150.997 64.4874C151.153 65.6993 151.274 66.9157 151.412 68.13C151.584 69.6418 151.766 71.1527 151.93 72.6655C151.995 73.266 152.047 73.8697 152.065 74.4731C152.12 76.4335 152.252 78.3982 152.177 80.3544C152.075 83.028 151.031 85.2922 148.522 86.5151C146.141 87.6765 142.937 87.4082 140.793 85.4919C140.201 84.9632 139.819 84.2047 139.313 83.5737C138.799 82.9322 138.69 82.7391 137.86 83.2457C135.543 84.6593 133.059 85.7277 130.406 86.3236C129.428 86.5431 128.384 86.4498 127.395 86.6354C126.324 86.8364 125.308 86.6591 124.271 86.4886C122.921 86.2667 121.754 85.6642 120.671 84.8589C120.458 84.7003 120.216 84.5802 120.119 84.5216C119.469 85.7852 118.911 87.0107 118.213 88.1506C117.975 88.5377 117.417 88.7963 116.952 88.9629C115.427 89.5083 113.979 89.1898 112.635 88.3721C112.074 88.0306 111.549 87.6169 111.057 87.18C110.704 86.8662 110.528 87.068 110.308 87.3015C109.455 88.2105 108.472 88.9253 107.186 88.9795C106.191 89.0214 105.167 89.0463 104.197 88.8641C102.128 88.4756 100.353 87.3947 98.6257 86.2344C98.3931 86.0781 97.9776 86.0091 97.7209 86.1028C95.5851 86.8825 93.4688 87.7154 91.3407 88.5164C91.044 88.6281 90.8957 88.72 90.7934 89.0928C89.9512 92.1619 89.0004 95.201 87.6493 98.0902C87.0427 99.3872 86.389 100.681 85.5919 101.866C84.4552 103.555 82.8068 104.7 80.9671 105.529C78.8558 106.481 76.591 106.576 74.3322 106.446C71.3209 106.272 68.4395 105.505 65.7053 104.222C64.8466 103.819 64.0146 103.359 63.1637 102.939C62.7608 102.74 62.3822 102.426 62.6025 102.009C62.7489 101.732 63.2738 101.459 63.583 101.504C64.2801 101.605 64.9545 101.887 65.6272 102.126C68.067 102.994 70.5884 103.359 73.1578 103.157C75.6668 102.96 78.1002 102.391 80.2191 100.928C82.1954 99.5632 83.703 97.7486 84.8907 95.6889C85.8807 93.9721 86.7487 92.1848 87.6628 90.4247C87.778 90.203 87.845 89.9564 87.9334 89.7236C87.8879 89.6921 87.8425 89.6403 87.8209 89.6488C86.6192 90.1208 86.0493 89.8154 85.5648 88.4405C85.3623 87.866 85.1505 87.2947 84.9469 86.7206C84.7309 86.1115 84.9432 85.5236 85.5698 85.3126C86.9857 84.8359 88.4479 84.4899 89.8469 83.9712C92.5507 82.9687 95.2242 81.8841 97.9097 80.832C98.2435 80.7013 98.5762 80.5668 98.9053 80.4245C99.7198 80.0724 100.268 80.4137 100.283 81.2905C100.288 81.6189 100.304 81.9496 100.274 82.2755C100.245 82.5915 100.164 82.9027 100.098 83.2577C102.082 83.8594 104.011 84.4598 106.065 84.3753C107.331 84.3233 108.424 83.8278 109.44 83.0632C111.007 81.8839 111.923 80.3011 112.575 78.5009C112.686 78.1943 112.684 77.6588 113.282 77.6681C113.668 77.6741 113.889 77.7867 113.818 78.1932C113.613 79.3629 113.454 80.5457 113.159 81.693C112.842 82.929 112.765 82.9576 113.963 83.4457C114.797 83.7859 115.675 84.0492 116.558 84.2315C117.489 84.424 118.367 83.8005 118.681 82.7793C119.146 81.2701 119.542 79.7401 120.012 78.2327C120.093 77.9697 120.35 77.6621 120.597 77.5707C121.092 77.3883 121.41 77.6597 121.429 78.2977C121.444 78.8282 121.326 79.363 121.262 79.8952C121.236 80.1032 121.196 80.3094 121.166 80.493C126.623 83.6991 132.221 82.6733 136.041 80.0023C134.834 79.4824 133.723 79.0032 132.561 78.4971Z" fill="white"/>
<path d="M331.453 98.8362C330.247 99.041 329.113 99.3208 327.92 99.1188C327.199 98.9968 326.438 99.0972 325.724 98.9529C324.237 98.652 322.705 98.4151 321.31 97.8567C319.573 97.1617 317.964 96.152 316.281 95.3158C315.855 95.1046 315.721 94.7699 315.868 94.4364C315.965 94.216 316.364 93.9876 316.612 94.0039C317.127 94.0376 317.632 94.2319 318.141 94.3595C319.553 94.7136 320.955 95.1181 322.381 95.4029C323.303 95.5872 324.268 95.7175 325.201 95.6597C327.449 95.5202 329.715 95.3227 331.749 94.2251C333.269 93.4045 334.539 92.2704 335.661 90.9357C336.956 89.394 338.01 87.7162 338.929 85.937C339.152 85.5047 339.076 85.3235 338.677 85.0117C336.899 83.6232 335.995 81.804 336.67 79.4144C336.93 78.4941 337.375 77.6189 337.807 76.7591C337.925 76.5246 338.302 76.4204 338.641 76.2051C338.892 77.4457 339.11 78.5158 339.889 79.3292C340.356 79.8171 340.837 80.3158 341.391 80.6929C343.605 82.2 346.093 83.07 348.698 83.5746C350.31 83.8868 351.95 84.0664 353.584 84.2362C354.662 84.3481 355.757 84.4239 356.835 84.3599C358.416 84.266 359.991 84.044 361.565 83.8564C364.691 83.4841 367.67 82.4976 370.667 81.6079C372.511 81.0608 374.313 80.3758 376.16 79.597C375.258 79.2675 374.371 78.8853 373.45 78.6197C371.654 78.1016 369.848 77.6568 367.961 77.5266C365.258 77.34 362.61 77.6138 359.969 78.1425C359.761 78.1841 359.465 78.0719 359.301 77.9275C359.212 77.8487 359.247 77.5108 359.34 77.3604C360.031 76.2459 360.731 75.1362 361.467 74.0516C361.942 73.352 362.778 73.2571 363.501 73.1199C364.906 72.8532 366.335 72.6944 367.761 72.5606C369.799 72.3694 371.843 72.2408 373.963 72.0795C373.861 71.0057 373.793 69.914 373.646 68.833C373.468 67.5258 373.23 66.2267 373.008 64.9257C372.733 63.3118 372.445 61.7001 372.168 60.0866C371.919 58.6398 371.686 57.1903 371.43 55.7448C371.045 53.5719 371.048 51.328 370.247 49.2317C370.089 48.8192 369.945 48.39 369.712 48.0202C369.303 47.3698 369.483 46.8782 369.879 46.2751C370.468 45.3808 370.907 44.3892 371.414 43.441C371.739 42.8305 371.742 42.8321 372.229 42.8657C373.386 44.8128 374.481 46.6618 375.584 48.5054C375.889 49.0145 375.838 49.6523 375.417 50.0975C375.191 50.3359 374.981 50.6018 374.717 50.7884C373.895 51.3687 373.952 52.1283 374.125 52.9918C374.337 54.0582 374.437 55.1473 374.587 56.2265C374.748 57.3897 374.914 58.5523 375.072 59.7161C375.221 60.8178 375.358 61.9212 375.508 63.0228C375.669 64.2073 375.881 65.3866 375.997 66.5753C376.19 68.5379 376.632 70.5125 376.02 72.4704C375.798 73.1806 375.432 73.8458 375.128 74.5413C377.541 75.7866 380.249 76.5095 383.052 76.88C385.071 77.1469 387.1 77.3373 389.127 77.542C390.22 77.6524 391.323 77.6788 392.411 77.8216C393.374 77.948 393.429 78.1479 393.091 78.9233C392.585 80.084 392.039 81.2273 391.463 82.481C390.587 82.3271 389.683 82.1926 388.791 82.0061C387.186 81.6708 385.574 81.618 383.964 81.8906C382.103 82.2058 380.218 82.4605 378.405 82.9623C376.178 83.5787 373.983 84.3464 371.829 85.1873C368.461 86.5016 365.071 87.7263 361.493 88.3095C359.866 88.5748 358.215 88.7211 356.569 88.8357C355.029 88.9429 353.478 89.0189 351.938 88.9641C348.391 88.8379 344.895 88.4017 341.651 86.7137C341.098 87.9288 340.638 89.1602 340 90.2908C339.035 92.0014 338.079 93.7471 336.872 95.2841C335.512 97.0163 333.665 98.2062 331.453 98.8362Z" fill="white"/>
<path d="M198.251 97.7575C196.42 96.1563 195.591 94.1108 195.309 91.797C195.226 91.1178 195.087 90.4417 195.056 89.7606C194.95 87.3809 195.419 85.0747 196.044 82.7976C196.339 81.7233 196.675 80.6586 197.044 79.6074C197.144 79.3217 197.386 79.034 197.642 78.8723C197.822 78.758 198.217 78.7563 198.37 78.8821C198.553 79.033 198.716 79.411 198.655 79.6249C198.145 81.4269 197.426 83.185 197.084 85.015C196.833 86.3615 196.859 87.8099 197.41 89.1612C198.066 90.7719 198.909 92.282 200.42 93.2006C202.228 94.3001 204.196 95.0016 206.367 95.0366C208.529 95.0713 210.655 94.9123 212.682 94.1041C215.159 93.1166 217.372 91.7247 218.962 89.5405C219.573 88.7012 219.961 87.7004 220.459 86.7776C220.805 86.1364 220.67 85.5101 220.456 84.8672C219.706 82.6058 218.866 80.3805 217.763 78.2645C217.09 76.9734 216.305 75.7345 215.727 74.4041C215.528 73.946 215.769 73.2756 215.87 72.713C216.046 71.7333 216.255 70.7589 216.481 69.7895C216.535 69.5584 216.71 69.3556 216.83 69.1398C217.064 69.286 217.389 69.3769 217.516 69.5874C218.262 70.8155 219.021 72.0421 219.651 73.3305C219.986 74.0172 220.491 74.2853 221.134 74.5327C223.288 75.3615 225.126 74.7535 226.927 73.4926C229.029 72.0216 230.307 69.8949 231.711 67.8583C232.913 66.1167 234.27 64.5118 235.779 63.0304C236.793 62.0351 238.63 62.1577 239.67 62.6884C241.335 63.537 241.914 65.0455 242.083 66.7336C242.29 68.7957 242.391 70.8699 242.487 72.9412C242.566 74.6301 241.835 76.1163 241.153 77.5957C240.942 78.0531 240.468 78.1847 239.958 78.2098C238.379 78.2876 236.95 77.7064 235.515 77.1928C234.248 76.7393 233.003 76.2149 231.775 75.6639C231.127 75.373 230.534 74.9582 229.869 74.5716C228.048 77.4551 225.954 79.8681 222.12 79.7812C222.217 80.5643 222.292 81.3175 222.406 82.0648C222.665 83.7597 222.809 85.458 222.516 87.1602C222.296 88.4344 222.068 89.7094 221.774 90.968C221.31 92.9615 219.931 94.3708 218.428 95.5779C217.083 96.6578 215.577 97.568 214.052 98.3824C212.443 99.2406 210.68 99.7246 208.845 99.8925C208.056 99.9648 207.266 100.153 206.48 100.137C203.55 100.077 200.71 99.6456 198.251 97.7575ZM233.888 68.4761C233.511 68.9306 233.135 69.3852 232.727 69.8772C233.132 70.1795 233.477 70.4662 233.85 70.7105C235.536 71.8152 237.495 72.2087 239.376 72.8006C239.687 72.8984 239.991 72.7269 239.822 72.3357C239.231 70.9671 238.633 69.5995 237.97 68.2652C237.818 67.9591 237.427 67.7153 237.092 67.5666C235.839 67.0114 234.874 67.6512 233.888 68.4761Z" fill="white"/>
<path d="M258.581 86.7157C260.702 87.6439 262.858 87.6518 265.067 87.4221C267.067 87.2141 268.984 86.7038 270.877 86.0847C273.152 85.3409 275.304 84.3282 277.32 83.0223C277.907 82.6415 278.614 82.5254 279.294 82.7431C280.393 83.0952 281.467 83.5273 282.561 83.899C283.456 84.2034 284.362 84.4814 285.27 84.748C286.092 84.9896 286.758 84.4814 286.929 83.6193C287.241 82.055 286.861 80.5512 286.614 79.0343C286.378 77.5855 286.119 76.1406 285.868 74.6941C285.622 73.269 285.373 71.8443 285.128 70.4189C284.891 69.0348 284.658 67.6498 284.423 66.2653C284.173 64.7969 283.918 63.3295 283.674 61.8601C283.479 60.6831 283.307 59.5021 283.105 58.3264C282.95 57.4273 282.74 56.5373 282.597 55.6366C282.436 54.6241 282.374 53.5939 282.171 52.5909C282.028 51.8786 281.745 51.1903 281.483 50.5073C281.324 50.0945 281.024 49.7311 280.896 49.3125C280.605 48.3615 280.777 47.4933 281.417 46.6885C281.984 45.9762 282.459 45.191 282.976 44.4398C283.259 44.03 283.67 44.0366 283.901 44.469C284.779 46.1067 285.68 47.7336 286.495 49.4023C286.678 49.7771 286.667 50.3434 286.534 50.7528C286.337 51.3598 286.013 51.9513 285.631 52.4667C285.038 53.2683 285.078 54.1074 285.233 55.0094C285.551 56.8551 285.825 58.7082 286.135 60.5555C286.356 61.8762 286.604 63.1923 286.841 64.5104C287.13 66.1214 287.421 67.7322 287.708 69.3435C287.992 70.9338 288.284 72.5226 288.552 74.1156C288.728 75.1674 288.906 76.2216 289.012 77.2819C289.109 78.2513 289.191 79.2346 289.139 80.2042C289.006 82.6815 288.505 85.0967 287.332 87.2985C286.377 89.0908 284.935 89.7502 282.861 89.1926C281.485 88.8226 280.188 88.2879 279.02 87.4571C278.242 86.9039 277.528 87.3003 276.858 87.686C274.369 89.1173 271.894 90.5909 269.099 91.3519C267.794 91.7074 266.448 91.9626 265.103 92.114C263.514 92.2929 261.906 92.3935 260.308 92.3781C258.065 92.3565 255.955 91.7819 254.296 90.1693C253.663 89.5533 253.159 88.7857 252.675 88.0364C251.455 86.1483 250.959 84.0068 250.65 81.8184C250.441 80.3344 250.295 78.8414 250.118 77.3528C249.901 75.5233 249.672 73.6952 249.468 71.8643C249.318 70.5192 249.22 69.168 249.061 67.8241C248.916 66.5945 248.71 65.3721 248.548 64.1443C248.361 62.7228 248.218 61.295 248.007 59.8771C247.845 58.7852 247.683 57.684 247.387 56.6239C247.037 55.365 247.104 54.1091 247.25 52.8593C247.372 51.8124 247.642 50.7795 247.903 49.7545C247.961 49.5249 248.242 49.209 248.437 49.1968C248.636 49.1844 248.976 49.4589 249.044 49.674C249.239 50.2958 249.351 50.9474 249.457 51.5937C249.688 53.003 249.906 54.4147 250.109 55.8284C250.26 56.8874 250.368 57.9526 250.516 59.0124C250.721 60.4918 250.957 61.967 251.157 63.4471C251.311 64.5935 251.416 65.7465 251.568 66.8933C251.716 68.0141 251.907 69.1294 252.058 70.2499C252.213 71.3953 252.331 72.5459 252.488 73.691C252.63 74.7256 252.798 75.7568 252.964 76.7879C253.148 77.9219 253.349 79.053 253.532 80.1871C254.027 83.2585 255.675 85.4399 258.581 86.7157Z" fill="white"/>
<path d="M182.693 72.2927C184.122 74.0471 184.943 76.0591 185.576 78.1522C186.137 80.0104 186.239 81.9389 186.092 83.8551C185.886 86.5482 185.112 89.083 183.652 91.3897C182.502 93.2074 181.185 94.8819 179.674 96.416C178.541 97.5674 177.208 98.3378 175.686 98.8441C173.887 99.4426 172.072 99.9655 170.165 100.013C168.48 100.055 166.792 100.054 165.106 100.01C163.922 99.9799 162.736 99.8857 161.56 99.7459C160.593 99.631 159.633 99.4363 158.684 99.2161C158.33 99.134 158.016 98.8794 157.707 98.7159C157.916 97.7331 158.711 97.7431 159.834 97.7924C161.324 97.858 162.813 98.0277 164.302 98.0366C167.958 98.0585 171.324 97.0447 174.487 95.1993C176.415 94.074 178.227 92.8227 179.666 91.1256C181.485 88.9798 183.151 86.7167 183.876 83.9485C182.629 84.0507 181.421 84.1739 180.21 84.2406C179.402 84.2851 178.589 84.2732 177.78 84.2444C175.702 84.1704 174.346 82.8376 174.02 80.8729C173.488 77.6696 174.599 74.9266 176.466 72.4261C176.923 71.8151 177.483 71.2426 178.101 70.8007C178.96 70.1867 179.96 70.2815 180.833 70.7864C181.507 71.1764 182.074 71.7518 182.693 72.2927ZM176.779 78.1059C177 79.1199 177.836 79.4205 178.666 79.4893C179.949 79.5957 181.246 79.5174 182.701 79.5174C181.759 77.9333 180.749 76.7354 179.498 75.7522C179.125 75.4584 178.718 75.4116 178.246 75.7246C177.407 76.2807 176.945 77.0318 176.779 78.1059Z" fill="white"/>
<path d="M72.3831 89.6091C71.0049 91.7384 69.448 93.643 67.1297 94.7011C65.2806 95.5451 63.3395 96.1694 61.2927 96.3338C59.7406 96.4584 58.1798 96.6229 56.6288 96.576C54.8287 96.5215 53.0318 96.2832 51.2401 96.0697C50.3183 95.9598 49.4004 95.7695 48.5034 95.5306C48.2428 95.4612 48.0604 95.0982 47.8422 94.8698C48.0648 94.6767 48.2646 94.3628 48.5147 94.3158C49.0426 94.2164 49.5979 94.2246 50.1398 94.2454C52.0243 94.3175 53.9172 94.5714 55.7893 94.4601C58.0281 94.327 60.2108 93.7908 62.277 92.8108C64.4978 91.7573 66.5926 90.5471 68.4053 88.8655C70.7974 86.6464 72.6187 84.0483 73.7703 80.991C73.8468 80.7881 73.8415 80.5544 73.8873 80.2481C71.768 80.8041 69.6992 80.8163 67.6585 80.6647C65.7478 80.5227 64.7045 79.6275 64.1555 77.6044C63.5915 75.5259 64.0361 73.5232 64.892 71.5979C65.5091 70.2097 66.2525 68.8901 67.361 67.8321C68.8245 66.4354 70.278 66.5575 71.7225 67.895C73.9339 69.9427 75.1982 72.5807 75.6955 75.5515C75.904 76.797 76.108 78.0702 76.0731 79.3241C75.9833 82.5418 75.1204 85.5584 73.326 88.2695C73.0334 88.7116 72.7211 89.1406 72.3831 89.6091ZM67.4286 72.9105C67.3571 73.0137 67.2713 73.1099 67.2161 73.2213C66.7248 74.2133 66.7192 75.0615 67.4742 75.5174C67.8906 75.7689 68.4204 75.9256 68.9076 75.949C70.1448 76.0085 71.3867 75.9688 72.8048 75.9688C71.8896 74.5526 71.0436 73.4231 69.9402 72.4836C69.1602 71.8195 68.6913 71.7553 67.9003 72.4124C67.7494 72.5378 67.618 72.6869 67.4286 72.9105Z" fill="white"/>
<path d="M46.0809 85.7933C49.8945 84.8056 52.836 82.7635 54.7185 79.2955C55.2067 78.3961 55.2736 77.5181 54.9238 76.5625C53.8544 73.6411 52.6 70.7989 50.9755 68.1498C50.3152 67.0729 50.605 66.076 50.7514 65.0346C50.8539 64.306 51.0629 63.5899 51.2595 62.8779C51.4069 62.3439 51.8198 62.2217 52.1733 62.6435C52.5648 63.1105 52.9114 63.634 53.1818 64.1802C54.1361 66.1076 55.1288 68.0225 55.9466 70.0081C56.3912 71.0876 56.6121 72.2882 56.7544 73.4561C56.9424 74.9989 57.0983 76.5715 57.0076 78.1161C56.8799 80.2929 56.5818 82.4942 55.3195 84.3648C54.1867 86.0434 52.5781 87.2488 50.8819 88.3159C48.8881 89.5703 46.68 90.338 44.3723 90.6577C41.6569 91.0338 38.903 91.0776 36.3425 89.8593C34.2607 88.8688 32.7866 87.3188 32.171 84.9917C31.7096 83.2472 31.3982 81.4846 31.5776 79.7102C31.7541 77.9644 32.177 76.2405 32.5453 74.5184C32.7164 73.7187 32.9497 72.9172 33.2819 72.1733C33.4504 71.7962 33.8538 71.3904 34.2355 71.2733C34.8155 71.0954 35.0588 71.4686 34.8688 72.0643C34.4403 73.4076 33.9168 74.729 33.602 76.0984C32.9898 78.7613 33.453 81.207 35.2901 83.3436C36.7834 85.0803 38.791 85.6773 40.911 86.0906C42.6419 86.4281 44.3304 86.0146 46.0809 85.7933Z" fill="white"/>
<path d="M320.008 76.3955C319.423 75.389 318.769 74.4994 317.495 74.6738C316.567 74.8008 315.8 75.3614 315.218 76.077C315.066 76.2635 315.122 76.7995 315.285 77.0322C316.333 78.5233 317.805 79.4349 319.577 79.7641C321.352 80.0937 323.129 79.9681 324.892 79.5371C325.497 79.3892 326.145 79.4185 326.961 79.3514C326.717 79.8379 326.581 80.1497 326.409 80.4396C326.053 81.04 325.623 81.6029 325.324 82.2295C325.036 82.8349 324.549 83.0194 323.976 83.0594C322.092 83.1908 320.318 83.7619 318.593 84.4646C316.76 85.2116 314.968 86.0597 313.169 86.8876C312.524 87.1845 312 87.7792 311.132 87.6448C311.249 85.0707 312.897 83.7488 315.291 82.8689C314.537 82.4141 313.959 82.1189 313.443 81.7394C312.799 81.2664 312.144 80.7817 311.609 80.1973C310.871 79.3926 310.901 78.4127 311.459 77.5343C313.116 74.9297 315.182 72.6939 317.918 71.2158C320.216 69.9745 321.902 70.8947 323.113 72.8189C323.385 73.2502 323.341 73.7858 323.064 74.2466C322.606 75.007 322.171 75.7852 321.655 76.5048C321.145 77.2158 320.499 77.1573 320.008 76.3955Z" fill="white"/>
<path d="M161.365 53.1497C161.57 54.4708 161.747 55.7401 161.919 57.0101C162.056 58.0271 162.179 59.0461 162.323 60.0623C162.531 61.5411 162.767 63.0163 162.963 64.4967C163.121 65.6864 163.237 66.8817 163.372 68.0744C163.546 69.608 163.73 71.1405 163.889 72.6756C163.961 73.363 164.004 74.0548 164.026 74.7458C164.081 76.5307 164.202 78.3194 164.136 80.1007C164.075 81.7895 163.818 83.4717 163.627 85.1545C163.599 85.3975 163.507 85.6639 163.361 85.8544C163.202 86.0601 162.95 86.3051 162.729 86.3146C162.557 86.3219 162.267 86.0201 162.213 85.809C162.098 85.3575 162.085 84.8766 162.061 84.4062C161.966 82.5224 161.93 80.6343 161.782 78.7549C161.619 76.6805 161.39 74.6096 161.129 72.5448C160.816 70.0666 160.426 67.5981 160.091 65.1224C159.81 63.0455 159.573 60.9628 159.294 58.8856C159.049 57.0663 158.695 55.2582 158.53 53.4325C158.318 51.0851 158.121 48.7227 158.165 46.3713C158.189 45.1015 158.728 43.8414 159.003 42.7087C159.96 42.3402 160.125 42.8977 160.2 43.3952C160.341 44.3288 160.375 45.2779 160.485 46.217C160.638 47.5336 160.825 48.8464 160.989 50.1619C161.111 51.1398 161.219 52.1194 161.365 53.1497Z" fill="white"/>
<path d="M297.829 66.6431C298.091 68.3876 298.378 70.069 298.605 71.7585C298.78 73.0558 298.839 74.3688 299.02 75.6651C299.46 78.8202 299.464 81.9929 299.381 85.162C299.347 86.4298 299.064 87.6974 298.817 88.9499C298.728 89.4054 298.455 89.8802 297.633 89.5117C297.583 89.2068 297.477 88.7634 297.44 88.3143C297.254 86.0147 297.103 83.712 296.904 81.4136C296.76 79.7466 296.597 78.0793 296.373 76.4215C296.111 74.4791 295.766 72.5479 295.473 70.6096C295.28 69.343 295.123 68.0713 294.935 66.804C294.727 65.3912 294.485 63.983 294.29 62.5685C294.131 61.4227 294.027 60.2695 293.884 59.1215C293.719 57.8063 293.475 56.4977 293.38 55.1779C293.275 53.7162 293.526 52.2808 294.058 50.9069C294.194 50.5563 294.341 50.2038 294.537 49.8855C294.63 49.734 294.866 49.5579 295.009 49.5796C295.166 49.6034 295.369 49.8217 295.413 49.9915C295.553 50.5234 295.648 51.0696 295.722 51.6154C295.994 53.606 296.249 55.5989 296.512 57.5906C296.731 59.243 296.937 60.8972 297.177 62.5466C297.373 63.8954 297.61 65.2381 297.829 66.6431Z" fill="white"/>
<path d="M397.981 72.3187C398.113 75.1072 398.364 77.8354 398.336 80.5606C398.315 82.5555 398.278 84.5928 397.588 86.524C397.538 86.6623 397.524 86.8371 397.43 86.9306C397.207 87.1519 396.945 87.3344 396.699 87.5326C396.513 87.2249 396.182 86.9247 396.165 86.6082C396.072 84.8039 396.105 82.9927 395.995 81.1899C395.888 79.4333 395.661 77.684 395.487 75.9316C395.355 74.6069 395.241 73.28 395.085 71.9582C394.944 70.7714 394.742 69.592 394.595 68.4059C394.476 67.4471 394.411 66.4817 394.298 65.522C394.137 64.1412 393.941 62.7643 393.784 61.383C393.673 60.4 393.603 59.4122 393.512 58.4268C393.427 57.5066 393.306 56.5883 393.258 55.6662C393.162 53.8172 393.555 52.0645 394.452 50.4431C394.553 50.2612 394.863 50.1263 395.086 50.1093C395.201 50.1006 395.421 50.3837 395.454 50.5608C395.582 51.2518 395.678 51.9509 395.743 52.651C395.931 54.6864 396.067 56.7271 396.282 58.7595C396.507 60.887 396.8 63.0073 397.063 65.1307C397.282 66.8929 397.497 68.6554 397.72 70.4171C397.798 71.0316 397.894 71.6439 397.981 72.3187Z" fill="white"/>
<path d="M91.7397 55.6875C91.4637 56.0912 91.7865 56.1973 91.9793 56.3883C92.4154 56.8204 93.0539 57.026 93.2164 57.7656C93.4433 58.7981 92.9562 59.6611 92.6927 60.5762C92.6803 60.6193 92.052 60.6007 91.8297 60.4429C91.4075 60.1433 91.0747 59.719 90.6986 59.3528C90.5518 59.2098 90.3883 59.084 90.1718 58.8984C89.3465 60.4685 88.391 61.8372 87.0993 62.9054C86.1384 63.7 85.106 64.4275 84.0329 65.0622C82.6885 65.8573 81.2735 66.5337 79.8805 67.2446C79.6026 67.3865 79.289 67.5204 78.9867 67.5327C78.7443 67.5427 78.3824 67.4272 78.2796 67.2487C78.182 67.0792 78.2623 66.6533 78.4187 66.5166C79.3531 65.7001 80.317 64.9152 81.2993 64.1562C83.2877 62.6197 85.3166 61.1347 87.2785 59.5654C87.8138 59.1372 88.1697 58.4847 88.5749 57.9766C87.3383 57.0235 86.1267 56.1289 84.9619 55.1771C84.2764 54.6169 84.4048 53.7628 84.5556 53.0607C85.0097 50.9462 86.1271 49.2045 87.9048 47.9481C89.1813 47.046 90.5032 47.4259 91.3441 48.8391C92.1377 50.1728 92.448 51.6275 92.1407 53.1867C91.9809 53.9975 91.8727 54.8184 91.7397 55.6875ZM87.8003 53.4306C88.5123 53.906 89.2244 54.3814 90.0321 54.9207C90.0321 54.3379 90.0299 53.9041 90.0326 53.4703C90.0385 52.5106 89.7918 51.6288 89.2415 50.8352C88.8401 50.2562 88.2134 50.1495 87.7114 50.6369C87.3926 50.9465 87.1105 51.3095 86.8792 51.6895C86.5755 52.1887 86.7232 52.6603 87.2099 52.9919C87.3857 53.1117 87.5572 53.2379 87.8003 53.4306Z" fill="white"/>
<path d="M320.147 60.9106C319.633 60.4152 319.141 59.9626 318.681 59.5402C318.008 60.4757 317.357 61.3755 316.712 62.2787C315.807 63.5443 314.592 64.4566 313.259 65.2024C311.599 66.1306 309.906 66.9991 308.216 67.8717C307.963 68.0026 307.649 68.0619 307.362 68.0681C307.127 68.0731 306.691 67.9536 306.689 67.8817C306.683 67.5848 306.718 67.2026 306.902 67.0031C307.305 66.567 307.794 66.2053 308.271 65.8447C310.894 63.8629 313.742 62.1689 316.046 59.7797C316.4 59.4127 316.688 58.9821 316.977 58.6179C315.843 57.7589 314.729 56.9185 313.619 56.0729C312.809 55.4563 312.747 54.617 312.946 53.7141C313.393 51.6917 314.425 50.0281 316.07 48.7686C317.885 47.3779 319.558 48.4799 320.157 50.2154C320.654 51.6564 320.722 53.1566 320.441 54.6642C320.345 55.1852 320.348 55.7461 320.145 56.2199C319.952 56.6711 320.141 56.9027 320.425 57.0829C321.996 58.0811 321.753 58.6956 321.391 60.2345C321.343 60.4388 321.289 60.6428 321.22 60.8411C320.981 61.5363 320.695 61.5653 320.147 60.9106ZM318.464 55.0756C318.464 54.9661 318.46 54.8564 318.465 54.747C318.514 53.5249 318.331 52.3702 317.545 51.3718C317.185 50.9139 316.704 50.7892 316.277 51.1657C315.888 51.5091 315.463 51.8899 315.266 52.3458C315.136 52.6445 315.247 53.2689 315.483 53.4656C316.329 54.1675 317.273 54.7519 318.19 55.365C318.227 55.3893 318.37 55.253 318.464 55.0756Z" fill="white"/>
<path d="M362.628 61.0036C362.212 60.5751 361.801 60.1967 361.39 59.8168C361.084 59.5333 360.935 59.6672 360.765 59.9912C360.054 61.3529 359.141 62.5837 357.972 63.5706C356.97 64.4172 355.89 65.1924 354.764 65.8666C353.446 66.6565 352.042 67.3031 350.675 68.0121C350.656 68.0221 350.641 68.04 350.621 68.0472C350.132 68.2234 349.543 68.4786 349.21 67.9629C348.849 67.4035 349.466 67.0371 349.817 66.7675C351.791 65.2507 353.82 63.8062 355.796 62.2908C357.176 61.2322 358.562 60.1622 359.489 58.6412C358.378 57.8165 357.288 57.0156 356.207 56.2033C355.495 55.6682 355.231 54.8914 355.418 54.0807C355.924 51.8856 356.968 49.9883 358.863 48.6686C360.182 47.7499 361.259 48.3449 361.975 49.2174C362.688 50.0873 362.945 51.1479 363.008 52.2339C363.092 53.6968 363.015 55.1547 362.535 56.5664C362.494 56.6877 362.617 56.9225 362.733 57.0284C363.048 57.3149 363.419 57.5386 363.732 57.8266C364.278 58.3297 364.083 58.9978 364.029 59.603C363.995 59.9899 363.803 60.3633 363.679 60.7418C363.426 61.5149 363.32 61.5461 362.628 61.0036ZM358.817 54.2186C359.489 54.6878 360.161 55.1569 360.848 55.6363C360.936 55.4965 361.033 55.4111 361.039 55.3193C361.124 54.1486 360.971 53.0074 360.472 51.9416C360.106 51.1628 359.275 50.77 358.789 51.1523C358.357 51.4918 357.919 51.9075 357.684 52.3878C357.495 52.7759 357.498 53.3393 358.002 53.6662C358.25 53.8275 358.499 53.9886 358.817 54.2186Z" fill="white"/>
<path d="M203.685 50.894C202.751 50.1796 201.836 49.5175 200.957 48.8117C200.197 48.2018 200.221 47.3546 200.449 46.527C200.959 44.672 201.926 43.1198 203.495 41.9425C204.973 40.8336 206.613 41.6967 207.074 43.0083C207.4 43.9365 207.722 44.9169 207.754 45.8836C207.788 46.9289 207.526 47.9944 207.306 49.0325C207.217 49.4499 207.266 49.6973 207.598 49.9286C208.845 50.7972 208.927 51.0142 208.587 52.4754C208.515 52.7838 208.453 53.0957 208.359 53.3976C208.172 54.001 207.821 54.0753 207.347 53.6316C206.848 53.1649 206.345 52.7033 205.868 52.2623C205.219 53.1689 204.62 53.9882 204.041 54.8211C203.25 55.9569 202.167 56.7739 200.998 57.441C199.187 58.4744 197.325 59.4202 195.457 60.3478C195.212 60.4698 194.804 60.2661 194.472 60.2132C194.564 59.8919 194.552 59.4461 194.764 59.2701C195.862 58.3595 197.029 57.5324 198.15 56.6489C199.878 55.2871 201.602 53.9192 203.297 52.5164C203.679 52.1996 203.935 51.729 204.256 51.3201C204.063 51.1783 203.892 51.0528 203.685 50.894ZM205.312 48.1882C205.41 48.2522 205.508 48.3163 205.626 48.3931C205.841 47.078 205.547 45.5444 204.891 44.6253C204.561 44.1628 204.1 43.9259 203.634 44.3048C203.204 44.6543 202.834 45.1255 202.576 45.6161C202.468 45.8229 202.617 46.3472 202.82 46.5025C203.588 47.0895 204.427 47.5842 205.312 48.1882Z" fill="white"/>
<path d="M102.65 66.9419C103.17 66.2188 103.684 65.5432 104.214 64.8814C104.51 64.5118 104.821 64.1514 105.15 63.8113C105.665 63.2789 106.129 63.3908 106.63 63.9291C107.227 64.5703 107.926 65.1214 108.617 65.6641C108.719 65.7444 109.105 65.6323 109.225 65.4931C109.994 64.603 110.727 63.6815 111.468 62.7677C111.716 62.4622 112.39 62.4338 112.659 62.7983C113.518 63.965 114.691 64.7263 115.899 65.4621C116.139 65.6084 116.335 65.8548 116.051 66.1864C115.381 66.9672 114.748 67.7791 114.066 68.5487C113.76 68.8946 113.618 69.4891 112.973 69.4093C112.663 69.3709 112.294 69.404 112.059 69.2461C111.213 68.6792 110.412 68.0446 109.553 67.4053C108.872 68.2665 108.182 69.1307 107.501 70.0018C107.266 70.3037 106.305 70.514 105.947 70.2423C104.917 69.4584 103.905 68.6469 102.926 67.8004C102.741 67.6401 102.737 67.269 102.65 66.9419Z" fill="white"/>
<path d="M271.047 69.8368C271.556 69.2716 272.059 68.7627 272.513 68.214C272.856 67.7999 273.207 67.8184 273.517 68.1645C274.49 69.2515 275.591 70.1735 276.82 70.9589C276.959 71.0473 277.034 71.5209 276.93 71.6558C276.135 72.6902 275.318 73.7109 274.446 74.6806C274.028 75.1457 273.447 75.0108 272.98 74.6977C272.169 74.1546 271.391 73.5614 270.536 72.9431C269.818 73.7525 269.057 74.5971 268.313 75.4563C267.924 75.9048 267.419 76.0115 266.985 75.6976C265.932 74.9345 264.911 74.1205 263.934 73.2611C263.439 72.8247 263.552 72.337 264.162 71.5903C264.785 70.8275 265.41 70.066 266.044 69.3125C266.573 68.6844 266.937 68.6897 267.543 69.2722C268.151 69.8581 268.779 70.4236 269.398 70.9988C269.627 71.2119 269.889 71.2576 270.102 71.022C270.43 70.6593 270.716 70.2598 271.047 69.8368Z" fill="white"/>
<path d="M333.748 48.2362C335.574 48.0073 337.166 48.6734 338.792 49.1834C339.574 49.4289 340.378 49.606 341.172 49.8151C341.58 49.9226 341.759 50.1515 341.598 50.5833C341.199 51.6539 340.946 52.7844 339.731 53.3491C339.161 53.6137 338.725 54.1541 338.206 54.5392C336.872 55.5283 335.291 55.9277 333.736 56.388C333.091 56.5789 332.467 56.8638 331.811 56.986C331.478 57.0479 330.978 56.9556 330.765 56.7317C330.47 56.4198 330.764 56.0545 331.071 55.808C331.253 55.6614 331.427 55.4959 331.63 55.3866C333.49 54.3873 335.356 53.3986 337.219 52.4054C337.276 52.3749 337.325 52.3295 337.428 52.2552C336.1 51.6469 334.815 51.0512 333.399 51.1496C331.78 51.262 330.342 51.8457 329.355 53.2593C329.224 53.4466 328.904 53.5018 328.672 53.6182C328.599 53.4084 328.412 53.155 328.472 52.9963C328.771 52.2165 329.036 51.3952 329.496 50.7123C330.483 49.2479 331.922 48.4396 333.748 48.2362Z" fill="white"/>
<path d="M113.721 44.1188C114.295 44.2462 114.696 44.4045 114.355 45.0771C113.997 45.7839 113.709 46.5291 113.312 47.212C113.169 47.4595 112.789 47.5634 112.533 47.7533C111.815 48.2842 111.165 48.9486 110.378 49.3343C109.217 49.9031 107.963 50.2831 106.743 50.7301C106.25 50.9109 105.749 51.0752 105.242 51.2108C104.896 51.3032 104.534 51.364 104.177 51.3779C103.987 51.3854 103.634 51.2774 103.627 51.1969C103.602 50.9214 103.599 50.5259 103.766 50.3745C104.185 49.9969 104.684 49.6962 105.182 49.4221C106.864 48.4971 108.559 47.5972 110.283 46.669C108.245 45.4932 105.761 45.1392 103.725 46.2832C103.165 46.5978 102.751 47.1658 102.248 47.5914C102.055 47.7544 101.8 47.8444 101.574 47.9677C101.495 47.7204 101.294 47.4362 101.356 47.2314C101.959 45.2413 103.593 43.135 106.126 42.6928C107.922 42.3793 109.531 42.8893 111.176 43.4176C111.997 43.6814 112.844 43.8634 113.721 44.1188Z" fill="white"/>
<path d="M45.5213 42.4865C47.5622 41.6221 49.5586 40.7828 51.5609 39.9581C51.742 39.8836 51.9618 39.9033 52.1637 39.8793C52.1683 40.1151 52.2345 40.37 52.168 40.5836C51.6193 42.344 50.2733 43.2547 48.6502 43.9036C46.8537 44.6218 45.0814 45.4006 43.3003 46.1572C40.9377 47.1609 38.5766 48.1679 36.2153 49.1747C34.6867 49.8265 33.1634 50.4912 31.6261 51.1215C31.4009 51.2139 31.1106 51.1474 30.8505 51.1545C30.8632 50.9374 30.864 50.7187 30.8907 50.5033C31.1096 48.7366 32.3943 48.0278 33.8598 47.4495C35.7377 46.7085 37.5961 45.917 39.4538 45.126C41.4674 44.2686 43.4707 43.3868 45.5213 42.4865Z" fill="white"/>
<path d="M262.208 49.9777C262.079 50.7193 261.872 51.4011 261.834 52.0923C261.779 53.0878 262.585 53.5807 263.575 53.4124C265.356 53.1095 265.997 51.8821 266.279 50.3213C266.399 49.6573 266.517 49.0027 267.156 48.6306C267.404 48.4863 267.7 48.4249 267.864 48.3657C268.033 49.3263 268.068 50.2075 268.358 50.9948C268.702 51.9312 269.666 52.1267 270.502 51.5821C271.384 51.007 271.532 50.7414 271.112 49.775C270.816 49.0958 270.916 48.5612 271.274 47.9879C271.487 47.6486 271.652 47.2803 271.866 46.9421C271.941 46.822 272.12 46.6582 272.21 46.6807C272.356 46.7169 272.531 46.8669 272.585 47.0099C273.285 48.8564 273.196 50.7286 272.532 52.5388C271.754 54.6629 269.177 55.4058 267.247 54.1553C266.899 53.93 266.716 53.7773 266.363 54.3266C265.154 56.2102 264.126 56.5671 262.132 56.3573C260.776 56.2145 259.964 54.8453 260.128 53.2824C260.249 52.1303 260.58 51.0131 261.25 50.0192C261.57 49.5445 261.844 49.5257 262.208 49.9777Z" fill="white"/>
<path d="M264.614 38.8105C268.215 37.3138 271.771 35.8403 275.34 34.3996C275.705 34.2525 276.148 34.3018 276.555 34.2599C276.462 34.6215 276.384 34.9878 276.272 35.3438C275.75 37.0115 274.278 37.5301 272.873 38.1082C270.598 39.0443 268.315 39.9615 266.03 40.8733C263.022 42.0734 260.011 43.2621 256.998 44.4493C256.805 44.5253 256.591 44.5466 256.379 44.5951C256.329 43.4483 256.964 41.8822 257.778 41.5629C260.05 40.6731 262.309 39.7519 264.614 38.8105Z" fill="white"/>
<path d="M246.688 93.1876C244.629 94.1133 242.622 95.0419 240.608 95.9536C239.036 96.6654 237.454 97.3584 235.875 98.0559C234.142 98.8215 232.411 99.593 230.668 100.334C230.408 100.445 230.084 100.404 229.788 100.433C229.749 98.8364 230.538 97.6812 231.901 97.1061C233.569 96.4021 235.21 95.6321 236.863 94.8938C239.613 93.6666 242.363 92.4431 245.112 91.2153C245.805 90.9059 246.483 90.5603 247.187 90.2805C247.588 90.121 248.029 90.0608 248.636 89.9105C248.235 91.292 247.862 92.4479 246.688 93.1876Z" fill="white"/>
<path d="M142.329 95.9479C140.46 96.782 138.65 97.6326 136.818 98.4355C134.892 99.2799 132.948 100.082 131.009 100.896C129.672 101.457 128.333 102.013 126.989 102.557C126.801 102.634 126.583 102.635 126.375 102.672C126.229 101.102 127.1 99.7976 128.53 99.2265C130.268 98.5324 131.98 97.7748 133.701 97.0386C135.982 96.0624 138.265 95.0887 140.54 94.0972C141.621 93.6263 142.682 93.1103 143.758 92.63C143.943 92.5473 144.163 92.5413 144.498 92.473C144.265 94.0087 143.592 95.1354 142.329 95.9479Z" fill="white"/>
<path d="M184.521 54.0169C185.193 53.7533 185.793 53.4021 186.439 53.2552C187.127 53.0988 187.242 53.3186 187.003 53.9665C186.477 55.3956 185.466 56.3231 184.076 56.8906C181.933 57.7654 179.798 58.6588 177.659 59.5431C174.956 60.6606 172.255 61.7827 169.546 62.8842C169.298 62.9849 168.995 62.9507 168.724 62.9786C168.492 61.8924 169.463 60.2548 170.54 59.8182C172.763 58.917 174.983 58.0097 177.197 57.087C179.626 56.0749 182.045 55.0427 184.521 54.0169Z" fill="white"/>
<path d="M40.6475 55.7593C40.8809 55.5247 41.0583 55.2916 41.2858 55.1281C41.6752 54.8482 42.0298 54.8081 42.431 55.2193C43.3752 56.1869 44.3543 57.1234 45.3622 58.0245C45.7127 58.3378 45.7062 58.5802 45.4311 58.8614C44.5745 59.7371 43.7475 60.6523 42.8068 61.4283C42.5266 61.6595 41.7444 61.681 41.4769 61.4577C40.4827 60.6274 39.5925 59.669 38.6939 58.7294C38.3383 58.3575 38.4296 57.957 38.7996 57.5993C39.4132 57.0061 40.0101 56.3955 40.6475 55.7593Z" fill="white"/>
<path d="M105.016 58.7271C105.235 58.3027 105.414 57.8986 105.682 57.5655C106.299 56.7965 106.957 56.0596 107.604 55.3145C107.925 54.9454 108.262 54.9405 108.596 55.3034C109.56 56.3514 110.651 57.2402 111.867 57.986C111.999 58.0668 112.074 58.5221 111.976 58.6514C111.213 59.6534 110.443 60.6576 109.575 61.5668C109.352 61.8008 108.681 61.8801 108.38 61.7204C107.041 61.0102 105.764 60.1847 105.016 58.7271Z" fill="white"/>
<path d="M268.439 66.7394C267.778 66.1815 267.14 65.6708 266.547 65.1116C265.816 64.4218 265.835 64.0923 266.489 63.3375C267.19 62.5283 267.888 61.7142 268.547 60.8715C268.886 60.4395 269.242 60.4656 269.554 60.7835C270.534 61.7847 271.54 62.7444 272.756 63.4663C272.936 63.5729 273.024 63.8335 273.123 63.9781C272.32 64.9483 271.539 65.8618 270.794 66.8034C270.306 67.4201 269.728 67.4223 269.074 67.1191C268.866 67.0229 268.678 66.8843 268.439 66.7394Z" fill="white"/>
<path d="M204.346 65.553C204.904 64.9939 205.428 64.466 205.955 63.942C206.461 63.439 206.877 63.5105 207.375 64.0248C208.178 64.8547 209.015 65.656 209.887 66.4123C210.531 66.9708 210.579 67.0752 209.987 67.6675C209.199 68.4563 208.413 69.2468 207.621 70.0323C207.23 70.4208 206.599 70.4666 206.193 70.0778C205.313 69.2364 204.467 68.3594 203.602 67.5027C203.146 67.0507 203.223 66.6399 203.662 66.2325C203.886 66.0246 204.097 65.8019 204.346 65.553Z" fill="white"/>
<path d="M339.469 65.3631C340.311 65.8636 340.352 66.1074 339.722 66.738C339.088 67.3722 338.406 67.9664 337.832 68.6503C337.182 69.4237 336.462 69.5703 335.625 68.8318C334.795 68.1001 334.094 67.2236 333.303 66.4453C332.861 66.0109 333.098 65.6392 333.379 65.3404C334.216 64.4483 335.071 63.5678 335.987 62.7595C336.176 62.5921 336.79 62.6128 336.982 62.7909C337.845 63.5883 338.626 64.4739 339.469 65.3631Z" fill="white"/>
<path d="M378.957 95.0588C378.352 95.6651 377.764 96.223 377.214 96.8169C376.77 97.297 376.216 97.2744 375.823 96.9449C374.854 96.1341 373.947 95.2443 373.068 94.3361C372.694 93.9506 372.752 93.4856 373.172 93.0795C373.975 92.3043 374.752 91.5027 375.545 90.7168C375.992 90.2731 376.485 90.293 376.856 90.7971C377.623 91.8392 378.516 92.744 379.603 93.4559C379.977 93.701 379.944 94.0246 379.684 94.3285C379.471 94.577 379.223 94.7946 378.957 95.0588Z" fill="white"/>
</svg>
