<svg width="430" height="143" viewBox="0 0 430 143" fill="none" xmlns="http://www.w3.org/2000/svg">
<path d="M136.47 86.3523C135.219 86.3837 134.016 86.5256 132.836 86.4157C131.572 86.298 130.469 85.6255 129.509 84.8169C129.03 84.413 128.707 83.8239 128.315 83.3171C128.224 83.1992 128.136 83.078 128.054 82.9538C127.295 81.8098 127.02 81.7436 125.883 82.4232C123.397 83.9082 120.756 85.0322 117.929 85.6708C117.034 85.8732 116.092 85.9012 115.169 85.9482C114.293 85.9927 113.412 85.9815 112.534 85.9528C110.704 85.8929 109.132 85.1386 107.676 84.0941C107.435 83.9216 107.199 83.7431 106.867 83.4981C106.711 83.9038 106.596 84.2565 106.442 84.591C106.02 85.5077 105.623 86.4401 105.136 87.3224C104.607 88.2815 103.676 88.6064 102.631 88.7235C100.507 88.9613 98.867 87.9541 97.3718 86.6601C96.9114 86.2617 96.716 86.3783 96.3781 86.7276C94.8977 88.2581 93.0398 88.7935 90.9772 88.5719C88.6297 88.3196 86.5163 87.3553 84.6197 86.0121C83.6474 85.3236 82.9197 85.1798 81.7853 85.7223C79.852 86.6468 77.7827 87.2875 75.7785 88.0675C75.6071 88.1342 75.4262 88.3282 75.3654 88.5031C74.4187 91.2281 73.5311 93.9743 72.5424 96.6839C72.0331 98.0798 71.3956 99.4348 70.7378 100.77C69.6342 103.01 67.8896 104.625 65.7003 105.821C64.0784 106.707 62.3743 107.129 60.5381 107.268C56.4399 107.578 52.5447 106.819 48.7914 105.235C47.6453 104.752 46.5409 104.168 45.4271 103.611C45.0004 103.397 44.5884 103.113 44.7185 102.544C44.8085 102.151 45.5675 101.888 46.0861 102.046C47.0542 102.341 48.0182 102.649 48.9809 102.962C51.3697 103.736 53.8342 104.011 56.3168 103.806C58.3662 103.637 60.4058 103.247 62.2819 102.335C64.9176 101.054 66.9278 99.0696 68.5005 96.6284C70.0239 94.2637 71.4578 91.8498 72.4877 89.0839C72.2389 89.1527 72.0486 89.1855 71.8742 89.2569C71.1603 89.5494 70.5552 89.4495 70.2445 88.7806C69.7683 87.7552 69.3838 86.6795 69.0686 85.5939C69.0014 85.3623 69.3311 84.8217 69.5923 84.7221C70.9499 84.2043 72.3609 83.8267 73.7231 83.3193C76.7066 82.208 79.6725 81.0496 82.6441 79.9065C83.2526 79.6724 83.8466 79.3986 84.4619 79.1849C84.9442 79.0175 85.3475 79.1061 85.3641 79.7287C85.382 80.4046 85.3942 81.0828 85.3579 81.7573C85.3355 82.1759 85.4767 82.3442 85.8807 82.4803C88.0183 83.2006 90.1977 83.6296 92.4591 83.4516C93.7484 83.35 94.85 82.7683 95.8088 81.9146C97.245 80.6359 98.3023 79.1191 98.8173 77.2434C98.8968 76.9541 99.0993 76.6561 99.3288 76.4598C99.6837 76.1563 100.167 76.3907 100.108 76.8462C99.9536 78.0478 99.747 79.2438 99.5253 80.4354C99.4272 80.9626 99.2427 81.4738 99.0616 82.1199C100.497 82.5727 101.889 83.0533 103.307 83.4431C104.13 83.6694 105.185 82.8311 105.513 81.7075C105.949 80.2095 106.298 78.6861 106.725 77.185C106.818 76.8568 107.023 76.5113 107.278 76.2887C107.706 75.9148 108.26 76.1414 108.272 76.7075C108.288 77.4549 108.167 78.2044 108.128 78.9543C108.121 79.11 108.167 79.3524 108.273 79.4178C110.396 80.7256 112.684 81.4159 115.205 81.518C117.647 81.6169 119.925 81.1264 122.124 80.1604C122.777 79.8734 123.37 79.449 124.073 79.0396C122.822 78.1103 121.528 77.4628 120.098 77.1747C119.258 77.0052 118.371 77.0377 117.505 77.0346C117.202 77.0334 116.898 77.1956 116.596 77.2866C116.2 77.4059 115.804 77.5285 115.377 77.6591C115.044 76.83 115.18 76.1234 115.538 75.5142C116.686 73.5646 118.073 71.8412 120.194 70.8316C122.168 69.892 124.221 69.8105 126.35 70.0343C128.121 70.2206 129.729 70.8446 131.263 71.6634C132.2 72.1642 133.263 72.6205 133.582 73.8104C133.998 75.3672 133.483 76.6904 132.513 77.8934C131.962 78.5774 131.422 79.2708 130.906 79.923C132.19 80.624 133.811 81.4411 135.742 81.3651C136.994 81.3158 138.1 80.9006 139.135 80.2278C139.856 79.7594 139.653 79.0394 139.629 78.3957C139.604 77.7361 139.462 77.0813 139.382 76.4231C139.16 74.5948 138.937 72.7666 138.727 70.9369C138.583 69.6791 138.477 68.4167 138.322 67.1603C138.178 65.9954 137.981 64.8371 137.827 63.6732C137.673 62.5055 137.554 61.3331 137.402 60.1651C137.253 59.0219 137.079 57.8819 136.921 56.7398C136.772 55.6601 136.635 54.5788 136.481 53.4997C136.272 52.0209 136.039 50.5452 135.84 49.0649C135.684 47.897 135.568 46.7238 135.428 45.5536C135.222 43.819 134.798 42.1498 133.921 40.6185C133.815 40.435 133.731 40.2397 133.625 40.0566C133.315 39.5197 133.29 39.0458 133.703 38.5009C134.484 37.4695 135.182 36.3763 135.926 35.3165C136.035 35.1611 136.204 35.0473 136.415 34.8483C136.652 35.2274 136.908 35.5074 137.019 35.8362C137.604 37.5639 138.671 39.0171 139.653 40.5165C140.599 41.9602 140.59 42.2896 139.408 43.5418C139.303 43.6533 139.207 43.7843 139.081 43.8637C137.894 44.6059 138.061 45.69 138.27 46.8252C138.466 47.8957 138.562 48.9841 138.725 50.0612C139.016 51.9783 139.337 53.891 139.621 55.809C139.785 56.9094 139.892 58.018 140.043 59.1204C140.204 60.3043 140.407 61.4829 140.557 62.6681C140.713 63.9025 140.825 65.1424 140.963 66.3792C141.134 67.9131 141.319 69.4455 141.481 70.9803C141.55 71.6242 141.599 72.272 141.616 72.9191C141.672 75.0328 141.797 77.1496 141.731 79.2601C141.637 82.3033 140.263 84.637 137.488 86.0482C137.193 86.1982 136.85 86.2531 136.47 86.3523Z" fill="white"/>
<path d="M240.031 63.7455C239.721 61.4069 240.664 59.42 241.505 57.4196C241.603 57.1867 241.981 57.0257 242.263 56.9444C242.341 56.9216 242.602 57.2832 242.669 57.5021C243.289 59.5127 243.254 61.5595 243.087 63.6371C242.944 65.3975 242.495 67.0532 241.88 68.6892C241.366 70.0555 240.434 71.1181 239.315 71.9636C238.452 72.6148 237.358 72.3679 236.381 72.1032C234.847 71.6875 233.373 71.0916 232.076 70.1567C231.723 69.9025 231.536 69.958 231.261 70.1924C229.672 71.5477 227.815 72.2594 225.744 72.4142C224.704 72.4919 223.658 72.5533 222.617 72.5366C221.825 72.524 221.037 72.3636 220.245 72.2974C220.044 72.2806 219.803 72.321 219.632 72.4222C218.02 73.3783 216.269 73.742 214.408 73.8931C211.798 74.1048 209.482 73.3341 207.356 71.992C206.272 71.3083 205.39 70.304 204.435 69.4248C204.162 69.1739 204.016 69.0966 203.626 69.3345C201.533 70.6117 199.682 72.1784 198.006 73.9462C195.124 76.986 193.449 80.6424 192.597 84.7103C192.218 86.5212 191.979 88.3357 191.927 90.1917C191.843 93.2116 192.176 96.1232 193.657 98.8183C194.883 101.05 196.665 102.674 198.929 103.853C200.813 104.835 202.815 105.395 204.873 105.783C205.885 105.974 206.931 106.006 207.965 106.06C209.336 106.132 210.71 106.21 212.081 106.185C214.015 106.15 215.948 106.047 217.879 105.928C219.386 105.835 220.891 105.7 222.392 105.535C224.546 105.298 226.695 105.008 228.848 104.76C230.174 104.607 231.503 104.475 232.833 104.369C233.187 104.341 233.557 104.424 233.911 104.494C234.624 104.634 234.727 104.883 234.368 105.519C233.934 106.29 233.154 106.607 232.396 106.835C228.776 107.927 225.146 108.985 221.504 110C219.689 110.506 217.849 110.926 216.007 111.322C214.902 111.56 213.778 111.743 212.653 111.835C210.901 111.979 209.139 112.131 207.385 112.091C203.821 112.01 200.41 111.18 197.343 109.331C194.979 107.906 193.123 105.937 191.776 103.494C190.544 101.26 189.851 98.8789 189.419 96.3784C189.027 94.1152 188.955 91.8434 189.073 89.5762C189.215 86.8329 189.816 84.1593 190.612 81.5192C191.679 77.983 193.361 74.7557 195.404 71.7163C196.713 69.7692 198.21 67.9474 199.634 66.0532C198.128 64.4533 196.719 64.2868 194.894 65.4763C194.661 65.6278 194.471 65.8488 194.23 65.9807C194.025 66.0927 193.713 66.2384 193.562 66.1576C193.395 66.0679 193.242 65.7148 193.283 65.5172C193.456 64.674 193.656 63.8302 193.932 63.0153C194.52 61.2752 195.498 59.7874 197.041 58.7377C198.341 57.8532 199.821 57.4119 201.359 57.1791C203.92 56.7915 206.421 57.0155 208.772 58.1506C209.872 58.6814 211.114 59.2133 211.339 60.5933C211.456 61.3108 211.294 62.1195 211.081 62.8344C210.744 63.9635 210.394 65.1237 209.437 65.9376C209.116 66.2115 208.762 66.4483 208.397 66.7218C209.964 67.784 211.703 68.3929 213.518 68.7191C215.42 69.061 217.316 68.9796 219.159 68.2372C220.706 67.6144 221.914 66.5833 222.889 65.2915C223.535 64.435 224.019 63.4563 224.574 62.5316C224.683 62.3504 224.743 62.0871 224.902 62.0012C225.144 61.8699 225.461 61.798 225.728 61.834C225.815 61.8457 225.948 62.3022 225.888 62.5042C225.366 64.2564 224.805 65.9968 224.239 67.7948C226.051 68.3077 228.024 68.5192 229.895 67.5321C231.01 66.9437 231.814 65.9278 232.407 64.8244C232.973 63.7727 233.409 62.6498 233.87 61.5449C234.156 60.8598 234.635 60.4471 235.063 60.6037C235.504 60.7649 235.744 61.4535 235.58 62.0961C235.283 63.2603 234.984 64.424 234.64 65.7699C236.365 66.2234 238.146 66.6914 240.031 67.1868C240.031 65.9466 240.031 64.8789 240.031 63.7455Z" fill="white"/>
<path d="M354.085 88.4101C354.729 87.2617 355.344 86.1528 355.962 85.0463C356.133 84.7402 356.102 84.5927 355.773 84.3356C354.34 83.2184 353.231 81.8046 353.242 79.9281C353.249 78.8419 353.675 77.7449 354 76.6794C354.169 76.1239 354.507 75.6129 354.814 75.1099C354.909 74.9556 355.178 74.7892 355.327 74.8199C355.476 74.8508 355.658 75.1082 355.686 75.2878C356.038 77.5809 357.44 79.0659 359.37 80.1767C361.574 81.4449 363.962 82.2254 366.426 82.747C367.889 83.0566 369.394 83.2167 370.889 83.3105C372.806 83.4307 374.732 83.4899 376.651 83.4354C377.994 83.3972 379.337 83.1599 380.67 82.9502C385.037 82.2635 389.233 80.9323 393.403 79.5151C394.317 79.2047 395.213 78.8442 396.117 78.5067C396.124 78.4242 396.13 78.3416 396.137 78.2591C393.859 77.6283 391.608 76.8631 389.296 76.4078C387.307 76.0163 385.255 75.9282 383.209 76.2178C381.594 76.4465 379.967 76.6039 378.341 76.7463C377.669 76.8051 377.498 76.4934 377.844 75.9319C378.588 74.7246 379.273 73.4681 380.144 72.3585C380.501 71.9037 381.253 71.6403 381.868 71.5271C383.488 71.2294 385.126 71.0126 386.766 70.8554C388.704 70.6695 390.652 70.5848 392.595 70.4437C392.93 70.4193 393.262 70.3325 393.71 70.2545C393.596 68.9506 393.529 67.6381 393.355 66.3398C393.146 64.7797 392.858 63.2296 392.583 61.6789C392.26 59.8591 391.905 58.045 391.583 56.2251C391.331 54.7995 391.074 53.3734 390.881 51.9393C390.51 49.1843 390.295 46.3933 388.89 43.8987C388.601 43.3856 388.935 43.0556 389.138 42.6791C389.666 41.6975 390.207 40.7228 390.741 39.7444C390.791 39.6527 390.805 39.5306 390.875 39.4622C391.161 39.181 391.463 38.915 391.759 38.6434C391.992 38.9529 392.3 39.231 392.445 39.5772C393.207 41.4022 394.204 43.0907 395.316 44.7197C396.021 45.7538 395.854 45.8464 395.144 46.7844C394.903 47.1028 394.532 47.3225 394.225 47.592C393.728 48.0283 393.706 48.6036 393.787 49.1929C393.948 50.3763 394.125 51.5576 394.299 52.7394C394.516 54.2172 394.749 55.6927 394.949 57.1727C395.145 58.6151 395.301 60.0626 395.486 61.5065C395.683 63.0544 395.904 64.5994 396.096 66.1479C396.392 68.5201 396.429 70.8497 394.846 72.8942C397.123 74.0039 399.496 74.7906 401.997 75.1815C403.938 75.4849 405.871 75.8523 407.821 76.0805C409.369 76.2616 410.938 76.261 412.496 76.3709C413.024 76.4081 413.544 76.5418 414.069 76.6217C414.634 76.7076 414.701 76.994 414.476 77.4744C414.002 78.4858 413.56 79.5114 413.101 80.5295C413.04 80.6648 412.902 80.7882 412.896 80.9215C412.865 81.5764 412.4 81.5469 411.981 81.4767C411.123 81.3331 410.276 81.1249 409.422 80.9601C407.926 80.6718 406.434 80.6676 404.909 80.8025C402.899 80.9804 400.927 81.3246 399.008 81.8985C396.665 82.599 394.312 83.31 392.049 84.2266C389.009 85.4578 385.933 86.5648 382.757 87.3572C381.107 87.7687 379.401 88.0128 377.706 88.1704C375.353 88.3889 372.984 88.6014 370.627 88.5508C367.377 88.4811 364.137 88.12 361.042 87.0046C360.269 86.7262 359.516 86.3913 358.699 86.0596C358.504 86.5635 358.321 87.0618 358.12 87.553C357.035 90.2114 355.658 92.7353 353.901 94.9827C352.066 97.3294 349.674 98.9817 346.58 99.3699C344.846 99.5875 343.138 99.4841 341.409 99.2518C337.732 98.7581 334.466 97.2774 331.4 95.2888C331.157 95.1313 330.953 94.6979 330.982 94.4186C331 94.2455 331.503 93.9819 331.769 94.0031C332.394 94.053 333.032 94.1835 333.623 94.3977C336.364 95.3921 339.191 95.8836 342.093 95.6619C344.664 95.4654 347.194 95.0323 349.379 93.458C351.186 92.1561 352.639 90.5452 353.857 88.7022C353.916 88.6131 353.99 88.5341 354.085 88.4101Z" fill="white"/>
<path d="M294.966 82.4839C294.738 80.6874 294.535 78.9464 294.272 77.2146C294.058 75.8074 293.774 74.4108 293.516 73.0104C293.128 70.9001 292.723 68.7929 292.349 66.6801C292.018 64.815 291.729 62.9427 291.407 61.0762C290.933 58.3315 290.432 55.5913 289.972 52.8442C289.831 51.9992 289.856 51.1229 289.676 50.2888C289.51 49.5192 289.27 48.7307 288.886 48.0497C287.949 46.3891 287.938 45.2631 289.1 43.7547C289.615 43.086 290.025 42.3378 290.492 41.6318C290.827 41.1261 291.145 41.1111 291.435 41.6402C291.718 42.1541 291.865 42.7425 292.155 43.2511C292.688 44.1875 293.244 45.1159 293.861 45.9992C294.769 47.3009 294.786 48.1288 293.81 49.5852C293.774 49.639 293.722 49.6824 293.677 49.7308C292.605 50.8995 292.683 52.2044 293.041 53.6482C293.479 55.4188 293.707 57.2407 294.048 59.0362C294.325 60.4947 294.652 61.944 294.928 63.4028C295.263 65.1779 295.561 66.9602 295.891 68.7364C296.209 70.4478 296.563 72.1526 296.872 73.8654C297.096 75.1021 297.282 76.3457 297.467 77.5888C297.81 79.8953 297.129 82.062 296.484 84.219C296.141 85.3644 295.665 86.4718 295.215 87.5825C294.963 88.2041 294.438 88.4265 293.778 88.4623C291.9 88.5641 290.132 88.0615 288.374 87.5184C287.96 87.3904 287.599 87.0903 287.177 86.8482C286.125 88.6195 284.643 89.9426 282.757 90.6813C280.994 91.372 279.163 91.9287 277.321 92.3738C275.091 92.9127 272.831 93.3833 270.558 93.6779C268.392 93.9584 266.183 94.166 264.01 94.0599C261.046 93.9152 258.282 93.0303 255.882 91.1091C254.53 90.0269 253.346 88.8226 252.603 87.3097C252.038 86.1575 251.706 84.8418 251.527 83.5631C251.295 81.8964 251.334 80.1933 251.223 78.508C251.115 76.8519 250.987 75.1964 250.828 73.5445C250.632 71.5153 250.384 69.4913 250.179 67.463C250.029 65.986 249.937 64.503 249.773 63.0279C249.583 61.3271 249.337 59.6327 249.125 57.9344C248.941 56.4684 248.791 54.998 248.587 53.5349C248.405 52.2282 248.061 50.9338 248.001 49.6244C247.968 48.8898 248.349 48.1298 248.58 47.3926C248.723 46.9337 248.903 46.4791 249.13 46.0565C249.234 45.8645 249.482 45.6575 249.681 45.6394C249.833 45.6256 250.061 45.8679 250.171 46.0474C251.006 47.4078 251.343 48.9437 251.61 50.482C251.971 52.5627 252.269 54.6559 252.534 56.7514C252.687 57.9701 252.709 59.2049 252.812 60.4306C252.977 62.404 253.168 64.3752 253.332 66.3486C253.399 67.1465 253.425 67.9478 253.468 68.7477C253.6 71.2348 253.725 73.7223 253.866 76.2089C253.939 77.5027 254.006 78.7982 254.136 80.0869C254.284 81.5585 254.834 82.8991 255.566 84.1829C257.018 86.7281 259.44 87.7894 262.102 88.4411C264.257 88.9687 266.473 89.1184 268.679 88.9626C272.216 88.7127 275.707 88.1845 279.095 87.0513C281.268 86.3244 283.466 85.6706 285.298 84.2399C286.251 83.4951 287.086 82.6001 288.008 81.8122C288.217 81.633 288.567 81.6164 288.852 81.525C288.899 81.8077 288.993 82.0922 288.982 82.3727C288.971 82.6608 288.858 82.945 288.752 83.3876C290.005 83.5875 291.255 83.7897 292.506 83.9843C292.819 84.0329 293.143 84.1177 293.449 84.0809C294.345 83.9734 294.841 83.4305 294.966 82.4839Z" fill="white"/>
<path d="M49.1226 79.3061C47.4504 78.6362 46.6519 77.3957 46.3613 75.7121C46.0011 73.6255 46.5003 71.7029 47.288 69.8041C47.8983 68.3329 48.7401 67.029 49.8338 65.8657C51.2177 64.3938 52.659 64.3034 54.3258 65.4392C55.5095 66.2459 56.3173 67.3803 57.0377 68.5813C58.3283 70.733 59.1055 73.0873 59.3886 75.5538C59.7669 78.8491 59.2685 82.0568 57.9406 85.1211C57.0003 87.291 55.651 89.192 54.0782 90.9338C53.1475 91.9644 52.1573 92.9498 51.1187 93.8713C50.6442 94.2924 50.0089 94.5583 49.4111 94.8115C47.4532 95.6406 45.4373 96.3012 43.3027 96.4628C41.507 96.5987 39.695 96.807 37.9077 96.6977C35.2778 96.5368 32.6628 96.1276 30.0436 95.8066C29.7831 95.7747 29.4929 95.6738 29.2975 95.5092C29.1029 95.3452 28.8509 95.0024 28.9097 94.8425C29.0007 94.5947 29.3284 94.2763 29.5661 94.2676C30.4536 94.235 31.345 94.3381 32.2355 94.3502C33.8811 94.3727 35.5345 94.4651 37.171 94.3443C38.7175 94.2301 40.2809 94.0075 41.776 93.6066C44.9501 92.7554 47.7446 91.1295 50.2989 89.0773C52.4067 87.3838 54.0395 85.2937 55.4346 83.007C56.1587 81.8201 56.782 80.5811 57.0592 79.1597C54.4027 79.5241 51.7924 79.9873 49.1226 79.3061ZM51.3737 70.1882C50.9468 70.5053 50.4098 70.743 50.1126 71.1535C49.0094 72.6769 49.0131 73.986 50.9677 74.3296C52.4616 74.5922 54.0391 74.3818 55.631 74.3818C55.5809 74.1949 55.5759 74.0813 55.5239 73.9966C54.7196 72.6869 53.7571 71.5081 52.5168 70.5881C52.2302 70.3754 51.8294 70.3158 51.3737 70.1882Z" fill="white"/>
<path d="M178.151 84.8185C177.713 86.2617 177.42 87.7022 176.877 89.0416C176.024 91.1474 174.641 92.952 173.14 94.642C172.189 95.7127 171.161 96.7255 170.088 97.6742C169.545 98.1545 168.86 98.5275 168.177 98.7887C165.991 99.6252 163.741 100.268 161.39 100.404C159.626 100.506 157.846 100.64 156.092 100.513C153.703 100.341 151.328 99.9529 148.953 99.6158C148.123 99.498 147.941 99.2119 147.952 98.3652C148.906 97.8215 149.947 98.0878 150.966 98.1064C152.848 98.1406 154.737 98.2686 156.61 98.1518C158.086 98.0598 159.582 97.7892 160.996 97.3594C162.501 96.9021 163.974 96.264 165.36 95.5196C166.682 94.8101 167.894 93.8875 169.121 93.012C170.587 91.9653 171.768 90.6166 172.809 89.1692C173.71 87.9178 174.517 86.5941 175.288 85.258C175.657 84.6177 175.848 83.8747 176.176 83.0338C175.355 83.0993 174.737 83.1551 174.118 83.1968C172.757 83.2884 171.394 83.4584 170.035 83.4373C168.569 83.4146 167.181 83.047 166.216 81.7817C165.517 80.8648 165.238 79.7917 165.218 78.6877C165.164 75.5872 166.27 72.863 168.179 70.4652C168.669 69.8495 169.313 69.3183 169.975 68.8844C171.139 68.1225 172.252 68.5804 173.285 69.2559C174.542 70.0782 175.336 71.3046 176.081 72.564C177.314 74.6494 178.01 76.9291 178.354 79.3016C178.586 80.9006 178.61 82.5259 178.252 84.1286C178.205 84.3372 178.205 84.5563 178.151 84.8185ZM168.498 77.2873C168.872 77.5487 169.211 77.915 169.627 78.053C171.245 78.5903 172.896 78.3174 174.595 78.1713C174.528 77.9831 174.513 77.8217 174.428 77.7182C173.595 76.7092 172.766 75.6972 171.9 74.7164C171.669 74.454 171.333 74.2701 171.021 74.0944C170.366 73.7264 169.94 74.2449 169.481 74.5507C168.712 75.0625 168.215 76.4331 168.498 77.2873Z" fill="white"/>
<path d="M29.2287 84.3785C30.9058 83.5618 32.4961 82.7052 33.792 81.385C35.099 80.0535 36.1834 78.5829 36.7174 76.7839C36.8338 76.3916 36.7041 75.8797 36.5626 75.4654C35.3313 71.8601 33.7179 68.4287 31.7804 65.1471C31.6795 64.9763 31.5983 64.7375 31.6322 64.553C31.8734 63.2399 32.1312 61.9292 32.4241 60.6267C32.4806 60.3757 32.6666 60.054 32.8792 59.9608C33.2059 59.8176 33.4986 59.9595 33.7019 60.3501C34.4732 61.8318 35.3091 63.2798 36.0887 64.7573C37.1179 66.708 37.9487 68.7386 38.3137 70.926C38.6634 73.0216 38.8946 75.1425 38.7066 77.2588C38.5324 79.2176 38.2163 81.2042 37.2438 82.9395C36.6662 83.9701 35.8096 84.8877 34.9322 85.6987C33.5401 86.9854 31.9257 87.9846 30.1886 88.7695C28.5003 89.5323 26.7528 90.0944 24.9028 90.2921C23.9169 90.3975 22.9243 90.5687 21.9404 90.537C20.0195 90.475 18.1046 90.2839 16.3287 89.4375C13.8918 88.2761 12.358 86.3795 11.7293 83.7667C11.3147 82.0438 10.9964 80.2778 11.2296 78.5224C11.4998 76.4886 11.956 74.4736 12.4391 72.4763C12.6633 71.5495 13.1349 70.681 13.5085 69.792C13.6978 69.3418 14.1518 69.2509 14.4505 69.4795C14.6579 69.6382 14.7565 70.1484 14.6751 70.4375C14.2705 71.8743 13.6627 73.2637 13.364 74.7184C12.8085 77.4236 13.1924 79.9708 15.0002 82.2173C16.033 83.5006 17.3649 84.2086 18.859 84.8051C20.614 85.506 22.4199 85.695 24.2404 85.5317C25.9211 85.3811 27.6148 85.1179 29.2287 84.3785Z" fill="white"/>
<path d="M327.324 86.716C327.035 86.8639 326.801 87.024 326.541 87.0933C326.349 87.1447 326.066 87.15 325.933 87.0418C325.826 86.9551 325.825 86.6489 325.879 86.4712C326.1 85.7474 326.33 85.0231 326.62 84.3253C326.736 84.0466 326.974 83.7721 327.229 83.6055C328.165 82.9932 329.132 82.4269 330.088 81.8424C329.077 81.195 328.066 80.5306 327.038 79.8944C325.7 79.0666 325.377 77.2933 326.266 75.9793C328.007 73.4052 330.165 71.2157 332.824 69.5788C334.197 68.7335 335.734 68.4174 337.139 69.433C337.994 70.0512 339.064 70.7687 338.801 72.0692C338.652 72.8048 338.195 73.4958 337.794 74.157C337.53 74.5921 337.135 74.9533 336.771 75.3206C336.327 75.7688 335.868 75.6666 335.525 75.1287C335.06 74.4013 334.676 73.5942 333.79 73.2409C333.207 73.0086 332.626 72.8775 332.057 73.232C331.481 73.591 330.922 73.9774 330.367 74.3674C329.845 74.7334 329.872 75.2612 330.196 75.6739C331.445 77.2669 333.033 78.3398 335.094 78.5966C335.839 78.6894 336.586 78.8509 337.329 78.8385C338.137 78.8251 338.941 78.6453 339.747 78.5387C340.595 78.4264 341.442 78.3045 342.292 78.2072C342.775 78.1519 342.888 78.3775 342.642 78.7768C342.12 79.6238 341.512 80.4277 341.083 81.3184C340.721 82.072 340.056 82.0524 339.47 82.1228C337.706 82.3346 336.01 82.79 334.388 83.4752C332.074 84.4529 329.798 85.5195 327.507 86.5515C327.451 86.5768 327.414 86.6424 327.324 86.716Z" fill="white"/>
<path d="M148.298 42.0191C148.65 40.8817 148.955 39.789 149.299 38.7087C149.344 38.5665 149.617 38.3773 149.736 38.4066C149.9 38.447 150.1 38.6562 150.138 38.826C150.275 39.4263 150.368 40.0383 150.444 40.65C150.672 42.4764 150.882 44.3049 151.103 46.1323C151.277 47.5767 151.441 49.0225 151.637 50.464C151.833 51.9002 152.076 53.3301 152.275 54.7659C152.431 55.8893 152.541 57.019 152.69 58.1434C152.841 59.2855 153.024 60.4234 153.177 61.5652C153.331 62.71 153.469 63.8569 153.608 65.0036C153.786 66.4701 153.965 67.9366 154.129 69.4046C154.194 69.9827 154.236 70.5642 154.265 71.1454C154.319 72.2288 154.366 73.3128 154.397 74.3971C154.45 76.2252 154.583 78.0578 154.504 79.8808C154.428 81.6179 154.451 83.3986 153.729 85.044C153.617 85.3008 153.323 85.4786 153.113 85.693C152.943 85.4694 152.676 85.2666 152.622 85.0179C152.5 84.4545 152.458 83.8699 152.428 83.2916C152.328 81.3433 152.297 79.3902 152.146 77.446C151.986 75.3723 151.746 73.3037 151.494 71.2386C151.266 69.3743 150.966 67.5188 150.715 65.6573C150.44 63.6243 150.197 61.5871 149.916 59.5549C149.672 57.7802 149.371 56.0131 149.139 54.2369C148.929 52.6217 148.778 50.9988 148.603 49.379C148.426 47.7372 148.206 46.0981 148.096 44.4518C148.043 43.6643 148.201 42.8628 148.298 42.0191Z" fill="white"/>
<path d="M307.384 54.3603C307.743 56.5169 308.058 58.6246 308.409 60.7263C308.737 62.698 309.127 64.6596 309.447 66.6327C309.744 68.4654 310.019 70.3032 310.239 72.1465C310.498 74.3213 310.761 76.5003 310.887 78.6853C311.02 81.0133 311.069 83.3524 311.006 85.6827C310.976 86.7884 310.627 87.8909 310.361 88.98C310.309 89.1909 309.986 89.4467 309.765 89.4699C309.593 89.488 309.277 89.2115 309.215 89.0083C309.062 88.5052 308.984 87.9722 308.937 87.4457C308.747 85.2998 308.606 83.1493 308.396 81.0054C308.215 79.1515 308.005 77.2984 307.734 75.4556C307.431 73.3927 307.033 71.3438 306.699 69.285C306.416 67.538 306.177 65.784 305.898 64.0362C305.612 62.2494 305.294 60.4679 305.007 58.6813C304.848 57.6903 304.724 56.6936 304.583 55.6996C304.409 54.4735 304.137 53.2518 304.084 52.0205C304.017 50.4747 303.886 48.902 304.426 47.3917C304.646 46.7781 304.84 46.1538 305.101 45.5581C305.171 45.3984 305.438 45.2444 305.62 45.2388C305.768 45.2343 306.011 45.4282 306.058 45.5811C306.218 46.1041 306.342 46.6432 306.422 47.1846C306.74 49.3172 307.038 51.4527 307.335 53.5882C307.368 53.8247 307.349 54.0684 307.384 54.3603Z" fill="white"/>
<path d="M416.56 69.8252C416.428 68.8781 416.295 67.9917 416.168 67.1043C415.999 65.9205 415.828 64.7371 415.672 63.5515C415.561 62.7014 415.472 61.8484 415.378 60.9962C415.2 59.3972 414.985 57.801 414.863 56.1977C414.726 54.4048 414.585 52.6039 414.616 50.8094C414.64 49.4751 415.107 48.1942 415.792 47.0312C415.905 46.8403 416.246 46.6788 416.471 46.6922C416.641 46.7024 416.898 46.9913 416.936 47.1907C417.073 47.9023 417.143 48.6275 417.219 49.3496C417.4 51.0796 417.57 52.8108 417.744 54.5415C417.833 55.4177 417.908 56.2955 418.015 57.1693C418.176 58.4848 418.369 59.7965 418.532 61.1117C418.677 62.2817 418.788 63.4559 418.937 64.6254C419.094 65.8542 419.289 67.0781 419.444 68.307C419.557 69.2012 419.67 70.098 419.717 70.9971C419.868 73.8773 420.112 76.7605 420.079 79.6398C420.054 81.7822 420.01 83.971 419.203 86.0284C419.119 86.2409 419.061 86.4818 418.918 86.6471C418.778 86.8092 418.507 87.0215 418.362 86.9792C418.129 86.9111 417.866 86.6878 417.771 86.4643C417.643 86.1629 417.632 85.7999 417.623 85.4619C417.603 84.7616 417.639 84.0594 417.612 83.3595C417.537 81.3871 417.489 79.4119 417.34 77.4445C417.177 75.2822 416.915 73.1274 416.693 70.9696C416.656 70.6076 416.606 70.2468 416.56 69.8252Z" fill="white"/>
<path d="M335.546 53.2266C335.411 53.6147 335.369 53.8215 335.776 54.1055C336.332 54.4926 336.949 55.0282 337.142 55.6277C337.327 56.2007 337.055 56.9504 336.891 57.5989C336.531 59.0164 336.331 59.1664 335.243 58.0036C334.84 57.5726 334.373 57.2014 334.003 56.8649C333.066 58.104 332.279 59.2874 331.347 60.3449C330.004 61.8703 328.242 62.8829 326.488 63.8581C325.086 64.6372 323.613 65.2885 322.165 65.9821C321.981 66.07 321.755 66.107 321.55 66.1043C320.964 66.0966 320.652 65.5528 321.066 65.1497C321.915 64.3228 322.834 63.5586 323.777 62.8374C325.807 61.2842 327.902 59.8123 329.908 58.2292C330.753 57.5627 331.442 56.6993 332.264 55.8618C331.323 55.1806 330.511 54.6099 329.719 54.0127C329.189 53.6136 328.626 53.2324 328.189 52.7437C327.559 52.0378 327.531 51.1496 327.8 50.2816C328.328 48.5772 329.123 47.006 330.451 45.7782C331.132 45.1491 331.821 44.5119 332.894 44.538C333.949 44.5636 334.687 45.0836 335.131 45.9146C335.973 47.4914 336.298 49.1929 335.944 50.984C335.801 51.7112 335.68 52.4429 335.546 53.2266ZM331.067 48.0336C330.974 48.127 330.879 48.2175 330.79 48.314C329.905 49.2742 329.829 49.8937 331.003 50.6212C331.778 51.1014 332.508 51.6543 333.247 52.1892C333.693 52.5118 333.795 52.1376 333.811 51.8704C333.834 51.4702 333.785 51.0525 333.689 50.6613C333.494 49.8709 333.35 49.0434 332.997 48.3228C332.526 47.36 331.833 47.2855 331.067 48.0336Z" fill="white"/>
<path d="M377.338 56.6887C377.576 56.3848 377.786 56.1191 377.963 55.8946C376.808 54.9775 375.746 54.0071 374.558 53.2272C373.462 52.5078 373.407 51.559 373.668 50.5107C374.221 48.2925 375.371 46.439 377.248 45.0765C378.572 44.1157 380.14 44.6305 380.987 46.0555C381.919 47.6233 382.118 49.3395 381.788 51.1231C381.633 51.9557 381.475 52.7878 381.336 53.623C381.316 53.7385 381.358 53.9046 381.435 53.9871C381.579 54.1397 381.773 54.2434 381.941 54.3752C383.254 55.4101 383.357 55.7524 382.835 57.3883C382.694 57.8284 382.541 58.2644 382.391 58.709C381.885 58.8915 381.549 58.6338 381.225 58.2684C380.789 57.7775 380.321 57.3157 379.818 56.7896C379.31 57.5526 378.877 58.2236 378.423 58.8805C377.256 60.5703 375.755 61.9209 373.991 62.9446C372.181 63.9948 370.322 64.9648 368.454 65.9101C368.06 66.1095 367.52 66.1474 367.072 66.0832C366.568 66.0108 366.655 65.5234 366.899 65.288C367.693 64.5224 368.507 63.7655 369.386 63.1C371.923 61.1775 374.681 59.5369 376.915 57.2278C377.062 57.0759 377.178 56.8945 377.338 56.6887ZM375.989 49.2946C375.893 49.9104 376.135 50.2851 376.691 50.6159C377.645 51.1833 378.528 51.8689 379.441 52.5049C379.511 52.4719 379.581 52.4389 379.651 52.4059C379.615 51.7826 379.561 51.1598 379.548 50.536C379.527 49.563 379.201 48.6819 378.544 48.004C378.004 47.4458 377.678 47.3284 377.017 47.9514C376.634 48.3129 376.345 48.7744 375.989 49.2946Z" fill="white"/>
<path d="M70.7731 45.6449C71.3101 45.1714 71.7707 44.6641 72.3278 44.3063C73.8651 43.3186 75.5485 44.0594 76.2743 46.0037C76.9801 47.8943 76.8987 49.8174 76.4952 51.7509C76.4352 52.0381 76.3712 52.3273 76.2734 52.6031C76.1534 52.9418 76.2048 53.1411 76.5283 53.3789C77.0158 53.7372 77.6007 54.1367 77.8075 54.653C78.0099 55.1582 77.8374 55.839 77.7424 56.4288C77.6628 56.9232 77.4577 57.3976 77.2976 57.9148C76.66 58.1791 76.4155 57.5949 76.0576 57.27C75.6114 56.8648 75.1868 56.4361 74.7685 56.0326C73.95 57.1619 73.2092 58.1681 72.4856 59.1864C71.5822 60.4578 70.3688 61.3892 69.0462 62.1511C67.199 63.2151 65.3025 64.1965 63.4002 65.1606C63.0439 65.3411 62.5598 65.323 62.1379 65.3075C61.74 65.2929 61.6274 64.6762 61.9937 64.2797C62.4175 63.8209 62.8815 63.384 63.3864 63.0177C65.5018 61.483 67.6665 60.015 69.7578 58.4488C71.0061 57.5139 72.19 56.4786 72.9889 55.079C71.7587 54.1357 70.5326 53.193 69.3039 52.2539C68.3847 51.5512 68.4137 50.5771 68.674 49.6371C69.0767 48.1834 69.7282 46.8301 70.7731 45.6449ZM73.7759 47.5153C73.1288 46.5791 72.5449 46.5795 71.9537 47.1315C71.5501 47.5083 71.2733 48.0465 71.0308 48.5557C70.9352 48.7564 70.9896 49.1803 71.143 49.3206C71.7923 49.9144 72.4943 50.4534 73.1979 50.985C73.6045 51.2923 74.0507 51.5474 74.5262 51.8567C74.7284 50.2834 74.6372 48.8769 73.7759 47.5153Z" fill="white"/>
<path d="M197.973 36.6372C198.403 36.2749 198.772 35.9021 199.203 35.6253C200.56 34.7534 201.87 35.361 202.587 36.642C203.376 38.0502 203.608 39.6061 203.296 41.224C203.128 42.0913 203.025 42.9709 202.888 43.8791C203.262 44.2017 203.801 44.5314 204.139 45.0044C204.384 45.3475 204.462 45.8866 204.434 46.327C204.4 46.8632 204.203 47.396 204.03 47.9146C203.85 48.4528 203.409 48.5401 202.991 48.1453C202.657 47.8297 202.348 47.4859 202.006 47.1804C201.806 47.0029 201.562 46.8762 201.421 46.7821C200.585 47.8737 199.854 48.9423 199.007 49.9086C197.78 51.3073 196.192 52.2618 194.581 53.1549C193.323 53.8526 192.03 54.4891 190.749 55.1454C190.582 55.231 190.381 55.3435 190.215 55.3179C189.918 55.272 189.491 55.2048 189.39 55.0076C189.291 54.8162 189.442 54.3403 189.639 54.179C190.813 53.2199 192.029 52.3122 193.236 51.3939C195.092 49.9815 197.132 48.7997 198.722 47.0547C199.093 46.6473 199.413 46.1938 199.756 45.7628C198.714 44.9311 197.767 44.0574 196.704 43.3589C195.571 42.614 195.459 41.6399 195.776 40.5061C196.181 39.0573 196.834 37.7334 197.973 36.6372ZM200.384 42.1335C200.623 42.2872 200.861 42.441 201.172 42.6416C201.122 41.4384 201.345 40.3129 200.776 39.2642C199.991 37.8199 199.526 37.6215 198.411 38.8359C198.312 38.943 198.249 39.0817 198.166 39.2031C197.635 39.9783 197.753 40.3915 198.575 40.8865C199.175 41.2472 199.737 41.6682 200.384 42.1335Z" fill="white"/>
<path d="M287.066 37.0509C286.671 39.0241 285.152 39.7735 283.572 40.4596C281.869 41.1988 280.169 41.9438 278.463 42.674C276.06 43.7026 273.651 44.7182 271.245 45.7426C269.13 46.6436 267.02 47.557 264.901 48.4482C264.209 48.7392 263.495 48.9778 262.769 49.2486C262.533 47.5705 263.658 45.9943 265.338 45.3356C267.281 44.574 269.191 43.7307 271.114 42.9178C273.444 41.9324 275.774 40.9455 278.101 39.952C279.769 39.2396 281.434 38.5183 283.098 37.7954C284.201 37.3163 285.295 36.8182 286.403 36.3512C286.612 36.263 286.866 36.2813 287.224 36.2341C287.164 36.532 287.117 36.7638 287.066 37.0509Z" fill="white"/>
<path d="M272.998 73.9634C272.666 73.6325 272.306 73.3733 272.091 73.0247C271.951 72.7973 271.886 72.3353 272.022 72.1583C272.872 71.0533 273.773 69.9856 274.69 68.9337C275.127 68.4318 275.507 68.475 276.006 68.9406C276.835 69.7132 277.679 70.47 278.584 71.2943C279.424 70.2545 280.149 69.359 280.871 68.4606C281.071 68.2115 281.218 67.8965 281.465 67.7136C281.837 67.438 282.267 67.4159 282.62 67.7997C283.617 68.8839 284.754 69.7953 286.03 70.5312C286.545 70.8286 286.605 71.1619 286.223 71.6197C285.441 72.5576 284.688 73.5197 283.9 74.4528C283.439 74.9987 282.842 75.1259 282.229 74.7379C281.312 74.1575 280.444 73.5006 279.457 72.8067C278.865 73.5105 278.232 74.2866 277.572 75.0385C277.277 75.3738 276.958 75.7044 276.595 75.9589C276.015 76.3651 275.519 75.9254 275.093 75.635C274.37 75.1421 273.715 74.5485 272.998 73.9634Z" fill="white"/>
<path d="M102.657 63.7791C101.692 64.9606 100.8 66.1436 99.7961 67.2235C99.5903 67.4451 98.8744 67.4445 98.5556 67.2631C97.7465 66.8025 97.0292 66.1816 96.2755 65.6243C96.0719 65.4737 95.8697 65.3211 95.6214 65.1355C94.9136 65.9995 94.1947 66.8179 93.5445 67.6873C92.8864 68.5673 92.4051 68.6678 91.4487 68.0912C90.2604 67.3746 89.2004 66.5114 88.3363 65.4328C88.1725 65.2283 88.0834 64.7328 88.2126 64.5632C89.1209 63.371 90.0637 62.2004 91.0712 61.0913C91.3196 60.8178 91.7997 60.901 92.1581 61.2414C92.9088 61.9542 93.7076 62.6165 94.4759 63.3113C94.7994 63.6038 94.9859 63.5041 95.2337 63.1886C96.0144 62.1948 96.8329 61.2307 97.633 60.2521C97.9516 59.8624 98.3716 59.8228 98.7309 60.1979C99.8216 61.3364 100.989 62.3693 102.401 63.1106C102.563 63.196 102.596 63.527 102.657 63.7791Z" fill="white"/>
<path d="M19.848 41.2365C24.322 39.3443 28.7524 37.4795 33.1885 35.6282C33.3174 35.5744 33.5061 35.6631 33.7239 35.6933C33.3729 36.8241 33.0021 37.8593 32.1176 38.584C31.6997 38.9264 31.207 39.2019 30.7096 39.4199C28.0631 40.5797 25.4046 41.7123 22.7499 42.8533C20.3068 43.9033 17.863 44.9514 15.4199 46.0013C14.0657 46.5832 12.7188 47.1831 11.3526 47.7355C11.1089 47.8341 10.7869 47.74 10.501 47.7348C10.5393 47.5043 10.5621 47.2699 10.6193 47.0441C10.7124 46.6769 10.8515 46.3202 10.9292 45.9502C11.0914 45.1781 11.6278 44.7537 12.2947 44.4637C14.5587 43.4795 16.8285 42.5084 19.0973 41.5351C19.3291 41.4356 19.569 41.3551 19.848 41.2365Z" fill="white"/>
<path d="M355.657 45.645C356.48 45.8734 357.256 46.0771 358.037 46.2634C358.58 46.3931 358.722 46.7183 358.594 47.2346C358.384 48.0829 358.182 48.9953 357.47 49.5227C355.408 51.0497 353.442 52.76 350.777 53.2484C349.807 53.4262 348.882 53.8398 347.917 54.0655C347.641 54.1302 347.217 54.0021 347.005 53.8069C346.652 53.4836 346.989 53.1632 347.238 52.9477C347.573 52.6582 347.943 52.396 348.332 52.1845C350.302 51.1137 352.284 50.0632 354.354 48.9558C351.789 47.828 349.322 47.1948 346.828 48.7599C346.269 49.1109 345.837 49.6599 345.325 50.0921C345.175 50.2186 344.928 50.346 344.767 50.3063C344.644 50.2762 344.47 49.9356 344.52 49.8132C344.831 49.0369 345.131 48.2424 345.561 47.5293C346.65 45.7224 348.278 44.8493 350.405 44.6553C352.156 44.4956 353.707 45.0499 355.303 45.5406C355.404 45.5717 355.509 45.5891 355.657 45.645Z" fill="white"/>
<path d="M94.9367 42.2238C93.8648 42.018 92.8345 41.6767 91.8132 41.7016C90.1244 41.7428 88.6599 42.4545 87.6316 43.8571C87.4186 44.1477 87.209 44.4457 86.8905 44.2362C86.7255 44.1277 86.6492 43.6604 86.7358 43.4316C87.3236 41.8785 88.1201 40.4769 89.5957 39.5481C90.4684 38.9988 91.4101 38.7987 92.4015 38.6258C94.3126 38.2925 95.9898 39.0426 97.7252 39.5955C98.5683 39.8642 99.4503 40.0109 100.313 40.2206C100.758 40.3288 100.98 40.4659 100.813 41.0617C100.544 42.0223 100.198 42.9397 99.4996 43.6242C98.8714 44.2403 98.0627 44.6688 97.3628 45.2172C95.7473 46.483 93.8041 46.9312 91.8864 47.4452C91.1723 47.6366 90.455 47.8248 89.7285 47.9547C89.5449 47.9876 89.2079 47.8393 89.1424 47.6878C89.0596 47.4961 89.0981 47.14 89.2342 46.9899C89.5142 46.681 89.8676 46.414 90.2366 46.2137C92.1711 45.1638 94.1203 44.1409 96.0625 43.105C96.1544 43.0559 96.2276 42.9718 96.4227 42.8104C95.8894 42.604 95.4359 42.4284 94.9367 42.2238Z" fill="white"/>
<path d="M280.871 59.0001C279.336 61.0138 277.047 61.2008 274.76 59.5236C274.239 60.5697 273.566 61.478 272.502 62.0393C270.754 62.9611 268.194 62.6751 267.637 60.4629C267.379 59.4365 267.499 58.4047 267.845 57.422C268.074 56.7686 268.396 56.1384 268.753 55.5435C268.883 55.3272 269.272 55.0856 269.477 55.1336C269.846 55.2197 269.783 55.5582 269.694 55.92C269.532 56.5747 269.415 57.2619 269.427 57.9329C269.447 59.0938 270.453 59.4798 271.446 59.2392C273.293 58.7916 273.891 57.7598 274.263 56.0376C274.471 55.0779 274.546 54.1405 275.661 53.7314C276.125 53.5614 276.247 53.6485 276.264 54.1062C276.29 54.8156 276.223 55.5608 276.42 56.2245C276.768 57.3952 277.783 57.9813 279.067 57.1952C279.912 56.6779 280.165 56.3182 279.742 55.5101C279.139 54.3606 279.689 53.5335 280.21 52.6384C280.305 52.4747 280.366 52.2853 280.485 52.1428C280.604 52.0007 280.79 51.7949 280.92 51.8122C281.092 51.8349 281.337 52.023 281.379 52.1844C281.981 54.4926 282.1 56.7737 280.871 59.0001Z" fill="white"/>
<path d="M231.249 88.0941C233.259 87.1948 235.225 86.3225 237.194 85.4552C238.351 84.9452 239.504 84.4241 240.677 83.9501C240.979 83.8277 241.347 83.8644 241.749 83.821C241.748 84.772 241.167 85.4084 240.835 86.1382C240.443 86.9975 239.578 87.2902 238.834 87.6425C236.49 88.7525 234.105 89.7759 231.73 90.8189C228.256 92.3444 224.779 93.8629 221.296 95.368C220.972 95.5079 220.597 95.5299 220.052 95.6488C220.252 94.9208 220.41 94.3294 220.578 93.7413C220.773 93.0626 221.167 92.5576 221.833 92.2655C224.517 91.0886 227.197 89.9022 229.878 88.7183C230.322 88.5223 230.764 88.3217 231.249 88.0941Z" fill="white"/>
<path d="M167.71 54.5447C171.619 52.9864 175.392 51.2225 179.301 49.8032C179.37 49.8764 179.439 49.9495 179.508 50.0226C179.397 50.3683 179.332 50.7384 179.165 51.0543C178.859 51.6307 178.617 52.3541 178.125 52.6949C177.134 53.3815 176.019 53.9113 174.907 54.3997C172.902 55.2813 170.863 56.087 168.836 56.9207C166.283 57.971 163.73 59.0237 161.172 60.0605C160.674 60.262 160.149 60.3957 159.604 60.5714C159.497 59.0388 160.612 57.421 161.927 56.9043C163.85 56.1493 165.749 55.3373 167.71 54.5447Z" fill="white"/>
<path d="M130.699 93.3203C131.602 92.9643 132.452 92.6105 133.425 92.2058C133.502 93.2154 133.048 93.8516 132.711 94.5032C132.222 95.4518 131.295 95.8962 130.372 96.3054C128.54 97.1181 126.699 97.9133 124.859 98.7087C122.302 99.8136 119.743 100.912 117.184 102.013C116.254 102.413 115.327 102.822 114.388 103.2C114.217 103.269 113.915 103.288 113.815 103.189C113.713 103.088 113.751 102.804 113.791 102.613C113.878 102.201 114.023 101.801 114.114 101.389C114.338 100.366 115.191 100.012 116.003 99.6557C117.78 98.8758 119.579 98.1473 121.365 97.388C123.831 96.3395 126.295 95.2877 128.755 94.2248C129.396 93.9478 130.017 93.6245 130.699 93.3203Z" fill="white"/>
<path d="M394.859 90.9845C395.092 90.7502 395.314 90.5652 395.489 90.3438C395.874 89.8562 396.311 89.9786 396.735 90.4088C397.73 91.4174 398.769 92.3831 399.801 93.3537C400.165 93.6959 400.264 94.0204 399.868 94.3965C398.925 95.2951 398.005 96.2213 397.027 97.0814C396.647 97.4162 396.145 97.6117 395.66 97.1378C394.63 96.1309 393.567 95.1562 392.58 94.1089C392.438 93.958 392.531 93.3783 392.714 93.1686C393.372 92.4119 394.115 91.7285 394.859 90.9845Z" fill="white"/>
<path d="M26.3318 55.9106C25.5125 56.761 24.6435 57.5097 23.9198 58.3787C23.1811 59.2659 22.2043 59.2327 21.4195 58.4875C20.5919 57.7015 19.8026 56.8756 18.9874 56.0764C18.652 55.7476 18.6763 55.3484 18.9296 55.0697C19.9082 53.993 20.918 52.9426 21.9562 51.9229C22.2073 51.6763 22.5253 51.6704 22.8696 52.0291C23.8949 53.0976 25.0048 54.085 26.0536 55.1321C26.2241 55.3024 26.2521 55.6149 26.3318 55.9106Z" fill="white"/>
<path d="M352.889 60.0786C353.655 59.8662 353.827 60.5168 354.192 60.8648C355.014 61.6499 355.804 62.4719 356.666 63.2108C357.235 63.6989 357.308 63.9107 356.779 64.4403C355.928 65.292 355.072 66.1389 354.227 66.9964C353.773 67.4572 353.16 67.4823 352.767 67.1456C351.713 66.2423 350.755 65.2263 349.77 64.244C349.29 63.7653 349.514 63.2945 349.896 62.9144C350.86 61.9561 351.855 61.0295 352.889 60.0786Z" fill="white"/>
<path d="M92.3845 57.7992C91.8844 57.3462 91.4323 56.9097 90.9481 56.5121C90.5358 56.1736 90.5607 55.8168 90.8533 55.4535C91.4848 54.6694 92.137 53.9019 92.7824 53.129C93.0302 52.8323 93.2558 52.51 93.54 52.2527C93.8686 51.9552 94.1826 51.8918 94.5525 52.3138C95.4631 53.3529 96.4963 54.2629 97.7187 54.9376C98.446 55.3391 98.4573 55.5033 97.9114 56.1652C97.2045 57.0222 96.5245 57.9012 95.8249 58.7642C95.3728 59.3218 95.0196 59.514 94.2493 59.0976C93.6005 58.747 93.026 58.2595 92.3845 57.7992Z" fill="white"/>
</svg>
