<svg width="430" height="144" viewBox="0 0 430 144" fill="none" xmlns="http://www.w3.org/2000/svg">
<path d="M329.751 82.853C331.515 82.9854 333.216 83.1044 334.915 83.2576C335.516 83.3119 335.772 83.7306 335.533 84.2805C334.9 85.7403 334.24 87.189 333.559 88.627C333.486 88.7824 333.192 88.9447 333.023 88.9234C332.157 88.8143 331.294 88.672 330.439 88.4934C328.361 88.059 326.277 88.0697 324.172 88.2656C321.764 88.4897 319.394 88.9163 317.088 89.6174C314.585 90.3783 312.088 91.1811 309.653 92.1327C305.969 93.5724 302.282 94.9958 298.434 95.9186C296.758 96.3206 295.022 96.4686 293.317 96.7528C290.576 97.2096 287.811 97.2166 285.052 97.1255C283.116 97.0616 281.173 96.8885 279.259 96.5928C277.527 96.3251 275.816 95.8779 274.123 95.4073C273.174 95.1435 272.283 94.6716 271.332 94.2797C270.838 95.3769 270.375 96.5552 269.792 97.6696C268.777 99.6077 267.79 101.573 266.608 103.407C264.504 106.672 261.569 108.937 257.721 109.651C256.043 109.962 254.263 109.741 252.53 109.718C250.68 109.693 248.853 109.347 247.17 108.628C244.762 107.599 242.444 106.357 240.096 105.19C239.834 105.06 239.607 104.838 239.402 104.622C239.102 104.306 239.196 103.769 239.638 103.591C239.993 103.448 240.448 103.349 240.802 103.444C242.433 103.878 244.03 104.448 245.668 104.848C246.785 105.12 247.946 105.25 249.096 105.336C250.165 105.416 251.253 105.437 252.319 105.336C254.605 105.119 256.901 104.859 258.979 103.76C260.859 102.766 262.452 101.423 263.841 99.7901C265.685 97.623 267.13 95.223 268.35 92.6427C267.274 91.7811 266.183 90.9161 265.534 89.6266C265.061 88.6882 264.88 87.7526 265.029 86.6724C265.216 85.323 265.596 84.0567 266.125 82.8235C266.316 82.3791 266.565 81.9528 266.839 81.5545C266.941 81.4053 267.224 81.251 267.368 81.2931C267.548 81.3457 267.735 81.575 267.805 81.7695C267.941 82.1457 267.992 82.5519 268.087 82.9438C268.528 84.7802 269.77 85.9974 271.283 86.9483C273.78 88.5167 276.498 89.585 279.364 90.2289C281.263 90.6554 283.168 91.0607 285.141 91.0754C287.359 91.0919 289.578 91.3353 291.794 91.29C293.392 91.2573 295.002 91.0068 296.573 90.6878C299.085 90.1779 301.595 89.6218 304.058 88.9174C306.96 88.0875 309.813 87.0847 312.682 86.1425C313.282 85.9455 313.861 85.6854 314.608 85.3924C313.424 84.9829 312.373 84.618 311.321 84.2556C309.262 83.5467 307.161 82.9992 304.985 82.8663C303.178 82.7559 301.357 82.6478 299.555 82.7545C297.856 82.8551 296.175 83.2376 294.486 83.4965C294.464 83.4997 294.443 83.5137 294.423 83.5109C294.049 83.4581 293.675 83.4035 293.3 83.3492C293.388 82.971 293.391 82.5432 293.578 82.2232C294.273 81.0302 295.03 79.8734 295.761 78.7015C296.267 77.8909 297.109 77.615 297.948 77.4444C299.348 77.1596 300.764 76.9195 302.184 76.7794C304.528 76.5483 306.882 76.413 309.231 76.2346C310.029 76.174 310.827 76.1054 311.666 76.0372C311.63 75.3638 311.631 74.654 311.546 73.9547C311.406 72.8041 311.222 71.6586 311.036 70.5142C310.799 69.0558 310.542 67.6007 310.295 66.144C310.015 64.497 309.744 62.8485 309.456 61.203C309.171 59.5805 308.852 57.964 308.582 56.339C308.403 55.257 308.256 54.1677 308.146 53.0763C307.903 50.6426 307.579 48.2221 306.406 46.0364C305.932 45.1532 306.024 44.5061 306.57 43.6872C307.282 42.6169 307.8 41.4155 308.4 40.2698C308.449 40.1763 308.467 40.0526 308.539 39.9872C308.799 39.7509 309.054 39.4117 309.355 39.3573C309.522 39.3274 309.867 39.7521 309.975 40.0326C310.685 41.888 311.562 43.648 312.747 45.247C313 45.5881 313.225 45.9505 313.461 46.3038C313.918 46.985 313.958 47.6607 313.496 48.2679C313.202 48.6536 312.855 49.0201 312.466 49.306C311.451 50.0531 311.544 51.0403 311.727 52.104C311.971 53.5218 312.147 54.9513 312.357 56.3752C312.569 57.82 312.798 59.2624 312.997 60.7091C313.153 61.8408 313.265 62.9786 313.412 64.1116C313.567 65.3058 313.744 66.497 313.903 67.6907C314.009 68.4811 314.121 69.2716 314.194 70.0654C314.301 71.2329 314.397 72.4021 314.459 73.5726C314.565 75.5659 314.072 77.3952 312.806 79.0486C318.179 81.6685 323.912 82.3536 329.751 82.853Z" fill="white"/>
<path d="M192.275 88.8346C194.252 89.6053 196.172 90.3695 198.108 91.0903C198.619 91.2808 199.175 91.3767 199.72 91.4457C200.396 91.5314 201.128 90.789 201.308 90.0281C201.719 88.2997 201.391 86.6198 201.081 84.9288C200.827 83.5382 200.609 82.1407 200.377 80.7458C200.146 79.3505 199.922 77.9538 199.687 76.5592C199.394 74.8279 199.098 73.0973 198.795 71.368C198.502 69.703 198.189 68.0416 197.903 66.3755C197.661 64.9597 197.454 63.5376 197.213 62.1215C196.839 59.927 196.427 57.7389 196.075 55.5409C195.844 54.097 195.65 52.6442 195.515 51.1883C195.405 49.9991 194.925 48.9679 194.317 47.9929C193.454 46.6078 193.43 44.8255 194.64 43.5071C195.275 42.8154 195.652 41.8907 196.191 41.1019C196.362 40.8506 196.669 40.5589 196.929 40.5438C197.139 40.5316 197.488 40.8649 197.576 41.1158C198.277 43.105 199.395 44.8533 200.559 46.5858C201.164 47.4867 201.266 48.4409 200.568 49.3806C200.225 49.8425 199.941 50.3507 199.583 50.7995C198.822 51.7521 198.871 52.8169 199.076 53.9197C199.382 55.5595 199.68 57.2008 199.982 58.8413C200.373 60.9652 200.781 63.0863 201.153 65.2136C201.486 67.1135 201.763 69.023 202.095 70.9229C202.37 72.5019 202.709 74.0696 202.985 75.6486C203.279 77.338 203.562 79.0307 203.793 80.7297C203.973 82.0568 204.135 83.3939 204.174 84.7304C204.203 85.7186 204.115 86.7334 203.911 87.7004C203.547 89.4245 203.107 91.1371 202.602 92.8253C202.125 94.4197 201.248 95.7391 199.722 96.5715C198.769 97.0915 197.791 97.1361 196.797 96.9165C195.034 96.5268 193.348 95.892 191.859 94.8498C190.767 94.0859 189.737 94.2172 188.665 94.8181C186.982 95.7608 185.331 96.7708 183.602 97.6195C180.932 98.9303 178.153 99.9659 175.173 100.318C173.761 100.485 172.344 100.665 170.926 100.701C169.27 100.742 167.588 100.791 165.958 100.552C163.254 100.156 161.022 98.8164 159.413 96.5367C158.468 95.1981 157.568 93.81 157.116 92.2339C156.629 90.5372 156.281 88.7919 155.999 87.0472C155.696 85.1756 155.531 83.2812 155.324 81.3947C155.093 79.2895 154.897 77.1804 154.659 75.0761C154.414 72.9126 154.131 70.7535 153.874 68.5914C153.648 66.6851 153.494 64.7677 153.199 62.8725C152.781 60.1885 152.206 57.5286 151.816 54.8411C151.671 53.8434 151.794 52.7892 151.912 51.7745C152.066 50.4583 152.303 49.1489 152.574 47.8513C152.666 47.4133 152.696 46.7307 153.339 46.749C153.923 46.7657 153.936 47.3623 154.012 47.8244C154.226 49.1339 154.452 50.4415 154.661 51.7518C154.875 53.0868 155.079 54.4234 155.278 55.7608C155.432 56.8029 155.566 57.848 155.718 58.8905C155.929 60.3353 156.158 61.7774 156.36 63.2233C156.512 64.3114 156.623 65.4052 156.774 66.4935C156.976 67.9618 157.208 69.426 157.41 70.8944C157.562 72.0044 157.677 73.1196 157.828 74.2299C157.989 75.4219 158.187 76.6089 158.343 77.8014C158.495 78.9562 158.589 80.1188 158.752 81.2719C159.187 84.3601 159.668 87.4346 161.38 90.1467C162.822 92.4324 164.946 93.6814 167.487 94.3758C169.563 94.9434 171.694 94.9196 173.765 94.7059C175.921 94.4833 178.043 93.8452 180.156 93.2957C182.768 92.6165 185.197 91.458 187.58 90.2068C188.068 89.9506 188.55 89.6687 188.99 89.3383C189.986 88.5902 191.074 88.5414 192.275 88.8346Z" fill="white"/>
<path d="M88.6177 92.8105C88.4758 91.7802 88.2457 90.7868 88.2897 89.8058C88.415 87.0111 89.2168 84.3936 90.6522 81.9866C90.8702 81.6211 91.1075 81.2375 91.427 80.9735C91.6342 80.8024 92.0069 80.8335 92.3054 80.7739C92.3131 81.0475 92.4369 81.4062 92.3099 81.5813C91.3504 82.9047 91.1858 84.3964 91.2979 85.9561C91.4592 88.2002 92.2069 90.2077 93.7531 91.8685C95.0529 93.2646 96.4787 94.5014 98.2254 95.3202C99.9481 96.1278 101.746 96.6861 103.637 96.8721C105.465 97.0521 107.304 97.2741 109.135 97.246C111.245 97.2137 113.353 96.9412 115.46 96.7489C119.433 96.3862 123.093 95.0113 126.588 93.1643C128.096 92.3673 129.519 91.4358 130.795 90.2584C132.2 88.9621 133.487 87.5988 134.425 85.9219C134.683 85.4612 135.15 85.3762 135.563 85.5258C136.087 85.7157 136.211 86.254 136.1 86.7402C135.782 88.1209 135.403 89.4872 135.032 90.9213C135.427 90.9591 135.947 91.0211 136.47 91.0565C137.875 91.1515 139.281 91.2203 140.684 91.3287C141.548 91.3953 142.201 90.8568 142.132 89.93C142.011 88.3173 141.833 86.7063 141.605 85.1052C141.398 83.6443 141.091 82.1978 140.831 80.7444C140.435 78.5324 140.031 76.3218 139.651 74.107C139.241 71.7206 138.872 69.3272 138.454 66.9422C138.037 64.5615 137.555 62.1922 137.153 59.809C136.804 57.7346 136.479 55.6536 136.234 53.5648C136.04 51.9053 135.548 50.4067 134.731 48.9314C134.07 47.7386 134.14 46.3807 135.044 45.1714C135.745 44.2341 136.357 43.2296 137.006 42.2534C137.413 41.6411 137.636 41.6188 138.002 42.2411C138.267 42.6924 138.405 43.2188 138.664 43.675C139.459 45.0773 140.257 46.4797 141.108 47.8479C141.814 48.9834 141.851 49.8938 141.105 51.0091C140.714 51.5941 140.31 52.1713 139.924 52.7595C139.441 53.4942 139.546 54.3239 139.677 55.1041C140.068 57.4445 140.521 59.7749 140.965 62.1063C141.376 64.2679 141.817 66.4239 142.227 68.5857C142.523 70.1412 142.798 71.7008 143.068 73.261C143.418 75.2869 143.776 77.3119 144.089 79.3436C144.391 81.2978 144.749 83.2527 144.883 85.2209C145.009 87.0743 144.514 88.8895 144.042 90.678C143.701 91.9684 143.348 93.2583 142.927 94.5236C142.597 95.514 142.313 96.6539 141.047 96.8274C140.309 96.9285 139.505 96.9111 138.789 96.7229C137.076 96.2728 135.366 95.7749 133.716 95.1348C132.326 94.5955 132.33 94.4576 131.271 95.4506C128.873 97.6975 126.023 99.1199 122.968 100.192C120.317 101.123 117.608 101.82 114.82 102.172C113.199 102.377 111.574 102.553 109.947 102.697C108.929 102.788 107.898 102.893 106.885 102.817C104.894 102.669 102.897 102.486 100.93 102.153C99.3941 101.893 97.8454 101.525 96.399 100.957C93.0866 99.6569 90.4371 97.5459 89.0277 94.1347C88.8589 93.7261 88.7769 93.2812 88.6177 92.8105Z" fill="white"/>
<path d="M239.873 79.7687C239.45 80.1069 239.065 80.4154 238.67 80.7091C237.952 81.2424 238.029 81.8902 238.563 82.4873C240.286 84.4117 242.348 85.6027 245.007 85.7953C247.361 85.9658 249.609 85.4992 251.888 85.1194C252.161 85.0739 252.464 85.2045 252.752 85.2535C252.689 85.5296 252.689 85.8423 252.553 86.0753C251.942 87.1208 251.31 88.1543 250.646 89.1657C250.511 89.3701 250.221 89.5365 249.974 89.59C248.728 89.8604 247.449 90.0045 246.224 90.3458C242.752 91.3129 239.41 92.627 236.243 94.3666C235.742 94.6417 235.265 94.9615 234.757 95.222C234.461 95.3739 234.133 95.501 233.807 95.546C233.369 95.6063 233.226 95.4288 233.412 94.9597C233.777 94.0344 234.023 93.0579 234.435 92.1564C234.614 91.7661 235.045 91.4531 235.425 91.2024C236.354 90.5888 237.321 90.0319 238.375 89.3899C237.88 89.0684 237.372 88.7424 236.868 88.4111C236.034 87.8629 235.16 87.3652 234.378 86.749C233.109 85.7478 233.1 83.8179 233.932 82.5691C235.97 79.5091 238.537 76.976 241.684 75.0883C242.874 74.3742 244.217 73.9476 245.628 74.5207C246.961 75.0622 247.886 76.0607 248.412 77.3797C248.535 77.6904 248.372 78.1945 248.196 78.5331C247.686 79.5109 247.197 80.5265 246.52 81.3831C245.776 82.3239 245.173 82.5975 244.406 81.3445C244.262 81.1095 244.139 80.8608 243.983 80.634C243.338 79.6928 242.511 79.0175 241.308 79.1691C240.825 79.23 240.373 79.5371 239.873 79.7687Z" fill="white"/>
<path d="M341.207 74.1288C341.381 75.8438 341.568 77.4967 341.725 79.1524C341.801 79.9546 341.853 80.7618 341.86 81.5671C341.877 83.8379 341.953 86.1134 341.839 88.3785C341.742 90.3001 341.583 92.2375 340.946 94.0853C340.87 94.3048 340.751 94.5104 340.687 94.7327C340.558 95.1839 340.205 95.4326 339.836 95.2593C339.56 95.1298 339.364 94.7149 339.25 94.386C339.155 94.1104 339.237 93.7753 339.23 93.4668C339.188 91.6475 339.191 89.8255 339.087 88.0096C338.963 85.845 338.771 83.6834 338.565 81.5248C338.378 79.5704 338.138 77.6211 337.912 75.6706C337.699 73.8293 337.487 71.9876 337.251 70.1491C337.004 68.2294 336.7 66.3168 336.475 64.3947C336.297 62.8677 336.186 61.3321 336.073 59.7983C335.925 57.8035 335.718 55.8075 335.701 53.8106C335.687 52.1317 336.195 50.5264 337.023 49.0572C337.154 48.8242 337.528 48.6229 337.797 48.614C337.961 48.6085 338.234 48.9743 338.292 49.2138C338.436 49.8147 338.507 50.4365 338.568 51.0538C338.754 52.9271 338.918 54.8026 339.098 56.6765C339.224 57.9888 339.343 59.3023 339.5 60.611C339.649 61.8484 339.858 63.0784 340.013 64.3151C340.166 65.536 340.268 66.7633 340.421 67.9842C340.613 69.5203 340.837 71.0525 341.041 72.5873C341.107 73.0794 341.152 73.5743 341.207 74.1288Z" fill="white"/>
<path d="M245.169 51.6334C245.196 53.303 244.968 54.8711 244.527 56.4151C244.477 56.5897 244.599 56.8831 244.738 57.0275C244.97 57.2686 245.28 57.4342 245.557 57.6308C246.926 58.6004 246.47 59.8883 246.157 61.1454C246.085 61.4316 245.962 61.7047 245.864 61.9842C245.656 62.5768 245.313 62.6487 244.842 62.2074C244.287 61.6863 243.73 61.1667 243.162 60.6601C243.008 60.5229 242.811 60.4347 242.611 60.3104C241.768 62.1044 240.698 63.7066 239.198 64.9252C237.813 66.0509 236.336 67.0782 234.819 68.0186C233.38 68.9106 231.844 69.6479 230.336 70.4232C229.833 70.682 229.295 70.9058 228.748 71.0325C228.48 71.0944 228.034 70.9867 227.887 70.7907C227.754 70.6122 227.821 70.1539 227.963 69.9168C228.625 68.807 229.779 68.2464 230.769 67.5048C233.128 65.7375 235.528 64.0229 237.836 62.1914C238.91 61.3397 239.808 60.2656 240.867 59.2119C240.04 58.607 239.331 58.1087 238.645 57.581C237.813 56.9408 236.947 56.3308 236.191 55.6064C235.396 54.843 235.425 53.8175 235.693 52.829C236.388 50.2655 237.739 48.1514 239.916 46.5768C241.423 45.487 243.093 46.1869 243.931 47.4543C244.735 48.6703 245.144 50.0798 245.169 51.6334ZM242.534 54.1897C242.601 52.6676 242.328 51.2493 241.352 50.019C240.874 49.4157 240.36 49.3172 239.78 49.8238C239.43 50.13 239.073 50.4473 238.798 50.8191C238.074 51.8024 238.051 52.4192 239.127 53.0299C239.293 53.1239 239.438 53.2543 239.595 53.3634C240.547 54.0224 241.499 54.6801 242.534 55.3953C242.534 54.9642 242.534 54.6402 242.534 54.1897Z" fill="white"/>
<path d="M111.551 58.8639C109.951 60.0449 108.439 61.2794 106.803 62.3152C105.247 63.2995 103.572 64.0969 101.926 64.9307C101.465 65.1643 100.93 65.2909 100.415 65.3585C100.17 65.3908 99.7009 65.2104 99.6682 65.0552C99.6076 64.7672 99.6978 64.3381 99.8943 64.1258C100.407 63.5723 100.979 63.0605 101.584 62.6099C104.255 60.6214 106.983 58.707 109.613 56.6651C110.588 55.9076 111.367 54.8882 112.204 53.9595C112.5 53.6306 112.482 53.3379 112.029 53.0202C110.735 52.1121 109.498 51.1215 108.233 50.1709C107.265 49.4437 107.324 48.3888 107.526 47.425C108.086 44.7589 109.532 42.6248 111.697 40.9809C113.462 39.6397 115.37 40.8604 116.049 42.1898C116.977 44.0072 117.207 45.9526 116.854 47.9629C116.688 48.9064 116.49 49.8443 116.337 50.7897C116.311 50.9511 116.384 51.1929 116.5 51.3008C116.795 51.5752 117.138 51.799 117.467 52.0355C118.585 52.8384 118.361 53.939 118.118 55.0346C118.022 55.4682 117.899 55.8994 117.743 56.3143C117.661 56.5323 117.477 56.8777 117.344 56.8752C117.078 56.8701 116.77 56.718 116.562 56.5327C116.035 56.0622 115.544 55.5481 115.055 55.0357C114.633 54.5936 114.413 54.7688 114.117 55.2139C113.303 56.4396 112.432 57.6276 111.551 58.8639ZM113.16 48.8989C113.495 49.1439 113.831 49.3888 114.161 49.6304C114.702 48.9689 114.36 48.3014 114.357 47.6545C114.35 46.507 113.997 45.475 113.394 44.5207C113.046 43.9679 112.169 43.6298 111.811 43.971C111.234 44.5218 110.7 45.1349 110.24 45.7869C109.987 46.145 110.006 46.6361 110.431 46.9477C111.306 47.5898 112.196 48.212 113.16 48.8989Z" fill="white"/>
<path d="M215.395 60.644C215.566 62.117 215.739 63.5286 215.907 64.9409C216.047 66.1189 216.172 67.2988 216.32 68.4758C216.483 69.7779 216.678 71.0761 216.835 72.3789C216.947 73.3024 217.022 74.2304 217.107 75.1569C217.284 77.076 217.49 78.9931 217.62 80.9155C217.692 81.9911 217.65 83.0759 217.631 84.156C217.601 85.8435 217.634 87.5387 217.476 89.2151C217.347 90.5889 216.984 91.9411 216.71 93.3001C216.67 93.503 216.6 93.7353 216.463 93.8759C216.23 94.1164 215.934 94.2951 215.664 94.4998C215.487 94.2452 215.181 94.003 215.155 93.7336C215.055 92.694 215.035 91.646 215.002 90.6005C214.95 88.9797 214.958 87.3556 214.857 85.738C214.728 83.6615 214.54 81.5878 214.334 79.5171C214.147 77.6286 213.921 75.7434 213.677 73.8613C213.439 72.0286 213.132 70.2049 212.901 68.3714C212.691 66.7002 212.55 65.0201 212.363 63.3458C212.154 61.481 211.906 59.6205 211.716 57.7539C211.622 56.8216 211.655 55.8766 211.567 54.9433C211.412 53.2965 211.598 51.6904 212.114 50.1331C212.345 49.4355 212.704 48.7771 213.048 48.1234C213.132 47.9642 213.401 47.785 213.552 47.8104C213.735 47.841 213.963 48.0505 214.03 48.2345C214.18 48.6506 214.294 49.0942 214.332 49.5345C214.486 51.3082 214.587 53.0864 214.742 54.86C214.895 56.6262 215.087 58.3891 215.269 60.1527C215.284 60.2989 215.352 60.4396 215.395 60.644Z" fill="white"/>
<path d="M294.74 61.7056C293.36 64.2954 291.169 66.0089 288.804 67.4697C286.738 68.7465 284.534 69.7995 282.389 70.948C282.28 71.0063 282.153 71.0292 282.036 71.0743C281.592 71.2459 281.077 71.3548 280.808 70.9094C280.507 70.4118 280.851 69.9235 281.231 69.6044C282.232 68.7633 283.261 67.9536 284.305 67.167C286.574 65.4576 288.909 63.831 291.117 62.0461C292.079 61.2678 292.797 60.1835 293.583 59.2873C292.044 58.0691 290.601 56.9698 289.211 55.8055C288.577 55.2743 288.371 54.4651 288.529 53.6797C288.93 51.6932 289.634 49.8246 291.07 48.3297C291.615 47.7618 292.203 47.2327 292.795 46.7127C293.807 45.8235 295.153 46.1322 296.079 46.8494C297.258 47.7624 297.616 49.1033 297.852 50.4657C298.217 52.5679 297.931 54.6285 297.289 56.6511C297.251 56.773 297.369 57.0031 297.483 57.1041C297.736 57.3279 298.03 57.5069 298.313 57.6949C299.455 58.4528 299.465 59.532 299.146 60.693C299.012 61.1826 298.837 61.6613 298.672 62.1423C298.481 62.7026 298.139 62.7781 297.696 62.3619C297.124 61.8243 296.542 61.2972 295.987 60.7425C295.531 60.2868 295.295 60.4969 295.099 60.977C295.003 61.213 294.884 61.4397 294.74 61.7056ZM292.151 53.334C293.191 54.0484 294.23 54.7628 295.3 55.4982C295.447 53.5485 295.412 52.1868 294.795 50.998C294.002 49.4727 293.107 49.0288 291.849 50.5895C291.599 50.8997 291.387 51.2534 291.222 51.6169C290.955 52.2087 291.186 52.623 292.151 53.334Z" fill="white"/>
<path d="M118.404 74.3351C118.717 73.8993 118.941 73.3965 119.546 73.4667C119.78 73.4938 120.06 73.5829 120.217 73.7442C121.409 74.9715 122.646 76.13 124.178 76.9349C124.632 77.1737 124.675 77.6283 124.346 78.0359C123.389 79.2244 122.43 80.4123 121.465 81.5944C121.036 82.1193 120.41 82.1995 119.825 81.8019C118.731 81.0593 117.646 80.3045 116.449 79.4803C116.053 79.9212 115.525 80.482 115.029 81.07C114.518 81.6761 114.105 82.3877 113.517 82.8995C113.18 83.1933 112.656 83.4416 112.067 83.041C110.823 82.194 109.59 81.3584 108.525 80.2704C107.777 79.5055 107.611 78.9502 108.479 77.9531C109.383 76.914 110.249 75.8408 111.127 74.7789C111.436 74.4045 112.03 74.4056 112.434 74.7742C113.286 75.5519 114.12 76.3529 115.013 77.0817C115.639 77.5928 115.763 77.5185 116.26 76.9047C116.953 76.0505 117.671 75.2174 118.404 74.3351Z" fill="white"/>
<path d="M176.373 78.7892C175.231 77.7756 174.11 76.8133 173.023 75.8122C172.635 75.454 172.79 74.9797 173.068 74.6386C174.05 73.4336 175.055 72.2452 176.081 71.0779C176.624 70.4611 176.875 70.553 177.463 71.1187C178.364 71.9869 179.336 72.7823 180.305 73.5759C180.412 73.6636 180.78 73.6138 180.879 73.499C181.819 72.4034 182.75 71.2982 183.636 70.1579C184.192 69.4425 184.575 69.4717 185.253 70.0722C186.521 71.1958 187.873 72.2243 189.206 73.2725C189.665 73.6336 189.705 73.8603 189.331 74.2946C188.303 75.49 187.286 76.6951 186.27 77.9002C185.973 78.2511 185.155 78.3617 184.723 78.039C183.746 77.3091 182.775 76.5684 181.838 75.7876C181.519 75.5216 181.331 75.5297 181.088 75.8261C180.24 76.8586 179.394 77.8922 178.534 78.9143C178.076 79.4591 177.559 79.5114 176.968 79.1252C176.791 79.0096 176.595 78.9244 176.373 78.7892Z" fill="white"/>
<path d="M270.464 51.2031C270.062 51.8143 269.649 52.258 268.917 52.5104C268.274 52.7324 267.794 53.4194 267.228 53.885C265.818 55.0459 264.129 55.606 262.418 56.1135C261.284 56.4499 260.147 56.7766 259.011 57.1044C258.889 57.1397 258.738 57.2073 258.638 57.1665C258.316 57.0348 257.918 56.9271 257.739 56.6743C257.64 56.5349 257.836 56.0118 258.044 55.8554C258.807 55.2819 259.602 54.7405 260.435 54.277C262.084 53.3595 263.768 52.5067 265.431 51.6134C265.637 51.5023 265.8 51.3076 265.982 51.1517C265.781 51.0328 265.594 50.869 265.377 50.8026C264.206 50.444 263.038 49.8688 261.849 49.8183C259.581 49.7219 257.478 50.34 256.081 52.3733C255.834 52.733 255.498 53.0034 255.155 52.7528C254.978 52.6233 254.963 52.0796 255.064 51.7891C255.536 50.4244 256.167 49.1243 257.264 48.1497C258.604 46.9599 260.121 46.2087 261.986 46.1686C263.722 46.1314 265.305 46.615 266.909 47.1686C268.104 47.5811 269.355 47.8266 270.573 48.1779C271.415 48.4211 271.476 48.5362 271.204 49.3302C270.992 49.9491 270.717 50.546 270.464 51.2031Z" fill="white"/>
<path d="M183.362 47.8365C183.204 47.1327 182.968 46.4867 182.88 45.821C182.831 45.4478 182.98 45.023 183.124 44.6551C183.349 44.0825 183.627 43.5276 183.924 42.989C184.015 42.8255 184.255 42.6372 184.411 42.6496C184.561 42.6615 184.788 42.9039 184.815 43.0719C185.019 44.3423 185.312 45.6181 185.325 46.8947C185.34 48.422 184.862 49.8832 184 51.1661C183.566 51.8128 182.858 52.0888 182.124 52.2993C180.776 52.6854 179.478 52.7129 178.266 51.884C178.16 51.8118 178.039 51.7505 177.959 51.6554C177.609 51.2414 177.456 51.2814 177.161 51.7861C176.097 53.6074 174.58 54.7805 172.359 54.6522C170.906 54.5683 169.487 53.6054 169.431 51.8298C169.402 50.9406 169.361 50.0067 169.592 49.1668C169.83 48.3016 170.361 47.5081 170.83 46.7233C170.954 46.5164 171.323 46.4577 171.58 46.331C171.633 46.6301 171.756 46.9362 171.727 47.227C171.652 47.9911 171.45 48.7453 171.409 49.5094C171.357 50.4947 172.326 51.1406 173.321 50.9965C174.166 50.874 174.932 50.6786 175.598 50.1144C176.618 49.2496 177.023 48.0847 177.179 46.8246C177.331 45.5969 177.867 44.8642 179.035 44.5979C179.035 45.1731 178.963 45.7432 179.053 46.2859C179.167 46.9652 179.252 47.7435 179.638 48.2628C180.42 49.3162 181.325 49.2513 182.455 48.6308C182.787 48.448 183.051 48.1379 183.362 47.8365Z" fill="white"/>
<path d="M156.676 103.673C156.258 104.882 155.732 105.908 154.496 106.423C151.593 107.634 148.707 108.886 145.814 110.121C143.561 111.084 141.307 112.045 139.055 113.01C137.755 113.567 136.461 114.14 135.156 114.684C134.947 114.771 134.692 114.744 134.463 114.769C134.015 112.864 135.006 111.241 136.911 110.503C138.918 109.726 140.885 108.846 142.873 108.019C144.919 107.168 146.975 106.342 149.015 105.478C151.213 104.547 153.396 103.582 155.588 102.638C155.934 102.489 156.294 102.375 156.839 102.175C156.786 102.76 156.747 103.195 156.676 103.673Z" fill="white"/>
<path d="M171.652 39.9709C169.347 40.8701 167.097 41.7713 164.837 42.6472C164.626 42.7288 164.354 42.65 164.11 42.6457C164.122 42.3826 164.097 42.1112 164.154 41.8585C164.228 41.5295 164.412 41.2232 164.471 40.8931C164.677 39.7376 165.478 39.184 166.472 38.7873C170.624 37.1299 174.777 35.4714 178.923 33.7976C180.799 33.0399 182.659 32.2401 184.533 31.4744C184.743 31.3887 184.992 31.378 185.224 31.3731C185.569 31.3658 185.745 31.5713 185.565 31.8757C184.991 32.8429 184.527 33.9451 183.738 34.6941C183.019 35.3767 181.951 35.7148 181.001 36.1203C178.557 37.1638 176.093 38.1611 173.636 39.1756C172.993 39.4412 172.348 39.7026 171.652 39.9709Z" fill="white"/>
<path d="M265.537 64.4692C266.608 65.8694 267.736 67.1372 269.212 68.047C269.307 68.1051 269.353 68.2517 269.406 68.3644C269.46 68.4773 269.494 68.5994 269.555 68.7673C268.375 69.9449 267.222 71.1865 265.953 72.2949C265.657 72.5534 264.837 72.5651 264.486 72.3369C263.083 71.4258 261.92 70.2238 260.98 68.8243C260.689 68.3914 260.719 67.9655 261.095 67.5867C262.179 66.4959 263.267 65.4096 264.347 64.3155C264.79 63.867 265.15 64.0525 265.537 64.4692Z" fill="white"/>
<path d="M311.673 105.13C311.234 104.643 310.814 104.203 310.425 103.737C310.05 103.287 310.096 102.799 310.531 102.359C311.458 101.42 312.387 100.484 313.324 99.5547C313.594 99.287 313.672 98.8577 314.229 98.8397C314.908 98.8178 315.002 99.3958 315.333 99.7047C316.415 100.715 317.414 101.816 318.514 102.805C318.925 103.174 318.911 103.438 318.611 103.761C317.629 104.818 316.631 105.86 315.627 106.896C315.053 107.487 314.45 107.534 313.815 107.011C313.094 106.418 312.406 105.783 311.673 105.13Z" fill="white"/>
<path d="M118.667 69.571C117.911 70.4647 117.175 71.3131 116.454 72.1747C116.147 72.5415 115.271 72.671 114.8 72.3666C113.419 71.4752 112.126 70.4801 111.011 69.2555C110.602 68.8067 110.831 68.4233 111.069 68.1112C111.852 67.084 112.693 66.1006 113.511 65.1004C113.661 64.9174 113.821 64.742 113.958 64.5497C114.301 64.0679 114.749 64.0449 115.211 64.457C116.243 65.3783 117.286 66.2883 118.334 67.1918C118.49 67.3267 118.695 67.4075 118.883 67.5037C119.628 67.8865 119.708 68.3552 119.137 68.9815C118.979 69.1551 118.841 69.3474 118.667 69.571Z" fill="white"/>
<path d="M180.158 68.8014C179.452 68.3113 178.758 67.8837 178.147 67.3589C177.38 66.7003 176.647 65.9923 175.978 65.2359C175.821 65.0595 175.85 64.4994 176.014 64.2913C176.988 63.0557 178.037 61.88 179.039 60.6662C179.423 60.2013 179.911 60.2556 180.232 60.6943C181.244 62.0757 182.61 63.0332 184.065 63.8648C184.587 64.1628 184.551 64.4676 184.246 64.8458C183.246 66.0817 182.257 67.328 181.207 68.519C181.01 68.7414 180.547 68.7262 180.158 68.8014Z" fill="white"/>
</svg>
