<svg width="429" height="143" viewBox="0 0 429 143" fill="none" xmlns="http://www.w3.org/2000/svg">
<path d="M174.378 83.0168C173.825 85.3064 173.164 87.4986 172.191 89.596C171.061 92.0294 169.16 93.7378 166.969 95.1279C164.374 96.7751 161.551 97.948 158.565 98.7069C156.865 99.1388 155.175 99.6183 153.459 99.9702C151.936 100.282 150.385 100.457 148.843 100.675C147.806 100.823 146.765 100.948 145.724 101.07C145.181 101.133 144.743 100.873 144.638 100.371C144.535 99.8831 144.973 99.6234 145.389 99.4989C146.62 99.1308 147.872 98.831 149.093 98.4371C151.317 97.7205 153.551 97.0255 155.732 96.1942C159.027 94.9384 161.938 92.998 164.647 90.7712C166.117 89.5637 167.48 88.2267 168.888 86.9451C169.558 86.335 169.693 85.6847 169.38 84.7657C168.423 81.9466 166.95 79.4503 164.971 77.2508C163.62 75.7489 162.293 74.2087 160.804 72.8506C158.41 70.6657 155.782 68.7633 153.035 67.0354C152.377 66.6217 151.717 66.2106 151.001 65.7621C150.918 65.975 150.839 66.1151 150.809 66.2651C150.627 67.1674 150.345 67.1707 149.516 66.917C147.443 66.2822 145.381 65.6104 143.322 64.9318C143.145 64.8732 142.929 64.6774 142.884 64.5056C142.214 61.9079 141.559 59.3062 140.931 56.6979C140.843 56.3296 140.919 55.9217 140.919 55.3407C141.615 55.5096 142.299 55.5739 142.894 55.838C144.995 56.7711 147.1 57.7085 149.141 58.7643C151.835 60.1571 154.452 61.7095 156.766 63.6788C158.731 65.3507 160.646 67.099 162.432 68.9583C165.011 71.6424 167.17 74.6567 168.62 78.1126C169.414 80.0057 170.079 81.9534 170.822 83.9295C171.12 83.2686 171.498 82.549 171.776 81.7929C172.583 79.6021 173.127 77.3511 173.095 74.9971C173.068 73.0355 173.108 71.0661 172.941 69.1153C172.741 66.7745 172.386 64.4449 172.034 62.12C171.825 60.7375 171.456 59.3798 171.226 57.9998C170.931 56.2362 170.668 54.4641 170.991 52.6683C171.22 51.3936 171.408 50.1108 171.674 48.8441C171.723 48.6108 172.023 48.3581 172.267 48.2542C172.664 48.0847 172.866 48.4186 172.957 48.7374C173.158 49.4463 173.357 50.1601 173.484 50.8847C173.712 52.1865 173.873 53.4999 174.086 54.8046C174.312 56.1898 174.568 57.5702 174.806 58.9534C175.041 60.316 175.262 61.6812 175.504 63.0424C175.743 64.3806 176.006 65.7146 176.252 67.0515C176.502 68.4096 176.747 69.7685 176.99 71.128C177.273 72.7189 177.541 74.3125 177.833 75.9019C178.112 77.4261 178.353 78.9611 178.722 80.4642C179.046 81.7884 179.433 83.1127 179.954 84.3699C180.736 86.2571 182.152 87.6279 184.015 88.4366C185.711 89.1725 187.445 89.8503 189.215 90.3699C190.431 90.7267 191.736 90.8039 193.008 90.9408C193.955 91.0427 194.921 91.14 195.864 91.0624C197.718 90.9098 199.598 90.7926 201.401 90.3721C204.107 89.7408 206.78 88.9349 209.422 88.0663C212.008 87.216 214.468 86.0468 216.861 84.7347C217.959 84.1329 219.107 84.3032 220.238 84.7991C221.799 85.4835 223.372 86.1457 224.964 86.7552C225.629 87.0097 226.35 87.1263 227.054 87.2643C227.593 87.37 228.038 86.9504 228.022 86.2177C227.987 84.6392 227.918 83.0574 227.764 81.4866C227.612 79.9376 227.387 78.3917 227.107 76.8604C226.679 74.5245 226.175 72.2028 225.708 69.874C225.254 67.6069 224.819 65.3359 224.354 63.0711C223.902 60.8713 223.392 58.683 222.965 56.4786C222.677 54.9943 222.478 53.4923 222.257 51.9956C222.012 50.3331 221.651 48.7129 220.716 47.2759C220.106 46.339 219.813 45.4359 220.659 44.415C221.276 43.6705 221.719 42.7831 222.253 41.9688C222.652 41.3619 223.177 41.3577 223.415 42.0048C224.159 44.0303 225.455 45.7077 226.748 47.3831C227.275 48.0665 227.132 48.6995 226.748 49.3059C226.35 49.9337 225.861 50.5074 225.383 51.08C225.088 51.4329 224.985 51.7454 225.095 52.2388C225.631 54.6384 226.085 57.0562 226.597 59.4614C227.138 62.0088 227.732 64.5454 228.267 67.0942C228.742 69.3571 229.166 71.6308 229.616 73.8991C229.958 75.6263 230.424 77.3396 230.615 79.0832C230.788 80.6628 230.734 82.2787 230.653 83.872C230.533 86.2207 229.656 88.3537 228.569 90.412C227.568 92.3055 226.731 92.4304 224.904 92.0247C222.95 91.5911 221.053 90.8103 219.213 89.9947C217.878 89.4028 216.722 89.6513 215.558 90.2373C214.352 90.8445 213.211 91.5818 212.005 92.1888C209.455 93.4718 206.778 94.4584 204.011 95.1222C201.927 95.6221 199.79 95.9729 197.656 96.1786C195.326 96.4034 192.969 96.492 190.628 96.4456C187.629 96.3861 184.808 95.5655 182.308 93.841C179.759 92.0823 177.991 89.7093 176.757 86.8761C175.996 85.1307 175.587 83.3089 175.211 81.4672C175.164 81.2386 175.204 80.9921 175.204 80.7519C174.795 80.7889 174.609 81.3344 174.378 83.0168Z" fill="white"/>
<path d="M309 95.0266C306.114 95.3961 303.272 95.5127 300.43 95.4027C298.933 95.3448 297.441 95.114 295.951 94.9343C293.622 94.6536 291.409 93.9761 289.258 92.8462C288.981 93.501 288.748 94.1206 288.462 94.7142C287.829 96.0258 287.177 97.3281 286.519 98.6273C285.627 100.388 284.587 102.054 283.096 103.375C281.211 105.045 279.082 106.178 276.492 106.34C272.487 106.591 268.705 105.837 265.157 103.965C264.003 103.356 262.88 102.685 261.768 102.002C261.586 101.89 261.386 101.477 261.457 101.356C261.595 101.117 261.935 100.818 262.162 100.841C262.891 100.914 263.61 101.11 264.327 101.281C265.846 101.643 267.345 102.132 268.884 102.353C270.295 102.556 271.756 102.59 273.181 102.493C275.767 102.318 278.265 101.713 280.352 100.064C282.272 98.5468 283.847 96.7031 285.083 94.5822C285.665 93.5817 286.231 92.5715 286.793 91.5862C285.574 90.6437 284.357 89.7361 284.007 88.2056C283.822 87.3969 283.768 86.4873 283.941 85.6848C284.186 84.5448 284.683 83.457 285.101 82.3578C285.189 82.1282 285.379 81.9232 285.561 81.7478C285.818 81.5 286.086 81.5867 286.119 81.9188C286.372 84.4754 287.998 85.9633 290.095 87.0894C292.493 88.3772 295.049 89.2415 297.713 89.747C298.994 89.9901 300.311 90.0788 301.616 90.1516C303.287 90.2447 304.963 90.2751 306.637 90.289C308.812 90.3071 310.973 90.0231 313.063 89.4775C316.734 88.5192 320.368 87.4181 324.008 86.3439C324.97 86.06 325.897 85.6559 326.88 85.2922C323.558 83.7445 319.65 83.0556 317.883 82.9507C314.704 82.7621 311.546 83.1002 308.399 83.7012C308.215 82.7909 308.796 82.3046 309.103 81.7371C309.544 80.9208 310.004 80.0887 310.607 79.395C311.011 78.9305 311.641 78.5127 312.234 78.3904C314.006 78.0252 315.803 77.7501 317.603 77.5627C319.836 77.33 322.082 77.2203 324.369 77.0542C324.276 76.0854 324.21 75.0634 324.073 74.0511C323.899 72.7642 323.672 71.4842 323.457 70.203C323.186 68.5879 322.906 66.9743 322.627 65.3605C322.38 63.9356 322.118 62.5134 321.885 61.0863C321.651 59.6555 321.456 58.2185 321.225 56.7872C321.02 55.5088 320.848 54.2205 320.548 52.9637C320.369 52.2157 319.979 51.5164 319.669 50.8022C319.414 50.2157 319.491 49.7404 319.895 49.2048C320.372 48.5706 320.713 47.8305 321.088 47.1226C321.334 46.6571 321.509 46.1535 321.762 45.6922C322.03 45.2028 322.623 45.2103 322.918 45.6829C322.984 45.789 323.03 45.9115 323.065 46.0324C323.611 47.9142 324.716 49.497 325.848 51.0439C326.596 52.0654 326.488 52.7416 325.576 53.6777C325.056 54.2109 324.303 54.6145 324.387 55.5167C324.446 56.1505 324.596 56.7754 324.688 57.4067C324.854 58.548 325.008 59.6911 325.167 60.8334C325.33 61.9964 325.502 63.1581 325.655 64.3224C325.809 65.4897 325.94 66.6599 326.089 67.8278C326.24 69.0153 326.427 70.1987 326.553 71.3887C326.78 73.538 327.25 75.7001 326.473 77.8302C326.237 78.4778 325.878 79.0807 325.561 79.7323C327.825 80.845 330.208 81.596 332.699 82.0157C334.231 82.2737 335.756 82.5761 337.294 82.7881C338.402 82.9409 339.526 82.9846 340.644 83.0643C341.978 83.1595 343.313 83.2542 344.648 83.3229C345.231 83.3529 345.42 83.7287 345.247 84.1505C344.694 85.4946 344.078 86.8138 343.435 88.1177C343.362 88.2666 342.953 88.3481 342.727 88.3079C341.433 88.078 340.157 87.6873 338.855 87.574C337.564 87.4615 336.242 87.5389 334.947 87.6684C333.618 87.8013 332.266 87.9678 330.993 88.3495C328.05 89.2322 325.105 90.1427 322.241 91.2483C318.93 92.5263 315.599 93.7041 312.139 94.4924C311.125 94.7233 310.088 94.8514 309 95.0266Z" fill="white"/>
<path d="M133.838 94.5375C132.859 94.9406 131.929 95.3377 130.977 95.672C130.549 95.8221 130.39 96.012 130.366 96.4887C130.266 98.4518 129.796 100.347 129.055 102.16C128.005 104.732 126.321 106.887 124.535 108.987C123.389 110.332 122.135 111.53 120.522 112.22C118.68 113.009 116.762 113.622 114.743 113.821C113.375 113.956 112.003 114.222 110.639 114.185C108.423 114.125 106.209 113.907 104.002 113.674C102.849 113.552 101.712 113.264 100.57 113.033C100.102 112.939 99.6812 112.681 99.782 112.155C99.8763 111.663 100.347 111.569 100.809 111.587C103.065 111.675 105.324 111.873 107.577 111.822C110.311 111.76 112.963 111.149 115.46 109.989C117.304 109.133 119.076 108.154 120.695 106.903C122.33 105.64 123.74 104.181 124.951 102.508C126.06 100.977 127.087 99.4055 127.752 97.6249C127.885 97.2666 127.954 96.8838 128.042 96.5514C126.729 96.6622 125.503 96.6969 124.302 96.885C122.911 97.1029 121.561 97.0018 120.225 96.6345C118.623 96.1937 117.705 95.0502 117.385 93.4852C116.801 90.6209 117.534 87.984 119.044 85.5529C119.627 84.6144 120.308 83.7214 121.046 82.8985C122.101 81.722 123.617 81.6154 125.025 82.4906C126.445 83.3726 127.334 84.691 128.135 86.0823C128.553 86.8097 128.887 87.5931 129.188 88.3788C129.488 89.1647 129.698 89.9849 129.955 90.8129C131.981 90.0754 134.042 89.3283 135.86 88.0597C136.279 87.7675 136.708 87.4624 137.043 87.0846C137.682 86.3666 137.762 85.5319 137.183 84.7206C136.094 83.1949 134.931 81.7216 133.79 80.2335C133.412 79.7414 132.99 79.2835 132.626 78.7825C132.514 78.6292 132.487 78.3828 132.494 78.1816C132.512 77.6892 132.565 77.1974 132.618 76.7069C132.744 75.537 132.841 74.3622 133.024 73.2011C133.114 72.6307 133.592 72.4745 134.034 72.8627C136.217 74.7833 138.223 76.8565 139.15 79.7061C139.977 82.2448 140.309 84.873 140.087 87.5272C139.877 90.0268 138.576 91.9106 136.383 93.1509C135.557 93.6183 134.714 94.0551 133.838 94.5375ZM125.998 91.6097C126.183 91.5995 126.369 91.5893 126.633 91.5748C125.758 90.0027 124.65 88.7472 123.276 87.7106C122.825 87.3702 122.409 87.3784 121.955 87.6665C121.233 88.1246 120.738 88.7807 120.431 89.5547C120.113 90.357 120.467 91.0938 121.311 91.3982C121.881 91.6032 122.484 91.7804 123.083 91.8214C124.017 91.8855 124.98 92.0608 125.998 91.6097Z" fill="white"/>
<path d="M79.5173 96.8707C79.3858 96.0387 79.197 95.268 79.1331 94.4872C78.8593 91.1387 79.6598 87.9392 80.5888 84.7694C80.7505 84.2179 81.1028 83.7126 81.4186 83.2189C81.6696 82.8266 82.1259 82.7831 82.4219 83.0669C82.5926 83.2305 82.6043 83.6838 82.527 83.9621C82.0311 85.7481 81.3039 87.4916 81.0099 89.3068C80.5967 91.8579 81.4007 94.1653 83.1575 96.1056C84.7263 97.8383 86.759 98.6386 89.0025 98.962C91.8825 99.3771 94.7129 99.0494 97.3448 97.8371C98.7504 97.1897 100.006 96.1906 101.27 95.2693C102.513 94.3637 103.265 93.0245 104.097 91.7641C104.909 90.5327 104.685 89.271 104.146 88.0584C102.939 85.3414 101.666 82.6536 100.418 79.9548C100.339 79.7831 100.263 79.6033 100.149 79.455C99.587 78.7225 99.4004 77.9906 99.7224 77.0439C100.074 76.0096 100.17 74.8907 100.424 73.8196C100.566 73.2203 100.993 73.0986 101.355 73.5907C101.866 74.2838 102.289 75.0488 102.689 75.8146C103.773 77.8888 105.054 79.8836 105.656 82.1693C106.028 83.5805 106.275 85.036 106.439 86.4873C106.588 87.8003 106.649 89.1404 106.571 90.4581C106.431 92.8383 106.196 95.2714 104.715 97.2364C103.775 98.4831 102.515 99.5078 101.316 100.535C99.3779 102.196 96.9906 102.979 94.5889 103.643C92.36 104.259 90.0695 104.202 87.7763 103.979C86.1838 103.824 84.732 103.322 83.3619 102.523C81.5656 101.476 80.3713 99.9614 79.7826 97.9698C79.681 97.6262 79.6052 97.2751 79.5173 96.8707Z" fill="white"/>
<path d="M257.771 81.3945C258.786 80.3341 259.735 79.2745 260.759 78.2921C261.866 77.2292 263.085 76.3022 264.561 75.7831C266.161 75.2207 267.729 75.9358 268.785 77.1213C269.606 78.0434 269.612 78.9741 268.942 79.956C268.452 80.6736 268.004 81.4291 267.44 82.0837C266.946 82.6576 266.424 82.5152 266.015 81.8831C265.543 81.1535 265.095 80.4205 264.242 80.0002C263.647 79.7067 263.11 79.7062 262.606 79.9991C261.948 80.3811 261.348 80.8643 260.741 81.3277C260.357 81.6204 260.401 82.0134 260.654 82.3554C261.942 84.0976 263.623 85.2022 265.814 85.427C266.544 85.502 267.287 85.6006 268.012 85.545C269.202 85.4539 270.382 85.2373 271.568 85.0902C272.115 85.0223 272.666 84.9936 273.216 84.9472C273.26 85.0205 273.304 85.0937 273.348 85.167C272.975 85.8373 272.556 86.487 272.237 87.1824C271.652 88.4577 270.677 88.9606 269.3 89.1398C266.625 89.4882 264.125 90.4907 261.687 91.6169C260.232 92.2892 258.817 93.0474 257.373 93.7445C257.065 93.8934 256.709 93.9449 256.321 94.057C256.479 91.1381 258.201 89.6633 260.865 88.7736C260.126 88.331 259.55 88.0068 258.996 87.6496C258.408 87.2705 257.827 86.8778 257.266 86.4599C255.972 85.4962 256.071 83.8897 256.784 82.7816C257.082 82.318 257.419 81.8794 257.771 81.3945Z" fill="white"/>
<path d="M238.026 64.9386C237.807 63.7335 237.573 62.589 237.373 61.4386C237.012 59.3629 236.637 57.2887 236.331 55.2046C235.957 52.662 235.816 50.1182 236.714 47.6346C236.772 47.4763 236.818 47.2962 236.926 47.1786C237.07 47.0227 237.284 46.8029 237.441 46.8231C237.609 46.8447 237.833 47.0902 237.88 47.2769C238.091 48.0953 238.276 48.9228 238.414 49.7563C238.659 51.2287 238.837 52.7125 239.092 54.1829C239.364 55.751 239.695 57.3089 239.998 58.8717C240.522 61.5805 241.06 64.2869 241.564 66.9995C241.983 69.2568 242.38 71.5185 242.753 73.784C243.086 75.8042 243.404 77.8278 243.665 79.8583C243.821 81.0764 243.864 82.3097 243.939 83.5374C244.037 85.1582 244.219 86.7831 244.174 88.401C244.132 89.9284 244.118 91.4867 243.557 92.9595C243.453 93.2307 243.405 93.5502 243.04 93.434C242.797 93.3563 242.477 93.1738 242.406 92.9651C242.237 92.4693 242.162 91.9334 242.107 91.4077C241.874 89.1858 241.729 86.9528 241.427 84.7409C241.061 82.0622 240.589 79.3974 240.127 76.7328C239.67 74.0953 239.164 71.4662 238.688 68.8318C238.457 67.5552 238.246 66.2751 238.026 64.9386Z" fill="white"/>
<path d="M348.168 85.979C347.993 83.9452 347.841 81.9716 347.635 80.0035C347.448 78.216 347.215 76.4331 346.982 74.6508C346.733 72.7447 346.436 70.8446 346.206 68.9363C346.034 67.507 345.922 66.0699 345.805 64.6346C345.619 62.3578 345.381 60.082 345.302 57.801C345.251 56.343 345.798 54.9736 346.497 53.7006C346.603 53.5064 346.999 53.3977 347.262 53.3945C347.387 53.3931 347.594 53.7209 347.629 53.9228C347.752 54.6376 347.827 55.3615 347.904 56.0836C348.083 57.7691 348.253 59.4558 348.428 61.1418C348.559 62.4007 348.676 63.6614 348.83 64.9175C348.982 66.146 349.19 67.3675 349.342 68.5961C349.497 69.8521 349.597 71.1148 349.75 72.3711C349.899 73.6006 350.099 74.8239 350.249 76.0533C350.366 77.0129 350.486 77.9758 350.525 78.9405C350.638 81.6551 350.793 84.3722 350.768 87.0868C350.75 88.914 350.599 90.7599 350.009 92.5244C349.923 92.783 349.853 93.0675 349.692 93.2751C349.515 93.5033 349.241 93.6565 349.009 93.8423C348.817 93.5632 348.475 93.2936 348.456 93.0033C348.359 91.4851 348.35 89.9615 348.297 88.4403C348.269 87.6403 348.212 86.8412 348.168 85.979Z" fill="white"/>
<path d="M124.966 34.2115C125.613 34.9859 125.875 35.8722 126.043 36.7918C126.377 38.6238 126.121 40.4154 125.654 42.192C125.624 42.305 125.639 42.4719 125.706 42.5593C125.849 42.749 126.02 42.9323 126.214 43.0677C127.746 44.1335 127.39 44.5702 127.126 45.9062C127.025 46.4173 126.828 46.9097 126.628 47.5673C126.308 47.3941 126.001 47.2849 125.766 47.0889C125.162 46.5847 124.59 46.0421 123.937 45.4538C123.193 47.1943 122.081 48.4732 120.863 49.6893C119.652 50.8975 118.195 51.7351 116.733 52.5565C115.412 53.2989 114.027 53.9291 112.657 54.5836C112.38 54.7161 112.048 54.7942 111.743 54.7898C111.491 54.7862 111.038 54.6413 111.028 54.5287C111.003 54.234 111.082 53.8326 111.28 53.6348C111.887 53.0287 112.537 52.4536 113.229 51.9467C115.352 50.3924 117.543 48.9288 119.623 47.3209C120.626 46.5461 121.439 45.5267 122.398 44.5569C121.656 44.0473 121.047 43.6628 120.476 43.2294C119.743 42.6736 119 42.1201 118.334 41.4894C117.522 40.7209 117.679 39.7225 117.956 38.7931C118.54 36.8337 119.572 35.1777 121.23 33.8961C122.372 33.013 123.956 32.9724 124.966 34.2115ZM120.262 37.928C120.262 38.1192 120.181 38.3812 120.276 38.4889C120.629 38.8911 121.011 39.2823 121.437 39.6044C122.171 40.159 122.946 40.6587 123.739 41.2054C123.996 39.3063 123.745 38.0496 122.888 36.7803C122.453 36.1349 121.674 36.0838 121.184 36.6757C120.871 37.0539 120.571 37.4431 120.262 37.928Z" fill="white"/>
<path d="M265.198 51.9476C266.128 52.8717 266.453 54.0293 266.524 55.2127C266.62 56.8413 266.625 58.4826 266.056 60.0687C265.989 60.256 266.268 60.6822 266.496 60.8426C267.955 61.8691 267.961 62.3768 267.463 64.2263C267.403 64.4494 267.32 64.6712 267.211 64.8743C267.123 65.0386 266.978 65.2981 266.862 65.2959C266.624 65.2913 266.345 65.1927 266.161 65.0391C265.667 64.6269 265.226 64.1529 264.741 63.7284C264.483 63.5024 264.265 63.5556 264.098 63.8931C262.603 66.9114 260.137 68.9246 257.219 70.4404C255.667 71.2461 254.086 71.9979 252.496 72.725C251.894 73.0005 251.412 72.7881 251.424 72.3195C251.431 72.0306 251.593 71.6575 251.813 71.4776C252.752 70.7091 253.731 69.99 254.707 69.2684C257.134 67.4741 259.706 65.8591 261.758 63.6008C262.102 63.2225 262.399 62.8024 262.704 62.42C261.368 61.4093 260.014 60.4613 258.758 59.3973C258.256 58.9717 258.121 58.3071 258.235 57.5488C258.439 56.1869 258.952 54.9563 259.744 53.898C260.427 52.9862 261.291 52.1586 262.219 51.4963C263.211 50.7885 264.276 51.0417 265.198 51.9476ZM264.182 56.7584C263.963 56.1503 263.804 55.5113 263.511 54.9411C263.028 54.0012 262.363 53.9279 261.633 54.6701C261.439 54.8662 261.274 55.0918 261.11 55.3141C260.423 56.2463 260.43 56.4628 261.346 57.1509C262.235 57.8194 263.167 58.4311 264.081 59.0677C264.156 59.0416 264.232 59.0155 264.308 58.9894C264.266 58.2852 264.224 57.581 264.182 56.7584Z" fill="white"/>
<path d="M306.204 68.5786C304.503 69.6131 302.852 70.6387 301.165 71.604C300.4 72.0423 299.579 72.3952 298.757 72.7175C298.434 72.844 298.013 72.8676 297.68 72.7782C297.377 72.697 297.171 72.3496 297.443 72.0284C297.853 71.5433 298.258 71.0255 298.762 70.6539C300.864 69.1062 303.035 67.6513 305.115 66.076C306.429 65.0805 307.743 64.0455 308.629 62.4885C307.886 61.9554 307.105 61.4186 306.351 60.8467C305.754 60.3938 305.141 59.9445 304.625 59.4071C304.148 58.9104 304.012 58.207 304.159 57.5511C304.612 55.517 305.476 53.6876 307.106 52.3115C307.749 51.7679 308.375 51.2433 309.339 51.2296C310.334 51.2156 311.603 52.1575 312.035 53.4309C312.615 55.1413 312.701 56.8536 312.296 58.6052C312.21 58.9778 312.278 59.4154 312.107 59.7327C311.754 60.3897 312.123 60.6471 312.567 61.0012C313.076 61.4067 313.851 61.7117 313.716 62.5464C313.571 63.437 313.329 64.3168 313.062 65.1802C312.925 65.6207 312.587 65.5377 312.295 65.2701C311.77 64.7873 311.238 64.3115 310.725 63.816C310.388 63.4909 310.201 63.5645 310.008 63.9699C309.238 65.5822 308.08 66.8997 306.795 68.1153C306.626 68.2754 306.425 68.4027 306.204 68.5786ZM309.921 55.9478C309.787 55.6414 309.682 55.3175 309.513 55.032C308.945 54.0758 308.188 53.9515 307.473 54.726C307.148 55.0778 306.923 55.5224 306.655 55.9266C306.366 56.3626 306.582 56.6872 306.904 56.9755C307.029 57.0872 307.18 57.1695 307.319 57.2653C308.246 57.9048 309.174 58.5442 310.102 59.1837C310.178 59.1501 310.254 59.1165 310.331 59.0829C310.197 58.0743 310.062 57.0656 309.921 55.9478Z" fill="white"/>
<path d="M206.074 35.8793C207.921 35.0904 209.713 34.2957 211.513 33.5205C212.324 33.1714 213.153 32.865 213.971 32.5317C214.432 32.3436 214.581 32.6229 214.486 32.965C214.176 34.0794 213.775 35.219 212.681 35.7692C210.82 36.7048 208.906 37.5365 206.996 38.3699C205.105 39.195 203.191 39.9648 201.289 40.765C199.018 41.7206 196.748 42.678 194.482 43.6436C192.543 44.4695 190.61 45.3081 188.675 46.1412C188.502 46.2158 188.333 46.3409 188.155 46.3543C187.936 46.3708 187.668 46.3529 187.505 46.234C187.424 46.1743 187.509 45.8532 187.556 45.6595C187.626 45.3737 187.77 45.102 187.812 44.814C187.951 43.8551 188.515 43.2823 189.38 42.9204C193.013 41.4004 196.642 39.8703 200.269 38.3373C202.19 37.5257 204.104 36.7005 206.074 35.8793Z" fill="white"/>
<path d="M128.164 64.0061C128.714 63.4141 129.225 62.83 129.71 62.224C130.122 61.7074 130.5 61.1634 130.9 60.6358C131.174 60.2733 131.705 60.2146 132.051 60.4779C133.305 61.4295 134.547 62.3985 135.832 63.3056C136.221 63.5804 136.269 63.7631 135.997 64.1176C135.13 65.2483 134.306 66.415 133.396 67.51C133.093 67.8744 132.54 67.9808 132.089 67.6807C131.241 67.117 130.414 66.5201 129.602 65.906C129.288 65.6688 129.16 65.656 128.911 66.0187C128.249 66.9828 127.561 67.9398 126.778 68.8039C126.544 69.062 125.82 69.2224 125.563 69.055C124.213 68.1756 122.925 67.1972 121.664 66.191C121.522 66.0771 121.576 65.4927 121.735 65.2631C122.499 64.1636 123.33 63.1109 124.137 62.042C124.53 61.5219 125.003 61.5191 125.504 61.9388C126.355 62.6509 127.242 63.3183 128.164 64.0061Z" fill="white"/>
<path d="M209.338 71.7253C210.161 70.6075 210.933 69.5116 211.767 68.465C211.893 68.307 212.399 68.2467 212.571 68.3671C213.202 68.8083 213.749 69.3678 214.361 69.8393C214.999 70.3312 215.666 70.7875 216.34 71.2316C216.771 71.5162 216.866 71.7479 216.507 72.2117C215.794 73.1323 215.157 74.1127 214.499 75.075C214.105 75.6512 213.406 76.1002 212.601 75.5527C211.811 75.015 211.018 74.4769 210.269 73.8854C209.884 73.5819 209.714 73.815 209.531 74.0558C208.86 74.9365 208.226 75.8457 207.534 76.7089C207.201 77.1245 206.717 77.3043 206.203 77.014C204.931 76.2958 203.723 75.494 202.726 74.3997C202.324 73.9593 202.263 73.5436 202.6 73.0824C203.352 72.0514 204.114 71.0272 204.888 70.0127C205.255 69.5315 205.835 69.529 206.292 69.9234C207.038 70.5678 207.824 71.166 208.558 71.8232C208.877 72.1091 209.079 72.0529 209.338 71.7253Z" fill="white"/>
<path d="M278.027 60.7224C277.327 60.4118 277.281 59.8162 277.926 59.4289C278.937 58.8206 279.982 58.2672 281.018 57.6997C282.147 57.081 283.284 56.4754 284.413 55.8567C284.56 55.7766 284.682 55.6528 284.844 55.5269C283.371 54.8656 281.903 54.3199 280.327 54.434C278.649 54.5554 277.167 55.1771 276.102 56.5888C275.935 56.8105 275.579 56.8903 275.311 57.0357C275.265 56.7243 275.102 56.3746 275.19 56.1077C275.948 53.8148 277.369 52.1515 279.78 51.4957C280.96 51.1747 282.171 51.1007 283.348 51.4082C285.139 51.8757 286.899 52.4604 288.682 52.9568C289.199 53.1004 289.309 53.3907 289.147 53.8149C288.854 54.5802 288.524 55.3317 288.191 56.0807C288.133 56.2116 288.003 56.3617 287.874 56.402C286.973 56.6849 286.409 57.4224 285.696 57.96C284.235 59.0607 282.55 59.6593 280.786 60.0669C279.883 60.2756 278.984 60.5033 278.027 60.7224Z" fill="white"/>
<path d="M154.863 46.9621C154.683 47.0449 154.545 47.125 154.404 47.133C154.225 47.1431 154.015 47.1386 153.874 47.0512C153.809 47.0108 153.847 46.7511 153.887 46.6042C154.014 46.1376 154.158 45.6751 154.307 45.215C154.592 44.3409 155.292 43.9336 156.087 43.6151C159.23 42.3563 162.374 41.1023 165.506 39.8152C167.997 38.7911 170.469 37.7196 172.951 36.6726C173.998 36.2309 175.043 35.7831 176.101 35.3704C176.408 35.2507 176.758 35.2432 177.117 35.1793C177.351 36.2165 176.667 36.8765 176.275 37.613C175.718 38.6607 174.559 38.8604 173.593 39.2837C171.396 40.2455 169.173 41.1466 166.953 42.0528C164.558 43.0304 162.153 43.9829 159.754 44.9516C158.135 45.6054 156.52 46.2685 154.863 46.9621Z" fill="white"/>
<path d="M83.4496 60.0629C82.0714 60.6031 80.7531 61.161 79.4142 61.6642C79.0945 61.7843 78.7061 61.7217 78.2544 61.7489C78.5412 61.0009 78.8217 60.4476 78.9609 59.8607C79.1316 59.1412 79.6227 58.7767 80.2227 58.5276C84.2287 56.8649 88.2422 55.2202 92.2526 53.568C94.8615 52.4933 97.4693 51.4159 100.077 50.3393C100.464 50.1798 100.842 49.9939 101.239 49.8694C101.396 49.8199 101.623 49.8606 101.765 49.9475C101.829 49.9865 101.791 50.2474 101.75 50.3936C101.26 52.133 100.167 53.2258 98.4377 53.8595C96.0083 54.7496 93.647 55.825 91.2545 56.8164C88.7839 57.8402 86.3106 58.8578 83.8394 59.8804C83.7221 59.9289 83.6142 60 83.4496 60.0629Z" fill="white"/>
<path d="M208.827 54.943C207.492 55.478 206.223 55.5317 204.996 54.7992C204.677 54.6085 204.501 54.6311 204.278 54.9572C203.572 55.9895 202.655 56.6959 201.38 56.9795C199.278 57.4472 197.629 55.8474 198.063 53.6923C198.24 52.8133 198.587 51.9687 198.857 51.1084C199.028 50.5658 199.303 50.1759 200.086 50.4012C199.987 50.9649 199.888 51.5603 199.776 52.153C199.502 53.5933 200.289 54.3359 201.701 53.9918C203.109 53.6488 203.891 52.4179 204.124 51.0677C204.235 50.4255 204.157 49.6715 204.931 49.3276C205.236 49.1918 205.543 49.0589 205.856 48.9221C205.943 49.8203 205.965 50.5743 206.103 51.3062C206.225 51.9476 206.74 52.292 207.349 52.4344C208.068 52.6024 208.607 52.1394 209.046 51.7135C209.231 51.5328 209.16 50.9305 209.018 50.6006C208.67 49.7941 208.76 49.1243 209.322 48.4585C209.533 48.2084 209.597 47.839 209.784 47.5617C209.87 47.4337 210.093 47.3344 210.251 47.3395C210.356 47.343 210.51 47.5369 210.548 47.6722C211.072 49.5199 211.198 51.3608 210.427 53.1845C210.105 53.9464 209.714 54.6343 208.827 54.943Z" fill="white"/>
<path d="M90.2331 73.9965C89.098 72.9873 87.9945 72.0013 86.9451 70.9608C86.4227 70.4428 86.4818 70.1268 87.0083 69.5986C87.889 68.7149 88.7907 67.8508 89.6417 66.9394C90.0609 66.4904 90.53 66.5288 90.8797 67.032C91.6974 68.2087 92.701 69.1807 93.9143 69.9489C94.3243 70.2085 94.4162 70.5962 94.0319 70.9824C93.1059 71.9129 92.1945 72.8597 91.2291 73.7477C91.0176 73.9423 90.6063 73.9197 90.2331 73.9965Z" fill="white"/>
<path d="M205.995 62.1951C206.363 61.6962 206.636 61.1631 207.054 60.7942C207.243 60.6266 207.855 60.6402 208.045 60.8178C209.159 61.8605 210.372 62.7521 211.711 63.4725C212.082 63.6718 212.101 63.8927 211.879 64.1894C211.078 65.2626 210.269 66.3306 209.466 67.4035C209.086 67.9126 208.572 67.9636 208.083 67.6825C206.838 66.9675 205.625 66.2001 204.637 65.1275C204.277 64.7367 204.261 64.3963 204.586 63.9924C205.054 63.4118 205.503 62.8168 205.995 62.1951Z" fill="white"/>
<path d="M330.405 101.158C329.612 101.998 328.859 102.809 328.087 103.603C327.338 104.373 326.841 104.479 326.065 103.813C325.069 102.958 324.157 102.001 323.253 101.046C322.915 100.689 323.059 100.235 323.379 99.9068C324.31 98.9521 325.261 98.0179 326.206 97.0766C326.524 96.7598 326.848 96.7528 327.156 97.0839C327.643 97.6057 328.097 98.1609 328.611 98.6536C329.137 99.157 329.722 99.5971 330.273 100.074C330.616 100.371 330.965 100.682 330.405 101.158Z" fill="white"/>
<path d="M124.828 54.7764C125.323 54.1073 125.774 53.4646 126.25 52.8403C126.558 52.4353 126.992 52.4271 127.321 52.7447C128.417 53.8057 129.614 54.7201 130.961 55.4357C131.437 55.6888 131.346 56.051 131.104 56.3776C130.395 57.3362 129.663 58.2783 128.929 59.2181C128.416 59.8736 127.888 60.0168 127.192 59.551C126.152 58.855 125.149 58.0987 124.17 57.3174C123.659 56.9088 123.673 56.3131 124.079 55.788C124.326 55.4689 124.556 55.1369 124.828 54.7764Z" fill="white"/>
<path d="M280.431 69.7738C281.363 68.8454 282.256 67.9461 283.154 67.0528C283.582 66.6273 283.881 66.6645 284.299 67.0936C285.281 68.1016 286.278 69.0958 287.283 70.0815C287.663 70.4548 287.721 70.7805 287.313 71.1774C286.452 72.0147 285.613 72.8754 284.761 73.7219C284.399 74.0813 283.605 74.1459 283.246 73.7988C282.282 72.8658 281.365 71.8832 280.386 70.966C279.917 70.5264 280.157 70.1893 280.431 69.7738Z" fill="white"/>
</svg>
