<svg width="429" height="143" viewBox="0 0 429 143" fill="none" xmlns="http://www.w3.org/2000/svg">
<path d="M291.318 81.2572C290.037 81.5263 288.811 81.7722 287.584 82.0089C287.11 82.1003 286.755 81.6941 286.993 81.2423C287.444 80.3867 287.985 79.5781 288.496 78.7552C288.854 78.1807 289.286 77.6442 289.576 77.0386C290.053 76.042 290.979 75.7912 291.891 75.592C293.386 75.2658 294.9 75.0216 296.414 74.799C297.392 74.6552 298.384 74.5963 299.371 74.5261C301.591 74.3682 303.812 74.227 306.15 74.0712C306.08 73.1539 306.039 72.2123 305.928 71.2792C305.802 70.2211 305.617 69.1701 305.451 68.1169C305.256 66.8754 305.064 65.6334 304.853 64.3945C304.625 63.0533 304.377 61.7155 304.138 60.3761C303.892 58.995 303.637 57.6154 303.404 56.2321C303.156 54.7618 302.927 53.2883 302.692 51.8157C302.325 49.5069 302.335 47.1312 301.504 44.9053C301.187 44.0574 300.849 43.2113 300.438 42.4071C300.134 41.8136 300.236 41.3581 300.562 40.8238C301.176 39.8168 301.725 38.7706 302.299 37.7394C302.556 37.278 302.786 36.7997 303.067 36.3538C303.47 35.7152 303.904 35.7162 304.255 36.3758C304.511 36.8553 304.627 37.4115 304.896 37.8818C305.764 39.4009 306.676 40.895 307.567 42.4011C307.876 42.9226 308.302 43.4179 308.447 43.9834C308.698 44.972 307.914 45.6342 307.272 46.0979C306.051 46.9793 306.001 48.0625 306.254 49.3487C306.471 50.4567 306.599 51.5822 306.767 52.7C306.982 54.1344 307.208 55.5674 307.409 57.0037C307.561 58.0845 307.673 59.1709 307.82 60.2524C308.025 61.7542 308.255 63.2527 308.458 64.7546C308.608 65.8578 308.764 66.9616 308.861 68.07C308.982 69.4472 309.075 70.8285 309.124 72.21C309.18 73.7594 308.683 75.1779 307.94 76.5143C307.808 76.7515 307.584 76.9377 307.259 77.3142C309.115 77.9861 310.841 78.7082 312.626 79.2289C314.37 79.7377 316.162 80.1053 317.955 80.415C319.515 80.6846 321.102 80.8149 322.682 80.9559C324.509 81.1189 326.341 81.2169 328.17 81.3622C328.938 81.4232 329.704 81.5182 330.467 81.6252C331.233 81.7325 331.396 82.0533 331.087 82.7714C330.778 83.4873 330.478 84.2067 330.157 84.9169C329.957 85.3603 329.715 85.7851 329.51 86.2264C329.313 86.6479 329.14 87.0798 328.894 87.6517C327.772 87.4304 326.632 87.1871 325.484 86.9854C324.623 86.8341 323.757 86.6752 322.886 86.6266C320.482 86.4924 318.08 86.6415 315.733 87.1649C313.842 87.5866 311.965 88.1173 310.133 88.7486C306.85 89.8797 303.624 91.1768 300.34 92.3023C297.631 93.2305 294.89 94.0778 292.128 94.8292C290.698 95.218 289.191 95.3202 287.719 95.5527C284.233 96.1036 280.717 96.1509 277.204 96.0559C275.623 96.0132 274.038 95.7959 272.474 95.5386C270.826 95.2674 269.181 94.9254 267.572 94.4796C266.343 94.139 265.171 93.5884 263.92 93.1108C263.502 94.0569 263.116 95.1081 262.591 96.0849C261.361 98.3743 260.177 100.701 258.767 102.878C256.955 105.676 254.428 107.734 251.233 108.77C249.089 109.466 246.836 109.555 244.587 109.226C243.236 109.028 241.864 108.924 240.538 108.618C238.137 108.065 235.928 106.99 233.772 105.822C232.77 105.28 231.79 104.689 230.85 104.046C230.568 103.854 230.457 103.414 230.28 103.108C231.621 102.229 232.683 102.87 233.789 103.295C235.554 103.973 237.37 104.488 239.267 104.615C240.459 104.694 241.659 104.797 242.847 104.734C245.023 104.619 247.216 104.463 249.293 103.767C251.009 103.192 252.524 102.201 253.914 101.028C256.591 98.7687 258.484 95.9221 260.096 92.8591C260.35 92.3752 260.618 91.8985 260.876 91.4266C259.385 90.3486 258.039 89.1805 257.459 87.3356C257.039 85.9975 257.315 84.7081 257.704 83.4632C258.078 82.2677 258.649 81.1311 259.182 79.9914C259.265 79.8148 259.606 79.6846 259.831 79.678C259.963 79.6741 260.159 79.9371 260.229 80.1176C260.601 81.0731 260.844 82.0931 261.318 82.9918C262.083 84.4387 263.435 85.3154 264.827 86.0808C267.376 87.4812 270.087 88.4809 272.93 89.0706C274.494 89.395 276.088 89.6297 277.68 89.7486C279.953 89.9182 282.239 90.0594 284.514 89.998C286.544 89.9431 288.593 89.7358 290.585 89.3462C293.527 88.7708 296.458 88.084 299.334 87.2423C302.484 86.3205 305.567 85.1697 308.678 84.1131C308.805 84.0698 308.913 83.9689 309.176 83.8033C307.723 83.3046 306.433 82.8077 305.111 82.423C303.733 82.0222 302.33 81.6957 300.925 81.4027C300.11 81.2329 299.27 81.1558 298.437 81.1053C297.63 81.0563 296.816 81.0799 296.006 81.0978C294.462 81.1321 292.917 81.185 291.318 81.2572Z" fill="white"/>
<path d="M142.872 56.3811C143.091 57.2043 143.412 57.9617 143.503 58.7458C143.67 60.1814 143.803 61.6361 143.757 63.0767C143.719 64.301 143.363 65.5118 143.232 66.7377C143.131 67.6955 142.623 68.3764 141.931 68.9334C141.493 69.2859 140.969 69.5431 140.457 69.7901C137.622 71.1599 134.692 72.2845 131.613 72.9646C129.955 73.3309 128.279 73.6804 126.592 73.8382C124.434 74.0401 122.252 74.1736 120.089 74.0963C117.15 73.9911 114.23 73.5584 111.453 72.528C110.181 72.0559 108.988 71.3703 108.02 70.3675C107.521 69.8507 107.008 69.3481 106.528 68.8665C104.423 70.1679 102.712 71.8411 101.043 73.5654C98.6994 75.9877 97.0389 78.8201 95.9486 82.0001C95.3005 83.8906 94.7685 85.81 94.6396 87.8118C94.517 89.7154 94.2882 91.6332 94.4042 93.5265C94.655 97.6191 96.035 101.282 99.2454 104.026C101.151 105.656 103.397 106.689 105.8 107.38C107.738 107.938 109.716 108.248 111.732 108.299C113.955 108.355 116.179 108.429 118.402 108.418C119.762 108.411 121.122 108.28 122.478 108.164C124.255 108.013 126.028 107.814 127.805 107.649C128.899 107.547 129.998 107.495 131.09 107.375C132.429 107.228 133.76 107.007 135.1 106.867C136.663 106.704 138.231 106.585 139.798 106.471C140.042 106.453 140.304 106.531 140.541 106.613C140.989 106.768 141.054 107.105 140.847 107.486C140.438 108.237 139.772 108.698 138.983 108.952C137.018 109.585 135.054 110.222 133.07 110.79C130.048 111.656 127.018 112.495 123.976 113.286C122.215 113.744 120.437 114.164 118.643 114.458C115.939 114.9 113.195 115.032 110.466 114.849C107.294 114.637 104.241 113.912 101.385 112.401C98.3239 110.781 95.9582 108.496 94.271 105.494C92.9315 103.11 92.1063 100.547 91.7479 97.8414C91.5674 96.4794 91.4645 95.1064 91.3512 93.7363C91.2817 92.8947 91.1882 92.0461 91.2268 91.2062C91.4376 86.6247 92.2134 82.1915 94.3016 78.0199C95.6858 75.2546 97.0864 72.5091 98.8481 69.9704C100.09 68.1809 101.456 66.4775 102.822 64.6611C102.168 63.7868 101.143 63.097 99.874 63.1309C98.8199 63.1592 97.878 63.7287 97.0333 64.4068C96.7869 64.6045 96.4016 64.6292 96.08 64.7332C95.9919 64.3948 95.7721 64.0281 95.8377 63.7228C96.1668 62.1917 96.7184 60.7355 97.4958 59.3675C98.9896 56.7387 101.408 55.5307 104.254 55.0939C105.7 54.872 107.192 54.7581 108.649 54.84C110.842 54.9632 112.847 55.8053 114.653 57.0428C115.659 57.7323 115.888 58.8663 115.619 59.9377C115.294 61.233 114.743 62.4803 114.203 63.7102C113.8 64.6289 112.864 65.0246 112.073 65.5449C111.921 65.6455 111.744 65.7101 111.52 65.8203C112.986 66.7934 114.517 67.4182 116.164 67.8329C118.751 68.4843 121.377 68.5937 124.01 68.4529C125.648 68.3652 127.272 68.0331 128.904 67.8269C131.734 67.4695 134.446 66.6575 137.121 65.7108C138.311 65.2898 139.475 64.797 140.646 64.3239C141.082 64.1477 141.23 63.5111 140.886 62.9446C139.974 61.4443 139.022 59.9677 138.069 58.4927C137.723 57.9573 137.374 57.4108 136.943 56.9471C136.545 56.5194 136.777 56.0882 136.841 55.6955C137.104 54.0834 137.429 52.4813 137.746 50.8783C137.895 50.1234 138.45 49.9054 138.966 50.481C139.892 51.5137 140.784 52.5908 141.566 53.7338C142.108 54.5248 142.442 55.4577 142.872 56.3811Z" fill="white"/>
<path d="M186.734 57.4902C186.375 55.3339 186.011 53.2339 185.726 51.1231C185.459 49.148 185.416 47.1328 185.013 45.1895C184.709 43.7259 184.121 42.2798 183.419 40.9531C182.82 39.8206 182.836 38.973 183.642 37.9993C184.398 37.0859 185.037 36.0749 185.713 35.0968C186.217 34.3668 186.846 34.3506 187.126 35.1663C187.981 37.6617 189.442 39.8017 190.919 41.9414C191.288 42.4756 191.147 43.2424 190.597 43.8088C190.033 44.3901 189.511 45.0331 188.868 45.5124C188.037 46.1322 188.11 46.9609 188.248 47.7475C188.765 50.695 189.368 53.6274 189.917 56.5696C190.372 59.0141 190.829 61.4592 191.223 63.914C191.539 65.8752 191.788 67.8483 192.017 69.8218C192.229 71.6356 192.41 73.4546 192.541 75.2758C192.672 77.0912 192.808 78.9131 192.789 80.7306C192.773 82.3629 192.678 84.0165 192.384 85.6178C192.061 87.3755 190.682 88.2705 189.092 88.8477C187.561 89.4038 185.976 89.6884 184.352 89.7698C183.53 89.811 182.709 89.8852 181.887 89.8885C181.492 89.8901 181.35 90.0194 181.234 90.3932C180.379 93.1365 179.324 95.8084 177.94 98.324C176.831 100.341 175.682 102.362 174.306 104.198C173.178 105.702 171.666 106.89 169.983 107.832C168.322 108.76 166.564 109.379 164.712 109.72C163.888 109.871 163.03 109.835 162.187 109.878C157.736 110.107 153.458 109.277 149.318 107.702C147.847 107.142 146.428 106.443 144.987 105.803C144.892 105.761 144.813 105.683 144.726 105.623C144.365 105.373 144.144 104.968 144.351 104.625C144.512 104.358 144.986 104.092 145.282 104.129C146.068 104.228 146.855 104.431 147.602 104.703C149.178 105.277 150.781 105.727 152.445 105.931C153.383 106.046 154.327 106.181 155.267 106.179C156.253 106.177 157.247 106.08 158.221 105.919C159.768 105.664 161.314 105.373 162.838 105.004C165.279 104.413 167.437 103.225 169.404 101.678C172.398 99.3245 174.499 96.2501 176.382 93.0058C176.953 92.0218 177.45 90.9942 177.963 89.9777C178.062 89.7806 178.08 89.542 178.133 89.3304C176.252 88.6596 175.122 87.3724 174.838 85.4982C174.669 84.3876 174.769 83.2287 174.82 82.0948C174.854 81.3412 175.264 81.1453 175.96 81.4868C176.735 81.8667 177.463 82.3635 178.268 82.6527C179.154 82.9711 180.097 83.1585 181.029 83.3138C181.75 83.434 182.496 83.4711 183.228 83.4503C185.411 83.3883 187.544 83.0224 189.596 82.2504C190.347 81.9679 190.627 81.1334 190.434 80.1152C190.223 79.0057 190.095 77.8805 189.92 76.7639C189.696 75.333 189.468 73.9027 189.23 72.474C188.985 71.0051 188.73 69.538 188.475 68.0708C188.184 66.3949 187.882 64.7211 187.597 63.0441C187.355 61.6164 187.127 60.1861 186.902 58.7555C186.838 58.3536 186.808 57.9464 186.734 57.4902Z" fill="white"/>
<path d="M226.457 86.089C225.362 85.443 224.489 84.6959 224.297 83.3616C224.151 82.3461 224.412 81.4791 224.98 80.6726C226.294 78.8047 227.841 77.135 229.534 75.6183C230.952 74.348 232.413 73.1089 234.297 72.5145C235.927 72.0005 237.318 72.3409 238.522 73.5144C238.876 73.8595 239.175 74.2603 239.514 74.6211C240.217 75.3683 240.121 76.2212 239.672 76.9827C239.049 78.0382 238.34 79.0542 237.57 80.008C237.001 80.7135 236.437 80.6062 235.942 79.8514C235.618 79.3567 235.359 78.7995 234.957 78.379C233.911 77.2844 232.949 76.9514 231.552 77.7162C230.772 78.1434 230.099 78.7882 229.44 79.4013C229.282 79.5486 229.281 79.9862 229.359 80.2454C229.662 81.2606 230.554 81.7872 231.313 82.3983C232.31 83.2005 233.467 83.7123 234.709 84.021C235.099 84.118 235.497 84.1931 235.895 84.2457C238.185 84.5476 240.432 84.2504 242.669 83.7716C243.169 83.6646 243.687 83.6315 244.199 83.5984C244.543 83.5761 244.725 83.7993 244.544 84.0949C243.725 85.4272 242.882 86.7448 242.023 88.0508C241.926 88.1967 241.676 88.28 241.482 88.3163C240.168 88.5639 238.826 88.7019 237.537 89.0419C233.999 89.9751 230.612 91.3203 227.387 93.057C226.699 93.4273 226.033 93.8364 225.345 94.2058C225.165 94.3023 224.944 94.3402 224.737 94.3648C224.279 94.4194 224.119 94.1663 224.263 93.7703C224.63 92.7628 224.931 91.7103 225.457 90.7896C225.766 90.2497 226.428 89.8864 226.981 89.5184C227.63 89.0865 228.336 88.7415 229.009 88.3451C229.142 88.267 229.313 88.1349 229.327 88.0124C229.338 87.9134 229.154 87.7649 229.028 87.6838C228.192 87.1468 227.348 86.6221 226.457 86.089Z" fill="white"/>
<path d="M158.904 63.8872C159.078 65.3712 159.258 66.7941 159.422 68.2188C159.487 68.7753 159.529 69.3351 159.558 69.8946C159.612 70.9566 159.668 72.0191 159.688 73.0821C159.743 75.8746 159.89 78.6716 159.788 81.459C159.708 83.642 159.578 85.8569 158.773 87.9444C158.675 88.1993 158.594 88.4686 158.45 88.6963C158.238 89.0305 157.876 89.2811 157.52 89.084C157.255 88.9371 156.986 88.5624 156.957 88.2657C156.85 87.1901 156.842 86.1048 156.801 85.023C156.712 82.679 156.665 80.3326 156.525 77.9915C156.409 76.0381 156.207 74.0889 156.006 72.1416C155.813 70.2664 155.581 68.3951 155.353 66.5237C155.098 64.4428 154.826 62.3642 154.566 60.2839C154.344 58.5001 154.118 56.7166 153.912 54.9308C153.723 53.2897 153.547 51.6467 153.386 50.0025C153.24 48.5033 153.111 47.0022 152.993 45.5004C152.928 44.6805 152.857 43.8571 152.866 43.0361C152.889 40.9602 153.419 39.0053 154.453 37.2055C154.595 36.9574 154.991 36.69 155.24 36.7161C155.466 36.7399 155.77 37.1244 155.832 37.3969C155.996 38.1237 156.066 38.874 156.14 39.6183C156.326 41.5011 156.489 43.3861 156.669 45.2694C156.793 46.5731 156.911 47.8781 157.069 49.1779C157.264 50.79 157.51 52.3959 157.712 54.0072C157.865 55.2199 157.968 56.4386 158.119 57.6515C158.271 58.8809 158.463 60.1053 158.622 61.3339C158.73 62.1631 158.811 62.9957 158.904 63.8872Z" fill="white"/>
<path d="M203.591 76.6453C203.46 75.4126 203.342 74.2393 203.193 73.0699C202.989 71.4591 202.756 69.852 202.546 68.2419C202.361 66.8207 202.195 65.3971 202.013 63.9756C201.8 62.322 201.567 60.6709 201.365 59.0159C201.251 58.0775 201.192 57.1324 201.092 56.1921C200.926 54.6362 200.741 53.0823 200.575 51.5263C200.513 50.9477 200.454 50.3663 200.443 49.7852C200.422 48.6903 200.351 47.5863 200.459 46.5018C200.58 45.2826 200.827 44.0689 201.116 42.8762C201.262 42.2728 201.611 41.7167 201.885 41.147C202.068 40.7654 202.384 40.4687 202.805 40.6391C203.034 40.7318 203.26 41.0695 203.307 41.3296C203.449 42.106 203.505 42.8985 203.591 43.685C203.766 45.2836 203.941 46.8822 204.111 48.4813C204.206 49.3784 204.277 50.2782 204.383 51.1741C204.545 52.5547 204.733 53.9322 204.899 55.3125C205.041 56.5045 205.155 57.6998 205.303 58.8911C205.457 60.142 205.645 61.3888 205.802 62.6394C205.952 63.8296 206.076 65.023 206.221 66.2138C206.387 67.5724 206.576 68.9283 206.734 70.2878C206.843 71.2271 206.962 72.1686 207 73.1122C207.151 76.8238 207.404 80.5383 207.358 84.2484C207.325 86.8804 207.179 89.557 206.203 92.0709C206.058 92.4429 205.753 92.9 205.417 93.0176C204.812 93.2293 204.428 92.7802 204.385 91.9508C204.358 91.4486 204.388 90.9436 204.378 90.4402C204.338 88.5019 204.327 86.5621 204.238 84.626C204.155 82.8384 203.993 81.0542 203.85 79.2697C203.782 78.4138 203.679 77.5607 203.591 76.6453Z" fill="white"/>
<path d="M335.025 92.9144C335.025 92.2875 335.042 91.7183 335.022 91.1504C334.942 88.9384 334.875 86.7253 334.753 84.5155C334.668 82.9907 334.526 81.4677 334.361 79.9491C334.123 77.757 333.837 75.5701 333.581 73.38C333.355 71.4439 333.156 69.5044 332.917 67.5699C332.674 65.5976 332.371 63.6325 332.142 61.6587C331.968 60.1637 331.85 58.6614 331.744 57.1599C331.593 55.048 331.395 52.9348 331.37 50.8204C331.351 49.151 331.904 47.5694 332.688 46.0982C332.836 45.821 333.241 45.6808 333.527 45.4774C333.72 45.7786 334.042 46.0634 334.083 46.3837C334.265 47.8319 334.348 49.2923 334.505 50.7441C334.652 52.1044 334.86 53.458 335.017 54.8173C335.168 56.1178 335.27 57.4238 335.424 58.7237C335.575 59.9959 335.776 61.262 335.936 62.5332C336.084 63.7023 336.193 64.8762 336.342 66.045C336.545 67.6338 336.778 69.2188 336.984 70.8073C337.091 71.6365 337.186 72.4682 337.256 73.3013C337.441 75.4907 337.67 77.6788 337.766 79.8725C337.852 81.8391 337.84 83.8144 337.771 85.7824C337.683 88.2805 337.578 90.7906 336.719 93.1781C336.591 93.5319 336.279 93.9545 335.954 94.0723C335.381 94.2798 335.092 93.8824 335.025 92.9144Z" fill="white"/>
<path d="M233.392 58.7098C232.352 60.4723 231.164 62.0066 229.559 63.2675C226.903 65.3548 223.965 66.9272 220.952 68.3871C220.45 68.63 219.878 68.7478 219.325 68.8545C219.106 68.8969 218.67 68.7921 218.646 68.6841C218.582 68.3968 218.579 67.9825 218.746 67.7777C219.23 67.1854 219.751 66.5934 220.361 66.1398C223.037 64.1491 225.786 62.2562 228.432 60.2274C229.795 59.1817 231.076 57.9988 231.933 56.4979C230.518 55.4461 229.106 54.4012 227.7 53.3497C226.404 52.3807 226.396 51.0608 226.788 49.6906C227.505 47.1783 228.882 45.1018 230.983 43.5109C232.628 42.2648 234.53 43.0471 235.372 44.4565C236.472 46.2961 236.832 48.349 236.45 50.4907C236.254 51.5949 236.021 52.6928 235.839 53.7992C235.812 53.9643 235.929 54.2127 236.062 54.333C236.439 54.6765 236.921 54.9209 237.244 55.3041C237.575 55.6971 238.003 56.226 237.97 56.6638C237.895 57.6606 237.593 58.6462 237.324 59.6201C237.173 60.1681 236.715 60.2424 236.292 59.8349C235.788 59.3492 235.303 58.8429 234.8 58.356C234.038 57.6185 233.916 57.6439 233.429 58.6047C233.42 58.6229 233.424 58.6478 233.392 58.7098ZM233.821 51.1895C233.877 49.5348 233.614 47.9954 232.32 46.7953C231.859 46.3674 231.384 46.2905 230.942 46.7291C230.501 47.1673 230.104 47.6608 229.748 48.1721C229.165 49.0107 229.288 49.5052 230.118 50.0761C231.095 50.7483 232.059 51.4403 233.036 52.113C233.251 52.2609 233.497 52.3638 233.821 52.5366C233.821 52.0488 233.821 51.683 233.821 51.1895Z" fill="white"/>
<path d="M284.325 59.8348C285.152 59.0085 285.962 58.2316 286.734 57.4183C287.372 56.7455 287.311 56.5092 286.581 55.972C285.312 55.0376 284.045 54.099 282.812 53.1184C281.82 52.3295 281.838 51.2238 282.098 50.1329C282.69 47.6502 283.995 45.5944 285.917 43.9107C288.154 41.9497 290.352 43.4128 291.101 45.3045C291.962 47.4766 292.009 49.7319 291.53 52.005C291.4 52.6232 291.247 53.2371 291.135 53.8584C291.108 54.0052 291.15 54.2388 291.251 54.3215C291.694 54.6838 292.186 54.9856 292.63 55.3461C293.303 55.8919 293.318 56.6817 293.204 57.4217C293.09 58.1648 292.813 58.8849 292.585 59.608C292.409 60.1692 292.058 60.2384 291.614 59.8251C290.959 59.2158 290.301 58.6099 289.651 57.996C289.315 57.6781 289.187 57.8596 288.978 58.1758C288.03 59.6067 287.166 61.1227 286.03 62.3911C285.123 63.4042 283.912 64.1754 282.755 64.9287C280.346 66.4967 277.826 67.8734 275.129 68.8977C274.936 68.9712 274.712 69.004 274.505 68.9963C273.812 68.9706 273.5 68.5238 273.93 67.9914C274.534 67.243 275.268 66.5717 276.04 65.9907C278.706 63.9827 281.413 62.0284 284.104 60.052C284.173 60.0007 284.229 59.93 284.325 59.8348ZM287.367 51.5265C287.819 51.844 288.282 52.1469 288.719 52.483C289.141 52.8069 289.302 52.6695 289.283 52.1966C289.251 51.4189 289.219 50.6403 289.15 49.8654C289.044 48.6823 288.594 47.6531 287.7 46.8403C287.325 46.4994 286.889 46.3723 286.482 46.6871C286.033 47.0352 285.586 47.4283 285.262 47.8888C284.478 49.0024 284.508 49.4074 285.686 50.3308C286.205 50.7379 286.742 51.123 287.367 51.5265Z" fill="white"/>
<path d="M101.437 43.4681C102.438 42.7398 103.432 41.6123 103.992 40.5479C103.252 40.0055 102.492 39.4679 101.754 38.9027C101.126 38.4217 100.545 37.8768 99.902 37.4178C98.9615 36.7463 98.9371 35.7498 99.1326 34.8411C99.6799 32.2975 100.998 30.1811 103.13 28.6491C104.739 27.4931 106.725 28.1914 107.534 30.0094C108.702 32.6353 108.424 35.2646 107.737 37.9112C107.646 38.2609 107.63 38.433 107.945 38.6337C108.339 38.8846 108.685 39.2091 109.07 39.4757C109.748 39.9454 109.687 40.6527 109.596 41.3034C109.495 42.0296 109.273 42.7441 109.051 43.4469C108.87 44.0203 108.448 44.0317 108.015 43.5914C107.373 42.9369 106.679 42.3331 106.112 41.8051C105.054 43.1879 104.154 44.5614 103.055 45.7504C101.676 47.2431 99.9554 48.3505 98.1833 49.3379C96.6731 50.1793 95.1227 50.9505 93.5706 51.7132C93.1838 51.9032 92.7264 51.9676 92.293 52.0382C92.0047 52.0852 91.6138 52.122 91.5906 51.6937C91.5757 51.4195 91.644 51.0351 91.8276 50.8733C92.8077 50.0094 93.8116 49.1681 94.8525 48.3786C97.0216 46.7334 99.219 45.1256 101.437 43.4681ZM105.541 33.3487C105.418 33.0827 105.311 32.8078 105.17 32.5523C104.491 31.3288 103.588 30.924 102.625 32.1588C102.442 32.3938 102.232 32.6097 102.066 32.8557C101.624 33.5091 101.712 34.2221 102.276 34.6464C102.563 34.862 102.857 35.0691 103.156 35.2686C104.007 35.8371 104.861 36.3998 105.714 36.9647C105.781 36.9375 105.848 36.9103 105.915 36.8832C105.791 35.7417 105.666 34.6002 105.541 33.3487Z" fill="white"/>
<path d="M256.377 47.349C255.415 47.1441 254.5 46.8286 253.583 46.8215C251.946 46.8087 250.382 47.2335 249.084 48.3045C248.635 48.6749 248.318 49.2016 247.883 49.593C247.672 49.7825 247.329 49.8246 247.045 49.9334C246.981 49.6573 246.794 49.3407 246.87 49.111C247.924 45.9277 249.859 43.7068 253.347 43.0914C255.178 42.7684 256.846 43.2422 258.546 43.7629C260.097 44.2382 261.667 44.6528 263.233 45.0774C263.809 45.2337 264.087 45.5606 263.88 46.0685C263.492 47.0208 263.042 47.9487 262.598 48.877C262.521 49.0384 262.354 49.259 262.212 49.2709C261.219 49.3543 260.727 50.1852 260.085 50.7326C258.624 51.9776 256.908 52.6497 255.133 53.2177C253.83 53.6347 252.502 53.9755 251.182 54.3364C250.957 54.3978 250.693 54.459 250.484 54.3962C250.22 54.3166 249.89 54.161 249.783 53.9427C249.695 53.7652 249.813 53.3508 249.981 53.2091C250.513 52.7608 251.082 52.3391 251.689 52.0003C253.791 50.8266 255.916 49.6932 258.03 48.5413C258.195 48.4514 258.347 48.3368 258.624 48.1557C257.815 47.8695 257.12 47.6234 256.377 47.349Z" fill="white"/>
<path d="M172.169 54.4506C172.464 54.1427 172.726 53.8533 173.04 53.6402C173.254 53.4948 173.541 53.4559 173.795 53.3694C173.852 53.6664 173.986 53.9726 173.952 54.2587C173.831 55.2663 173.904 56.2062 174.589 57.0246C175.156 57.7028 176.143 57.9124 176.914 57.4965C178.135 56.8389 178.311 56.5028 177.812 55.1735C177.513 54.3792 177.572 53.7058 177.993 53.0073C178.276 52.5373 178.505 52.0345 178.796 51.5699C178.885 51.4272 179.128 51.2544 179.248 51.2874C179.414 51.3335 179.611 51.5392 179.656 51.7128C180.033 53.1486 180.351 54.6082 180.182 56.0971C179.996 57.7257 179.544 59.3031 178.208 60.3814C177.226 61.1744 175.986 61.4328 174.76 61.195C173.899 61.028 173.094 60.5704 172.274 60.2466C171.736 60.8769 171.173 61.7369 170.421 62.3722C169.044 63.5356 166.537 63.8998 165.185 62.4419C164.758 61.9824 164.426 61.3156 164.325 60.6988C164.115 59.4127 164.36 58.1353 164.874 56.93C165.087 56.4284 165.377 55.9598 165.602 55.4623C165.8 55.0227 166.184 54.9961 166.522 55.1096C166.637 55.1481 166.682 55.5987 166.645 55.8436C166.553 56.4478 166.326 57.0363 166.277 57.6411C166.129 59.4552 167.42 59.9657 168.916 59.5768C170.666 59.1219 171.417 57.7948 171.784 56.1608C171.908 55.6075 172.034 55.0546 172.169 54.4506Z" fill="white"/>
<path d="M128.315 98.4872C128.57 96.864 129.758 96.3154 131.056 95.8046C133.503 94.842 135.919 93.8027 138.35 92.8001C140.916 91.7418 143.486 90.6946 146.05 89.6311C147.08 89.2039 148.09 88.7273 149.125 88.3142C149.432 88.1917 149.795 88.2091 150.132 88.1624C150.082 88.5414 150.094 88.9435 149.966 89.2943C149.772 89.8267 149.498 90.3335 149.225 90.8333C148.641 91.9033 147.568 92.3321 146.538 92.7822C144.63 93.616 142.704 94.4072 140.783 95.2101C138.823 96.0293 136.858 96.8385 134.898 97.6569C133.17 98.3781 131.453 99.1266 129.714 99.8189C129.158 100.04 128.547 100.12 127.766 100.313C127.984 99.5644 128.134 99.0477 128.315 98.4872Z" fill="white"/>
<path d="M173.357 35.093C169.883 36.5064 166.46 37.9151 163.038 39.3235C162.63 39.4911 162.236 39.7188 161.812 39.8093C161.221 39.9354 160.984 39.6178 161.181 39.0615C161.385 38.4881 161.607 37.9207 161.793 37.3417C162.069 36.4857 162.752 36.072 163.507 35.7571C165.952 34.7367 168.406 33.7365 170.857 32.7277C173.093 31.8071 175.331 30.8915 177.563 29.9621C179.118 29.315 180.659 28.6362 182.217 27.9985C182.633 27.8282 183.09 27.757 183.714 27.5909C183.589 28.1194 183.575 28.4705 183.427 28.7509C183.024 29.5144 182.718 30.4383 182.09 30.9484C181.163 31.7007 180.017 32.2082 178.916 32.7148C177.101 33.5502 175.247 34.3015 173.357 35.093Z" fill="white"/>
<path d="M257.599 70.4485C256.768 70.5452 256.323 69.9299 255.877 69.5191C254.918 68.6373 254.078 67.6238 253.217 66.64C252.834 66.2019 252.912 65.7493 253.32 65.3314C254.476 64.148 255.597 62.9282 256.798 61.7934C256.98 61.6215 257.719 61.6827 257.859 61.8793C258.982 63.453 260.326 64.7788 261.893 65.9046C262.03 66.0031 262.038 66.5769 261.895 66.7226C260.69 67.949 259.442 69.1325 258.189 70.3106C258.072 70.4211 257.836 70.4055 257.599 70.4485Z" fill="white"/>
<path d="M310.938 105.51C310.7 105.79 310.487 106.03 310.294 106.286C309.958 106.733 309.034 106.832 308.571 106.496C307.159 105.473 305.96 104.248 304.909 102.855C304.562 102.396 304.553 101.947 304.855 101.635C306.018 100.432 307.239 99.2833 308.46 98.137C308.931 97.6951 309.42 97.8767 309.722 98.3176C310.711 99.764 311.946 100.96 313.38 101.957C313.843 102.28 313.878 102.557 313.473 102.968C312.643 103.809 311.806 104.641 310.938 105.51Z" fill="white"/>
<path d="M136.977 78.2907C138.037 79.7228 139.235 80.9385 140.69 81.8942C141.073 82.1455 141.191 82.447 140.795 82.8475C139.663 83.9923 138.562 85.1673 137.442 86.3235C137.061 86.7173 136.151 86.7724 135.751 86.3832C134.553 85.2179 133.376 84.0317 132.204 82.84C131.786 82.4148 131.821 81.9592 132.239 81.5402C133.338 80.4364 134.438 79.3337 135.543 78.2352C135.984 77.7969 136.45 77.8087 136.977 78.2907Z" fill="white"/>
</svg>
