<svg width="430" height="144" viewBox="0 0 430 144" fill="none" xmlns="http://www.w3.org/2000/svg">
<path d="M355.409 85.1027C356.503 85.4517 356.55 85.5618 356.095 86.5487C355.428 87.9961 354.765 89.445 354.058 90.9867C353.257 90.8349 352.435 90.7194 351.634 90.5191C349.509 89.9878 347.344 89.8724 345.184 90.0227C342.547 90.2064 339.964 90.7883 337.452 91.6202C334.386 92.6355 331.339 93.7075 328.289 94.7706C326.017 95.5627 323.772 96.44 321.48 97.1661C319.686 97.7343 317.854 98.2123 316.008 98.5731C314.619 98.8446 313.184 98.9182 311.765 98.9889C309.198 99.1167 306.625 99.281 304.059 99.2294C302.223 99.1926 300.392 98.8343 298.56 98.6085C296.528 98.3579 294.585 97.7633 292.689 97.0098C292.142 96.7927 291.623 96.5059 291.088 96.249C289.952 99.0653 288.594 101.787 287.042 104.427C286.143 105.954 285.103 107.32 283.833 108.524C281.867 110.39 279.599 111.643 276.868 111.977C274.98 112.208 273.118 112.044 271.234 111.866C267.685 111.53 264.523 110.134 261.421 108.528C260.688 108.149 259.975 107.726 259.285 107.273C258.922 107.036 258.508 106.644 258.774 106.201C258.951 105.905 259.478 105.613 259.804 105.655C260.653 105.765 261.504 105.992 262.308 106.296C265.518 107.508 268.855 107.81 272.225 107.573C274.53 107.411 276.831 106.992 278.91 105.871C280.416 105.059 281.771 104.012 282.889 102.71C283.969 101.452 285.042 100.173 285.968 98.8004C286.833 97.5204 287.5 96.1063 288.083 95.0584C287.239 94.0692 286.484 93.1925 285.738 92.3075C284.769 91.1568 284.69 89.7722 284.851 88.3843C285.036 86.7856 285.63 85.3017 286.404 83.8942C286.476 83.7636 286.517 83.5983 286.622 83.5073C286.783 83.3675 287.044 83.1468 287.161 83.1975C287.348 83.2783 287.506 83.5353 287.578 83.7509C287.784 84.3712 287.881 85.0329 288.128 85.6337C288.853 87.397 290.275 88.5162 291.855 89.4287C294.292 90.8361 296.931 91.754 299.667 92.3477C301.209 92.6825 302.789 92.8977 304.363 93.0246C306.442 93.1922 308.537 93.3413 310.618 93.2752C312.741 93.2078 314.863 92.9262 316.971 92.6381C320.596 92.1428 324.075 91.0194 327.567 89.9838C329.812 89.3183 332.012 88.5019 334.227 87.7412C334.43 87.6714 334.604 87.5147 334.791 87.3984C334.792 87.3123 334.793 87.2262 334.795 87.1402C332.286 86.4191 329.802 85.5904 327.261 85.0109C325.214 84.5439 323.087 84.4334 320.982 84.5895C318.991 84.7371 317.008 85.0095 315.024 85.2448C314.713 85.2816 314.418 85.4593 314.107 85.4902C313.457 85.555 313.132 85.2213 313.445 84.6901C314.384 83.0959 315.322 81.4752 316.49 80.0552C316.952 79.4939 317.998 79.3313 318.814 79.1695C320.322 78.8704 321.851 78.6575 323.381 78.4977C325.165 78.3114 326.96 78.2254 328.749 78.0863C329.803 78.0043 330.856 77.9038 332.026 77.8015C331.967 76.7448 331.961 75.6783 331.836 74.6261C331.671 73.2427 331.417 71.8698 331.194 70.4937C330.971 69.1188 330.744 67.7442 330.507 66.3716C330.216 64.6846 329.913 62.9996 329.614 61.314C329.367 59.9233 329.094 58.5368 328.877 57.1415C328.694 55.9712 328.566 54.792 328.43 53.6149C328.212 51.7217 327.868 49.8604 327.089 48.106C326.866 47.6019 326.562 47.1215 326.423 46.596C326.344 46.2973 326.451 45.889 326.604 45.5995C327.227 44.419 327.903 43.2662 328.556 42.1013C328.783 41.6965 328.967 41.2628 329.232 40.8853C329.507 40.4922 329.929 40.5292 330.163 40.9864C330.528 41.6993 330.775 42.4759 331.164 43.1736C331.907 44.5062 332.71 45.8055 333.5 47.1112C333.698 47.4387 333.967 47.7237 334.161 48.0531C334.524 48.6674 334.4 49.2948 333.809 49.9797C333.651 50.1623 333.495 50.3674 333.295 50.4893C331.87 51.3554 332.022 52.6724 332.251 54.0278C332.44 55.1493 332.61 56.2741 332.774 57.3995C333 58.9525 333.22 60.5063 333.427 62.0619C333.575 63.1732 333.686 64.2895 333.832 65.401C334.04 66.9785 334.284 68.5515 334.478 70.1307C334.639 71.4393 334.81 72.7515 334.866 74.0668C334.916 75.2443 334.89 76.4369 334.758 77.607C334.625 78.7877 334.075 79.8333 333.211 80.8443C334.034 81.2177 334.8 81.6104 335.598 81.9186C338.12 82.8931 340.727 83.5499 343.406 83.9135C345.04 84.1354 346.67 84.4121 348.31 84.5592C350.446 84.7508 352.592 84.8357 354.732 84.9746C354.941 84.9881 355.145 85.0584 355.409 85.1027Z" fill="white"/>
<path d="M181.114 85.7646C180.308 85.7462 180.242 85.6394 180.461 84.9128C180.988 83.1717 181.988 81.6876 183.038 80.2477C183.757 79.2604 184.95 79.0524 186.054 78.905C188.272 78.6087 190.509 78.4499 192.736 78.2173C194.274 78.0567 195.809 77.8676 197.346 77.691C198.137 77.6 198.408 77.2141 198.267 76.4619C197.991 74.9897 197.757 73.5094 197.474 72.0386C197.018 69.6687 196.532 67.3047 196.067 64.9365C195.696 63.0492 195.346 61.1578 194.973 59.271C194.679 57.7843 194.35 56.3046 194.061 54.817C193.694 52.928 193.327 51.0384 193.007 49.1411C192.725 47.4696 191.944 46.0131 191.165 44.5512C191.005 44.2511 190.83 43.9536 190.624 43.6841C190 42.8668 190.212 42.0874 190.683 41.3009C191.404 40.0974 192.124 38.893 192.827 37.679C193.033 37.3241 193.248 36.944 193.699 37.081C193.981 37.1663 194.327 37.4193 194.422 37.6793C195.321 40.1215 197.02 42.027 198.564 44.0376C199.586 45.3692 199.51 45.6511 198.501 47.0578C198.035 47.7084 197.424 48.2554 196.874 48.8441C196.555 49.1846 196.414 49.5115 196.536 50.0323C197.271 53.1863 197.952 56.3528 198.652 59.5149C199.356 62.6987 200.122 65.8704 200.746 69.07C201.153 71.1544 201.464 73.277 201.286 75.4142C201.137 77.2035 200.822 78.9733 200.101 80.6362C199.96 80.9596 199.921 81.1348 200.308 81.2692C202.837 82.1471 205.411 82.8571 208.06 83.2416C210.182 83.5496 212.313 83.8073 214.445 84.0354C216.099 84.2123 217.76 84.3271 219.42 84.4363C221.109 84.5473 222.801 84.6295 224.493 84.701C225.364 84.7379 225.696 85.0994 225.31 85.9011C224.631 87.3119 223.842 88.6711 223.044 90.0193C222.938 90.1976 222.486 90.2994 222.239 90.2424C219.869 89.6966 217.454 89.5817 215.061 89.7675C211.34 90.0564 207.704 90.8703 204.279 92.4076C202.447 93.2297 200.72 94.2888 198.884 95.0997C197.303 95.7977 195.645 96.3254 194.003 96.8734C192.22 97.4686 190.436 98.0828 188.615 98.5383C186.431 99.0844 184.204 99.4532 182.003 99.9328C179.872 100.397 177.716 100.558 175.55 100.442C173.568 100.335 171.607 100.023 169.786 99.1662C167.887 98.2728 166.452 96.8849 165.496 94.9905C164.221 92.4628 163.324 89.8225 162.956 87.0035C162.717 85.1715 162.46 83.3411 162.165 81.5174C161.845 79.5307 161.455 77.5552 161.126 75.5698C160.797 73.58 160.525 71.5805 160.19 69.5916C159.821 67.3968 159.396 65.2115 159.019 63.018C158.692 61.1167 158.414 59.2068 158.083 57.3062C157.764 55.4736 157.408 53.6474 157.061 51.8196C156.795 50.413 156.455 49.0161 156.278 47.5986C156.211 47.0649 156.484 46.4784 156.644 45.928C156.98 44.7678 157.316 43.6061 157.707 42.4641C157.885 41.9439 158.24 41.889 158.53 42.3693C158.862 42.9201 159.125 43.5509 159.253 44.1809C159.777 46.7568 160.248 49.3439 160.721 51.9302C161.171 54.3939 161.619 56.8583 162.033 59.3285C162.454 61.8462 162.814 64.374 163.231 66.8923C163.648 69.4063 164.108 71.913 164.54 74.4246C165.074 77.5274 165.542 80.643 166.149 83.7313C166.475 85.3931 166.85 87.0893 167.524 88.6287C168.74 91.4096 170.898 93.2608 173.892 93.951C174.992 94.2048 176.143 94.2547 177.274 94.3612C178.094 94.4385 178.924 94.5318 179.743 94.4858C182.186 94.3485 184.616 94.1401 187.024 93.6109C191.319 92.6671 195.409 91.13 199.478 89.5157C200.845 88.9735 202.2 88.4005 203.56 87.8416C203.564 87.7818 203.567 87.7219 203.571 87.6621C202.672 87.339 201.788 86.9653 200.872 86.7029C198.614 86.0562 196.37 85.3042 194.068 84.8916C192.056 84.5311 189.968 84.4318 187.921 84.4835C186.033 84.5312 184.121 84.7256 182.303 85.366C181.926 85.4989 181.548 85.6317 181.114 85.7646Z" fill="white"/>
<path d="M78.0011 103.898C79.1804 104.122 80.2995 104.384 81.4328 104.544C82.2679 104.662 83.1226 104.698 83.967 104.683C87.8972 104.612 91.4932 103.418 94.5737 100.996C95.9215 99.9364 97.0132 98.504 98.0633 97.1199C98.9294 95.9783 98.6117 94.5912 98.2152 93.345C97.1744 90.0738 96.0543 86.828 94.9524 83.5766C94.8305 83.2169 94.663 82.8576 94.4448 82.5494C94.0238 81.9547 93.9357 81.3658 94.1852 80.6672C94.6769 79.2904 95.095 77.887 95.5872 76.5104C95.6802 76.2503 96.0242 75.8535 96.1679 75.8868C96.4621 75.9551 96.7917 76.2217 96.9414 76.4972C97.3453 77.2403 97.684 78.0219 98.009 78.8048C98.4961 79.9781 98.9391 81.1699 99.4271 82.3428C99.5095 82.5406 99.6936 82.7704 99.8826 82.8373C101.755 83.4999 103.644 84.0634 105.669 84.0571C107.377 84.0519 108.787 83.367 110.133 82.4026C112.071 81.0143 113.447 79.1957 114.422 77.0349C114.626 76.5835 114.92 76.1197 115.54 76.246C115.974 76.3344 116.352 77.1207 116.182 77.6749C115.729 79.1504 115.228 80.6109 114.705 82.2027C115.854 83.2309 117.262 84.1787 118.898 84.6811C119.873 84.9802 120.75 84.4653 121.191 83.5601C121.516 82.8927 121.853 82.2263 122.112 81.532C122.681 80.0038 123.181 78.4494 123.762 76.926C123.909 76.5414 124.198 76.1589 124.525 75.9144C124.762 75.7374 125.205 75.683 125.487 75.7792C125.662 75.8392 125.833 76.3031 125.79 76.5483C125.603 77.6373 125.355 78.7172 125.091 79.7908C124.985 80.2177 124.781 80.6198 124.598 81.0943C125.684 81.6824 126.796 82.1632 128.031 82.3248C130.372 82.6309 132.193 81.5011 133.943 80.1748C135.677 78.8604 136.938 77.1487 138.073 75.3106C139.693 72.6868 141.574 70.2574 143.893 68.2177C145.057 67.1947 146.437 67.2011 147.835 67.7655C149.821 68.567 150.68 70.2106 150.954 72.1862C151.186 73.8588 151.242 75.5563 151.367 77.2434C151.424 78.0038 151.433 78.7683 151.506 79.5267C151.673 81.2461 151.028 82.7665 150.392 84.2921C150.229 84.6833 150.056 85.0702 149.885 85.4576C149.671 85.9396 149.319 86.1566 148.774 86.1722C147.557 86.2073 146.376 86.0928 145.234 85.6351C143.119 84.787 140.988 83.9759 138.88 83.1077C138.278 82.8597 137.71 82.5042 137.174 82.1295C136.822 81.884 136.711 81.8897 136.433 82.2623C135.522 83.4876 134.544 84.6647 133.569 85.8409C132.433 87.2108 130.811 87.6482 129.185 88.0027C126.727 88.5391 124.453 87.8 122.217 86.8227C121.769 87.6613 121.309 88.4944 120.874 89.3405C120.208 90.6369 119.299 91.1127 117.897 90.7816C115.955 90.3233 114.231 89.4305 112.823 87.9898C112.465 87.6241 112.168 87.1948 111.874 86.7729C111.661 86.468 111.543 86.3139 111.152 86.635C109.818 87.7306 108.404 88.6486 106.681 89.1102C104.844 89.6022 103.005 89.7819 101.176 89.7322C101.176 90.7101 101.192 91.6572 101.174 92.6035C101.102 96.2343 100.344 99.6836 98.5812 102.895C97.9204 104.099 96.8913 104.902 95.864 105.693C93.7132 107.351 91.3222 108.603 88.7068 109.327C87.1759 109.751 85.5904 109.999 84.0156 110.232C83.0529 110.374 82.0601 110.416 81.0875 110.368C78.0394 110.218 75.0849 109.654 72.4467 107.995C70.1383 106.543 68.7223 104.429 68.1229 101.782C67.8681 100.657 67.6733 99.5026 67.6104 98.3527C67.5614 97.4569 67.6846 96.5324 67.8627 95.6473C68.1941 94.0006 68.498 92.3307 69.0413 90.7495C69.6513 88.9743 70.5017 87.2812 71.2762 85.5655C71.4311 85.2225 71.6602 84.8565 71.9581 84.6539C72.1877 84.4978 72.6411 84.4605 72.8831 84.5868C73.2361 84.7711 73.2762 85.1865 73.0911 85.5778C72.4111 87.0148 71.6316 88.4157 71.0896 89.9037C70.65 91.1107 70.3625 92.4107 70.2447 93.6915C69.9736 96.6406 71.1188 99.137 73.1516 101.182C74.3926 102.43 76.0243 103.13 77.6557 103.765C77.7544 103.804 77.85 103.85 78.0011 103.898ZM148.213 79.0532C147.957 77.4035 147.203 75.9574 146.338 74.5703C145.659 73.4802 144.799 73.2283 143.557 73.4389C142.015 73.7004 141.133 74.7494 140.305 75.9169C140.032 76.3016 140.105 76.5621 140.503 76.788C141.457 77.33 142.359 77.9959 143.365 78.4077C144.747 78.9733 146.197 79.3785 147.635 79.7944C148.206 79.9596 148.352 79.7595 148.213 79.0532Z" fill="white"/>
<path d="M262.958 76.1027C263.923 75.7882 264.769 76.0929 265.499 76.5444C266.157 76.9514 266.678 77.5823 267.26 78.1138C268.052 78.8366 268.19 79.7107 267.679 80.6118C267.124 81.5921 266.537 82.5748 265.823 83.4384C265.126 84.2806 264.483 84.2571 263.945 83.1547C263.41 82.0574 262.607 81.1799 261.301 80.9769C261.173 80.957 261.016 80.9324 260.911 80.9862C259.994 81.4563 259.022 81.8548 258.192 82.4511C257.366 83.0445 257.386 83.7311 258.207 84.6106C259.587 86.089 261.171 87.2796 263.273 87.4787C264.609 87.6052 265.954 87.7686 267.288 87.7187C268.517 87.6727 269.736 87.3641 270.96 87.17C270.98 87.1668 270.998 87.1366 271.016 87.138C271.476 87.1735 271.935 87.2114 272.395 87.249C272.245 87.6067 272.137 87.9893 271.938 88.3173C271.345 89.3 270.726 90.2682 270.091 91.2242C269.981 91.3902 269.747 91.5609 269.559 91.5739C267.372 91.7254 265.313 92.4016 263.255 93.0854C260.497 94.0021 257.861 95.2041 255.297 96.5684C254.848 96.8068 254.439 97.1204 253.984 97.3427C253.726 97.4687 253.401 97.5581 253.126 97.5213C252.832 97.482 252.568 97.2945 252.743 96.8722C253.066 96.0891 253.392 95.3039 253.651 94.4982C253.912 93.688 254.558 93.3021 255.209 92.9132C256.098 92.383 257.002 91.8787 257.829 91.4034C256.493 90.534 255.049 89.7065 253.735 88.707C252.612 87.8525 252.404 86.1212 253.078 84.9237C254.145 83.027 255.53 81.3587 257.144 79.9137C258.325 78.8567 259.586 77.8788 260.881 76.9657C261.467 76.5527 262.222 76.383 262.958 76.1027Z" fill="white"/>
<path d="M235.324 76.7121C235.42 77.3888 235.509 78.0108 235.546 78.6359C235.609 79.6824 235.659 80.7306 235.679 81.7788C235.734 84.6345 235.863 87.4931 235.785 90.3456C235.726 92.4868 235.57 94.6515 234.873 96.7088C234.709 97.1924 234.615 97.9201 233.798 97.7964C233.631 97.7711 233.39 97.614 233.351 97.4714C233.211 96.9591 233.084 96.4295 233.061 95.9017C233.017 94.8893 233.064 93.8733 233.045 92.8593C233.014 91.1939 232.994 89.5271 232.907 87.8642C232.818 86.1523 232.668 84.4429 232.517 82.735C232.36 80.9687 232.196 79.2024 231.988 77.4417C231.707 75.0686 231.361 72.7032 231.08 70.33C230.91 68.8902 230.826 67.4402 230.673 65.998C230.47 64.0885 230.22 62.184 230.026 60.2736C229.902 59.0421 229.824 57.805 229.76 56.5685C229.693 55.2574 229.61 53.943 229.637 52.6322C229.674 50.8621 230.064 49.16 230.921 47.59C230.992 47.46 231.059 47.3108 231.169 47.2229C231.35 47.0786 231.588 46.8564 231.759 46.8899C231.95 46.9272 232.195 47.1916 232.237 47.3947C232.375 48.0658 232.462 48.7515 232.516 49.4357C232.664 51.3203 232.754 53.2098 232.926 55.0919C233.107 57.0691 233.343 59.0416 233.579 61.0131C233.826 63.0657 234.118 65.1127 234.358 67.166C234.522 68.5626 234.613 69.9675 234.766 71.3655C234.92 72.7792 235.118 74.188 235.279 75.601C235.319 75.9495 235.29 76.3059 235.324 76.7121Z" fill="white"/>
<path d="M361.363 70.964C361.534 72.3931 361.708 73.761 361.873 75.13C361.974 75.9661 362.09 76.8019 362.148 77.6414C362.297 79.8136 362.438 81.9868 362.542 84.1615C362.62 85.7814 362.747 87.4107 362.655 89.0245C362.521 91.3625 362.493 93.7288 361.755 95.992C361.643 96.3327 361.521 96.6962 361.302 96.9659C361.156 97.1465 360.83 97.2498 360.584 97.2518C360.447 97.2529 360.287 96.9884 360.176 96.8185C360.099 96.7011 360.055 96.542 360.051 96.3998C359.999 94.8225 359.983 93.2437 359.908 91.6677C359.8 89.3829 359.679 87.0977 359.509 84.8168C359.382 83.1144 359.189 81.416 358.986 79.7206C358.796 78.1403 358.537 76.5686 358.34 74.9892C358.142 73.4041 357.996 71.8126 357.803 70.2268C357.6 68.5596 357.355 66.8977 357.156 65.2301C357.038 64.241 356.978 63.245 356.883 62.2529C356.712 60.4652 356.469 58.6812 356.386 56.8895C356.336 55.8379 356.421 54.7476 356.657 53.724C356.901 52.6622 357.371 51.6464 357.811 50.6404C357.924 50.3798 358.291 50.2308 358.542 50.0305C358.693 50.2854 358.917 50.5236 358.979 50.7986C359.115 51.4031 359.188 52.0241 359.252 52.6421C359.437 54.428 359.603 56.2159 359.78 58.0025C359.909 59.2931 360.026 60.5853 360.183 61.8725C360.332 63.0885 360.543 64.2968 360.696 65.5123C360.85 66.7335 360.959 67.9602 361.103 69.1827C361.171 69.7584 361.275 70.3298 361.363 70.964Z" fill="white"/>
<path d="M312.54 48.3368C312.943 48.0918 313.279 47.7983 313.669 47.6639C315.181 47.1434 316.52 48.192 317.099 49.151C317.949 50.5623 318.316 52.1437 318.25 53.7537C318.191 55.178 317.869 56.5958 317.596 58.0034C317.532 58.3312 317.483 58.4633 317.804 58.6648C318.309 58.9821 318.793 59.3596 319.21 59.7862C319.665 60.2521 319.706 60.8846 319.559 61.4923C319.34 62.3935 319.067 63.2815 318.825 64.1465C318.294 64.2513 318.018 64.1256 317.684 63.7081C317.127 63.0114 316.38 62.4679 315.707 61.8535C315.11 62.8612 314.637 63.8146 314.023 64.665C312.986 66.0991 311.703 67.3269 310.199 68.2398C307.681 69.7673 305.104 71.1966 302.528 72.6229C302.148 72.8332 301.623 72.9039 301.186 72.8545C300.61 72.7894 300.467 72.2751 300.796 71.7649C301.532 70.6236 302.714 70.0048 303.758 69.2259C305.896 67.6297 308.091 66.1054 310.166 64.4314C311.347 63.4788 312.342 62.2924 313.411 61.2014C313.539 61.0709 313.603 60.8777 313.675 60.7522C312.438 59.8104 311.236 58.888 310.026 57.9756C308.456 56.7917 308.287 56.1209 308.749 54.2416C309.336 51.855 310.686 49.9595 312.54 48.3368ZM314.988 52.3912C314.886 52.2291 314.792 52.061 314.681 51.9058C314.11 51.1103 313.287 50.8072 312.771 51.2966C312.262 51.7793 311.826 52.3589 311.446 52.9526C311.117 53.4657 311.22 53.9929 311.744 54.3748C312.019 54.5753 312.302 54.7637 312.583 54.9558C313.54 55.6108 314.498 56.265 315.473 56.9317C315.736 55.0881 315.598 53.8544 314.988 52.3912Z" fill="white"/>
<path d="M257.053 58.33C256.235 57.6545 255.216 57.1916 255.062 56.0331C254.931 55.0554 255.162 54.1135 255.512 53.1909C256.189 51.4052 257.21 49.8644 258.642 48.6071C260.079 47.3455 261.171 47.1417 262.574 48.0039C263.74 48.7205 264.102 49.9406 264.4 51.1754C264.944 53.4235 264.62 55.6357 264.072 57.8281C263.975 58.213 263.884 58.4412 264.34 58.6801C264.825 58.9346 265.292 59.2985 265.643 59.7191C266.173 60.3536 266.054 61.1673 265.925 61.9076C265.817 62.526 265.553 63.1177 265.349 63.7183C265.142 64.3313 264.939 64.3701 264.458 63.9164C263.872 63.3632 263.283 62.813 262.686 62.2726C262.531 62.1327 262.34 62.0344 262.127 61.8915C261.743 62.5152 261.357 63.0958 261.018 63.703C260.046 65.4443 258.583 66.7035 257.041 67.8997C254.671 69.7377 251.989 71.0264 249.33 72.3525C248.867 72.5832 248.331 72.7183 247.816 72.7761C247.241 72.8407 246.889 72.3301 247.172 71.8299C247.423 71.3861 247.775 70.9565 248.181 70.652C249.904 69.3576 251.66 68.1083 253.41 66.8498C255.332 65.4669 257.291 64.127 258.901 62.3621C259.372 61.845 259.776 61.2649 260.21 60.7133C259.135 59.9045 258.11 59.1346 257.053 58.33ZM259.149 51.2637C258.792 51.6702 258.42 52.0649 258.081 52.4859C257.478 53.2349 257.638 54.0324 258.467 54.5298C258.775 54.7148 259.082 54.9035 259.377 55.1088C260.239 55.709 261.094 56.3185 262.031 56.98C262.031 56.2191 262.028 55.5644 262.032 54.9098C262.038 53.7419 261.699 52.6879 261.032 51.7317C260.526 51.0056 260.082 50.8665 259.149 51.2637Z" fill="white"/>
<path d="M100.388 63.9263C101.691 62.9973 102.956 62.084 104.201 61.1446C105.96 59.8171 107.743 58.5172 109.438 57.1099C110.171 56.5007 110.709 55.653 111.308 54.9456C109.926 53.8852 108.586 52.8703 107.261 51.8367C106.208 51.0149 106.371 49.9067 106.663 48.8262C107.115 47.1554 107.895 45.6207 109.121 44.4093C109.903 43.6378 110.659 42.6937 111.975 42.7418C113.289 42.7898 114.359 43.5423 114.884 45.0891C115.722 47.5593 115.533 50.0029 114.787 52.4455C114.762 52.5261 114.752 52.611 114.749 52.6239C115.307 53.4341 116.485 53.6572 116.58 54.742C116.64 55.4147 116.471 56.1103 116.379 56.7922C116.345 57.0408 116.243 57.2813 116.162 57.522C115.938 58.1861 115.57 58.2892 115.049 57.8048C114.578 57.3674 114.148 56.8862 113.682 56.4435C113.185 55.9709 113.014 56.0003 112.706 56.6502C112.031 58.0749 111.137 59.3527 109.922 60.3349C108.615 61.392 107.25 62.3974 105.818 63.2721C104.321 64.1864 102.722 64.9366 101.148 65.7172C100.761 65.9089 100.3 66.0001 99.8651 66.0302C99.1817 66.0775 98.9538 65.7157 99.316 65.0988C99.5737 64.6597 99.993 64.3164 100.388 63.9263ZM109.19 47.6072C108.988 48.0821 108.963 48.597 109.379 48.9098C110.399 49.6759 111.472 50.3706 112.526 51.0907C112.824 51.294 113.018 51.2256 113.03 50.8479C113.077 49.4568 112.981 48.0956 112.246 46.8543C111.589 45.7453 110.873 45.6336 109.982 46.5514C109.699 46.8429 109.468 47.1852 109.19 47.6072Z" fill="white"/>
<path d="M276.617 49.8677C278.37 48.1507 280.423 47.2957 282.819 47.5411C283.903 47.6521 284.962 48.0302 286.024 48.3167C287.431 48.696 288.826 49.118 290.234 49.4945C290.984 49.6952 291.199 49.9854 290.918 50.715C290.592 51.5601 290.198 52.3789 289.824 53.205C289.773 53.3191 289.689 53.4683 289.587 53.5023C288.241 53.9525 287.411 55.1298 286.264 55.863C284.891 56.741 283.398 57.2897 281.841 57.7101C281.026 57.93 280.228 58.2123 279.414 58.4339C279.027 58.5393 278.618 58.618 278.22 58.6141C277.974 58.6118 277.565 58.4769 277.522 58.3202C277.449 58.0538 277.507 57.6265 277.687 57.4399C278.051 57.064 278.509 56.7592 278.972 56.5054C280.292 55.7814 281.638 55.1052 282.966 54.3953C283.825 53.9362 284.666 53.445 285.522 52.9803C285.889 52.7811 285.852 52.5196 285.538 52.4019C284.048 51.8431 282.55 51.152 280.936 51.2489C278.793 51.3777 276.84 52.0348 275.576 54.0014C275.461 54.1808 275.065 54.1782 274.8 54.2601C274.739 54.0385 274.58 53.7889 274.634 53.5999C275.021 52.2322 275.712 51.0167 276.617 49.8677Z" fill="white"/>
<path d="M186.053 38.2878C183.354 39.4539 180.695 40.5885 178.034 41.7204C175.141 42.9516 172.247 44.1837 169.35 45.4079C168.593 45.7281 167.829 46.0354 167.059 46.3212C166.484 46.534 166.294 46.385 166.394 45.7809C166.679 44.0592 167.347 42.6646 169.154 41.992C171.348 41.1758 173.487 40.2121 175.646 39.3042C178.914 37.9302 182.181 36.5529 185.444 35.1691C186.47 34.7341 187.479 34.2567 188.511 33.8386C188.715 33.7561 189.091 33.7676 189.207 33.898C189.321 34.0255 189.276 34.396 189.176 34.5978C188.746 35.4691 188.368 36.3944 187.777 37.1476C187.384 37.6498 186.665 37.895 186.053 38.2878Z" fill="white"/>
<path d="M147.203 100.488C148.451 99.948 149.659 99.4484 150.856 98.9193C151.918 98.4496 152.955 97.9232 154.025 97.4721C154.402 97.3131 154.841 97.3028 155.322 97.2112C155.372 98.3917 154.749 99.2144 154.297 100.073C153.663 101.28 152.376 101.643 151.252 102.159C149.488 102.969 147.683 103.686 145.898 104.448C143.86 105.319 141.825 106.196 139.788 107.07C137.985 107.844 136.186 108.629 134.374 109.382C133.873 109.59 133.335 109.718 132.803 109.832C132.719 109.85 132.455 109.556 132.482 109.474C132.779 108.553 133.08 107.629 133.466 106.744C133.595 106.447 133.928 106.163 134.235 106.032C137.728 104.541 141.235 103.086 144.733 101.611C145.55 101.266 146.351 100.882 147.203 100.488Z" fill="white"/>
<path d="M182.952 71.2377C181.802 70.4172 180.942 69.3726 180.184 68.2633C180.029 68.0363 180.2 67.3736 180.44 67.121C181.525 65.9766 182.669 64.8844 183.846 63.8346C184.026 63.6738 184.581 63.7074 184.801 63.8706C185.226 64.1851 185.511 64.6837 185.9 65.0572C186.765 65.8881 187.641 66.7094 188.548 67.4935C189.001 67.8848 189.079 68.1835 188.657 68.6124C187.655 69.6299 186.647 70.6407 185.639 71.6516C185.046 72.2471 184.434 72.3189 183.75 71.8605C183.484 71.682 183.241 71.4688 182.952 71.2377Z" fill="white"/>
<path d="M332.087 107.253C331.654 106.759 331.19 106.344 330.857 105.841C330.544 105.368 330.524 104.86 331.02 104.388C332.055 103.405 333.043 102.373 334.052 101.361C334.608 100.804 334.973 100.828 335.508 101.41C336.249 102.217 336.989 103.025 337.764 103.799C338.157 104.19 338.619 104.513 339.059 104.855C339.475 105.177 339.51 105.523 339.152 105.897C338.125 106.97 337.086 108.033 336.081 109.128C335.606 109.646 334.924 109.624 334.537 109.37C333.655 108.791 332.912 107.999 332.087 107.253Z" fill="white"/>
<path d="M280.607 70.0078C280.7 69.7264 280.736 69.4443 280.895 69.2803C281.948 68.1885 283.024 67.1196 284.099 66.0485C284.507 65.6421 284.921 65.6432 285.317 66.0851C285.792 66.6145 286.198 67.2098 286.697 67.7136C287.357 68.3802 288.05 69.0197 288.78 69.6072C289.413 70.1164 289.45 70.1774 288.912 70.7374C287.896 71.7935 286.893 72.8619 285.877 73.9176C285.45 74.3615 284.752 74.3654 284.257 74.0183C282.96 73.1098 281.883 71.9764 280.895 70.7523C280.745 70.5662 280.7 70.294 280.607 70.0078Z" fill="white"/>
</svg>
