<svg width="429" height="143" viewBox="0 0 429 143" fill="none" xmlns="http://www.w3.org/2000/svg">
<path d="M289.437 95.156C288.713 94.8431 288.032 94.5523 287.376 94.2134C287.024 94.0314 286.926 94.1129 286.774 94.4678C286.013 96.2504 285.301 98.0631 284.398 99.7734C283.1 102.234 281.629 104.598 279.494 106.461C277.706 108.021 275.681 109.227 273.343 109.563C271.562 109.819 269.714 109.649 267.897 109.607C265.989 109.562 264.158 109.068 262.378 108.423C259.932 107.536 257.627 106.348 255.419 104.975C255.238 104.862 255.109 104.668 254.947 104.522C254.529 104.143 254.67 103.813 255.078 103.586C255.704 103.236 256.376 103.199 257.044 103.478C259.128 104.347 261.293 104.89 263.534 105.149C266.889 105.537 270.184 105.239 273.397 104.216C274.783 103.775 275.974 102.942 277.095 102.025C279.235 100.276 280.918 98.1437 282.297 95.7648C282.911 94.7059 283.477 93.6192 284.052 92.5687C283.378 91.9587 282.722 91.4069 282.115 90.8042C281.172 89.8664 280.622 88.6704 280.648 87.3811C280.681 85.7752 281.026 84.1859 281.787 82.7273C282.002 82.3154 282.154 81.8629 282.417 81.4866C282.553 81.292 282.874 81.1243 283.103 81.1346C283.244 81.141 283.417 81.4886 283.493 81.7112C283.649 82.168 283.713 82.6568 283.878 83.1095C284.605 85.1047 286.094 86.3828 287.882 87.4165C290.782 89.0932 293.956 89.9321 297.202 90.5398C298.421 90.7678 299.669 90.8642 300.909 90.9422C302.9 91.0674 304.897 91.2202 306.889 91.1856C308.469 91.1581 310.05 90.9114 311.619 90.6854C317.041 89.9046 322.229 88.2267 327.397 86.4834C328.421 86.1377 329.432 85.7493 330.594 85.3279C328.108 84.3252 325.736 83.5795 323.283 83.0462C321.105 82.5726 318.913 82.4471 316.713 82.5597C314.451 82.6754 312.184 82.8321 309.975 83.4262C309.739 83.4897 309.304 83.4274 309.214 83.2745C309.087 83.0585 309.088 82.6406 309.219 82.4183C310.057 80.999 310.884 79.5645 311.852 78.235C312.188 77.7726 312.882 77.4432 313.47 77.3152C315.07 76.9668 316.695 76.7187 318.319 76.508C319.516 76.3529 320.728 76.3199 321.933 76.2314C323.78 76.0958 325.628 75.9592 327.613 75.8129C327.514 74.7015 327.438 73.6094 327.313 72.523C327.193 71.4841 327.03 70.4501 326.874 69.4157C326.691 68.1934 326.508 66.9707 326.302 65.752C326.023 64.0959 325.724 62.4431 325.429 60.7897C325.191 59.4509 324.934 58.1153 324.707 56.7746C324.536 55.7652 324.363 54.754 324.254 53.7368C323.952 50.9233 323.655 48.1051 322.281 45.5625C321.885 44.8306 321.876 44.219 322.413 43.6317C323.385 42.5707 323.726 41.1836 324.378 39.9583C324.437 39.8467 324.456 39.6966 324.543 39.62C324.783 39.4095 325.043 39.09 325.304 39.0801C325.513 39.0722 325.841 39.4171 325.937 39.6726C326.857 42.1282 328.217 44.3305 329.733 46.4507C330.085 46.9435 329.915 47.6657 329.359 48.3098C329.188 48.5082 329.016 48.7229 328.801 48.8637C327.413 49.7724 327.57 51.0635 327.842 52.4279C328.054 53.4942 328.168 54.58 328.321 55.6577C328.49 56.8415 328.66 58.0251 328.818 59.2104C328.967 60.3347 329.095 61.4619 329.244 62.5862C329.395 63.7293 329.566 64.8698 329.72 66.0126C329.831 66.84 329.929 67.6692 330.03 68.498C330.206 69.9436 330.46 71.3853 330.534 72.8361C330.644 74.9856 330.343 77.0623 328.816 78.8814C330.014 79.3777 331.177 79.9037 332.371 80.344C334.505 81.1307 336.714 81.6254 338.975 81.8831C340.913 82.1041 342.85 82.3359 344.79 82.5356C345.926 82.6525 347.068 82.7118 348.207 82.8045C349.215 82.8865 350.226 82.9434 351.225 83.0836C351.645 83.1426 351.948 83.4383 351.721 83.9515C351.381 84.7218 351.043 85.4937 350.698 86.262C350.319 87.107 349.932 87.9487 349.494 88.9117C348.856 88.7776 348.159 88.6075 347.454 88.4878C346.258 88.2849 345.061 88.0111 343.856 87.948C339.83 87.7374 335.95 88.5742 332.114 89.7083C328.936 90.6476 325.877 91.891 322.797 93.0986C319.735 94.2998 316.603 95.3373 313.356 95.936C311.533 96.2722 309.684 96.4629 307.849 96.7379C304.879 97.183 301.884 97.0825 298.912 96.9569C295.706 96.8214 292.52 96.335 289.437 95.156Z" fill="white"/>
<path d="M214.989 53.6722C215.221 54.9175 215.419 56.1142 215.623 57.3097C215.859 58.6938 216.102 60.0766 216.34 61.4603C216.574 62.8228 216.801 64.1867 217.042 65.548C217.327 67.1593 217.629 68.7679 217.916 70.3788C218.2 71.9693 218.472 73.5621 218.756 75.1524C219.041 76.7417 219.369 78.3241 219.616 79.9191C219.839 81.357 220.068 82.8045 220.123 84.2543C220.171 85.4978 220.058 86.7634 219.865 87.9955C219.659 89.3069 219.293 90.5946 218.967 91.8853C218.548 93.5438 217.813 93.7791 216.281 93.8201C214.435 93.8696 212.648 93.4033 210.946 92.7087C209.369 92.0653 207.831 91.3238 206.269 90.6221C205.7 91.9758 205.118 93.3951 204.506 94.8015C204.288 95.301 204.025 95.785 203.738 96.2488C203.145 97.2101 202.145 97.1305 201.28 96.9684C199.238 96.5857 197.295 95.8712 195.567 94.6804C195.094 94.3549 194.691 93.9293 194.239 93.5354C193.45 94.0041 192.575 94.5488 191.677 95.0505C190.011 95.9808 188.179 96.3911 186.324 96.7402C184.137 97.1518 181.929 97.1836 179.721 97.1132C178.458 97.073 177.2 96.8753 175.941 96.7355C174.66 96.5933 173.533 97.2094 172.333 97.4582C169.691 98.0061 167.047 98.2467 164.43 97.4512C161.234 96.4794 159.339 94.162 158.408 91.0686C157.903 89.3918 157.653 87.6354 157.333 85.9066C157.039 84.3156 156.784 82.7166 156.548 81.1157C156.343 79.7189 156.203 78.3126 156.008 76.9141C155.814 75.5203 155.581 74.1321 155.379 72.7394C155.228 71.703 155.107 70.6622 154.958 69.6255C154.756 68.2109 154.533 66.7991 154.33 65.3845C154.181 64.348 154.058 63.3076 153.907 62.2715C153.706 60.9003 153.483 59.5325 153.282 58.1616C153.089 56.8518 152.915 55.5393 152.725 54.2292C152.528 52.8785 152.32 51.5295 152.118 50.1796C151.97 49.1881 151.82 48.1968 151.675 47.2046C151.531 46.2114 151.351 45.2206 151.272 44.222C151.236 43.7692 151.368 43.29 151.489 42.8401C151.795 41.7007 152.114 40.5633 152.483 39.4435C152.569 39.1825 152.878 38.9947 153.084 38.7733C153.273 38.9667 153.571 39.1305 153.633 39.3587C153.895 40.3139 154.119 41.2826 154.296 42.2573C154.624 44.0578 154.923 45.8638 155.206 47.6719C155.411 48.9802 155.554 50.298 155.753 51.6072C155.993 53.1861 156.278 54.7583 156.517 56.3374C156.719 57.6682 156.874 59.0058 157.066 60.3382C157.29 61.9005 157.53 63.4605 157.764 65.0215C157.924 66.0974 158.083 67.1737 158.247 68.2492C158.455 69.619 158.674 70.9873 158.877 72.358C159.027 73.3724 159.152 74.3904 159.299 75.4054C159.464 76.5451 159.653 77.6814 159.808 78.8224C159.96 79.947 160.077 81.0763 160.219 82.2023C160.517 84.5636 160.847 86.9082 162.301 88.9219C163.03 89.9312 163.959 90.6578 165.106 91.0685C166.292 91.4933 167.496 91.9319 168.73 92.1399C169.779 92.3169 170.896 92.2791 171.959 92.1468C173.277 91.983 174.588 91.6901 175.869 91.3332C177.81 90.7924 179.231 89.4494 180.436 87.9299C181.418 86.6903 182.2 85.2932 183.099 83.9848C183.252 83.7615 183.521 83.5468 183.776 83.4787C184.291 83.3414 184.565 83.5197 184.546 84.15C184.453 87.2029 183.276 89.8222 181.425 92.2419C182.809 92.587 184.184 92.3338 185.538 92.1181C186.977 91.8891 188.438 91.652 189.809 91.1845C191.628 90.5643 193.364 89.7356 194.817 88.3833C196.057 87.2285 196.976 85.9002 197.563 84.3236C197.862 83.5206 198.009 83.4441 199.12 83.4741C199.185 85.6882 198.381 87.6566 197.435 89.6376C198.64 90.0465 199.843 90.4978 201.073 90.8538C201.661 91.0238 202.299 91.0372 202.918 91.0769C203.562 91.1182 203.918 90.7229 204.113 90.1569C204.861 87.9875 205.589 85.8106 206.364 83.6508C206.559 83.1053 206.674 82.4124 207.511 82.4048C208.172 82.3989 208.471 82.6931 208.313 83.3184C208.038 84.4026 207.722 85.4761 207.426 86.555C207.404 86.636 207.41 86.7246 207.393 86.9141C209.235 87.1655 211.065 87.4744 212.908 87.6449C214.031 87.7489 215.179 87.7 216.306 87.6042C216.998 87.5454 217.316 86.9606 217.247 86.3043C217.099 84.8817 216.901 83.4632 216.683 82.0492C216.462 80.6201 216.196 79.1981 215.945 77.7737C215.661 76.1619 215.37 74.5514 215.087 72.9394C214.844 71.5565 214.61 70.172 214.368 68.789C214.126 67.4071 213.878 66.0263 213.633 64.6447C213.352 63.0535 213.071 61.4622 212.792 59.8707C212.549 58.4886 212.304 57.1067 212.067 55.7236C211.822 54.2977 211.57 52.8729 211.351 51.443C211.192 50.4091 211.18 49.3429 210.923 48.3372C210.707 47.4958 210.283 46.6928 209.859 45.923C208.994 44.3486 209.164 42.9208 210.234 41.5075C210.859 40.6831 211.362 39.7681 211.944 38.9102C212.087 38.7002 212.348 38.3933 212.512 38.4176C212.744 38.452 213.015 38.7132 213.132 38.9464C213.613 39.9075 214.007 40.9123 214.499 41.8671C214.942 42.7261 215.451 43.5532 215.967 44.3712C216.374 45.0157 216.787 45.6918 216.575 46.4493C216.405 47.0582 216.001 47.605 215.677 48.1662C215.54 48.405 215.353 48.6182 215.173 48.8295C214.38 49.7597 214.639 50.8762 214.655 51.9327C214.663 52.4975 214.851 53.0597 214.989 53.6722Z" fill="white"/>
<path d="M73.8658 88.2009C73.0296 91.4695 73.4198 94.4545 75.4224 97.1838C77.2325 99.6509 79.8466 100.7 82.6765 101.309C83.8451 101.56 85.0824 101.622 86.2814 101.578C90.5271 101.422 94.4174 100.21 97.7643 97.4861C99.792 95.836 101.38 93.8572 102.25 91.3805C102.429 90.8692 102.338 90.1866 102.171 89.6452C101.792 88.4221 101.338 87.2156 100.822 86.0432C100.048 84.2859 99.231 82.5452 98.3623 80.8331C97.7611 79.6479 97.0751 78.5011 96.3568 77.3824C96.1032 76.9876 96.1538 76.63 96.2224 76.2681C96.5026 74.7907 96.804 73.3165 97.1457 71.8523C97.2194 71.5365 97.4928 71.2674 97.6742 70.9768C97.9577 71.1563 98.3336 71.2725 98.5082 71.5268C99.13 72.4323 99.7032 73.3733 100.256 74.3235C100.658 75.0159 100.984 75.7528 101.379 76.45C101.476 76.6215 101.7 76.8122 101.882 76.8304C103.606 77.0026 105.316 77.3318 107.07 76.9271C108.128 76.6827 109.215 76.5274 110.071 75.8339C110.974 75.1019 111.829 74.2973 112.63 73.4535C114.014 71.9969 114.623 70.1409 115.124 68.2504C115.258 67.7418 115.432 67.3554 116.053 67.4244C116.544 67.4789 117.021 67.9606 116.959 68.5462C116.819 69.8808 116.631 71.2137 116.383 72.5322C116.22 73.3968 116.147 73.4422 116.932 73.5777C118.695 73.8822 120.469 74.1232 122.238 74.3922C122.771 74.4732 122.96 74.2347 122.892 73.7232C122.752 72.663 122.679 71.5902 122.474 70.5431C122.108 68.6736 122.155 66.8421 122.716 65.0195C122.97 64.1947 123.16 63.3491 123.438 62.5334C123.509 62.3276 123.825 62.054 123.999 62.0728C124.233 62.098 124.572 62.3396 124.634 62.5553C125.01 63.85 125.46 65.1472 125.617 66.4753C125.838 68.3428 125.974 70.2456 125.879 72.1198C125.733 75.0035 124.97 77.7172 122.943 79.9417C122.047 80.9252 120.902 80.9755 119.783 80.7986C118.392 80.579 117.028 80.1651 115.672 79.7686C115.074 79.5938 114.518 79.2675 113.954 78.9869C113.556 78.7889 113.24 78.8022 112.925 79.1574C110.737 81.626 107.841 82.7108 104.711 83.3322C104.507 83.3726 104.312 83.4531 104.117 83.5138C104.256 84.5008 104.462 85.4646 104.512 86.4365C104.6 88.1564 104.689 89.8864 104.596 91.6024C104.518 93.0629 104.281 94.5329 103.938 95.9561C103.565 97.5036 102.895 98.9154 101.738 100.116C99.5511 102.386 97.0673 104.211 94.1994 105.487C92.2078 106.373 90.1421 107.077 87.9428 107.245C86.4338 107.36 84.9157 107.55 83.411 107.486C80.5977 107.366 77.8954 106.736 75.6057 104.965C73.7987 103.567 72.7431 101.668 72.004 99.5252C71.2719 97.4034 71.2685 95.2286 71.4032 93.064C71.5098 91.3523 71.8269 89.6357 72.2337 87.9659C72.6054 86.4401 73.2139 84.9709 73.7402 83.4847C73.8442 83.1912 74.0098 82.898 74.2177 82.6687C74.4498 82.4125 74.7135 82.1141 75.1496 82.4002C75.5245 82.6461 75.6525 82.9206 75.4935 83.3614C75.015 84.6878 74.5594 86.0224 74.0998 87.3555C74.0106 87.6144 73.9435 87.8809 73.8658 88.2009Z" fill="white"/>
<path d="M135.111 91.4779C138.181 90.8645 141.193 90.2579 144.202 89.6328C144.925 89.4827 145.648 89.3094 146.346 89.0754C146.835 88.9117 147.198 88.5529 146.948 87.97C146.477 86.8738 146.04 85.754 145.462 84.7145C144.355 82.7224 143.004 80.8985 141.316 79.3472C139.929 78.0729 138.406 77.007 136.627 76.3413C136.43 76.2678 136.253 76.1442 136.166 76.0974C136.166 74.5281 136.15 73.0078 136.175 71.4881C136.183 70.9759 137.056 70.4572 137.582 70.5697C139.686 71.0203 141.495 72.0307 142.923 73.615C144.72 75.6081 146.384 77.7178 147.464 80.2081C148.147 81.7835 148.711 83.4073 148.778 85.1474C148.846 86.9056 148.939 88.6674 148.888 90.4238C148.859 91.4068 148.601 92.3919 148.37 93.3577C148.142 94.3126 147.321 94.6402 146.485 94.8624C144.873 95.2903 143.259 95.7174 141.632 96.0809C139.895 96.469 138.149 96.8295 136.393 97.1146C135.103 97.324 133.792 97.4181 132.486 97.5106C132 97.5451 131.49 97.4854 131.015 97.3689C130.144 97.1554 130.004 96.3434 129.882 95.6528C129.704 94.64 129.663 93.6006 129.604 92.5703C129.581 92.176 129.67 91.7753 129.719 91.2645C131.537 91.5439 133.286 92.0063 135.111 91.4779Z" fill="white"/>
<path d="M258.47 79.4102C256.959 78.3957 255.799 79.2464 254.66 80.0491C253.26 81.0351 253.36 81.6019 254.52 82.8133C255.715 84.0607 257.123 84.9692 258.794 85.3424C260.212 85.6592 261.659 85.8585 263.142 85.5834C264.505 85.3304 265.893 85.2022 267.273 85.0458C267.626 85.0057 267.991 85.0667 268.351 85.0813C268.23 85.4739 268.184 85.9115 267.976 86.2506C267.368 87.2439 266.706 88.2051 266.039 89.1605C265.926 89.3224 265.695 89.4535 265.497 89.4968C263.761 89.8764 261.998 90.1524 260.284 90.6136C257.279 91.4225 254.465 92.7301 251.712 94.1647C251.057 94.506 250.445 94.9321 249.78 95.2504C249.53 95.3698 249.187 95.2933 248.886 95.3062C248.906 95.022 248.863 94.715 248.956 94.4577C249.273 93.5878 249.638 92.7353 249.985 91.8765C250.031 91.7616 250.05 91.5965 250.137 91.5431C251.406 90.7591 252.685 89.9902 253.869 89.2735C252.583 88.4298 251.166 87.5088 249.76 86.5727C249.103 86.1355 248.703 84.6297 248.836 83.8954C249.091 82.486 250.003 81.4591 250.872 80.4326C251.771 79.3716 252.731 78.3496 253.76 77.4157C255.127 76.175 256.535 74.9591 258.347 74.3728C260.201 73.7731 261.687 74.22 262.952 75.7141C263.394 76.2358 263.976 76.6764 263.919 77.4474C263.888 77.8621 263.822 78.3052 263.642 78.6719C263.094 79.7859 262.548 80.9217 261.53 81.7029C261.005 82.1057 260.484 81.9124 260.098 81.375C259.612 80.6976 259.046 80.077 258.47 79.4102Z" fill="white"/>
<path d="M226.852 60.3576C226.72 59.4773 226.578 58.6584 226.463 57.8359C226.279 56.524 226.1 55.2113 225.943 53.896C225.832 52.9573 225.747 52.0147 225.676 51.0719C225.613 50.2303 225.514 49.3826 225.555 48.5436C225.639 46.7962 225.957 45.0911 226.778 43.5142C226.946 43.1915 227.148 42.8371 227.541 43.0053C227.765 43.1013 227.975 43.4439 228.021 43.7052C228.195 44.7134 228.296 45.7342 228.433 46.7492C228.638 48.2731 228.852 49.7958 229.058 51.3196C229.204 52.3999 229.331 53.4827 229.486 54.5616C229.683 55.933 229.9 57.3013 230.105 58.6714C230.295 59.9368 230.474 61.2039 230.668 62.4686C230.968 64.4267 231.296 66.3808 231.576 68.3418C231.785 69.8034 231.932 71.2736 232.113 72.7392C232.327 74.4803 232.557 76.2197 232.762 77.9619C232.835 78.5828 232.881 79.2093 232.896 79.8342C232.951 82.166 233.082 84.5016 233.001 86.8293C232.942 88.5291 232.615 90.2221 232.358 91.9106C232.301 92.2876 232.075 92.6585 231.859 92.9873C231.526 93.4923 231.054 93.45 230.802 92.8971C230.665 92.597 230.561 92.2573 230.545 91.9305C230.477 90.5411 230.493 89.1465 230.392 87.76C230.265 86.0043 230.054 84.2547 229.88 82.5024C229.747 81.1561 229.643 79.8063 229.476 78.4642C229.292 76.9829 229.044 75.5096 228.836 74.0311C228.649 72.6983 228.493 71.361 228.297 70.0297C228.079 68.5553 227.828 67.0857 227.595 65.6134C227.432 64.5821 227.269 63.5507 227.12 62.5174C227.019 61.8192 226.942 61.1175 226.852 60.3576Z" fill="white"/>
<path d="M254.357 57.5346C253.361 56.7135 252.327 55.9986 251.462 55.1171C250.769 54.4109 251.016 53.4457 251.239 52.5644C251.809 50.3103 252.937 48.3843 254.714 46.8814C255.369 46.3278 256.048 45.777 257.045 45.8517C258.045 45.9266 258.838 46.3498 259.4 47.1051C260.142 48.1029 260.478 49.2769 260.646 50.5186C260.913 52.4944 260.581 54.3866 260.049 56.2721C260.003 56.4353 260.133 56.7137 260.27 56.8485C260.508 57.0826 260.812 57.2512 261.094 57.4385C262.235 58.1967 262.228 59.2712 261.903 60.4198C261.771 60.8838 261.607 61.3415 261.415 61.7837C261.33 61.9793 261.131 62.2759 260.998 62.2683C260.741 62.2533 260.453 62.1031 260.251 61.9252C259.721 61.4574 259.22 60.9554 258.728 60.4466C258.256 59.9582 258.076 60.289 257.822 60.6876C257.208 61.6529 256.642 62.672 255.888 63.518C255.04 64.468 254.06 65.3232 253.042 66.093C250.788 67.7967 248.261 69.0513 245.726 70.2707C245.13 70.5573 244.454 70.7222 243.797 70.8222C243.276 70.9014 242.978 70.4312 243.292 70.0095C243.77 69.3674 244.304 68.7251 244.938 68.2478C247.655 66.2027 250.459 64.2714 253.144 62.1851C254.218 61.3498 255.064 60.2203 256.017 59.2275C256.266 58.9681 256.202 58.7993 255.912 58.6145C255.394 58.284 254.897 57.9192 254.357 57.5346ZM256.162 53.8187C256.739 54.2413 257.317 54.6639 257.966 55.1383C258.032 54.8326 258.133 54.593 258.127 54.3562C258.109 53.6678 258.104 52.9713 257.991 52.2951C257.83 51.329 257.476 50.4237 256.772 49.7031C256.254 49.1735 255.725 49.082 255.196 49.5688C254.747 49.982 254.402 50.5216 254.065 51.0402C253.635 51.7004 253.732 52.2289 254.327 52.6363C254.901 53.0286 255.497 53.3873 256.162 53.8187Z" fill="white"/>
<path d="M357.632 91.2491C357.734 92.381 357.436 93.385 357.092 94.3735C357.005 94.6229 356.821 94.8848 356.607 95.033C356.267 95.2685 355.85 95.3033 355.687 94.8166C355.535 94.3603 355.426 93.8702 355.41 93.3912C355.371 92.232 355.428 91.0697 355.39 89.9105C355.329 88.0698 355.256 86.2282 355.124 84.3915C354.993 82.5486 354.816 80.7074 354.6 78.8724C354.328 76.5591 353.984 74.2542 353.693 71.9429C353.455 70.0519 353.256 68.1561 353.03 66.2636C352.773 64.1171 352.477 61.9749 352.253 59.8251C352.11 58.451 352.14 57.0571 351.962 55.689C351.713 53.7722 352.057 51.9529 352.646 50.1584C352.816 49.6414 353.065 49.1397 353.353 48.6775C353.46 48.5059 353.787 48.3792 354.001 48.3962C354.17 48.4096 354.399 48.6477 354.46 48.8328C354.6 49.2502 354.694 49.693 354.732 50.132C354.882 51.8496 354.967 53.5734 355.144 55.2879C355.316 56.9456 355.585 58.593 355.785 60.2481C355.939 61.5261 356.032 62.8115 356.191 64.0888C356.387 65.6567 356.64 67.2174 356.835 68.7854C356.994 70.0626 357.121 71.3446 357.233 72.6269C357.381 74.3005 357.507 75.976 357.629 77.6517C357.728 79.009 357.832 80.3667 357.888 81.7262C357.958 83.4442 358.047 85.1656 358.006 86.8827C357.972 88.3198 357.763 89.7526 357.632 91.2491Z" fill="white"/>
<path d="M308.705 59.9007C309.471 58.9924 309.452 59.0193 308.583 58.3875C307.446 57.5603 306.352 56.6749 305.225 55.8339C304.209 55.076 304.071 53.9904 304.319 52.9196C304.736 51.1103 305.453 49.4083 306.85 48.09C307.421 47.5513 307.978 46.9949 308.579 46.4922C310.321 45.0362 312.453 46.4909 313.072 47.9455C313.693 49.4059 313.99 50.9367 313.847 52.5106C313.724 53.8762 313.457 55.2289 313.234 56.7198C313.475 56.9348 313.809 57.3761 314.253 57.5988C315.37 58.16 315.245 59.1406 315.152 60.0734C315.09 60.6916 314.84 61.2943 314.646 61.8949C314.433 62.5563 314.136 62.6151 313.633 62.1383C313.02 61.557 312.383 60.9996 311.785 60.4029C311.424 60.0417 311.285 60.214 311.1 60.5676C310.317 62.0684 309.475 63.5603 308.145 64.6317C306.643 65.8426 305.082 67.0041 303.438 68.0102C301.805 69.0096 300.044 69.8015 298.325 70.655C297.975 70.8286 297.564 70.9289 297.174 70.9532C296.931 70.9683 296.538 70.8385 296.46 70.6635C296.361 70.4398 296.409 70.0062 296.573 69.8359C297.174 69.2124 297.812 68.6117 298.502 68.0908C300.913 66.2724 303.383 64.53 305.767 62.6773C306.814 61.8642 307.708 60.8549 308.705 59.9007ZM311.056 51.8C310.794 50.9861 310.473 50.2065 309.803 49.6281C309.479 49.3483 309.109 49.1817 308.742 49.4932C308.318 49.8524 307.876 50.2224 307.56 50.671C306.681 51.9191 306.774 52.2606 308.016 53.0855C308.845 53.6362 309.656 54.2136 310.484 54.7652C310.693 54.9046 310.938 54.9909 311.301 55.1665C311.228 53.9758 311.164 52.9401 311.056 51.8Z" fill="white"/>
<path d="M101.361 56.0309C99.0591 57.3723 96.7998 58.6961 94.5129 59.9703C94.0483 60.2292 93.486 60.3307 92.9561 60.4477C92.6768 60.5093 92.2781 60.5416 92.2511 60.1116C92.2339 59.8376 92.2987 59.4567 92.4797 59.2896C93.2675 58.5628 94.0797 57.854 94.9411 57.2173C97.1098 55.6142 99.3559 54.1122 101.477 52.4502C102.47 51.6727 103.246 50.619 104.116 49.6942C102.998 48.8334 101.947 48.0183 100.889 47.2116C99.3397 46.0301 98.9759 45.535 99.6337 43.3666C100.171 41.594 101.154 40.0718 102.539 38.8368C102.926 38.4923 103.383 38.18 103.862 37.9957C105.244 37.4643 106.591 38.018 107.252 39.3432C107.889 40.62 108.247 41.9916 108.146 43.4065C108.049 44.7495 107.752 46.078 107.524 47.5383C107.799 47.7501 108.195 48.0723 108.609 48.3692C109.198 48.7918 109.522 49.5395 109.336 50.2364C109.152 50.9273 108.921 51.6063 108.697 52.2861C108.525 52.8097 108.294 52.8606 107.884 52.4834C107.327 51.9704 106.755 51.4718 106.22 50.9369C105.854 50.5714 105.722 50.7602 105.537 51.1081C104.823 52.4507 104.023 53.7382 102.88 54.7678C102.403 55.1976 101.89 55.5876 101.361 56.0309ZM105.673 45.7609C105.673 45.5644 105.66 45.3669 105.676 45.1716C105.778 43.8799 105.573 42.6805 104.781 41.5994C104.15 40.7378 103.379 40.677 102.731 41.5212C102.526 41.7888 102.347 42.0765 102.156 42.3552C101.687 43.0408 101.727 43.4824 102.374 43.9428C103.32 44.6163 104.289 45.2591 105.26 45.8963C105.352 45.9566 105.531 45.8839 105.673 45.7609Z" fill="white"/>
<path d="M195.887 39.3296C197.178 38.7923 198.426 38.2872 199.67 37.7695C200.727 37.329 201.744 36.7377 202.962 36.9329C203.102 36.9554 203.243 36.9781 203.39 37.0018C202.737 39.2929 201.741 40.2894 199.515 41.1483C197.572 41.8982 195.67 42.7543 193.748 43.559C191.69 44.4205 189.628 45.2728 187.571 46.1366C185.61 46.9601 183.657 47.8033 181.693 48.6196C179.341 49.597 176.98 50.5509 174.626 51.5228C173.109 52.1494 171.603 52.804 170.079 53.4152C169.655 53.5853 169.191 53.675 168.736 53.7338C168.633 53.7471 168.362 53.434 168.391 53.3459C168.664 52.5303 168.946 51.7128 169.304 50.9317C169.735 49.9895 170.756 49.914 171.566 49.5618C173.592 48.6802 175.642 47.852 177.681 46.9995C179.624 46.1875 181.564 45.3705 183.506 44.5581C185.293 43.811 187.08 43.0657 188.867 42.3222C190.986 41.4412 193.106 40.5648 195.223 39.6811C195.437 39.5917 195.636 39.4655 195.887 39.3296Z" fill="white"/>
<path d="M281.092 51.4892C281.239 51.3919 281.349 51.3282 281.451 51.2534C281.767 51.0205 281.768 50.7838 281.384 50.6644C280.279 50.3205 279.181 49.9242 278.05 49.6998C275.857 49.2648 273.95 49.9814 272.289 51.4051C272.024 51.632 271.899 52.0211 271.636 52.2508C271.435 52.4259 271.117 52.4673 270.852 52.5683C270.775 52.3609 270.582 52.1088 270.641 51.9537C270.994 51.0345 271.265 50.035 271.834 49.2608C272.482 48.3785 273.347 47.6133 274.24 46.9655C275.072 46.362 276.103 46.1543 277.143 45.9764C279.143 45.6342 280.898 46.3438 282.709 46.9639C283.822 47.3451 284.993 47.5615 286.14 47.8395C286.794 47.9978 286.97 48.2059 286.78 48.8292C286.53 49.6524 286.246 50.4687 285.917 51.2635C285.717 51.7483 285.322 52.0276 284.785 52.209C284.347 52.3567 283.963 52.7293 283.615 53.0647C281.707 54.9069 279.264 55.5902 276.808 56.2554C276.157 56.4315 275.51 56.621 274.866 56.8185C274.348 56.9774 273.827 57.036 273.434 56.6016C273.185 56.3272 273.52 55.5919 274.073 55.254C274.81 54.8036 275.581 54.4084 276.344 54.0025C277.911 53.1697 279.481 52.3455 281.092 51.4892Z" fill="white"/>
<path d="M184.242 69.0466C183.23 68.9725 182.415 67.4521 182.307 66.6389C182.056 64.7318 182.662 63.023 183.61 61.4056C183.802 61.078 184.027 60.7054 184.451 60.8877C184.937 61.0967 184.814 61.5232 184.675 61.9445C184.505 62.4651 184.369 63.0027 184.278 63.5431C184.033 65.0114 185.39 65.9956 187.026 65.5226C188.723 65.0318 189.544 63.7615 189.915 62.133C190.033 61.616 190.099 61.0869 190.184 60.5627C190.246 60.186 191.289 59.2857 191.679 59.2767C192.296 59.2625 192.179 59.6656 192.107 60.0366C191.913 61.0455 192.119 61.9973 192.655 62.8408C193.129 63.5872 194.069 63.7957 194.945 63.4734C196.205 63.0098 196.516 62.6031 196.066 61.3324C195.668 60.2084 195.856 59.3087 196.485 58.395C196.627 58.1889 196.711 57.9422 196.813 57.7102C196.987 57.3124 197.231 57.0436 197.763 57.2228C198.186 58.6037 198.556 60.0545 198.453 61.5625C198.346 63.1437 197.951 64.6827 196.951 65.9347C196.317 66.7288 195.307 67.0506 194.3 67.1511C193.013 67.2794 191.777 67.1172 190.74 66.2167C190.467 65.9797 190.316 66.1445 190.163 66.4285C189.671 67.3388 189.047 68.1228 188.117 68.6584C186.887 69.3674 185.615 69.4298 184.242 69.0466Z" fill="white"/>
<path d="M131.665 112.637C131.138 112.582 130.917 112.264 131.077 111.884C131.262 111.442 131.479 111.007 131.61 110.548C131.856 109.682 132.404 109.137 133.222 108.803C136.418 107.497 139.613 106.191 142.798 104.86C145.247 103.836 147.678 102.77 150.12 101.73C150.719 101.475 151.329 101.243 151.936 101.006C152.434 100.812 152.717 101.034 152.579 101.513C152.178 102.905 151.567 104.227 150.176 104.867C147.67 106.021 145.121 107.082 142.585 108.17C140.727 108.966 138.866 109.757 136.997 110.525C135.245 111.245 133.48 111.933 131.665 112.637Z" fill="white"/>
<path d="M282.285 71.4686C281.792 72.1229 281.173 72.5337 280.422 72.2583C279.889 72.0626 279.4 71.6481 278.99 71.2338C278.148 70.3839 277.353 69.485 276.58 68.572C276.268 68.204 276.283 67.8229 276.701 67.4303C277.768 66.4287 278.782 65.3715 279.819 64.3385C280.315 63.8441 280.817 63.8883 281.316 64.3814C282.527 65.5763 283.76 66.7486 284.99 67.9229C285.32 68.2373 285.275 68.4902 284.963 68.7945C284.071 69.664 283.199 70.5539 282.285 71.4686Z" fill="white"/>
<path d="M333.715 101.993C334.059 102.245 334.329 102.541 334.659 102.73C335.1 102.982 334.951 103.284 334.739 103.512C333.657 104.675 332.559 105.824 331.44 106.951C331.019 107.375 330.208 107.325 329.757 106.912C328.732 105.973 327.705 105.035 326.688 104.085C326.057 103.497 326.057 102.742 326.664 102.135C327.671 101.129 328.675 100.121 329.685 99.1195C330.139 98.6702 330.713 98.7355 331.134 99.2119C331.964 100.15 332.821 101.065 333.715 101.993Z" fill="white"/>
</svg>
