<svg width="429" height="143" viewBox="0 0 429 143" fill="none" xmlns="http://www.w3.org/2000/svg">
<path d="M271.637 82.9784C271.951 84.7738 272.916 86.1393 274.307 87.1208C277.371 89.2838 280.832 90.5068 284.502 91.2384C286.592 91.655 288.683 91.938 290.808 92.0041C292.155 92.046 293.509 92.1948 294.849 92.1104C296.771 91.9892 298.686 91.7257 300.598 91.4754C304.03 91.026 307.334 90.0319 310.625 89.0066C313.219 88.1987 315.792 87.3261 318.37 86.4703C318.508 86.4247 318.608 86.2684 318.726 86.1636C318.614 86.0557 318.52 85.8963 318.386 85.8473C315.785 84.8947 313.153 84.0059 310.408 83.6252C308.591 83.3732 306.727 83.2811 304.894 83.3636C302.616 83.4663 300.323 83.627 298.096 84.2304C297.909 84.281 297.511 84.1657 297.479 84.0524C297.405 83.7864 297.397 83.417 297.532 83.1918C298.153 82.1583 298.825 81.1545 299.495 80.1513C299.829 79.6523 300.098 78.9985 300.574 78.7318C301.363 78.2894 302.276 77.976 303.173 77.834C305.327 77.4929 307.5 77.2591 309.67 77.0288C310.958 76.8923 312.255 76.8476 313.548 76.7563C314.368 76.6984 315.187 76.6307 316.144 76.5568C316.076 75.5786 316.05 74.5489 315.925 73.5315C315.761 72.1999 315.528 70.8764 315.307 69.5524C315.069 68.1264 314.809 66.7041 314.561 65.2798C314.283 63.6876 314.011 62.0945 313.732 60.5026C313.501 59.1837 313.248 57.8684 313.033 56.5469C312.851 55.4302 312.669 54.3109 312.558 53.1858C312.316 50.7452 311.941 48.3389 310.768 46.1458C310.332 45.3306 310.358 44.7422 310.923 43.9234C311.754 42.7205 312.284 41.3121 312.987 40.0162C313.125 39.7626 313.449 39.5549 313.732 39.4593C313.869 39.4131 314.194 39.6309 314.289 39.8071C314.577 40.3427 314.749 40.9428 315.049 41.4703C315.956 43.0632 316.84 44.6747 317.85 46.2016C318.882 47.7615 318.44 47.8678 317.638 48.9725C317.353 49.3641 316.871 49.6071 316.553 49.9812C316.335 50.2383 316.103 50.6146 316.124 50.9202C316.202 52.0271 316.377 53.1276 316.529 54.2285C316.684 55.3488 316.857 56.4665 317.018 57.586C317.191 58.7905 317.364 59.995 317.527 61.2008C317.671 62.2606 317.799 63.3224 317.939 64.3827C318.155 66.0143 318.388 67.6437 318.587 69.2772C318.704 70.2375 318.788 71.2028 318.854 72.1681C318.92 73.1414 318.969 74.1171 318.985 75.0924C319.006 76.414 318.34 78.5814 317.306 79.6015C320.049 81.0257 322.969 81.9034 326 82.3986C328.212 82.7599 330.438 83.0459 332.663 83.3197C333.817 83.4617 334.984 83.5055 336.145 83.5915C337.349 83.6807 338.555 83.7451 339.756 83.8625C340.581 83.9433 340.743 84.1814 340.416 84.961C339.795 86.4374 339.126 87.8949 338.42 89.332C338.328 89.5192 337.879 89.6557 337.626 89.6177C336.43 89.4384 335.243 89.1938 334.055 88.9657C332.319 88.6325 330.575 88.6004 328.829 88.8496C327.417 89.0512 325.968 89.142 324.609 89.5354C321.353 90.4778 318.098 91.453 314.922 92.6304C310.91 94.1177 306.921 95.664 302.761 96.6838C301.113 97.0878 299.414 97.3209 297.724 97.5056C295.794 97.7165 293.849 97.7917 291.91 97.916C291.023 97.9727 290.13 98.089 289.249 98.0322C287.427 97.9147 285.61 97.7126 283.793 97.5206C281.806 97.3105 279.855 96.9122 277.98 96.2079C277.035 95.8532 276.107 95.452 275.15 95.063C274.441 96.611 273.811 98.2525 272.962 99.7707C271.806 101.835 270.647 103.935 269.189 105.783C267.391 108.062 265.024 109.672 262.13 110.419C260.035 110.96 257.943 110.794 255.827 110.687C253.956 110.592 252.136 110.246 250.41 109.589C247.769 108.585 245.198 107.395 242.858 105.782C242.642 105.634 242.452 105.207 242.507 104.97C242.565 104.728 242.925 104.416 243.178 104.391C243.701 104.339 244.266 104.374 244.77 104.521C246.547 105.04 248.277 105.763 250.08 106.135C251.445 106.416 252.895 106.331 254.307 106.315C255.556 106.3 256.81 106.206 258.051 106.056C260.398 105.772 262.545 104.964 264.448 103.513C266.618 101.859 268.377 99.8356 269.838 97.5588C270.679 96.2471 271.362 94.8341 272.12 93.461C271.665 93.0472 271.268 92.6527 270.837 92.3009C269.482 91.196 268.579 89.8237 268.672 88.0369C268.777 86.0091 269.343 84.078 270.41 82.3293C270.542 82.1141 270.889 82.0309 271.137 81.8865C271.272 82.1313 271.415 82.3725 271.538 82.6231C271.584 82.7148 271.584 82.8288 271.637 82.9784Z" fill="white"/>
<path d="M107.949 59.7063C107.515 60.7906 107.287 61.9483 106.67 62.8371C106.055 63.7253 105.051 64.3444 104.257 65.046C106.007 66.3498 108.208 66.934 110.428 67.2462C112.545 67.5439 114.733 67.6863 116.858 67.5093C120.75 67.1851 124.593 66.463 128.274 65.0654C129.612 64.5575 130.963 64.082 132.303 63.5797C132.896 63.3573 133.086 62.9287 132.746 62.3533C131.798 60.7528 130.811 59.1755 129.815 57.6042C129.531 57.1552 129.197 56.7264 128.828 56.3449C128.359 55.8606 128.614 55.3217 128.695 54.8416C128.949 53.3375 129.273 51.8446 129.608 50.3559C129.663 50.1095 129.909 49.7232 130.067 49.7228C130.349 49.7221 130.709 49.9001 130.899 50.1211C131.71 51.0607 132.544 51.9948 133.234 53.0215C134.376 54.721 135.155 56.5943 135.369 58.6531C135.502 59.9403 135.68 61.2433 135.607 62.526C135.516 64.1227 135.347 65.7544 134.449 67.162C133.862 68.0827 132.932 68.5991 131.953 68.9963C130.062 69.7638 128.192 70.6192 126.243 71.2012C124.241 71.7988 122.165 72.1735 120.102 72.5309C118.708 72.7722 117.282 72.8698 115.866 72.9309C114.335 72.997 112.79 73.0538 111.267 72.921C108.836 72.709 106.42 72.355 104.097 71.5147C102.381 70.894 100.992 69.8343 99.7676 68.5329C99.3521 68.0913 99.0796 68.0455 98.5385 68.4084C96.656 69.6711 95.0183 71.2039 93.4928 72.8532C90.6449 75.9323 88.9824 79.6324 88.0698 83.6846C87.6209 85.6778 87.4102 87.7013 87.3859 89.7547C87.3569 92.1986 87.5734 94.5813 88.4479 96.8856C89.3361 99.226 90.7675 101.15 92.7674 102.644C94.6891 104.08 96.8423 105.045 99.1781 105.553C100.529 105.846 101.907 106.033 103.282 106.186C104.588 106.331 105.906 106.426 107.219 106.44C108.915 106.457 110.612 106.392 112.307 106.324C113.711 106.267 115.115 106.19 116.514 106.059C118.5 105.873 120.48 105.62 122.464 105.414C123.897 105.265 125.333 105.137 126.768 105.017C128.443 104.876 130.119 104.733 131.797 104.639C132.099 104.623 132.662 104.817 132.675 104.955C132.707 105.286 132.587 105.791 132.344 105.96C131.624 106.459 130.859 106.976 130.033 107.226C126.077 108.422 122.107 109.573 118.12 110.658C115.734 111.308 113.316 111.855 110.893 112.351C109.825 112.57 108.708 112.568 107.612 112.634C106.507 112.7 105.398 112.785 104.293 112.759C101.159 112.687 98.1354 112.086 95.2533 110.803C93.0282 109.813 91.0873 108.435 89.4831 106.619C87.6076 104.495 86.3184 102.041 85.5554 99.3019C84.9268 97.0455 84.5113 94.7649 84.5117 92.4171C84.512 90.7955 84.3982 89.1639 84.5383 87.5545C84.7591 85.016 85.2733 82.5157 86.1225 80.1039C86.7024 78.4567 87.2034 76.7552 88.0115 75.2212C89.2208 72.9254 90.5953 70.7062 92.0397 68.5482C93.1337 66.9136 94.4464 65.4253 95.6876 63.839C95.0552 63.3341 94.4025 62.6106 93.3807 62.4231C92.3969 62.2426 91.5764 62.6373 90.7721 63.0867C90.3848 63.3032 90.0645 63.6385 89.6796 63.8608C89.2122 64.1308 88.866 63.9034 88.8504 63.3538C88.8165 62.1529 89.3105 61.0897 89.7501 60.0176C90.3689 58.5087 91.2479 57.1937 92.6081 56.2346C93.801 55.3934 95.1353 54.8612 96.5387 54.5691C97.708 54.3258 98.9212 54.1566 100.111 54.1768C102.646 54.2198 105.013 54.9681 107.076 56.4521C107.883 57.032 108.38 57.9098 108.048 59.0186C107.987 59.2211 108.004 59.4468 107.949 59.7063Z" fill="white"/>
<path d="M177.733 98.3153C177.441 98.3598 177.211 98.4367 176.98 98.4383C175.403 98.449 173.824 98.4922 172.25 98.4279C171.096 98.3807 169.951 98.1671 168.798 98.0681C168.445 98.0378 168.062 98.0834 167.725 98.1933C166.021 98.7497 164.292 99.1008 162.495 99.2679C160.816 99.424 159.2 99.3538 157.611 98.8367C155.393 98.1151 153.735 96.7141 152.558 94.6891C151.614 93.0644 151.162 91.3094 150.879 89.4799C150.603 87.6929 150.252 85.9175 149.977 84.1303C149.724 82.483 149.545 80.8245 149.304 79.175C149.068 77.5515 148.784 75.9349 148.544 74.3119C148.343 72.9591 148.173 71.6017 147.995 70.2456C147.775 68.5715 147.56 66.8968 147.344 65.2222C147.165 63.8434 147.004 62.4623 146.807 61.0863C146.617 59.7577 146.381 58.4357 146.185 57.108C146.028 56.0508 145.913 54.9876 145.757 53.9302C145.521 52.3277 145.268 50.7276 145.019 49.1271C144.789 47.6557 144.485 46.191 144.359 44.7111C144.311 44.1437 144.658 43.539 144.842 42.9567C145.185 41.8748 145.536 40.7958 145.894 39.7187C145.931 39.6072 146.03 39.5166 146.131 39.3736C146.692 39.9227 146.823 40.6032 146.94 41.2814C147.341 43.6092 147.75 45.9358 148.117 48.2689C148.412 50.1457 148.635 52.0337 148.919 53.9124C149.205 55.8079 149.546 57.6953 149.828 59.5916C150.157 61.8095 150.433 64.0353 150.759 66.2537C151.044 68.1934 151.387 70.1248 151.666 72.0652C151.916 73.801 152.098 75.5465 152.34 77.2836C152.581 79.0157 152.892 80.7384 153.111 82.473C153.343 84.3085 153.544 86.1341 154.149 87.9084C154.947 90.2488 156.524 91.7517 158.762 92.6604C160.249 93.2643 161.81 93.7178 163.389 93.6723C166.266 93.5894 169.174 93.2626 171.545 91.4378C173.15 90.2033 174.504 88.6516 175.588 86.9085C175.921 86.3712 176.169 85.7799 176.511 85.2481C176.668 85.0034 176.927 84.7352 177.189 84.6669C177.66 84.5442 177.968 84.7575 177.967 85.3241C177.964 87.0138 177.57 88.6221 176.848 90.1266C176.286 91.2992 175.567 92.3971 174.858 93.6329C175.48 93.6578 176.159 93.7665 176.818 93.6951C178.366 93.5276 179.937 93.4007 181.438 93.0189C182.893 92.6489 184.291 92.026 185.678 91.4302C186.902 90.9046 187.98 90.1333 188.901 89.1524C189.876 88.1148 190.586 86.9174 191.101 85.6008C191.295 85.1054 191.509 84.6762 192.126 84.6405C192.551 84.6159 192.887 84.9505 192.805 85.3628C192.423 87.2706 191.99 89.1625 190.908 91.0311C192.645 91.5404 194.321 92.0629 196.017 92.5141C196.737 92.7057 197.513 92.175 197.761 91.4525C198.568 89.1019 199.37 86.7498 200.177 84.3994C200.353 83.8849 200.684 83.5687 201.267 83.591C201.853 83.6134 202.089 83.9364 201.948 84.5094C201.655 85.6994 201.37 86.8913 201.054 88.1929C202.526 88.4145 203.965 88.6605 205.413 88.8399C206.503 88.9749 207.602 89.0637 208.698 89.0944C209.195 89.1083 209.721 88.9962 210.191 88.8248C210.831 88.591 211.187 87.8275 211.081 87.1625C210.729 84.9542 210.4 82.7421 210.025 80.5378C209.708 78.6742 209.324 76.822 208.998 74.9599C208.667 73.0729 208.384 71.1777 208.056 69.2902C207.776 67.6788 207.452 66.0751 207.166 64.4646C206.84 62.6214 206.544 60.7728 206.217 58.9296C205.857 56.9008 205.472 54.8766 205.111 52.8481C205.018 52.3218 204.9 51.7842 204.919 51.2563C204.981 49.525 204.35 48.0152 203.54 46.5474C202.772 45.1556 202.743 43.8322 203.83 42.5052C204.562 41.6115 205.122 40.5738 205.733 39.5844C206.087 39.0096 206.476 38.9606 206.792 39.5619C207.094 40.1352 207.221 40.8035 207.545 41.3612C208.286 42.6409 209.058 43.9072 209.897 45.1244C210.555 46.079 210.664 47.2225 210.034 48.1671C209.6 48.8195 209.165 49.4718 208.746 50.1344C208.273 50.8845 208.357 51.7073 208.493 52.5231C208.733 53.9706 208.989 55.4155 209.243 56.8606C209.535 58.5146 209.835 60.167 210.124 61.8214C210.362 63.1837 210.585 64.5487 210.821 65.9114C211.096 67.5033 211.377 69.0945 211.659 70.6851C211.946 72.2962 212.238 73.9065 212.529 75.5168C212.759 76.7921 213.006 78.0647 213.22 79.3428C213.403 80.4365 213.587 81.5323 213.701 82.6344C213.832 83.9005 213.998 85.1787 213.951 86.4442C213.858 88.937 213.577 91.4144 212.662 93.7726C212.333 94.6215 211.659 95.0788 210.826 95.1313C209.883 95.1907 208.92 95.102 207.979 94.9792C205.883 94.7057 203.986 93.792 202.058 93.0024C201.306 92.6943 200.622 92.2184 199.934 91.8336C199.207 93.5556 198.512 95.2211 197.803 96.8806C197.233 98.2138 196.198 98.6639 194.722 98.3427C192.57 97.8741 190.59 97.0179 188.76 95.8093C188.499 95.6375 188.271 95.3909 188.088 95.136C187.847 94.8021 187.624 94.8147 187.336 95.0477C185.708 96.3612 183.821 97.1532 181.817 97.6364C180.498 97.9543 179.136 98.0936 177.733 98.3153Z" fill="white"/>
<path d="M243.68 93.055C241.56 94.1113 239.498 95.1723 237.419 96.2007C237.183 96.3172 236.841 96.3072 236.583 96.2333C236.503 96.2105 236.465 95.758 236.535 95.5433C236.808 94.704 237.033 93.8245 237.467 93.0704C237.797 92.4978 238.367 92.0198 238.922 91.6313C239.608 91.1509 240.393 90.8127 241.127 90.3977C241.254 90.3258 241.338 90.178 241.442 90.0653C241.338 89.974 241.244 89.8677 241.13 89.7938C239.922 89.0161 238.674 88.295 237.51 87.4566C236.062 86.4134 236.221 84.3587 237.118 83.1477C238.06 81.8754 239.086 80.6611 240.127 79.4666C241.368 78.0427 242.806 76.827 244.416 75.8399C245.682 75.0633 247.024 74.5221 248.576 74.9114C249.902 75.2437 251.637 76.9526 251.669 78.2469C251.685 78.8721 251.351 79.5584 251.021 80.127C250.555 80.9302 249.99 81.689 249.383 82.3941C248.829 83.0374 248.316 82.9161 247.884 82.183C247.221 81.0566 246.487 79.9923 245.057 79.7722C244.739 79.7233 244.332 79.6569 244.092 79.8042C243.222 80.339 242.4 80.9541 241.571 81.5533C241.166 81.8456 241.27 82.2295 241.462 82.5902C242.13 83.8505 243.253 84.6331 244.435 85.3318C245.821 86.1511 247.338 86.4289 248.946 86.5102C250.955 86.6116 252.882 86.2616 254.82 85.8524C255.235 85.7646 255.685 85.8396 256.315 85.8396C256.104 86.279 255.955 86.6284 255.772 86.9586C255.332 87.7516 254.836 88.5159 254.439 89.3288C254.014 90.1961 253.247 90.3084 252.434 90.4295C249.577 90.855 246.858 91.7543 244.201 92.862C244.045 92.9268 243.888 92.9875 243.68 93.055Z" fill="white"/>
<path d="M223.466 97.7847C222.762 97.3123 222.828 96.5664 222.801 95.9205C222.737 94.3683 222.797 92.8114 222.775 91.2569C222.755 89.8219 222.722 88.3858 222.642 86.9531C222.54 85.1439 222.401 83.3364 222.25 81.5305C222.094 79.6669 221.912 77.8054 221.726 75.9444C221.562 74.3006 221.389 72.6576 221.2 71.0164C220.949 68.8251 220.661 66.6377 220.422 64.4451C220.296 63.2884 220.254 62.1227 220.148 60.9635C219.986 59.1877 219.794 57.4146 219.631 55.6389C219.563 54.9072 219.528 54.1719 219.497 53.4375C219.444 52.1783 219.371 50.9186 219.371 49.6591C219.371 47.6136 219.822 45.6574 220.674 43.7956C220.683 43.7768 220.671 43.7428 220.683 43.7322C220.97 43.4802 221.259 43.2304 221.548 42.9802C221.74 43.309 222.061 43.6232 222.099 43.969C222.244 45.2765 222.276 46.5961 222.391 47.9076C222.544 49.6402 222.738 51.3691 222.906 53.1004C223.004 54.107 223.073 55.1165 223.177 56.1225C223.341 57.7006 223.529 59.2762 223.694 60.8541C223.795 61.8164 223.863 62.7823 223.966 63.7444C224.13 65.2787 224.319 66.8103 224.482 68.3447C224.587 69.3285 224.653 70.3165 224.754 71.3007C224.919 72.9007 225.106 74.4984 225.27 76.0984C225.335 76.7208 225.376 77.3463 225.406 77.9713C225.459 79.0552 225.502 80.1397 225.539 81.2242C225.588 82.6369 225.699 84.0519 225.656 85.4622C225.579 88.0376 225.471 90.6156 225.25 93.1817C225.144 94.415 224.784 95.6324 224.469 96.8387C224.354 97.2815 224.136 97.7742 223.466 97.7847Z" fill="white"/>
<path d="M341.465 64.7914C341.291 63.219 341.113 61.7078 340.945 60.1954C340.886 59.6602 340.85 59.1222 340.809 58.5851C340.719 57.424 340.543 56.261 340.565 55.1018C340.602 53.1585 340.862 51.2398 341.837 49.4979C341.92 49.3503 341.988 49.1612 342.118 49.081C342.348 48.9391 342.624 48.7859 342.875 48.7947C343.023 48.7999 343.25 49.091 343.286 49.2827C343.416 49.9739 343.493 50.676 343.565 51.3765C343.748 53.1503 343.917 54.9255 344.092 56.7002C344.224 58.0472 344.333 59.397 344.494 60.7406C344.687 62.3532 344.935 63.959 345.137 65.5706C345.289 66.7835 345.393 68.0026 345.543 69.2158C345.696 70.4453 345.891 71.6695 346.045 72.8987C346.198 74.111 346.344 75.3248 346.455 76.5414C346.646 78.6436 346.888 80.7457 346.96 82.853C347.027 84.81 346.907 86.7739 346.854 88.7343C346.83 89.6002 346.822 90.472 346.711 91.3288C346.513 92.8567 346.404 94.4231 345.529 95.7666C345.415 95.9416 345.084 96.0618 344.861 96.0509C344.687 96.0425 344.399 95.8059 344.38 95.6442C344.286 94.8765 344.271 94.0995 344.22 93.3263C344.184 92.7934 344.116 92.262 344.098 91.7287C344.043 90.1188 344.052 88.5054 343.951 86.8987C343.823 84.8579 343.633 82.8201 343.429 80.7851C343.241 78.9093 343.012 77.0372 342.775 75.1669C342.578 73.6204 342.324 72.0812 342.13 70.5345C341.97 69.2569 341.868 67.9721 341.725 66.6922C341.656 66.0769 341.553 65.4654 341.465 64.7914Z" fill="white"/>
<path d="M247.757 56.6234C247.426 57.0804 247.867 57.2069 248.046 57.3778C248.336 57.6544 248.678 57.8807 249.014 58.1032C249.986 58.7461 249.846 59.7057 249.695 60.6271C249.597 61.224 249.366 61.8022 249.162 62.3776C248.972 62.9144 248.548 62.9944 248.122 62.6C247.517 62.0409 246.907 61.4873 246.314 60.917C245.965 60.5819 245.786 60.7007 245.598 61.0882C244.826 62.6872 243.847 64.1616 242.454 65.2681C241.01 66.4152 239.509 67.5098 237.939 68.4743C236.321 69.4681 234.601 70.2984 232.901 71.1524C232.481 71.3634 231.973 71.4527 231.497 71.4854C230.751 71.5367 230.497 71.1131 230.944 70.476C231.354 69.8913 231.863 69.3353 232.437 68.9133C235.02 67.0129 237.674 65.2081 240.235 63.2792C241.53 62.3035 242.738 61.1962 243.636 59.8002C243.859 59.4532 243.828 59.354 243.492 59.1109C242.144 58.137 240.812 57.1378 239.522 56.0885C238.448 55.2138 238.552 54.0264 238.873 52.8468C239.439 50.7647 240.467 48.9452 242.107 47.5212C242.837 46.8872 243.542 46.2017 244.666 46.2465C245.845 46.2934 246.733 46.7761 247.312 47.7578C248.011 48.9431 248.382 50.2461 248.409 51.6325C248.442 53.311 248.37 54.9768 247.757 56.6234ZM241.963 50.9409C241.229 52.1243 241.192 52.4231 242.086 53.1214C243.115 53.9262 244.246 54.6018 245.324 55.3457C245.658 55.5763 245.763 55.3795 245.774 55.1108C245.848 53.4471 245.701 51.8288 244.71 50.4035C244.206 49.678 243.483 49.5616 242.787 50.1222C242.512 50.3432 242.281 50.6181 241.963 50.9409Z" fill="white"/>
<path d="M301.873 55.6702C301.834 55.7377 301.819 55.7539 301.807 55.7724C300.973 57.1232 302.033 57.7232 302.89 58.3114C303.554 58.7668 303.71 59.3639 303.591 60.0339C303.445 60.8607 303.185 61.6701 302.936 62.475C302.764 63.029 302.255 63.1146 301.849 62.7024C301.164 62.0061 300.473 61.3163 299.748 60.5875C299.158 61.5602 298.672 62.4154 298.133 63.2359C297.101 64.8085 295.639 65.9441 294.141 67.0292C291.704 68.7941 289.021 70.1238 286.306 71.393C286.156 71.4633 286.006 71.5517 285.847 71.582C285.42 71.6632 284.972 71.7586 284.693 71.2818C284.433 70.8387 284.725 70.4697 284.992 70.2348C285.891 69.4436 286.826 68.6894 287.783 67.9683C289.957 66.3299 292.155 64.7242 294.337 63.096C295.668 62.102 296.862 60.975 297.659 59.48C296.617 58.7166 295.542 57.9705 294.517 57.1605C293.913 56.6834 293.322 56.1584 292.846 55.5593C292.118 54.6435 292.448 53.5859 292.755 52.6269C293.339 50.8055 294.27 49.1598 295.682 47.8382C296.144 47.4056 296.666 47.0115 297.22 46.7066C298.715 45.8828 300.33 46.5888 301.104 47.8702C301.828 49.0681 302.234 50.3912 302.161 51.8132C302.097 53.0832 301.988 54.351 301.873 55.6702ZM297.698 54.4793C298.277 54.8759 298.857 55.2725 299.538 55.7382C299.538 54.7713 299.594 53.9792 299.524 53.1987C299.433 52.2033 299.134 51.2438 298.509 50.4463C298.077 49.8951 297.291 49.5183 296.735 50.0708C296.291 50.5109 295.85 50.9668 295.491 51.4745C294.97 52.2114 295.117 52.719 295.89 53.2345C296.472 53.6228 297.049 54.0187 297.698 54.4793Z" fill="white"/>
<path d="M89.6377 35.5031C90.1239 33.7888 90.9387 32.2964 92.1645 31.0935C92.9351 30.3374 93.7123 29.4914 95.0004 29.5572C96.1431 29.6156 96.9525 30.2013 97.4016 31.1295C98.1716 32.7203 98.5459 34.416 98.1902 36.2145C97.9824 37.2654 97.8531 38.3318 97.681 39.4398C98.0842 39.7542 98.5856 40.1473 99.0894 40.5372C99.5271 40.876 99.5726 41.361 99.4845 41.8315C99.3043 42.7947 99.0624 43.7464 98.8007 44.9024C98.2759 44.5316 97.9392 44.3342 97.6517 44.0808C97.2545 43.7307 96.8862 43.3464 96.5209 42.9621C96.1554 42.5776 95.9585 42.6356 95.6682 43.0989C94.982 44.1938 94.3481 45.3731 93.4444 46.2668C92.3331 47.3655 91.0299 48.3058 89.6991 49.1379C87.9327 50.2423 86.0674 51.1908 84.2251 52.1697C83.886 52.3499 83.4546 52.418 83.0651 52.4201C82.8082 52.4215 82.412 52.271 82.331 52.0808C82.2488 51.8876 82.3967 51.4684 82.5821 51.3102C83.6884 50.3663 84.819 49.4488 85.9711 48.5609C87.9455 47.0395 89.9288 45.5291 91.9342 44.049C92.8698 43.3586 93.5248 42.4611 94.1313 41.5439C92.881 40.5864 91.6689 39.6851 90.4874 38.7454C89.441 37.9131 89.1791 37.0357 89.6377 35.5031ZM92.8722 33.3731C91.7382 34.5858 91.5621 35.2885 93.1601 36.2124C94.0637 36.7348 94.872 37.4219 95.8153 38.1011C95.8153 37.3003 95.901 36.6334 95.7939 35.999C95.6555 35.1795 95.4811 34.3258 95.1091 33.5953C94.5477 32.4931 93.8679 32.4527 92.8722 33.3731Z" fill="white"/>
<path d="M161.269 52.8337C161.361 52.4322 161.471 52.0891 161.541 51.738C161.817 50.3473 162.85 49.7572 164.04 49.2833C166.405 48.3417 168.755 47.3632 171.111 46.3974C173.136 45.5672 175.16 44.7362 177.182 43.9006C179.399 42.9845 181.614 42.0628 183.83 41.1433C186.259 40.135 188.688 39.1254 191.118 38.1187C191.876 37.8045 192.629 37.4712 193.403 37.2022C193.674 37.1082 194.003 37.1811 194.305 37.1778C194.289 37.4407 194.321 37.7175 194.249 37.9643C193.644 40.0517 192.182 41.2142 190.185 41.9485C187.837 42.8122 185.557 43.86 183.242 44.8145C180.986 45.7447 178.721 46.654 176.463 47.5797C174.126 48.5375 171.796 49.5119 169.457 50.4644C167.275 51.3529 165.086 52.2222 162.9 53.0998C162.568 53.2329 162.243 53.3882 161.902 53.4889C161.696 53.5494 161.466 53.524 161.247 53.5373C161.254 53.321 161.262 53.1048 161.269 52.8337Z" fill="white"/>
<path d="M262.873 50.3357C261.343 50.6949 260.19 51.5162 259.334 52.7606C259.172 52.9963 258.972 53.2817 258.701 53.0318C258.521 52.8653 258.374 52.4696 258.447 52.2559C258.695 51.5214 258.995 50.7929 259.369 50.1143C260.623 47.8431 262.645 46.6466 265.146 46.288C266.604 46.0789 268.03 46.4294 269.429 46.9049C270.883 47.3991 272.369 47.8009 273.848 48.219C275.069 48.5641 275.21 48.7534 274.791 49.8817C274.542 50.5501 274.21 51.1886 273.89 51.8284C273.806 51.9966 273.652 52.1504 273.495 52.2582C272.013 53.2707 270.6 54.4229 269.013 55.231C267.606 55.9476 266.003 56.28 264.485 56.7783C263.925 56.962 263.362 57.1339 262.801 57.3132C262.077 57.5448 261.34 57.3924 261.181 56.9758C261.068 56.6809 261.584 55.8683 262.088 55.5987C263.577 54.8023 265.079 54.03 266.563 53.2252C267.655 52.633 268.728 52.0045 270.002 51.283C268.561 50.8732 267.318 50.4599 266.046 50.1764C265.014 49.9465 263.953 49.9761 262.873 50.3357Z" fill="white"/>
<path d="M189.963 57.9937C190.554 57.6038 190.723 57.9897 190.838 58.415C191.259 59.9709 191.644 61.5487 191.22 63.1539C190.943 64.2006 190.566 65.2324 190.119 66.219C189.629 67.3021 188.538 67.5719 187.499 67.8097C186.18 68.1118 184.928 67.9977 183.827 67.0763C183.521 66.8202 183.225 66.7801 182.937 67.2857C181.9 69.1086 180.333 70.0965 178.18 70.0573C176.495 70.0267 175.513 69.0042 175.221 67.4815C174.841 65.5053 175.587 63.7474 176.507 62.0471C176.749 61.6006 177.112 61.7442 177.404 61.8298C177.761 61.9345 177.584 62.2698 177.54 62.519C177.421 63.1845 177.213 63.846 177.19 64.5142C177.142 65.9125 178.31 66.6824 179.684 66.3119C181.511 65.8191 182.36 64.4951 182.814 62.8115C182.952 62.3015 183.006 61.7682 183.085 61.2436C183.166 60.7139 184.254 59.9299 184.884 59.9688C184.942 60.8026 184.965 61.6426 185.066 62.4729C185.254 64.0059 186.78 64.9408 188.243 63.9284C189.251 63.2308 189.446 63.0222 188.937 61.8473C188.476 60.7811 188.868 59.9954 189.329 59.1449C189.53 58.7746 189.728 58.4027 189.963 57.9937Z" fill="white"/>
<path d="M131.05 90.9546C134.282 89.6125 137.458 88.2651 140.645 86.9432C141.025 86.7859 141.462 86.7685 141.942 86.6722C141.942 86.9494 142.005 87.1527 141.932 87.2775C141.077 88.7521 140.506 90.3529 138.588 91.0374C135.68 92.0755 132.892 93.4485 130.041 94.6501C127.055 95.9082 124.058 97.1405 121.055 98.3561C120.786 98.4651 120.433 98.3681 120.119 98.3668C120.128 98.1098 120.095 97.8423 120.156 97.5982C120.237 97.2744 120.454 96.9783 120.502 96.6539C120.701 95.3191 121.663 94.8038 122.774 94.3618C125.002 93.4751 127.209 92.5328 129.424 91.613C129.949 91.3951 130.474 91.1757 131.05 90.9546Z" fill="white"/>
<path d="M270.267 66.0849C271.098 66.859 271.861 67.6409 272.701 68.33C273.403 68.9068 273.458 68.9908 272.841 69.6086C271.898 70.5513 270.919 71.4605 270.025 72.4474C269.343 73.2007 268.559 73.3903 267.599 72.4927C266.906 71.8439 266.166 71.2428 265.5 70.5683C265.078 70.1409 264.653 69.6604 264.422 69.1212C264.294 68.8234 264.439 68.2373 264.676 67.9845C265.704 66.8926 266.812 65.8764 267.889 64.8313C268.368 64.3668 268.835 64.4109 269.255 64.935C269.565 65.3206 269.906 65.6809 270.267 66.0849Z" fill="white"/>
<path d="M322.04 102.743C322.415 103.073 322.745 103.383 323.101 103.661C323.555 104.015 323.607 104.395 323.203 104.803C322.234 105.784 321.257 106.757 320.283 107.732C319.536 108.479 319.037 108.599 318.241 107.89C317.057 106.836 315.994 105.647 314.874 104.521C314.439 104.084 314.637 103.671 314.962 103.335C316.074 102.188 317.198 101.052 318.354 99.9503C318.696 99.6249 319.117 99.6021 319.49 100.044C320.185 100.868 320.913 101.665 321.637 102.465C321.733 102.571 321.883 102.629 322.04 102.743Z" fill="white"/>
<path d="M125.349 82.9614C124.968 82.4951 124.624 82.0592 124.274 81.6283C123.792 81.0343 123.802 80.6495 124.323 80.127C125.389 79.0582 126.453 77.9881 127.522 76.9227C127.985 76.4613 128.3 76.4849 128.716 77.0015C129.824 78.3753 131.017 79.6619 132.499 80.6448C132.96 80.9508 132.831 81.3182 132.562 81.5981C131.454 82.7471 130.351 83.906 129.156 84.9591C128.891 85.1923 128.14 85.1926 127.821 84.9831C126.949 84.4105 126.188 83.6687 125.349 82.9614Z" fill="white"/>
</svg>
