<svg width="429" height="143" viewBox="0 0 429 143" fill="none" xmlns="http://www.w3.org/2000/svg">
<path d="M331.091 80.4375C332.049 80.5251 332.949 80.5818 333.839 80.7102C334.542 80.8114 334.743 81.1655 334.47 81.8168C334.078 82.7498 333.625 83.6568 333.203 84.577C332.993 85.0364 332.741 85.4856 332.6 85.9664C332.419 86.5794 331.986 86.5718 331.546 86.45C328.802 85.6899 325.999 85.3193 323.177 85.6007C321.161 85.8018 319.153 86.2515 317.188 86.7667C314.825 87.3861 312.494 88.139 310.182 88.9325C307.596 89.8205 305.076 90.9096 302.474 91.7434C299.824 92.5924 297.124 93.304 294.415 93.9422C293.13 94.2449 291.775 94.2972 290.446 94.3571C287.6 94.4853 284.751 94.6178 281.904 94.6028C280.391 94.5948 278.882 94.2722 277.369 94.1096C275.591 93.9185 273.862 93.5146 272.181 92.9176C271.231 92.5801 270.309 92.1614 269.358 91.7723C268.84 92.9324 268.363 94.1527 267.764 95.3091C266.528 97.6932 265.337 100.11 263.632 102.216C261.787 104.494 259.535 106.206 256.697 107.027C255.745 107.303 254.73 107.481 253.743 107.486C251.969 107.494 250.169 107.492 248.428 107.206C246.714 106.924 244.998 106.432 243.395 105.763C241.416 104.938 239.551 103.838 237.641 102.849C237.454 102.752 237.252 102.63 237.138 102.465C236.969 102.218 236.694 101.782 236.779 101.674C236.993 101.4 237.387 101.101 237.703 101.107C238.323 101.119 238.948 101.299 239.554 101.469C241.218 101.933 242.851 102.547 244.539 102.881C246.639 103.296 248.777 103.226 250.91 102.927C252.468 102.709 254.071 102.645 255.505 101.97C256.777 101.372 258.023 100.66 259.151 99.8243C261.525 98.0664 263.245 95.7111 264.747 93.2C265.267 92.3316 265.71 91.415 266.139 90.4973C266.208 90.3514 266.078 90.0099 265.931 89.8838C265.003 89.0823 264.106 88.2797 263.474 87.1869C262.666 85.7881 262.8 84.3303 263.168 82.9124C263.487 81.6801 264.076 80.5167 264.557 79.3275C264.702 78.969 264.906 78.5585 265.368 78.7571C265.567 78.8427 265.694 79.2207 265.752 79.488C266.249 81.7896 267.573 83.4772 269.581 84.6387C271.392 85.6858 273.262 86.6337 275.298 87.1484C277.267 87.6458 279.255 88.0777 281.253 88.4425C284.174 88.9762 287.14 88.9206 290.088 88.8203C291.747 88.7638 293.398 88.4331 295.048 88.1927C298.343 87.7124 301.533 86.7821 304.706 85.8124C307.343 85.0065 309.942 84.0745 312.555 83.1905C312.772 83.1171 312.969 82.9838 313.216 82.7141C311.058 82.0866 308.904 81.4418 306.739 80.8358C303.908 80.0432 300.998 80.0784 298.107 80.2049C296.345 80.2821 294.595 80.657 292.84 80.8993C292.819 80.9021 292.8 80.9294 292.782 80.9279C292.384 80.8962 291.846 81.0082 291.622 80.7934C291.296 80.4818 291.65 80.0753 291.88 79.723C292.702 78.4681 293.476 77.1822 294.292 75.9238C294.772 75.1839 295.579 74.9394 296.37 74.8005C298.364 74.4506 300.369 74.1584 302.373 73.8753C303.056 73.7789 303.753 73.7806 304.443 73.734C306.336 73.606 308.228 73.4761 310.231 73.3395C310.166 72.2536 310.145 71.1956 310.029 70.1482C309.91 69.0696 309.702 68.0007 309.526 66.9286C309.254 65.2693 308.984 63.6095 308.699 61.9523C308.414 60.2974 308.113 58.6454 307.818 56.9923C307.579 55.6534 307.327 54.3166 307.103 52.9752C306.969 52.1747 306.847 51.3699 306.772 50.5621C306.542 48.079 306.229 45.6201 305.06 43.3607C304.886 43.0251 304.688 42.6825 304.616 42.3202C304.554 42.0088 304.538 41.5759 304.706 41.3499C305.64 40.0999 306.309 38.7183 306.907 37.2914C306.988 37.0987 307.138 36.935 307.258 36.7587C307.604 36.2479 308.189 36.2396 308.463 36.7809C308.748 37.3425 308.902 37.975 309.217 38.5157C310.143 40.1033 311.102 41.6727 312.085 43.2259C312.74 44.2606 312.718 44.8275 311.859 45.7051C311.492 46.0807 311.104 46.4369 310.748 46.823C310.293 47.3165 310.121 47.8521 310.266 48.5687C310.528 49.8637 310.653 51.1863 310.842 52.4965C311.052 53.9536 311.28 55.4082 311.479 56.8667C311.633 57.9908 311.746 59.1205 311.895 60.2452C312.047 61.3878 312.221 62.5274 312.385 63.6684C312.527 64.6617 312.698 65.652 312.802 66.6493C312.961 68.1689 313.152 69.6915 313.187 71.2161C313.23 73.1081 312.764 74.8834 311.431 76.4167C317.656 79.4425 324.34 79.9455 331.091 80.4375Z" fill="white"/>
<path d="M185.947 93.0209C183.648 94.1356 181.429 95.3232 179.107 96.2595C177.326 96.9782 175.421 97.3988 173.477 97.5248C171.494 97.6533 169.51 97.9092 167.53 97.8844C165.471 97.8586 163.41 97.567 161.532 96.5993C159.433 95.5179 157.946 93.9205 157.014 91.6929C155.972 89.2001 155.27 86.6269 154.72 84.0044C154.48 82.8557 154.435 81.6659 154.304 80.4945C154.129 78.939 153.948 77.3841 153.784 75.8273C153.68 74.8431 153.619 73.8544 153.511 72.8707C153.357 71.4658 153.173 70.0643 153.011 68.6603C152.907 67.7647 152.832 66.8658 152.723 65.9709C152.566 64.6762 152.379 63.3849 152.224 62.0898C152.112 61.1517 152.063 60.2053 151.93 59.2704C151.712 57.7312 151.457 56.197 151.203 54.6632C150.976 53.3012 150.614 51.9508 150.519 50.5809C150.374 48.4927 150.888 46.4583 151.343 44.4318C151.398 44.1866 151.431 43.9234 151.549 43.7093C151.651 43.5235 151.891 43.2473 152.011 43.2741C152.229 43.3226 152.517 43.5343 152.576 43.7361C152.8 44.5044 152.98 45.2903 153.113 46.0801C153.398 47.7611 153.658 49.4467 153.901 51.1343C154.099 52.5102 154.243 53.8938 154.439 55.2702C154.684 57.0016 154.975 58.7268 155.214 60.4591C155.416 61.9223 155.555 63.3942 155.754 64.858C155.946 66.2736 156.194 67.6816 156.39 69.0968C156.548 70.2424 156.648 71.396 156.805 72.5419C157.001 73.979 157.243 75.41 157.439 76.847C157.596 77.9926 157.698 79.1458 157.855 80.2913C158.34 83.8249 159.531 87.0285 162.32 89.4276C163.597 90.5271 165.174 91.091 166.78 91.4486C168.027 91.7262 169.343 91.911 170.61 91.8331C172.608 91.7102 174.612 91.4378 176.574 91.0379C179.577 90.4261 182.445 89.3467 185.21 88.0378C186.464 87.4446 187.625 86.6552 188.82 85.9415C189.48 85.5476 190.166 85.4103 190.896 85.68C192.669 86.3347 194.428 87.0288 196.211 87.6528C197.144 87.9792 198.111 88.2184 199.074 88.4436C199.599 88.5662 200.325 88.073 200.528 87.4953C200.983 86.2005 200.93 84.854 200.786 83.5265C200.651 82.2807 200.381 81.0497 200.174 79.8115C199.897 78.1528 199.627 76.493 199.349 74.8346C199.102 73.3659 198.847 71.8986 198.597 70.4304C198.361 69.0459 198.131 67.6606 197.893 66.2764C197.649 64.851 197.394 63.4274 197.152 62.0017C196.92 60.6374 196.704 59.2707 196.472 57.9064C196.266 56.6903 196.055 55.4749 195.835 54.2611C195.608 53.008 195.354 51.7597 195.14 50.5044C195.033 49.8715 194.958 49.2294 194.923 48.5885C194.849 47.2321 194.568 45.9678 193.805 44.795C193.032 43.6072 192.698 42.2713 193.359 40.9128C193.66 40.2927 194.171 39.7769 194.559 39.1956C194.947 38.6152 195.316 38.0209 195.665 37.4162C196.057 36.7363 196.498 36.695 196.867 37.3928C197.209 38.0399 197.386 38.7767 197.746 39.4121C198.463 40.6811 199.271 41.8984 200.008 43.1569C200.249 43.568 200.427 44.0296 200.547 44.4907C200.602 44.7009 200.496 44.9975 200.374 45.201C199.862 46.0514 199.326 46.8883 198.78 47.7171C198.198 48.5989 198.295 49.5449 198.473 50.5034C198.775 52.1323 199.08 53.7606 199.385 55.389C199.733 57.2466 200.101 59.101 200.427 60.9625C200.758 62.8497 201.032 64.7469 201.362 66.6343C201.68 68.4544 202.053 70.2648 202.372 72.0846C202.627 73.5322 202.873 74.9829 203.057 76.4406C203.273 78.1432 203.481 79.8513 203.575 81.5635C203.694 83.7435 203.174 85.8507 202.598 87.935C202.222 89.2924 201.947 90.7051 201.085 91.8629C200.041 93.2657 198.719 94.3274 196.858 94.0743C195.703 93.9171 194.565 93.5125 193.467 93.0922C192.589 92.7557 191.763 92.2631 190.952 91.7758C190.09 91.2582 189.262 91.1176 188.36 91.6553C187.58 92.1201 186.776 92.5438 185.947 93.0209Z" fill="white"/>
<path d="M88.8493 94.3527C89.1429 92.6395 89.3556 90.9677 89.7557 89.342C90.0808 88.0209 90.63 86.7549 91.0818 85.4652C91.1234 85.3463 91.1596 85.2182 91.2317 85.1186C91.5376 84.696 91.9283 84.28 92.4686 84.5637C92.9486 84.8157 92.9958 85.2942 92.8091 85.8513C92.3479 87.2281 91.8856 88.6128 91.5622 90.026C90.7624 93.5213 91.1982 96.7756 93.4504 99.7246C95.0379 101.803 97.2439 102.751 99.6138 103.418C101.271 103.885 102.985 103.713 104.696 103.593C107.246 103.415 109.592 102.675 111.829 101.475C114.442 100.074 116.588 98.1992 118.024 95.573C118.297 95.074 118.549 94.5634 118.816 94.0609C119.381 92.9959 118.998 91.9544 118.617 90.9856C117.76 88.8119 116.858 86.6512 115.855 84.5418C115.004 82.7526 113.939 81.0657 113.079 79.2807C112.879 78.867 113.08 78.2299 113.176 77.7102C113.411 76.4397 113.672 75.1729 113.97 73.9159C114.041 73.615 114.244 73.2251 114.488 73.1256C114.665 73.0535 115.097 73.3302 115.263 73.5609C115.73 74.2114 116.136 74.9088 116.534 75.6057C117.048 76.5044 117.564 77.4044 118.012 78.3363C118.218 78.7657 118.506 78.9957 118.919 79.1768C121.276 80.2087 123.491 80.2337 125.753 78.7408C128.246 77.095 130.024 74.885 131.576 72.4064C133.029 70.0834 134.752 67.9667 136.77 66.1038C138.242 64.7456 139.692 64.6874 141.487 65.5421C143.336 66.4227 143.856 68.0954 144.147 69.8253C144.442 71.5821 144.452 73.3874 144.575 75.1723C144.634 76.0367 144.673 76.9027 144.707 77.7684C144.764 79.2166 144.124 80.4861 143.648 81.7948C143.511 82.1706 143.225 82.5087 143.159 82.8902C143.032 83.6348 142.523 83.667 141.948 83.7303C139.952 83.9499 138.178 83.1227 136.385 82.4992C134.738 81.9265 133.161 81.1475 131.567 80.4282C131.128 80.2299 130.723 79.9424 130.332 79.6542C130.046 79.443 129.925 79.509 129.716 79.7743C128.697 81.0697 127.689 82.3777 126.595 83.609C125.66 84.6616 124.337 85.0814 123.018 85.4189C122.277 85.6086 121.503 85.667 120.761 85.7818C120.897 86.8987 121.086 88.0741 121.17 89.2569C121.266 90.6221 121.348 91.9968 121.297 93.3622C121.2 95.9266 120.722 98.4269 119.564 100.744C119.274 101.325 118.84 101.854 118.394 102.333C116.036 104.869 113.354 106.953 110.012 108.032C108.349 108.568 106.677 109.149 104.964 109.438C103.456 109.693 101.882 109.637 100.339 109.603C96.8346 109.525 93.7628 108.342 91.4267 105.658C90.2057 104.256 89.581 102.513 89.1005 100.719C88.6448 99.016 88.718 97.2907 88.7241 95.5642C88.7254 95.1806 88.8054 94.7974 88.8493 94.3527ZM136.074 75.7105C137.848 76.5463 139.69 77.1472 141.729 77.4852C141.675 77.1016 141.688 76.8332 141.597 76.606C141.07 75.2823 140.608 73.9214 139.952 72.6623C139.032 70.8938 137.068 70.3949 135.462 71.5524C134.631 72.1515 134.023 73.0604 133.313 73.8312C134.081 74.7914 134.996 75.291 136.074 75.7105Z" fill="white"/>
<path d="M233.52 77.1238C235.114 75.5038 236.68 73.9277 238.574 72.7183C239.798 71.936 241.098 71.3999 242.558 71.6596C243.172 71.7687 243.8 72.099 244.296 72.4892C244.864 72.9366 245.325 73.5361 245.77 74.1177C246.2 74.6793 246.17 75.3679 245.852 75.9402C245.247 77.0276 244.583 78.0887 243.865 79.1044C243.397 79.7652 242.633 79.6463 242.14 78.9739C241.657 78.3158 241.223 77.571 240.599 77.0778C239.517 76.2228 238.576 76.3274 237.562 77.0317C237.038 77.3954 236.511 77.7614 236.03 78.1786C235.541 78.604 235.494 79.1366 235.879 79.6613C237.097 81.3187 238.753 82.3716 240.703 82.9175C242.197 83.3355 243.724 83.4319 245.293 83.2238C246.985 82.9994 248.701 82.9597 250.623 82.8241C249.996 83.8712 249.406 84.7093 248.969 85.6211C248.429 86.7502 247.536 87.1474 246.372 87.2827C244.025 87.5556 241.8 88.3237 239.621 89.1862C237.663 89.9611 235.755 90.8639 233.843 91.7486C233.116 92.0846 232.453 92.5553 231.732 92.9056C231.5 93.0185 231.106 93.0464 230.917 92.9188C230.782 92.8275 230.786 92.3842 230.868 92.1467C231.163 91.2943 231.437 90.4166 231.88 89.64C232.154 89.1597 232.679 88.7846 233.161 88.4691C234.032 87.8992 234.955 87.4094 235.816 86.9096C234.625 86.1189 233.416 85.217 232.115 84.4777C230.503 83.5619 230.485 81.1655 231.312 80.0037C232.004 79.0315 232.758 78.1036 233.52 77.1238Z" fill="white"/>
<path d="M214.631 65.6189C214.803 67.0379 214.979 68.3953 215.144 69.7541C215.287 70.924 215.413 72.0959 215.552 73.2661C215.722 74.6905 215.906 76.1132 216.07 77.5383C216.136 78.1166 216.193 78.6988 216.203 79.28C216.258 82.4014 216.39 85.5257 216.302 88.6434C216.255 90.2875 215.85 91.9278 215.527 93.554C215.428 94.0573 215.202 94.6826 214.263 94.4318C214.172 93.8381 214.018 93.2001 213.985 92.556C213.907 91.0351 213.932 89.5083 213.831 87.9895C213.703 86.0363 213.517 84.0858 213.31 82.1391C213.076 79.946 212.815 77.7552 212.521 75.5693C212.248 73.5404 211.903 71.5213 211.615 69.4942C211.375 67.801 211.181 66.1011 210.948 64.4068C210.698 62.588 210.404 60.7751 210.172 58.9541C210.001 57.6121 209.966 56.2508 209.753 54.9168C209.424 52.8538 209.303 50.7842 209.384 48.7048C209.444 47.1614 209.938 45.7145 210.613 44.338C210.728 44.1021 211.063 43.9735 211.296 43.7953C211.487 44.0558 211.774 44.2915 211.849 44.5821C212.004 45.1768 212.066 45.7987 212.13 46.4132C212.316 48.2081 212.443 50.0101 212.67 51.7995C212.98 54.2345 213.37 56.659 213.707 59.0907C213.986 61.1023 214.236 63.1178 214.505 65.1309C214.524 65.2762 214.588 65.4156 214.631 65.6189Z" fill="white"/>
<path d="M339.625 66.0021C339.795 67.3774 339.972 68.6914 340.132 70.0075C340.238 70.8809 340.334 71.7561 340.411 72.6326C340.594 74.7356 340.821 76.837 340.921 78.9443C341.006 80.7363 340.944 82.5356 340.938 84.3317C340.93 86.6783 340.732 89.0067 340.137 91.2829C340.017 91.7391 339.786 92.1995 339.494 92.5686C339.12 93.0404 338.431 92.8459 338.321 92.2684C338.237 91.8284 338.192 91.3753 338.185 90.9272C338.167 89.7446 338.235 88.5584 338.167 87.3796C338.032 85.0326 337.835 82.689 337.652 80.345C337.532 78.8215 337.423 77.2961 337.25 75.7782C337.072 74.208 336.809 72.6476 336.609 71.0796C336.414 69.5493 336.261 68.0136 336.074 66.4823C335.866 64.7836 335.633 63.0882 335.427 61.3893C335.318 60.4936 335.246 59.5936 335.156 58.6955C334.982 56.9426 334.745 55.1931 334.647 53.436C334.51 50.9768 334.707 48.5535 335.941 46.3339C336.043 46.1502 336.173 45.973 336.323 45.8271C336.705 45.4565 337.088 45.5391 337.25 46.0476C337.378 46.4473 337.475 46.8657 337.515 47.2826C337.706 49.2529 337.862 51.2265 338.051 53.197C338.21 54.8629 338.372 56.5295 338.58 58.1898C338.86 60.4155 339.187 62.6353 339.491 64.858C339.541 65.2186 339.58 65.5805 339.625 66.0021Z" fill="white"/>
<path d="M242.627 47.4852C242.671 48.0147 242.799 48.4957 242.743 48.9542C242.555 50.4965 242.323 52.0347 242.054 53.5648C242 53.8678 241.977 53.9901 242.261 54.1702C242.746 54.4777 243.193 54.851 243.63 55.2263C244.225 55.7359 244.143 56.4488 244.031 57.0908C243.907 57.8108 243.64 58.508 243.407 59.206C243.35 59.3788 243.187 59.6435 243.071 59.6441C242.82 59.6455 242.509 59.5703 242.327 59.4087C241.752 58.8981 241.223 58.3362 240.681 57.7885C240.284 57.3871 240.093 57.5294 239.852 57.9892C239.024 59.5683 238.101 61.1141 236.685 62.2292C235.321 63.3031 233.901 64.334 232.397 65.1936C230.443 66.3109 228.384 67.2487 226.359 68.2392C226.124 68.3538 225.789 68.3957 225.544 68.3235C225.175 68.2147 224.776 67.9475 225.15 67.5C225.707 66.8327 226.262 66.1259 226.949 65.6105C229.787 63.4808 232.711 61.4649 235.524 59.3041C236.588 58.4872 237.541 57.4785 238.177 56.2415C237.061 55.4243 235.963 54.6287 234.874 53.8217C232.733 52.2355 232.675 51.4329 233.485 48.8977C234.105 46.9597 235.353 45.4636 236.821 44.1135C239.028 42.0839 241.169 43.4567 241.956 45.3252C242.24 46 242.406 46.7246 242.627 47.4852ZM239.999 50.1218C239.957 48.8848 239.54 47.8137 238.641 46.9368C238.229 46.5351 237.78 46.5106 237.386 46.855C236.861 47.3135 236.364 47.8194 235.938 48.3694C235.589 48.8197 235.786 49.6039 236.238 49.9174C237.349 50.6878 238.459 51.4606 239.591 52.2007C239.691 52.2666 240.101 52.1008 240.101 52.0431C240.1 51.4429 240.044 50.8427 239.999 50.1218Z" fill="white"/>
<path d="M291.693 56.2298C290.199 55.0436 288.691 53.9478 287.303 52.7173C286.464 51.9737 286.682 50.8723 286.942 49.9305C287.555 47.7136 288.675 45.7902 290.466 44.2823C291.087 43.7599 291.667 43.2243 292.538 43.2435C293.829 43.2721 294.753 43.9106 295.34 45.0282C296.098 46.4705 296.474 48.0331 296.358 49.6461C296.262 50.9753 295.936 52.2872 295.734 53.6101C295.705 53.796 295.737 54.0608 295.852 54.1857C296.173 54.532 296.538 54.8413 296.911 55.1334C297.656 55.7173 297.905 56.3692 297.655 57.2678C297.468 57.9362 297.26 58.5994 297.038 59.2567C296.971 59.4525 296.801 59.7831 296.716 59.7717C296.423 59.7325 296.094 59.6307 295.874 59.4414C295.324 58.9666 294.812 58.4444 294.312 57.9158C293.837 57.4148 293.611 57.8125 293.389 58.1511C292.858 58.965 292.445 59.8798 291.806 60.5952C290.849 61.6674 289.815 62.7016 288.678 63.5761C286.629 65.1528 284.366 66.4069 282.027 67.5133C281.384 67.8177 280.756 68.1828 280.081 68.3826C279.735 68.4849 279.195 68.4096 278.929 68.1894C278.548 67.8731 278.804 67.4226 279.128 67.1386C279.956 66.4136 280.776 65.675 281.655 65.0153C283.951 63.2913 286.265 61.5899 288.596 59.9132C289.816 59.0356 290.815 57.9677 291.633 56.7197C291.712 56.5984 291.7 56.417 291.693 56.2298ZM289.814 48.0712C289.152 49.0907 289.2 49.6659 290.278 50.3335C291.031 50.7998 291.755 51.3126 292.499 51.794C292.846 52.0185 293.209 52.2178 293.565 52.4285C293.628 51.9885 293.742 51.5488 293.745 51.1085C293.753 49.7216 293.465 48.419 292.574 47.296C292.086 46.6802 291.482 46.5337 290.853 47.0087C290.487 47.2855 290.191 47.6558 289.814 48.0712Z" fill="white"/>
<path d="M103.732 52.1331C103.25 51.6588 102.795 51.2245 102.348 50.7976C101.706 51.7808 101.212 52.7538 100.515 53.5485C99.6561 54.5274 98.69 55.4376 97.6605 56.2358C95.3719 58.0101 92.7285 59.1854 90.1465 60.453C89.6639 60.69 89.099 60.9589 88.6339 60.4176C88.3907 60.1345 88.7832 59.2802 89.2722 58.926C91.7847 57.1062 94.3206 55.3175 96.8028 53.4572C98.1785 52.4263 99.4979 51.3087 100.451 49.7384C99.8646 49.2992 99.2704 48.8567 98.6789 48.4106C97.9647 47.872 97.2497 47.3344 96.5406 46.7891C95.517 46.0018 95.5906 44.9547 95.8982 43.8817C96.4544 41.9418 97.4469 40.2788 98.9197 38.8641C100.769 37.0875 103.076 37.8065 103.87 39.7785C104.354 40.9821 104.7 42.2214 104.596 43.5032C104.497 44.7232 104.195 45.9272 103.969 47.1359C103.913 47.4389 103.901 47.6385 104.222 47.8608C104.745 48.2233 105.393 48.6205 105.608 49.1558C105.836 49.7247 105.665 50.4766 105.584 51.1386C105.535 51.5474 105.333 51.9385 105.195 52.3358C104.982 52.9475 104.65 53.029 104.181 52.5867C104.038 52.4515 103.9 52.3111 103.732 52.1331ZM102.124 44.2678C102.08 43.9951 102.056 43.7172 101.988 43.4508C101.787 42.6698 101.566 41.897 100.936 41.3239C100.512 40.9381 100.03 40.8465 99.6164 41.2402C99.1668 41.6685 98.7511 42.1601 98.4343 42.6918C98.1595 43.1531 98.1911 43.6554 98.7396 44.0093C99.5405 44.526 100.319 45.0774 101.11 45.6099C101.411 45.8128 101.72 46.0042 102.124 46.2642C102.124 45.5272 102.124 44.9591 102.124 44.2678Z" fill="white"/>
<path d="M172.74 74.4928C172.271 73.9804 171.763 73.5447 171.43 73.0017C171.268 72.7368 171.285 72.1567 171.473 71.9168C172.453 70.6672 173.513 69.4801 174.548 68.2734C174.932 67.8246 175.37 67.8331 175.826 68.2381C176.791 69.0949 177.786 69.917 178.74 70.7855C179.075 71.0903 179.269 70.9634 179.486 70.6962C180.387 69.5835 181.303 68.4823 182.179 67.3504C182.74 66.6267 183.25 66.5566 183.869 67.2192C185.034 68.4675 186.317 69.5688 187.786 70.4498C188.347 70.7861 188.356 71.0972 187.95 71.5716C187.042 72.6294 186.133 73.6874 185.273 74.7838C184.676 75.5451 183.802 75.6895 183.085 75.1232C182.184 74.4105 181.254 73.7342 180.35 73.0247C180.103 72.8306 180.007 72.6979 179.721 73.061C178.829 74.1909 177.877 75.2765 176.901 76.3358C176.535 76.7334 175.97 76.7942 175.516 76.4938C174.578 75.8737 173.685 75.1854 172.74 74.4928Z" fill="white"/>
<path d="M268.693 47.6063C268.435 48.074 268.221 48.5088 267.984 48.9311C267.913 49.0588 267.792 49.2298 267.673 49.2488C266.425 49.4475 265.805 50.5541 264.886 51.2103C263.487 52.2082 261.907 52.6837 260.337 53.2182C259.381 53.5434 258.393 53.7757 257.415 54.0323C257.009 54.1389 256.593 54.2518 256.177 54.27C255.574 54.2964 255.269 53.8338 255.628 53.3479C255.995 52.8513 256.489 52.3883 257.027 52.0889C259.09 50.9405 261.193 49.8646 263.279 48.7578C263.41 48.6884 263.538 48.6006 263.642 48.4962C263.845 48.2924 263.979 48.1145 263.557 47.9652C262.012 47.4186 260.47 46.7901 258.798 46.9378C256.792 47.1152 254.981 47.7612 253.751 49.515C253.559 49.7876 253.311 50.124 252.895 49.8849C252.51 49.6637 252.611 49.3345 252.74 48.9821C253.239 47.6215 253.777 46.2619 254.876 45.2788C256.142 44.1466 257.612 43.4328 259.356 43.2181C261.523 42.9512 263.429 43.7674 265.403 44.3767C266.427 44.6928 267.478 44.9177 268.508 45.215C269.33 45.4522 269.378 45.569 269.128 46.3688C269.003 46.771 268.863 47.1689 268.693 47.6063Z" fill="white"/>
<path d="M174.938 43.8053C175.26 43.0452 175.899 42.7424 176.573 42.3812C176.646 43.2769 176.705 44.0835 176.779 44.8887C176.959 46.8338 178.763 47.6033 180.513 46.2734C180.682 46.1449 180.849 46.0145 181.134 45.7954C180.932 45.1007 180.694 44.3494 180.505 43.586C180.454 43.381 180.499 43.116 180.589 42.9187C180.912 42.2065 181.256 41.5015 181.634 40.8174C181.722 40.6577 182.007 40.4753 182.152 40.5099C182.351 40.5576 182.598 40.7719 182.66 40.9671C182.845 41.5492 182.988 42.1511 183.078 42.7556C183.359 44.6325 183.134 46.4432 182.286 48.1601C181.419 49.914 179.21 50.7324 177.48 50.3735C176.539 50.1784 175.734 49.8771 175.166 49.1812C174.644 49.8636 174.204 50.5874 173.622 51.1702C172.256 52.5389 170.583 52.9608 168.763 52.2852C167.739 51.9046 167.238 50.9732 167.055 49.9084C166.703 47.8536 167.536 46.1004 168.518 44.3999C168.597 44.2634 168.991 44.1489 169.093 44.2235C169.243 44.3335 169.354 44.6383 169.321 44.8324C169.221 45.4125 168.959 45.9722 168.91 46.5524C168.743 48.5314 169.804 49.2324 171.632 48.8204C173.442 48.4124 174.309 47.0283 174.674 45.2933C174.774 44.8179 174.85 44.3376 174.938 43.8053Z" fill="white"/>
<path d="M177.923 33.6099C174.907 34.8747 171.932 36.1076 168.958 37.3398C166.412 38.3945 163.869 39.4563 161.315 40.4904C161.066 40.5911 160.747 40.5189 160.461 40.5269C160.487 40.2524 160.477 39.9675 160.55 39.7057C160.673 39.2609 160.915 38.8416 160.989 38.3921C161.151 37.417 161.898 37.0251 162.651 36.7063C165.984 35.2956 169.336 33.9314 172.68 32.5468C176.044 31.1541 179.405 29.7573 182.768 28.362C183.525 28.0478 184.274 27.7118 185.044 27.4311C185.254 27.3545 185.524 27.4426 185.766 27.4551C185.751 27.6747 185.781 27.9102 185.712 28.1116C185.127 29.8224 184.218 31.1697 182.332 31.7544C180.832 32.2195 179.417 32.9596 177.923 33.6099Z" fill="white"/>
<path d="M150.463 93.5239C150.007 94.4354 149.631 95.3329 149.122 96.147C148.892 96.5155 148.431 96.7978 148.015 96.9829C145.284 98.1957 142.539 99.3773 139.794 100.557C137.435 101.571 135.069 102.57 132.705 103.574C131.098 104.256 129.49 104.936 127.88 105.612C127.687 105.693 127.481 105.754 127.275 105.794C126.878 105.871 126.624 105.582 126.742 105.189C126.942 104.525 127.051 103.804 127.392 103.22C127.694 102.701 128.19 102.203 128.721 101.929C129.914 101.311 131.178 100.826 132.421 100.307C134.421 99.4729 136.436 98.6762 138.429 97.8252C142.127 96.2459 145.814 94.6395 149.505 93.0429C150.15 92.7639 150.418 92.8794 150.463 93.5239Z" fill="white"/>
<path d="M262.754 61.3796C263.347 61.2769 263.498 61.7789 263.708 62.0563C264.665 63.3171 265.8 64.3746 267.091 65.2767C267.592 65.6273 267.62 65.8895 267.18 66.3322C266.146 67.3723 265.107 68.4074 264.069 69.4437C263.661 69.8515 262.644 69.9921 262.236 69.6021C261.055 68.4729 259.889 67.3229 258.792 66.1133C258.606 65.9081 258.631 65.2222 258.829 65.0056C259.936 63.7962 261.122 62.6597 262.293 61.5098C262.383 61.4206 262.562 61.4209 262.754 61.3796Z" fill="white"/>
<path d="M99.397 73.1759C98.8482 72.5394 98.3656 71.9025 97.8063 71.3422C97.3172 70.8523 97.5321 70.4214 97.8616 70.0614C98.8887 68.9396 99.9568 67.855 101.019 66.7656C101.41 66.3647 102.035 66.373 102.361 66.8161C103.4 68.2322 104.631 69.439 106.091 70.4196C106.43 70.6472 106.467 71.0178 106.178 71.3135C105.049 72.4702 103.94 73.6538 102.727 74.7168C102.442 74.9665 101.674 74.9674 101.311 74.7611C100.615 74.3654 100.05 73.7393 99.397 73.1759Z" fill="white"/>
<path d="M315.08 103.603C314.784 103.899 314.522 104.163 314.259 104.427C313.654 105.032 312.947 105.114 312.285 104.541C311.181 103.586 310.109 102.592 309.063 101.574C308.561 101.086 308.632 100.458 309.143 99.9468C310.165 98.9248 311.187 97.9028 312.209 96.881C312.837 96.253 313.11 96.2918 313.674 96.9995C314.707 98.2939 315.875 99.4533 317.227 100.418C317.656 100.724 317.681 101.015 317.296 101.388C316.557 102.104 315.839 102.841 315.08 103.603Z" fill="white"/>
<path d="M180.826 59.8413C181.463 60.2603 182.044 60.6866 182.676 61.0161C183.29 61.3361 183.15 61.7081 182.826 62.085C182.077 62.9568 181.296 63.8008 180.532 64.6598C180.304 64.916 180.104 65.1971 179.868 65.4451C179.389 65.9486 178.795 65.9769 178.197 65.6323C176.823 64.8405 175.669 63.7888 174.574 62.6608C174.164 62.2388 174.173 61.7571 174.549 61.3056C175.533 60.1215 176.498 58.9217 177.476 57.7317C177.793 57.3451 178.128 57.2828 178.519 57.6623C179.267 58.3873 180.034 59.0927 180.826 59.8413Z" fill="white"/>
</svg>
