<svg width="430" height="144" viewBox="0 0 430 144" fill="none" xmlns="http://www.w3.org/2000/svg">
<path d="M81.25 96.0876C81.25 94.9628 81.1759 93.8976 81.2663 92.8466C81.4269 90.9785 81.6498 89.1137 81.9132 87.257C82.4882 83.2046 84.2101 79.5622 86.1648 76.0414C87.6509 73.3649 89.2868 70.765 90.9783 68.212C91.8116 66.9543 92.9216 65.8798 93.9468 64.6751C93.15 63.7134 92.1033 62.959 90.7986 62.9072C89.7159 62.8642 88.6749 63.306 87.8175 64.0444C87.7508 64.1018 87.7015 64.1837 87.6284 64.2285C87.2675 64.4495 86.987 64.8774 86.4462 64.5991C85.8834 64.3095 86.0876 63.7778 86.1755 63.4461C86.8764 60.7993 87.7596 58.22 89.9456 56.3718C91.318 55.2115 92.9519 54.4964 94.6956 54.1607C96.0906 53.8921 97.5304 53.8059 98.9546 53.7501C101.03 53.6688 102.984 54.2188 104.83 55.1474C105.455 55.4623 106.083 55.7912 106.656 56.1901C108.068 57.1724 108.101 58.5956 107.661 60.0365C107.304 61.2061 106.862 62.3803 106.249 63.431C105.807 64.1894 105.022 64.7485 104.388 65.399C105.812 66.3721 107.51 67.0052 109.272 67.5043C110.634 67.8902 112.015 68.1497 113.43 68.0211C115.966 67.7906 118.314 67.085 120.286 65.3441C121.863 63.9514 122.931 62.2247 123.87 60.3858C124.004 60.1225 124.17 59.8535 124.386 59.6609C124.536 59.528 124.877 59.4075 124.992 59.4863C125.166 59.6066 125.349 59.9369 125.302 60.1212C124.955 61.4996 124.583 62.8735 124.155 64.2291C123.914 64.9942 123.554 65.7218 123.215 66.5432C123.565 66.6367 123.937 66.7993 124.319 66.8265C125.407 66.904 126.499 66.9669 127.59 66.96C128.846 66.9522 129.93 66.3837 130.976 65.7499C133.22 64.3911 133.961 62.0524 134.855 59.8104C135.042 59.3404 135.236 58.8605 135.517 58.4453C135.668 58.2217 136.02 57.9912 136.259 58.0125C136.468 58.0312 136.787 58.3812 136.813 58.6121C136.88 59.2144 136.904 59.8512 136.778 60.4385C136.552 61.494 136.232 62.5323 135.893 63.5587C135.771 63.9261 135.726 64.0797 136.171 64.2049C137.947 64.7055 139.707 65.2615 141.482 65.7643C141.785 65.8502 142.134 65.7764 142.582 65.7764C142.519 64.9685 142.391 64.1929 142.411 63.4212C142.455 61.7015 142.39 59.9479 142.717 58.2761C143.005 56.8023 143.753 55.416 144.329 54.0037C144.413 53.7957 144.671 53.6582 144.849 53.488C145.046 53.7671 145.358 54.023 145.419 54.3293C145.648 55.4629 145.925 56.6115 145.941 57.7577C145.965 59.5871 145.908 61.4343 145.666 63.2446C145.502 64.4669 144.99 65.6487 144.581 66.8306C144.028 68.4301 143.084 69.7929 141.965 71.0554C140.924 72.2299 139.622 72.1548 138.311 71.8507C136.285 71.3809 134.387 70.5931 132.73 69.2903C132.475 69.0898 132.222 69.0093 131.886 69.32C130.311 70.774 128.449 71.6793 126.324 71.995C125.215 72.1596 124.094 72.3964 122.985 72.3646C121.528 72.3228 120.079 72.0356 118.623 71.887C118.39 71.8633 118.11 71.9634 117.901 72.0885C116.248 73.0799 114.468 73.6148 112.552 73.8749C109.433 74.2984 106.586 73.5432 103.869 72.1221C102.155 71.2252 100.78 69.8886 99.5339 68.4336C99.2774 68.1341 99.1143 68.1142 98.8567 68.297C97.5307 69.2379 96.1554 70.1203 94.9052 71.1536C93.7041 72.1463 92.582 73.2494 91.5215 74.3933C90.2534 75.7609 89.1726 77.2757 88.2486 78.9122C86.738 81.5876 85.7965 84.4665 85.1341 87.4345C84.8071 88.8997 84.7069 90.4202 84.5704 91.9217C84.4677 93.0526 84.3914 94.1966 84.4408 95.3288C84.6111 99.2265 85.4897 102.892 88.0428 106.005C89.7203 108.05 91.7801 109.557 94.2269 110.501C95.786 111.102 97.3928 111.597 99.0079 112.029C99.9981 112.294 101.04 112.414 102.066 112.486C104.005 112.622 105.949 112.745 107.89 112.745C109.81 112.746 111.731 112.608 113.649 112.494C115.427 112.389 117.204 112.256 118.979 112.097C120.636 111.949 122.288 111.743 123.944 111.577C125.388 111.433 126.836 111.328 128.278 111.172C130.145 110.97 132.005 110.716 133.872 110.53C134.334 110.484 134.835 110.544 135.278 110.682C135.607 110.784 135.963 111.123 135.633 111.513C135.175 112.056 134.708 112.71 134.096 112.981C132.627 113.63 131.086 114.126 129.549 114.604C127.623 115.203 125.683 115.761 123.731 116.267C120.127 117.201 116.524 118.142 112.893 118.962C111.242 119.335 109.532 119.491 107.84 119.629C106.247 119.759 104.64 119.806 103.043 119.764C100.045 119.685 97.1266 119.128 94.3434 117.981C91.6777 116.883 89.2533 115.417 87.2576 113.29C85.5051 111.422 84.1921 109.286 83.2409 106.922C82.3779 104.777 81.865 102.531 81.5357 100.254C81.3401 98.9018 81.3387 97.5214 81.25 96.0876Z" fill="white"/>
<path d="M319.619 82.8532C321.801 83.7529 324.016 84.3384 326.292 84.7067C328.198 85.015 330.097 85.3683 332.011 85.6158C333.324 85.7857 334.656 85.808 335.98 85.8972C337.282 85.9849 338.585 86.0584 339.885 86.1675C340.753 86.2404 341.014 86.7653 340.635 87.5626C339.997 88.9026 339.353 90.2399 338.751 91.596C338.574 91.9953 338.295 92.0404 337.969 91.9787C336.458 91.6928 334.96 91.3215 333.44 91.1082C332.489 90.9748 331.506 91.0764 330.537 91.0571C328.121 91.0089 325.778 91.4986 323.493 92.184C320.265 93.1519 317.067 94.2263 313.879 95.3194C311.735 96.0544 309.654 96.9798 307.498 97.6748C305.296 98.3845 303.053 98.9837 300.797 99.5001C299.564 99.7825 298.271 99.8374 297 99.9175C294.41 100.081 291.816 100.289 289.224 100.29C287.438 100.29 285.64 100.043 283.867 99.7773C282.119 99.5148 280.38 99.1483 278.667 98.711C277.732 98.4723 276.859 97.9913 275.957 97.622C275.726 97.5274 275.491 97.4422 275.253 97.3507C273.711 101.232 271.952 104.937 269.349 108.116C267.205 110.733 264.449 112.605 260.975 113C259.429 113.176 257.846 113.054 256.281 113.023C254.403 112.987 252.58 112.607 250.817 111.97C248.15 111.007 245.619 109.757 243.219 108.249C242.897 108.047 242.371 107.748 242.645 107.294C242.831 106.985 243.387 106.659 243.71 106.717C244.725 106.897 245.731 107.193 246.698 107.556C249.602 108.646 252.621 108.833 255.656 108.631C257.401 108.514 259.158 108.211 260.85 107.768C262.799 107.257 264.424 106.074 265.913 104.727C268.494 102.391 270.385 99.5547 271.932 96.4629C272.218 95.8903 272.096 95.5411 271.593 95.1507C270.167 94.0447 268.879 92.7334 268.844 90.8328C268.82 89.5564 269.196 88.2537 269.523 86.9967C269.728 86.2112 270.143 85.472 270.529 84.7472C270.659 84.5035 270.992 84.3683 271.233 84.1835C271.39 84.4335 271.64 84.666 271.691 84.9363C272.07 86.9132 273.082 88.4673 274.734 89.5993C277.657 91.6014 280.901 92.7779 284.365 93.4653C286.295 93.8481 288.219 94.1777 290.184 94.2328C292.18 94.2888 294.18 94.4219 296.171 94.3371C297.82 94.2669 299.458 93.9342 301.099 93.7081C304.467 93.2442 307.715 92.2704 310.957 91.3037C313.735 90.4753 316.463 89.4814 319.213 88.5607C319.219 88.4991 319.224 88.4375 319.23 88.3758C318.28 88.0349 317.347 87.631 316.376 87.3661C314.284 86.7954 312.196 86.1256 310.061 85.8202C308.266 85.5634 306.406 85.752 304.575 85.7699C303.792 85.7776 303.003 85.8052 302.228 85.9078C300.997 86.0707 299.778 86.3183 298.548 86.4966C298.274 86.5364 297.855 86.5368 297.728 86.3767C297.585 86.1955 297.583 85.7451 297.714 85.5291C298.606 84.0537 299.484 82.5603 300.514 81.1825C300.849 80.7334 301.598 80.4688 302.2 80.3654C304.38 79.991 306.572 79.67 308.771 79.4271C310.649 79.2196 312.542 79.1516 314.428 79.012C315.032 78.9673 315.633 78.8907 316.342 78.8177C316.284 77.874 316.265 76.8989 316.153 75.9344C316.028 74.8486 315.823 73.7718 315.646 72.6921C315.373 71.0212 315.101 69.3498 314.814 67.6811C314.528 66.0148 314.224 64.3515 313.926 62.687C313.686 61.3387 313.427 59.9934 313.209 58.6416C313.027 57.5165 312.855 56.3874 312.743 55.2537C312.537 53.1601 312.213 51.1013 311.305 49.1758C311.133 48.8121 311.025 48.4143 310.824 48.0694C310.451 47.4305 310.64 46.9283 311.023 46.3571C311.602 45.4937 312.088 44.5676 312.598 43.6594C312.867 43.1796 313.077 42.6654 313.362 42.1957C313.706 41.6269 314.293 41.6469 314.581 42.2502C314.9 42.9178 315.075 43.6612 315.44 44.2983C316.255 45.7197 317.085 47.141 318.028 48.4776C319.083 49.9716 318.749 50.5863 317.488 51.6151C316.371 52.5256 316.254 53.4948 316.459 54.7252C316.7 56.1655 316.89 57.6141 317.103 59.059C317.322 60.5469 317.555 62.0328 317.756 63.5231C317.912 64.6775 318.012 65.8393 318.166 66.994C318.369 68.5282 318.62 70.0562 318.814 71.5915C319.09 73.7759 319.417 75.9737 319.189 78.1706C319.047 79.5264 318.641 80.8713 317.513 81.8816C318.201 82.2053 318.884 82.5268 319.619 82.8532Z" fill="white"/>
<path d="M194.909 90.7596C195.947 89.8544 196.952 88.9871 197.95 88.1114C198.186 87.9046 198.368 87.6245 198.627 87.4611C198.84 87.3271 199.189 87.196 199.369 87.2848C199.551 87.375 199.728 87.7623 199.685 87.9743C199.423 89.2585 199.098 90.5298 198.774 91.8915C199.933 92.1655 201.224 92.5209 202.535 92.7611C203.319 92.9046 204.135 92.9004 204.937 92.9044C206.266 92.9109 206.873 92.2096 206.822 91.0018C206.754 89.3927 206.496 87.7886 206.265 86.1904C206.059 84.7712 205.777 83.363 205.529 81.9499C205.289 80.5793 205.051 79.2083 204.809 77.8381C204.521 76.2151 204.231 74.5926 203.941 72.9699C203.655 71.369 203.367 69.7685 203.083 68.1671C202.837 66.7754 202.6 65.3822 202.352 63.9909C202.074 62.4321 201.78 60.8762 201.508 59.3165C201.25 57.8391 201.027 56.3557 200.76 54.8799C200.511 53.496 200.602 52.0465 199.97 50.7357C199.611 49.992 199.231 49.2575 198.902 48.5007C198.379 47.2956 198.594 46.1564 199.314 45.0971C200.048 44.0187 200.824 42.9683 201.532 41.8733C201.838 41.3996 202.083 41.4669 202.393 41.8025C202.508 41.9265 202.634 42.0669 202.68 42.2221C203.313 44.3177 204.511 46.0981 205.767 47.8526C206.212 48.4742 206.542 49.2174 206.274 49.9679C206.049 50.5944 205.589 51.1365 205.232 51.7156C204.766 52.4732 204.101 53.1667 204.165 54.1291C204.218 54.9247 204.388 55.7143 204.532 56.5017C204.856 58.2679 205.194 60.0315 205.53 61.7955C205.806 63.2441 206.093 64.6907 206.366 66.14C206.71 67.9686 207.043 69.7991 207.383 71.6285C207.691 73.2897 208.006 74.9499 208.311 76.6118C208.623 78.3164 208.939 80.0207 209.233 81.7286C209.47 83.1018 209.805 84.4743 209.867 85.8575C209.963 87.9967 209.534 90.0976 208.882 92.1335C208.34 93.8276 207.741 95.5055 207.1 97.1647C206.837 97.8442 206.22 98.177 205.476 98.2052C203.009 98.2989 200.65 97.7835 198.381 96.8635C197.659 96.5703 197.02 96.074 196.325 95.7049C196.184 95.6299 195.878 95.6313 195.787 95.728C193.585 98.0637 190.67 98.9876 187.705 99.7687C185.584 100.327 183.439 100.804 181.287 101.232C179.772 101.533 178.233 101.722 176.698 101.907C174.959 102.116 173.215 102.392 171.471 102.413C168.466 102.448 165.49 102.034 162.79 100.636C159.363 98.8631 156.55 96.4098 155.381 92.5699C154.936 91.1084 154.746 89.5515 154.596 88.0227C154.414 86.1787 154.418 84.317 154.302 82.4655C154.201 80.8638 154.063 79.2637 153.907 77.6663C153.707 75.6235 153.464 73.585 153.255 71.543C153.147 70.4861 153.094 69.4235 152.98 68.3675C152.825 66.9315 152.627 65.5003 152.463 64.0653C152.358 63.1409 152.297 62.2112 152.187 61.2875C152.036 60.0265 151.855 58.7693 151.691 57.5099C151.546 56.3995 151.418 55.2868 151.262 54.1781C151.088 52.945 150.984 51.6915 150.678 50.4907C150.375 49.3039 150.474 48.1928 150.883 47.0908C151.185 46.2761 151.562 45.4872 151.944 44.7054C152.024 44.5413 152.277 44.3542 152.439 44.3646C152.642 44.3776 152.915 44.5358 153.016 44.7124C153.936 46.3225 154.385 48.0982 154.695 49.903C155.049 51.9555 155.354 54.0175 155.622 56.0829C155.808 57.5207 155.903 58.9706 156.028 60.4159C156.21 62.5115 156.387 64.6076 156.557 66.7041C156.655 67.8949 156.743 69.0865 156.822 70.2786C156.96 72.3855 157.09 74.4929 157.22 76.6002C157.311 78.0784 157.388 79.5576 157.488 81.0352C157.611 82.8559 157.639 84.6933 157.924 86.4891C158.104 87.6172 158.606 88.7165 159.095 89.7671C159.74 91.1517 160.713 92.3015 161.953 93.2271C163.556 94.4225 165.376 95.0716 167.286 95.5694C170.086 96.2987 172.942 96.3546 175.782 96.1891C179.637 95.9644 183.456 95.367 187.139 94.1464C189.109 93.4937 191.049 92.7443 192.972 91.9639C193.652 91.6878 194.243 91.1906 194.909 90.7596Z" fill="white"/>
<path d="M247.865 77.1618C248.558 77.3809 249.278 77.4753 249.802 77.8466C250.739 78.5106 251.748 79.222 251.85 80.5258C251.883 80.9489 251.78 81.4498 251.565 81.8126C250.981 82.8009 250.373 83.7919 249.643 84.6721C249.03 85.4095 248.439 85.2133 247.874 84.3414C247.488 83.7448 247.075 83.1259 246.542 82.6728C245.695 81.9536 244.704 81.8068 243.705 82.4516C243.08 82.855 242.433 83.2327 241.85 83.6902C241.362 84.0727 241.304 84.7316 241.772 85.2492C242.432 85.98 243.132 86.7086 243.931 87.2736C245.412 88.3205 247.112 88.7348 248.935 88.8307C251.021 88.9404 253.031 88.6102 255.046 88.1627C255.443 88.0746 255.876 88.15 256.441 88.15C256.303 88.5667 256.245 88.945 256.064 89.25C255.477 90.2381 254.818 91.1836 254.24 92.177C253.91 92.7447 253.34 92.6866 252.873 92.757C249.395 93.2819 246.117 94.4518 242.924 95.8578C241.06 96.6791 239.285 97.7029 237.459 98.6153C237.271 98.7093 236.943 98.7595 236.809 98.6585C236.673 98.5563 236.606 98.2113 236.667 98.0243C236.989 97.038 237.22 95.9788 237.762 95.1221C238.156 94.5005 238.964 94.1221 239.625 93.6944C240.279 93.2715 240.981 92.9228 241.758 92.4872C241.129 92.1093 240.543 91.7816 239.983 91.416C239.143 90.8683 238.289 90.3349 237.498 89.7209C236.458 88.9127 236.265 86.843 237.109 85.627C239.216 82.588 241.707 79.9221 244.895 77.9916C245.763 77.4653 246.73 77.0719 247.865 77.1618Z" fill="white"/>
<path d="M215.721 63.1191C215.457 61.2305 215.18 59.4034 214.933 57.5722C214.535 54.6147 214.497 51.6802 215.592 48.8336C215.638 48.7147 215.674 48.575 215.76 48.4921C215.975 48.2845 216.217 48.104 216.447 47.9126C216.611 48.1609 216.856 48.3893 216.922 48.6612C217.093 49.3648 217.203 50.0851 217.305 50.8033C217.483 52.0604 217.63 53.322 217.804 54.5798C217.984 55.8778 218.172 57.1747 218.37 58.4699C218.6 59.975 218.844 61.4781 219.085 62.9816C219.285 64.2305 219.483 65.4798 219.693 66.7271C219.984 68.4588 220.296 70.1873 220.58 71.9202C220.827 73.4234 221.047 74.931 221.28 76.4365C221.542 78.133 221.82 79.8273 222.064 81.5266C222.187 82.3818 222.259 83.2448 222.336 84.1059C222.646 87.5725 222.863 91.0469 222.714 94.5256C222.644 96.1678 222.596 97.8461 221.925 99.3947C221.805 99.6711 221.457 99.9715 221.178 100.012C220.998 100.038 220.659 99.6447 220.558 99.3767C220.411 98.9847 220.394 98.5383 220.356 98.112C220.173 96.0171 220.009 93.9206 219.824 91.8259C219.704 90.4688 219.588 89.1103 219.419 87.7589C219.237 86.3105 218.978 84.8718 218.784 83.4248C218.66 82.504 218.616 81.5727 218.494 80.6515C218.332 79.4176 218.138 78.1877 217.94 76.9586C217.74 75.7111 217.52 74.4667 217.309 73.2209C217.058 71.7426 216.795 70.2664 216.562 68.7853C216.352 67.4479 216.18 66.1046 215.984 64.7649C215.906 64.2347 215.809 63.7073 215.721 63.1191Z" fill="white"/>
<path d="M340.926 59.0119C340.926 57.9361 340.854 56.9173 340.943 55.9128C341.088 54.2693 341.405 52.6571 342.484 51.3159C342.778 50.9506 343.26 50.9737 343.395 51.407C343.596 52.0538 343.759 52.7259 343.826 53.3984C343.995 55.1258 344.062 56.8636 344.246 58.5892C344.465 60.6441 344.773 62.6894 345.022 64.7413C345.176 66.0063 345.276 67.278 345.431 68.5428C345.584 69.7799 345.791 71.0101 345.947 72.2469C346.1 73.4677 346.214 74.6936 346.354 75.9162C346.524 77.3942 346.71 78.8704 346.876 80.349C346.941 80.9312 346.999 81.5171 347.01 82.1022C347.064 85.2661 347.197 88.4329 347.112 91.5935C347.06 93.5327 346.889 95.5025 346.204 97.358C346.068 97.727 345.774 98.0728 345.472 98.3371C345.084 98.6759 344.757 98.4458 344.645 98.0222C344.508 97.5092 344.404 96.9761 344.379 96.4473C344.337 95.5453 344.393 94.639 344.362 93.7361C344.29 91.6184 344.23 89.4991 344.091 87.3852C343.971 85.5511 343.766 83.7217 343.569 81.8936C343.369 80.0506 343.147 78.2097 342.907 76.3715C342.662 74.4957 342.365 72.6267 342.126 70.7502C341.959 69.4428 341.864 68.1265 341.718 66.8163C341.555 65.3595 341.352 63.907 341.2 62.4492C341.083 61.3273 341.016 60.2002 340.926 59.0119Z" fill="white"/>
<path d="M248.74 65.2492C247.914 64.5467 247.144 63.8427 246.366 63.1461C246.277 63.0663 246.151 63.0277 246.066 62.9826C245.465 63.9494 244.992 64.9748 244.28 65.7913C243.289 66.9275 242.224 68.0559 241.001 68.9188C239.181 70.2024 237.213 71.281 235.273 72.3862C234.374 72.8987 233.408 73.3042 232.443 73.687C231.988 73.8675 231.432 74.1143 231.012 73.5835C230.763 73.2678 231.075 72.4581 231.6 72.0763C233.294 70.8438 235.019 69.6536 236.697 68.3991C238.349 67.1634 239.942 65.8487 241.59 64.6083C242.612 63.84 243.352 62.8504 244.129 61.7821C243.325 61.1948 242.557 60.6566 241.815 60.086C241.014 59.4704 240.172 58.8883 239.465 58.1751C238.603 57.3054 238.752 56.158 239.063 55.1221C239.81 52.6354 241.166 50.5717 243.34 49.0382C244.775 48.0258 246.713 48.7429 247.478 50.0446C248.39 51.5998 248.798 53.3228 248.649 55.105C248.54 56.3925 248.165 57.6566 247.933 58.9356C247.9 59.1193 247.938 59.3965 248.058 59.5122C248.426 59.8689 248.84 60.1831 249.256 60.4866C249.827 60.9034 250.106 61.6515 249.916 62.3655C249.686 63.2263 249.462 64.0893 249.201 64.9407C249.16 65.073 248.934 65.1483 248.74 65.2492ZM245.897 55.1671C245.543 54.3326 245.229 53.4788 244.823 52.6703C244.548 52.1199 243.764 51.833 243.373 52.1765C242.747 52.7267 242.179 53.3727 241.712 54.0626C241.413 54.504 241.751 55.1629 242.199 55.4611C243.248 56.159 244.28 56.8832 245.323 57.5887C245.474 57.6905 245.655 57.7482 245.821 57.8263C245.891 57.6301 246.022 57.4325 246.018 57.2379C246.004 56.5867 245.941 55.9364 245.897 55.1671Z" fill="white"/>
<path d="M303.165 64.8158C302.963 65.3418 302.543 65.4102 302.122 65.0223C301.545 64.4907 300.979 63.9463 300.388 63.4302C300.017 63.1057 299.722 63.1674 299.496 63.6479C298.34 66.1101 296.512 68.0149 294.256 69.4445C291.995 70.8768 289.611 72.1141 287.27 73.4174C286.867 73.6413 286.423 73.836 285.975 73.9163C285.652 73.9742 285.199 73.9226 284.979 73.725C284.829 73.5906 284.854 73.0013 285.022 72.8192C285.675 72.1113 286.368 71.4202 287.135 70.8415C288.772 69.6066 290.482 68.468 292.131 67.2473C293.392 66.3137 294.653 65.3691 295.82 64.3244C296.535 63.6844 297.085 62.8558 297.672 62.0839C297.738 61.9967 297.623 61.6538 297.495 61.5544C296.174 60.5278 294.814 59.5513 293.506 58.5092C292.811 57.9558 292.611 57.2012 292.719 56.2844C292.934 54.4666 293.647 52.862 294.762 51.4697C295.495 50.5531 296.385 49.7263 297.325 49.0179C298.637 48.0291 300.586 48.9181 301.322 50.227C302.398 52.1395 302.643 54.2022 302.284 56.3488C302.109 57.3951 301.925 58.4397 301.728 59.5811C302.12 59.8721 302.63 60.257 303.147 60.6343C303.656 61.0066 303.901 62.0183 303.683 62.8582C303.518 63.4951 303.361 64.1341 303.165 64.8158ZM295.921 53.5312C295.136 54.5092 295.204 54.9768 296.213 55.6792C296.705 56.0209 297.174 56.3952 297.671 56.7275C298.333 57.1696 299.013 57.5851 299.765 58.0628C299.765 57.2262 299.831 56.5155 299.75 55.8217C299.607 54.5823 299.328 53.3915 298.335 52.4775C297.875 52.0532 297.437 52.0287 297.006 52.3473C296.601 52.6462 296.285 53.066 295.921 53.5312Z" fill="white"/>
<path d="M87.2337 45.4353C88.4778 44.4729 89.6938 43.5529 90.8973 42.6168C92.0746 41.7011 93.1934 40.7286 93.8582 39.3504C92.4636 38.2882 91.0541 37.3133 89.7783 36.187C89.3603 35.8179 89.0254 35.0168 89.1041 34.4794C89.5136 31.6845 90.8919 29.3804 93.1877 27.7316C94.7778 26.5895 96.5743 27.5645 97.2796 29.0838C97.9257 30.4759 98.1642 31.9272 98.0391 33.4214C97.9448 34.5468 97.6582 35.6552 97.4897 36.776C97.4611 36.966 97.5437 37.2254 97.6687 37.3738C97.8736 37.6172 98.1438 37.8121 98.4067 37.999C99.534 38.8006 99.3349 39.8948 99.0694 40.9955C98.9904 41.3228 98.8563 41.64 98.7184 41.9488C98.633 42.1401 98.4686 42.4684 98.3815 42.4553C98.0889 42.4116 97.7639 42.3012 97.544 42.1098C96.9194 41.5659 96.3406 40.9694 95.6671 40.3196C94.9242 42.1249 93.9597 43.5891 92.5796 44.6895C91.1279 45.847 89.5983 46.9174 88.0359 47.9219C86.8762 48.6675 85.6185 49.2645 84.3861 49.8916C83.9189 50.1293 83.3858 50.2351 82.9094 50.4579C82.4645 50.6659 82.0785 50.5408 81.9486 50.1622C81.8648 49.9182 82.029 49.4457 82.2424 49.2667C83.4952 48.2158 84.7903 47.2148 86.0826 46.2118C86.4347 45.9385 86.8265 45.7163 87.2337 45.4353ZM95.5549 35.3966C95.5513 34.7829 95.546 34.1692 95.5445 33.5554C95.5423 32.6222 95.1861 31.8092 94.6487 31.0783C94.1341 30.3784 93.3685 30.3259 92.7478 30.9295C92.439 31.2297 92.1446 31.5559 91.9019 31.9102C91.5324 32.4496 91.6024 33.1675 92.0556 33.4936C93.0587 34.2153 94.0777 34.9155 95.1057 35.6013C95.1928 35.6593 95.3956 35.5439 95.5549 35.3966Z" fill="white"/>
<path d="M172.881 44.1089C176.152 42.7365 179.387 41.4094 182.608 40.0488C185.713 38.7374 188.799 37.3835 191.903 36.0711C192.284 35.9101 192.725 35.8905 193.269 35.7782C193.203 36.1747 193.192 36.4491 193.111 36.7008C192.493 38.6104 191.227 39.8765 189.35 40.6041C187.394 41.362 185.475 42.2136 183.536 43.0158C180.52 44.2634 177.498 45.494 174.486 46.7502C171.57 47.9664 168.664 49.2063 165.754 50.4343C165.618 50.4914 165.48 50.5667 165.338 50.5776C165.009 50.6029 164.676 50.5941 164.344 50.5992C164.395 50.3296 164.433 50.057 164.499 49.7913C164.601 49.3797 164.758 48.9789 164.829 48.5629C164.999 47.5597 165.745 47.0993 166.557 46.7506C168.641 45.8566 170.743 45.007 172.881 44.1089Z" fill="white"/>
<path d="M179.221 79.2436C178.497 78.6076 177.768 78.0428 177.128 77.3912C176.725 76.9815 176.919 76.2636 177.352 75.7426C178.121 74.8178 178.847 73.857 179.589 72.9099C179.788 72.6568 179.968 72.3888 180.179 72.1462C180.425 71.8619 181.186 71.9538 181.53 72.2863C182.52 73.2399 183.512 74.1905 184.583 75.2193C185.452 74.1558 186.223 73.2059 187.002 72.2626C187.374 71.8122 187.744 71.3579 188.146 70.9354C188.545 70.5162 188.87 70.6473 189.3 71.0283C190.461 72.0562 191.686 73.0122 192.887 73.9942C192.952 74.0473 193.036 74.077 193.11 74.1198C194.05 74.6661 194.108 74.7856 193.469 75.6138C192.508 76.8592 191.523 78.0909 190.469 79.2571C190.268 79.4801 189.606 79.5456 189.321 79.3874C188.355 78.8521 187.459 78.1904 186.546 77.5621C186.248 77.3564 185.98 77.1054 185.626 76.8158C184.878 77.7452 184.162 78.6569 183.422 79.5481C182.97 80.0918 182.664 80.8558 181.745 80.7701C181.636 80.7599 181.495 80.8165 181.419 80.7659C180.691 80.2793 179.975 79.7764 179.221 79.2436Z" fill="white"/>
<path d="M266.288 52.5404C265.371 52.5394 264.496 52.4315 263.661 52.5693C262.362 52.7837 261.205 53.3987 260.232 54.3034C260.001 54.5178 259.883 54.8546 259.649 55.0633C259.454 55.2376 259.165 55.307 258.917 55.4229C258.828 55.1341 258.592 54.7943 258.672 54.5646C259.33 52.68 260.223 50.9552 262.011 49.849C263.009 49.2324 264.056 48.8661 265.219 48.6887C267.378 48.3591 269.285 49.2381 271.264 49.7982C272.345 50.104 273.422 50.4308 274.517 50.6758C275.168 50.8216 275.31 51.2201 275.129 51.7244C274.845 52.5174 274.522 53.3116 274.091 54.031C273.864 54.4116 273.377 54.6394 273.001 54.9281C272.832 55.0578 272.618 55.1396 272.476 55.291C270.63 57.248 268.3 58.2853 265.735 58.8995C264.744 59.1367 263.754 59.3919 262.791 59.7196C262.291 59.8895 261.875 59.8204 261.561 59.4881C261.298 59.2103 261.61 58.432 262.087 58.147C263.036 57.5806 264.001 57.0389 264.975 56.5168C266.568 55.6625 268.175 54.8322 269.776 53.9913C269.873 53.9401 269.969 53.8854 270.191 53.763C268.85 53.0972 267.617 52.7653 266.288 52.5404Z" fill="white"/>
<path d="M180.351 59.1147C181.081 58.0579 181.249 56.8734 181.437 55.698C181.493 55.3444 182.618 54.214 182.948 54.2894C183.093 54.3225 183.26 54.6006 183.28 54.7825C183.358 55.4938 183.347 56.2153 183.434 56.9252C183.607 58.3506 184.977 59.0987 186.279 58.5092C186.299 58.5005 186.325 58.5082 186.344 58.4993C187.564 57.9276 187.866 57.5036 187.313 56.2965C186.801 55.1778 187.25 54.3766 187.712 53.4968C187.919 53.1025 188.16 52.7258 188.407 52.305C188.837 52.1671 189.003 52.3584 189.139 52.8437C189.829 55.2971 189.927 57.6731 188.749 60.0478C188.077 61.4014 186.978 61.9116 185.635 62.2133C184.275 62.5188 183.099 62.2131 182.052 61.3155C181.946 61.2247 181.79 61.193 181.688 61.1479C181.257 61.6983 180.844 62.2172 180.44 62.7433C179.296 64.2332 176.647 65.0848 174.859 63.9367C174.054 63.4197 173.653 62.6554 173.512 61.772C173.189 59.7461 173.887 57.9582 174.968 56.2992C175.083 56.1215 175.451 56.1077 175.701 56.0179C175.78 56.277 175.955 56.5498 175.92 56.7925C175.821 57.485 175.508 58.1657 175.51 58.8504C175.515 60.582 176.624 60.961 177.92 60.7049C178.885 60.5143 179.762 60.0448 180.351 59.1147Z" fill="white"/>
<path d="M119.9 95.9587C119.668 96.0139 119.491 96.0664 119.13 96.1731C119.228 95.6889 119.258 95.3332 119.373 95.0073C119.673 94.1557 119.708 93.1314 120.565 92.5988C121.279 92.155 122.072 91.8294 122.85 91.4996C124.879 90.6399 126.921 89.8092 128.956 88.9624C132.497 87.4886 136.036 86.0079 139.578 84.5375C140.987 83.953 142.402 83.3864 143.817 82.8175C143.971 82.7555 144.141 82.7325 144.427 82.6602C144.36 83.0338 144.336 83.326 144.253 83.6C143.69 85.4451 142.515 86.6741 140.686 87.3668C138.706 88.1169 136.778 89.0043 134.822 89.8216C132.555 90.7696 130.281 91.7043 128.012 92.6487C125.82 93.5608 123.632 94.4808 121.439 95.3907C120.95 95.5935 120.45 95.7683 119.9 95.9587Z" fill="white"/>
<path d="M270.547 74.4165C270.028 75.0015 269.508 75.5828 268.692 75.2872C268.19 75.1057 267.729 74.7555 267.313 74.4063C266.315 73.57 265.37 72.6626 264.723 71.5235C264.571 71.2553 264.613 70.6658 264.811 70.4446C265.801 69.341 266.871 68.3093 267.916 67.2555C268.56 66.6059 268.907 66.6966 269.532 67.3522C270.638 68.5136 271.81 69.6161 272.995 70.6984C273.511 71.1692 273.573 71.3877 273.057 71.9043C272.232 72.731 271.406 73.5568 270.547 74.4165Z" fill="white"/>
<path d="M318.908 110.631C318.28 110.128 317.664 109.677 317.136 109.14C316.417 108.409 315.778 107.602 315.08 106.851C314.661 106.4 314.823 105.997 315.158 105.653C316.279 104.498 317.422 103.364 318.569 102.235C318.929 101.88 319.456 101.957 319.742 102.384C320.703 103.817 321.901 105.009 323.335 105.966C323.849 106.309 323.873 106.585 323.434 107.027C322.44 108.029 321.424 109.01 320.448 110.029C320.027 110.469 319.545 110.656 318.908 110.631Z" fill="white"/>
</svg>
